<?xml version="1.0" encoding="utf-8"?>
<!-- Generator: Adobe Illustrator 21.0.0, SVG Export Plug-In . SVG Version: 6.00 Build 0)  -->
<svg version="1.1" id="Layer_2" xmlns="http://www.w3.org/2000/svg" xmlns:xlink="http://www.w3.org/1999/xlink" x="0px" y="0px"
	 width="15px" height="13px" viewBox="0 0 15 13" style="enable-background:new 0 0 15 13;" xml:space="preserve">
<style type="text/css">
	.st0{fill:#101820;}
</style>
<path class="st0" d="M14.5,6c-0.1,0-0.2,0-0.3-0.1L7.5,1.1L0.8,5.9C0.5,6,0.2,6,0.1,5.7C-0.1,5.5,0,5.3,0.2,5.1l7-5
	C7.3,0,7.6,0,7.8,0.1l7,5C15,5.3,15,5.6,14.9,5.8C14.8,5.9,14.6,6,14.5,6z"/>
<path class="st0" d="M2,3C1.7,3,1.5,2.8,1.5,2.5v-2C1.5,0.2,1.7,0,2,0h2c0.3,0,0.5,0.2,0.5,0.5S4.2,1,4,1H2.5v1.5C2.5,2.8,2.2,3,2,3
	z"/>
<path class="st0" d="M12,13H9.5C9.2,13,9,12.8,9,12.5V9H6v3.5C6,12.8,5.7,13,5.5,13H3c-0.8,0-1.5-0.7-1.5-1.5v-5C1.5,6.2,1.7,6,2,6
	s0.5,0.2,0.5,0.5v5C2.5,11.8,2.7,12,3,12h2V8.5C5,8.2,5.2,8,5.5,8h4C9.7,8,10,8.2,10,8.5V12h2c0.3,0,0.5-0.2,0.5-0.5v-5
	C12.5,6.2,12.7,6,13,6s0.5,0.2,0.5,0.5v5C13.5,12.3,12.8,13,12,13z"/>
</svg>
