<?xml version="1.0" encoding="utf-8"?>
<!-- Generator: Adobe Illustrator 21.0.0, SVG Export Plug-In . SVG Version: 6.00 Build 0)  -->
<svg version="1.1" id="Слой_1" xmlns="http://www.w3.org/2000/svg" xmlns:xlink="http://www.w3.org/1999/xlink" x="0px" y="0px"
	 width="124px" height="88px" viewBox="0 0 124 88" style="enable-background:new 0 0 124 88;" xml:space="preserve">
<style type="text/css">
	.st0{fill:#999999;}
	.st1{fill:#902828;}
	.st2{fill:#FFFFFF;}
</style>
<g>
	<path class="st0" d="M5.4,11.7V4.9c0.8-0.1,1.6-0.2,2.4-0.2c2.5,0,4,1.1,4,3.4s-1.6,3.6-4.3,3.6H5.4 M7.3,0.7
		C4.9,0.7,2.4,0.8,0,1.2v24h5.4v-9.5h1.7c2.2,0,3.3,0.8,3.9,3.9c0.4,1.9,0.9,3.8,1.7,5.7h5.6c-0.5-0.9-1.2-4.1-2-6.8
		c-0.3-2-1.5-3.7-3.2-4.6v-0.1c2.5-0.9,4.2-3.3,4.3-6c0.1-2-0.7-3.8-2.2-5.1C13.4,1.2,10.9,0.7,7.3,0.7"/>
	<polyline class="st0" points="36.3,0.9 21.4,0.9 21.4,25.1 36.9,25.1 36.9,20.6 26.9,20.6 26.9,14.9 35.8,14.9 35.8,10.4 
		26.9,10.4 26.9,5.4 36.3,5.4 36.3,0.9 	"/>
	<polyline class="st0" points="46.1,0.9 40.6,0.9 40.6,25.1 55.8,25.1 55.8,20.5 46.1,20.5 46.1,0.9 	"/>
	<path class="st0" d="M65.7,14.8l1.4-5.2c0.4-1.4,0.8-3.2,1.1-4.7l0,0c0.4,1.4,0.8,3.2,1.2,4.7l1.6,5.2H65.7 M72.1,0.9h-7.2
		l-7.4,24.3h5.7l1.7-6.3h6.9l1.9,6.3h5.9L72.1,0.9"/>
	<path class="st0" d="M100.8,0.9h-6.3l-2,4.4c-0.6,1.4-1.1,2.5-1.7,4l0,0c-0.6-1.4-1.1-2.6-1.8-4l-2.2-4.4h-6.3l6.8,12l-7.1,12.3
		h6.3l2-4.4c0.8-1.7,1.4-3,1.9-4.4l0,0c0.7,1.4,1.3,2.7,2.2,4.4l2.2,4.4h6.3l-7.1-12.4L100.8,0.9"/>
	<path class="st0" d="M110.1,14.8l1.4-5.2c0.4-1.4,0.8-3.2,1.1-4.7l0,0c0.4,1.4,0.8,3.2,1.2,4.7l1.6,5.2H110.1 M116.5,0.9h-7.2
		l-7.4,24.3h5.7l1.7-6.3h6.9l1.9,6.3h5.9L116.5,0.9"/>
	<path class="st0" d="M13.5,30.1c-8.1,0-13,4.5-13,10.4c0,5,3.7,8.2,9.4,10.2c4.1,1.5,5.8,2.7,5.8,4.8s-1.9,3.7-5.5,3.7
		c-3-0.1-6-0.8-8.6-2.2L0,63.5c3.1,1.4,6.4,2.1,9.7,2.1c9.4,0,13.9-4.9,13.9-10.7c0-4.8-2.9-8-8.9-10.3C10.3,43,8.3,42,8.3,39.8
		c0-1.8,1.6-3.3,5-3.3c2.5,0,5,0.5,7.2,1.6l1.7-6.3C19.5,30.6,16.5,30,13.5,30.1"/>
	<polyline class="st0" points="52.7,30.7 26.3,30.7 26.3,37.2 35.5,37.2 35.5,65.1 43.3,65.1 43.3,37.2 52.7,37.2 52.7,30.7 	"/>
	<path class="st0" d="M105.7,45.9v-9.4c1.2-0.2,2.3-0.3,3.5-0.3c3.6,0,5.7,1.6,5.7,4.7c0,3.1-2.3,5-6.2,5L105.7,45.9 M108.4,30.4
		c-3.5,0-6.9,0.2-10.4,0.7v34h7.7V51.6h2.3c3.1,0,4.7,1.2,5.6,5.5c0.5,2.7,1.3,5.4,2.4,8h8c-0.7-1.3-1.7-5.8-2.8-9.7
		c-0.9-3.1-2.2-5.5-4.6-6.4v-0.2c3.6-1.3,6-4.7,6-8.5c0.2-2.8-1-5.4-3.1-7.2C117,31.2,113.5,30.4,108.4,30.4"/>
	<polyline class="st1" points="72.7,27.1 66.4,39.7 52.4,41.8 62.5,51.6 60.1,65.6 72.7,59 85.2,65.6 82.8,51.6 92.9,41.8 
		78.9,39.7 72.7,27.1 	"/>
	<rect y="70.3" class="st0" width="124" height="18"/>
	<g>
		<path class="st2" d="M4.5,77H2.6v-1.3h5.2V77H6v5.5H4.5V77z"/>
		<path class="st2" d="M12.6,79.7h-2.5v1.6h2.8v1.2H8.6v-6.7h4.2V77h-2.6v1.4h2.5V79.7z"/>
		<path class="st2" d="M17.5,82.5l-0.6-1.2c-0.3-0.5-0.4-0.8-0.6-1.2h0c-0.1,0.4-0.3,0.7-0.5,1.2l-0.6,1.2h-1.7l1.9-3.4l-1.9-3.3
			h1.7l0.6,1.2c0.2,0.4,0.4,0.7,0.5,1.1h0c0.2-0.4,0.3-0.7,0.5-1.1l0.6-1.2h1.7l-1.9,3.3l2,3.4H17.5z"/>
		<path class="st2" d="M21.6,75.8v2.6h2.5v-2.6h1.5v6.7h-1.5v-2.8h-2.5v2.8h-1.5v-6.7H21.6z"/>
		<path class="st2" d="M33.2,79.1c0,2.2-1.3,3.5-3.3,3.5c-2,0-3.2-1.5-3.2-3.4c0-2,1.3-3.5,3.3-3.5C32,75.7,33.2,77.2,33.2,79.1z
			 M28.3,79.2c0,1.3,0.6,2.2,1.6,2.2c1,0,1.6-1,1.6-2.3c0-1.2-0.6-2.2-1.6-2.2C28.9,76.9,28.3,77.8,28.3,79.2z"/>
		<path class="st2" d="M39.1,75.8v6.7h-1.5V77h-1.5v1.6c0,1.7-0.2,3.1-1.2,3.7c-0.3,0.2-0.8,0.3-1.3,0.3l-0.2-1.2
			c0.3,0,0.6-0.2,0.8-0.4c0.4-0.4,0.5-1.3,0.5-2.3v-2.9H39.1z"/>
		<path class="st2" d="M46.6,79.1c0,2.2-1.3,3.5-3.3,3.5c-2,0-3.2-1.5-3.2-3.4c0-2,1.3-3.5,3.3-3.5C45.5,75.7,46.6,77.2,46.6,79.1z
			 M41.8,79.2c0,1.3,0.6,2.2,1.6,2.2c1,0,1.6-1,1.6-2.3c0-1.2-0.6-2.2-1.6-2.2C42.4,76.9,41.8,77.8,41.8,79.2z"/>
		<path class="st2" d="M51.7,75.8V77h-2.5v5.5h-1.5v-6.7H51.7z"/>
		<path class="st2" d="M53.9,75.8v2c0,1.1,0,2.1-0.1,3h0c0.4-0.8,0.8-1.7,1.2-2.4l1.4-2.6h1.6v6.7h-1.4v-2c0-1,0-2,0.1-2.8h0
			c-0.3,0.8-0.7,1.7-1.1,2.4l-1.4,2.4h-1.7v-6.7H53.9z"/>
		<path class="st2" d="M60.8,75.8v2c0,1.1,0,2.1-0.1,3h0c0.4-0.8,0.8-1.7,1.2-2.4l1.4-2.6H65v6.7h-1.4v-2c0-1,0-2,0.1-2.8h0
			c-0.3,0.8-0.7,1.7-1.1,2.4l-1.4,2.4h-1.7v-6.7H60.8z"/>
		<path class="st2" d="M70.1,76.2c0.5-0.3,1.2-0.5,2.1-0.5c1.5,0,2.3,0.7,2.3,1.7c0,0.8-0.6,1.4-1.3,1.6v0c0.8,0.1,1.6,0.7,1.6,1.6
			c0,1.5-1.5,2-2.8,2c-0.7,0-1.5-0.2-2-0.5l0.3-1.2c0.3,0.2,1,0.4,1.6,0.4c0.8,0,1.2-0.3,1.2-0.9c0-0.8-0.8-0.9-1.4-0.9h-0.6v-1.1
			h0.6c0.7,0,1.2-0.3,1.2-0.8c0-0.4-0.4-0.7-1-0.7c-0.5,0-1.1,0.2-1.5,0.4L70.1,76.2z"/>
		<path class="st2" d="M81.2,75.8v5.5l0.7,0l-0.1,2.9h-1.2l-0.1-1.7h-3.9l-0.1,1.7h-1.2l-0.1-2.9l0.6,0c0.3-0.5,0.5-1,0.6-1.5
			c0.2-0.7,0.3-1.4,0.3-2.2v-1.8H81.2z M78.2,77.9c0,0.8-0.1,1.5-0.3,2.2c-0.1,0.4-0.3,0.8-0.5,1.1h2.2V77h-1.5V77.9z"/>
		<path class="st2" d="M88.8,79.1c0,2.2-1.3,3.5-3.3,3.5c-2,0-3.2-1.5-3.2-3.4c0-2,1.3-3.5,3.3-3.5C87.7,75.7,88.8,77.2,88.8,79.1z
			 M83.9,79.2c0,1.3,0.6,2.2,1.6,2.2c1,0,1.6-1,1.6-2.3c0-1.2-0.6-2.2-1.6-2.2C84.5,76.9,83.9,77.8,83.9,79.2z"/>
		<path class="st2" d="M89.8,75.9c0.5-0.1,1.1-0.1,2.1-0.1c0.9,0,1.6,0.2,2.1,0.5c0.4,0.3,0.7,0.9,0.7,1.6c0,0.7-0.2,1.2-0.6,1.6
			c-0.5,0.5-1.3,0.7-2.2,0.7c-0.2,0-0.4,0-0.5,0v2.4h-1.5V75.9z M91.3,78.9c0.1,0,0.3,0,0.5,0c0.8,0,1.3-0.4,1.3-1.1
			c0-0.6-0.4-1-1.2-1c-0.3,0-0.5,0-0.6,0.1V78.9z"/>
		<path class="st2" d="M101.7,79.1c0,2.2-1.3,3.5-3.3,3.5c-2,0-3.2-1.5-3.2-3.4c0-2,1.3-3.5,3.3-3.5
			C100.6,75.7,101.7,77.2,101.7,79.1z M96.9,79.2c0,1.3,0.6,2.2,1.6,2.2c1,0,1.6-1,1.6-2.3c0-1.2-0.6-2.2-1.6-2.2
			C97.5,76.9,96.9,77.8,96.9,79.2z"/>
		<path class="st2" d="M102.7,75.9c0.4-0.1,1.2-0.1,2-0.1c0.9,0,1.5,0.1,2,0.4c0.5,0.3,0.8,0.7,0.8,1.3c0,0.6-0.3,1.2-1.1,1.4v0
			c0.8,0.2,1.3,0.8,1.3,1.7c0,0.6-0.3,1.1-0.7,1.4c-0.5,0.4-1.3,0.6-2.6,0.6c-0.7,0-1.3-0.1-1.6-0.1V75.9z M104.3,78.4h0.5
			c0.8,0,1.2-0.3,1.2-0.8c0-0.5-0.4-0.8-1.1-0.8c-0.3,0-0.5,0-0.6,0V78.4z M104.3,81.4c0.1,0,0.3,0,0.6,0c0.7,0,1.3-0.3,1.3-1
			c0-0.7-0.6-0.9-1.4-0.9h-0.5V81.4z"/>
		<path class="st2" d="M110.3,75.8v2.3c0.2,0,0.5,0,0.8,0c1.4,0,2.7,0.7,2.7,2.2c0,0.6-0.2,1.1-0.5,1.5c-0.6,0.7-1.8,0.9-2.8,0.9
			c-0.7,0-1.3-0.1-1.6-0.1v-6.7H110.3z M110.3,81.4c0.2,0,0.3,0,0.6,0c0.7,0,1.3-0.4,1.3-1.1c0-0.8-0.6-1.1-1.3-1.1
			c-0.2,0-0.4,0-0.6,0V81.4z"/>
		<path class="st2" d="M114.2,82.5c0.1-0.2,0.3-0.5,0.3-0.8c0.3-0.8,0.4-1.6,0.9-2c0.1-0.1,0.3-0.3,0.6-0.3v0
			c-0.8-0.1-1.4-0.7-1.4-1.6c0-0.6,0.3-1.1,0.7-1.4c0.5-0.4,1.3-0.5,2.2-0.5c0.7,0,1.4,0.1,1.9,0.1v6.6H118v-2.6h-0.4
			c-0.3,0-0.5,0.1-0.7,0.3c-0.4,0.4-0.6,1.3-0.8,1.8c-0.1,0.2-0.1,0.4-0.2,0.6H114.2z M118,76.9c-0.1,0-0.3-0.1-0.6-0.1
			c-0.7,0-1.2,0.3-1.2,1c0,0.6,0.6,0.9,1.3,0.9c0.2,0,0.4,0,0.5,0V76.9z"/>
	</g>
</g>
</svg>
