<svg id="Capa_1" data-name="Capa 1" xmlns="http://www.w3.org/2000/svg" width="30.05" height="30.05" viewBox="0 0 30.05 30.05">
  <defs>
    <style>
      .cls-1 {
        fill: #ba0000;
      }

      .cls-2 {
        fill: #fff;
      }
    </style>
  </defs>
  <title>play-button1-02</title>
  <path class="cls-1" d="M28.25,6.12h-5.7a3.3,3.3,0,0,0-1.9-6,3.54,3.54,0,0,0-1.42.32h0A30.49,30.49,0,0,0,15,3.8,30.45,30.45,0,0,0,10.82.43h0A3.55,3.55,0,0,0,9.39.11,3.3,3.3,0,0,0,7,5.71a3.38,3.38,0,0,0,.47.41H1.8A1.8,1.8,0,0,0,0,7.91v4.21a1.8,1.8,0,0,0,1.8,1.8h1V27.68A2.34,2.34,0,0,0,5.09,30H25a2.34,2.34,0,0,0,2.33-2.34V13.92h1a1.8,1.8,0,0,0,1.8-1.8V7.91A1.8,1.8,0,0,0,28.25,6.12Z"/>
  <path class="cls-2" d="M19.56,2.69A1.22,1.22,0,0,1,20,2.58a1.07,1.07,0,0,1,0,2.14h-3A21.36,21.36,0,0,1,19.56,2.69Z"/>
  <path class="cls-2" d="M3.73,12.13a.53.53,0,0,1-.56-.49V8.19a.53.53,0,0,1,.56-.49h9.62v4.44H3.73Z"/>
  <path class="cls-2" d="M13.35,27.6H6.41a1,1,0,0,1-1.12-1V15.14h8.06V27.6Z"/>
  <path class="cls-2" d="M26.7,12.13H17.07V7.7H26.7a.53.53,0,0,1,.56.49v3.45a.53.53,0,0,1-.56.49Z"/>
  <path class="cls-2" d="M17.07,27.6V15.14h8.06V26.65a1,1,0,0,1-1.12,1H17.07Z"/>
  <path class="cls-2" d="M13.35,4.72h-3a1.07,1.07,0,0,1,0-2.14,1.22,1.22,0,0,1,.48.11A21.36,21.36,0,0,1,13.35,4.72Z"/>
</svg>
