<svg id="Capa_1" data-name="Capa 1" xmlns="http://www.w3.org/2000/svg" width="30.05" height="30.05" viewBox="0 0 30.05 30.05">
  <defs>
    <style>
      .cls-1 {
        fill: #ba0000;
      }

      .cls-2 {
        fill: #fff;
      }
    </style>
  </defs>
  <title>play-button_non_active</title>
  <g>
    <circle class="cls-1" cx="14.97" cy="15.09" r="12.59"/>
    <g>
      <path class="cls-2" d="M20,14.44,13.74,9.9a.75.75,0,0,0-1.2.61v9.07a.75.75,0,0,0,.41.67.76.76,0,0,0,.34.08.75.75,0,0,0,.44-.15L20,15.65a.75.75,0,0,0,0-1.21Z"/>
      <path class="cls-2" d="M15,0a15,15,0,1,0,15,15A15,15,0,0,0,15,0Zm0,27.54A12.52,12.52,0,1,1,27.54,15,12.51,12.51,0,0,1,15,27.54Z"/>
    </g>
  </g>
</svg>
