<svg id="Слой_1" data-name="Слой 1" xmlns="http://www.w3.org/2000/svg" width="70" height="100" viewBox="0 0 70 100">
  <defs>
    <style>
      .cls-1 {
        fill: #8e8e82;
      }

      .cls-2 {
        opacity: 0.92;
      }

      .cls-3 {
        fill: #93340a;
      }
    </style>
  </defs>
  <title>zen_gm-04</title>
  <g>
    <g>
      <path class="cls-1" d="M25.66,14.31l-.79.79L13.7,17.94l3.85,3.85-.87.87L10,16l.87-.87,11-2.81L18.44,8.82,19.31,8Z"/>
      <path class="cls-1" d="M32.12,20.76l-.87.87-3.1-3.1-2.62,2.62,2.61,2.61-.87.87L24.65,22l-3.43,3.43,3.63,3.63L24,30l-6.15-6.15,8.67-8.67Z"/>
      <path class="cls-1" d="M39.77,28.41,31.1,37.08l-1.92-1.92L31,26.05l-5.49,5.49-.84-.84L33.38,22,35,23.62l-2,9.87,5.92-5.92Z"/>
    </g>
    <g class="cls-2">
      <path d="M36.48,9.55c.16.17,0,.22.2.41,0-.14.17,0,.24,0S36.65,9.57,36.48,9.55Zm5,6.9c.08,0,.12.18.14.33s0,.29.13.33-.11,0-.16-.12,0-.18-.06-.28Zm-2.88-4.93c.09,0,.22.07.35.21a3.63,3.63,0,0,1,.34.5L39,11.88C38.85,11.75,38.72,11.64,38.61,11.52ZM6.86,15.84c0-.14,0,0,0,0A3.24,3.24,0,0,1,7.26,15c0,.1-.13.36-.24.6l-.15.34a.87.87,0,0,1-.1.2c0,.11,0,.09,0,.12l-.14.36c0,.12-.08.23-.12.34s-.14.43-.21.65a2.07,2.07,0,0,1,.18-.78c.05-.16.12-.31.16-.44a.75.75,0,0,0,.06-.28A.86.86,0,0,1,6.86,15.84Zm-.53,1.75s-.07.34-.09.48,0,.06-.13.16A4.68,4.68,0,0,1,6.33,17.59Zm12,22.74a6.42,6.42,0,0,1,.82.24A2.58,2.58,0,0,1,18.38,40.33ZM5.74,19.91a1.68,1.68,0,0,1,0,.38c0,.17,0,.36,0,.49s0,0-.06.08c0-.08,0-.2,0-.39,0,.13,0,0,0-.11A2.07,2.07,0,0,1,5.74,19.91ZM24.49,41.46c.26-.07.43,0,.76,0,.09,0-.29.09,0,.1C25,41.58,24.81,41.44,24.49,41.46ZM5.89,18.54A4.55,4.55,0,0,1,6,17.88a.58.58,0,0,1,0,.29l-.06.2Zm.19-1.17c0-.09,0-.06.06-.08,0-.17,0-.21.09-.38C6.31,16.89,6,17.77,6.08,17.38Zm-.55,3.37a2.72,2.72,0,0,1,0,.37c0,.12,0,.23,0,.29s0,.05,0,0,0-.12,0-.22ZM5.48,23c0-.18,0-.6,0-.78C5.49,21.83,5.51,22.91,5.48,23Zm.05.87s0,.12,0,.23a2.45,2.45,0,0,1,0,.25c0-.05,0-.1-.07-.1C5.49,24,5.54,24,5.53,23.85ZM24.86,41.58h.47c.09.09-.3,0-.48.06ZM10.32,9.4l0,0,.15-.17.12-.11A1.25,1.25,0,0,1,10.32,9.4ZM20.39,41.16a3.83,3.83,0,0,1-.84-.19,1.25,1.25,0,0,1,.39.06A2.37,2.37,0,0,1,20.39,41.16ZM6.88,14.74a2.7,2.7,0,0,1-.21.55c0-.22,0-.16-.09,0a2.77,2.77,0,0,0,.16-.36C6.73,15.12,6.7,15.05,6.88,14.74Zm20-12.11-.3,0v0C26.75,2.59,27,2.6,26.89,2.63ZM12.22,7.38s.09-.14.21-.25.25-.2.24-.14l-.19.17Zm-.89.78a1.32,1.32,0,0,1,.32-.36,2.7,2.7,0,0,1,.42-.3,4.38,4.38,0,0,1-.35.32ZM24.06,41.83l-.35,0h-.19l-.23,0a1.33,1.33,0,0,1,.39,0A.77.77,0,0,1,24.06,41.83ZM15.63,5c-.06,0,0,0,0-.05L16,4.75l.49-.24L17,4.3l-.32.17-.39.2C16,4.8,15.73,4.91,15.63,5Zm6.59-2.27.69-.08C23.09,2.62,22.05,2.8,22.21,2.72ZM13.28,6.47c0-.08,0-.07,0-.07s.57-.38.18-.09C13.55,6.25,13.5,6.31,13.28,6.47Zm-6,7.24c-.06.12-.11.24-.17.36,0-.16.06-.21,0-.14C7.15,13.78,7.25,13.64,7.27,13.71Zm1.86-3.16a2.87,2.87,0,0,1-.35.48c-.1,0,.21-.34.32-.51C9.12,10.52,9,10.68,9.12,10.55ZM14,5.83a6.87,6.87,0,0,1,.59-.38A2.8,2.8,0,0,1,14,5.83Zm-.09,0a8,8,0,0,1-.66.47l-.3.21a2.2,2.2,0,0,1,.3-.23ZM8.31,11.54c-.14.25-.16.2-.28.41a1.33,1.33,0,0,1,.15-.26s0,0-.07.07C8.14,11.63,8.3,11.5,8.31,11.54ZM11,8.19c.1-.13,0-.05-.11.06s-.26.26-.28.25l.22-.24L11.14,8l.35-.31.37-.33a2.17,2.17,0,0,1-.35.35ZM7.9,12.1c-.07,0,.05-.19,0-.16.14-.2.29-.43.32-.38C7.78,12.11,8.21,11.59,7.9,12.1Zm4.88-5.74c.26-.26-.07,0,0-.09.19-.16.19-.11.42-.29-.18.15-.09.16.2,0,.09,0,0,0-.16.13L13,6.22Zm-.09,0a2.54,2.54,0,0,1-.49.36c-.06,0,.14-.14.14-.16C12.6,6.4,12.41,6.64,12.7,6.4Zm23.13-.66a1.07,1.07,0,0,0-.23-.2c0-.13.29,0,.45.07s0,.13.21.23C36.14,5.85,35.91,5.69,35.83,5.74Zm-31,15.13a3,3,0,0,1,.06-.7C4.91,20.28,4.81,20.57,4.78,20.88ZM8.2,11c-.06.16-.48.72-.31.39A1.63,1.63,0,0,0,8.2,11ZM5,19.06c0-.13,0,0-.07.11s-.07.26-.1.15l0-.18,0-.18c0-.12.06-.24.09-.35a2.63,2.63,0,0,1,.2-.55l-.08.44C5,18.66,5,18.83,5,19.06Zm8-13a9.05,9.05,0,0,0-.75.52A2.87,2.87,0,0,1,13,6.05ZM9.68,8.76c0,.13,0,0,.06.07C9.41,9.22,9.37,9.12,9.68,8.76ZM8,10.73a.66.66,0,0,1,.27-.3s.26-.45.08-.21c.13-.29.08,0,.28-.29l.05.06c-.15.17-.24.3-.32.39l-.16.18C8.18,10.63,8.14,10.64,8,10.73ZM36,5c-.16-.1-.16-.16-.33-.25a.41.41,0,0,1,.21,0,2.31,2.31,0,0,1,.29.15C36,4.93,36.17,5.07,36,5ZM12.06,6.49a4.45,4.45,0,0,1-.47.4A1.55,1.55,0,0,1,12.06,6.49ZM6.39,13.58c-.08.12-.24.48-.27.43a7.78,7.78,0,0,1,.43-.82.77.77,0,0,1-.14.28C6.36,13.56,6.38,13.55,6.39,13.58Zm3.16-5,.09-.12.1-.12.21-.24a8.41,8.41,0,0,0,.64-.56l.73-.7s.16-.08.3-.2l.24-.2.28-.2A28.61,28.61,0,0,0,9.55,8.59Zm4.8-4c-.15.14-.4.21-.38.15C14.29,4.57,14.14,4.75,14.35,4.63Zm-1.68,1-.34.24s.23-.2.23-.23S12.64,5.65,12.67,5.66ZM12,6.14a5.51,5.51,0,0,1-.58.44.87.87,0,0,1,.31-.3A2.84,2.84,0,0,1,12,6.14Zm-4.43,4.7c.1-.12.3-.32.3-.43s.06,0-.06.17S7.53,11,7.56,10.84Zm4.28-4.77-.46.38-.54.45a5.84,5.84,0,0,1-.8.63,13.93,13.93,0,0,1,1.22-1c.08-.08,0-.07.15-.16A2.73,2.73,0,0,1,11.83,6.07Zm23.54-3a3.82,3.82,0,0,1,.75.24l.44.2a5.26,5.26,0,0,1,.48.28l-.39-.17-.42-.18-.43-.19-.21-.09ZM7.91,9.87a5.76,5.76,0,0,1,.46-.61L8.63,9a.74.74,0,0,1,.18-.15c-.12.13-.27.31-.43.49l-.24.28L8,9.74ZM9.27,8.23c-.21.24-.3.25-.35.4-.22.22.07-.13,0-.06C9.06,8.35,9.27,8.14,9.27,8.23Zm-.63.22c.18-.21.44-.41.52-.55s.09-.06.06,0L9,8.11C8.85,8.29,8.64,8.49,8.63,8.45ZM7.47,9.86c-.15.2-.31.4-.3.3S7.46,9.79,7.47,9.86ZM3.16,21.71l0,.33c0,.11,0,.22,0,.33s0-.06,0-.21,0-.34,0-.45ZM9.69,7.2A10,10,0,0,1,8.93,8c.19-.27.43-.42.67-.71C9.6,7.28,9.63,7.26,9.69,7.2ZM5,13.91a4.1,4.1,0,0,1-.18.39c0-.09,0-.13,0-.14.1-.25.11-.2.24-.49C5,13.74,5,13.84,5,13.91ZM6.52,11c-.14.25-.11.09-.16.15a9,9,0,0,0-.56.91c-.11.21-.19.32-.31.33a1.49,1.49,0,0,0-.17.28,5.07,5.07,0,0,1,.44-.76,9.05,9.05,0,0,0,.54-.81c.06,0,.16-.08.42-.49C6.78,10.63,6.51,11,6.52,11ZM3.1,19.69A1.43,1.43,0,0,0,3,20c0,.13,0,.26-.05.36,0,.26.08.09,0,.46,0-.29,0,.11-.1.31a2.72,2.72,0,0,1,0-.72c0-.16,0-.34.07-.51s.06-.35.08-.52.06-.05.09-.2c.07.1,0,.52.14.16a3.23,3.23,0,0,0-.09.43c-.07-.08-.14.19-.22.73A4,4,0,0,1,3.1,19.69ZM3,22.77c0,.33,0-.11-.07,0a5.22,5.22,0,0,0,0-.65,2.12,2.12,0,0,1,.05-.55,2.43,2.43,0,0,1,0,.59A4.84,4.84,0,0,0,3,22.77Zm.58-5.12a3.18,3.18,0,0,0-.12.5c0,.19-.08.41-.14.68l-.09,0c.06-.27.12-.51.17-.71s.06-.19.08-.26A1.34,1.34,0,0,1,3.54,17.65ZM20.61,44.8a14.42,14.42,0,0,1-1.53-.4l.91.18A1.19,1.19,0,0,1,20.61,44.8ZM3.12,26.72a7.93,7.93,0,0,1,.19.85c.07.29.13.61.23,1a8.53,8.53,0,0,1-.23-.85C3.24,27.38,3.19,27,3.12,26.72ZM16.33,43.37c.38.11.42.27.51.24.29.16-.21,0-.45-.11C16.31,43.45,16.3,43.41,16.33,43.37Zm-2.13-1c.29.15.27.21.57.36-.22-.08-.3,0-.32.07A3.84,3.84,0,0,0,15,43c-.14-.15.35,0,0-.21a.91.91,0,0,0,.32.13c.34.21-.57,0,.18.35a9,9,0,0,0-1-.31c.23,0-.12-.3-.35-.49C14.48,42.61,14.17,42.44,14.2,42.34Zm-5-3.69c-.31-.24-.31-.19-.3,0-.26-.36-.08-.27-.3-.61a2.5,2.5,0,0,1,.33.33C9.08,38.44,9.18,38.57,9.25,38.65Zm-5.76-10c-.12-.12-.11-.44-.18-.76C3.43,28.07,3.34,28.21,3.49,28.68ZM16.86,43.81a1.87,1.87,0,0,0-.6-.2,1.85,1.85,0,0,1-.7-.27s.23,0-.05-.13a2.09,2.09,0,0,1,.42.18c-.14,0-.15,0,0,.08S16.85,43.65,16.86,43.81Zm-8-36.27c0,.06-.37.4-.51.58,0-.07.16-.2.12-.2a1.71,1.71,0,0,1,.16-.15ZM48.36,26.62a2.26,2.26,0,0,0-.16.74c0,.11,0,.23,0,.37a4.66,4.66,0,0,1-.13.53.64.64,0,0,1,0-.36c-.14,0-.15.54-.25.67a4.93,4.93,0,0,1,.19-1.1A2,2,0,0,1,48.36,26.62Zm-44-12.46c0-.13.09-.31.12-.45s.1-.11.06,0A2.89,2.89,0,0,1,4.38,14.16Zm4.43,24.4c.45.47,1.47,1.33,1.78,1.75-.22-.2-.35-.26-.62-.51,0,0,.1.17.31.34-.06,0-.32-.23-.54-.43.21.08,0-.12-.23-.38A9.35,9.35,0,0,1,8.81,38.57Zm12.8,6.85-.54,0-.62-.11c-.22,0-.45-.09-.68-.15l-.71-.2c-.24-.06-.48-.16-.72-.24L18,44.55l-.35-.14c-.46-.19-.92-.37-1.31-.57.78.3,1.66.56,2.56.84S20.71,45.2,21.61,45.42ZM5.22,12.35c-.11.15-.32.57-.33.44A1.34,1.34,0,0,1,5.22,12.35Zm1.2,23.33c.08.14.13.26.22.4-.05,0-.1-.08-.12-.06C6.42,35.84,6.33,35.66,6.42,35.68ZM2.37,24.16c0-.2,0-.26.07-.22,0,.37,0,.37.09.34,0,.16-.06.29-.11.1C2.4,24,2.44,24.1,2.37,24.16ZM4.1,14.51a2.55,2.55,0,0,0-.16.29l-.13.31c-.1.19,0-.22-.16.17a7.44,7.44,0,0,1-.36,1.07,5.48,5.48,0,0,1,.25-.81,2.9,2.9,0,0,0,.22-.7,1.75,1.75,0,0,0,.11-.21A.84.84,0,0,1,4,14.45,3.38,3.38,0,0,1,4.17,14l.13-.31a2.66,2.66,0,0,1,.13-.23c0,.07-.1.24-.06.23a10.74,10.74,0,0,0-.46,1C3.94,14.81,4.07,14.43,4.1,14.51ZM30.28,45.3a2.5,2.5,0,0,1-.78.21l-.56.09-.51.07a2.27,2.27,0,0,1,.38-.11l.44-.08C29.58,45.42,29.93,45.38,30.28,45.3ZM42.06,39c-.14,0,1.62-1.77.48-.53A4.06,4.06,0,0,1,42.06,39Zm-38-7.45a3.57,3.57,0,0,1,.15.43c-.05,0-.11-.14-.17-.19S4.05,31.59,4.06,31.52ZM2.91,28a7.81,7.81,0,0,1,.23.88A3.24,3.24,0,0,1,2.91,28Zm6-20.89c.46-.43.4-.43.81-.76l-.43.43C9.15,6.92,9,7.08,8.94,7.07ZM2.66,19.21c0,.12-.1.45-.14.42.09-.48.14-.89,0-.46,0-.2,0-.25.07-.3a.67.67,0,0,0,.12-.34C2.75,18.74,2.64,19,2.66,19.21Zm.11-.79c-.08.12.07-.36,0-.25,0-.22.08-.4.12-.55L3,17.24l.11-.35.07-.2.09-.23C3.09,17.19,2.93,17.71,2.78,18.42Zm-.51,5a2.48,2.48,0,0,1,0-.79c0,.12,0,.31,0,.48S2.31,23.47,2.27,23.47ZM5.17,12l-.37.69c-.1,0,.24-.48.35-.71ZM7.64,8.45c-.18.23-.21.2-.26.21l.43-.51a2.28,2.28,0,0,1-.21.27ZM6.27,10.21c-.08.14-.28.45-.44.69s-.3.43-.28.29l.32-.44ZM8.2,7.73s.26-.3.37-.42-.07.09-.06.1c.16-.15.25-.25.22-.26.21-.22.18-.13.33-.29A10.74,10.74,0,0,1,8.2,7.73ZM4,31.9s.07.11.13.25.12.29.17.38-.1-.11-.16-.25A1.94,1.94,0,0,1,4,31.9ZM4.57,34a2.9,2.9,0,0,1,.26.44c.11.2.23.42.33.57-.07-.09-.16-.22-.25-.35l-.14-.21-.13-.22C4.7,34.25,4.64,34.13,4.57,34Zm-1.4-3.2c0,.2.13.32.18.55a3.17,3.17,0,0,1-.23-.54ZM2.35,28a3.61,3.61,0,0,1-.14-.56c0-.19-.07-.39-.1-.58,0,.16.09.35.13.56S2.32,27.84,2.35,28Zm.13.57a2.25,2.25,0,0,1,.13.44c.05.2.11.42.16.57A3.12,3.12,0,0,1,2.48,28.58Zm-.62-3.89a1.91,1.91,0,0,1-.07-.7A3,3,0,0,1,1.86,24.69ZM41.21,14.46c0,.22-.07-.21-.16-.23s-.1.21-.06.39.05.19.07.29a1.51,1.51,0,0,1,0,.27c.19.06-.07-.34.08-.32a1.21,1.21,0,0,0,.27.67c-.06.05-.13,0-.2,0a.42.42,0,0,0,0,.26,1.68,1.68,0,0,0,.15.33l-.14-.24-.13-.23a4.62,4.62,0,0,1-.21-.43L40.86,15l-.08-.2c-.05-.13-.1-.27-.15-.4s-.09-.28-.15-.41-.12-.28-.2-.42a4.65,4.65,0,0,0-.61-.93c.1,0,0-.22-.17-.45s-.4-.54-.6-.85a2.87,2.87,0,0,1-.22-.45l-.13-.33a1.29,1.29,0,0,0-.19-.3,1.81,1.81,0,0,0-.4-.36.48.48,0,0,0-.21-.06,3.09,3.09,0,0,1,.76,1.11c-.07-.08-.11-.11-.15-.11a2.16,2.16,0,0,0-.13-.35,1.13,1.13,0,0,1-.27-.24c-.16-.18-.1.19-.3-.09-.15,0,.16.27.2.41s-.13-.09-.19-.17a1,1,0,0,0-.24-.27c0-.12.11-.18.32,0A1.84,1.84,0,0,0,37,9.2L37,9.12c-.22-.22-.52-.36-.36,0,.12-.11.2,0,.3.18s.1.2.17.3a1.61,1.61,0,0,0,.24.32c-.18,0,0,.3,0,.44s-.05-.06-.13-.12c0,.13,0,.3.26.46,0,0-.08,0-.13,0l-.19-.15c.06-.11-.11-.27-.32-.41.06,0,0-.17,0-.29a.75.75,0,0,0-.26-.27c-.12-.12.18,0-.15-.23.19.08.29,0,.6.28,0-.07-.29-.27-.19-.31-.2-.2-.23-.06-.46-.3.2.06.13-.08-.14-.25a.13.13,0,0,0,.15-.16c0-.07.44.27.26.25.14.11.2,0,.35.16-.23-.19-.26-.38.09-.22a1.28,1.28,0,0,0-.64-.25.59.59,0,0,0-.37-.28A1,1,0,0,1,35.7,8c0-.15.18,0,.37.13-.11-.21.19-.08.31-.08S36.29,8,36.2,8,36,7.95,36,8c0-.19.08,0-.35-.3,0-.12.26.07.34,0,.1.16,0,.09.27.25,0-.12-.44-.45-.15-.39-.08,0-.22-.13-.28-.11s0-.06-.06-.11l-.14-.09-.24-.16c.08,0,.56.18.09-.12.25-.14.52.16.94.49,0-.07.2-.17.19-.36-.15,0-.45-.31-.6-.34-.16-.2.42.23.54.26a1.6,1.6,0,0,0-.33-.31,2.13,2.13,0,0,0-.39-.23c-.28-.13-.58-.25-.87-.41.45.16.49.12.89.27-.19-.19-.08-.23.11-.17a1.18,1.18,0,0,1,.59.4c-.06-.27-.34-.41-.71-.53-.18-.06-.39-.13-.59-.21a2.47,2.47,0,0,1-.61-.32,3.12,3.12,0,0,1,1.06.39c0-.07-.17-.16-.1-.2.37.21.57.42,1.09.71.24,0,.23-.24,0-.48l-.17-.19-.24-.18a3.39,3.39,0,0,0-.62-.33c.05,0-.06-.13,0-.18a1.1,1.1,0,0,0,.47.4c.06-.24.18-.39.54-.36a13.9,13.9,0,0,0-1.92-.92,1.74,1.74,0,0,1,.77.18c.14.06.31.14.5.25l.69.43c.26.1.22,0,.51,0a.34.34,0,0,0-.13-.19c-.15-.08,0,0,.06.09a2.79,2.79,0,0,1-.61-.27A4.34,4.34,0,0,1,36,4.29,2,2,0,0,1,35.22,4a1.9,1.9,0,0,0-.78-.25c-.11-.09-.13-.16-.11-.23.29.11.56.2.82.29l.76.26.37.13.37.15c.25.11.51.21.77.36,0-.14-.22-.23-.44-.35l-.36-.19a4,4,0,0,1-.38-.26l.34.13.32.14.61.27c.38.19.75.36,1.09.56l.51.29c.17.1.34.19.51.31l.51.33c.17.11.35.23.52.36,0,0-.12-.17-.21-.26.21.06.63.59.88.74a2.63,2.63,0,0,0-.42-.43A4.13,4.13,0,0,0,40.39,6a2.56,2.56,0,0,1,.82.6l.29.27.29.31c.19.21.38.41.54.61s.18.17,0,.11-.18-.22-.27-.32l-.26-.28a2.55,2.55,0,0,0-.45-.38,1.09,1.09,0,0,0,.4.41c.14.15.12.21.27.37a1.87,1.87,0,0,1-.56-.34L41.17,7,40.8,6.7l-.39-.34L40,6l-.39-.3-.18-.14-.18-.11s.08.11.14.17a5.56,5.56,0,0,0-.48-.34l-.29-.2-.33-.23s.06.09.14.16.15.14,0,.13l.92.69.47.37c.16.12.32.24.47.37l.46.38c.15.12.31.25.45.37s.57.49.83.72c.11-.06.38.13.69.39l.24.2.23.21a4.92,4.92,0,0,0,.41.35,2.49,2.49,0,0,0-.41-.57A2.77,2.77,0,0,1,42.77,8a1.93,1.93,0,0,1,.59.38,5.41,5.41,0,0,1,.75,1c-.06,0-.16-.14-.23-.14s.11.2.07.23a2.7,2.7,0,0,1,.55.62,2.82,2.82,0,0,0-.37-.73,1.48,1.48,0,0,1,.46.81c.17.2.33.42.52.68a9.83,9.83,0,0,1,.6.86l-.15-.32L45.39,11,45,10.3l-.47-.77c-.08-.13-.16-.27-.25-.4L44,8.72a22.78,22.78,0,0,1,2.38,4.08l.23.52.11.25.1.25.38,1c.11.3.21.59.31.85l.14.37.12.34s0,0-.06-.11c-.11-.24-.06.1-.19-.08.07.29.14.63.21,1s.11.77.18,1.17.09.8.15,1.18.08.74.14,1a4.89,4.89,0,0,0,0,1l0,.32,0,.3c0,.19,0,.35,0,.45s0-.23-.06-.24c0,.16,0,.39,0,.65s0,.56-.07.87-.06.62-.08.92l-.05.82c0,.07-.08.25-.13.21a4.85,4.85,0,0,1-.08.72l-.16.84c-.06.28-.13.56-.16.81s0,.25,0,.36a1.88,1.88,0,0,0,0,.3c-.07-.3-.26.5-.35.87.06.07.15-.51.2-.3s0,.19-.08.32-.06.26-.07.35,0,.25.17-.16c0,.29-.31.74-.28.39,0,.11,0,.1,0,.14-.21.47-.08-.25-.24,0s0,.08.06.29c-.2.38-.37.64-.57,1,.07,0,0,.26-.19.57l-.24.49a3.41,3.41,0,0,0-.2.46c.08-.18.3-.52.48-.88.09-.18.18-.36.25-.52a1.52,1.52,0,0,0,.13-.4c.07-.2.11,0,0,.26,0,0,.25-.42.06,0a3.29,3.29,0,0,1,.3-.6L47,31a3.91,3.91,0,0,0,.18-.35c.11,0,0,.25,0,.28a3.84,3.84,0,0,0,.2-.69c-.31.65.07-.43.15-.83s0,.28.08.16.07-.48.07-.61.14,0,.22-.42a2.61,2.61,0,0,1,0,.39c0,.15-.07.31-.11.49s-.1.37-.16.57l-.22.62c-.15.44-.35.89-.54,1.36-.1.24-.21.47-.32.7s-.21.48-.33.71c.09-.51-.32.46-.36.33.24-.51.31-.54.53-1.06-.07,0-.19.25-.29.37a3.28,3.28,0,0,1-.31.66l-.17.32a2.32,2.32,0,0,0-.14.31,2.16,2.16,0,0,0,.23-.28c.08-.1.11-.13,0,.13a2.82,2.82,0,0,0,.42-.57l-.25.51c-.08.16-.17.32-.26.47-.17.3-.33.6-.52.89l-.29.45-.15.23-.17.24c-.23.32-.48.67-.79,1.05-.11,0,.42-.54.11-.23,0-.06.13-.16.17-.16s-.06,0-.07-.06c.5-.65.6-.72.69-1-.26.22-.81,1.18-1,1.32.08-.15.21-.31.34-.51l.42-.6c.15-.2.29-.42.43-.62l.36-.53a2.86,2.86,0,0,1-.51.8l0,0a4.24,4.24,0,0,0,.51-.69c.14-.23.25-.47.4-.71-.09-.05-.42.61-.46.4a5.59,5.59,0,0,1-.48.67,3.36,3.36,0,0,1-.47.79c-.13.18-.28.38-.43.57l-.48.55c0-.07.4-.6,0-.15.12-.2.14-.3-.14,0,.1-.15.24-.35.39-.53s.28-.37.4-.49c0,.09-.13.33,0,.19a1.79,1.79,0,0,1,.38-.6s-.11.19-.19.3a1.2,1.2,0,0,0,.23-.26,1.77,1.77,0,0,0,.12-.27,2.32,2.32,0,0,1,.39-.68c0,.06.11-.05.09-.08s.11,0,.16,0l.25-.4c-.43.4.2-.39.18-.59-.13.22-.36.56-.6.94l-.39.57-.36.55c.14-.24.16-.35.09-.28a5.2,5.2,0,0,0-.51.69l-.07-.06a.91.91,0,0,1-.38.44,4.61,4.61,0,0,1-.43.88c-.08.06-.23.19-.4.36l-.29.28-.16.15-.17.15-.66.62-.54.5c0,.07.1,0,.21-.11,0,.11-.38.24-.23.28l-.49.35-.52.43a6.72,6.72,0,0,1-1.07.73c-.08.2.42-.3.34-.11s-.18.11-.48.33c0-.19-.61.31-.68.21l-.26.18-.23.14a5,5,0,0,0-.47.33s.45-.32.61-.33c-.12.13-.64.39-.55.46-.16.1-.57.2-.63.31s0,0,0-.05-.39.22-.64.34l-.84.4c-.59.26-1.21.55-1.67.78a1,1,0,0,0-.47.13,3.41,3.41,0,0,1-.64.23c0-.07-.09,0-.13-.07a9.1,9.1,0,0,1-1.22.4,6,6,0,0,0-1.82.32l.25,0,.34-.07a4.66,4.66,0,0,1,.66-.1c-.36.1.15.1-.44.24.25-.19-.26-.05-.58-.06.08.1-.49.1-1,.16,0-.11.32,0,.46-.11s-.64.11-.46,0l-.72.09c-.26,0-.52.07-.78.08l-.75,0h-.33l-.28,0a1.43,1.43,0,0,0-.71.12c-.68,0-1-.17-1.6-.18v-.07l-.67-.06-.7-.12-.38-.07-.4-.09-.43-.1-.23,0-.24-.06c-.13,0-.11,0-.14,0l-.71-.21-.41-.18c-.24-.12-.49-.22-1.11-.47a1.52,1.52,0,0,1,.54.17c0-.07-.51-.23-.36-.29a2.3,2.3,0,0,1-.6-.25,7.07,7.07,0,0,0-.82-.43A.48.48,0,0,0,16,43a2.44,2.44,0,0,0-.35-.2l-.47-.22c-.17-.08-.35-.18-.53-.28,0,.08,0,.15.33.31-.26-.12-.53-.25-.8-.39s-.51-.31-.76-.46-.48-.32-.7-.47l-.61-.42-.08,0h0c-.11-.08-.3-.27-.48-.41s-.32-.26-.36-.17a6.62,6.62,0,0,0,.89.69c.17.12.34.22.49.32l.35.24c.26.18-.05.12.35.28.13.09,0,.08.15.17L13,41.79l-.55-.31c-.12-.1-.14-.16-.13-.2-.35-.22,0,.06-.2.06.33.12.72.57.94.63-.08,0-.22-.06-.39-.2a5.16,5.16,0,0,0-.66-.48c-.29-.18-.16-.06-.63-.33,0,0,.06,0,0-.12.15.07.46.32.59.36,0-.15-.36-.4-.71-.68l-.52-.45a2.69,2.69,0,0,1-.4-.42c.11,0,.09,0,.08-.08-.17-.14-.38-.36-.59-.57a2.94,2.94,0,0,0-.56-.5l-.29-.36-.34-.42c-.12-.15-.25-.29-.38-.46l-.39-.5-.2-.25-.19-.26-.38-.53c-.24-.36-.46-.71-.66-1-.16,0,.17.31.15.42a1.13,1.13,0,0,1,.22.26c0,.06.08.26.21.46s.25.39.22.44c-.17-.23-.3-.39-.43-.58L6.3,35a2.57,2.57,0,0,0,.24.5l.19.32.23.33.42.63a1.59,1.59,0,0,1,.24.43l-.32-.37L7,36.43a1.88,1.88,0,0,1-.41-.7,2.84,2.84,0,0,1,.18.31.85.85,0,0,0,.2.26,2.48,2.48,0,0,0-.4-.71l-.3-.44-.15-.24L6,34.65c.11.07.12.27.26.37-.17-.3-.27-.67-.14-.55-.1-.2-.27-.49-.39-.73s-.18-.42-.12-.37L5.39,33c-.06-.11-.12-.23-.18-.35s.11.19.14.18c-.1-.35-.39-.53-.31-.7l-.16-.32-.12-.27-.21-.46a8.68,8.68,0,0,1-.38-1c-.12-.06.09.45.06.55s-.1-.37-.17-.3c0-.16-.08-.32-.13-.49s-.09-.36-.15-.56l-.18-.64-.18-.77c.09.08.07.26.18.64a2.38,2.38,0,0,0,0-.33s.1.38.16.53c0-.25-.06-.46-.11-.69s-.11-.48-.17-.81a2.24,2.24,0,0,0,0,.34l.09.42c-.07-.22-.13-.18-.21-.53,0,.06.05.11.08.1l-.21-.86c.07.24.09.21.08.09s0-.35-.06-.53,0,0,0,.11a1.41,1.41,0,0,0,0-.37l0-.38c0-.14,0-.3,0-.46,0-.32,0-.67-.06-1s0-.58,0-.76a3.33,3.33,0,0,1,0-.55,1.68,1.68,0,0,0,0,.44c0,.16,0,0,0-.25a3.56,3.56,0,0,1,0-.52,1,1,0,0,0,.09.34.66.66,0,0,0,0,.29,1.89,1.89,0,0,1,0,.36s0-.08,0-.21c.07.32,0,.66.08,1,0-.23,0-.54,0-.8a2.74,2.74,0,0,1,0-.33c0-.09,0-.15.07-.16a13.89,13.89,0,0,1,.16-2.37,1.18,1.18,0,0,1,0,.36c0,.15,0,.3,0,.4A1.31,1.31,0,0,0,3.41,21c0-.21,0-.46,0-.62s-.06.46-.1.42,0-.28,0-.55c.07-.09,0,.25,0,.44a1.59,1.59,0,0,0,.07-.4,2,2,0,0,1,.07-.45,1.23,1.23,0,0,1,0,.25c0,.1,0,.17,0,.09s0-.09,0-.12c.24-1,.39-2,.63-2.94a1.19,1.19,0,0,0-.17.45,3.1,3.1,0,0,0-.11.59c-.07.07,0-.19,0-.24a6.55,6.55,0,0,0,.31-1C4.07,17,4,17,4,17a.32.32,0,0,1,0-.18,3.41,3.41,0,0,0-.33.91c0-.14,0-.41-.13.07.05-.22.11-.43.18-.64l.1-.32L4,16.52l.25-.63.29-.64c.05-.19,0-.21.12-.42,0,.12.07,0,.19-.3s.25-.61.37-.86c-.07.06-.25.37-.18.14s.27-.46.44-.79a2.76,2.76,0,0,0,.35-.76c.19-.31,0,0,.18-.13a5.19,5.19,0,0,1,.32-.57c-.1.1,0-.12.18-.4s.43-.62.56-.8c-.13.25-.09.26.13,0l-.56.77c-.2.29-.39.61-.57.93.08,0,.24-.27.31-.3.11-.18.22-.37.34-.55s0-.11,0,0,.06-.12.11-.19l.12-.18c-.12.29,0,.05.18-.12s-.09.09,0-.12.14-.17.16-.14.43-.69.45-.61a4.2,4.2,0,0,1-.33.42c.19,0,.27-.28.31-.13a1,1,0,0,0,.14-.28A.9.9,0,0,1,8,9.5c.08,0,0,.1-.08.24s-.16.27-.09.2-.26.29-.24.35c-.17.21-.43.43-.29.16a2.33,2.33,0,0,0-.2.24c.08,0-.14.29.18,0-.14.22-.15.17-.3.43.23-.22.05,0-.19.35a5.92,5.92,0,0,0-.61,1,3.77,3.77,0,0,0-.29.44c0,.06.1-.11.18-.26a1.5,1.5,0,0,1-.14.29,2.58,2.58,0,0,0,.18-.26,1.57,1.57,0,0,1-.23.39c-.1.14-.16.22-.07,0a24.34,24.34,0,0,0-1.16,2.63,4.79,4.79,0,0,0,.26-.58L5,15,5,14.85l.16-.37.15-.36.16-.31a1.84,1.84,0,0,1,.25-.4l-.22.41L5.46,14c0,.07-.07.15-.12.27s0,.11-.07.2.14-.18.18-.13.06-.35,0-.14a3.89,3.89,0,0,1,.3-.57A1.66,1.66,0,0,0,6,13l.31-.43a2.68,2.68,0,0,0,.15-.24,1,1,0,0,0,.1-.22c.05,0,.1,0,.24-.34a2,2,0,0,1-.22.44c-.12.21-.27.48-.43.76s-.31.59-.46.87a6.06,6.06,0,0,0-.33.76c-.07.19.11-.14-.09.31a5.57,5.57,0,0,0,.27-.57s-.14.35-.19.5.18-.34.11-.05c.18-.34.11-.4.25-.57s0-.08.06-.21-.12.12-.19.25a2,2,0,0,1,.32-.66c.12-.29-.12.21-.1.06.24-.44.17-.25.36-.51-.26.45,0,.06-.1.31l.13-.28A1.16,1.16,0,0,0,6.23,13a1,1,0,0,1,.17-.34.59.59,0,0,0-.12.17c.06-.12.18-.32.32-.54s.29-.44.39-.62a.78.78,0,0,1,0-.23c.15-.2.29-.4.34-.4a3.92,3.92,0,0,0-.22.36c.06,0,.19-.21.13,0a5.22,5.22,0,0,0,.32-.55s.08-.09.13-.15.09-.09,0,0,.16-.3.42-.6c0,0,.09-.06.18-.17l.3-.37c-.43.47,0,0-.18.1.18-.24.33-.29.25-.34.21-.23.4-.39.71-.76,0,.15-.23.24-.48.55a1.64,1.64,0,0,0,.47-.39,2.4,2.4,0,0,1-.26.32,3.2,3.2,0,0,1,.4-.32c.08-.09,0-.09,0-.12a.89.89,0,0,1,.19-.19s.06,0,.06,0a7,7,0,0,1,.9-.84c.2-.22-.22.16-.19.08.28-.19.61-.48,1-.74l.54-.42.52-.38c.14-.11.17-.17.14-.18a5.68,5.68,0,0,0,.94-.6L14.32,5l.16-.1.15-.08.26-.13a1.61,1.61,0,0,1-.26.16c.22-.09.85-.42.8-.48s.9-.38.29-.08c.3-.12.61-.29.94-.42a6.8,6.8,0,0,1,.94-.36l-.3.13L17,3.72,16.47,4c.23-.12.12-.08,0,0s-.33.17-.24.14c-.19.07-.45.19-.74.32l-.94.51c-.32.2-.66.4-1,.61l-.46.31-.42.28L12.93,6c-.21.22-.34.21-.51.33s.12-.06,0,.05l-.25.15a2,2,0,0,0-.34.25c-.2.18.12-.07,0,.05l-.37.26a4.61,4.61,0,0,0-.38.31l-.37.34c-.12.12-.25.23-.36.35.08,0,.27-.23.39-.32s0,0-.14.14-.3.28-.37.35.06-.1,0-.11c-.2.21-.46.49-.58.58s.13-.12.13-.16-.54.6-.59.55a2.22,2.22,0,0,0,.34-.39s-.31.35-.24.18a4.72,4.72,0,0,1-.52.64,2.62,2.62,0,0,0,.36-.36,2.84,2.84,0,0,1-.3.39l-.31.31c0-.05.09-.1.19-.24s-.26.19-.5.49a2.83,2.83,0,0,0-.42.62c0,.07-.19.24-.08.06-.18.19-.61,1-.63.81-.17.27,0,.15-.24.47,0,.12.14,0,.32-.26a.2.2,0,0,1,0-.12,2.4,2.4,0,0,1,.18-.23s-.06.11-.1.18c.13-.12.49-.77.55-.73-.13.21-.14.17-.29.42.61-.87.26-.26-.09.19,0,0,0-.12,0,0s-.1.21-.26.45c-.1,0-.4.51-.35.24-.09.14-.08.16-.14.28a1.48,1.48,0,0,0,.35-.37c-.09.2-.21.38-.32.59s-.24.41-.37.64A11.09,11.09,0,0,0,5.62,15c.12-.1.48-.92.46-.68.22-.51.1-.43.3-.65,0-.14,0,0,0-.22s.37-.57.57-.9l.31-.5.29-.52c-.06.14,0,.1.15-.14,0-.08,0-.11,0,0s.42-.62.26-.31l.47-.62.22-.28.26-.29s.2-.27.39-.47a2.9,2.9,0,0,0,.16-.28L10.66,8a3.25,3.25,0,0,1,.92-.69c.15-.12.37-.37.21-.24,0,0,.27-.24.38-.34s-.09.09-.15.14a.39.39,0,0,0-.12.2,6.42,6.42,0,0,0-.58.43L10.75,8c-.19.18-.37.37-.55.55l-.27.26-.26.26s-.07.14-.3.42c.06-.11.05-.12,0,0a2.09,2.09,0,0,0-.36.5A5.76,5.76,0,0,0,8,11.13s-.07.06-.09.05c-.22.33-.43.64-.62,1L7,12.62l-.27.49a22,22,0,0,0-1.1,2.28c-.08.23,0,0,.1-.17,0,.2-.22.57-.19.36-.11.34-.23.66-.31,1s-.19.6-.28.89c0,.11,0,.08,0,.21s.09-.33.12-.28a1.86,1.86,0,0,1,0-.21l.07-.22c.06-.15.12-.31.19-.47s.15-.31.22-.46l.2-.41c0-.3.13-.3.33-.85a1.16,1.16,0,0,0-.24.43c-.09.21-.16.47-.25.67,0,0,.11-.33.13-.38a.52.52,0,0,0-.1.18,1.12,1.12,0,0,1,.1-.33,1,1,0,0,1,.13-.24c.06-.21-.12.1-.11.05s.25-.54.05-.09c.06-.08.18-.39.26-.55s-.19.44-.12.4c.2-.41.39-.84.55-1.09-.08.06-.08.06-.09-.06s.06-.08.1-.18,0,0,.06-.08c0,.11,0,.12,0,.06a3.87,3.87,0,0,0,.22-.33l.3-.52c.11-.18.21-.35.29-.49s-.05.12-.09.19,0,0,0,.13L7,13.05c-.09.15-.19.31-.3.53.09-.12.22-.33.33-.52l.16-.26a.41.41,0,0,1,.13-.13l-.14.27a1.84,1.84,0,0,1,.3-.4,3.24,3.24,0,0,1-.17.33c-.06.1-.11.19-.17.28a5.08,5.08,0,0,0-.36.59,1.34,1.34,0,0,1-.14.39s.07-.19.06-.2,0,.16-.15.38c0-.07,0,0-.14.23s-.18.46-.29.68c0,0,0,0-.07,0a2.16,2.16,0,0,0-.15.3c-.11.25-.23.57-.31.73.1-.37-.06.07,0-.12a9.84,9.84,0,0,0-.35,1c-.05.18-.1.38-.15.57s-.1.39-.13.58l-.11.56-.05.26,0,.24a4.34,4.34,0,0,1-.17.73c0,.54-.11,1-.12,1.42l0,.6c0,.19,0,.38,0,.56s0,.37,0,.55l0,.57v.3c0,.1,0,.21,0,.31l.07.68c0,.1,0,.08.05.1a13,13,0,0,0,.26,1.51c0-.17-.06-.35-.09-.53l-.07-.56c0-.18,0-.36-.07-.52a3,3,0,0,0-.07-.41c0-.29,0-.26,0-.51s.06.15,0,.41c0-.12,0-.34,0-.6l0-.82c0-.54,0-1,.1-.8,0,.65,0,1.3,0,1.91,0,.31,0,.61,0,.9s.06.56.09.83.06.2.09.2a5.23,5.23,0,0,0-.13-.8c0,.11.05.09,0-.1s.07.18.11.1a5.43,5.43,0,0,0,.05.8c0-.24,0-.11.06.2,0,0,0-.14,0-.29s-.05-.34-.09-.52-.07-.36-.09-.49,0-.21,0-.2a.5.5,0,0,1,0,.2,5.21,5.21,0,0,1,.15.68c0,.12,0,.25.07.41l.12.59c.07,0-.18-.76-.06-.79,0,.23.09.43.12.62l.09.54c.07.34.12.65.22,1,0,0,0,0,0-.1.16.35,0,.21.18.78a2,2,0,0,0,0-.31c-.12-.45-.29-1-.41-1.45,0-.21-.19-.87-.11-.89,0,.26.05.61.17.68a17.3,17.3,0,0,0,.5,1.93c.1.06-.15-.51,0-.4a2.67,2.67,0,0,0,.26.65c0-.23-.21-.58-.14-.68l.12.38c.05-.1-.11-.46-.05-.49A25.12,25.12,0,0,0,7,30.76a.92.92,0,0,1,.19.35h0l-.15-.33-.15-.39c-.1-.27-.21-.55-.29-.82.25.54.57,1.3,1,2.11A13.35,13.35,0,0,0,9.06,34c.08,0,.39.47.26.41A2.33,2.33,0,0,1,9,34.13l-.23-.34c-.15-.23-.3-.46-.43-.65,0,.11-.07,0-.2-.18L8,32.64c-.08-.12-.15-.26-.23-.38.14.15,0-.05,0-.12s-.18-.33-.25-.47a5.44,5.44,0,0,0-.24-.49l-.08,0a.9.9,0,0,1,.19.56c-.13-.2-.08-.16-.24-.43,0,.21-.22-.1,0,.41a.37.37,0,0,0,.13.12s0,0,0-.16a3.1,3.1,0,0,1,.35.6c.1.2.2.38.32.41.21.34.42.7.67,1,.12.17.24.35.37.53l.4.52c.13.18.27.34.42.51s.28.34.43.5c.3.32.59.64.89.93a3.5,3.5,0,0,0-.28-.38,3.11,3.11,0,0,0-.26-.28A4.8,4.8,0,0,1,10,35.4c.18.13.1,0,0-.16l-.24-.3a2.34,2.34,0,0,1-.19-.28c.19.16,0-.12.17,0l.26.32.24.32a2.27,2.27,0,0,0,.21.26.43.43,0,0,0,.19.12c.17.18.34.38.51.58l.5.55a6.21,6.21,0,0,0,.49.46,2.11,2.11,0,0,0,.44.31c.11.07.25.19.4.32l.23.18.24.14a2.11,2.11,0,0,0,.5.46c.09,0-.14-.15-.19-.22s.16.08.3.18.28.19.3.17c.19.11,0,.11.2.21s.14,0,.28.11l.51.29.27.16.24.12c.15.07.25.11.28.09s.13.14.31.24-.09-.08.13,0l.45.2.43.19.43.17.42.16.43.15c.15,0,.29.1.45.14l.47.12a5,5,0,0,0,.5.1,2.71,2.71,0,0,0-.51-.17A3.32,3.32,0,0,0,19,41c-.18-.09-.33-.18-.51-.27s-.4-.13-.4-.06c-.14-.16-.56-.22-1-.42,0-.06.06,0,.16,0a2,2,0,0,0,.39.16c-.09-.08-.52-.21-.3-.25a1.91,1.91,0,0,0-.52-.25.94.94,0,0,1,.45.13,5.07,5.07,0,0,1,.54.26c-.09,0,.13.13-.06.11l.27.1.3.1.64.21.69.19.18,0,.18,0,.36.08c1,.22,1.94.38,2.71.48,0,0-.18,0-.21.06a10.41,10.41,0,0,0-1.19-.22L21,41.42l-.32,0-.29-.05.32.1.38.07a5.34,5.34,0,0,1,.71.16l-.28,0c-.15,0-.31,0-.32,0a2.19,2.19,0,0,0,.66.16c-.06.09-.25,0-.5,0,0,0,.32.08.37.11.33-.05.39.05.87.12-.05.09-.28,0-.13.14a2.21,2.21,0,0,0,.3,0c-.06,0-.22,0-.18-.09.26,0,.31.06.27.13.2,0,.59.12.6,0s-.45-.07-.46-.17c.24,0,.2.07.48.07V42c-.06,0-1.14-.14-.79,0l-.54-.15c-.22-.06-.46-.11-.68-.19.16.05.61.09,1.06.15l.66.08.28.06.21.06c.31,0,.15-.08.31-.09l.4.06a.9.9,0,0,1,.26.08A3.86,3.86,0,0,1,25.2,42c-.06-.07.05-.09.23-.11l.65-.06c.07.08-.33.05-.2.14.33.08.45-.08.87-.1l-.35,0-.33,0c.46-.07,1.51-.22,1.82-.22a.4.4,0,0,1,.2-.09l.36-.07a3.32,3.32,0,0,0,.57-.12,1.16,1.16,0,0,0,.77,0c0-.08-.05-.09-.29,0,.08-.08.4-.18.38-.07s.07-.07.08-.11c.19,0,.57-.15.49,0,.11-.08.49-.16.35-.23a2.66,2.66,0,0,0,.4-.07c.13,0,.21-.1.14-.17.38-.17.37-.06.65-.16s0-.13,0-.19c.33-.14.23-.06.21,0,.19-.07.16-.11.15-.16a5.35,5.35,0,0,0,.66-.14c.31-.18,0-.09.12-.22a3,3,0,0,0,.7-.26c.22-.13.36-.25.21-.28.38-.14.28-.27.52-.46.13,0,.19,0,.24.05,0-.1.22-.21.46-.33a3.36,3.36,0,0,0,.65-.42c-.11-.12-.63.43-.83.46,0-.07.11-.13.23-.19s.2-.12.11-.17l.51-.35c.17-.12.32-.25.47-.38.32-.25.6-.53.92-.82a29.32,29.32,0,0,0,2-2.22c0-.05-.15.07-.06-.06s0,0,.24-.16.19-.29.27-.44l.27-.46.14-.23.13-.24.26-.48c.09-.16.16-.33.25-.5s.17-.34.24-.51c.15-.35.32-.7.45-1.07a21.39,21.39,0,0,0,1.28-4.73A22.71,22.71,0,0,0,43.07,23c0-.21,0-.43,0-.65s0-.22,0-.32l0-.32c0-.22,0-.43,0-.65L43,20.41a19.59,19.59,0,0,0-.45-2.55l-.07-.31c0-.1-.06-.21-.09-.31l-.18-.62c-.06-.2-.14-.4-.2-.6s-.13-.4-.21-.6-.27-.08-.43-.52a.88.88,0,0,0,0-.65,4.54,4.54,0,0,0-.19-.49c-.09-.17-.19-.34-.3-.51,0,.06.21.36,0,.3l.15.27.1.2A2.67,2.67,0,0,1,41.21,14.46ZM5.63,33s0-.16-.12-.36-.22-.47-.33-.75c0,.21.08.48-.08.37l.25.56.28.56c.1.18.18.37.29.54l.31.49c-.28-.45-.29-.59-.07-.33a4.35,4.35,0,0,1-.31-.58c-.15-.23,0,.2-.13-.07s.15.1.07-.14c.06.12.32.6.18.28S5.78,33.3,5.63,33Zm.55-18.34.2-.44c.05-.11.11-.22.2-.38A2.12,2.12,0,0,0,6.18,14.66ZM12.51,38a1.89,1.89,0,0,1,.31.24c.15.13.32.24.35.2l-.25-.17-.19-.16c-.1-.09-.14-.15-.06-.13l-.34-.29-.25-.23L11.61,37c-.12-.07-.09,0-.06,0s.07.11,0,0-.21-.31-.34-.48L10.75,36c-.05.21.48.78.93,1.26.09,0-.1-.2.1-.09l.55.53C12.5,37.88,12.61,38,12.51,38ZM40.42,13.13c-.07.05-.06.18.06.38C40.6,13.49,40.58,13.36,40.42,13.13ZM42.92,26.3c0-.26.14-.61.05-.65C43,25.83,42.85,26.48,42.92,26.3ZM21.35,42l.29.05.25,0a1.46,1.46,0,0,1,.44.08,1.67,1.67,0,0,0-.75-.21c.24,0,.17,0,.05,0S21.33,41.94,21.35,42ZM12.28,37.8c.05,0-.4-.45-.49-.48C12,37.52,11.94,37.56,12.28,37.8Zm3.49,2.25-.43-.25-.45-.28-.42-.24a1.66,1.66,0,0,0-.34-.15c.11.08.06.1.12.16.23.1.48.22.73.36l.38.21Zm-8-7.39s0,.07,0,.07,0,0-.14-.22c-.06,0,0,.17.09.34a5.57,5.57,0,0,0,.37.54c-.28-.42.19.15,0-.12C8.09,33.2,8,33,7.8,32.66Zm2.75,3.64c.14,0-.42-.52-.46-.52C10.31,36,10.3,36.06,10.55,36.3ZM37.76,7.18c0-.08-.27-.3-.48-.45A.76.76,0,0,0,37,6.6s0,0,.05.13S37.61,7.14,37.76,7.18ZM6.41,14.33A1.33,1.33,0,0,0,6.53,14,7.45,7.45,0,0,0,6,15.24c.12-.27,0,.16,0,.12a7.42,7.42,0,0,1,.48-1.11C6.44,14.3,6.42,14.35,6.41,14.33ZM5.14,27a2.49,2.49,0,0,0,.07.33l.07.24a4.1,4.1,0,0,1,.12.51c.1,0-.26-1-.06-.6-.05-.18,0-.22-.08-.39S5.23,27.11,5.14,27Zm.16,1.3a6.79,6.79,0,0,1-.22-.8L5,27.18c0-.11-.05-.23-.09-.37,0,.16.05.32.09.47l.1.42A2.14,2.14,0,0,0,5.3,28.31Zm-.83-8c0-.17.08-.42.12-.65a5.62,5.62,0,0,0,.09-.56c-.06.38-.07,0-.1.18.05,0,0,.24,0,.46A2.37,2.37,0,0,0,4.47,20.28Zm0,0c0-.18.05-.33.07-.46a3.06,3.06,0,0,0,0-.35A3.27,3.27,0,0,0,4.44,20.27Zm-.11,2.06a7.33,7.33,0,0,0,0,.93A4.17,4.17,0,0,0,4.33,22.33ZM5.5,15.67s0-.17,0-.25c0,.13-.09.29-.15.46s-.13.34-.18.5A3.09,3.09,0,0,0,5,17.1a4.9,4.9,0,0,1,.24-.73l.07-.17L5.35,16C5.4,15.92,5.45,15.8,5.5,15.67Zm1.18-3a2.66,2.66,0,0,0-.35.55c-.07.13-.14.27-.21.42l-.19.4c.1-.15.22-.33.35-.56s.31-.5.5-.84c-.05,0-.42.68-.32.4C6.49,13,6.63,12.7,6.68,12.66Zm-1,1.82c0-.08-.28.47-.25.57.11-.31.11-.32.16-.26a1.36,1.36,0,0,0,.1-.3C5.57,14.83,5.58,14.62,5.69,14.47Zm.89-1.89c.2-.32.19-.33.38-.62A1.55,1.55,0,0,0,6.58,12.58ZM5.88,14a5,5,0,0,0,.28-.56C6.18,13.26,5.86,14,5.88,14Zm-.78,1.7c0,.14-.11.28-.17.42a1.36,1.36,0,0,0-.1.37c0-.12,0-.05,0,0C5.06,16,5,16.13,5.11,15.69Zm-.31.42a1.94,1.94,0,0,0-.09.42c.06-.2.08-.11.15-.39Zm-.57,2s.08-.12.15-.39C4.34,17.71,4.27,17.87,4.22,18.15Zm0-.44c0-.26.16-.41.13-.51-.1.36-.09.09-.08,0,0,.15-.08.32-.13.5s-.09.35-.12.5c-.06.31-.1.53,0,.47,0,.14-.2.48-.08.31,0,.17-.11.59-.16.94s-.05.64,0,.54A3.64,3.64,0,0,1,3.81,20a6.38,6.38,0,0,0,.09-.7c0,.09.07-.2.1-.19a6.55,6.55,0,0,1,.19-.94,7.29,7.29,0,0,0,.19-.71c0,.11.15-.59.05-.21A1.86,1.86,0,0,1,4.25,17.71Zm.56-2.17a1,1,0,0,0,0,.34c.07-.18.16-.51.17-.38a2.31,2.31,0,0,0-.23.71c0-.16.13-.37.2-.56a2.58,2.58,0,0,0,.14-.44C4.94,15.55,4.91,15.35,4.82,15.53ZM3.67,20.94s0-.14,0-.12,0,.21,0,.32,0-.11.08-.09a2.2,2.2,0,0,0,0-.43ZM42.44,8.63c-.31-.32-.39-.68-.59-.68.15.16.1.2.15.3S42.38,8.74,42.44,8.63ZM6.77,11.11a1.76,1.76,0,0,0-.22.37c.15-.26.18-.28.16-.23s-.07.16-.06.18C6.86,11.11,6.88,11,6.77,11.11Zm-.32.84c.21-.31.19-.34.4-.63,0-.07.15-.34-.07-.07C6.82,11.35,6.49,11.77,6.45,11.95Zm-.63,1c.13-.23.49-.9.3-.43,0-.07.1-.19.11-.18a1.48,1.48,0,0,0,.21-.51l-.22.37-.15.26A4.07,4.07,0,0,0,5.82,12.93Zm0-.12.36-.61a5.38,5.38,0,0,0,.34-.6,6,6,0,0,0-.39.57A3.19,3.19,0,0,0,5.83,12.8ZM4.68,15.34c0-.1.09-.24.15-.39l.2-.43a2.78,2.78,0,0,0,.2-.45A5.71,5.71,0,0,0,4.68,15.34Zm-.16.4c-.07.15-.15.39-.23.63a4.27,4.27,0,0,0-.17.59c.06-.22.16-.45.25-.67s.08-.21.11-.31A1.06,1.06,0,0,0,4.52,15.74Zm1.1,17c.09.18.14.2.23.38s-.1-.3-.25-.6c-.06,0,0,0,0,.11S5.69,32.81,5.63,32.77Zm0-19.95c0-.05-.1.08-.19.25a2.9,2.9,0,0,0-.19.4c.06-.1.12-.18.19-.28A1.93,1.93,0,0,0,5.67,12.82ZM3.38,26.38c.07.11.08.16.12.21,0,.31.07.54.09.78a5.92,5.92,0,0,0,.14.83s.07.11.11.1c-.07-.31.06-.11,0-.54-.11-.15-.17-1.07-.16-.53a8.39,8.39,0,0,1-.16-.86C3.45,26.52,3.35,26.06,3.38,26.38Zm.79,3.19c-.17-.47-.18-.65-.3-.94a8.74,8.74,0,0,0,.46,1.57c.09-.1-.15-.59.1-.13-.15-.32-.3-1.08-.27-.83A.7.7,0,0,1,4.17,29.57Zm.47,1.57s.1.13.14.19a2.31,2.31,0,0,1-.21-.61,2.06,2.06,0,0,0-.08-.44C4.38,30.29,4.48,30.72,4.64,31.14Zm4.05,6.54c.37.41.7.74,1,1.05,0-.12.4.28.17,0-.15-.13-.3-.28-.46-.44l-.25-.24-.26-.24c0-.24-1.06-1.29-1.48-2,.16.37-.08,0-.2,0,.25.27.54.82.78.94a.7.7,0,0,1-.17-.28,2.39,2.39,0,0,1,.38.53c-.09-.1-.17-.2-.18-.15.33.35.37.42.37.55.25.29.28.21.45.36C8.8,37.75,8.74,37.71,8.69,37.68ZM3.16,24.75c0-.54,0,.11,0,.11,0-.31,0-.28,0-.54C3.13,24.27,3.1,24.64,3.16,24.75Zm.07.55c0,.15,0,.12,0,.22a6.41,6.41,0,0,1,.11.76C3.41,26.32,3.32,25.52,3.23,25.3ZM28.17,44.69c0,.1.44,0,.45.1.39,0,.34-.15.55-.22a4.12,4.12,0,0,1-.78.07A.43.43,0,0,1,28.17,44.69ZM10.34,39.32l.25.22c0-.1.08-.05,0-.15S10.33,39.21,10.34,39.32Zm1.25,1.1a3,3,0,0,0,.66.43C12.14,40.67,11.69,40.35,11.59,40.43ZM9.75,38.81a4.27,4.27,0,0,1,.41.38l.05,0A1.4,1.4,0,0,0,9.75,38.81Zm8.12,5c-.23-.14-.52-.16-.83-.33A1.42,1.42,0,0,0,17.88,43.78ZM5.87,34c.2.29.11.25.19.4C6.39,34.72,5.79,33.74,5.87,34ZM18.26,44c0,.08.44.22.6.32,0,0-.36-.15-.35,0a21.82,21.82,0,0,0,2.42.62s0-.08,0-.1a1.27,1.27,0,0,1,.46,0l-.3-.05-.35-.08L20,44.5l-.87-.23ZM45.88,33.25l.35-.7a3,3,0,0,0,.23-.59c-.42.87,0-.13-.11.08s-.29.56-.37.76-.18.38-.35.72C45.73,33.65,46,32.82,45.88,33.25Zm.61-1a4,4,0,0,0,.36-.88,3.07,3.07,0,0,0-.24.47C46.53,32,46.45,32.22,46.49,32.24ZM41.12,7.11a7.23,7.23,0,0,1-.81-.63s-.07-.12-.13-.18c.16,0,.17.1.24.24S40.73,6.78,41.12,7.11ZM12,8.27a3.87,3.87,0,0,0-.49.46c-.07,0,.19-.17.18-.24S12,8.21,12,8.27Zm-3.51,4.3A4.32,4.32,0,0,1,8.2,13l-.15.22-.14.24c-.06.13,0,0,.07-.07,0,.11-.16.29-.23.42s.16-.39,0-.12c.08-.24.29-.46.52-.92C8.28,12.89,8.39,12.69,8.47,12.57ZM7.6,14.06c0-.08,0-.06,0,0l-.08.2s.06-.08.08-.06c-.08.17-.09.09-.18.33,0-.06.09-.26,0-.11C7.42,14.37,7.53,14.28,7.6,14.06ZM6.09,17.7c0-.05,0-.16.05-.28s.07-.28.12-.42.09-.29.13-.39.09-.18.11-.19a2.42,2.42,0,0,1,.27-.75c.18-.37.39-.82.55-1.21-.27.62-.56,1.41-.83,2.23-.12.42-.25.84-.35,1.26l-.08.31,0,.15,0,.15-.12.59c0,.15-.05.28-.06.37l0,.15a1.3,1.3,0,0,1,0-.14l0-.19.05-.28c.05-.29.11-.8,0-.11a14.22,14.22,0,0,1,.5-2.07A4.51,4.51,0,0,0,6.09,17.7Zm12.5,22.62c.13,0,.39.15.39.05s.19.07.21.09a.2.2,0,0,0,.12.08.75.75,0,0,1-.27-.07A4.1,4.1,0,0,0,18.59,40.32Zm2.38.59s-.09,0-.2,0c.11.11.51.08.44.16a3.7,3.7,0,0,1-.54-.16C20.78,40.92,20.73,40.85,21,40.91ZM34.6,6.77s0-.09.09-.1a.53.53,0,0,1,.35.12C35,6.91,34.71,6.72,34.6,6.77ZM21.27,41.22c.24.08-.43,0-.58-.06C20.7,41.1,21.27,41.29,21.27,41.22ZM6.67,15s-.22.56-.14.26a3.14,3.14,0,0,0-.16.58,2.68,2.68,0,0,0,.2-.45c0,.19,0,0,.07,0a1.77,1.77,0,0,0-.12.27c0,.11.24-.45.36-.69l-.24.6c-.08.2-.14.41-.22.61l-.11.31c0,.1-.06.21-.09.31L6,17.43l-.15.64c0,.11-.05.21-.08.32l-.06.32c0,.21-.09.43-.12.64L5.53,20c0,.21-.05.43-.07.64s0,.42-.06.63c0,.42-.05.83,0,1.24q0,.3,0,.6l0,.59c0,.39.05.76.08,1.12,0,.14,0,0,.06,0a1.91,1.91,0,0,1,0,.22.86.86,0,0,1,0,.13,1,1,0,0,0,0,.24,2.2,2.2,0,0,1,.13.59,1.54,1.54,0,0,0,.11.46.83.83,0,0,0,0,.48c-.07,0-.14-.47-.21-.76,0,0,0,.17-.1.1s0-.16,0-.23,0-.14,0-.21-.05-.25-.08-.36a2.1,2.1,0,0,1-.09-.67.54.54,0,0,0-.06-.2s0,.19,0,.42.08.5.09.66a3.2,3.2,0,0,1-.11-.53c0-.22,0-.47-.07-.65a1.37,1.37,0,0,0,0,.49c0,.22,0,.45.07.6l-.1-.46c0-.16,0-.31-.07-.48l-.06-.5c0-.17,0-.35,0-.53s0-.37,0-.56,0-.4,0-.6,0-.21,0-.32,0-.22,0-.33l0-.71c0,.25,0,.59,0,.91s0,.62,0,.8c0,0,0-.14.07-.19a1.2,1.2,0,0,1,0-.28,2.49,2.49,0,0,1,0-.36c0-.26,0-.56,0-.86,0,.15.06,0,.1-.28S5,20.86,5,21a6.7,6.7,0,0,1,.08-.7c0-.12,0-.24.06-.38s0-.31.07-.5a1.6,1.6,0,0,0-.17.54,2.57,2.57,0,0,0-.05.4,1.86,1.86,0,0,0,0,.33c0,.14-.06,0-.07.19a18.16,18.16,0,0,1,.61-3.55s0,0,0-.11c-.1.26-.08.22-.14.27s0,.21,0,.22a4.11,4.11,0,0,0-.17.46c0,.17-.09.36-.13.56-.09.4-.14.83-.21,1.23,0-.27-.09,0-.13.17,0-.18.1-.35.13-.69,0,.07.05,0,.08-.19l.13-.7c0-.13,0-.27.08-.4l.09-.36a1.07,1.07,0,0,1,.14-.39c0-.2.07-.37.1-.55s.06-.36.11-.56,0,.32.16-.15c-.05-.12.15-.31.3-.75,0,.11-.11.33-.13.49a2.24,2.24,0,0,0,.17-.35c.06-.14.13-.3.19-.46l.28-.76a8.68,8.68,0,0,0,.57-1c-.07.16-.15.33-.23.5l-.25.53-.13.28-.12.29c-.08.2-.16.4-.24.6.13-.29.24-.39,0,.14.16-.24.43-1,.7-1.53,0,0-.14.39,0,0a1.09,1.09,0,0,1-.12.28,2.64,2.64,0,0,0-.2.44C6.63,14.91,6.6,15.14,6.67,15ZM5.2,19l0,.18,0,.16c0,.09,0,.16,0,.17a1,1,0,0,0,0-.29A.8.8,0,0,0,5.2,19Zm0,3.52c0-.42,0-.93.07-1.43,0-.25.05-.5.07-.74s0-.24,0-.35,0-.22,0-.32A10.66,10.66,0,0,0,5.16,22.55Zm0,1.48c.05,0,0-.24,0-.49C5.13,23.49,5.17,23.85,5.16,24Zm.73-7.27a6.69,6.69,0,0,1,.32-.94A2.62,2.62,0,0,0,5.89,16.76Zm-1,6.76s.07,0,.07-.09c0,0,0-.11,0-.26a.88.88,0,0,0,0-.34,2,2,0,0,0,0,.27C4.91,23.21,4.91,23.34,4.92,23.51Zm9.5-17.84c-.05,0-.12.12,0,0-.12.14-.19.06-.33.21.09,0,.3-.16.43-.23-.1.08-.28.19-.5.32s-.44.3-.65.46a2.24,2.24,0,0,1,.47-.37C13.95,6,13.91,6,14,6a1.69,1.69,0,0,0-.34.2c.05-.05.11-.13,0,0A1.44,1.44,0,0,1,13.93,6,3.8,3.8,0,0,0,14.42,5.67ZM10.54,9.06c-.14.14-.3.33-.47.53l-.27.3-.26.32c-.35.42-.64.84-.82,1,0,0-.38.6-.07.07a9.14,9.14,0,0,1,.59-.78c.1-.13.21-.33.28-.41s.15-.13.27-.28.31-.36.43-.5l.16-.18ZM8.21,12c.14-.16.1-.1.23-.19a1.88,1.88,0,0,1-.17.27l-.11.16-.1.15a.78.78,0,0,1,.06-.15L8.25,12a1.27,1.27,0,0,0-.23.32.36.36,0,0,1,.05-.18l.16-.29a2.73,2.73,0,0,0-.21.3,1.44,1.44,0,0,1-.18.27S8,12,8,12.08s-.07,0,.12-.28c.11-.17.07,0,.21-.21C8.36,11.67,8.11,12,8.21,12Zm-.93,1.87c.07,0-.25.4-.22.44-.17.3,0-.2.13-.38C7.21,13.92,7.23,13.94,7.28,13.84ZM18.53,3.66a.9.9,0,0,1,.19-.08,1.59,1.59,0,0,0-.29.08c.06,0,.11-.06,0,0,.24-.13.33-.07.57-.16A5,5,0,0,1,18.53,3.66Zm-5.42,2.9c-.34.28-.37.24-.65.45C12.54,6.94,13.1,6.51,13.11,6.56ZM11.69,7.64c.17-.14.18-.11.19-.07a6.9,6.9,0,0,0-.52.46c.3-.35-.28.17,0-.15A.61.61,0,0,0,11.69,7.64Zm-1,1s-.09.16,0,0,0,0-.06.08l-.14.15c.06-.12-.06,0,0-.12a2.45,2.45,0,0,0-.34.31c-.12.13-.23.26-.29.32a3,3,0,0,1,.38-.43ZM9.45,10s0,0,.05-.09,0-.13-.24.18a1.93,1.93,0,0,1,.35-.49s.07,0,.15-.13c-.06.1-.17.24-.08.21C9.57,9.84,9.57,9.89,9.45,10ZM6.88,14.16a1,1,0,0,1,.21-.45c0-.07,0-.09,0-.1s0,0,0,.14S6.92,14.09,6.88,14.16ZM8.46,11a.86.86,0,0,1-.14.2L8,11.63a3.51,3.51,0,0,0-.48.8c-.11.19-.08,0-.13,0A1.56,1.56,0,0,0,7.65,12c.14-.19.11-.1.11,0,.21-.37.1-.2.36-.62-.09.1-.26.36-.36.48,0-.05,0-.11,0-.12l.38-.52a1.41,1.41,0,0,1,.31-.34c.2-.35.36-.45.34-.51a4,4,0,0,0,.46-.53c0,.1.15-.08.33-.27s.37-.39.42-.38l-.28.28c-.11.11-.23.24-.34.38s-.45.54-.56.69-.18.15-.31.32l-.2.28-.17.27s.07-.06.13-.15A2,2,0,0,1,8.46,11ZM9.92,9.06a3.87,3.87,0,0,1-.61.67l.12-.15.15-.15A4.46,4.46,0,0,0,9.92,9.06Zm5.23-4.28a2.7,2.7,0,0,1-.44.31l-.84.53c.07-.06.07-.09,0-.07a1,1,0,0,0-.3.16c.09-.14.4-.24.49-.37a1.63,1.63,0,0,0,.41-.21C14.69,5,14.94,4.87,15.14,4.78ZM4.93,20.3c0,.05-.1.58,0,.71s-.06,0-.07.19A8.38,8.38,0,0,1,4.93,20.3Zm.46-3.11c0,.1,0,0-.11.06a3.13,3.13,0,0,1,.24-.56C5.55,16.78,5.34,17.13,5.39,17.18ZM18,3.26a5,5,0,0,1-.61.24l-.44.16a1.63,1.63,0,0,1,.44-.19C17.57,3.41,17.8,3.34,18,3.26ZM12.91,5.46c.12-.07.37-.3.6-.41,0,0-.17.16-.15.18-.2.14-.26.15-.52.34-.11,0,0,0,0-.08S13,5.36,12.91,5.46Zm-2.1,1.72c.24-.19-.29.28-.31.27s0,0,.09,0c-.12.17-.35.29-.53.5a1.51,1.51,0,0,1,.21-.24s-.09.06-.1,0A7.84,7.84,0,0,1,10.81,7.18ZM10,8c-.83.85-1.51,1.67-2.16,2.4,0-.06.06-.15.08-.22a3.29,3.29,0,0,0,.45-.46,4.45,4.45,0,0,1,.5-.5c.1-.13-.08,0,0-.1a4.2,4.2,0,0,1-.44.44A4.22,4.22,0,0,1,8.83,9a2.21,2.21,0,0,0,.32-.42c.25-.23,0,.18.35-.23-.12.21-.37.39-.39.34l-.17.21-.24.28L9,9l.25-.25.3-.32ZM34.37,3a4.05,4.05,0,0,1,1,.3A4.91,4.91,0,0,1,34.37,3ZM10.92,7c.07-.07.05-.07.06-.1.21-.18.27-.2.27-.15a6.49,6.49,0,0,0-.6.51,1.63,1.63,0,0,1-.38.26.71.71,0,0,1,.33-.25C10.77,7,10.82,7,10.92,7ZM7.47,10.76c.11-.07-.19.22-.27.32,0-.09.14-.18.23-.35C7.47,10.72,7.37,10.9,7.47,10.76Zm-.35.53a1.75,1.75,0,0,1-.15.2l-.19.24c-.07.09-.15.2-.24.34l-.14.23-.15.29s-.09.09-.1.05l.24-.36c.08-.13.15-.24.13-.28l.25-.33A2.55,2.55,0,0,0,7,11.32C7.12,11.16,7,11.42,7.13,11.29Zm-.37.37c-.07.11-.13.17-.15.15s.12-.18.07-.08c.12-.19.56-.9.62-.85A5.29,5.29,0,0,0,6.76,11.66Zm3.87-4.76c.1-.06-.34.28-.21.25a13.24,13.24,0,0,0-1,.92,4.83,4.83,0,0,1,.53-.57C10.19,7.26,10.47,7,10.63,6.89ZM38.52,4.8a6.5,6.5,0,0,1,.82.44s.09.11.15.17C39.14,5.14,39,5.12,38.52,4.8ZM8.79,8.65s-.07.09-.07.08-.13.16-.12.18a4.83,4.83,0,0,0-.4.5c-.05,0,.14-.24.31-.44,0-.1-.38.44-.33.26S8.38,9,8.41,9a2.4,2.4,0,0,1,.33-.41c.05,0,0,.09,0,.13S8.75,8.69,8.79,8.65Zm.65-.71L9.32,8A2,2,0,0,0,9,8.35S9,8.26,9,8.27l.17-.21.15-.16a2,2,0,0,1,.27-.24A1.52,1.52,0,0,0,9.44,7.94ZM11,6.45c-.23.25-.47.36-.8.7l0-.06c.23-.23.24-.19.48-.42-.07.09-.06.11,0,.08A2.92,2.92,0,0,0,11,6.45ZM3.72,18.18a1.91,1.91,0,0,1-.05.44s-.09.22-.13.3A6,6,0,0,1,3.72,18.18Zm-.24.94c0,.06,0,.12,0,.12s-.05.18,0,.21-.14,0-.16.06C3.3,19.4,3.42,19.53,3.48,19.12ZM8.19,8.92s.17-.24.09-.22C8,9,8,9.14,7.72,9.52c.14-.22.11-.22,0-.1s-.27.35-.44.58l.16-.3a6.42,6.42,0,0,0-.52.69c-.13.16,0,0,0-.09s.2-.28.11-.21c.19-.22.44-.55.51-.55.2-.27.37-.47.53-.66s.33-.36.53-.56c0,0-.06.09-.05.11l-.14.16s.08-.11.13-.17C8.41,8.53,8.36,8.71,8.19,8.92ZM3.25,20.18a1.55,1.55,0,0,1,0,.55c-.06-.2-.08.08-.14.08A5.62,5.62,0,0,1,3.25,20.18ZM4.53,15c0,.11,0,0,0,0-.09.14-.08.26-.2.5,0,0,0-.19,0-.23.11-.32.11-.17.22-.49A2,2,0,0,0,4.53,15ZM3.48,18.32A1.36,1.36,0,0,0,3.56,18c0,.13-.07.37-.14.75-.06,0,.07-.4,0-.44S3.49,18.26,3.48,18.32Zm-.7,6c0-.2,0-.45,0-.7v-.38c0-.12,0-.25,0-.36,0,.36,0,.72,0,1.09s0,.72.05,1c0,.17,0,.32,0,.47l.06.42c0,.26.08.47.11.62.08.35,0,.16,0,.33s.07.48.17.88c0,.14.07.11,0,0l.21.85c0,.14.07.28.12.42l.12.41.12.41.14.41c.1.27.18.55.29.82-.18-.09-.17,0,0,.57a16.78,16.78,0,0,1-.59-1.84l-.22-1-.17-.87c-.13,0,.16.58,0,.56a22.53,22.53,0,0,1-.64-4.76c-.05,0,0,.23,0,.44a2.27,2.27,0,0,1,0-.45,2.23,2.23,0,0,0,0,.45,4,4,0,0,1,0-.68c0,.13.07.13.12.12,0-.18,0-.35,0-.52l0-.49,0-.45c0-.15,0-.29,0-.42s.07-.51.11-.73.1-.41.15-.57a10.81,10.81,0,0,0-.17,1.74c0,.31,0,.63,0,1S2.77,23.88,2.77,24.3ZM5.56,12.6l-.2.4c-.1.21-.21.41-.22.36s.13-.26.2-.39A2.34,2.34,0,0,1,5.56,12.6ZM3,24.2c0,.08,0,.17,0,0a1.7,1.7,0,0,0,0,.55c-.1-.22-.09.11-.07.5a3,3,0,0,1,0,.82c0-.2,0-.41-.05-.62l-.06-.68a12.33,12.33,0,0,1-.06-1.46c.07.13,0,.37.09.45s0,0,0,0,0,.43.06.44,0-.57,0-.77a5.56,5.56,0,0,1,0,.77C3,24.07,3,24.16,3,24.2Zm.9-8.29c-.14.27-.07.3-.13.54L3.91,16c0-.14.09-.29.15-.43s.22-.58.33-.85L5,13.38c.17-.34.19-.21.36-.54a3.92,3.92,0,0,1-.46.87c-.08.21-.2.53-.35.87l-.11.26-.09.26-.16.46c0,.19,0,0,.06,0s-.1.18-.14.27L4,16.17a6.58,6.58,0,0,0-.25.73c0-.24.09-.69-.07-.27C3.63,16.6,3.87,15.71,3.91,15.91ZM48,18.1a1,1,0,0,1,.18.43c0,.2.09.46.12.73a.85.85,0,0,1-.17-.52c0-.12,0-.24,0-.35A1.12,1.12,0,0,0,48,18.1Zm-44.8.58a.85.85,0,0,0-.07.22L3,19.45c-.1.44-.16,1-.23,1.4a4.94,4.94,0,0,1,.13-1c0-.17,0-.38,0,0,0-.29.15-.45.22-1.08C3.17,18.51,3.1,19,3.18,18.68Zm2.26-6.31c.08-.12,0,.1-.17.33L5.08,13c-.05.08-.09.13-.09.1C5.11,12.91,5.3,12.59,5.44,12.37Zm43,13.05a1.74,1.74,0,0,1-.1.59c-.06,0,0-.16-.11-.15,0-.2.1-.29.06-.35C48.37,25.18,48.39,25.83,48.47,25.43ZM6.6,10.22c-.08.14-.18.31-.29.48l-.3.46L6.1,11l.17-.26C6.39,10.51,6.52,10.32,6.6,10.22ZM5.41,33.92c-.19-.36-.29-.47-.46-.78.08,0-.09-.24-.14-.43.17.28.35.6.51.92s.33.66.49,1c-.05-.05-.37-.53-.19-.16C5.54,34.38,5.33,33.9,5.41,33.92Zm7.5-29.79s.12-.06.19-.1a4.17,4.17,0,0,1-.35.23,1.33,1.33,0,0,0-.28.22c-.28.17,0-.09.06-.13a1.69,1.69,0,0,1,.26-.16c.07,0,.11-.05.11-.08S13,4.09,12.91,4.13ZM4.11,14.77a4.35,4.35,0,0,1-.43,1.14c.07-.15.13-.3.2-.48S4,15,4.11,14.77Zm-.54,1.58s-.12.38-.15.54c0-.05.14-.51.06-.46C3.52,16.14,3.52,16.56,3.57,16.35ZM2.72,20a2,2,0,0,0,.07-.33.87.87,0,0,1,0,.2c0,.09,0,.2,0,.31s-.06.4-.1.38.09-.57,0-.56S2.73,20,2.72,20ZM7.37,9.13c.09-.14.22-.3.36-.47l.22-.28.26-.29C8,8.36,7.66,8.76,7.37,9.13ZM23.23,45.61c.07,0,.15,0,0-.05.51,0,1.11.12,1.84.15l-.71.06C24.38,45.6,23.55,45.69,23.23,45.61ZM2.78,26.51a4.31,4.31,0,0,1,0,.45l-.06-.33c.05.06,0,0,0-.12S2.74,26.37,2.78,26.51Zm.76,3.29c-.06,0-.16-.47-.22-.53s0-.17-.08-.43a2.41,2.41,0,0,1-.13-.67c0,.12.05.25.08.39s.07.27.11.41A8.63,8.63,0,0,1,3.55,29.8ZM2.48,21.23l0,.56a1.08,1.08,0,0,1,0-.46s0,0,0,.11S2.45,21.13,2.48,21.23ZM7.4,8.84c-.3.51-.16,0-.66.75,0,0,.21-.37.19-.44s.19-.09.24-.23c.25-.3-.12.22.1-.05,0,.09-.13.16-.21.26S7.18,9.11,7.4,8.84Zm35.74,29c-.34.36-.2.41-.67.86.23-.4,0,0-.36.32a1.34,1.34,0,0,1,.24-.33c.13-.16.29-.34.44-.51s.29-.3.37-.37.1-.06,0,.08ZM2.38,21.9s0,0-.06,0,0,.09,0,.29,0-.33-.1-.25c0-.23.08,0,.1-.33,0-.11,0-.09,0-.12,0-.25.05-.46.08-.68s.06-.46.12-.77a.89.89,0,0,1,0-.3,1.6,1.6,0,0,1,0,.31c0,.46-.09.73-.11,1s0,.42,0,.72c0,0,0-.13,0-.22S2.35,21.89,2.38,21.9Zm0,4.17s.06,0,0-.11c.05.3.11.66.19,1s.12.71.19,1c0,.05,0-.1-.08-.22s0-.2,0,0C2.7,27.44,2.55,26.43,2.43,26.07ZM4.12,13.74s0,0,.09-.07c0,.22-.19.33-.27.49S4,14,4.12,13.74Zm7-8.75.28-.21c.13-.1.28-.22.46-.34.35-.24.75-.54,1.09-.73L12.55,4,12,4.38l-.28.19-.24.18ZM4.82,22.7s0-.1-.06-.11a2.12,2.12,0,0,0,0,.3c0,.28,0-.26.09-.09a1.69,1.69,0,0,1,0,.31c0,.07,0,.1.05.09a1.11,1.11,0,0,1,0,.49s0,.14.06.3a.81.81,0,0,1,0,.17s0,0,0-.17,0,.46,0,.3c0,.15,0,.32,0,.3a12.75,12.75,0,0,1-.05-3.12s0,.13,0,.21,0-.12.08-.09a2.69,2.69,0,0,0,0,.55A2.81,2.81,0,0,1,4.82,22.7ZM9.94,39.23c.11.13.14.2.08.23-.21-.18-.15-.19-.4-.4,0,.08.06.24-.14.12s-.21-.26-.46-.5c.13,0,.26.09.32,0l.32.3A2.34,2.34,0,0,0,9.94,39.23Z"/>
    </g>
    <g>
      <path class="cls-3" d="M29.5,50.55c-.62.62-1,1-1.26,1.32s-.26.37-.06.65l.24.29c.09.09.12.16.08.2s-.09.05-.21-.07c-.37-.37-.44-.48-1.11-1.15-.46-.46-.93-.89-1.09-1s-.11-.16-.07-.2.08,0,.18.05l.26.21c.2.15.4,0,.68-.23s.66-.61,1.28-1.23l1.13-1.13c1-1,1.12-1.13,1.31-1.35s.28-.41.14-.62-.13-.17-.19-.24-.12-.14-.06-.19.11,0,.21.08c.37.37.68.72,1,1l1.9,1.88a1.93,1.93,0,0,0,.39.3.6.6,0,0,1,.13.08.06.06,0,0,1,0,.1c-.06,0-.21.14-.38.29l-.69.6c-.09.08-.14.08-.18,0s0-.1,0-.17a2.82,2.82,0,0,0,.22-.28c.12-.2.08-.34-.2-.66s-.79-.85-1-1.05c0,0-.07,0-.12,0Z"/>
      <path class="cls-3" d="M31.07,54.21a2,2,0,0,0-.51.31.25.25,0,0,0,0,.39,2.54,2.54,0,0,0,.19.24c.08.1.1.16.06.19s-.12,0-.2-.07c-.29-.29-.49-.53-.83-.87-.07-.07-.51-.48-.84-.8-.09-.09-.1-.15-.06-.19s.11,0,.18.05l.24.19c.27.18.6.11,1-.06l5.6-2.17c.4-.15.57-.17.64-.1s0,.21-.1.55c-.19.53-1.58,4.07-2.12,5.49-.28.72-.3,1-.1,1.27a1.9,1.9,0,0,0,.18.23c.08.08.1.15.06.19s-.11,0-.23-.1c-.63-.63-1.34-1.37-1.75-1.79-.1-.1-.13-.17-.09-.21s.1,0,.17,0,.15,0,.19,0l1.72-4.15c0-.06,0-.06,0,0Z"/>
      <path class="cls-3" d="M34.44,59c.05-.05.11,0,.19,0a1.51,1.51,0,0,0,1.63.46,2.93,2.93,0,0,0,.68-.17.25.25,0,0,0,.17-.2c.3-.89,1.07-3.77,1.24-4.47s.17-.89-.13-1.22c-.07-.07-.09-.15-.05-.19s.11,0,.19.07c.29.29.78.82,1,1.06s.61.57,1,1c.07.07.09.13.05.17s-.11,0-.18,0c-.25-.23-.32-.18-.39-.12a1.08,1.08,0,0,0-.16.35c-.06.18-.84,2.75-.91,3,.87-.28,2.14-.8,2.72-1a1.55,1.55,0,0,0,.44-.25c.07-.07.11-.14,0-.28s-.08-.14,0-.18.1,0,.21.08.31.35.56.6l.8.77c.08.08.11.13.06.18s-.12,0-.21-.05a1.8,1.8,0,0,0-.27-.19c-.24-.15-.44-.16-1,0-1.22.36-3.86,1.34-4.83,1.69a3.81,3.81,0,0,0-1.14.52c-.05,0-.09.05-.14,0s-1.17-1.13-1.48-1.44C34.43,59.09,34.4,59,34.44,59Z"/>
      <path class="cls-3" d="M44.69,60.7l-1.41,1.41s0,0,0,.07,0,0,.14.12a5.25,5.25,0,0,1,1.39,1.94,1.75,1.75,0,0,1-.42,1.83c-.79.79-2.06.91-3.47-.49-.23-.23-1-1.07-1.15-1.22l-.91-.87c-.1-.1-.15-.17-.1-.23s.13,0,.21.08a2,2,0,0,0,.23.18c.16.1.34,0,.55-.17s.73-.66,1.39-1.31l1.13-1.13c1-1,1.18-1.18,1.37-1.41s.22-.36.09-.54a3,3,0,0,0-.21-.28c-.08-.08-.08-.13,0-.17s.1,0,.21.08c.37.37.68.71.93,1l2.29,2.28a2.29,2.29,0,0,0,.37.32l.13.08s0,.06,0,.1L47,62.6c-.22.18-.48.41-.71.62s-.13.09-.17.05,0-.11,0-.17a1.18,1.18,0,0,0,.21-.3c.1-.19.06-.33-.21-.66S45,60.89,44.8,60.68C44.76,60.64,44.73,60.66,44.69,60.7Zm-2.41,2.41c-.35.35-.94.94-1.2,1.23a.43.43,0,0,0-.08.41,1.31,1.31,0,0,0,.3.48A1.09,1.09,0,0,0,43,65.11a1.7,1.7,0,0,0,.62-1.32,1.77,1.77,0,0,0-.66-1.23s-.05,0-.08,0Z"/>
      <path class="cls-3" d="M46,65.86a3.54,3.54,0,0,1,5.29.21,3.46,3.46,0,0,1,.26,5.05,3.59,3.59,0,0,1-5.34-.06A3.55,3.55,0,0,1,46,65.86Zm4,4.26c1.07-1.07,1.84-2.73.7-3.86-.59-.59-1.58-.93-3.11.6-1.22,1.22-1.87,2.89-.77,4C47.24,71.25,48.23,71.9,50,70.13Z"/>
      <path class="cls-3" d="M54,73.44c.68,0,1.76,0,2.84-.06a1.66,1.66,0,0,0,.86-.19c.07-.07.08-.14,0-.32s-.09-.13,0-.17.09,0,.16,0c.29.29.3.33.67.69s.86.83.94.91.12.15.08.19-.09,0-.18-.05a2.8,2.8,0,0,0-.27-.19A2.42,2.42,0,0,0,57.63,74c-.58,0-2.06,0-2.41,0a34.7,34.7,0,0,0-.39,3.87,4.11,4.11,0,0,0,.09,1.26,1.35,1.35,0,0,0,.21.38c.08.1.12.15.06.21s-.12,0-.19-.07l-.63-.63c-.85-.85-1.06-1.23-1-1.92a30.7,30.7,0,0,1,.46-3.52l-.57.57c-.5.5-1.08,1.09-1.33,1.39a.46.46,0,0,0-.08.63c.08.1.17.21.25.3s.08.14,0,.17-.09,0-.19-.06c-.42-.42-1.09-1.13-1.15-1.19l-1-1c-.08-.08-.12-.14-.06-.19s.11,0,.18.05.14.12.22.18.41,0,.61-.13.76-.68,1.38-1.31l1.13-1.13c1-1,1.18-1.18,1.36-1.4a.44.44,0,0,0,.09-.57,2.87,2.87,0,0,0-.22-.27c-.08-.08-.12-.15-.06-.21s.11,0,.23.12c.28.28.91,1,1,1l1.09,1c.11.11.11.16.08.19s-.1,0-.19,0l-.21-.17c-.26-.19-.44-.08-.66.11s-.35.31-1.35,1.31Z"/>
      <path class="cls-3" d="M57.64,79.63a.08.08,0,0,0-.1,0l-.73.33a2,2,0,0,0-.51.31.25.25,0,0,0,0,.39c.06.08.15.19.2.25s.08.15.05.18-.12,0-.2-.07c-.29-.29-.49-.53-.83-.87-.07-.07-.51-.48-.84-.8-.09-.09-.1-.15-.06-.19s.11,0,.19.06l.23.18c.27.18.6.11,1-.06l5.6-2.17c.4-.15.57-.18.64-.11s0,.21-.09.55c-.19.53-1.58,4.07-2.12,5.49-.28.72-.3,1-.1,1.27a1.88,1.88,0,0,0,.18.23c.08.08.1.15.06.19s-.11,0-.23-.1c-.63-.63-1.35-1.38-1.76-1.79-.1-.1-.12-.16-.08-.2s.1,0,.17,0a.12.12,0,0,0,.19,0l.59-1.45a.08.08,0,0,0,0-.09Zm1.8.77s.06,0,.06,0l.81-1.94c0-.06,0-.06,0,0l-1.92.83s0,0,0,.06Z"/>
      <path class="cls-3" d="M65.1,85.77c.05-.05,0-.08,0-.12l-.24-.24c-.15-.15-.28-.15-.55-.12s-.82.19-1.09.26a3.48,3.48,0,0,1-1.58.24,3,3,0,0,1-1.45-1l-.51-.51c-.09-.09-.12-.16-.07-.21s.1,0,.2.07a1.5,1.5,0,0,0,.21.17c.24.19.48.25,1.19.15.54-.08,1-.19,1.58-.26a3.1,3.1,0,0,1,1.21,0A1.9,1.9,0,0,1,64.28,82a1.78,1.78,0,0,1,1.81-.42,3.92,3.92,0,0,1,1.52,1c.49.49.77.81,1,1.06.06.06.59.55.87.83.12.12.13.18.09.22s-.09,0-.19,0-.14-.13-.23-.19-.35-.09-.57.1-.4.36-1.4,1.36L66.07,87c-.61.61-1.09,1.09-1.32,1.39s-.23.37-.1.6a2.77,2.77,0,0,0,.25.32c.12.12.1.16.06.19s-.1,0-.2-.07c-.44-.44-1.07-1.11-1.18-1.22s-.58-.55-.9-.86c-.13-.13-.12-.18-.08-.22s.08,0,.2.07a2.45,2.45,0,0,0,.22.17c.15.1.33,0,.55-.15s.71-.64,1.33-1.25Zm2.38-2.38a.08.08,0,0,0,0-.09,1.59,1.59,0,0,0-.26-.3c-.37-.37-1-.77-1.92.13a1.22,1.22,0,0,0,0,1.91,1.54,1.54,0,0,0,.23.2c.05,0,.13,0,.17-.06Z"/>
      <path class="cls-3" d="M15.27,53.7c-.37.47-.46.69-.31,1a2.64,2.64,0,0,0,.31.42c.08.08.1.14.06.19s-.12,0-.22-.09c-.53-.53-1.05-1.05-1.75-1.83-.12-.13-.1-.19-.07-.23s.08,0,.13,0,.19,0,.45-.28l2.07-2.53-3.81,1.16c-.5.15-.58.15-.63.1s0-.17.06-.64.48-1.71.64-2.37c.08-.3.32-1.11.42-1.45l-2,1.63a7,7,0,0,0-.54.49.35.35,0,0,0-.07.52,2.55,2.55,0,0,0,.21.27c.1.1.1.13.06.17s-.1,0-.2-.06c-.28-.28-.62-.66-.81-.85s-.52-.48-.76-.72c-.06-.06-.14-.14-.08-.21s.1,0,.19.06l.21.17c.23.15.44.06.93-.3L14.3,45c.22-.17.32-.18.39-.12s.05.18,0,.51l-1.24,4.92,4.87-1.35c.27-.06.39-.08.45,0s0,.19-.13.37Z"/>
      <path class="cls-3" d="M19.06,53.15c1-1,1.17-1.18,1.36-1.4s.22-.37.1-.57a2.86,2.86,0,0,0-.19-.23c-.08-.09-.08-.15,0-.19s.1,0,.2.08c.37.37.66.69.94,1l1.82,1.81a3.15,3.15,0,0,0,.37.32.64.64,0,0,1,.13.08s0,.06,0,.1l-.31.25c-.15.11-.39.32-.74.64-.05.05-.12.06-.15,0s0-.09,0-.15a1.06,1.06,0,0,0,.19-.26c.12-.18.12-.35-.17-.68s-.74-.8-.93-1c0,0-.07,0-.12,0L20.1,54.38s-.07.08,0,.13.7.7.94.93.43.37.62.32.14,0,.17,0,0,.08,0,.12-.33.26-.6.49l-.54.53c-.08.08-.14.1-.18.06s0-.1,0-.17l.13-.17c.16-.21.18-.41-.12-.75s-.68-.73-.88-.93c0,0-.07,0-.12,0l-.44.44c-.22.22-.6.59-.84.84-.44.46-.46.65.26,1.36a2.53,2.53,0,0,0,.68.52c.25.11.47,0,.82-.19.09-.06.15-.08.19,0s0,.12-.08.2a7.45,7.45,0,0,1-1,.76c-.21.12-.26.08-.5-.15-.89-.89-1.33-1.41-2-2.08-.3-.3-.59-.55-.95-.91-.12-.12-.13-.17-.09-.22s.1,0,.19.06a1.84,1.84,0,0,0,.22.17c.21.15.48-.06.89-.46s.66-.62,1.06-1Z"/>
      <path class="cls-3" d="M21.1,61.15c-.33-.33-.64-.62-.8-.76-.53-.5-.78-.41-1.14-.1-.09.08-.17.13-.22.08s-.05-.09.1-.24c.51-.53.85-.94,1-1.07s.09,0,.13,0a4.68,4.68,0,0,0,.44.51c.05.05.1.05.22,0l5.49-2.3c.46-.18.58-.2.67-.12s0,.23,0,.39c-.26.7-1.66,4.05-2.33,5.79a.21.21,0,0,0,0,.24,4.64,4.64,0,0,0,.67.58c.07,0,.07.08,0,.15a9.53,9.53,0,0,0-1.14.92c-.12.12-.19.12-.22.08s0-.14.08-.23a.65.65,0,0,0,0-1c-.23-.26-.45-.52-.78-.84Zm1.4.39a6.94,6.94,0,0,0,.69.66s.07,0,.1-.06c.42-1,1-2.18,1.49-3.41q0-.06,0,0c-3,1.41-3.36,1.52-3.41,1.57s0,.06,0,.1a8.84,8.84,0,0,0,.69.73Z"/>
      <path class="cls-3" d="M28,65c1.14-.07,2.57-.19,3.16-.23l2.13-.14c.93-.05,1.14,0,1.24.11s0,.17-.36.58c-1.25,1.29-2.53,2.53-3.76,3.85-.39.42-.43.53-.23.84l.19.23c.1.14.12.18.08.21s-.11,0-.21-.08L29,69c-.27-.27-.59-.55-.83-.79s-.14-.17-.09-.22.1,0,.22.09l.19.15c.26.21.43.1.87-.3.72-.66,1.78-1.74,2.6-2.53l-1.69.13c-2.64.18-3.9.25-4.37.23s-.48-.06-.53-.1,0-.21.19-.41c.85-.85,2.46-2.42,3.74-3.75.6-.64.77-.77.51-1.09l-.15-.17c-.07-.08-.08-.15,0-.19s.09,0,.19.08l1,1,1.06,1c.11.11.14.17.09.22s-.09,0-.2-.07l-.23-.2c-.28-.22-.49-.08-1,.42Z"/>
      <path class="cls-3" d="M35.35,71.7c-.5.5-1.1,1.1-1.34,1.4s-.24.36-.08.58l.24.31c.1.11.1.15.06.2s-.09,0-.21-.09c-.44-.44-1-1.08-1.14-1.18l-1-.93c-.1-.1-.13-.16-.08-.21s.12,0,.19.06l.23.18c.17.12.35,0,.56-.15s.77-.69,1.4-1.32L36.73,68c-.25-.25-.64-.66-1-1s-.6-.4-.91-.26l-.21.09c-.06,0-.14.07-.18,0s0-.11.08-.18c.29-.24.71-.51,1-.71.11-.08.19-.13.23-.09a2.76,2.76,0,0,1,.17.27,6.91,6.91,0,0,0,.67.76l2.8,2.8a3.71,3.71,0,0,0,.43.38,2.26,2.26,0,0,1,.24.16c.06.06,0,.1-.13.26l-.89.8c-.1.08-.15.1-.19.06s0-.1,0-.19l.12-.14c.17-.23.23-.48-.12-.88-.19-.23-.52-.58-1-1.07Z"/>
      <path class="cls-3" d="M37.72,75.15a.08.08,0,0,0-.1,0l-.73.33a2,2,0,0,0-.51.31c-.12.12-.12.24,0,.39s.15.19.2.25.08.15.05.18-.12,0-.2-.07c-.29-.29-.49-.53-.83-.87-.07-.07-.51-.48-.84-.8-.09-.09-.1-.15-.06-.19s.11,0,.19.06l.23.18c.27.18.6.11,1-.06l5.6-2.17c.4-.15.57-.18.64-.11s0,.21-.09.55c-.19.53-1.58,4.07-2.12,5.48-.28.72-.3,1-.1,1.27a1.88,1.88,0,0,0,.18.23c.08.08.1.15.06.19s-.11,0-.23-.1c-.63-.63-1.35-1.38-1.76-1.79-.1-.1-.12-.16-.08-.2s.1,0,.17,0a.12.12,0,0,0,.19,0l.59-1.45a.08.08,0,0,0,0-.09Zm1.8.77s.06,0,.06,0L40.4,74c0-.06,0-.06,0,0l-1.92.83s0,0,0,.06Z"/>
      <path class="cls-3" d="M48.36,79c-.05-.08-.12-.13-.21-.24s-.08-.15-.05-.18.1,0,.19.06c.37.37.94,1,1,1l1.09,1.05c.1.1.1.15.06.19s-.1,0-.19,0-.14-.12-.22-.18-.35-.1-.58.1-.77.73-1.39,1.35L46.95,83.3c-.41.41-.93.93-1.18,1.21-.08.08-.08.12,0,.19a10.51,10.51,0,0,0,.83.75c.06.05.06.08,0,.15a8.8,8.8,0,0,0-1.12.89c-.15.15-.21.15-.24.12s0-.13.08-.23a.65.65,0,0,0,0-1c-.15-.18-.54-.6-1.14-1.21L41.3,81.35l-1-.93c-.07-.07-.12-.14-.07-.19s.1,0,.19,0l.25.19c.19.11.37,0,.58-.18S42,79.6,42.63,79l1.12-1.12c1-1,1.18-1.18,1.37-1.41s.24-.38.08-.6A2.16,2.16,0,0,0,45,75.6c-.1-.1-.08-.15,0-.19s.12,0,.19.08c.37.37.86.89,1,1s.79.75,1.07,1c.12.12.12.17.08.21s-.08,0-.19-.06l-.23-.18c-.22-.15-.4,0-.59.14s-.51.48-1.13,1.09l-2.59,2.59c-.09.09-.07.12,0,.17A5.26,5.26,0,0,0,43,82l.55.55c.57.57.81.8.91.89a.05.05,0,0,0,.08,0L47,81c.62-.62,1.06-1.06,1.31-1.34A.43.43,0,0,0,48.36,79Z"/>
      <path class="cls-3" d="M49.69,86.68c1.14-.07,2.57-.19,3.16-.23L55,86.3c.93-.05,1.14,0,1.24.11s0,.17-.36.58c-1.25,1.29-2.53,2.53-3.76,3.85-.39.42-.43.53-.23.84l.19.23c.1.14.12.18.08.21s-.11,0-.21-.08l-1.31-1.34c-.27-.27-.59-.55-.83-.79s-.14-.17-.09-.22.1,0,.22.09l.19.15c.26.21.43.1.87-.3.72-.66,1.78-1.74,2.6-2.53l-1.69.14c-2.64.18-3.9.24-4.37.23s-.48-.06-.53-.1,0-.21.19-.41c.85-.85,2.46-2.42,3.74-3.75.6-.64.77-.77.51-1.09l-.15-.17c-.07-.08-.08-.15,0-.19s.09,0,.19.08l1,1,1.06,1c.11.11.14.17.09.22s-.09,0-.2-.07l-.23-.2c-.28-.22-.49-.08-1,.42Z"/>
      <path class="cls-3" d="M57.39,93.49c.05-.05,0-.08,0-.12l-.24-.24C57,93,56.85,93,56.58,93s-.82.19-1.09.26a3.48,3.48,0,0,1-1.58.24,3,3,0,0,1-1.45-1L51.94,92c-.09-.09-.12-.16-.07-.21s.1,0,.2.07a1.5,1.5,0,0,0,.21.17c.24.19.48.25,1.19.15.54-.08,1-.19,1.58-.26a3.1,3.1,0,0,1,1.21,0,1.9,1.9,0,0,1,.31-2.25,1.78,1.78,0,0,1,1.81-.42,3.92,3.92,0,0,1,1.52,1c.49.49.77.81,1,1.06.06.06.59.55.87.83.12.12.13.18.09.22s-.09,0-.19,0-.14-.13-.23-.19-.35-.09-.57.1-.4.36-1.4,1.36l-1.13,1.13c-.61.61-1.09,1.09-1.32,1.39s-.23.37-.1.6a2.77,2.77,0,0,0,.25.32c.12.12.1.16.06.19s-.1,0-.2-.07c-.44-.44-1.07-1.11-1.18-1.22s-.58-.55-.9-.86c-.13-.13-.12-.18-.08-.22s.08,0,.2.07a2.45,2.45,0,0,0,.22.17c.15.1.33,0,.55-.15s.71-.64,1.33-1.25Zm2.38-2.38a.08.08,0,0,0,0-.09,1.59,1.59,0,0,0-.26-.3c-.37-.37-1-.77-1.92.13a1.22,1.22,0,0,0,0,1.91,1.54,1.54,0,0,0,.23.2c.05,0,.13,0,.17-.06Z"/>
    </g>
  </g>
</svg>
