<svg id="Слой_1" data-name="Слой 1" xmlns="http://www.w3.org/2000/svg" width="200" height="120" viewBox="0 0 200 120">
  <defs>
    <style>
      .cls-1 {
        font-size: 36.23px;
        fill: #8e8e82;
        font-family: BritannicBold, Britannic Bold;
      }

      .cls-2 {
        opacity: 0.92;
      }

      .cls-3 {
        font-size: 18.12px;
        fill: #ff0019;
        font-family: TrajanPro3-Regular, Trajan Pro 3;
      }

      .cls-4 {
        letter-spacing: -0.05em;
      }

      .cls-5 {
        letter-spacing: -0.04em;
      }

      .cls-6 {
        letter-spacing: -0.01em;
      }

      .cls-7 {
        letter-spacing: 0.02em;
      }

      .cls-8 {
        letter-spacing: 0.03em;
      }

      .cls-9 {
        letter-spacing: 0em;
      }

      .cls-10 {
        letter-spacing: -0.01em;
      }

      .cls-11 {
        letter-spacing: 0.04em;
      }

      .cls-12 {
        letter-spacing: -0.02em;
      }

      .cls-13 {
        letter-spacing: 0em;
      }

      .cls-14 {
        letter-spacing: -0.05em;
      }

      .cls-15 {
        letter-spacing: -0.01em;
      }
    </style>
  </defs>
  <title>zen_gm</title>
  <g>
    <text class="cls-1" transform="translate(18.08 61.18)">ZEN</text>
    <g class="cls-2">
      <path d="M46.06,15.34c.47,0,.26.35.85.3-.19-.21.27-.2.35-.31C47.1,15.26,46.33,15.13,46.06,15.34ZM62.65,18c.17-.05.42.09.66.25s.46.33.64.29c.11.28-.1.22-.39,0s-.31-.2-.47-.31ZM51.77,15.11c.1-.16.4-.21.77-.2a7.14,7.14,0,0,1,1.16.22l-1,0C52.44,15.1,52.1,15.12,51.77,15.11ZM13.55,65.36c-.14-.25,0,.08-.1,0a6.39,6.39,0,0,1-.55-1.79c.09.19.31.69.51,1.18.09.25.19.49.27.68a1.71,1.71,0,0,1,.13.42c.11.2.13.12.18.14l.3.7c.1.22.21.43.31.64.21.41.4.8.62,1.2a4.07,4.07,0,0,1-.84-1.34c-.15-.29-.27-.59-.38-.83a1.49,1.49,0,0,0-.29-.47A1.7,1.7,0,0,1,13.55,65.36Zm1.71,3.17c.05-.06.37.56.54.79,0,.13,0,.14,0,.39A9.22,9.22,0,0,1,15.26,68.54ZM63.72,83.43a12.66,12.66,0,0,1,1.48-.8A5.08,5.08,0,0,1,63.72,83.43ZM17.67,72.58a3.32,3.32,0,0,1,.49.56c.22.26.45.55.63.74-.05,0-.11,0,0,.2-.17,0-.23-.33-.5-.58.22.15.1,0-.1-.2A4.07,4.07,0,0,1,17.67,72.58Zm56.14,3.91c.27-.45.61-.58,1-1.11.19-.06-.28.53.13.15C74.76,75.89,74.24,76,73.81,76.49ZM16,70.49c-.19-.11-.36-.63-.72-1.13a1.15,1.15,0,0,1,.36.46l.19.36Zm-1.36-1.89c-.09-.16,0-.14,0-.19-.16-.3-.24-.34-.41-.66C14.26,67.59,15.07,69.24,14.61,68.59ZM18.54,74a5.36,5.36,0,0,1,.52.53c.16.19.31.34.37.43s.05.1-.08,0-.17-.17-.3-.32Zm3,3.18c-.31-.2-.82-.84-1.13-1C20,75.61,21.52,77.09,21.58,77.23Zm1.29,1.14c.05,0,.21.12.37.27a4.83,4.83,0,0,1,.37.34c-.1,0-.2-.08-.23,0C23.08,78.69,23.16,78.63,22.87,78.37Zm51.62-2.22.65-.67c.25,0-.36.48-.59.75ZM9.4,51.57H9.31a3.83,3.83,0,0,1,0-.44c0-.11,0-.2,0-.33A2.46,2.46,0,0,1,9.4,51.57ZM67.69,81.79a7.54,7.54,0,0,1-1.44.91,2.46,2.46,0,0,1,.63-.47A4.67,4.67,0,0,1,67.69,81.79ZM12,63.8a5.31,5.31,0,0,1,.47,1.06c-.27-.35-.21-.23-.19.06A5.46,5.46,0,0,0,12,64.2C12.38,64.54,12.24,64.48,12,63.8ZM23.06,19l-.44.39,0-.08C22.8,19.19,23.16,18.87,23.06,19ZM9.24,46.11c-.05,0-.07-.32-.06-.64s.08-.63.14-.53a4.54,4.54,0,0,1,0,.5Zm-.16,2.33A2.61,2.61,0,0,1,9,47.49a5.32,5.32,0,0,1,.16-1,8.63,8.63,0,0,1,0,.93C9.12,47.68,9.1,48,9.08,48.43ZM73.73,77.6,73.2,78l-.29.25-.34.29a2.63,2.63,0,0,1,.51-.56A1.52,1.52,0,0,1,73.73,77.6ZM10.65,38c-.06.1-.06,0,0-.12s.13-.42.23-.73l.34-1c.12-.35.26-.68.35-1a6.83,6.83,0,0,1-.21.69c-.1.26-.18.55-.27.82C10.88,37.27,10.69,37.78,10.65,38Zm6-12.34c.3-.36.33-.4.86-1.07C17.75,24.33,16.56,26,16.66,25.69ZM9.45,43.36c-.06-.16,0-.15-.14,0,0-.12.27-1.32.12-.37C9.52,42.68,9.54,42.83,9.45,43.36Zm1.71,18.47c.08.25.17.49.26.73-.18-.25-.21-.38-.24-.15C11.09,62.09,11,61.76,11.16,61.83Zm-1.82-7A5.66,5.66,0,0,1,9.51,56c-.08.18-.18-.76-.26-1.16C9.29,54.79,9.38,55.17,9.34,54.84ZM9.5,41.53a13.53,13.53,0,0,1,.3-1.35A5.52,5.52,0,0,1,9.5,41.53Zm-.06.18a15.79,15.79,0,0,1-.27,1.58c-.08.36-.1.66-.12.71a4.33,4.33,0,0,1,.1-.75Zm.15,15.63c.15.54.07.5.18,1a2.63,2.63,0,0,1-.16-.57s0,.08,0,.19C9.47,57.72,9.52,57.3,9.58,57.35Zm-.93-8.41c0-.33-.06-.09-.07.23a2.82,2.82,0,0,1,0,.74,6.12,6.12,0,0,1,0-.64c0-.25,0-.52.05-.82s0-.61.06-.93,0-.64.06-1a4.28,4.28,0,0,1,0,1C8.67,48,8.65,48.55,8.65,48.94ZM9.79,58.7c-.08.1-.19-.34-.27-.18-.09-.47-.19-1-.08-1C9.65,58.89,9.51,57.56,9.79,58.7ZM8.6,43.89c0-.73-.07.12-.2-.06,0-.49.11-.42.18-1,0,.46.09.35.23-.33.07-.19,0,.06,0,.41l-.11.55Zm-.05.19a5,5,0,0,1-.17,1.18c-.08.09,0-.39,0-.42C8.4,44.21,8.48,44.81,8.54,44.08Zm31.3-33.14a2.11,2.11,0,0,0-.59,0c-.13-.23.45-.35.73-.52.21,0,.22.13.61,0C40.43,10.65,39.89,10.75,39.85,10.94ZM17.68,75.27a5.91,5.91,0,0,1-.89-1.07C17,74.26,17.29,74.82,17.68,75.27Zm-9-18.48c.15.31.35,1.67.11,1A3.21,3.21,0,0,0,8.72,56.79Zm6.69,15.69c-.19-.19-.07,0,.06.25s.27.46.07.36l-.21-.29-.2-.3c-.13-.2-.25-.41-.37-.61a5.19,5.19,0,0,1-.5-1l.5.73C14.95,71.82,15.14,72.11,15.41,72.48Zm-7-29.27A17.83,17.83,0,0,0,8.11,45,5.66,5.66,0,0,1,8.43,43.21Zm-.8,8.36c.11.24.07,0,.18,0C7.89,52.58,7.7,52.49,7.63,51.57Zm.45,5a1.3,1.3,0,0,1,0-.8c0-.07-.25-1-.19-.4-.23-.58.13-.1,0-.8H8c0,.45.08.76.1,1s0,.37,0,.47S8.1,56.32,8.08,56.6Zm31-46.85a7,7,0,0,0-.81.11.81.81,0,0,1,.35-.25,4.55,4.55,0,0,1,.62-.19C38.89,9.64,39.39,9.53,39.06,9.75ZM7.78,45.09a8.76,8.76,0,0,1-.11,1.21A3.06,3.06,0,0,1,7.78,45.09Zm2,17.79c0,.28.34,1,.22,1a15.32,15.32,0,0,1-.54-1.74,1.51,1.51,0,0,1,.18.58C9.68,62.89,9.71,62.84,9.75,62.88ZM7.2,51.52l0-.3,0-.31-.05-.63a16.56,16.56,0,0,0,.12-1.67c0-.7,0-1.46,0-2a1.56,1.56,0,0,0,.14-.7l.06-.63c0-.22.07-.45.11-.67A56.38,56.38,0,0,0,7.2,51.52Zm1.17-12.2c0,.41-.26.86-.32.74C8.21,39.31,8.24,39.76,8.37,39.32Zm-.91,3.78c-.06.43-.09.53-.14.8-.07,0,0-.6,0-.64C7.38,43,7.42,43.11,7.46,43.09ZM7.18,44.7A10.86,10.86,0,0,1,7,46.12a1.71,1.71,0,0,1,0-.84A5.6,5.6,0,0,1,7.18,44.7Zm.37,12.72c0-.3,0-.86-.18-1,0-.47.07-.1.15.32S7.7,57.63,7.56,57.42Zm-.68-12.6c0,.31-.07.72-.11,1.16l-.13,1.37a11.51,11.51,0,0,1-.23,2,27.44,27.44,0,0,1,.3-3.08c0-.22,0-.15,0-.43A5.38,5.38,0,0,1,6.88,44.82Zm28.61-37a7.53,7.53,0,0,1,1.38-.72c.27-.11.57-.22.89-.33a10.37,10.37,0,0,1,1.05-.28L38,6.81l-.84.33-.86.33-.43.17ZM6.71,55.58a11.34,11.34,0,0,1-.2-1.49c0-.27,0-.53,0-.74a1.46,1.46,0,0,1,.05-.46c0,.34.05.8.08,1.28l0,.73c0,.12,0,.24,0,.35Zm-.4-4.17c0,.62-.08.76.06,1,0,.61-.09-.28-.15,0C6.2,51.86,6.18,51.27,6.31,51.41ZM5.73,52.6c0-.55,0-1.19,0-1.48s0-.21.06-.1,0,.32,0,.56C5.8,52.06,5.8,52.64,5.73,52.6Zm.34,3.59c.06.49.13,1,0,.84C6.07,56.72,6,56.09,6.08,56.19Zm10.5,22.51.43.48c.14.16.3.31.45.46s-.14,0-.35-.24-.43-.5-.59-.66ZM5.47,49.38a19.6,19.6,0,0,1,0,2.13c-.1-.64,0-1.18,0-1.92C5.45,49.63,5.47,49.55,5.47,49.38ZM8.26,65.28a8.08,8.08,0,0,1,.29.8c-.09-.15-.16-.2-.21-.17-.21-.48-.12-.44-.35-1C8.07,65,8.17,65.18,8.26,65.28ZM6.38,59.13c.15.54,0,.28,0,.43a17.63,17.63,0,0,0,.49,2c.14.45.18.71,0,.89a2.93,2.93,0,0,0,.15.63,10,10,0,0,1-.46-1.67,17.84,17.84,0,0,0-.37-1.88c.08-.1.12-.33-.09-1.27C6.19,58.21,6.3,59.08,6.38,59.13ZM13.68,76a2.81,2.81,0,0,0,.31.5c.15.2.32.41.42.57.33.39.23,0,.67.6-.45-.34.09.21.29.58a5.36,5.36,0,0,1-.94-1.08c-.19-.26-.41-.53-.61-.82s-.41-.57-.61-.83,0-.15-.16-.4c.23.05.75.71.41,0a6.37,6.37,0,0,0,.47.71c-.21,0,.07.47.71,1.32A7.81,7.81,0,0,1,13.68,76Zm4.11,4.5c.43.48-.21-.1-.12.09a10.28,10.28,0,0,0-.9-.92,4.17,4.17,0,0,1-.7-.85,4.8,4.8,0,0,1,.83.81A9.53,9.53,0,0,0,17.78,80.46Zm-6.33-7.94a6.27,6.27,0,0,0,.53.87c.21.31.46.68.75,1.14l-.16.08c-.3-.46-.55-.88-.75-1.23-.1-.18-.18-.34-.25-.48A2.65,2.65,0,0,1,11.45,72.52Zm61.6,14a28.42,28.42,0,0,1-2.7,1.57c.46-.3,1-.7,1.52-1S72.81,86.51,73.05,86.55Zm-49.54-.82a15.63,15.63,0,0,1,1.44.91c.5.31,1,.66,1.71,1.06a16.81,16.81,0,0,1-1.5-.86C24.59,86.48,24,86,23.51,85.73Zm41.6,4.8c.68-.37,1-.21,1-.37.62-.18-.3.3-.79.47C65.19,90.66,65.12,90.62,65.11,90.53Zm-4.41,1.53c.62-.19.67-.09,1.29-.28-.42.2-.45.38-.35.54a7.57,7.57,0,0,0,1.05-.42c-.42,0,.55-.42-.29-.3a1.79,1.79,0,0,0,.62-.26c.77-.19-.78.8.74.24a17.63,17.63,0,0,0-1.85,1c.35-.28-.59-.24-1.17-.19C61.47,92,60.79,92.24,60.71,92.07Zm-12,1.76c-.77.1-.7.16-.49.35-.85-.14-.49-.25-1.28-.43a4.92,4.92,0,0,1,.93,0C48.15,93.76,48.45,93.8,48.67,93.82ZM26.75,87.95c-.33,0-.77-.47-1.31-.8C25.83,87.18,25.9,87.5,26.75,87.95ZM66.46,90.4a3.69,3.69,0,0,0-1.11.57,3.64,3.64,0,0,1-1.35.59c0-.12.37-.28-.26-.11a4.13,4.13,0,0,1,.83-.35c-.22.16-.22.21,0,.19C64.79,91.08,66.23,90.18,66.46,90.4ZM4.81,51c.05.1,0,1.07.09,1.52,0-.14-.06-.5-.11-.44a3.36,3.36,0,0,1,0-.43A6.39,6.39,0,0,0,4.81,51ZM86.4,22.56a4.44,4.44,0,0,0,.8,1.26c.14.16.3.33.47.56a9.18,9.18,0,0,1,.57.92c-.12-.05-.26-.2-.46-.55-.14.25.54,1,.59,1.27a9.71,9.71,0,0,1-1.26-1.8A3.84,3.84,0,0,1,86.4,22.56ZM7.77,66.48c-.14-.22-.31-.56-.46-.78s0-.29.07-.1A5.7,5.7,0,0,1,7.77,66.48ZM47.94,94.3c1.28,0,3.89-.19,4.92,0-.59,0-.85.11-1.57.16.05.07.38.09.9,0,0,.13-.76.13-1.36.16.41-.18-.12-.21-.85-.21A18.42,18.42,0,0,1,47.94,94.3ZM75.32,86c-.24.21-.51.44-.81.68s-.65.46-1,.71-.74.5-1.15.73l-1.27.71c-.43.25-.89.45-1.34.67l-.68.32c-.22.11-.45.21-.68.3-.91.38-1.79.76-2.62,1,1.5-.68,3.1-1.53,4.73-2.39S73.76,87,75.32,86ZM6.42,62.78c0,.36.34,1.23.15,1.07A2.65,2.65,0,0,1,6.42,62.78ZM40.58,93.61c.32.08.53.18.86.25-.13,0-.25,0-.26.09C40.81,93.83,40.44,93.72,40.58,93.61Zm-21.7-10.4c-.28-.27-.32-.39-.21-.4.51.53.57.46.6.36.2.24.32.49,0,.29C18.67,82.9,18.91,83,18.88,83.21Zm-11-15.85a5,5,0,0,0,.19.63c.06.17.13.34.25.61s-.3-.31,0,.45a14.65,14.65,0,0,1,1,2,10.8,10.8,0,0,1-.79-1.48,5.71,5.71,0,0,0-.66-1.28,3.45,3.45,0,0,0-.13-.44,1.66,1.66,0,0,1-.09-.41,6.65,6.65,0,0,1-.44-.93c-.09-.21-.17-.42-.24-.62a5.24,5.24,0,0,1-.14-.51c.08.13.2.47.24.4a21.15,21.15,0,0,0,.79,2.05C8,68,7.72,67.28,7.87,67.36Zm79.37,6.42a4.92,4.92,0,0,1-.8,1.37c-.21.29-.42.61-.65.9s-.44.57-.61.81a4.48,4.48,0,0,1,.37-.67l.5-.73C86.42,74.93,86.85,74.38,87.24,73.77Zm7.59-25.23c-.17.23-.21-4.72-.08-1.41A8,8,0,0,1,94.83,48.54ZM31.51,91.11a7,7,0,0,1,.81.39c-.14,0-.36,0-.49,0C31.53,91.3,31.59,91.22,31.51,91.11Zm-6.57-3.35a15.39,15.39,0,0,1,1.54.9C26.21,88.68,25.51,88.1,24.94,87.76ZM4.24,50.25c0-1.24,0-1.15.06-2.19,0,.17,0,.7,0,1.19A2.84,2.84,0,0,1,4.24,50.25ZM12.4,75.9c.1.24.5.77.39.79-.53-.79-1-1.43-.61-.68-.28-.28-.3-.39-.32-.51a1.32,1.32,0,0,0-.31-.65C11.86,75.13,12.07,75.64,12.4,75.9Zm-.94-1.25c0,.28-.41-.6-.37-.32-.24-.38-.45-.67-.6-.94s-.27-.49-.38-.7L9.79,72l-.19-.37-.2-.44C10.18,72.49,10.7,73.44,11.47,74.65Zm6.32,7.74a4.89,4.89,0,0,1-1.07-1.13c.18.15.47.41.7.64S17.84,82.33,17.79,82.39ZM5.9,62.41c.14.49.28,1,.44,1.48-.08.19-.34-1-.5-1.47ZM4.35,54c.06.58,0,.56-.06.65,0-.44-.09-.88-.11-1.32a4.49,4.49,0,0,1,.08.66Zm.54,4.36c.09.31.23,1,.35,1.59s.18,1,0,.8-.1-.67-.16-1.06S5,58.83,4.89,58.34ZM4.12,52.2a5.25,5.25,0,0,1-.07-1.1s0,.23.06.23c0-.44,0-.69-.06-.67a7.39,7.39,0,0,1,.06-.87A21.16,21.16,0,0,1,4.12,52.2ZM31.93,91.73s.26.06.52.17.57.23.76.29c0,0-.29,0-.58-.12A3.83,3.83,0,0,1,31.93,91.73Zm3.75,2.13a5.72,5.72,0,0,1,1,.25c.43.12.91.26,1.25.33-.23,0-.53-.08-.85-.14l-.49-.1-.48-.12C36.2,94,35.95,93.94,35.68,93.86Zm-6.41-2.52c.33.24.62.26,1,.53a6.24,6.24,0,0,1-1.08-.42Zm-5-2.73a7.1,7.1,0,0,1-1-.58l-.94-.67c.28.16.62.37,1,.59S24,88.41,24.24,88.61Zm1,.6a4.42,4.42,0,0,1,.78.43c.35.2.74.43,1,.57A6.14,6.14,0,0,1,25.21,89.21Zm-6.29-4.56c-.09,0-.64-.44-1.08-.87C17.94,83.74,18.46,84.27,18.93,84.65ZM59.49,15.59c.35.27-.39-.19-.54-.1s.15.43.47.63l.5.3a3,3,0,0,1,.42.33c.35-.19-.58-.37-.33-.56a2.39,2.39,0,0,0,1.3.56c0,.16-.14.23-.31.25a.83.83,0,0,0,.4.33,3.32,3.32,0,0,0,.68.25l-.53-.15-.5-.14a9.1,9.1,0,0,1-.89-.31l-.4-.18-.39-.16-.77-.35c-.26-.12-.51-.26-.79-.36l-.87-.32a9.15,9.15,0,0,0-2.16-.44c.07-.2-.3-.32-.86-.4s-1.31-.19-2-.36A5.66,5.66,0,0,1,51,14.1l-.64-.27a2.54,2.54,0,0,0-.69-.16,3.57,3.57,0,0,0-1.06.07,1,1,0,0,0-.37.22,6.09,6.09,0,0,1,2.61.49c-.2,0-.32,0-.36.06a4.25,4.25,0,0,0-.67-.31,2.22,2.22,0,0,1-.71,0c-.47,0,.13.39-.55.29-.14.27.6.16.85.29-.14.1-.3.06-.51,0a1.91,1.91,0,0,0-.71,0c-.15-.18-.11-.4.38-.5a3.62,3.62,0,0,0-2.29-.14V14c-.61,0-1.22.23-.53.47,0-.32.27-.28.66-.17.19.06.42.13.66.18a3.17,3.17,0,0,0,.78.1c-.32.18.43.39.66.56-.09.1-.15,0-.35,0,.12.25.45.38,1,.28,0,.1-.08.14-.21.16s-.32,0-.48.06c-.06-.25-.52-.22-1-.13,0-.14-.19-.28-.45-.34a1.48,1.48,0,0,0-.74,0c-.34,0,.28-.22-.52-.11.37-.16.36-.45,1.22-.44,0-.14-.78,0-.7-.17-.56,0-.4.24-1.05.22.37-.19.07-.28-.53-.16a.26.26,0,0,0,0-.44c-.06-.12,1-.24.71,0,.36,0,.35-.22.71-.26-.58.06-.89-.18-.18-.42a2.52,2.52,0,0,0-1.25.54,1.17,1.17,0,0,0-.9.13,1.87,1.87,0,0,1-.86.32c-.2-.21.23-.29.69-.33-.45-.13.16-.38.33-.55-.06-.06-.25,0-.41.08s-.31.23-.29.3c-.26-.26.09-.12-.9.07-.11-.21.46-.27.5-.45.36.08.15.1.73,0-.13-.2-1.25,0-.76-.33-.14.09-.5.12-.53.23,0-.1-.08-.1-.23-.07l-.32.07-.55.11c.06-.16,1-.53,0-.29.16-.54.94-.51,2-.63-.13-.07,0-.52-.25-.77-.24.16-1.07.19-1.31.35-.51,0,.9-.27,1.11-.4a3.15,3.15,0,0,0-.88,0,4.2,4.2,0,0,0-.86.23c-.57.22-1.15.46-1.79.64.86-.41.84-.52,1.61-.87-.53,0-.44-.21-.09-.4A2.33,2.33,0,0,1,42,11.06c-.46-.3-1-.1-1.72.25-.34.17-.71.36-1.12.52a4.87,4.87,0,0,1-1.3.41,6.15,6.15,0,0,1,2-.94c-.14,0-.45,0-.42-.14.8-.22,1.38-.21,2.51-.54.28-.4,0-.66-.61-.73a3.4,3.4,0,0,0-.51,0,4.44,4.44,0,0,0-.59.08,6.67,6.67,0,0,0-1.32.42c0-.14-.27-.1-.25-.25a2.17,2.17,0,0,0,1.21-.1.84.84,0,0,1,.25-1.25,27.39,27.39,0,0,0-4,1.39,3.43,3.43,0,0,1,1.32-.82c.29-.11.63-.23,1.06-.35l1.56-.37c.51-.22.26-.35.77-.65a.67.67,0,0,0-.43-.08c-.32.1,0,.07.22,0a5.49,5.49,0,0,1-1.23.47,8.55,8.55,0,0,1-1.44.29,4,4,0,0,1-1.47.67,3.75,3.75,0,0,0-1.43.74c-.28,0-.41,0-.47-.16.56-.25,1.06-.49,1.55-.75l1.42-.69.7-.34.73-.31c.5-.2,1-.42,1.58-.58-.25-.14-.63,0-1.09.13-.23.08-.49.16-.76.24a7.89,7.89,0,0,1-.89.17c.22-.11.44-.2.66-.28l.64-.26c.42-.17.82-.34,1.22-.48.8-.26,1.55-.54,2.3-.75l1.12-.3c.37-.09.75-.21,1.13-.28l1.17-.24c.4-.08.81-.17,1.23-.22,0-.08-.4-.08-.67-.07A17.51,17.51,0,0,1,49,4.75a5.19,5.19,0,0,0-1.19,0,8.13,8.13,0,0,0-1.29.15,5,5,0,0,1,2-.31l.79,0,.83,0c.55,0,1.11,0,1.61.09s.49,0,.21.1c-.28,0-.56-.06-.82-.07l-.75,0a5,5,0,0,0-1.15.1,2.16,2.16,0,0,0,1.13,0c.41,0,.46.12.89.13a3.69,3.69,0,0,1-1.26.3c-.27,0-.56,0-.87.07l-1,.08-1,.06c-.34,0-.68.07-1,.1l-1,.12-.44.06-.41.09c0,.07.27,0,.44,0A11,11,0,0,0,43.55,6l-.68.13-.78.14c0,.09.21,0,.42,0s.4,0,.24.12c.72-.09,1.47-.22,2.24-.32L46.16,6c.39,0,.78-.11,1.18-.14L48.5,5.7c.39,0,.77-.08,1.15-.1.75,0,1.48-.12,2.15-.15.06-.24.71-.35,1.5-.42L53.91,5l.61,0a9.69,9.69,0,0,0,1.06-.09,4.91,4.91,0,0,0-1.37-.22,5.45,5.45,0,0,1-1.55-.23A3.81,3.81,0,0,1,54,4.12a10.67,10.67,0,0,1,2.39.32c-.11.07-.42,0-.51.12s.44.13.42.22a5.33,5.33,0,0,1,1.64.09,5.56,5.56,0,0,0-1.53-.5,2.92,2.92,0,0,1,1.77.48c.5,0,1.06.12,1.67.21a19.36,19.36,0,0,1,2,.37l-.65-.24L60.53,5,59,4.53l-1.73-.42c-.3-.07-.6-.16-.9-.22l-.92-.2a44.89,44.89,0,0,1,9,2.38l1,.4.51.19.49.21,1.85.8,1.62.76.72.32.64.3c0,.07-.11,0-.24-.07-.48-.18,0,.22-.39.16.5.31,1.07.69,1.69,1.1s1.23.91,1.87,1.38,1.25,1,1.85,1.44,1.14.91,1.66,1.26a9.63,9.63,0,0,0,1.42,1.46l.48.41.44.4c.28.25.53.45.69.57-.09,0-.35-.3-.42-.25.21.24.5.58.85,1s.71.85,1.11,1.31.79,1,1.18,1.4l1.07,1.22c0,.15.25.46.1.47a9.55,9.55,0,0,1,.88,1.11l.94,1.4c.32.48.61,1,.91,1.36.15.2.3.39.44.55a3.71,3.71,0,0,0,.41.42c-.53-.32.34,1.07.72,1.69.19,0-.51-.92-.14-.69.07.13.2.34.34.55s.28.44.4.59c.23.31.35.36,0-.45.38.43.6,1.45.15.93.09.2.15.14.21.17.37.95-.45-.24-.31.36.37.63.17.07.48.32.25.8.37,1.42.61,2.21.13-.07.31.43.53,1.07l.35,1a6.71,6.71,0,0,0,.36.92c-.13-.36-.31-1.13-.56-1.88-.12-.38-.24-.75-.37-1.07a3,3,0,0,0-.39-.74c-.17-.38.22-.08.35.38.06-.07-.24-.93.12,0a6.48,6.48,0,0,1-.42-1.26l-.16-.65a7.71,7.71,0,0,0-.25-.74c.09-.21.31.38.42.34A7.56,7.56,0,0,0,90,28.87c.47,1.33-.49-.7-.95-1.38-.3-.8.33.45.34.11s-.57-.77-.76-.94c-.19-.41.26-.14-.28-.9a5.15,5.15,0,0,1,.49.61c.16.24.34.52.52.83s.37.65.57,1l.56,1.17c.4.81.75,1.72,1.14,2.65.2.46.35.95.54,1.43s.37,1,.53,1.44c-.57-.83.19,1.09,0,1-.37-1.05-.33-1.18-.75-2.21-.1.09.08.62.12.92a6.47,6.47,0,0,1,.49,1.36c.07.23.13.46.2.68a4.56,4.56,0,0,0,.24.62,4.26,4.26,0,0,0-.07-.71c0-.25,0-.35.14.23a5.56,5.56,0,0,0-.2-1.39l.37,1.07c.11.34.2.68.3,1,.19.66.38,1.3.51,2l.22,1,.11.54.09.56c.12.77.27,1.6.36,2.57-.09.22-.16-1.34-.16-.47-.09-.08,0-.41,0-.47-.07-.34-.06.1-.18,0a8.74,8.74,0,0,0-.38-2.32c-.06.66.51,2.78.41,3.25-.09-.32-.14-.73-.23-1.18S94.1,42,94,41.49s-.18-1-.26-1.45l-.23-1.24a5.63,5.63,0,0,1,.41,1.83H94a8.35,8.35,0,0,0-.25-1.67c-.13-.51-.3-1-.42-1.55-.21.06.27,1.43-.09,1.19a11,11,0,0,1,.26,1.61A6.63,6.63,0,0,1,94,42c.07.44.14.91.19,1.4s.07,1,.09,1.44c-.06-.14-.28-1.38-.2-.23-.11-.44-.23-.62-.16.23-.08-.35-.15-.82-.2-1.28s-.13-.91-.14-1.24c.14.12.28.64.33.21a3.52,3.52,0,0,1-.31-1.37c.07,0,.11.42.16.68a2.37,2.37,0,0,0,0-.68,3.49,3.49,0,0,0-.2-.54,4.57,4.57,0,0,1-.41-1.5c.12.05.08-.23,0-.23-.05-.31.1-.21.18-.26l-.21-.91c0,1.16-.26-.83-.57-1.08.12.48.28,1.29.48,2.15.09.43.17.89.26,1.34s.19.87.27,1.27c-.14-.54-.26-.71-.27-.52a10.25,10.25,0,0,0,.25,1.67h-.18a1.78,1.78,0,0,1,.09,1.14A9.09,9.09,0,0,1,94,45.49c0,.2-.05.58-.07,1.06,0,.24,0,.5,0,.79s0,.28,0,.43,0,.3,0,.45c0,.6,0,1.23-.06,1.79s-.06,1.08-.06,1.45c.09.1.12-.16.14-.45.19.12-.2.87.08.71-.07.35-.13.75-.18,1.17s-.09.87-.13,1.31a13.24,13.24,0,0,1-.47,2.5c.16.39.17-1,.33-.62s-.09.41-.2,1.13c-.24-.29-.42,1.28-.65,1.24a5.68,5.68,0,0,1-.12.62l-.12.51a9.89,9.89,0,0,0-.2,1.12c.1,0,.18-1.07.39-1.31,0,.36-.35,1.43-.13,1.41-.1.36-.52,1.07-.45,1.3-.12.31,0,0-.1,0-.1.37-.23.84-.41,1.37L91,65.15c-.46,1.19-.92,2.45-1.25,3.41a1.87,1.87,0,0,0-.48.83,6.73,6.73,0,0,1-.57,1.21c0-.15-.19.06-.29.08a17.93,17.93,0,0,1-1.14,2.25,11.86,11.86,0,0,0-2.09,3,3,3,0,0,0,.32-.38l.38-.57a9.18,9.18,0,0,1,.78-1.07c-.36.65.34-.06-.27,1,.09-.62-.43.29-.89.74.24,0-.53.82-1.21,1.67-.19-.13.41-.49.48-.8-.06-.15-.74,1-.67.62-.26.35-.58.73-.89,1.13s-.63.82-1,1.2-.68.75-1,1.08a5.37,5.37,0,0,1-.48.44l-.44.35a2.81,2.81,0,0,0-.82,1.15c-1,.9-1.67,1.2-2.48,2l-.08-.12c-.33.29-.66.57-1,.85l-1.15.8-.62.43-.68.43-.73.47-.39.25-.41.25c-.23.14-.13.18-.13.25-.56.32-1,.53-1.28.69s-.57.23-.82.32c-.5.17-1,.39-2.19.9a3,3,0,0,1,1-.51c-.06-.14-1,.38-.91.1a4.53,4.53,0,0,1-1.18.49,13.94,13.94,0,0,0-1.73.55.94.94,0,0,0-.53,0,4.81,4.81,0,0,0-.76.21l-1,.35c-.35.13-.74.24-1.14.35.14.08.22.18.89,0-.53.21-1.09.4-1.65.57s-1.14.29-1.7.42-1.11.22-1.63.31-1,.2-1.44.27a.36.36,0,0,0-.16.07l-.05.05c-.27,0-.79.05-1.23.09s-.8.09-.74.26a13.05,13.05,0,0,0,2.2-.29c.4-.07.79-.17,1.13-.24s.63-.14.82-.17c.62-.11.1.24.87-.09.31-.06.09.12.45,0l-.75.27c-.35.11-.77.22-1.2.33s-.42,0-.45-.1c-.79.19,0,.14-.19.36.63-.29,1.8-.21,2.2-.43-.06.16-.39.22-.83.26a10.18,10.18,0,0,0-1.58.25c-.65.15-.31.14-1.33.42,0-.07,0-.13-.22-.11.31-.12,1.09-.2,1.32-.33a5.06,5.06,0,0,0-1.94.05l-1.34.1a5.29,5.29,0,0,1-1.15,0c.16-.14.16-.09,0-.22-.44,0-1,0-1.61,0a5.79,5.79,0,0,0-1.48.09l-.91-.1-1.06-.12c-.37,0-.76-.06-1.16-.11l-1.23-.15-.63-.07-.63-.1-1.27-.21c-.83-.16-1.64-.35-2.38-.53-.24.21.67.2.79.38a2.23,2.23,0,0,1,.67,0c0,.11.48.25.93.34s.89.2.93.31c-.56-.08-1-.13-1.41-.21l-1.64-.29a5.06,5.06,0,0,0,1,.36l.72.18.78.15,1.47.29a3.13,3.13,0,0,1,.93.27c-.3,0-.63-.05-1-.07l-1-.1a3.7,3.7,0,0,1-1.55-.41,5.6,5.6,0,0,1,.67.18,1.68,1.68,0,0,0,.64.08,4.89,4.89,0,0,0-1.54-.43l-1-.19L39.06,93l-.55-.18c.25-.06.55.21.88.16-.66-.18-1.31-.56-1-.57-.42-.13-1.06-.3-1.56-.48s-.84-.33-.69-.35l-.73-.22c-.24-.07-.49-.15-.73-.24.07,0,.42.12.45.07-.63-.35-1.28-.19-1.42-.55l-.67-.23-.55-.21-.92-.35a17.1,17.1,0,0,1-1.9-.84c-.26.08.74.5.85.67-.1,0-.66-.37-.66-.18-.27-.17-.56-.34-.87-.51s-.63-.37-1-.57l-1.15-.65L25.59,87c.25,0,.46.28,1.14.65a4.69,4.69,0,0,0-.51-.4c0-.09.67.4,1,.52-.4-.29-.73-.56-1.12-.81s-.82-.52-1.37-.9a4.41,4.41,0,0,0,.52.42l.71.46c-.41-.21-.43-.06-1-.45.11,0,.23.08.26,0l-1.49-.92c.43.24.42.18.23,0s-.55-.44-.81-.66-.06,0,.12.19a2.78,2.78,0,0,0-.53-.49l-.59-.47c-.22-.18-.47-.36-.7-.58-.48-.42-1-.86-1.44-1.27s-.82-.81-1.06-1.07a6.56,6.56,0,0,1-.83-.7,3.32,3.32,0,0,0,.59.63c.21.23-.07,0-.39-.31a7,7,0,0,1-.68-.76,1.87,1.87,0,0,0,.6.35,1.29,1.29,0,0,0,.36.44,3.72,3.72,0,0,1,.51.5c.11,0-.07-.16-.26-.34.54.34.94.89,1.49,1.26-.32-.33-.78-.74-1.15-1.09a5.39,5.39,0,0,1-.46-.47c-.11-.14-.16-.25-.13-.31a27.37,27.37,0,0,1-3.07-3.52,2.33,2.33,0,0,1,.47.52c.18.23.37.47.5.61a2.59,2.59,0,0,0-.54-.73c-.27-.32-.59-.68-.8-.93s.57.72.44.72-.42-.35-.76-.78c0-.22.35.34.6.63a3.13,3.13,0,0,0-.47-.66,3.85,3.85,0,0,1-.53-.72c.06,0,.2.22.33.36s.23.24.19.07-.14-.1-.2-.13c-1-1.72-2.28-3.37-3.22-5a2.34,2.34,0,0,0,.39.86,6.11,6.11,0,0,0,.68,1c0,.2-.29-.23-.39-.29a12.91,12.91,0,0,0-1-1.86c.09.22.13.31.09.31s-.13-.09-.25-.25a6.72,6.72,0,0,0,.81,1.73c-.2-.19-.55-.58-.09.27-.23-.37-.44-.75-.65-1.14-.1-.19-.2-.38-.3-.58l-.26-.6L10,69.1l-.49-1.29c-.19-.33-.3-.28-.42-.76.15.18,0-.17-.16-.68s-.5-1.2-.68-1.72c0,.18.16.85-.05.44-.07-.28-.27-1-.5-1.72a5.44,5.44,0,0,0-.57-1.54c-.17-.69.1,0,.07-.43a10.22,10.22,0,0,1-.34-1.23c0,.28-.15-.17-.3-.81s-.27-1.46-.34-1.9c.16.53.23.49.16-.21l.29,1.86c.12.68.3,1.39.49,2.09.05-.18,0-.71,0-.85-.1-.41-.22-.82-.3-1.24-.06-.26-.11-.2-.06,0a1.58,1.58,0,0,1-.12-.41l-.08-.42c.24.57.08.06.08-.42s0,.25-.14-.2c0-.26,0-.43,0-.42s-.36-1.56-.22-1.46a8.28,8.28,0,0,1,.13,1c.23-.3,0-.77.26-.62a1.94,1.94,0,0,0-.19-.58,1.77,1.77,0,0,1-.17-.68c.06-.17.14.15.21.45s.15.59.15.39c.12.06,0,.77.16.83.05.54,0,1.2-.19.63a4.59,4.59,0,0,0,.06.62c.11-.12.21.6.28-.22.11.49,0,.45.18,1,0-.62.09-.06.23.76A11.66,11.66,0,0,0,8,61.71a7.44,7.44,0,0,0,.21,1c.1.08,0-.3-.12-.61a3,3,0,0,1,.22.6,5.08,5.08,0,0,0-.12-.61,3.1,3.1,0,0,1,.22.86c.05.33.08.53,0,.16a48,48,0,0,0,2.05,5.28,9.45,9.45,0,0,0-.44-1.18l-.15-.35-.15-.37-.3-.74-.29-.72c-.09-.23-.15-.45-.22-.65a3.63,3.63,0,0,1-.2-.91l.27.88.11.36c0,.14.11.32.21.55s.11.19.19.38,0-.45.07-.44c-.09-.15-.4-.57-.24-.15a7.66,7.66,0,0,1-.37-1.21,3.28,3.28,0,0,0-.47-1.15c-.05-.26-.1-.64-.16-1a5.28,5.28,0,0,0-.13-.55,1.92,1.92,0,0,0-.17-.45c0-.14.13-.15-.14-.81a3.93,3.93,0,0,1,.31.92c.11.46.29,1,.45,1.65s.38,1.26.57,1.85a12,12,0,0,0,.6,1.51c.17.37,0-.34.3.56a11,11,0,0,0-.41-1.17c.06,0,.3.68.43,1,.11,0-.22-.74.08-.23-.22-.72-.39-.71-.44-1.15-.09-.21-.11-.12-.21-.37-.09,0,0,.32.09.61a3.94,3.94,0,0,1-.47-1.37c-.24-.57.11.46-.06.22a3.84,3.84,0,0,1-.21-1.21c.27,1,0,.13.3.57-.09-.27-.15-.45-.2-.57a2.28,2.28,0,0,0-.14-.28,2,2,0,0,1-.23-.71,1.17,1.17,0,0,0,.06.4c-.07-.25-.2-.7-.3-1.2s-.21-1-.32-1.4a1.53,1.53,0,0,1-.26-.39,2.72,2.72,0,0,1-.08-1,7.72,7.72,0,0,0,.2.81c.1-.08,0-.56.15-.21a10.28,10.28,0,0,0-.32-1.2s0-.24,0-.4,0-.25,0,0c0-.15-.19-.65-.26-1.42,0,0,0-.22,0-.49s-.06-.62-.09-.93c.06,1.25,0,.07-.11.4-.08-.58,0-.86-.12-.82,0-.61,0-1.11-.06-2,.15.28,0,.67.09,1.44a3.23,3.23,0,0,0,.11-1.21,4.73,4.73,0,0,1,.08.82,6.31,6.31,0,0,1,.12-1c0-.24-.07-.18-.11-.22a1.76,1.76,0,0,1,0-.52c0-.09.05-.1.09-.07a13.89,13.89,0,0,1,.08-2.42c0-.59-.09.53-.16.38.13-.66.19-1.52.32-2.4.06-.44.1-.89.16-1.33L8,43.92c0-.36,0-.47-.06-.44a11.18,11.18,0,0,0,.47-2.13l.34-1.53.08-.36.1-.33c.06-.21.12-.39.18-.55a3.17,3.17,0,0,1-.14.59c.18-.43.59-1.77.45-1.77.08-.08.72-1.79.29-.52.25-.59.46-1.25.73-1.89a13.4,13.4,0,0,1,.81-1.81c-.09.22-.17.42-.25.6l-.2.52c-.13.34-.26.68-.42,1.14.15-.5,0-.28-.07,0s-.22.7-.14.54c-.17.37-.36.88-.58,1.48s-.39,1.3-.61,2S8.67,41,8.52,41.71l-.21,1.06c-.07.34-.14.67-.19,1,0-.14.08-.35.14-.58A4.3,4.3,0,0,1,8,44.33c-.06.52.08-.26.11,0s-.1.36-.15.56a4,4,0,0,0-.12.81c0,.52.07-.26.11,0s-.11.57-.15.88a9.08,9.08,0,0,0-.09,1l0,1c0,.33,0,.66,0,1,0-.17.06-.7.1-1s0,0,0,.39,0,.82,0,1c0-.11-.05-.22-.09-.22,0,.58,0,1.32,0,1.61-.06-.08,0-.35,0-.41-.08.32.08,1.6-.06,1.6a4.37,4.37,0,0,0-.07-1c-.05.07.06.93-.08.6a9.29,9.29,0,0,1,.17,1.63,5.17,5.17,0,0,0,0-1,5.59,5.59,0,0,1,.13.95c0,.3,0,.59,0,.87-.06-.09,0-.26-.07-.61-.11-.11-.11.63,0,1.38a5.57,5.57,0,0,0,.27,1.44c.09.11.07.61,0,.21,0,.52.49,2.18.26,2,.14.62.18.24.32,1,.2.13.22-.18.09-.82A.4.4,0,0,1,8.42,59a4.72,4.72,0,0,1-.07-.57s.08.24.12.4A15.17,15.17,0,0,1,8.21,57c.11.48,0,.43.18,1-.37-2.06,0-.73.15.39,0-.08-.13-.19-.1,0,.09.48.14.43.27,1-.14.14.16,1.28-.15.82.07.32.12.34.19.59a2.92,2.92,0,0,0,0-1c.15.4.24.82.37,1.26s.25.91.37,1.42A21.84,21.84,0,0,0,10.71,66c0-.3-.62-1.94-.3-1.58-.39-1-.45-.74-.49-1.33-.13-.26,0,.09-.24-.36-.12-.61-.28-1.31-.46-2-.08-.37-.17-.75-.27-1.13l-.32-1.14c.11.28.13.15,0-.4,0-.19-.13-.18-.1,0-.06,0-.28-1.44-.07-.79-.09-.57-.14-1-.21-1.51,0-.23-.07-.46-.09-.7s0-.49,0-.76A3.44,3.44,0,0,1,8,53a5.71,5.71,0,0,0-.17-.61c0-1.11,0-2.29,0-3.3a6.41,6.41,0,0,1,.32-2.25c0-.39,0-1,0-.62a4.93,4.93,0,0,1,.05-1,2.32,2.32,0,0,1,0,.41.76.76,0,0,0,.11.44,12.65,12.65,0,0,0-.21,1.42c0,.5-.05,1-.07,1.52s0,1,0,1.54c0,.25,0,.5,0,.75s0,.49,0,.72a3,3,0,0,1,.16,1c-.06-.24-.09-.24-.12,0a4.11,4.11,0,0,0,.2,1.2,11.35,11.35,0,0,0,.37,3c-.06-.05,0,.19-.05.2.16.76.29,1.49.48,2.2l.26,1.07c.1.35.2.7.31,1.06a43.3,43.3,0,0,0,1.65,4.72c.21.43,0-.09-.1-.38.28.29.49,1.1.25.76.32.63.6,1.23.92,1.78s.57,1.11.85,1.63c.12.18.14.09.27.32.05,0-.32-.58-.22-.56a3.67,3.67,0,0,1-.24-.36c-.07-.13-.14-.27-.21-.42s-.27-.6-.39-.92-.23-.64-.33-.95-.19-.6-.29-.85c-.36-.47-.24-.6-.73-1.65a2.28,2.28,0,0,0,.27.93c.16.42.43.87.59,1.3-.1,0-.31-.61-.35-.72a1,1,0,0,0,.11.38,2.21,2.21,0,0,1-.32-.59,1.91,1.91,0,0,1-.15-.52c-.21-.37,0,.3-.08.23,0,.12-.4-1.11,0-.19,0-.2-.3-.8-.41-1.13,0-.16.35.88.38.72-.29-.85-.63-1.72-.75-2.27,0,.19,0,.19-.2,0s0-.2-.11-.39c0,0,0-.08,0-.2.09.22.13.22.1.08a7.63,7.63,0,0,0-.16-.77c-.08-.35-.19-.75-.3-1.15s-.19-.78-.28-1.07c0,0,.09.23.14.38s0-.06.18.18c.11.46.2.8.29,1.14s.17.69.32,1.16c0-.29-.16-.76-.27-1.19-.05-.21-.1-.42-.13-.58a.8.8,0,0,1,0-.36c0,.19.1.38.17.57a3.63,3.63,0,0,1-.14-1,6.39,6.39,0,0,1,.22.71c.06.22.11.43.16.64a10,10,0,0,0,.32,1.32,2.65,2.65,0,0,1,.35.73c-.05,0-.16-.36-.21-.36,0,.18.18.27.31.74-.09-.11,0,.13.13.51s.38.89.53,1.35c-.06-.05-.07,0,0,.17a4.26,4.26,0,0,0,.21.62c.2.5.46,1.11.58,1.45-.38-.64,0,.17-.18-.15a19.39,19.39,0,0,0,.9,1.87c.18.33.39.66.59,1s.4.68.62,1l.63.92.29.44.28.4a8.56,8.56,0,0,1,.78,1.26c.68.82,1.24,1.55,1.81,2.15l.79.88.78.79c.26.26.5.53.77.77l.82.76.43.4.48.4,1,.86c.15.12.16.06.21.07A25.61,25.61,0,0,0,26,83.28l-.87-.61L24.21,82l-.82-.62a5.89,5.89,0,0,0-.67-.47c-.46-.34-.37-.36-.76-.66s.3.12.63.51c-.15-.19-.49-.46-.86-.81l-1.2-1.09c-.76-.74-1.34-1.37-1-1.26l2.72,2.61c.45.41.88.82,1.31,1.19s.87.71,1.28,1c.21.14.37.2.41.14a10.31,10.31,0,0,0-1.3-.94c.21.1.19,0-.11-.17,0-.12.35.15.29,0a10.69,10.69,0,0,0,1.19,1c-.28-.38-.1-.2.36.19,0-.1-.14-.25-.38-.42s-.54-.4-.85-.61-.61-.4-.81-.56-.3-.29-.22-.32c.13.12.25.25.26.31a10.27,10.27,0,0,1,1.16.73c.19.13.4.3.67.48l1,.66c0-.15-1.32-.81-1.19-1,.38.26.73.48,1,.7l.87.62c.56.37,1.07.73,1.7,1.08.06,0,0-.07-.13-.16.71.27.27.31,1.34.83-.06-.12-.3-.3-.42-.44-.8-.46-1.77-1-2.59-1.45-.35-.24-1.48-.94-1.39-1.08.42.31.93.78,1.18.72a34.09,34.09,0,0,0,3.39,2c.22-.06-.92-.5-.59-.52a5.27,5.27,0,0,0,1.27.55c-.37-.26-1.11-.52-1.13-.75l.69.35c-.07-.22-.79-.5-.75-.6A49.49,49.49,0,0,0,34.55,86a1.81,1.81,0,0,1,.76.21l0-.07-.68-.25-.75-.33c-.52-.23-1.06-.47-1.55-.74,1.1.4,2.6,1,4.28,1.61a26.31,26.31,0,0,0,5.29,1.24c.17-.06,1.19.11.94.21a4.59,4.59,0,0,1-.77,0c-.26,0-.53-.09-.79-.15-.53-.12-1-.22-1.5-.3.16.13-.09.11-.52,0l-.76-.16c-.28-.06-.57-.14-.85-.21.41,0-.05-.1-.12-.21-.43-.11-.71-.2-1-.3a10.71,10.71,0,0,0-1-.35l-.07.15a1.77,1.77,0,0,1,1,.52c-.46-.09-.34-.12-.94-.27.35.24-.45.17.6.55a.72.72,0,0,0,.35,0c.06,0,0-.08-.27-.17a6.11,6.11,0,0,1,1.32.34c.43.14.81.26,1,.13.77.18,1.57.39,2.4.52.41.07.83.16,1.25.22l1.27.17c.43.07.86.09,1.29.13s.86.08,1.29.09c.86,0,1.71.07,2.54,0a6.89,6.89,0,0,0-.93-.14,6.13,6.13,0,0,0-.75,0,9.45,9.45,0,0,1-1.79-.08c.43-.07.16-.11-.29-.16l-.75-.08a4.6,4.6,0,0,1-.64-.13c.49,0-.13-.21.25-.23l.81.1.78.12a4.48,4.48,0,0,0,.66.07.84.84,0,0,0,.44-.1c.5,0,1,.06,1.51.09l1.47.06a12.24,12.24,0,0,0,1.32,0,4.15,4.15,0,0,0,1.06-.18c.25-.05.62-.08,1-.11l.57-.07a3.64,3.64,0,0,0,.52-.15,4.16,4.16,0,0,0,1.34,0c.12-.14-.4,0-.58,0,0-.07.34-.11.66-.17s.64-.12.65-.19c.43-.11.22.09.58,0,0-.07.24-.14.55-.23s.71-.2,1.12-.31l.59-.16.51-.17c.3-.11.51-.2.52-.25.37-.11.39,0,.76-.1s-.24,0,.15-.21l.9-.35c.29-.11.58-.22.86-.34l.83-.35c.28-.12.55-.23.82-.36l.81-.4c.27-.14.55-.27.81-.43l.82-.49a9.91,9.91,0,0,0,.84-.55,5.34,5.34,0,0,0-1,.47,6.55,6.55,0,0,0-.83.65c-.38.14-.71.21-1.09.33s-.73.38-.64.47c-.41,0-1.08.48-1.94.78-.08-.08.06-.11.27-.18a4,4,0,0,0,.77-.31c-.24,0-1,.43-.77.08a3.76,3.76,0,0,0-1.07.37,1.86,1.86,0,0,1,.8-.45,10,10,0,0,1,1.1-.39c-.06.19.37,0,.07.23l.53-.24.55-.28,1.18-.6,1.22-.7.31-.18.31-.19.62-.39c1.64-1,3.23-2.17,4.44-3.1,0,.1-.21.28-.21.37a20.5,20.5,0,0,0-2,1.35L69,81.25l-.51.38L68,82a5,5,0,0,0,.57-.31l.63-.44a10.52,10.52,0,0,1,1.21-.77L70,80.8c-.23.19-.46.41-.42.48a4.31,4.31,0,0,0,1.14-.69c0,.21-.4.31-.73.65.07.07.55-.34.68-.36.38-.54.62-.48,1.38-1.05.05.19-.35.43,0,.37s.23-.25.42-.41c-.13,0-.37.24-.38.12.38-.34.53-.35.56-.21.22-.34,1-.67.81-.87-.13.06-.73.53-.88.41.34-.31.38-.19.77-.58l-.06-.08c-.1.06-1.78,1.4-1.1,1.11-.24.12-.58.31-1,.54s-.79.49-1.21.68c.3-.15,1-.72,1.68-1.26.34-.29.69-.58,1-.81.16-.12.32-.22.46-.31a2.22,2.22,0,0,1,.38-.21c.48-.39.1-.32.3-.55a7.11,7.11,0,0,1,.65-.47A1.78,1.78,0,0,1,75,77a7.6,7.6,0,0,1,.61-.77c-.18,0-.06-.2.17-.47s.55-.65.81-1c.2,0-.39.54-.08.47.58-.35.53-.74,1.08-1.35l-.52.45-.52.39c.54-.75,1.81-2.41,2.23-2.84a.8.8,0,0,1,.17-.4l.4-.59A6.55,6.55,0,0,0,80,70c.5-.43.42-.08,1-1.12-.06-.18-.19,0-.41.4,0-.23.3-.81.42-.63.11-.2,0-.2,0-.26.26-.27.58-1,.68-.69,0-.26.46-.9.17-.8a5.23,5.23,0,0,0,.45-.66c.12-.24.16-.44,0-.42.29-.77.43-.59.69-1.13.17-.39-.17-.18-.21-.33.26-.65.24-.41.33-.25.17-.37.06-.37,0-.43a10.54,10.54,0,0,0,.72-1.12c.18-.69-.17-.09-.13-.47a5.83,5.83,0,0,0,.61-1.33c.13-.48.16-.85-.1-.69.33-.72,0-.76.08-1.36.12-.24.26-.28.4-.26-.1-.18,0-.6.18-1.09a6.61,6.61,0,0,0,.33-1.49c-.33,0-.28,1.47-.51,1.8-.12-.07,0-.34,0-.58s.11-.45-.08-.4c.08-.41.15-.81.22-1.2s.09-.79.14-1.18c.1-.79.1-1.58.14-2.42A57.77,57.77,0,0,0,84.79,46c-.11,0-.11.31-.18,0-.07-.65.11,0,.11-.55-.08-.33-.14-.66-.23-1l-.27-1-.13-.51-.16-.51-.31-1c-.1-.35-.24-.69-.35-1s-.23-.71-.37-1.06c-.28-.7-.53-1.42-.86-2.12a42.15,42.15,0,0,0-4.8-8.38A44.75,44.75,0,0,0,74,24.88c-.3-.3-.6-.6-.9-.9l-.45-.45-.47-.43c-.32-.28-.62-.58-1-.85l-1-.81A38.6,38.6,0,0,0,66,18.53l-.54-.34-.55-.31-1.11-.61c-.37-.2-.75-.37-1.13-.56s-.74-.38-1.13-.53a1.35,1.35,0,0,1-1.32-.13c-.05-.27-.42-.56-1-.84a8.94,8.94,0,0,0-.95-.42c-.35-.11-.74-.21-1.13-.3,0,.15.8.21.44.4l.58.17.43.14A5.26,5.26,0,0,1,59.49,15.59ZM35.75,91c0-.09-.26-.19-.67-.34s-1-.35-1.51-.57c.28.3.78.56.4.62l1.13.43,1.17.39c.39.12.78.26,1.16.35l1.11.25c-1-.24-1.23-.42-.56-.35a8.58,8.58,0,0,1-1.24-.38c-.53-.1.33.23-.27.09s.35-.07-.11-.29c.25.09,1.28.38.64.15S36.37,91.19,35.75,91ZM11,64.66c-.16-.41-.24-.66-.33-.9s-.16-.45-.25-.8A4.17,4.17,0,0,0,11,64.66ZM52.29,88.34a3.72,3.72,0,0,1,.78-.09c.39,0,.77-.12.77-.21-.2,0-.41.09-.59.11l-.49,0c-.27,0-.4,0-.27-.11l-.88.06c-.25,0-.46,0-.67,0H49.59c-.27.08-.14.11,0,.15s.26.05,0,.12-.73-.14-1.13-.2l-1.35-.17c.22.36,1.76.42,3.05.46.1-.15-.41-.14,0-.27l1.5,0C52.13,88.21,52.44,88.22,52.29,88.34Zm4.25-73.52c0,.17.17.32.6.44C57.29,15.08,57.09,14.93,56.54,14.82ZM78.37,29.7c-.3-.42-.66-1.05-.83-1C77.76,29,78.52,30.05,78.37,29.7ZM70.15,81.58a4.4,4.4,0,0,0,.47-.32l.38-.33a2.88,2.88,0,0,1,.71-.5c-.56.27-.82.23-1.34.76.39-.27.3-.18.13,0S70.08,81.56,70.15,81.58ZM51.71,88.41a3.19,3.19,0,0,0-1.36,0A8.09,8.09,0,0,0,51.71,88.41Zm8-1.72-.94.26-1,.24c-.33.08-.65.18-.92.26a3.27,3.27,0,0,0-.68.26c.27,0,.23.05.4.05.46-.18,1-.36,1.52-.52l.83-.24Zm-21.39.8c0,.06.09.11.08.13s-.12,0-.5-.12c0,.11.21.26.6.35a11,11,0,0,0,1.27.23c-1-.19.46-.06-.14-.2C39.46,87.84,38.94,87.68,38.31,87.49Zm8.89,1.24c.26-.14-1.31-.14-1.36-.08C46.46,88.64,46.52,88.74,47.2,88.73ZM44.54,10.25a3.09,3.09,0,0,0-1.29,0,1.49,1.49,0,0,0-.52.16c-.07.05,0,.09.25.11C43.38,10.3,44.28,10.39,44.54,10.25ZM10.83,63.88a2.62,2.62,0,0,0-.24-.55,14.67,14.67,0,0,0,.91,2.42c-.21-.54.17.27.18.16a14.63,14.63,0,0,1-.88-2.22C10.83,63.8,10.87,63.91,10.83,63.88ZM26.71,83.31a4.91,4.91,0,0,0,.56.37l.42.24a8.07,8.07,0,0,1,.89.54c.2-.08-1.76-1-.92-.76-.33-.18-.35-.25-.66-.43S27,83.34,26.71,83.31Zm2,1.6a13.38,13.38,0,0,1-1.42-.8l-.56-.34c-.19-.12-.39-.25-.64-.38.27.18.52.38.77.53l.73.45A4.21,4.21,0,0,0,28.75,84.91Zm-12.33-10c-.22-.27-.48-.69-.74-1.07A11.07,11.07,0,0,0,15,72.9c.44.61-.12.08.11.39.13,0,.36.31.61.67A4.67,4.67,0,0,0,16.42,74.88Zm-.06,0c-.22-.27-.39-.53-.55-.74a6,6,0,0,0-.44-.55A6.44,6.44,0,0,0,16.36,74.92Zm2.72,3a14.44,14.44,0,0,0,1.36,1.23A8.22,8.22,0,0,0,19.07,77.93ZM11.42,67c-.11,0-.22-.26-.41-.3.14.24.28.53.43.84s.29.65.46.95a6.1,6.1,0,0,0,.76,1.28A9.65,9.65,0,0,1,12,68.42l-.14-.33-.13-.35C11.63,67.5,11.53,67.26,11.42,67ZM8.86,61.18a5.25,5.25,0,0,0,.28,1.24c.08.28.18.58.29.87s.2.57.28.82c-.07-.35-.16-.76-.3-1.27S9.14,61.71,8.93,61c-.07.08.36,1.53.11,1C9.09,61.93,8.86,61.31,8.86,61.18ZM10,65.09c-.17,0,.26,1,.44,1.15-.29-.58-.29-.6-.14-.6a2.69,2.69,0,0,0-.27-.56C10.35,65.74,10.07,65.44,10,65.09ZM8.63,61.21c-.17-.71-.2-.73-.34-1.39A3.05,3.05,0,0,0,8.63,61.21Zm1,2.92A9.87,9.87,0,0,0,9.22,63C9,62.72,9.56,64.15,9.61,64.14Zm1.29,3.46c.13.26.23.55.34.82a2.68,2.68,0,0,0,.37.66c-.11-.22,0-.13.06,0C11.21,68,11.31,68.42,10.91,67.59Zm.15,1a3.83,3.83,0,0,0,.46.71c-.19-.37,0-.27-.33-.76Zm2,3.63c.12,0-.06-.28-.34-.75C12.64,71.48,12.79,71.8,13.09,72.25Zm-.57-.65c-.31-.43-.35-.78-.53-.9.35.64,0,.25-.16.06l.51.87c.18.31.35.62.53.87.34.52.6.87.61.71.14.26.39.94.31.54.18.3.67,1,1.09,1.53s.82,1,.74.78a7.17,7.17,0,0,1-.57-.71,12.57,12.57,0,0,0-.86-1.1c.18.08-.18-.37-.12-.4a12.91,12.91,0,0,1-1-1.58A14.37,14.37,0,0,0,12.3,71c.18.14-.6-1-.21-.36A3.66,3.66,0,0,1,12.53,71.6Zm-2.24-3.81a1.9,1.9,0,0,0,.43.52c-.15-.34-.48-.94-.29-.78a4.54,4.54,0,0,0,.67,1.3c-.17-.27-.34-.69-.51-1.05a5.08,5.08,0,0,0-.43-.81C10.48,67.64,10.17,67.4,10.28,67.78Zm5.94,9.13s-.21-.18-.23-.11.26.33.41.49c.09,0-.09-.22,0-.24a4.33,4.33,0,0,0-.56-.63ZM53.09,5.74c-.88,0-1.49-.4-1.77-.13.44,0,.42.14.64.21C52.07,5.68,53.15,6,53.09,5.74ZM6.85,58.9a3.47,3.47,0,0,0,.22.82c-.15-.57-.13-.63-.1-.54s.14.32.17.33C7,58.78,6.9,58.63,6.85,58.9Zm.72,1.61c-.14-.73-.2-.74-.32-1.43-.11-.07-.27-.69-.19,0C7.25,59.16,7.38,60.21,7.57,60.51ZM8,62.75c-.13-.51-.58-1.94-.17-1,0-.16-.12-.4-.09-.41a2.92,2.92,0,0,0-.43-1c.09.33.15.59.21.81s.11.4.15.57A8,8,0,0,0,8,62.75Zm-.16-.18-.35-1.34a10.61,10.61,0,0,0-.35-1.31,11.88,11.88,0,0,0,.24,1.33A6.29,6.29,0,0,0,7.89,62.57ZM9.83,67.7c-.09-.2-.21-.46-.33-.75l-.32-.89a5.47,5.47,0,0,0-.36-.91A11.25,11.25,0,0,0,9.83,67.7Zm.33.78c.12.3.34.76.55,1.2a8.42,8.42,0,0,0,.58,1.07c-.22-.39-.41-.86-.59-1.28-.09-.21-.19-.41-.28-.58A2.09,2.09,0,0,0,10.16,68.48ZM35.42,90.66c.39.13.47.09.84.21.18-.11-.56-.29-1.18-.49-.15,0,0,.08.17.15S35.58,90.64,35.42,90.66ZM7.69,62.81c-.08-.07,0,.25.08.61a5.71,5.71,0,0,0,.3.82C8,64,8,63.81,7.94,63.59A3.81,3.81,0,0,0,7.69,62.81ZM23.39,84.9c.25,0,.33.11.46.13.5.37.84.66,1.21,1a11.66,11.66,0,0,0,1.36,1c0-.08.26.06.28,0-.53-.32-.08-.23-.79-.71-.36-.05-1.73-1.25-1-.52a16.52,16.52,0,0,1-1.42-1C23.69,85,22.91,84.5,23.39,84.9Zm5.54,3.33c-.88-.42-1.16-.65-1.73-.89A17.22,17.22,0,0,0,30,88.9c0-.26-1-.61,0-.33-.65-.23-1.92-1.08-1.54-.78S28.78,88.09,28.94,88.23Zm2.84,1.54c0-.09.31,0,.46.06a4.55,4.55,0,0,1-1.15-.55,4.05,4.05,0,0,0-.73-.5C30.24,89,31,89.41,31.77,89.77Zm14.76,3.47c1.09.06,2,.06,2.84.1-.22-.11,1-.16.24-.22-.39,0-.81,0-1.26,0h-.68c-.23,0-.46,0-.69,0-.29-.39-3.27-.32-4.91-.77.74.29-.15.07-.29.26a11.71,11.71,0,0,0,2.4.23,1.37,1.37,0,0,1-.63-.15,4.7,4.7,0,0,1,1.28.21c-.27,0-.52,0-.45,0,.95,0,1.09.07,1.28.25.75.05.68-.1,1.12-.12C46.78,93.18,46.66,93.21,46.54,93.24ZM20.82,82.94c-.8-.7.19.13.22.09-.49-.37-.39-.39-.8-.71C20.11,82.31,20.58,82.87,20.82,82.94Zm.86.66c.23.19.13.21.26.34a12.63,12.63,0,0,1,1.21.91C23.35,84.78,22.11,83.77,21.67,83.6Zm61.77-7.74c.1.18.63-.6.77-.5.48-.61.27-.69.45-1.07a8.12,8.12,0,0,1-1,1.18C83.67,75.54,83.6,75.66,83.44,75.86ZM51.13,93.23l.66,0c-.15-.13,0-.18-.21-.21S51,93.1,51.13,93.23ZM54.41,93a5.86,5.86,0,0,0,1.52-.31C55.51,92.59,54.43,92.78,54.41,93Zm-4.81.32a8.41,8.41,0,0,1,1.09,0s0-.09,0-.13A2.75,2.75,0,0,0,49.6,93.34Zm18.23-4.4c-.51.14-1,.5-1.62.69A2.8,2.8,0,0,0,67.83,88.93ZM37.43,92c.69.12.49.19.82.29C39.21,92.33,37,91.79,37.43,92Zm31.26-3.27c.08.15.92-.32,1.28-.39,0,.11-.71.3-.54.44a43,43,0,0,0,4.23-2.5c0-.06-.12-.1-.08-.2s.2-.28.62-.65l-.49.34-.6.38c-.43.27-.89.59-1.39.89l-1.54.9C69.68,88.22,69.16,88.48,68.69,88.72ZM92.17,35.26c-.2-.62-.35-1.07-.48-1.47a6,6,0,0,0-.51-1.14c.63,1.81-.14-.23,0,.25.23.76.38,1.18.53,1.57s.28.79.52,1.49C92.52,36,91.69,34.55,92.17,35.26ZM91.63,33a7.84,7.84,0,0,0-.72-1.73,6,6,0,0,0,.32,1C91.39,32.66,91.53,33,91.63,33ZM49.12,5.47a14.25,14.25,0,0,1-2,.26c0-.07-.27-.06-.44-.07.23-.23.37-.1.66,0C47.62,5.38,48.12,5.55,49.12,5.47Zm-39,42.21a7.62,7.62,0,0,0,0,1.32c-.12.07,0-.5-.08-.59C10.1,48.36,10.07,47.59,10.15,47.68Zm1.1,10.88a8.51,8.51,0,0,1,.23,1l.1.51c0,.17.09.35.14.53s.06,0,0-.19c.14.15.18.63.27.9,0,0-.33-.77-.16-.16-.22-.44-.24-1-.55-2C11.43,59.28,11.3,58.84,11.25,58.57Zm.86,3.29c0-.17,0-.14,0,0l.16.39c0-.1,0-.19,0-.19.14.35,0,.24.21.72-.07-.09-.24-.48-.13-.16C12.28,62.53,12.31,62.25,12.11,61.85Zm3,7.17c-.06-.08-.19-.25-.32-.47s-.29-.49-.43-.75-.28-.52-.37-.73a.79.79,0,0,1-.1-.42,4.77,4.77,0,0,1-.67-1.43c-.26-.77-.6-1.68-.92-2.44.48,1.24,1.18,2.74,2,4.26.42.75.82,1.52,1.27,2.24l.33.54.16.27.17.26.67,1c.17.26.32.46.42.6l.17.24L17.24,72l-.24-.3-.33-.47c-.33-.48-1-1.27-.17-.13a28,28,0,0,1-2.19-3.58A8.89,8.89,0,0,0,15.07,69ZM64,83.12c.11-.24.75-.33.62-.47.26-.15.35-.17.43-.17a.4.4,0,0,0,.28,0,1.48,1.48,0,0,1-.48.27A8.07,8.07,0,0,0,64,83.12Zm4.14-2.49c.09,0-.07.17-.27.29.31,0,.82-.61.84-.39a7.29,7.29,0,0,1-1,.53C67.9,80.92,67.72,80.88,68.15,80.63ZM39.58,14.08c-.13,0-.12-.12,0-.27a1,1,0,0,1,.65-.33C40.29,13.74,39.65,13.85,39.58,14.08ZM69,80.64c.45-.23-.53.67-.89.72C68,81.27,69.08,80.75,69,80.64ZM12,64.39c0-.06.47,1.09.17.55a6.19,6.19,0,0,0,.58,1,5.27,5.27,0,0,0-.34-.9c.21.31.09,0,.16,0a3.48,3.48,0,0,0,.2.54c.22.09-.29-1-.46-1.46l.5,1.17c.17.39.37.77.55,1.16l.28.58c.09.19.2.38.31.57l.62,1.14.67,1.11.34.55.36.53c.24.35.48.71.73,1.06l.77,1c.25.34.52.66.79,1s.52.65.8,1c.56.6,1.09,1.23,1.67,1.78l.84.84.85.78c.55.53,1.14,1,1.68,1.45.24.17,0-.08.08-.08a3.76,3.76,0,0,1,.33.27l.18.17a2,2,0,0,0,.33.33,4.34,4.34,0,0,1,1,.65,3,3,0,0,0,.81.49,1.64,1.64,0,0,0,.74.61c-.11.07-.85-.47-1.35-.78-.07.07.2.27,0,.28l-.37-.27-.33-.24c-.21-.15-.42-.27-.61-.39a4.14,4.14,0,0,1-1.06-.8,1.07,1.07,0,0,0-.36-.19c-.08.06.21.31.56.61s.82.58,1,.79a6.3,6.3,0,0,1-.89-.58c-.36-.27-.72-.59-1-.81a2.71,2.71,0,0,0,.63.73c.31.29.69.56.93.75l-.77-.5c-.26-.18-.5-.37-.76-.57l-.78-.61c-.26-.21-.51-.45-.78-.69l-.82-.75L20,77.37l-.44-.45-.44-.49-.93-1c.34.35.8.83,1.23,1.3s.87.86,1.12,1.09c0-.11-.13-.26-.16-.37a2.37,2.37,0,0,1-.46-.33,4.92,4.92,0,0,1-.5-.5c-.34-.38-.73-.83-1.16-1.24.27.13.14,0-.26-.53-.3-.36,0,.11.19.34a13.2,13.2,0,0,1-.86-1.08c-.14-.18-.28-.39-.45-.62s-.36-.49-.6-.79a3.15,3.15,0,0,0,.51,1,5.06,5.06,0,0,0,.49.64,3.66,3.66,0,0,0,.46.46c.18.22,0,.11.16.36a35.79,35.79,0,0,1-4.1-5.8s-.09,0-.16-.15c.23.5.2.41.18.56.14.2.25.33.3.3a8.1,8.1,0,0,0,.41.87c.17.31.39.63.61,1,.43.68,1,1.34,1.42,2-.38-.36-.1.15.05.42-.28-.22-.34-.63-.78-1.15.14.07.05-.09-.14-.38l-.79-1.16c-.15-.22-.32-.45-.46-.67l-.38-.63a2.1,2.1,0,0,1-.34-.74c-.24-.32-.42-.62-.63-.91s-.41-.59-.63-.94.4.48,0-.42c-.24-.1-.23-.63-.63-1.45.19.11.31.62.5.87a4.42,4.42,0,0,0-.25-.73c-.12-.28-.24-.61-.38-.91l-.66-1.45a17.1,17.1,0,0,0-.66-2.26c.13.32.25.67.37,1s.26.71.39,1.09l.2.57.23.57c.16.38.33.77.51,1.17-.22-.59-.2-.88.25.13-.11-.57-.77-2-1.15-3.11.06,0,.35.75.07,0a2.14,2.14,0,0,1,.23.57,5.2,5.2,0,0,0,.34.89C11.94,64.38,12.22,64.75,12,64.39Zm3.64,7.73.2.3.19.24c.12.14.21.23.25.22a2.07,2.07,0,0,0-.34-.48A1.58,1.58,0,0,0,15.68,72.12Zm4.85,5c-.59-.58-1.23-1.35-1.9-2.1-.31-.39-.63-.78-.94-1.14-.16-.18-.3-.36-.43-.54l-.4-.49A21,21,0,0,0,20.53,77.08Zm2.07,2c.1-.05-.28-.39-.65-.72C21.81,78.44,22.37,78.88,22.6,79.13ZM13.49,68a13.19,13.19,0,0,1-.86-1.76A5.17,5.17,0,0,0,13.49,68Zm8.06,10.76c0-.06.16,0,0-.23,0,.06-.18-.13-.39-.34s-.42-.44-.51-.44a3.91,3.91,0,0,0,.33.44C21.1,78.34,21.3,78.53,21.55,78.75ZM9.92,40.66c0,.14,0,.33.08,0,0,.36-.17.35-.17.76.08-.15.19-.65.29-.92,0,.24-.13.66-.24,1.14s-.19,1-.26,1.54A4.41,4.41,0,0,1,9.75,42c0-.21,0-.15,0-.41a3.34,3.34,0,0,0-.18.75c0-.14,0-.33-.08,0a2.84,2.84,0,0,1,.14-.59A7.49,7.49,0,0,0,9.92,40.66ZM9.23,50.79c0,.4,0,.88.07,1.39l.05.79.09.81c.1,1.07.28,2.06.32,2.6,0,.08.31,1.36,0,.19a18,18,0,0,1-.26-1.92c0-.33-.16-.75-.19-1s0-.38,0-.77-.07-.94-.1-1.29c0-.17,0-.33,0-.47A1.72,1.72,0,0,1,9.23,50.79ZM10,58.09a1.32,1.32,0,0,1,.06-.58,3.71,3.71,0,0,1,.15.61l.06.38.07.34a1.53,1.53,0,0,1-.13-.29c0-.13-.08-.29-.12-.46a2.5,2.5,0,0,0,.12.76.72.72,0,0,1-.18-.32c-.06-.17-.12-.39-.18-.62a5.39,5.39,0,0,0,.12.71,2.83,2.83,0,0,1,.12.63c-.09,0-.25-.84-.17-.76-.09,0,0,.16-.22-.57-.08-.39.13-.05,0-.58C9.84,57.45,10,58.3,10,58.09ZM11.35,62c.07-.12.21.9.31.91.19.65-.22-.34-.34-.71C11.38,62.2,11.42,62.21,11.35,62Zm1.5-29.85a1.76,1.76,0,0,1,.16-.37,3.13,3.13,0,0,0-.29.51c0-.12.07-.24,0,0,.15-.52.35-.55.57-1A9.79,9.79,0,0,1,12.85,32.14ZM9.34,43.73c-.08.86-.18.84-.27,1.53A5.53,5.53,0,0,1,9.34,43.73Zm-.47,3.48c0-.43.1-.4.17-.36A13.6,13.6,0,0,0,9,48.21c-.07-.92-.16.62-.17-.23A1.2,1.2,0,0,0,8.87,47.21Zm-.09,2.74c.05,0,.09.35.09,0,0,0,0,.08,0,.2v.4c-.08-.26-.09.08-.13-.21a4.83,4.83,0,0,0,0,.91c0,.34,0,.68,0,.85A6,6,0,0,1,8.72,51C8.74,50.56,8.76,50.16,8.78,49.94Zm.29,3.72s0-.08-.06-.2-.17-.18-.08.58a3.8,3.8,0,0,1-.2-1.18c.06.08,0-.15,0-.39.05.22.1.56.18.4C9,53.24,9,53.3,9.07,53.67ZM11.24,63a2,2,0,0,1-.34-.92c0-.16-.07-.17-.09-.18,0-.26,0-.06.14.24S11.2,62.83,11.24,63ZM9,56.39a1.7,1.7,0,0,1,.09.47l.18,1a6.91,6.91,0,0,0,.45,1.78c.11.43-.12.1-.14.21a3.07,3.07,0,0,0-.29-1c-.07-.45,0-.3.11-.2-.22-.82-.13-.41-.36-1.36,0,.26.14.87.16,1.17,0-.1-.1-.2-.14-.19,0-.37-.14-.84-.2-1.25a2.78,2.78,0,0,1,0-.91c-.21-.76-.11-1.13-.23-1.18a7.78,7.78,0,0,0-.11-1.38c.14.13.1-.33.09-.84a3.07,3.07,0,0,1,0-1.11c0,.2,0,.47,0,.78s0,.66,0,1c.07.69.12,1.37.18,1.75a1.89,1.89,0,0,0,0,.89c0,.21.07.44.11.66s.1.43.14.6c0,0,0-.19,0-.4A4,4,0,0,1,9,56.39Zm-.67-4.73a7.63,7.63,0,0,1,.09,1.78,3.12,3.12,0,0,1,0-.37q0-.2,0-.42A8.8,8.8,0,0,0,8.37,51.66ZM9.69,38.41a5.33,5.33,0,0,1-.19,1l-.42,1.91c0-.18,0-.22-.08-.12a1.9,1.9,0,0,0-.19.65C8.73,41.56,9,41,9,40.68a3.21,3.21,0,0,0,.28-.87C9.36,39.35,9.54,38.82,9.69,38.41Zm7.38,35.85c.14,0,.67.94.92,1s-.05.12.17.36A16.52,16.52,0,0,1,17.07,74.26Zm-3.7-5c.08.21,0,.08-.07.24a6.16,6.16,0,0,1-.45-1.1C13,68.49,13.23,69.27,13.37,69.29ZM11.52,32.36A9.89,9.89,0,0,1,11,33.54c-.2.4-.35.76-.39.84a3.2,3.2,0,0,1,.35-.88C11.16,33.12,11.38,32.7,11.52,32.36Zm-4,10.11c.08-.27.11-.94.27-1.42,0,.1,0,.46,0,.46-.08.47-.15.58-.25,1.2-.13.19-.06,0-.16-.06C7.48,42.42,7.57,42.15,7.52,42.46ZM7,47.79c.07-.6,0,.8-.06.82,0,.29.05,0,.07-.19.08.41-.08.88,0,1.43a3,3,0,0,1,0-.62c0,.1,0,.21-.09.19A15.44,15.44,0,0,1,7,47.79Zm-.07,2.26c0,2.34.22,4.44.33,6.35-.06-.11-.13-.3-.19-.41a6.48,6.48,0,0,0,0-1.27,8.77,8.77,0,0,1,0-1.39c0-.32,0,.18-.08-.21a8.28,8.28,0,0,1,0,1.23,8.32,8.32,0,0,1-.18-1.26,4.35,4.35,0,0,0-.14-1c0-.67.23.26.16-.8.12.46,0,1.06-.06,1a4.79,4.79,0,0,1,.06.53c0,.22,0,.47.06.72l0-.72c0-.23,0-.45,0-.7s0-.53,0-.86ZM34,9.2a8,8,0,0,1,1.76-.92A9.68,9.68,0,0,1,34,9.2ZM6.85,47.35c0-.2,0-.17,0-.22,0-.55.1-.67.17-.59a12.8,12.8,0,0,0-.13,1.54,3.2,3.2,0,0,1-.17.9,1.41,1.41,0,0,1,.12-.81C6.75,47.66,6.7,47.47,6.85,47.35Zm.48,10.08c.05-.26,0,.57.07.82-.12-.13-.06-.44-.17-.82C7.28,57.39,7.39,57.77,7.33,57.43Zm.25,1.22a3.45,3.45,0,0,1,.07.5l.07.59c0,.23.07.49.14.81,0,.16.08.33.13.52s.13.39.21.61c-.07,0,0,.25-.07.22,0-.22-.1-.55-.16-.84a1.17,1.17,0,0,0-.2-.58l-.11-.8a5,5,0,0,0-.19-.83C7.4,58.49,7.63,59,7.58,58.65Zm0,1c0,.25.06.42,0,.42-.1-.36-.08-.42,0-.21a8.34,8.34,0,0,1-.32-2A10.43,10.43,0,0,0,7.59,59.67Zm-1.25-12c.06-.22-.08.87.06.64A26.1,26.1,0,0,0,6.27,51a9.52,9.52,0,0,1-.05-1.54C6.24,48.77,6.31,48,6.34,47.65ZM42.28,5.88A12.8,12.8,0,0,1,44,5.35c0,.07.27,0,.45,0C43.63,5.49,43.37,5.67,42.28,5.88ZM6.23,52.65a.29.29,0,0,1,0,.21c0,.35,0,.39.09.42a9.51,9.51,0,0,0,.13,1.25c-.12,0-.14-.54-.17-1-.14-.13.08,1.14-.1.82a2.21,2.21,0,0,0,0-.64,4.73,4.73,0,0,1-.11-1c.06-.08.09.15.14.22S6.23,52.78,6.23,52.65Zm-.08-1.89a2,2,0,0,0-.07.26,4,4,0,0,0,0,1,.29.29,0,0,1,0-.21l0-.53v-.44a4,4,0,0,1,0-.71A3,3,0,0,0,6.14,50.76Zm.06-4.2c0,.68-.14,1.16-.14,2.09l-.15,0C5.92,48,6,48,6,47.36c0,.22.07.24.11.1A5.75,5.75,0,0,0,6.21,46.56ZM12.45,73a3.76,3.76,0,0,1,.53.68c-.1,0,.19.44.22.6A11.72,11.72,0,0,1,12.45,73Zm1,1.64c.09.08.18.15.22.12.09.16.19.33.25.34,0,.19-.16.22-.13.31C13.55,75.28,13.9,75.3,13.43,74.64ZM5.77,53.86c-.06,0-.1-.58-.17-.43.11.78.25,1,.35,1.92-.11-.5-.14-.46-.13-.15s.1.87.19,1.41L5.82,56a12.64,12.64,0,0,0,.23,1.69c0,.4,0,.13-.06-.18s-.11-.67-.14-.45a5.73,5.73,0,0,1-.06-1.48c-.1-.66-.14-1.17-.18-1.66s0-1,0-1.52c0,0,0,.22.07.22l0,.42a1.75,1.75,0,0,1-.05-.43A5,5,0,0,0,5.77,53.86Zm8.81,22.57c.09,0,.41.38.73.8-.36-.2,0,.22-.08.3A11.07,11.07,0,0,1,14.58,76.43Zm-5.42-9c.1.22,0,.12,0,0,.06.31.24.47.42,1-.07-.06-.21-.33-.28-.36-.3-.59-.09-.4-.38-1C9,67.15,9.09,67.42,9.16,67.46Zm3.14,6.08A2.69,2.69,0,0,0,12,73c.25.13.41.62.85,1.24,0,.12-.47-.66-.57-.67C12.14,73.35,12.24,73.44,12.3,73.54Zm7.34,9.3c-.31-.25-.67-.58-1-.93l-.54-.52c-.17-.17-.33-.35-.49-.52.45.54,1,1,1.49,1.54s1,1,1.53,1.39c.25.21.48.42.72.6l.67.5c.42.3.77.55,1,.71.61.38.17.27.44.49.51.23.77.57,1.46,1,.24.14.24.06.05-.06l1.48.89c.24.15.49.29.74.42l.74.4.74.4.76.37c.51.24,1,.51,1.54.74-.37.12-.21.26.82.78a33.06,33.06,0,0,1-3.38-1.75l-1.65-1-1.45-1c-.24.11,1,.58.82.73a44.4,44.4,0,0,1-7.53-5.74c-.13,0,.26.37.56.67a4.47,4.47,0,0,1-.68-.58,4.39,4.39,0,0,0,.62.63c-.08,0-.7-.63-1-.88.22.15.29.09.34,0-.25-.24-.51-.47-.73-.71l-.65-.71-.6-.67c-.19-.22-.36-.44-.52-.65q-.49-.63-.87-1.17c-.24-.37-.43-.71-.59-1a21.3,21.3,0,0,0,2.19,2.67L18,81.28C18.52,81.75,19.06,82.26,19.64,82.84ZM7.23,62.66s.13.4.27.84.28.86.2.81c-.07-.28-.17-.54-.27-.81A4.61,4.61,0,0,1,7.23,62.66ZM19.85,82.37c.16.05.22.25,0,0a3.35,3.35,0,0,0,.74.78c-.45-.17,0,.28.6.78s1.29,1,1.2,1.09c-.29-.26-.6-.52-.94-.79l-1-.87a24.3,24.3,0,0,1-2.11-2c.28.09.53.5.76.5.22.23,0,0-.06,0,.14.06.62.57.7.54-.14-.22-.81-.79-1.06-1.08a11,11,0,0,1,1.14,1C19.61,82.24,19.75,82.35,19.85,82.37ZM9.55,69.56c.19.58.32.51.57.94l-.4-.76c-.14-.26-.27-.53-.39-.81-.25-.55-.5-1.11-.73-1.65L7.51,64.56c-.24-.7,0-.55-.26-1.26a7.72,7.72,0,0,1,.57,1.85c.18.39.47,1,.73,1.7l.21.51.22.49c.15.32.29.62.42.87s0,0,.13,0c.05.19.11.38.18.58s.16.4.24.62a13,13,0,0,0,.66,1.36c-.27-.4-.83-1.09-.47-.28C10.11,70.93,9.21,69.36,9.55,69.56ZM74,11.22a2,2,0,0,1,.85.35c.35.22.76.51,1.18.84-.25,0-.59-.21-1-.49l-.55-.42A2.21,2.21,0,0,0,74,11.22ZM12.39,74.45a1.68,1.68,0,0,0,.21.4l.61.92c.47.74,1.15,1.6,1.63,2.26a9.73,9.73,0,0,1-1.19-1.56c-.2-.27-.51-.54-.06,0-.4-.41-.42-.84-1.21-1.81C12.13,74.22,12.69,75,12.39,74.45ZM6.75,62.52c-.06-.27.08.19.22.7l.19.71c0,.19.06.31,0,.26C7,63.71,6.85,63,6.75,62.52ZM84.89,20.75a3.43,3.43,0,0,1,.68,1c-.08.08-.28-.17-.35-.06-.24-.32-.26-.55-.41-.57C84.4,20.55,85.35,21.42,84.89,20.75ZM5.36,57.89c.08.3.18.69.26,1.07L5.82,60l-.11-.4L5.57,59C5.48,58.59,5.39,58.14,5.36,57.89ZM36.72,92.57c-.76-.24-1.06-.24-1.74-.45.06-.17-.46-.21-.79-.41.63.16,1.32.34,2,.57s1.38.46,2,.67c-.14,0-1.24-.22-.49,0C37.55,93,36.59,92.66,36.72,92.57Zm-31.05-52a1.72,1.72,0,0,0,.13-.41,8.22,8.22,0,0,1-.16.81,2.62,2.62,0,0,0-.09.7c-.16.63-.07-.19-.09-.27a3.33,3.33,0,0,1,.13-.58c0-.14.08-.23.05-.27C5.71,40.36,5.7,40.49,5.67,40.61Zm2.56,27.1a8.58,8.58,0,0,1,1,2.2c-.12-.3-.24-.6-.39-.94S8.48,68.22,8.23,67.71Zm1.46,3c.06-.06.36.69.55,1-.12,0-.51-.91-.55-.73C9.33,70.43,9.92,71,9.69,70.66ZM13.63,77a3.9,3.9,0,0,0-.37-.55,1.71,1.71,0,0,1,.27.28c.12.13.26.3.39.46.26.33.47.64.39.67-.22-.24-.67-.91-.72-.84C13.45,76.8,13.56,76.88,13.63,77ZM4.91,55.31c-.06-.32-.11-.71-.16-1.16l-.08-.7c0-.24,0-.5,0-.76C4.7,53.39,4.82,54.38,4.91,55.31ZM77.84,84c.08-.12.16-.25-.06-.08.76-.65,1.71-1.37,2.77-2.36l-.9,1.07C79.44,82.42,78.4,83.71,77.84,84ZM22.75,85.91a8.5,8.5,0,0,1,.57.68l-.55-.38c.15,0,0-.12-.09-.23S22.49,85.77,22.75,85.91Zm5.64,3.52c-.12,0-.87-.43-1-.43.18,0-.22-.24-.71-.49a4.74,4.74,0,0,1-1.12-.76c.2.14.42.28.65.42s.48.28.73.41A17,17,0,0,1,28.39,89.43ZM15,79l.73.83c-.09,0-.32-.24-.65-.63-.05,0,0,.08.11.19C15,79.35,14.79,78.88,15,79ZM4.56,54.86c.3,1.14-.16.29.12,2-.12,0-.23-.82-.35-.88-.06-.38.13-.39,0-.65-.07-.78.15.47.07-.21a2.94,2.94,0,0,1,.07.66C4.55,55.6,4.62,55.54,4.56,54.86ZM94.8,45.49a14.39,14.39,0,0,1,.26,2.12c-.23-.89,0,0-.06.94a2.64,2.64,0,0,1-.12-.8c0-.4-.07-.89-.09-1.32s0-.83,0-1,.05-.21.13.1ZM15.76,80c.05.05,0,.07,0,.13s.05.19.39.42c.32.39-.53-.4-.49-.2-.3-.35.1-.13-.32-.59-.14-.16-.15-.1-.21-.13-.29-.4-.57-.71-.84-1.06s-.56-.73-.91-1.23A1.75,1.75,0,0,1,13,76.9a3.15,3.15,0,0,1,.38.47c.58.71.89,1.15,1.18,1.5s.54.63.95,1.07c0,0-.15-.22-.26-.36C15.34,79.59,15.71,80.08,15.76,80Zm5.88,5.75c.05,0,.1-.06-.1-.22.49.34,1.07.76,1.66,1.15s1.16.81,1.66,1.14c.07.08-.21-.08-.42-.2s-.34-.22,0,0C23.93,87.32,22.31,86.13,21.64,85.79ZM6.81,66.25c.05,0,.11,0,0-.23.25.36.19.72.31,1.06C7.3,67.66,7,66.72,6.81,66.25Zm-2.4-22c0-.13.06-.38.1-.69s.08-.7.16-1.12c.15-.83.3-1.79.5-2.54,0,.24-.13.59-.19,1l-.22,1.31-.12.65-.09.59C4.5,43.83,4.45,44.12,4.41,44.28ZM20.28,77.77c0,.08-.18-.09-.23-.07a4.17,4.17,0,0,0,.36.46c.41.36-.32-.41,0-.25a3.34,3.34,0,0,1,.4.47c.09.1.14.14.2.05a2.19,2.19,0,0,1,.62.75c.11,0,.23.15.5.34a1.59,1.59,0,0,1,.2.27c0,.06,0,.05-.29-.19-.12,0,.66.61.49.36.2.21.45.43.35.48a25.11,25.11,0,0,1-4.43-4.27s.19.16.3.27-.1-.22,0-.23a5.31,5.31,0,0,0,.74.8A5.53,5.53,0,0,1,20.28,77.77ZM50.45,93.66c.33,0,.47.09.43.2-.54,0-.48-.06-1.11,0,.13.1.42.26,0,.35s-.65-.08-1.34,0c.24-.12.49-.23.49-.39l.87,0A4.62,4.62,0,0,0,50.45,93.66Z"/>
    </g>
    <text class="cls-3" transform="translate(92.52 86.81)"><tspan class="cls-4">Г</tspan><tspan class="cls-5" x="9.37" y="0">Л</tspan><tspan x="21.31" y="0">УБ</tspan><tspan class="cls-6" x="46.09" y="0">О</tspan><tspan class="cls-7" x="62.39" y="0">К</tspan><tspan class="cls-8" x="76.8" y="0">А</tspan><tspan class="cls-9" x="90.02" y="0">Я</tspan><tspan class="cls-10" x="-29.29" y="21.74">М</tspan><tspan class="cls-11" x="-10.45" y="21.74">Е</tspan><tspan class="cls-12" x="1.25" y="21.74">Д</tspan><tspan class="cls-13" x="14.82" y="21.74">И</tspan><tspan class="cls-14" x="31.65" y="21.74">Т</tspan><tspan class="cls-15" x="43.26" y="21.74">А</tspan><tspan x="55.78" y="21.74">ЦИЯ</tspan></text>
  </g>
</svg>
