<svg id="Layer_1" data-name="Layer 1" xmlns="http://www.w3.org/2000/svg" width="40" height="40" viewBox="0 0 40 40">
  <defs>
    <style>
      .cls-1 {
        fill: #f99400;
      }

      .cls-2 {
        fill: #fff;
      }
    </style>
  </defs>
  <title>odnoklassniki</title>
  <circle class="cls-1" cx="20" cy="20" r="20"/>
  <g>
    <path class="cls-2" d="M16.48,26.88a15.26,15.26,0,0,1-3.56-1.29c-.4-.21-.8-.43-1.18-.67a2.4,2.4,0,0,1,2.5-4.1,10.68,10.68,0,0,0,3.65,1.42,10.29,10.29,0,0,0,7.25-1.29,2.84,2.84,0,0,1,1.47-.48,2.41,2.41,0,0,1,2.31,1.7,2.38,2.38,0,0,1-1,2.71,15,15,0,0,1-4.56,1.95l-.24.06.17.18,4.33,4.33a2.41,2.41,0,1,1-3.36,3.44L20,30.54l-.21-.23a1,1,0,0,1-.13.22l-4.32,4.32a2.4,2.4,0,0,1-3.51-3.28c.11-.13.24-.25.36-.37l4.13-4.14Z"/>
    <path class="cls-2" d="M19.81,3.76A8.21,8.21,0,1,1,11.6,12,8.23,8.23,0,0,1,19.81,3.76ZM23.21,12a3.4,3.4,0,1,0-3.46,3.39A3.39,3.39,0,0,0,23.21,12Z"/>
  </g>
</svg>
