<svg id="Capa_1" data-name="Capa 1" xmlns="http://www.w3.org/2000/svg" width="32" height="32" viewBox="0 0 32 32">
  <title>clipboard</title>
  <g>
    <path d="M22.19,4.42H19.35V3.15c0-.41-.45-.6-.86-.6h-2.2A3.34,3.34,0,0,0,13,.31,3.4,3.4,0,0,0,9.64,2.55H7.47c-.41,0-.82.19-.82.6V4.42H3.81a3.18,3.18,0,0,0-3.14,3v21.4a3,3,0,0,0,3.14,2.84H22.19a3,3,0,0,0,3.14-2.84V7.45A3.18,3.18,0,0,0,22.19,4.42ZM8.14,4H10.2a.82.82,0,0,0,.71-.67A2.17,2.17,0,0,1,13,1.69a2.13,2.13,0,0,1,2,1.68.82.82,0,0,0,.75.67h2.13V7H8.14Zm15.69,24.8a1.52,1.52,0,0,1-1.64,1.34H3.81a1.52,1.52,0,0,1-1.64-1.34V7.45A1.68,1.68,0,0,1,3.81,5.92H6.65V7.82a.78.78,0,0,0,.82.71h11a.82.82,0,0,0,.86-.71V5.92h2.84a1.68,1.68,0,0,1,1.64,1.53v21.4Z"/>
    <path d="M10.12,17a.75.75,0,0,0-1,0L6.69,19.25l-1-1a.75.75,0,0,0-1,0,.78.78,0,0,0,0,1.08l1.53,1.57a.67.67,0,0,0,.52.22.75.75,0,0,0,.52-.22l2.91-2.76a.71.71,0,0,0,0-1Z"/>
    <path d="M20.84,18.62H12.25a.75.75,0,1,0,0,1.49h8.59a.75.75,0,1,0,0-1.49Z"/>
    <path d="M10.12,11a.75.75,0,0,0-1,0L6.69,13.27l-1-1a.75.75,0,0,0-1,0,.78.78,0,0,0,0,1.08l1.53,1.57a.67.67,0,0,0,.52.22.75.75,0,0,0,.52-.22l2.91-2.76a.71.71,0,0,0,0-1Z"/>
    <path d="M20.84,12.64H12.25a.75.75,0,1,0,0,1.49h8.59a.75.75,0,1,0,0-1.49Z"/>
    <path d="M10.12,23a.75.75,0,0,0-1,0L6.69,25.23l-1-1a.75.75,0,0,0-1,0,.78.78,0,0,0,0,1.08L6.16,26.8a.67.67,0,0,0,.52.22.75.75,0,0,0,.52-.22L10.12,24a.71.71,0,0,0,0-1Z"/>
    <path d="M20.84,24.59H12.25a.75.75,0,1,0,0,1.49h8.59a.75.75,0,1,0,0-1.49Z"/>
  </g>
</svg>
