<svg id="Capa_1" data-name="Capa 1" xmlns="http://www.w3.org/2000/svg" width="96" height="96" viewBox="0 0 96 96">
  <defs>
    <style>
      .cls-1 {
        fill: #0a5a77;
      }

      .cls-2 {
        fill: #fff;
      }
    </style>
  </defs>
  <title>order</title>
  <g>
    <circle class="cls-1" cx="48" cy="48" r="47.4"/>
    <path class="cls-2" d="M78.09,40.5H74.64A3.4,3.4,0,0,0,71.4,38H67.72V29a1,1,0,0,0-.46-.84l-26-15a1,1,0,0,0-1,0l-26,15a1,1,0,0,0-.48.84V59a1,1,0,0,0,.48.84l26,15a1,1,0,0,0,.48.13,1,1,0,0,0,.5-.13L55,67v5.7a4.1,4.1,0,0,0,4.09,4.11h19a4.13,4.13,0,0,0,4.16-4.09v-28A4.18,4.18,0,0,0,78.09,40.5Zm-6.65-.55a1.41,1.41,0,0,1,1.41,1.41h0v.09a1.41,1.41,0,0,1-1.41,1.41H65.8a1.41,1.41,0,0,1-1.41-1.41h0v-.09a1.41,1.41,0,0,1,1.41-1.41h5.63ZM40.82,15.13l10.79,6.23-24,13.88L16.78,29ZM39.9,72.32,15.81,58.44V30.69L39.9,44.56Zm.92-29.43-11.3-6.53,24-13.88L64.85,29ZM55,44.68v20l-13.15,7.6V44.56L65.78,30.69V38h0a3.4,3.4,0,0,0-3.24,2.49H59.12A4.16,4.16,0,0,0,55,44.68Zm25.33,28a2.19,2.19,0,0,1-2.2,2.18h-19a2.16,2.16,0,0,1-2.2-2.13s0,0,0,0v-28a2.22,2.22,0,0,1,2.2-2.24h3.49a3.31,3.31,0,0,0,3.2,2.35H71.4a3.31,3.31,0,0,0,3.2-2.35h3.49a2.24,2.24,0,0,1,2.23,2.24Z"/>
    <path class="cls-2" d="M60.24,54.48h1a1,1,0,0,0,0-1.94h0V49.91h2.67a.93.93,0,0,0,.92.65,1,1,0,0,0,1-1v-.65a1,1,0,0,0-1-1H60.24a1,1,0,0,0-1,1h0v4.56a1,1,0,0,0,1,1Z"/>
    <path class="cls-2" d="M60.24,63.34h4.57a1,1,0,0,0,1-1V57.8a1,1,0,0,0-1-1H60.24a1,1,0,0,0-1,1v4.57A1,1,0,0,0,60.24,63.34Zm1-4.57h2.63V61.4H61.21Z"/>
    <path class="cls-2" d="M61.25,70.26h0V67.63h2.62a1,1,0,0,0,1.95,0V66.7a1,1,0,0,0-1-1H60.24a1,1,0,0,0-1,1v4.56a.93.93,0,0,0,.93.94h1a1,1,0,1,0,0-1.94Z"/>
    <path class="cls-2" d="M67,49.16,64.19,52l-.86-.86A1,1,0,0,0,62,52.51l1.55,1.55a1,1,0,0,0,1.37,0h0l3.52-3.52A1,1,0,1,0,67,49.16Z"/>
    <path class="cls-2" d="M67,67.05l-2.84,2.84L63.33,69A1,1,0,0,0,62,70.4l1.55,1.55a1,1,0,0,0,1.37,0h0l3.52-3.52A1,1,0,0,0,67,67.05Z"/>
    <path class="cls-2" d="M77,50.33H70.88a1,1,0,0,0,0,1.94H77a1,1,0,1,0,0-1.94Z"/>
    <path class="cls-2" d="M77,59.19H70.88a1,1,0,0,0,0,1.94H77a1,1,0,1,0,0-1.94Z"/>
    <path class="cls-2" d="M77,68H70.88a1,1,0,0,0,0,1.94H77A1,1,0,1,0,77,68Z"/>
  </g>
</svg>
