<svg id="Outline" xmlns="http://www.w3.org/2000/svg" width="512" height="512" viewBox="0 0 512 512">
  <title>price</title>
  <path d="M96,136a24,24,0,1,0-24,24A24,24,0,0,0,96,136Zm-32,0a8,8,0,1,1,8,8A8,8,0,0,1,64,136Z"/>
  <path d="M192,56a80,80,0,1,0,80,80A80,80,0,0,0,192,56Zm0,144a64,64,0,1,1,64-64A64,64,0,0,1,192,200Z"/>
  <path d="M232,232H72a8,8,0,0,0,0,16H232a8,8,0,0,0,0-16Z"/>
  <path d="M232,264H72a8,8,0,0,0,0,16H232a8,8,0,0,0,0-16Z"/>
  <path d="M232,296H72a8,8,0,0,0,0,16H232a8,8,0,0,0,0-16Z"/>
  <path d="M232,328H72a8,8,0,0,0,0,16H232a8,8,0,0,0,0-16Z"/>
  <path d="M232,360H72a8,8,0,0,0,0,16H232a8,8,0,0,0,0-16Z"/>
  <path d="M312,360H280a8,8,0,0,0,0,16h32a8,8,0,0,0,0-16Z"/>
  <path d="M232,392H72a8,8,0,0,0,0,16H232a8,8,0,0,0,0-16Z"/>
  <path d="M312,392H280a8,8,0,0,0,0,16h32a8,8,0,0,0,0-16Z"/>
  <path d="M368,160a80,80,0,1,0,80,80A80,80,0,0,0,368,160Zm-64,80a64.11,64.11,0,0,1,48-62V302A64.11,64.11,0,0,1,304,240Zm64,64h0V176h0a64,64,0,0,1,0,128Z"/>
  <path d="M493.66,461l-37-76.85a8,8,0,0,0-1.36-2.82l-13.2-27.43a8,8,0,0,0-10.68-3.74l0,0-7.19,3.5-6.47-13.28A112,112,0,0,0,368,128h0V24a8,8,0,0,0-8-8H24a8,8,0,0,0-8,8V448.83a8,8,0,0,0,2.44,5.76l24,23.17a8,8,0,0,0,11.11,0L72,459.95l18.44,17.81a8,8,0,0,0,11.11,0L120,459.95l18.44,17.81a8,8,0,0,0,11.11,0L168,459.95l18.44,17.81a8,8,0,0,0,11.11,0L216,459.95l18.44,17.81a8,8,0,0,0,11.11,0L264,459.95l18.44,17.81a8,8,0,0,0,11.11,0L312,459.95l18.44,17.81a8,8,0,0,0,11.11,0l24-23.17a8,8,0,0,0,2.44-5.76V352h0a111.54,111.54,0,0,0,34.87-5.56l6.92,14.2-7.19,3.5a8,8,0,0,0-3.7,10.66L450.5,481.94A24,24,0,0,0,482.59,493h0A24,24,0,0,0,493.67,461ZM352,445.43l-16,15.45-18.44-17.81a8,8,0,0,0-11.11,0L288,460.88l-18.44-17.81a8,8,0,0,0-11.11,0L240,460.88l-18.44-17.81a8,8,0,0,0-11.11,0L192,460.88l-18.44-17.81a8,8,0,0,0-11.11,0L144,460.88l-18.44-17.81a8,8,0,0,0-11.11,0L96,460.88,77.56,443.07a8,8,0,0,0-11.11,0L48,460.88,32,445.43V32H352v97.15a111.14,111.14,0,0,0-16.23,3.6,24,24,0,1,0-39.51,21.35A111.86,111.86,0,0,0,298.83,328H280a8,8,0,0,0,0,16h32a8,8,0,0,0,6.62-3.51A111.09,111.09,0,0,0,352,350.85ZM310.63,143.87a8,8,0,1,1,8.74-4.76l0,0Q314.91,141.31,310.63,143.87ZM368,336a96,96,0,1,1,96-96A96,96,0,0,1,368,336Zm48.76,39,7.22-3.52h0l7.15-3.48,6.94,14.42-14.38,7Zm62.83,99a8,8,0,0,1-14.74.93l-34.22-71.1,14.38-7,34.2,71.07a8,8,0,0,1,.37,6.11Z"/>
  <path d="M205.08,84H174.56a5.7,5.7,0,0,0-5.7,5.7v43.13h-6.51a5.7,5.7,0,0,0,0,11.4h6.51v13h-6.51a5.7,5.7,0,0,0,0,11.4h6.51V181.3a5.7,5.7,0,1,0,11.4,0V168.69h24.82a5.7,5.7,0,1,0,0-11.4H180.26v-13h24.82a30.11,30.11,0,1,0,0-60.23Zm0,48.83H180.26V95.44h24.82a18.72,18.72,0,1,1,0,37.43Z"/>
</svg>
