<?xml version="1.0" encoding="utf-8"?>
<!-- Generator: Adobe Illustrator 21.0.0, SVG Export Plug-In . SVG Version: 6.00 Build 0)  -->
<svg version="1.1" id="Слой_1" xmlns:serif="http://www.serif.com/"
	 xmlns="http://www.w3.org/2000/svg" xmlns:xlink="http://www.w3.org/1999/xlink" x="0px" y="0px" width="24px" height="24px"
	 viewBox="0 0 24 24" style="enable-background:new 0 0 24 24;" xml:space="preserve">
<style type="text/css">
	.st0{fill:none;}
	.st1{fill:url(#SVGID_1_);}
	.st2{fill:#FFFFFF;}
</style>
<rect id="Artboard10" class="st0" width="24" height="24"/>
<g>
	
		<linearGradient id="SVGID_1_" gradientUnits="userSpaceOnUse" x1="-5.107711e-02" y1="13" x2="24.0515" y2="13" gradientTransform="matrix(1 0 0 -1 0 25)">
		<stop  offset="0" style="stop-color:#FF8100"/>
		<stop  offset="0.19" style="stop-color:#FF7209"/>
		<stop  offset="0.32" style="stop-color:#F55E16"/>
		<stop  offset="0.48" style="stop-color:#D92938"/>
		<stop  offset="1" style="stop-color:#9100FF"/>
	</linearGradient>
	<circle class="st1" cx="12" cy="12" r="12"/>
	<path class="st2" d="M15.3,4.3c2.4,0,4.4,2.1,4.5,4.5c0,2.2,0,4.3,0,6.6s-2.1,4.4-4.5,4.5c-2.2,0-4.3,0-6.6,0
		c-2.4,0-4.4-2.1-4.5-4.5c0-2.2,0-4.3,0-6.6c0-2.4,2.1-4.4,4.5-4.5C10.9,4.3,13.1,4.3,15.3,4.3z M8.7,5.3C7,5.3,5.3,6.9,5.3,8.7
		c0,2.2,0,4.3,0,6.6c0,1.7,1.5,3.4,3.4,3.4c2.2,0,4.3,0,6.6,0c1.7,0,3.4-1.5,3.4-3.4c0-2.2,0-4.3,0-6.6c0-1.7-1.5-3.4-3.4-3.4
		C13.1,5.3,11,5.3,8.7,5.3z"/>
	<path class="st2" d="M12,8.1c1.7,0,3.5,1.4,3.8,3.2c0.2,1.2-0.2,2.7-1.1,3.5c-1,1-2.7,1.3-4,0.8c-1.5-0.5-2.6-2.2-2.6-3.8
		C8.2,9.8,9.9,8.1,12,8.1L12,8.1z M12,9.1c-1.2,0-2.5,1-2.8,2.3c-0.3,1.3,0.5,2.7,1.6,3.2c1.3,0.5,3-0.1,3.6-1.3
		c0.6-1.3,0-3.2-1.3-3.8C12.8,9.2,12.4,9.1,12,9.1z"/>
	<path class="st2" d="M16.9,7.8c0-0.2-0.1-0.4-0.2-0.6C16.6,7.1,16.4,7,16.1,7l0,0c-0.2,0-0.4,0.1-0.6,0.2c-0.1,0.1-0.2,0.3-0.2,0.6
		l0,0c0,0.2,0.1,0.4,0.2,0.6c0.2,0.2,0.4,0.2,0.6,0.2l0,0C16.6,8.7,16.9,8.3,16.9,7.8C16.9,7.9,16.9,7.8,16.9,7.8z"/>
</g>
</svg>
