<?xml version="1.0" encoding="utf-8"?>
<!-- Generator: Adobe Illustrator 21.0.0, SVG Export Plug-In . SVG Version: 6.00 Build 0)  -->
<svg version="1.1" id="Слой_1" xmlns="http://www.w3.org/2000/svg" xmlns:xlink="http://www.w3.org/1999/xlink" x="0px" y="0px"
	 width="24px" height="24px" viewBox="0 0 24 24" style="enable-background:new 0 0 24 24;" xml:space="preserve">
<style type="text/css">
	.st0{fill:#20A0E1;}
	.st1{fill:#CCD8E6;}
	.st2{fill:#FEFEFE;}
	.st3{fill:#ABBDD5;}
</style>
<g>
	<ellipse class="st0" cx="12.1" cy="12.1" rx="11.9" ry="12"/>
	<g>
		<path class="st1" d="M15.7,8.9C15.8,8.7,16,8.7,16,8.4c-0.4,0-0.7,0.3-0.9,0.4l-6.8,4.3l1.3,4.2c0.2-0.2,0.2-0.4,0.2-0.8
			c0-0.2,0.1-0.6,0.1-0.8V15c0.1-0.1,0.1-0.2,0.1-0.4c0-0.1,0-0.2,0-0.3c0.1-0.2,0.2-0.1,0.3-0.3C11.9,12.3,14,10.5,15.7,8.9z"/>
		<path class="st2" d="M4.9,11.9l3.4,1.2l7.1-4.5c0.2-0.1,0.4-0.2,0.6-0.2c0,0.3-0.4,0.6-0.6,0.8c-1.5,1.3-4.1,3.3-5.4,4.8l1.2,0.9
			c0.2,0,0.7,0.5,0.8,0.6c0.2,0.1,1,0.7,1.1,0.9c0.2,0,0.2,0.1,0.3,0.2l1,0.7c0.4,0.3,0.8,0.8,1.5,0.3l2.2-10.2
			c0.3-1.7-0.5-1.4-1.6-1L5.3,11.1C4.8,11.3,4.4,11.8,4.9,11.9z"/>
		<path class="st3" d="M9.6,17.3l0.1,0.1c0.2,0,0.4-0.1,0.6-0.3l1.7-1.5C12,15.5,11.5,15,11.3,15L10,14.1L9.6,17.3z"/>
	</g>
</g>
</svg>
