<?xml version="1.0" encoding="utf-8"?>
<!-- Generator: Adobe Illustrator 21.0.0, SVG Export Plug-In . SVG Version: 6.00 Build 0)  -->
<svg version="1.1" id="Layer_1" xmlns="http://www.w3.org/2000/svg" xmlns:xlink="http://www.w3.org/1999/xlink" x="0px" y="0px"
	 width="24px" height="24px" viewBox="0 0 24 24" style="enable-background:new 0 0 24 24;" xml:space="preserve">
<style type="text/css">
	.st0{fill:#FFFFFF;}
	.st1{fill:#C12025;}
</style>
<rect x="3.5" y="5" class="st0" width="17" height="13.9"/>
<g>
	<path class="st1" d="M12.2,10.6c-0.2-0.1-0.4-0.2-0.6-0.4c-0.2-0.1-0.4-0.3-0.6-0.4c-0.1-0.1-0.3-0.1-0.3-0.2c0,0.1,0,0.5,0,0.6
		c0,0.3,0,2,0,2.2c0,0.3,0,0.7,0,1c0,0.3,0,0.6,0,1c0,0,0.8-0.4,0.9-0.5c0.4-0.3,0.8-0.6,1.3-0.8c0.2-0.1,0.4-0.2,0.6-0.4
		c0.2-0.1,0.9-0.7,0.9-0.7c-0.3-0.2-0.7-0.4-1-0.6C13,11.2,12.7,10.8,12.2,10.6z"/>
	<path class="st1" d="M12,0C5.4,0,0,5.4,0,12s5.4,12,12,12s12-5.4,12-12S18.6,0,12,0z M18.6,14.6c-0.1,0.6-0.3,1.2-0.7,1.7
		c-0.4,0.5-1.2,0.4-1.8,0.4c-1.5,0.1-2.9,0-4.4,0c-0.6,0-1.2,0-1.8,0c-0.6,0-1.2,0-1.8,0c-0.4,0-0.7,0-1.1-0.1
		c-0.3,0-0.7-0.1-0.9-0.3C6.1,16.2,6,16,5.9,15.9l-0.1-0.2c-0.6-1.2-0.6-2.6-0.6-3.9c0-0.5,0.1-1,0-1.5c0-0.3,0.1-0.6,0.2-0.9
		c0-0.3,0.1-0.6,0.2-0.9c0.3-0.5,0.5-0.8,1-1C7,7.3,7.5,7.3,7.8,7.3c0.4,0,0.7,0,1.1,0c0.7,0,1.5,0,2.2,0c0.6,0,1.3,0,1.9,0
		c0.6,0,1.3,0,1.9,0c0.5,0,1,0,1.6,0.1c0.4,0,0.8,0.1,1.2,0.3c0.2,0.1,0.4,0.3,0.5,0.5c0.3,0.6,0.5,1.2,0.5,1.9c0,0.7,0,1.4,0.1,2.1
		c0,0.1,0,0.2,0,0.4C18.8,13.2,18.7,13.9,18.6,14.6z"/>
</g>
</svg>
