<?xml version="1.0" encoding="utf-8"?>
<!-- Generator: Adobe Illustrator 21.0.0, SVG Export Plug-In . SVG Version: 6.00 Build 0)  -->
<svg version="1.1" id="Capa_1" xmlns="http://www.w3.org/2000/svg" xmlns:xlink="http://www.w3.org/1999/xlink" x="0px" y="0px"
	 viewBox="0 0 483.1 483.1" style="enable-background:new 0 0 483.1 483.1;" xml:space="preserve">
<style type="text/css">
	.st0{fill:#0A5A77;}
</style>
<g>
	<g>
		<path class="st0" d="M241.5,114.5c-41.9,0-75.9,34-75.9,75.9s34,75.9,75.9,75.9s75.9-34,75.9-75.9S283.5,114.5,241.5,114.5z
			 M241.5,232.3c-22.9,0-41.9-18.7-41.9-41.9s18.7-41.9,41.9-41.9s41.9,18.7,41.9,41.9S264.5,232.3,241.5,232.3z"/>
		<path class="st0" d="M367.6,56.7C344.7,30.9,303,0,236.4,0C127.1,0,69.8,89,69.8,176.8c0,115,157.3,292.7,164.1,300.3
			c3.1,3.7,7.6,6,12.5,6h0.3c4.8,0,9.1-2.3,12.5-5.7c1.7-1.7,38.8-41.9,76.5-98.3c51.6-77.1,77.6-145.4,77.6-202.6
			C413.2,132.9,396.5,89.3,367.6,56.7z M246.9,439.5c-36.8-44.2-142.8-178.2-142.8-262.9c0-68.6,41.6-142.5,132.6-142.5
			c92.6,0,142.5,73.4,142.5,142.5C379.2,276.3,282.1,398.4,246.9,439.5z"/>
	</g>
</g>
</svg>
