<?xml version="1.0" encoding="utf-8"?>
<!-- Generator: Adobe Illustrator 21.0.0, SVG Export Plug-In . SVG Version: 6.00 Build 0)  -->
<svg version="1.1" id="Слой_1" xmlns="http://www.w3.org/2000/svg" xmlns:xlink="http://www.w3.org/1999/xlink" x="0px" y="0px"
	 viewBox="0 0 128 128" style="enable-background:new 0 0 128 128;" xml:space="preserve">
<style type="text/css">
	.st0{fill:none;}
	.st1{fill:#0A5A77;}
</style>
<g id="Rounded" transform="translate(-209.000000, -3123.000000)">
	<g>
		<polygon id="Path" class="st0" points="205,3116.4 341,3116.4 341,3252.4 205,3252.4 		"/>
		<path id="_xD83D__xDD39_-Icon-Color" class="st1" d="M281.5,3147.6c6.2,0,11.3-5.1,11.3-11.3s-5.1-11.3-11.3-11.3
			s-11.3,5.1-11.3,11.3S275.3,3147.6,281.5,3147.6z M260.5,3166.9L246,3240c-0.7,3.5,2,6.7,5.6,6.7h0.5c2.7,0,4.9-1.8,5.6-4.4
			l9.2-40.9l11.9,11.3v28.3c0,3.1,2.6,5.7,5.7,5.7s5.7-2.6,5.7-5.7v-32c0-3.1-1.2-6.1-3.5-8.2l-8.4-8l3.4-17
			c6.1,7,14.8,12.1,24.7,13.7c3.4,0.5,6.5-2.2,6.5-5.7c0-2.8-2-5.1-4.8-5.6c-8.6-1.4-15.8-6.5-19.6-13.2l-5.7-9.1
			c-3.2-5-9.5-7.1-15-4.8l-21.7,9.2c-4.2,1.8-6.9,5.9-6.9,10.5v13.4c0,3.1,2.6,5.7,5.7,5.7s5.7-2.5,5.7-5.7v-13.6L260.5,3166.9z"/>
	</g>
</g>
</svg>
