<svg id="Слой_1" data-name="Слой 1" xmlns="http://www.w3.org/2000/svg" width="18" height="18" viewBox="0 0 18 18">
  <defs>
    <style>
      .cls-1 {
        fill: #0a5a77;
      }
    </style>
  </defs>
  <title>eye_icon</title>
  <path class="cls-1" d="M8.2,9.2a.79.79,0,0,1-.8-.8.86.86,0,0,1,.8-.8.86.86,0,0,1,.8.8.86.86,0,0,1-.8.8M9,6A3.24,3.24,0,0,0,5.7,9.2a3.3,3.3,0,1,0,6.6,0A3.24,3.24,0,0,0,9,6m0,8.2A7.84,7.84,0,0,1,1.8,9.3,7.78,7.78,0,0,1,9,4.3a7.84,7.84,0,0,1,7.2,4.9,7.78,7.78,0,0,1-7.2,5M9,2.7A9.49,9.49,0,0,0,0,9.2a9.48,9.48,0,0,0,18,0A9.49,9.49,0,0,0,9,2.7"/>
</svg>
