<svg id="Capa_1" data-name="Capa 1" xmlns="http://www.w3.org/2000/svg" width="96" height="96" viewBox="0 0 96 96">
  <defs>
    <style>
      .cls-1 {
        fill: #0a5a77;
      }

      .cls-2 {
        fill: #fff;
      }
    </style>
  </defs>
  <title>services</title>
  <g>
    <circle class="cls-1" cx="48" cy="48" r="47.4"/>
    <path class="cls-2" d="M88,28.8a1.6,1.6,0,0,0-1.5-.2l-13.7,5A6.56,6.56,0,0,0,69,37.1l-.3.9a68.37,68.37,0,0,1-11.1-4.3C51,30.3,46,32,41.7,35.3c-2.2,0-5.2.3-8.2.6-1.9.2-3.7.3-5.1.4a5.42,5.42,0,0,0-.6-2.5A6.87,6.87,0,0,0,24,30.3l-13.7-5a1.6,1.6,0,0,0-1.5.2,1.51,1.51,0,0,0-.7,1.4V60.6a1.75,1.75,0,0,0,1.7,1.7h4.9A6.83,6.83,0,0,0,20,59.7c.7.5,1.5,1.1,2.3,1.7,2,1.5,4.1,3.1,5.1,3.9,6.3,5.2,13.8,10.9,15.3,11.9a12.47,12.47,0,0,0,5.8,1.9,6.38,6.38,0,0,0,4-1.1,5.56,5.56,0,0,0,4.2-.1,5.87,5.87,0,0,0,3.1-3.1,6.32,6.32,0,0,0,4.2-.6,5.27,5.27,0,0,0,2.7-2.8,5.46,5.46,0,0,0,3.7-1.2,5.39,5.39,0,0,0,2.2-5l4.3-2.4a6.77,6.77,0,0,0,5.4,2.8H87a1.75,1.75,0,0,0,1.7-1.7V30.2A1.75,1.75,0,0,0,88,28.8ZM17.6,56.6a3.48,3.48,0,0,1-3.2,2.2H11.2V29.2l11.5,4.2a3.08,3.08,0,0,1,1.9,1.8,3.34,3.34,0,0,1,.1,2.6ZM68.1,67.5c-.6.4-1.4.7-1.7.3h-.1a.1.1,0,0,0-.1-.1c-1.2-1-6.6-6.5-9.9-9.9a1.46,1.46,0,0,0-2.3-.1,1.72,1.72,0,0,0-.1,2.4c.8.8,7.1,7.4,9.6,9.6a2.86,2.86,0,0,1-1.2,1.4,2.65,2.65,0,0,1-2.6.1h0l-.1-.1c-2-1.6-7.1-7-8.2-8.2a1.7,1.7,0,0,0-2.5,2.3c.1.1,5,5.4,7.8,7.9a3.35,3.35,0,0,1-1.5,1.8,2.24,2.24,0,0,1-2.3-.3c-2.4-2-7.3-7.2-8.2-8.2a1.7,1.7,0,1,0-2.5,2.3c1.1,1.2,4.5,4.8,7,7.2-.3,0-.6.1-.9.1a9.91,9.91,0,0,1-4-1.3c-1.2-.8-8.6-6.3-15-11.7-1-.8-3.2-2.5-5.2-4-1.1-.8-2.1-1.6-2.8-2.1l6.3-16.8c1.6-.1,3.8-.3,6.1-.5l3.9-.3c-1.9,2-4.8,5.5-4.4,8.8a4.76,4.76,0,0,0,2.4,3.6c2.8,1.7,7.8.3,10.3-2.7a10,10,0,0,0,3.8-1.2c2,1.9,4.6,4,7.4,6.3,4.8,4,10.3,8.5,11.8,11C69.6,66.2,68.5,67.2,68.1,67.5ZM71,62c-2.2-3-7.1-7-11.8-10.9-3.2-2.6-6.1-5.1-8-7a1.81,1.81,0,0,0-2-.3,10,10,0,0,1-4.4,1.5,1.83,1.83,0,0,0-1.3.8c-1.3,2.1-5,3.1-6.2,2.4a1.26,1.26,0,0,1-.8-1.2c-.2-1.4,1.3-3.9,3.7-6.3,6-6,10.2-7.1,15.7-4.3a65.29,65.29,0,0,0,12.6,4.8c.1.3.1.5.2.8l6.5,17.4Zm14.3.2H82.1A3.48,3.48,0,0,1,78.9,60L71.8,41.1a3.36,3.36,0,0,1,.1-2.6,4.14,4.14,0,0,1,1.9-1.8l11.5-4.2V62.2Z"/>
  </g>
</svg>
