<svg id="Capa_1" data-name="Capa 1" xmlns="http://www.w3.org/2000/svg" width="32" height="32" viewBox="0 0 32 32">
  <title>track</title>
  <g>
    <path d="M5.53,9.65a.61.61,0,1,0,.61.61A.61.61,0,0,0,5.53,9.65Z"/>
    <path d="M5.53,4.94A5.32,5.32,0,0,0,.21,10.26c0,1.45.79,3.35,2.36,5.64a31.46,31.46,0,0,0,2.27,2.93.93.93,0,0,0,1.39,0A31.43,31.43,0,0,0,8.49,15.9c1.56-2.29,2.36-4.19,2.36-5.64A5.32,5.32,0,0,0,5.53,4.94Zm0,7.79A2.47,2.47,0,1,1,8,10.26,2.47,2.47,0,0,1,5.53,12.73Z"/>
    <path d="M22.19,25.1H19.87a3,3,0,0,1-3-3A4.85,4.85,0,0,0,12,17.28H9.8c-.52.73-1,1.38-1.41,1.86H12a3,3,0,0,1,3,3A4.85,4.85,0,0,0,19.87,27H23.6C23.21,26.48,22.71,25.84,22.19,25.1Z"/>
    <path d="M26.47,17.48a.61.61,0,1,0,.61.61A.61.61,0,0,0,26.47,17.48Z"/>
    <path d="M26.47,12.77a5.32,5.32,0,0,0-5.32,5.32c0,1.45.79,3.35,2.36,5.64a31.46,31.46,0,0,0,2.27,2.93.93.93,0,0,0,1.39,0,31.42,31.42,0,0,0,2.27-2.93c1.56-2.29,2.36-4.19,2.36-5.64A5.32,5.32,0,0,0,26.47,12.77Zm0,7.79a2.47,2.47,0,1,1,2.47-2.47A2.47,2.47,0,0,1,26.47,20.56Z"/>
  </g>
</svg>
