<?xml version="1.0" encoding="UTF-8" ?>
<!DOCTYPE svg PUBLIC "-//W3C//DTD SVG 1.1//EN" "http://www.w3.org/Graphics/SVG/1.1/DTD/svg11.dtd">
<svg width="1275pt" height="1218pt" viewBox="0 0 1275 1218" version="1.1" xmlns="http://www.w3.org/2000/svg">
<g id="#ffffffff">
<path fill="#A9A9A9" opacity="1.00" d=" M 326.53 23.69 C 340.98 20.53 356.56 23.22 369.25 30.79 C 386.86 41.00 398.19 60.80 398.52 81.10 C 398.66 116.41 398.48 151.72 398.61 187.03 C 398.52 195.06 398.90 203.14 397.73 211.11 C 394.90 230.23 382.03 247.55 364.48 255.67 C 354.47 260.49 343.10 262.38 332.07 261.14 C 315.68 259.40 300.18 250.42 290.55 237.04 C 283.00 226.67 278.82 213.86 278.99 201.02 C 278.92 164.02 279.02 127.03 278.91 90.03 C 278.87 80.26 279.18 70.19 282.90 61.01 C 289.75 42.16 306.91 27.65 326.53 23.69 Z" />
<path fill="#A9A9A9" opacity="1.00" d=" M 924.43 23.67 C 950.77 17.57 980.00 32.43 990.84 57.14 C 994.76 65.52 996.41 74.83 996.48 84.04 C 996.26 123.35 996.57 162.66 996.35 201.98 C 996.33 216.13 991.01 230.17 981.81 240.91 C 964.28 261.90 931.52 267.80 907.81 254.13 C 889.01 244.11 876.76 223.23 876.83 201.98 C 876.78 166.97 876.86 131.96 876.77 96.95 C 876.79 85.06 876.12 72.70 880.58 61.42 C 887.26 42.30 904.67 27.65 924.43 23.67 Z" />
<path fill="#A9A9A9" opacity="1.00" d=" M 72.57 179.49 C 91.96 158.86 118.95 145.46 147.15 142.70 C 177.77 141.12 208.44 142.29 239.08 142.01 C 239.12 164.01 239.20 186.01 239.11 208.01 C 239.00 229.75 245.70 251.66 258.90 269.04 C 276.25 292.73 304.66 307.91 334.01 309.09 C 357.85 310.54 381.86 302.37 400.55 287.67 C 424.07 269.28 438.27 239.76 438.38 209.95 C 438.41 187.30 438.38 164.65 438.42 142.00 C 571.26 141.94 704.10 141.91 836.94 142.03 C 836.97 164.34 837.04 186.65 836.97 208.96 C 836.82 230.70 843.92 252.51 857.22 269.75 C 878.55 298.71 916.51 313.95 951.96 308.12 C 980.45 303.64 1006.82 286.33 1021.59 261.45 C 1031.32 245.47 1036.67 226.75 1036.21 208.00 C 1036.28 186.00 1036.22 163.99 1036.26 141.99 C 1064.18 142.01 1092.10 141.80 1120.01 142.07 C 1161.00 142.86 1200.21 167.23 1220.21 202.83 C 1229.43 219.49 1234.85 238.31 1235.48 257.38 C 1235.63 264.24 1235.50 271.10 1235.54 277.97 C 1235.55 533.31 1235.60 788.66 1235.51 1044.00 C 1235.37 1054.37 1236.00 1064.81 1234.50 1075.11 C 1229.76 1109.78 1208.75 1141.65 1179.17 1160.22 C 1165.15 1168.88 1149.36 1174.96 1132.95 1176.95 C 1118.71 1178.78 1104.32 1178.32 1090.00 1178.26 C 781.01 1178.26 472.02 1178.27 163.04 1178.25 C 137.86 1178.75 112.36 1171.69 91.62 1157.25 C 66.08 1139.52 47.72 1111.65 41.85 1081.09 C 39.22 1068.56 39.96 1055.71 39.84 1043.00 C 39.82 784.99 39.81 526.98 39.85 268.97 C 39.88 263.63 39.73 258.28 40.16 252.96 C 42.17 225.74 53.72 199.27 72.57 179.49 M 119.65 460.93 C 119.48 645.93 119.61 830.93 119.58 1015.93 C 119.57 1019.31 119.50 1022.73 120.15 1026.08 C 123.37 1044.19 140.51 1058.96 159.05 1058.66 C 478.71 1058.61 798.37 1058.80 1118.02 1058.54 C 1134.48 1058.11 1149.50 1045.89 1154.17 1030.26 C 1156.65 1022.38 1155.42 1014.04 1155.73 1005.93 C 1155.89 824.24 1155.79 642.55 1155.78 460.86 C 810.40 460.87 465.03 460.75 119.65 460.93 Z" />
<path fill="#A9A9A9" opacity="1.00" d=" M 438.47 660.06 C 438.26 620.22 438.42 580.38 438.43 540.54 C 491.54 540.51 544.66 540.51 597.77 540.54 C 597.91 580.38 597.90 620.22 597.78 660.06 C 544.68 660.15 491.57 660.20 438.47 660.06 Z" />
<path fill="#A9A9A9" opacity="1.00" d=" M 677.59 540.60 C 730.71 540.45 783.82 540.49 836.94 540.60 C 836.97 580.41 837.10 620.23 836.92 660.05 C 783.79 660.19 730.66 660.18 677.53 660.04 C 677.56 620.23 677.43 580.41 677.59 540.60 Z" />
<path fill="#A9A9A9" opacity="1.00" d=" M 916.75 540.61 C 969.88 540.45 1023.01 540.46 1076.14 540.62 C 1076.07 580.44 1076.23 620.26 1076.08 660.08 C 1022.96 660.20 969.85 660.15 916.74 660.08 C 916.68 620.25 916.56 580.43 916.75 540.61 Z" />
<path fill="#A9A9A9" opacity="1.00" d=" M 199.32 700.02 C 252.43 699.91 305.54 699.87 358.64 700.03 C 358.83 739.87 358.67 779.70 358.68 819.53 C 305.57 819.55 252.46 819.55 199.35 819.56 C 199.17 779.71 199.20 739.86 199.32 700.02 Z" />
<path fill="#A9A9A9" opacity="1.00" d=" M 438.47 700.02 C 491.57 699.92 544.68 699.86 597.78 700.03 C 597.92 739.85 597.86 779.67 597.79 819.49 C 544.68 819.55 491.58 819.64 438.47 819.48 C 438.30 779.66 438.39 739.84 438.47 700.02 Z" />
<path fill="#A9A9A9" opacity="1.00" d=" M 677.57 699.99 C 730.68 699.91 783.79 699.96 836.90 699.95 C 837.05 739.80 837.06 779.65 836.91 819.49 C 783.81 819.55 730.71 819.63 677.61 819.48 C 677.40 779.65 677.57 739.82 677.57 699.99 Z" />
<path fill="#A9A9A9" opacity="1.00" d=" M 916.73 700.01 C 969.85 699.88 1022.96 699.93 1076.08 700.01 C 1076.12 739.83 1076.24 779.64 1076.05 819.46 C 1022.92 819.62 969.80 819.59 916.67 819.47 C 916.71 779.65 916.57 739.83 916.73 700.01 Z" />
<path fill="#A9A9A9" opacity="1.00" d=" M 199.35 859.45 C 252.47 859.31 305.59 859.30 358.71 859.47 C 358.68 899.28 358.79 939.10 358.66 978.91 C 305.54 979.05 252.42 978.99 199.31 978.92 C 199.27 939.09 199.12 899.27 199.35 859.45 Z" />
<path fill="#A9A9A9" opacity="1.00" d=" M 438.47 859.46 C 491.57 859.33 544.67 859.31 597.78 859.45 C 597.98 899.29 597.80 939.13 597.83 978.97 C 544.71 978.98 491.59 979.01 438.48 978.97 C 438.33 939.13 438.33 899.30 438.47 859.46 Z" />
<path fill="#A9A9A9" opacity="1.00" d=" M 677.60 859.46 C 730.71 859.35 783.81 859.30 836.92 859.45 C 837.08 899.27 836.99 939.10 836.92 978.92 C 783.82 978.98 730.71 979.06 677.61 978.91 C 677.44 939.09 677.52 899.28 677.60 859.46 Z" />
<path fill="#A9A9A9" opacity="1.00" d=" M 916.70 859.41 C 969.81 859.35 1022.93 859.39 1076.04 859.38 C 1076.20 899.22 1076.18 939.07 1076.06 978.92 C 1022.96 979.01 969.86 979.04 916.75 978.90 C 916.53 939.07 916.72 899.24 916.70 859.41 Z" />
</g>
</svg>
