<svg width="14" height="14" viewBox="0 0 14 14" fill="none" xmlns="http://www.w3.org/2000/svg">
<path d="M13.2481 0.356223C13.3372 0.356223 13.4191 0.406096 13.4583 0.48803C13.4975 0.566402 13.4903 0.662585 13.4369 0.733832L8.86286 7.17454C8.65269 7.45953 8.53869 7.80508 8.53513 8.16131V12.4254C8.53513 12.5181 8.48882 12.6142 8.3962 12.6356L5.80638 13.6224C5.73513 13.6544 5.64963 13.6509 5.58551 13.6081C5.51783 13.5654 5.47864 13.4906 5.4822 13.4122V8.16131C5.4822 7.80508 5.36821 7.45953 5.15447 7.17454L0.580422 0.730269C0.526986 0.659022 0.519862 0.562839 0.559048 0.484468C0.598233 0.406096 0.680167 0.352661 0.769226 0.352661H13.2481V0.356223Z" fill="#D8D8D8"/>
<path d="M13.2484 0H0.765916C0.545051 0 0.341997 0.12112 0.242252 0.317048C0.142506 0.516539 0.160318 0.755216 0.288562 0.936896L4.86261 7.37761C4.86261 7.38117 4.86617 7.38117 4.86617 7.38473C5.0336 7.60916 5.12266 7.8799 5.12266 8.16132V13.4122C5.12266 13.569 5.18322 13.7186 5.29365 13.829C5.40408 13.9394 5.5537 14 5.70688 14C5.78525 14 5.86363 13.9858 5.93843 13.9537L8.50688 12.974C8.73843 12.9028 8.88805 12.6855 8.88805 12.4254V8.16132C8.88805 7.88346 8.97711 7.60916 9.14454 7.38473L9.1481 7.37761L13.7222 0.936896C13.854 0.755216 13.8718 0.516539 13.7685 0.317048C13.6687 0.12112 13.4692 0 13.2484 0ZM8.57457 6.96438C8.31808 7.30992 8.17915 7.73028 8.17915 8.16132V12.3399L5.83513 13.2341V8.16132C5.83513 7.73028 5.6962 7.30992 5.43971 6.96438L1.00103 0.708906H13.0132L8.57457 6.96438Z" fill="#828282"/>
</svg>
