<?xml version="1.0" encoding="utf-8"?>
<!-- Generator: Adobe Illustrator 21.0.0, SVG Export Plug-In . SVG Version: 6.00 Build 0)  -->
<svg version="1.1" id="Слой_1" xmlns="http://www.w3.org/2000/svg" xmlns:xlink="http://www.w3.org/1999/xlink" x="0px" y="0px"
	 viewBox="0 0 73 73" style="enable-background:new 0 0 73 73;" xml:space="preserve">
<style type="text/css">
	.st0{opacity:0.51;fill:#82B5D2;}
	.st1{opacity:0.85;fill-rule:evenodd;clip-rule:evenodd;fill:#FFFFFF;}
</style>
<g>
	<circle class="st0" cx="36.5" cy="36.5" r="36.5"/>
	<path class="st1" d="M61.7,42.4L40,21.4c-1.9-1.9-4.9-1.9-6.8,0L11.3,42.2c-2,1.9-2.4,4.5-0.5,6.3l0.8,0.8c1.7,1.5,3.8,1.8,5.3,0.2
		c5.4-5.1,10.8-10.3,16.2-15.4c1.9-1.8,4.9-1.8,6.8,0c5.3,5.2,10.7,10.3,16,15.5c1.5,1.6,3.6,1.3,5.3-0.2l0.8-0.8
		C64.1,46.9,63.7,44.3,61.7,42.4L61.7,42.4z"/>
</g>
</svg>
