<?xml version="1.0" encoding="utf-8"?>
<!-- Generator: Adobe Illustrator 21.0.0, SVG Export Plug-In . SVG Version: 6.00 Build 0)  -->
<svg version="1.1" id="Слой_1" xmlns="http://www.w3.org/2000/svg" xmlns:xlink="http://www.w3.org/1999/xlink" x="0px" y="0px"
	 viewBox="0 0 28 28" style="enable-background:new 0 0 28 28;" xml:space="preserve">
<style type="text/css">
	.st0{fill:#595959;}
</style>
<path class="st0" d="M8.8,11.9c0.1-2.5,0-5.1,3.2-6c-0.2,0.8-1.6,1.5-1.6,1.5c1,0.1,4.1-1.5,5.4-2.5c-0.5,1.1-3.4,2.6-3.4,2.6
	c1.7,0,6.1-2.7,6.1-2.7c0,0.8,0.4,2,0.4,2c0.8,1.8,0.3,3.7,0.2,5.6c0,0,0.9-2.9,1.1-3.7c1.9-5-0.7-8.8-6-8.8C9.9,0.1,6.5,3.8,8,8.4
	C8.1,9.1,8.8,11.9,8.8,11.9z"/>
<path class="st0" d="M13.8,9c-0.1,0-0.1,0-0.2,0h-3.5C10,9,10,9,9.9,9c0,0.1-0.1,0.1,0,0.2c0,0.4,0.1,1.9,0.7,2.4
	c0.3,0.2,1.1,0.3,1.3,0.3c0.2,0,1-0.1,1.3-0.3c0.3-0.3,0.5-1,0.7-1.6h1c0,0.6,0.2,1.3,0.5,1.6c0.5,0.2,1.1,0.3,1.3,0.3
	c0.3,0,1-0.1,1.3-0.3c0.5-0.4,0.7-1.9,0.8-2.4c0-0.1,0-0.1-0.1-0.2c0,0-0.1,0-0.2,0h-3.5c-0.1,0-0.1,0-0.2,0c0,0.1,0,0.1,0,0.2
	c0,0.1,0,0.2,0,0.2h-0.9c0,0,0-0.1,0-0.2C14,9.1,13.8,9.1,13.8,9z M12.8,11.1c-0.1,0.1-0.4,0.2-1,0.2c-0.5,0-0.9-0.1-1-0.2
	c-0.2-0.1-0.3-0.9-0.4-1.7h2.9C13.2,10.2,13.1,11,12.8,11.1z M18.2,9.5c0,0.8-0.2,1.6-0.4,1.7c-0.1,0.1-0.4,0.2-1,0.2
	c-0.4,0-0.8-0.1-1-0.2c-0.2-0.1-0.3-0.9-0.4-1.7H18.2z"/>
<path class="st0" d="M18.1,17.4l-2.7,7l-0.7-4.6c0.1,0,0.1,0,0.1-0.1c0.2-0.2,0.6-0.8,0.6-1.1c0-0.6-0.9-0.1-1.4-0.1
	c-0.5,0-1.4-0.4-1.4,0.1c0,0.3,0.3,0.9,0.6,1.1c0,0.1,0,0.1,0.1,0.1l-0.7,4.6l-2.7-7C3.4,21.2,0.1,19,0.1,28.1h13.3H14h0.1v0h0.1
	h0.6H28C28,19,24.7,21.2,18.1,17.4z"/>
</svg>
