<?xml version="1.0" encoding="utf-8"?>
<!-- Generator: Adobe Illustrator 21.0.0, SVG Export Plug-In . SVG Version: 6.00 Build 0)  -->
<svg version="1.1" id="Capa_1" xmlns="http://www.w3.org/2000/svg" xmlns:xlink="http://www.w3.org/1999/xlink" x="0px" y="0px"
	 width="32px" height="32px" viewBox="0 0 32 32" style="enable-background:new 0 0 32 32;" xml:space="preserve">
<style type="text/css">
	.st0{fill:#030104;}
</style>
<g>
	<path class="st0" d="M23.3,30.6v1.2H8.7v-1.2c0-0.7,0.5-1.2,1.2-1.2h2.5c0.1-1.5,1.1-2.8,2.4-3.3V11.8c-0.6-0.4-1.1-1.1-1.1-1.9
		h1.1h2.4h1.1c0,0.8-0.4,1.5-1.1,1.9v14.3c1.4,0.5,2.4,1.8,2.4,3.3h2.5C22.8,29.4,23.3,29.9,23.3,30.6z M31.9,19.6
		C31,22.1,28.6,24,25.8,24s-5.2-1.8-6.1-4.3h1.4l4.1-10.9c0.2-0.5,1-0.5,1.1,0l4.1,10.9C30.4,19.6,31.9,19.6,31.9,19.6z M29.1,19.6
		l-3.4-9l-3.4,9L29.1,19.6L29.1,19.6z M6.2,7.4c0.6,0,1-0.4,1.2-0.9C7.8,6.4,8.2,6.2,8.6,6c0.9-0.5,2-1,3.1-1c1.1,0,1.7,0.5,2.1,0.9
		c0,0.1,0,0.2,0,0.3c0,1.2,1,2.2,2.2,2.2s2.2-1,2.2-2.2c0-0.1,0-0.2,0-0.3c0.4-0.4,1-0.9,2.1-0.9c1.1,0,2.2,0.5,3.1,1
		c0.4,0.2,0.8,0.4,1.2,0.6c0.2,0.5,0.6,0.9,1.2,0.9c0.7,0,1.2-0.6,1.2-1.2S26.4,5,25.8,5c-0.4,0-0.7,0.2-0.9,0.4
		c-0.3-0.1-0.6-0.3-1-0.5c-1.1-0.5-2.2-1.1-3.6-1.1c-1.2,0-2.1,0.5-2.6,1c-0.3-0.3-0.6-0.5-1-0.6c0.5-0.2,0.8-0.7,0.8-1.3
		c0-0.8-1.4-2.7-1.4-2.7s-1.4,1.9-1.4,2.7c0,0.6,0.3,1,0.8,1.3c-0.4,0.1-0.7,0.3-1,0.6c-0.6-0.5-1.4-1-2.6-1c-1.4,0-2.6,0.6-3.6,1.1
		c-0.3,0.2-0.7,0.3-1,0.5C6.9,5.1,6.6,5,6.2,5C5.6,5,5,5.5,5,6.2S5.6,7.4,6.2,7.4z M6.2,24c-2.8,0-5.2-1.8-6.1-4.3h1.4L5.7,8.7
		c0.2-0.5,1-0.5,1.1,0l4.1,10.9h1.4C11.4,22.1,9.1,24,6.2,24z M9.6,19.6l-3.4-9l-3.4,9L9.6,19.6L9.6,19.6z"/>
</g>
</svg>
