<?xml version="1.0" encoding="utf-8"?>
<!-- Generator: Adobe Illustrator 21.0.0, SVG Export Plug-In . SVG Version: 6.00 Build 0)  -->
<svg version="1.1" id="Слой_1" xmlns="http://www.w3.org/2000/svg" xmlns:xlink="http://www.w3.org/1999/xlink" x="0px" y="0px"
	 viewBox="0 0 123 101" style="enable-background:new 0 0 123 101;" xml:space="preserve">
<style type="text/css">
	.st0{fill:#FFFFFF;}
	.st1{font-family:'AdverGothicPlain';}
	.st2{font-size:50.2844px;}
	.st3{font-family:'MyriadPro-BoldCond';}
	.st4{font-size:12.283px;}
	.st5{fill:#979998;}
</style>
<g>
	<path class="st0" d="M30.7,85.1l0.1,1.4c-7.4,0.9-11.6,1.6-18.7,3.1c1.1-3.5,1.9-5.7,3.3-9.6c0.2-0.4,0.1-0.9-0.2-1.2
		c-2.6-3.2-4.1-5-6.5-7.7c2.7-0.6,5.1-1.1,7.3-1.5l-0.4-2.4c-2.8,0.5-5.7,1.1-9.4,1.9C6,69.3,5.6,69.6,5.5,70
		c-0.1,0.4,0,0.9,0.3,1.2c3.1,3.5,4.6,5.3,7.4,8.6c-1.5,4.1-2.2,6.4-3.7,11c-0.1,0.4,0,0.9,0.2,1.2c0.2,0.3,0.5,0.4,0.9,0.4
		c0.1,0,0.2,0,0.2,0c8.6-1.9,12.8-2.6,21.5-3.7c0.6-0.1,1.1-0.7,1-1.4L33,84.9C32.3,85,31.5,85.1,30.7,85.1z"/>
	<path class="st0" d="M116.3,70c-0.1-0.4-0.5-0.7-0.9-0.8c-3.7-0.8-6.6-1.4-9.4-1.9l-0.4,2.4c2.2,0.4,4.6,0.9,7.3,1.5
		c-2.3,2.6-3.8,4.4-6.5,7.7c-0.3,0.3-0.4,0.8-0.2,1.2c1.4,3.9,2.1,6.1,3.3,9.6c-7-1.5-11.3-2.2-18.7-3.1l0.1-1.4
		c-0.8-0.1-1.5-0.2-2.3-0.2l-0.3,2.5c-0.1,0.7,0.4,1.3,1,1.4c8.7,1.1,12.9,1.8,21.5,3.7c0.1,0,0.2,0,0.2,0c0.3,0,0.6-0.1,0.9-0.4
		c0.3-0.3,0.4-0.8,0.2-1.2c-1.4-4.5-2.2-6.8-3.7-11c2.8-3.4,4.3-5.2,7.4-8.6C116.3,70.9,116.4,70.4,116.3,70z"/>
</g>
<g>
	<path class="st0" d="M94.8,62.3c-0.7-0.1-1.4-0.2-2.2-0.4L92,61.9l0.1-0.5c2-11.7,3.2-24.9,3.6-39.1c-5.8-0.3-10.6-6.9-11.3-15.7
		H35.2c-0.7,8.8-5.5,15.4-11.3,15.7c0.3,14.3,1.5,27.5,3.6,39.2l0.1,0.5L27,62c-0.7,0.1-1.4,0.2-2.2,0.4l-0.5,0.1l-0.1-0.5
		c-2.1-12.5-3.4-26.6-3.6-42c0-0.6,0.2-1.2,0.5-1.6c0.3-0.4,0.7-0.7,1.2-0.7c0.1,0,0.1,0,0.2,0c0.4,0.1,0.7,0.1,1,0.1
		c4.7,0,8.6-6.1,8.6-13.5C32,3,32.7,2,33.7,2h52.3c0.9,0,1.6,1,1.6,2.2c0,7.4,3.8,13.5,8.6,13.5c0.3,0,0.6,0,1-0.1
		c0.1,0,0.2,0,0.2,0c0.4,0,0.9,0.2,1.2,0.7c0.3,0.4,0.5,1,0.5,1.6c-0.3,15.3-1.5,29.5-3.6,42l-0.1,0.5L94.8,62.3z"/>
	<path class="st0" d="M85.9,2.6c0.6,0,1.1,0.7,1.1,1.7c0,7.7,4.1,14,9.1,14c0.4,0,0.7,0,1.1-0.1c0,0,0.1,0,0.1,0
		c0.3,0,0.5,0.2,0.7,0.4c0.2,0.3,0.4,0.8,0.4,1.3c-0.3,16.3-1.6,30.2-3.6,41.9c-0.7-0.1-1.4-0.2-2.2-0.4c1.9-11.2,3.2-24.3,3.6-39.8
		c-0.1,0-0.1,0-0.2,0c-5.8,0-10.6-7-11.2-15.7H34.7c-0.5,8.8-5.4,15.7-11.2,15.7c0,0-0.1,0-0.1,0c0.3,15.5,1.6,28.6,3.6,39.8
		c-0.7,0.1-1.4,0.2-2.2,0.4c-2-11.7-3.3-25.6-3.6-41.9c0-0.5,0.1-0.9,0.4-1.3c0.2-0.3,0.5-0.4,0.7-0.4c0,0,0.1,0,0.1,0
		c0.4,0.1,0.7,0.1,1.1,0.1c5,0,9.1-6.3,9.1-14c0-0.9,0.5-1.7,1.1-1.7H85.9 M85.9,1.5H33.7c-1.2,0-2.2,1.2-2.2,2.8c0,7-3.7,13-8,13
		c-0.3,0-0.6,0-0.9-0.1c-0.1,0-0.2,0-0.3,0c-0.6,0-1.2,0.3-1.6,0.9c-0.4,0.5-0.6,1.2-0.6,1.9c0.3,15.4,1.5,29.5,3.6,42.1l0.2,1.1
		l1.1-0.2c0.7-0.1,1.4-0.2,2.2-0.4l1.1-0.2L28,61.2c-2-11.5-3.2-24.5-3.5-38.6C30.2,22,34.9,15.5,35.7,7h48.2
		c0.8,8.6,5.5,15,11.2,15.7c-0.3,14.1-1.5,27-3.5,38.5l-0.2,1.1l1.1,0.2c0.7,0.1,1.4,0.2,2.2,0.4l1.1,0.2l0.2-1.1
		c2.2-12.5,3.4-26.7,3.6-42.1c0-0.7-0.2-1.4-0.6-1.9c-0.4-0.6-1-0.9-1.6-0.9c-0.1,0-0.2,0-0.3,0c-0.3,0.1-0.6,0.1-0.9,0.1
		c-4.4,0-8-5.9-8-13C88.1,2.7,87.2,1.5,85.9,1.5L85.9,1.5z"/>
</g>
<text transform="matrix(0.9101 0 0 1 28.4714 55.8869)" class="st0 st1 st2">25</text>
<text transform="matrix(1.3687 0 0 1 50.2057 90.5207)"><tspan x="0" y="0" class="st0 st3 st4">л</tspan><tspan x="4.8" y="0" class="st0 st3 st4">ет</tspan></text>
<g>
	<path class="st0" d="M59.5,99.9c-5.1,0-16.4-4.4-26.5-16.4c-3.4,0.4-6.7,0.8-10,1.3l-0.6,0.1l-3.1-22l0.6-0.1
		c14.1-2.1,27.6-3.1,41.3-3.1s27.2,1,41.3,3.1l0.6,0.1l-3.1,22l-0.6-0.1c-4.3-0.6-8.7-1.2-13.1-1.6C76.1,95.4,64.7,99.9,59.5,99.9z
		 M37.6,83c8.7,9.5,17.8,12.9,21.9,12.9c4.2,0,13.4-3.5,22.1-13.2c-6.8-0.6-13.7-0.8-20.4-0.8C53.4,81.9,45.5,82.3,37.6,83z"/>
	<path class="st0" d="M61.2,60.2c13.6,0,27.3,1,41.2,3.1c-1.2,8.4-1.8,12.5-2.9,20.9c-4.5-0.7-9-1.2-13.5-1.7
		C75.5,95.4,64,99.3,59.5,99.3c-4.5,0-15.8-3.8-26.2-16.4c-3.4,0.4-6.9,0.8-10.3,1.3c-1.2-8.4-1.8-12.5-2.9-20.9
		C33.9,61.3,47.6,60.2,61.2,60.2 M59.5,96.5c4,0,13.9-3.4,23.3-14.2c-7.2-0.6-14.4-0.9-21.6-0.9c-8.2,0-16.4,0.4-24.7,1.2
		C45.8,93.2,55.5,96.5,59.5,96.5 M61.2,59.1c-13.7,0-27.3,1-41.4,3.1l-1.1,0.2l0.2,1.1l1.5,10.4l1.5,10.4l0.2,1.2l1.2-0.2
		c3.1-0.5,6.4-0.9,9.7-1.3c10.2,12,21.5,16.4,26.7,16.4c5.3,0,16.8-4.5,27-16.7c4.3,0.4,8.6,1,12.8,1.6l1.2,0.2l0.2-1.2l2.9-20.9
		l0.2-1.1l-1.1-0.2C88.4,60.1,74.9,59.1,61.2,59.1L61.2,59.1z M38.8,83.5c7.5-0.7,15-1,22.3-1c6.3,0,12.8,0.2,19.2,0.7
		C71,93.1,62.2,95.4,59.5,95.4C56.8,95.4,48.1,93.2,38.8,83.5L38.8,83.5z"/>
</g>
<g>
	<g>
		<path class="st5" d="M27,67.5c0.2,1.8,0.3,2.6,0.5,4.4c1.7-0.2,2.5-0.3,4.2-0.4c-0.2-1.8-0.2-2.6-0.4-4.4c1-0.1,1.5-0.1,2.6-0.2
			c0.4,4.6,0.6,6.9,0.9,11.5c-1,0.1-1.5,0.1-2.5,0.2c-0.2-1.9-0.3-2.9-0.4-4.8c-1.7,0.1-2.5,0.2-4.2,0.4c0.2,1.9,0.3,2.9,0.5,4.8
			c-1,0.1-1.5,0.2-2.5,0.3c-0.5-4.6-0.8-6.9-1.3-11.4C25.5,67.6,26,67.6,27,67.5z"/>
		<path class="st5" d="M38.5,75.1c-0.2,1.2-0.4,1.8-0.6,3c-1,0.1-1.6,0.1-2.6,0.2c1-4.7,1.5-7,2.6-11.7c1.4-0.1,2-0.1,3.4-0.2
			c1.7,4.5,2.5,6.8,4.1,11.3c-1.1,0.1-1.6,0.1-2.7,0.1c-0.4-1.2-0.6-1.7-1-2.9C40.4,74.9,39.8,75,38.5,75.1z M41.2,72.9
			c-0.3-1-0.5-1.4-0.9-2.4c-0.2-0.7-0.5-1.5-0.7-2.2c0,0,0,0,0,0c-0.1,0.7-0.2,1.6-0.4,2.3c-0.2,1-0.3,1.5-0.5,2.5
			C39.8,73,40.2,73,41.2,72.9z"/>
		<path class="st5" d="M48.1,66.1c0.8-0.2,1.9-0.3,3.5-0.4c1.6,0,2.7,0.2,3.5,0.8c0.7,0.6,1.2,1.5,1.3,2.6c0,1.1-0.3,2.1-1,2.8
			c-0.8,0.9-2.1,1.3-3.6,1.3c-0.3,0-0.6,0-0.9,0c0.1,1.6,0.1,2.5,0.1,4.1c-1,0-1.5,0-2.5,0.1C48.4,72.9,48.3,70.7,48.1,66.1z
			 M50.9,71.3c0.2,0,0.5,0.1,0.9,0c1.4,0,2.2-0.8,2.1-1.9c0-1.1-0.8-1.7-2-1.6c-0.5,0-0.9,0.1-1.1,0.1
			C50.8,69.2,50.8,69.9,50.9,71.3z"/>
		<path class="st5" d="M59.7,65.7c0,1.6,0,2.4,0,4c0.3-0.1,0.8-0.1,1.3-0.1c2.3,0,4.5,1.2,4.4,3.8c0,1.1-0.4,1.9-0.9,2.5
			c-1.1,1.1-2.9,1.4-4.6,1.5c-1.2,0-2.1-0.1-2.7-0.1c-0.1-4.6-0.1-6.9-0.1-11.5C58.2,65.7,58.7,65.7,59.7,65.7z M59.8,75.3
			c0.2,0.1,0.5,0.1,0.9,0.1c1.1,0,2.2-0.7,2.2-1.9c0-1.3-1.2-1.8-2.1-1.8c-0.3,0-0.7,0-0.9,0.1C59.7,73.2,59.7,73.9,59.8,75.3z
			 M69.2,65.8c-0.1,4.6-0.2,6.9-0.3,11.5c-1,0-1.5,0-2.5,0c0.1-4.6,0.1-6.9,0.2-11.5C67.6,65.8,68.1,65.8,69.2,65.8z"/>
		<path class="st5" d="M73.4,65.9c-0.1,1.8-0.1,2.7-0.2,4.4c1.7,0.1,2.5,0.1,4.2,0.2c0.1-1.8,0.1-2.7,0.2-4.4c1,0,1.5,0.1,2.6,0.1
			c-0.3,4.6-0.4,6.9-0.6,11.5c-1-0.1-1.5-0.1-2.5-0.1c0.1-1.9,0.1-2.9,0.2-4.8c-1.7-0.1-2.5-0.1-4.2-0.2c-0.1,1.9-0.1,2.9-0.2,4.8
			c-1,0-1.5-0.1-2.5-0.1c0.1-4.6,0.2-6.9,0.3-11.5C71.8,65.9,72.3,65.9,73.4,65.9z"/>
		<path class="st5" d="M84.2,66.5c-0.1,1.9-0.2,2.9-0.3,4.8c0.1,0,0.1,0,0.2,0c1.4-1.8,2.1-2.7,3.5-4.5c1.3,0.1,1.9,0.1,3.1,0.3
			c-1.8,1.9-2.6,2.9-4.4,4.8c1.4,0.5,2,1.6,2.3,3c0.3,1.3,0.6,2.5,1,3.7c-1.1-0.1-1.6-0.1-2.7-0.2c-0.3-0.8-0.5-1.7-0.7-2.6
			c-0.3-1.3-0.7-2.4-2.1-2.4c-0.2,0-0.3,0-0.5,0c-0.1,1.9-0.2,2.9-0.3,4.8c-1-0.1-1.5-0.1-2.5-0.2c0.3-4.6,0.4-6.9,0.7-11.5
			C82.6,66.4,83.1,66.4,84.2,66.5z"/>
		<path class="st5" d="M97.1,74.3c-1.6-0.2-2.5-0.3-4.1-0.4c-0.1,1.1-0.2,1.6-0.3,2.7c1.8,0.2,2.7,0.3,4.6,0.5
			c-0.1,0.8-0.1,1.3-0.2,2.1c-2.8-0.3-4.2-0.4-7-0.7c0.4-4.6,0.6-6.9,1-11.5c2.8,0.2,4.2,0.4,7,0.7c-0.1,0.8-0.1,1.3-0.2,2.1
			c-1.8-0.2-2.6-0.3-4.4-0.5c-0.1,1-0.1,1.4-0.2,2.4c1.7,0.2,2.5,0.2,4.1,0.4C97.2,73,97.2,73.5,97.1,74.3z"/>
	</g>
</g>
</svg>
