<?xml version="1.0" encoding="utf-8"?>
<!-- Generator: Adobe Illustrator 21.0.0, SVG Export Plug-In . SVG Version: 6.00 Build 0)  -->
<svg version="1.1" id="Слой_1" xmlns="http://www.w3.org/2000/svg" xmlns:xlink="http://www.w3.org/1999/xlink" x="0px" y="0px"
	 viewBox="0 0 44.2 44.2" style="enable-background:new 0 0 44.2 44.2;" xml:space="preserve">
<style type="text/css">
	.st0{fill:none;stroke:#979998;stroke-width:1.5597;stroke-miterlimit:10;}
	.st1{fill:none;stroke:#979998;stroke-width:1.1698;stroke-miterlimit:10;}
</style>
<circle class="st0" cx="22.4" cy="22.3" r="20.7"/>
<g>
	<path class="st1" d="M10.9,28.8c0.8,0.5,1.9,0.8,3,0.8c2,0,3.1-1.2,3.1-2.9c0-2.3-1.7-3.2-3.8-3.2h-0.6v-3H13
		c1.5,0,3.5-0.7,3.5-2.6c0-1.5-0.9-2.4-2.4-2.4c-0.9,0-1.8,0.3-2.6,0.8L11,13.1c0.8-0.5,2.5-1.1,4.2-1.1c3.6,0,5.4,2.3,5.4,4.9
		c0,2-1.1,3.7-2.9,4.6v0.1c2,0.7,3.5,2.4,3.5,5.2c0,3.1-2.4,6.1-6.8,6.1c-1.7,0-3.1-0.4-4-0.9L10.9,28.8z"/>
	<path class="st1" d="M23.3,11.9c1-0.3,2.5-0.4,4.2-0.4c2.7,0,4.5,0.6,5.9,1.9c1.8,1.6,2.8,4.4,2.8,8.5c0,4.3-1.1,7.3-2.9,8.9
		c-1.4,1.4-3.5,2-6.5,2c-1.3,0-2.6-0.1-3.4-0.2V11.9z M27.4,29.4c0.2,0.1,0.5,0.1,0.7,0.1c2,0,3.7-1.9,3.7-7.8c0-4.3-1.1-7-3.6-7
		c-0.3,0-0.6,0-0.8,0.1V29.4z"/>
</g>
</svg>
