<?xml version="1.0" encoding="utf-8"?>
<!-- Generator: Adobe Illustrator 21.0.0, SVG Export Plug-In . SVG Version: 6.00 Build 0)  -->
<svg version="1.1" id="Слой_1" xmlns="http://www.w3.org/2000/svg" xmlns:xlink="http://www.w3.org/1999/xlink" x="0px" y="0px"
	 viewBox="0 0 44.2 44.2" style="enable-background:new 0 0 44.2 44.2;" xml:space="preserve">
<style type="text/css">
	.st0{fill:none;stroke:#979998;stroke-width:1.5652;stroke-miterlimit:10;}
	.st1{fill:none;stroke:#979998;stroke-width:1.1739;stroke-miterlimit:10;}
</style>
<circle class="st0" cx="22.5" cy="22.5" r="20.7"/>
<g>
	<path class="st1" d="M15.4,32.9V28h-7v-2.8l6.7-12.7h4v12.3h2V28h-2v4.9H15.4z M15.4,24.7v-4.2c0-1.1,0.1-2.3,0.2-3.4h-0.1
		c-0.5,1.1-0.9,2-1.4,3.2l-2.2,4.3v0.1H15.4z"/>
	<path class="st1" d="M22.8,12c1-0.3,2.6-0.4,4.2-0.4c2.7,0,4.5,0.6,5.9,1.9c1.8,1.6,2.8,4.4,2.8,8.6c0,4.3-1.1,7.3-3,9
		c-1.4,1.4-3.5,2-6.5,2c-1.3,0-2.6-0.1-3.4-0.2V12z M27,29.6c0.2,0.1,0.5,0.1,0.7,0.1c2,0,3.7-2,3.7-7.8c0-4.3-1.1-7-3.6-7
		c-0.3,0-0.6,0-0.8,0.1V29.6z"/>
</g>
</svg>
