<?xml version="1.0" encoding="utf-8"?>
<!-- Generator: Adobe Illustrator 21.0.0, SVG Export Plug-In . SVG Version: 6.00 Build 0)  -->
<svg version="1.1" id="Слой_1" xmlns="http://www.w3.org/2000/svg" xmlns:xlink="http://www.w3.org/1999/xlink" x="0px" y="0px"
	 viewBox="0 0 44.2 44.2" style="enable-background:new 0 0 44.2 44.2;" xml:space="preserve">
<style type="text/css">
	.st0{fill:none;stroke:#979998;stroke-width:1.585;stroke-miterlimit:10;}
	.st1{fill:#979998;}
</style>
<circle class="st0" cx="22.1" cy="22.2" r="21"/>
<path class="st1" d="M14.7,19.9l-0.6,0.5l-0.4-0.5l0,0l-1.2-1.5l0,0l-0.2-0.3l-0.1,0.1L12,18.3l0,0L12,18.4l-0.1,0l0,0l0,0l-0.2,0.1
	l0.2,0.2l0,0l0.1,0.1l0,0l1.1,1.5l0,0l0.4,0.5l-0.6,0.5l1.9,0.5L14.7,19.9z"/>
<path class="st1" d="M12.4,22.1l-0.6,0.5l-0.4-0.5l0,0l-1.2-1.5l0,0L10,20.3l-0.1,0.1l-0.1,0.1l0,0l-0.1,0.1l-0.1,0l0,0l0,0
	l-0.2,0.1L9.6,21l0,0l0.1,0.1l0,0l1.1,1.5l0,0l0.4,0.5l-0.6,0.5l1.9,0.5L12.4,22.1z"/>
<path class="st1" d="M10.1,23.9l-0.6,0.5L9.1,24l0,0l-1.2-1.5l0,0l-0.2-0.3l-0.1,0.1l-0.1,0.1l0,0l-0.1,0.1l-0.1,0l0,0l0,0l-0.2,0.1
	l0.2,0.2l0,0L7.4,23l0,0l1.1,1.5l0,0l0.4,0.5l-0.6,0.5l1.9,0.5L10.1,23.9z"/>
<path class="st1" d="M10.9,33.8c-0.4,0-4.1-1.2-1-3.9l4.2-3.4c0,0,2.3-2.1,4.5-0.9c1.2,0.6,1.7,0.7,1.7,0.7s0.8,0.5,1.8-1.2
	c0.7-1.4,3.3-5.8,3.3-5.8s0.6-1.8,2.8-0.4c1.1,0.6,3.7,2,3.3,1.8c-0.4-0.2,1.4,0.3,0.7,2.1c-0.7,1.8-4.3,7.8-4.3,7.8
	s-1.6,1.9-3.7,0.8c-2.5-0.6-5.4-2.1-5.7-2.2c-0.5-0.1-1.1-1-2.6,0.5C14.2,31.6,11.7,33.8,10.9,33.8z"/>
<path class="st1" d="M33.1,19.4L33.1,19.4c-2.2,0.7-4.6-0.5-5.3-2.7l0,0c-0.7-2.2,0.5-4.6,2.7-5.3l0,0c2.2-0.7,4.6,0.5,5.3,2.7l0,0
	C36.5,16.3,35.3,18.6,33.1,19.4z"/>
</svg>
