<?xml version="1.0" encoding="utf-8"?>
<!-- Generator: Adobe Illustrator 21.0.0, SVG Export Plug-In . SVG Version: 6.00 Build 0)  -->
<svg version="1.1" id="Слой_1" xmlns="http://www.w3.org/2000/svg" xmlns:xlink="http://www.w3.org/1999/xlink" x="0px" y="0px"
	 viewBox="0 0 44.2 44.2" style="enable-background:new 0 0 44.2 44.2;" xml:space="preserve">
<style type="text/css">
	.st0{fill:none;stroke:#979998;stroke-width:1.5748;stroke-miterlimit:10;}
	.st1{fill:#979998;}
</style>
<circle class="st0" cx="22.2" cy="22" r="20.9"/>
<path class="st1" d="M14.3,33.9l0.6-0.5l0.3,0.5l0,0l1.1,1.4l0,0l0.2,0.2l0.1-0.1l0.1-0.1l0,0l0.1,0l0.1,0l0,0l0,0l0.2-0.1l-0.2-0.2
	l0,0l-0.1-0.1l0,0l-1.1-1.4l0,0L15.4,33l0.6-0.5l-1.8-0.5L14.3,33.9z"/>
<path class="st1" d="M16.4,31.9l0.6-0.5l0.3,0.5l0,0l1.1,1.4l0,0l0.2,0.2l0.1-0.1l0.1-0.1l0,0l0.1,0l0.1,0l0,0l0,0l0.2-0.1l-0.2-0.2
	l0,0L19,32.8l0,0l-1.1-1.4l0,0L17.6,31l0.6-0.5l-1.8-0.5L16.4,31.9z"/>
<path class="st1" d="M18.6,30.1l0.6-0.5l0.3,0.5l0,0l1.1,1.4l0,0l0.2,0.2l0.1-0.1l0.1-0.1l0,0l0.1,0l0.1,0l0,0l0,0l0.2-0.1l-0.2-0.2
	l0,0l-0.1-0.1l0,0l-1.1-1.4l0,0l-0.4-0.4l0.6-0.5l-1.8-0.5L18.6,30.1z"/>
<path class="st1" d="M11.5,30.3c-0.4,0-3.8-1.1-0.9-3.7l4-3.2c0,0,2.1-1.9,4.2-0.9c1.1,0.6,1.6,0.7,1.6,0.7s0.8,0.5,1.7-1.1
	c0.7-1.3,3.1-5.4,3.1-5.4s0.5-1.7,2.6-0.4c1,0.5,3.5,1.9,3.1,1.7c-0.4-0.2,1.3,0.3,0.6,1.9c-0.6,1.7-4,7.3-4,7.3s-1.5,1.8-3.4,0.8
	c-2.3-0.6-5-1.9-5.3-2.1c-0.4-0.1-1.1-0.9-2.5,0.4C14.6,28.2,12.2,30.3,11.5,30.3z"/>
<path class="st1" d="M32.3,16.8L32.3,16.8c-2.1,0.7-4.3-0.5-5-2.5l0,0c-0.7-2.1,0.5-4.3,2.5-5l0,0c2.1-0.7,4.3,0.5,5,2.5l0,0
	C35.5,13.9,34.3,16.1,32.3,16.8z"/>
</svg>
