<?xml version="1.0" encoding="utf-8"?>
<!-- Generator: Adobe Illustrator 21.0.0, SVG Export Plug-In . SVG Version: 6.00 Build 0)  -->
<svg version="1.1" id="Слой_1" xmlns="http://www.w3.org/2000/svg" xmlns:xlink="http://www.w3.org/1999/xlink" x="0px" y="0px"
	 viewBox="0 0 44.2 44.2" style="enable-background:new 0 0 44.2 44.2;" xml:space="preserve">
<style type="text/css">
	.st0{fill:none;stroke:#979998;stroke-width:1.5539;stroke-miterlimit:10;}
	.st1{fill:#979998;}
</style>
<circle class="st0" cx="22.2" cy="22.3" r="20.6"/>
<g>
	<g>
		<path class="st1" d="M14.4,23.8V13.7l7.5,5L14.4,23.8z M15.4,15.9v5.8l4.4-2.9L15.4,15.9z"/>
	</g>
	<g>
		<polygon class="st1" points="9.2,27.3 8.7,26.2 13.9,22.8 8.7,19.3 9.2,18.2 16,22.8 		"/>
	</g>
	<g>
		<path class="st1" d="M14.4,31.8V21.7l7.5,5L14.4,31.8z M15.4,23.8v5.8l4.4-2.9L15.4,23.8z"/>
	</g>
</g>
<path class="st1" d="M35.2,17.8c-3.7-2.5-4.2-6.1-4.2-6.1v0h-1.1L30,30.4c-0.9-0.8-2.1-1.3-3.5-1.3c-2.6,0-4.7,1.7-4.7,3.9
	c0,2.2,2.1,3.9,4.7,3.9c2.6,0,4.6-1.6,4.7-3.9h0.1v0c0,0,0,0,0,0c0,0,0,0,0,0l-0.1-17.5c0.6,0.9,1.6,2.1,3.6,3.5
	c3.8,2.8,1.1,5.8,1.1,5.8C38.1,23.6,38.7,20.2,35.2,17.8z"/>
</svg>
