<?xml version="1.0" encoding="utf-8"?>
<!-- Generator: Adobe Illustrator 21.0.0, SVG Export Plug-In . SVG Version: 6.00 Build 0)  -->
<svg version="1.1" id="Слой_1" xmlns="http://www.w3.org/2000/svg" xmlns:xlink="http://www.w3.org/1999/xlink" x="0px" y="0px"
	 viewBox="0 0 44.2 44.2" style="enable-background:new 0 0 44.2 44.2;" xml:space="preserve">
<style type="text/css">
	.st0{fill:#979998;}
	.st1{fill:none;stroke:#979998;stroke-width:1.5663;stroke-miterlimit:10;}
</style>
<g>
	<path class="st0" d="M6.8,28.6c0,0-0.4,2,0,2.6c0.4,0.6,4.8,0.5,5.4,0c0.6-0.5,0.3-2.4,0.3-2.4C10.7,28.8,6.8,28.6,6.8,28.6z"/>
	<path class="st0" d="M31.9,28.8c0,0-0.3,1.8,0.3,2.4c0.6,0.5,5,0.6,5.4,0c0.4-0.6,0-2.6,0-2.6S33.6,28.8,31.9,28.8z"/>
	<path class="st0" d="M38.4,25.2c-0.3-0.5-1-0.6-1-0.6s0-3-0.3-3.8c-0.4-0.7-3.9-2.5-3.9-2.5l0.4-0.4c0,0,2.3,0.2,2.6,0
		c0.3-0.2,0.4-1.3,0-1.7c-0.4-0.4-3-0.3-3.4-0.1c-0.4,0.2-0.3,1.3-0.3,1.3c-2.3-6.6-3.1-6-3.1-6h-7.2H15c0,0-0.7-0.6-3.1,6
		c0,0,0-1.1-0.3-1.3c-0.4-0.2-2.9-0.3-3.4,0.1c-0.4,0.4-0.3,1.5,0,1.7c0.3,0.2,2.6,0,2.6,0l0.4,0.4c0,0-3.5,1.7-3.9,2.5
		C6.9,21.5,7,24.5,7,24.5s-0.8,0.2-1,0.6c-0.3,0.5,0,2.9,0,2.9s5.6,1.9,16.2,1.9c10.7,0,16.2-1.9,16.2-1.9S38.7,25.6,38.4,25.2z
		 M15.2,12.4c0.7-0.2,7,0,7,0s6.3-0.2,7,0c0.7,0.2,2.9,5.2,2.8,5.9c-0.2,0.7-9.7,0.6-9.7,0.6s-9.6,0.1-9.7-0.6
		C12.3,17.6,14.6,12.6,15.2,12.4z M13.9,24.5c-0.6,0.3-5.7-1.3-5.7-1.3v-2c0,0,2,0.2,3.4,0.6C12.9,22.2,14.6,24.2,13.9,24.5z
		 M28,28.7c-0.1,0.4-5.8,0.5-5.8,0.5s-5.8-0.1-5.8-0.5c-0.1-0.4-0.3-2.2,0.2-2.3c0.5-0.1,5.7,0,5.7,0s5.2-0.1,5.7,0
		C28.3,26.5,28.1,28.2,28,28.7z M36.1,23.2c0,0-5,1.6-5.7,1.3c-0.6-0.3,1-2.3,2.3-2.7c1.3-0.4,3.4-0.6,3.4-0.6V23.2z"/>
</g>
<circle class="st1" cx="21.9" cy="22.4" r="20.8"/>
</svg>
