<?xml version="1.0" encoding="utf-8"?>
<!-- Generator: Adobe Illustrator 21.0.0, SVG Export Plug-In . SVG Version: 6.00 Build 0)  -->
<svg version="1.1" id="Слой_1" xmlns="http://www.w3.org/2000/svg" xmlns:xlink="http://www.w3.org/1999/xlink" x="0px" y="0px"
	 viewBox="0 0 44.2 44.2" style="enable-background:new 0 0 44.2 44.2;" xml:space="preserve">
<style type="text/css">
	.st0{fill:none;stroke:#979998;stroke-width:1.5614;stroke-miterlimit:10;}
	.st1{fill:#979998;}
</style>
<ellipse class="st0" cx="22.1" cy="22.3" rx="20.7" ry="20.7"/>
<path class="st1" d="M39.2,29h-6v-3.9h6c0.3,0,0.5-0.2,0.5-0.5c0-0.3-0.2-0.5-0.5-0.5h-6v-3.9h6c0.3,0,0.5-0.2,0.5-0.5
	c0-0.3-0.2-0.5-0.5-0.5h-6v-3.9h6c0.3,0,0.5-0.2,0.5-0.5s-0.2-0.5-0.5-0.5h-6v-3c0-0.3-0.2-0.5-0.5-0.5h-3V5c0-0.3-0.2-0.5-0.5-0.5
	c-0.3,0-0.5,0.2-0.5,0.5v6h-3.9V5c0-0.3-0.2-0.5-0.5-0.5C24.2,4.5,24,4.7,24,5v6h-3.9V5c0-0.3-0.2-0.5-0.5-0.5S19.2,4.7,19.2,5v6
	h-3.9V5c0-0.3-0.2-0.5-0.5-0.5S14.3,4.7,14.3,5v6h-3c-0.3,0-0.5,0.2-0.5,0.5v3h-6c-0.3,0-0.5,0.2-0.5,0.5s0.2,0.5,0.5,0.5h6v3.9h-6
	c-0.3,0-0.5,0.2-0.5,0.5c0,0.3,0.2,0.5,0.5,0.5h6v3.9h-6c-0.3,0-0.5,0.2-0.5,0.5c0,0.3,0.2,0.5,0.5,0.5h6V29h-6
	c-0.3,0-0.5,0.2-0.5,0.5c0,0.3,0.2,0.5,0.5,0.5h6v3c0,0.3,0.2,0.5,0.5,0.5h3v6c0,0.3,0.2,0.5,0.5,0.5s0.5-0.2,0.5-0.5v-6h3.9v6
	c0,0.3,0.2,0.5,0.5,0.5s0.5-0.2,0.5-0.5v-6H24v6c0,0.3,0.2,0.5,0.5,0.5c0.3,0,0.5-0.2,0.5-0.5v-6h3.9v6c0,0.3,0.2,0.5,0.5,0.5
	c0.3,0,0.5-0.2,0.5-0.5v-6h3c0.3,0,0.5-0.2,0.5-0.5v-3h6c0.3,0,0.5-0.2,0.5-0.5C39.7,29.2,39.5,29,39.2,29z M32.3,32.4H11.8V11.9
	h20.5V32.4z"/>
</svg>
