<?xml version="1.0" encoding="utf-8"?>
<!-- Generator: Adobe Illustrator 21.0.0, SVG Export Plug-In . SVG Version: 6.00 Build 0)  -->
<svg version="1.1" id="Слой_1" xmlns="http://www.w3.org/2000/svg" xmlns:xlink="http://www.w3.org/1999/xlink" x="0px" y="0px"
	 viewBox="0 0 44.2 44.2" style="enable-background:new 0 0 44.2 44.2;" xml:space="preserve">
<style type="text/css">
	.st0{fill:none;stroke:#979998;stroke-width:1.5653;stroke-miterlimit:10;}
	.st1{fill:#979998;}
</style>
<circle class="st0" cx="22.6" cy="22.4" r="20.7"/>
<path class="st1" d="M27.5,33.1c-0.1,0-0.3,0-0.4,0v1.5c0,0.5-0.4,0.9-0.9,0.9H15.1c-0.5,0-0.9-0.4-0.9-0.9V10.3
	c0-0.5,0.4-0.9,0.9-0.9h11.1c0.5,0,0.9,0.4,0.9,0.9v1.6c0.1,0,0.3,0,0.4,0c0.5,0,1,0,1.4,0.1v-1.6c0-1.5-1.2-2.7-2.7-2.7h-2.4V5.7
	h-6.4v1.8h-2.3c-1.5,0-2.7,1.2-2.7,2.7v24.2c0,1.5,1.2,2.7,2.7,2.7h11.1c1.5,0,2.7-1.2,2.7-2.7V33C28.5,33,28,33.1,27.5,33.1z"/>
<path class="st0" d="M27.5,33.1c5.9,0,10.6-4.8,10.6-10.6c0-5.9-4.8-10.6-10.6-10.6s-10.6,4.8-10.6,10.6
	C16.9,28.3,21.6,33.1,27.5,33.1L27.5,33.1z"/>
<polygon class="st1" points="26.7,18.4 26.7,21.6 23.5,21.6 23.5,23.3 26.7,23.3 26.7,26.5 28.3,26.5 28.3,23.3 31.5,23.3 
	31.5,21.6 28.3,21.6 28.3,18.4 26.7,18.4 "/>
</svg>
