<?xml version="1.0" encoding="utf-8"?>
<!-- Generator: Adobe Illustrator 21.0.0, SVG Export Plug-In . SVG Version: 6.00 Build 0)  -->
<svg version="1.1" id="Слой_1" xmlns="http://www.w3.org/2000/svg" xmlns:xlink="http://www.w3.org/1999/xlink" x="0px" y="0px"
	 viewBox="0 0 44.2 44.2" style="enable-background:new 0 0 44.2 44.2;" xml:space="preserve">
<style type="text/css">
	.st0{fill:none;stroke:#979998;stroke-width:1.5594;stroke-miterlimit:10;}
	.st1{fill:#979998;}
	.st2{font-family:'MyriadPro-Bold';}
	.st3{font-size:11.911px;}
	.st4{letter-spacing:-1;}
</style>
<circle class="st0" cx="22.2" cy="22.2" r="20.7"/>
<path class="st1" d="M30.7,20.8c0-0.4-0.1-2.5-0.1-3.4c0-2.4-1.6-2-1.6-2L18.1,17c-0.4,0.1-0.6-0.1-0.6-0.1s-0.4-0.2-1.4-0.9
	c-1.8-1.4-4.2,0.1-4.2,0.1l-4.4,2.4c-3.2,1.9-0.1,3.6,0.2,3.7c0.7,0.1,3.3-1.4,5.2-2.8c1.6-1,2-0.1,2.4,0c0.3,0.2,2.5,1.9,4.5,2.8
	c0.7,0.5,1.4,0.6,1.4,0.6s6.4,0,8.1-0.3C30.8,22.1,30.8,21,30.7,20.8z"/>
<g>
	<path class="st1" d="M32.4,21.4L32.4,21.4c-1.6-1.4-1.8-3.8-0.4-5.4l0,0c1.4-1.6,3.8-1.8,5.4-0.4l0,0c1.6,1.4,1.8,3.8,0.4,5.4l0,0
		C36.4,22.6,34,22.8,32.4,21.4z"/>
</g>
<path class="st1" d="M38.3,25.6H6.6c-0.6,0-1-0.5-1-1v0c0-0.6,0.5-1,1-1h31.6c0.6,0,1,0.5,1,1v0C39.3,25.1,38.8,25.6,38.3,25.6z"/>
<text transform="matrix(1 0 0 1 12.0679 35.1091)"><tspan x="0" y="0" class="st1 st2 st3 st4">1</tspan><tspan x="5.4" y="0" class="st1 st2 st3">80°</tspan></text>
</svg>
