<?xml version="1.0" encoding="utf-8"?>
<!-- Generator: Adobe Illustrator 21.0.0, SVG Export Plug-In . SVG Version: 6.00 Build 0)  -->
<svg version="1.1" id="Слой_1" xmlns="http://www.w3.org/2000/svg" xmlns:xlink="http://www.w3.org/1999/xlink" x="0px" y="0px"
	 viewBox="0 0 75.1 74.9" style="enable-background:new 0 0 75.1 74.9;" xml:space="preserve">
<style type="text/css">
	.st0{fill:#8C2727;}
</style>
<path class="st0" d="M55.3,65.7L55.3,65.7H24.9V18.4h30.4V65.7z M40.1,71.4L40.1,71.4c-1.1,0-2-0.8-2-2c0-1.1,0.9-2,2-2
	c1.1,0,2,0.9,2,2C42.1,70.6,41.2,71.4,40.1,71.4L40.1,71.4z M35.8,14.7L35.8,14.7h8.9c0,0,0.3,0.3,0.3,0.6c0,0.3-0.3,0.6-0.3,0.6
	h-8.9c-0.3,0-0.6-0.3-0.6-0.6C35.2,15,35.5,14.7,35.8,14.7L35.8,14.7z M23.4,4.5c-2.9,0-5.4,1.1-7.2,2.8c-2,2-3.2,4.8-3.2,8
	c0,0.3,0.3,0.9,0.6,0.9c0.3,0,0.6-0.6,0.6-0.9c0-2.6,1.1-5.1,2.9-6.8c1.7-1.7,3.7-2.6,6.3-2.6c0.3,0,0.6-0.3,0.6-0.6
	C24,4.8,23.7,4.5,23.4,4.5L23.4,4.5z M24.9,7.9c-2,0-4.3,0.9-5.7,2.3c-1.7,1.7-2.9,4-2.9,6.8c0,0.3,0.3,0.6,0.9,0.6
	c0.3,0,0.6-0.3,0.6-0.6c0-2.3,0.8-4.3,2.3-5.7C21.4,9.9,23.1,9,24.9,9c0.6,0,0.6-0.3,0.6-0.6C25.4,8.2,25.4,7.9,24.9,7.9L24.9,7.9z
	 M21.7,1.1c-3.2,0-6,1.4-8,3.4c-2.6,2.3-4,5.7-4,9.4c0,0.3,0.5,0.6,0.8,0.6c0.3,0,0.6-0.3,0.6-0.6c0-3.4,1.4-6.3,3.2-8.2
	c2-2,4.6-3.1,7.4-3.1c0.3,0,0.6-0.3,0.6-0.6C22.3,1.6,22,1.1,21.7,1.1L21.7,1.1z M53.8,11.9H26.3c-2.3,0-4.3,1.7-4.3,4v53.5
	c0,2.3,2,4,4.3,4h27.6c2.3,0,4.3-1.7,4.3-4V15.9C58.2,13.6,56.2,11.9,53.8,11.9L53.8,11.9z"/>
</svg>
