<?xml version="1.0" encoding="utf-8"?>
<!-- Generator: Adobe Illustrator 21.0.0, SVG Export Plug-In . SVG Version: 6.00 Build 0)  -->
<svg version="1.1" id="Слой_1" xmlns="http://www.w3.org/2000/svg" xmlns:xlink="http://www.w3.org/1999/xlink" x="0px" y="0px"
	 viewBox="0 0 44.2 44.2" style="enable-background:new 0 0 44.2 44.2;" xml:space="preserve">
<style type="text/css">
	.st0{fill:none;stroke:#979998;stroke-width:1.5661;stroke-miterlimit:10;}
	.st1{fill:#979998;}
</style>
<circle class="st0" cx="22.4" cy="22.3" r="20.8"/>
<g>
	<g>
		<g>
			<g>
				<path class="st1" d="M10.6,31.5c-0.3,0-3.6-0.9-1-3.4l3.6-3.1c0,0,1.9-1.9,3.9-1c1,0.5,1.5,0.6,1.5,0.6s0.7,0.4,1.5-1.1
					c0.6-1.2,2.7-5.1,2.7-5.1s0.4-1.6,2.4-0.5c1,0.4,3.3,1.6,3,1.4c-0.3-0.1,1.2,0.2,0.7,1.8c-0.5,1.6-3.4,7-3.4,7s-1.3,1.7-3.2,0.9
					c-2.2-0.4-4.8-1.6-5.1-1.7c-0.4-0.1-1-0.8-2.3,0.5C13.3,29.5,11.2,31.5,10.6,31.5z"/>
			</g>
			<g>
				<path class="st1" d="M29.3,18.1L29.3,18.1c-1.9,0.7-4-0.2-4.7-2.1l0,0c-0.7-1.9,0.2-4,2.1-4.7l0,0c1.9-0.7,4,0.2,4.7,2.1l0,0
					C32.1,15.3,31.2,17.4,29.3,18.1z"/>
			</g>
		</g>
		<g>
			<g>
				<path class="st1" d="M10.4,34.5c6.8,3.6,15.3,3.2,21.2-2c6.3-5.6,6.9-15,2.9-22c-0.8-1.3-2.8-0.1-2.1,1.2
					c3.5,6.2,3.1,14.3-2.5,19.1c-5.1,4.4-12.4,4.7-18.3,1.6C10.3,31.7,9.1,33.7,10.4,34.5L10.4,34.5z"/>
			</g>
		</g>
	</g>
</g>
</svg>
