<?xml version="1.0" encoding="utf-8"?>
<!-- Generator: Adobe Illustrator 21.0.0, SVG Export Plug-In . SVG Version: 6.00 Build 0)  -->
<svg version="1.1" id="Слой_1" xmlns="http://www.w3.org/2000/svg" xmlns:xlink="http://www.w3.org/1999/xlink" x="0px" y="0px"
	 viewBox="0 0 179.4 166.8" style="enable-background:new 0 0 179.4 166.8;" xml:space="preserve">
<style type="text/css">
	.st0{fill:none;stroke:#979998;stroke-width:0.8265;stroke-miterlimit:10;}
</style>
<g>
	<path class="st0" d="M27.3,120.3l-1.8,0.4c-2,0-2.9,0.7-2.9,0.7l-0.3,3.8l-4.5,1.1c-5.7,5.9-0.9,9.3-0.9,9.3
		c-0.1,1.9,2.2,1.3,2.2,1.3l0.3,0.7l4.1,1.3l2.1-0.3L64.9,152c10.1,4.9,16,4.7,16,4.7c2.2,1,5.4-1.9,5.4-1.9c4.5,1,3.8-0.5,3.8-0.5
		l4.2-0.4l-0.7-6.8c0.9-0.8,2.4-9.4,2.4-9.4c0,2.1,6.9,20.5,6.9,20.5c4.4,6.7,10.9,6.5,10.9,6.5c2.8,0.7,16.1-3.4,16.1-3.4
		c3,0.4,14.5-5.7,14.5-5.7l30.4-13.1c2.5-0.5-0.5-8.4-0.5-8.4c-2.4-6.3-24.7-13.6-24.7-13.6c0-1.2-5.6-9.3-5.6-9.3
		c2.8-13.6-4.5-38.8-4.5-38.8c-0.3-5.9-15.3-7.6-15.3-7.6c-21.9-1.5-37.3,7.6-37.3,7.6l-0.6-0.3c0.2-4.2-10.7-31.7-10.7-31.7
		c1.5-0.5,2.1-3.1,2.1-3.1c1-1.4,0-8,0-8c0.3-4.4-4.3-10.3-4.3-10.3c-0.6-8.3-10.7-9.4-10.7-9.4c-2.1-0.7-6.7-1.2-6.7-1.2
		c-0.3-0.6-6.8-1.8-6.8-1.8c-5.2-1.8-23.3-3.4-23.3-3.4c-4.3-2.1-8.4,1.7-8.4,1.7c-0.8-0.1-5,3.4-5,3.4c-2.3,1.3,0,2.3,0,2.3
		s-1.3,1.3,0.1,3.8c0,0-2.8,6.3,1.8,10.1c0,0,2.3,18.6,4.6,24.9c0,0,8,25.4,8.8,26.6"/>
	<path class="st0" d="M64.9,152c-1.3-0.3-11.6-6.3-11.6-6.3c-19.9-13-24.9-23.5-24.9-23.5c-12.5-21.8-4.9-38.4-4.9-38.4
		c5.7-13.3,20-16.8,20-16.8c22.9-5.3,39.1,4,39.1,4c13.6,7,13.4,26.9,13.4,26.9s1.7,26.4,0.4,32l-0.6,7.8"/>
	<path class="st0" d="M29.5,123.3c0,0,3.7-7.2,9.2-5.5c0,0,11.1,6.9,16.6,11.3c7.5,5.8,28.8,18.1,34.1,16.6c0,0,5-0.4,5.1-0.7"/>
	<polyline class="st0" points="96.1,97.3 134.1,92.5 139.9,101.2 102.8,107.1 96.4,100.9 	"/>
	<path class="st0" d="M94.4,86c0,0,34.4-1.3,38,2c0,0,2.6,3.8,1.8,4.5"/>
	<path class="st0" d="M140.5,106.4c0,0-0.8-34.3-1.4-35.3"/>
	<path class="st0" d="M93.7,84.4c0,0-0.1-13.6-21.6-18.7c0,0-18.6-4.2-33.2,2.9"/>
	<path class="st0" d="M30.2,74.3c0,0-9.6-32.1-10.5-36.7c0,0-2.4-9.5-5.4-12.7"/>
	<path class="st0" d="M36.6,69.8c0,0-9.8-22.7-9.8-46.4"/>
	<path class="st0" d="M49.7,65.3c0,0-14.6-26.3-14.6-33.1"/>
	<path class="st0" d="M74.6,41.5c0,0,7.3,20,3.6,26.1"/>
	<path class="st0" d="M18,10.6c0,0-4.6-1.7-5.8,3"/>
	<path class="st0" d="M75.1,40.7c0,0-8.4,6.2-25.2,0.8c0,0-8.5-2.5-11.4-6.1l-0.8-0.8c0,0-9.3-8.7-10.9-11.2c0,0-8.6-11.5-9.4-13.6
		c0,0-4.5-4.8-3.1,0.6"/>
	<path class="st0" d="M35.9,29.9c0,0-8-8.9-9-11.2c0,0-6.1-9.1-6.7-10.1c0,0-3-4.7-5-2.5"/>
	<path class="st0" d="M17.2,5.5c0,0,3.9-2.5,5.1-1.1c0,0,8,4.2,11.7,19.7c0,0,3.6,11.9,5.9,12.5"/>
	<path class="st0" d="M20.7,3.7l0.9-0.5c0,0,3.4,0.8,3.9,1.2c0,0,7.2,5,8.4,11.8c0,0,7.1,22.3,9.8,22.8"/>
	<path class="st0" d="M45,39c0,0,2.6-7.8,1.4-17.2c0,0-1-13-12.9-17.8"/>
	<path class="st0" d="M73.7,41.5c-0.1-0.5-4.9-13.6-6.2-15.4c0,0-10.9-16.8-10.9-17.6"/>
	<path class="st0" d="M67.6,43.7l-0.8,1.2c0,0-6.5-0.4-8.5-0.6c0,0-9.7-0.9-11.1-0.6c0,0-3.1-0.9-5-5.5"/>
	<polygon class="st0" points="109.7,74.1 105,85.7 102.2,83.7 106.9,72.5 	"/>
	<path class="st0" d="M97,133c0,0,2.9-7.8,12-5.7c0,0,29.9,8.5,34.4,18.5c0,0,2.8,6.1-0.5,8.3c0,0-10.6,6.5-14.2,6.5
		c0,0-14.5,3.9-15.6,3.9"/>
	<path class="st0" d="M99.8,129.9c0,0,3.8-3.3,13.1,0.6c0,0,26.6,10.5,28.6,16.2c0,0,3.5,5.8,0,8.3"/>
	<path class="st0" d="M150.1,121.7c0,0,19.3,8.1,20.2,9.3c0,0,3.4,3.9,3,5l-1.7,1l-3.1,1.4l-7.1,2.3c0,0-16.1,6.7-17.5,6.3"/>
	<path class="st0" d="M120.4,131.2c0,0-4-12.5-14.9-24"/>
	<path class="st0" d="M124.5,132.8c0,0-1.2-11.3-15.5-26.4"/>
	<path class="st0" d="M134.1,131.6c0,0,1.8-4.3-1.2-8.7l-12.2-18.7"/>
	<path class="st0" d="M139.9,131.6c0,0,1.3-4.8-1.5-8.9c0,0-9.9-17.4-13.2-19.2"/>
	<path class="st0" d="M149.2,128.1c0,0,2-3.9-1.5-8.5c0,0-11.3-17.2-12.6-17.7"/>
	<path class="st0" d="M140.2,128.1l20.8-0.4c0,0,5.2,5.2,5.6,9.2"/>
	<path class="st0" d="M159.5,139.7l-1.4-3.6c-2.3-6.7-6.1-6.2-6.1-6.2h-11.7"/>
	<path class="st0" d="M124.5,132.3c0,0,18.8-1.3,22.3,0c0,0,5,1,6.6,9.8"/>
	<path class="st0" d="M128.9,134.8c0,0,8.1-0.8,10.1,1.3c0,0,3.5,3,5.6,10.5"/>
	<path class="st0" d="M172.9,135.7c0,0-4.3-0.4-5.5,1.6c0,0-5.9,0.3-7.1,1.9l-1.1,1c0,0-5.4,1.4-6.2,2.5c0,0-6.7,0.4-8.4,3.9"/>
	<path class="st0" d="M29.8,124.4c0,0-5.5,0.3-7.5,0.8"/>
</g>
</svg>
