<?xml version="1.0" encoding="utf-8"?>
<!-- Generator: Adobe Illustrator 21.0.0, SVG Export Plug-In . SVG Version: 6.00 Build 0)  -->
<svg version="1.1" id="Слой_1" xmlns="http://www.w3.org/2000/svg" xmlns:xlink="http://www.w3.org/1999/xlink" x="0px" y="0px"
	 viewBox="0 0 44.2 44.2" style="enable-background:new 0 0 44.2 44.2;" xml:space="preserve">
<style type="text/css">
	.st0{fill:none;stroke:#979998;stroke-width:1.5729;stroke-miterlimit:10;}
	.st1{fill:none;}
	.st2{fill:#F29100;}
	.st3{fill:#E84E1B;}
	.st4{fill:url(#SVGID_1_);}
	.st5{fill:#BD1622;}
	.st6{fill:url(#SVGID_2_);}
	.st7{fill:#DDDB00;}
	.st8{fill:url(#SVGID_3_);}
	.st9{fill:#FBE910;}
	.st10{fill:url(#SVGID_4_);}
	.st11{fill:#F8B133;}
	.st12{fill:url(#SVGID_5_);}
	.st13{fill:url(#SVGID_6_);}
	.st14{fill:url(#SVGID_7_);}
	.st15{fill:url(#SVGID_8_);}
	.st16{fill:url(#SVGID_9_);}
	.st17{fill:url(#SVGID_10_);}
	.st18{fill:url(#SVGID_11_);}
	.st19{fill:url(#SVGID_12_);}
</style>
<circle class="st0" cx="22.1" cy="22.3" r="20.8"/>
<g>
	<path class="st1" d="M31.6,21.4c0-0.1,0-0.1,0-0.2c0,0,0,0,0-0.1c0-0.1,0-0.1,0-0.2c0,0,0,0,0-0.1c0-0.1,0-0.1,0-0.2c0,0,0,0,0-0.1
		c0-0.1,0-0.1,0-0.2c0,0,0,0,0-0.1c0-0.1,0-0.1,0-0.2c0,0,0-0.1,0-0.1c0,0,0-0.1,0-0.1c0-0.1,0-0.1,0-0.2c0,0,0-0.1,0-0.1
		c0-0.1,0-0.1-0.1-0.2c0,0,0,0,0,0c-0.1-0.3-0.2-0.6-0.4-1c0,0,0,0,0,0c0-0.1-0.1-0.1-0.1-0.2c-0.1-0.3-0.3-0.5-0.4-0.8
		c-0.2-0.3-0.3-0.5-0.5-0.8c-0.1-0.1-0.1-0.1-0.2-0.2c-0.1-0.1-0.1-0.1-0.2-0.2c-0.1-0.1-0.1-0.1-0.2-0.2c-0.1-0.1-0.1-0.1-0.2-0.2
		c-0.1-0.1-0.1-0.1-0.2-0.2c-0.1-0.1-0.1-0.1-0.2-0.2c-0.1-0.1-0.1-0.1-0.2-0.2c-0.1-0.1-0.1-0.1-0.2-0.2c-0.1-0.1-0.1-0.1-0.2-0.2
		c-0.1-0.1-0.1-0.1-0.2-0.2c-0.1,0-0.1-0.1-0.2-0.1c-0.1-0.1-0.1-0.1-0.2-0.2c-0.3-0.2-0.5-0.4-0.8-0.5c-0.3-0.2-0.5-0.3-0.8-0.4
		c-0.1,0-0.1,0-0.2-0.1c0,0,0,0-0.1,0c-0.1,0-0.1,0-0.2-0.1c0,0,0,0-0.1,0c-0.1,0-0.1,0-0.2-0.1c0,0-0.1,0-0.1,0
		c-0.1,0-0.1,0-0.2-0.1c0,0-0.1,0-0.1,0c0,0-0.1,0-0.1,0c-0.1,0-0.1,0-0.2-0.1c0,0,0,0-0.1,0c-0.6-0.2-1.2-0.3-1.8-0.3v0
		c-0.3,0-0.6,0-0.9,0c-0.3,0-0.6,0-0.9,0c-0.1,0-0.2,0-0.2,0c0,0,0,0,0,0c-0.3,0-0.7,0.1-1,0.2c0,0,0,0,0,0c-0.1,0-0.1,0-0.2,0.1
		c0,0-0.1,0-0.1,0c-0.1,0-0.1,0-0.2,0c-0.1,0-0.1,0-0.2,0c0,0-0.1,0-0.1,0c-0.1,0-0.1,0-0.2,0.1c0,0,0,0,0,0c-0.1,0-0.1,0.1-0.2,0.1
		c0,0,0,0,0,0c-0.1,0-0.1,0.1-0.2,0.1c0,0,0,0,0,0c-0.1,0-0.1,0.1-0.2,0.1c0,0,0,0,0,0c-0.1,0-0.1,0.1-0.2,0.1
		c-0.3,0.1-0.5,0.3-0.8,0.4c-0.3,0.2-0.5,0.3-0.8,0.5c-0.1,0.1-0.1,0.1-0.2,0.2c-0.1,0-0.1,0.1-0.2,0.1C16,14.9,15.9,15,15.8,15
		c-0.1,0.1-0.1,0.1-0.2,0.2c-0.1,0.1-0.1,0.1-0.2,0.2c-0.1,0.1-0.1,0.1-0.2,0.2c-0.1,0.1-0.1,0.1-0.2,0.2c-0.1,0.1-0.1,0.1-0.2,0.2
		c-0.1,0.1-0.1,0.1-0.2,0.2c-0.1,0.1-0.1,0.1-0.2,0.2c-0.1,0.1-0.1,0.1-0.2,0.2c-0.1,0.1-0.1,0.1-0.2,0.2c-0.2,0.3-0.4,0.5-0.5,0.8
		c-0.1,0.3-0.3,0.5-0.4,0.8c0,0.1-0.1,0.1-0.1,0.2c0,0,0,0,0,0c-0.1,0.3-0.3,0.6-0.4,0.9c0,0,0,0,0,0c0,0.1,0,0.2-0.1,0.2
		c0,0,0,0,0,0.1c0,0.1,0,0.1,0,0.2c0,0,0,0.1,0,0.1c0,0,0,0.1,0,0.1c0,0.1,0,0.1,0,0.2c0,0,0,0,0,0.1c0,0.1,0,0.1,0,0.2c0,0,0,0,0,0
		c0,0.1,0,0.1,0,0.2c0,0,0,0,0,0c0,0.1,0,0.1,0,0.2c0,0,0,0,0,0c0,0.1,0,0.1,0,0.2c0,0.3,0,0.6,0,0.9c0,0.3,0,0.6,0,0.9
		c0,0.1,0,0.1,0,0.2c0,0,0,0,0,0c0,0.1,0,0.2,0,0.2c0,0,0,0,0,0c0,0.3,0.1,0.5,0.1,0.7c0,0,0,0,0,0c0,0.1,0,0.1,0.1,0.2
		c0,0,0,0.1,0,0.1c0,0.1,0,0.1,0,0.2c0,0,0,0.1,0,0.1c0,0,0,0.1,0,0.1c0,0.1,0,0.1,0.1,0.2c0,0,0,0,0,0.1c0,0.1,0,0.1,0.1,0.2
		c0,0,0,0,0,0c0,0.1,0.1,0.1,0.1,0.2c0,0,0,0,0,0c0,0.1,0.1,0.1,0.1,0.2c0,0,0,0,0,0c0,0.1,0.1,0.1,0.1,0.2c0.1,0.3,0.3,0.5,0.4,0.8
		c0.2,0.3,0.3,0.5,0.5,0.8c0.1,0.1,0.1,0.1,0.2,0.2c0,0.1,0.1,0.1,0.1,0.2c0.1,0.1,0.1,0.1,0.2,0.2c0.1,0.1,0.1,0.1,0.2,0.2
		c0.1,0.1,0.1,0.1,0.2,0.2c0.1,0.1,0.1,0.1,0.2,0.2c0.1,0.1,0.1,0.1,0.2,0.2c0.1,0.1,0.1,0.1,0.2,0.2c0.1,0.1,0.1,0.1,0.2,0.2
		c0.1,0.1,0.1,0.1,0.2,0.2c0.1,0.1,0.1,0.1,0.2,0.2c0.1,0.1,0.1,0.1,0.2,0.2c0.3,0.2,0.5,0.4,0.8,0.5c0.3,0.1,0.5,0.3,0.8,0.4
		c0.5,0.2,0.9,0.4,1.4,0.5c0,0,0,0,0,0c0.1,0,0.2,0,0.2,0.1c0,0,0,0,0.1,0c0.1,0,0.1,0,0.2,0c0,0,0.1,0,0.1,0c0,0,0.1,0,0.1,0
		c0.1,0,0.1,0,0.2,0c0,0,0.1,0,0.1,0c0.1,0,0.1,0,0.2,0c0,0,0.1,0,0.1,0c0.1,0,0.1,0,0.2,0c0,0,0.1,0,0.1,0c0.1,0,0.1,0,0.2,0
		c0.3,0,0.6,0,0.9,0c0.3,0,0.6,0,0.9,0c0.1,0,0.1,0,0.2,0c0,0,0,0,0,0c0.1,0,0.1,0,0.2,0c0,0,0,0,0,0c0.1,0,0.1,0,0.2,0c0,0,0,0,0,0
		c0.1,0,0.2,0,0.2,0c0,0,0,0,0,0c0.1,0,0.1,0,0.2,0c0,0,0.1,0,0.1,0c0.1,0,0.1,0,0.2,0c0,0,0.1,0,0.1,0c0,0,0.1,0,0.1,0
		c0.1,0,0.1,0,0.2-0.1c0,0,0,0,0,0c0.1,0,0.2,0,0.2-0.1c0,0,0,0,0,0c0.2-0.1,0.3-0.1,0.5-0.2c0,0,0,0,0,0c0.1,0,0.1-0.1,0.2-0.1
		c0,0,0,0,0,0c0.1,0,0.1-0.1,0.2-0.1c0.3-0.1,0.5-0.3,0.8-0.4c0.3-0.2,0.5-0.3,0.8-0.5c0.1-0.1,0.1-0.1,0.2-0.2
		c0.1-0.1,0.1-0.1,0.2-0.2c0.1-0.1,0.1-0.1,0.2-0.2c0.1-0.1,0.1-0.1,0.2-0.2c0.1-0.1,0.1-0.1,0.2-0.2c0.1-0.1,0.1-0.1,0.2-0.2
		C28.9,29.1,29,29,29,29c0.1-0.1,0.1-0.1,0.2-0.2c0.1-0.1,0.1-0.1,0.2-0.2c0.1-0.1,0.1-0.1,0.2-0.2c0.1-0.1,0.1-0.1,0.2-0.2
		c0.1-0.1,0.1-0.1,0.2-0.2c0.2-0.3,0.4-0.5,0.5-0.8c0.2-0.3,0.3-0.5,0.4-0.8c0-0.1,0-0.1,0.1-0.2c0,0,0,0,0-0.1c0-0.1,0-0.1,0.1-0.2
		c0,0,0,0,0-0.1c0-0.1,0-0.1,0.1-0.2c0,0,0,0,0-0.1c0-0.1,0-0.1,0.1-0.2c0,0,0,0,0-0.1c0-0.1,0-0.1,0.1-0.2c0,0,0-0.1,0-0.1
		c0,0,0-0.1,0-0.1c0-0.1,0-0.1,0-0.2c0,0,0-0.1,0-0.1c0-0.1,0-0.1,0.1-0.2c0,0,0,0,0,0c0.1-0.3,0.1-0.5,0.1-0.8c0,0,0,0,0,0
		c0-0.1,0-0.2,0-0.2c0,0,0,0,0,0c0-0.1,0-0.2,0-0.2c0-0.3,0-0.6,0-0.9C31.7,22,31.7,21.7,31.6,21.4z"/>
	<path class="st2" d="M19.2,13.2C19.2,13.2,19.3,13.2,19.2,13.2C19.3,13.2,19.2,13.2,19.2,13.2z"/>
	<path class="st2" d="M19.7,13c0.1,0,0.1,0,0.2-0.1C19.8,13,19.8,13,19.7,13z"/>
	<path class="st2" d="M19.9,13c0.3-0.1,0.7-0.1,1-0.2C20.6,12.8,20.3,12.9,19.9,13z"/>
	<path class="st2" d="M18.1,7.4C18.1,7.4,18.1,7.4,18.1,7.4C18.1,7.4,18.1,7.4,18.1,7.4L18.1,7.4z"/>
	<path class="st2" d="M19,13.3C19,13.2,19,13.2,19,13.3C19,13.2,19,13.2,19,13.3z"/>
	<path class="st2" d="M11.1,11.4L11.1,11.4C11.1,11.4,11.1,11.4,11.1,11.4C11.1,11.4,11.1,11.4,11.1,11.4z"/>
	<path class="st2" d="M21,12.8c0.1,0,0.2,0,0.2,0C21.1,12.8,21,12.8,21,12.8z"/>
	<path class="st2" d="M19.4,13.1c0.1,0,0.1,0,0.2,0C19.6,13.1,19.5,13.1,19.4,13.1z"/>
	<path class="st2" d="M18.7,13.3C18.7,13.3,18.7,13.3,18.7,13.3C18.7,13.3,18.7,13.3,18.7,13.3z"/>
	<path class="st2" d="M14.6,16.3c0.1-0.1,0.1-0.1,0.2-0.2C14.7,16.2,14.6,16.3,14.6,16.3z"/>
	<path class="st2" d="M15.3,15.6c0.1-0.1,0.1-0.1,0.2-0.2C15.4,15.4,15.3,15.5,15.3,15.6z"/>
	<path class="st2" d="M14.3,16.7c0.1-0.1,0.1-0.1,0.2-0.2C14.4,16.6,14.3,16.7,14.3,16.7z"/>
	<path class="st2" d="M14.9,15.9c0.1-0.1,0.1-0.1,0.2-0.2C15,15.8,15,15.9,14.9,15.9z"/>
	<path class="st2" d="M18.5,13.4C18.5,13.4,18.5,13.4,18.5,13.4C18.5,13.4,18.5,13.4,18.5,13.4z"/>
	<path class="st2" d="M16,14.9c0.1,0,0.1-0.1,0.2-0.1C16.2,14.8,16.1,14.8,16,14.9z"/>
	<path class="st2" d="M15.6,15.2c0.1-0.1,0.1-0.1,0.2-0.2C15.8,15.1,15.7,15.1,15.6,15.2z"/>
	<path class="st2" d="M18.2,13.5C18.3,13.5,18.3,13.5,18.2,13.5C18.3,13.5,18.3,13.5,18.2,13.5z"/>
	<path class="st3" d="M12.5,21.4c0-0.1,0-0.1,0-0.2C12.5,21.3,12.5,21.4,12.5,21.4z"/>
	<path class="st3" d="M12.6,21c0-0.1,0-0.1,0-0.2C12.6,20.8,12.6,20.9,12.6,21z"/>
	<path class="st3" d="M14.4,16.5c0-0.1,0.1-0.1,0.2-0.2C14.5,16.4,14.5,16.5,14.4,16.5z"/>
	<path class="st3" d="M14.7,16.1c0.1-0.1,0.1-0.1,0.2-0.2C14.9,16,14.8,16.1,14.7,16.1z"/>
	<path class="st3" d="M12.5,21.2c0-0.1,0-0.1,0-0.2C12.5,21.1,12.5,21.1,12.5,21.2z"/>
	<path class="st3" d="M12.6,20.4c0-0.1,0-0.1,0-0.2C12.7,20.3,12.7,20.4,12.6,20.4z"/>
	<path class="st3" d="M12.7,20.1c0,0,0-0.1,0-0.1C12.7,20,12.7,20.1,12.7,20.1z"/>
	<path class="st3" d="M12.6,20.7c0-0.1,0-0.1,0-0.2C12.6,20.6,12.6,20.6,12.6,20.7z"/>
	<path class="st3" d="M12.9,19.5C12.9,19.5,12.9,19.5,12.9,19.5C12.9,19.5,12.9,19.5,12.9,19.5z"/>
	<path class="st3" d="M12.8,19.8C12.8,19.8,12.8,19.8,12.8,19.8C12.8,19.8,12.8,19.8,12.8,19.8z"/>
	<path class="st3" d="M13.2,18.5C13.2,18.5,13.2,18.5,13.2,18.5C13.2,18.5,13.2,18.5,13.2,18.5z"/>
	<path class="st3" d="M15.4,15.4c0.1-0.1,0.1-0.1,0.2-0.2C15.6,15.3,15.5,15.3,15.4,15.4z"/>
	<path class="st3" d="M7.1,18.4L7.1,18.4C7.1,18.4,7.1,18.4,7.1,18.4C7.1,18.4,7.1,18.4,7.1,18.4z"/>
	<path class="st3" d="M15.8,15c0.1-0.1,0.1-0.1,0.2-0.2C16,14.9,15.9,15,15.8,15z"/>
	<path class="st3" d="M16.2,14.7c0.1-0.1,0.1-0.1,0.2-0.2C16.4,14.6,16.3,14.7,16.2,14.7z"/>
	<path class="st3" d="M11.2,11.4C11.1,11.4,11.1,11.4,11.2,11.4C11.1,11.4,11.1,11.4,11.2,11.4L11.2,11.4z"/>
	<path class="st3" d="M15.1,15.7c0.1-0.1,0.1-0.1,0.2-0.2C15.2,15.6,15.1,15.7,15.1,15.7z"/>
	<linearGradient id="SVGID_1_" gradientUnits="userSpaceOnUse" x1="14.054" y1="12.1959" x2="9.3522" y2="19.7848">
		<stop  offset="0" style="stop-color:#F29100"/>
		<stop  offset="0.195" style="stop-color:#F29203"/>
		<stop  offset="0.3289" style="stop-color:#F3960C"/>
		<stop  offset="0.4446" style="stop-color:#F39D1B"/>
		<stop  offset="0.5499" style="stop-color:#F4A631"/>
		<stop  offset="0.6481" style="stop-color:#F6B24D"/>
		<stop  offset="0.7412" style="stop-color:#F8C170"/>
		<stop  offset="0.8302" style="stop-color:#FAD399"/>
		<stop  offset="0.9151" style="stop-color:#FCE7C8"/>
		<stop  offset="0.9955" style="stop-color:#FFFEFC"/>
		<stop  offset="1" style="stop-color:#FFFFFF"/>
	</linearGradient>
	<path class="st4" d="M11.2,11.4C11.1,11.4,11.1,11.4,11.2,11.4C11.1,11.4,11.1,11.4,11.2,11.4c-1,1-1.8,2-2.5,3.2
		C8,15.8,7.5,17,7.1,18.3h6.2c0,0,0,0,0,0c0.1-0.3,0.3-0.5,0.4-0.8c0.2-0.3,0.3-0.5,0.5-0.8c0.1-0.1,0.1-0.1,0.2-0.2
		c0-0.1,0.1-0.1,0.2-0.2c0.1-0.1,0.1-0.1,0.2-0.2c0.1-0.1,0.1-0.1,0.2-0.2c0.1-0.1,0.1-0.1,0.2-0.2c0.1-0.1,0.1-0.1,0.2-0.2
		c0.1-0.1,0.1-0.1,0.2-0.2c0.1-0.1,0.1-0.1,0.2-0.2c0.1-0.1,0.1-0.1,0.2-0.2c0.1-0.1,0.1-0.1,0.2-0.2c0.1-0.1,0.1-0.1,0.2-0.1
		c0.1-0.1,0.1-0.1,0.2-0.2c0,0,0.1,0,0.1-0.1L11.2,11.4z"/>
	<path class="st5" d="M13.2,26.1c0-0.1-0.1-0.1-0.1-0.2C13.2,26,13.2,26.1,13.2,26.1z"/>
	<path class="st5" d="M12.9,19.5c0.1-0.3,0.2-0.6,0.4-0.9C13.1,18.9,13,19.2,12.9,19.5z"/>
	<path class="st5" d="M12.8,19.7c0-0.1,0-0.2,0.1-0.2C12.9,19.6,12.8,19.7,12.8,19.7z"/>
	<path class="st5" d="M12.8,24.8C12.8,24.8,12.8,24.7,12.8,24.8C12.8,24.7,12.8,24.8,12.8,24.8z"/>
	<path class="st5" d="M13.2,18.5c0-0.1,0.1-0.1,0.1-0.2C13.3,18.4,13.3,18.5,13.2,18.5z"/>
	<path class="st5" d="M13,25.6c0-0.1,0-0.1-0.1-0.2C13,25.5,13,25.6,13,25.6z"/>
	<path class="st5" d="M12.7,24.5C12.7,24.5,12.7,24.5,12.7,24.5C12.7,24.5,12.7,24.5,12.7,24.5z"/>
	<path class="st5" d="M12.7,20c0-0.1,0-0.1,0-0.2C12.8,19.9,12.8,19.9,12.7,20z"/>
	<path class="st5" d="M12.9,25.1c0,0,0-0.1,0-0.1C12.8,25,12.8,25.1,12.9,25.1z"/>
	<path class="st5" d="M12.9,25.4c0-0.1,0-0.1-0.1-0.2C12.9,25.3,12.9,25.3,12.9,25.4z"/>
	<path class="st5" d="M13.1,25.9c0-0.1-0.1-0.1-0.1-0.2C13.1,25.8,13.1,25.8,13.1,25.9z"/>
	<path class="st5" d="M12.5,23.5C12.5,23.5,12.5,23.5,12.5,23.5C12.5,23.5,12.5,23.5,12.5,23.5z"/>
	<path class="st5" d="M12.5,21.2C12.5,21.2,12.5,21.2,12.5,21.2C12.5,21.2,12.5,21.2,12.5,21.2z"/>
	<path class="st5" d="M12.5,21C12.5,21,12.6,21,12.5,21C12.6,21,12.5,21,12.5,21z"/>
	<path class="st5" d="M12.6,20.5C12.6,20.5,12.6,20.4,12.6,20.5C12.6,20.4,12.6,20.5,12.6,20.5z"/>
	<path class="st5" d="M13.3,26.3c0-0.1-0.1-0.1-0.1-0.2C13.3,26.2,13.3,26.3,13.3,26.3z"/>
	<path class="st5" d="M7.1,18.3C7.1,18.3,7.1,18.3,7.1,18.3C7.1,18.3,7.1,18.3,7.1,18.3L7.1,18.3z"/>
	<path class="st5" d="M12.5,23.7C12.5,23.7,12.5,23.7,12.5,23.7C12.5,23.7,12.5,23.7,12.5,23.7z"/>
	<path class="st5" d="M7.1,26.4L7.1,26.4C7.1,26.4,7.1,26.4,7.1,26.4C7.1,26.4,7.1,26.4,7.1,26.4z"/>
	<path class="st5" d="M12.6,20.7C12.6,20.7,12.6,20.7,12.6,20.7C12.6,20.7,12.6,20.7,12.6,20.7z"/>
	<path class="st5" d="M12.7,20.2c0,0,0-0.1,0-0.1C12.7,20.2,12.7,20.2,12.7,20.2z"/>
	<linearGradient id="SVGID_2_" gradientUnits="userSpaceOnUse" x1="9.9679" y1="17.0285" x2="9.9679" y2="26.0016">
		<stop  offset="0" style="stop-color:#E84E1B"/>
		<stop  offset="0.2031" style="stop-color:#E8501E"/>
		<stop  offset="0.3426" style="stop-color:#E95727"/>
		<stop  offset="0.463" style="stop-color:#EB6336"/>
		<stop  offset="0.5726" style="stop-color:#ED744C"/>
		<stop  offset="0.6749" style="stop-color:#F08A68"/>
		<stop  offset="0.7718" style="stop-color:#F3A58A"/>
		<stop  offset="0.8644" style="stop-color:#F7C4B3"/>
		<stop  offset="0.9514" style="stop-color:#FCE8E2"/>
		<stop  offset="1" style="stop-color:#FFFFFF"/>
	</linearGradient>
	<path class="st6" d="M7.1,18.3C7.1,18.3,7.1,18.3,7.1,18.3C7.1,18.4,7.1,18.4,7.1,18.3c-0.4,1.3-0.5,2.7-0.5,4c0,1.4,0.2,2.7,0.5,4
		l5.4-3.1c0,0,0,0,0,0c0-0.3,0-0.6,0-0.9c0-0.3,0-0.6,0-0.9c0-0.1,0-0.1,0-0.2c0,0,0,0,0,0c0-0.1,0-0.1,0-0.2c0,0,0,0,0,0
		c0-0.1,0-0.1,0-0.2c0,0,0,0,0,0c0-0.1,0-0.1,0-0.2c0,0,0,0,0-0.1c0-0.1,0-0.1,0-0.2c0,0,0-0.1,0-0.1c0,0,0-0.1,0-0.1
		c0-0.1,0-0.1,0-0.2c0,0,0-0.1,0-0.1c0-0.1,0-0.2,0.1-0.2c0,0,0,0,0,0c0.1-0.3,0.2-0.6,0.4-0.9c0,0,0,0,0,0c0-0.1,0.1-0.1,0.1-0.2
		c0,0,0,0,0,0H7.1z"/>
	<path class="st7" d="M7.1,26.3C7.1,26.3,7.1,26.3,7.1,26.3C7.1,26.3,7.1,26.3,7.1,26.3L7.1,26.3z"/>
	<path class="st7" d="M15.3,29.1c-0.1-0.1-0.1-0.1-0.2-0.2C15.1,29,15.2,29.1,15.3,29.1z"/>
	<path class="st7" d="M12.5,23.7c0-0.1,0-0.2,0-0.2C12.5,23.6,12.5,23.6,12.5,23.7z"/>
	<path class="st7" d="M15.6,29.5c-0.1-0.1-0.1-0.1-0.2-0.2C15.5,29.4,15.6,29.4,15.6,29.5z"/>
	<path class="st7" d="M11.2,33.3L11.2,33.3C11.1,33.3,11.1,33.3,11.2,33.3C11.1,33.3,11.1,33.3,11.2,33.3z"/>
	<path class="st7" d="M14.6,28.4c-0.1-0.1-0.1-0.1-0.1-0.2C14.5,28.2,14.5,28.3,14.6,28.4z"/>
	<path class="st7" d="M16,29.8c-0.1-0.1-0.1-0.1-0.2-0.2C15.9,29.7,16,29.8,16,29.8z"/>
	<path class="st7" d="M12.7,24.7c0-0.1,0-0.1-0.1-0.2C12.7,24.6,12.7,24.6,12.7,24.7z"/>
	<path class="st7" d="M13.2,26.2C13.2,26.2,13.2,26.1,13.2,26.2C13.2,26.1,13.2,26.2,13.2,26.2z"/>
	<path class="st7" d="M12.8,25c0-0.1,0-0.1,0-0.2C12.8,24.9,12.8,24.9,12.8,25z"/>
	<path class="st7" d="M16.5,30.1c-0.1-0.1-0.1-0.1-0.2-0.2C16.3,30,16.4,30.1,16.5,30.1z"/>
	<path class="st7" d="M14.9,28.8c-0.1-0.1-0.1-0.1-0.2-0.2C14.8,28.6,14.9,28.7,14.9,28.8z"/>
	<path class="st7" d="M13,25.4C13,25.4,13,25.4,13,25.4C13,25.4,13,25.4,13,25.4z"/>
	<path class="st7" d="M13,25.7C13,25.7,13,25.7,13,25.7C13,25.7,13,25.7,13,25.7z"/>
	<path class="st7" d="M12.7,24.5c-0.1-0.2-0.1-0.5-0.1-0.7C12.6,24,12.6,24.2,12.7,24.5z"/>
	<path class="st7" d="M12.5,23.5c0-0.1,0-0.1,0-0.2C12.5,23.3,12.5,23.4,12.5,23.5z"/>
	<path class="st7" d="M12.9,25.2C12.9,25.2,12.9,25.1,12.9,25.2C12.9,25.1,12.9,25.2,12.9,25.2z"/>
	<path class="st7" d="M13.1,25.9C13.1,25.9,13.1,25.9,13.1,25.9C13.1,25.9,13.1,25.9,13.1,25.9z"/>
	<linearGradient id="SVGID_3_" gradientUnits="userSpaceOnUse" x1="8.9677" y1="23.8725" x2="13.4221" y2="31.5439">
		<stop  offset="0" style="stop-color:#BD1622"/>
		<stop  offset="0.2015" style="stop-color:#BE1925"/>
		<stop  offset="0.3399" style="stop-color:#C0222D"/>
		<stop  offset="0.4594" style="stop-color:#C5313C"/>
		<stop  offset="0.5681" style="stop-color:#CB4750"/>
		<stop  offset="0.6696" style="stop-color:#D3636B"/>
		<stop  offset="0.7657" style="stop-color:#DD858C"/>
		<stop  offset="0.8576" style="stop-color:#E8AEB3"/>
		<stop  offset="0.9439" style="stop-color:#F5DDDE"/>
		<stop  offset="1" style="stop-color:#FFFFFF"/>
	</linearGradient>
	<path class="st8" d="M13.7,27.2c-0.2-0.3-0.3-0.5-0.4-0.8c0-0.1-0.1-0.1-0.1-0.2c0,0,0,0,0,0c0-0.1-0.1-0.1-0.1-0.2c0,0,0,0,0,0
		c0-0.1-0.1-0.1-0.1-0.2c0,0,0,0,0,0c0-0.1,0-0.1-0.1-0.2c0,0,0,0,0-0.1c0-0.1,0-0.1-0.1-0.2c0,0,0-0.1,0-0.1c0,0,0-0.1,0-0.1
		c0-0.1,0-0.1,0-0.2c0,0,0-0.1,0-0.1c0-0.1,0-0.1-0.1-0.2c0,0,0,0,0,0c-0.1-0.2-0.1-0.5-0.1-0.7c0,0,0,0,0,0c0-0.1,0-0.2,0-0.2
		c0,0,0,0,0,0c0-0.1,0-0.1,0-0.2c0,0,0,0,0,0l-5.4,3.1c0,0,0,0,0,0c0,0,0,0,0,0c0.3,1.3,0.9,2.5,1.5,3.7c0.7,1.2,1.5,2.2,2.4,3.2
		l3.1-5.4c0,0,0,0.1,0.1,0.1C14.1,27.7,13.9,27.4,13.7,27.2z"/>
	<path class="st9" d="M20.9,31.9c-0.1,0-0.1,0-0.2,0C20.8,31.9,20.8,31.9,20.9,31.9z"/>
	<path class="st9" d="M15.8,29.7c-0.1-0.1-0.1-0.1-0.2-0.2C15.7,29.6,15.8,29.6,15.8,29.7z"/>
	<path class="st9" d="M19.8,31.7C19.8,31.7,19.7,31.7,19.8,31.7C19.7,31.7,19.8,31.7,19.8,31.7z"/>
	<path class="st9" d="M19.5,31.6C19.5,31.6,19.5,31.6,19.5,31.6C19.5,31.6,19.5,31.6,19.5,31.6z"/>
	<path class="st9" d="M20.6,31.9c-0.1,0-0.1,0-0.2,0C20.5,31.8,20.6,31.8,20.6,31.9z"/>
	<path class="st9" d="M16.2,30c-0.1-0.1-0.1-0.1-0.2-0.2C16.1,29.9,16.2,29.9,16.2,30z"/>
	<path class="st9" d="M15.5,29.3c-0.1-0.1-0.1-0.1-0.2-0.2C15.3,29.2,15.4,29.3,15.5,29.3z"/>
	<path class="st9" d="M20.1,31.8c0,0-0.1,0-0.1,0C20,31.7,20,31.7,20.1,31.8z"/>
	<path class="st9" d="M14.7,28.6c-0.1-0.1-0.1-0.1-0.2-0.2C14.6,28.4,14.7,28.5,14.7,28.6z"/>
	<path class="st9" d="M14.4,28.2c-0.1-0.1-0.1-0.1-0.2-0.2C14.3,28,14.4,28.1,14.4,28.2z"/>
	<path class="st9" d="M15.1,29c-0.1-0.1-0.1-0.1-0.2-0.2C15,28.8,15,28.9,15.1,29z"/>
	<path class="st9" d="M21.1,31.9c-0.1,0-0.1,0-0.2,0C21,31.9,21.1,31.9,21.1,31.9z"/>
	<path class="st9" d="M20.4,31.8c-0.1,0-0.1,0-0.2,0C20.3,31.8,20.3,31.8,20.4,31.8z"/>
	<path class="st9" d="M18.1,37.3L18.1,37.3C18.1,37.3,18.1,37.3,18.1,37.3C18.1,37.3,18.1,37.3,18.1,37.3z"/>
	<path class="st9" d="M11.1,33.3C11.1,33.3,11.1,33.3,11.1,33.3C11.1,33.3,11.1,33.3,11.1,33.3L11.1,33.3z"/>
	<linearGradient id="SVGID_4_" gradientUnits="userSpaceOnUse" x1="12.0183" y1="30.2999" x2="19.3599" y2="35.3316">
		<stop  offset="0" style="stop-color:#D50B52"/>
		<stop  offset="0.1982" style="stop-color:#D50E54"/>
		<stop  offset="0.3342" style="stop-color:#D7175A"/>
		<stop  offset="0.4518" style="stop-color:#DA2665"/>
		<stop  offset="0.5587" style="stop-color:#DD3C75"/>
		<stop  offset="0.6586" style="stop-color:#E25889"/>
		<stop  offset="0.7531" style="stop-color:#E87AA1"/>
		<stop  offset="0.8435" style="stop-color:#EFA3BE"/>
		<stop  offset="0.9284" style="stop-color:#F7D2DF"/>
		<stop  offset="1" style="stop-color:#FFFFFF"/>
	</linearGradient>
	<path class="st10" d="M17.3,30.7c-0.3-0.2-0.5-0.3-0.8-0.5c-0.1-0.1-0.1-0.1-0.2-0.2c-0.1-0.1-0.1-0.1-0.2-0.2
		c-0.1-0.1-0.1-0.1-0.2-0.2c-0.1-0.1-0.1-0.1-0.2-0.2c-0.1-0.1-0.1-0.1-0.2-0.2c-0.1-0.1-0.1-0.1-0.2-0.2c-0.1-0.1-0.1-0.1-0.2-0.2
		c-0.1-0.1-0.1-0.1-0.2-0.2c-0.1-0.1-0.1-0.1-0.2-0.2c-0.1-0.1-0.1-0.1-0.2-0.2c-0.1-0.1-0.1-0.1-0.1-0.2c-0.1-0.1-0.1-0.1-0.2-0.2
		c0,0,0-0.1-0.1-0.1l-3.1,5.4c0,0,0,0,0,0c0,0,0,0,0,0c0.9,0.9,2,1.7,3.2,2.4c1.2,0.7,2.4,1.2,3.7,1.5v-6.2c0,0,0,0,0,0
		C17.8,31,17.5,30.8,17.3,30.7z"/>
	<path class="st11" d="M19.5,31.6c-0.5-0.1-1-0.3-1.4-0.5C18.5,31.3,19,31.5,19.5,31.6z"/>
	<path class="st11" d="M19.7,31.7c-0.1,0-0.2,0-0.2-0.1C19.5,31.6,19.6,31.6,19.7,31.7z"/>
	<path class="st11" d="M20,31.7c-0.1,0-0.1,0-0.2,0C19.8,31.7,19.9,31.7,20,31.7z"/>
	<path class="st11" d="M26.1,31.1c-0.1,0-0.1,0.1-0.2,0.1C25.9,31.1,26,31.1,26.1,31.1z"/>
	<path class="st11" d="M20.2,31.8c0,0-0.1,0-0.1,0C20.1,31.8,20.2,31.8,20.2,31.8z"/>
	<path class="st11" d="M23.5,31.9C23.4,31.9,23.4,31.9,23.5,31.9C23.4,31.9,23.4,31.9,23.5,31.9z"/>
	<path class="st11" d="M23.7,31.8C23.7,31.8,23.7,31.8,23.7,31.8C23.7,31.8,23.7,31.8,23.7,31.8z"/>
	<path class="st11" d="M23.2,31.9C23.2,31.9,23.2,31.9,23.2,31.9C23.2,31.9,23.2,31.9,23.2,31.9z"/>
	<path class="st11" d="M26.1,37.3L26.1,37.3C26.1,37.3,26.1,37.3,26.1,37.3C26.1,37.3,26.1,37.3,26.1,37.3z"/>
	<path class="st11" d="M18,37.3C18,37.3,18,37.3,18,37.3C18,37.3,18,37.3,18,37.3L18,37.3z"/>
	<path class="st11" d="M25.9,31.2c-0.1,0-0.1,0.1-0.2,0.1C25.7,31.2,25.8,31.2,25.9,31.2z"/>
	<path class="st11" d="M20.7,31.9C20.7,31.9,20.7,31.9,20.7,31.9C20.7,31.9,20.7,31.9,20.7,31.9z"/>
	<path class="st11" d="M21,31.9C20.9,31.9,20.9,31.9,21,31.9C20.9,31.9,20.9,31.9,21,31.9z"/>
	<path class="st11" d="M24.6,31.6c0,0-0.1,0-0.1,0C24.5,31.7,24.5,31.6,24.6,31.6z"/>
	<path class="st11" d="M24.9,31.5c-0.1,0-0.1,0-0.2,0.1C24.7,31.6,24.8,31.6,24.9,31.5z"/>
	<path class="st11" d="M25.1,31.5c-0.1,0-0.2,0.1-0.2,0.1C25,31.5,25.1,31.5,25.1,31.5z"/>
	<path class="st11" d="M25.6,31.3c-0.2,0.1-0.3,0.1-0.5,0.2C25.3,31.4,25.5,31.3,25.6,31.3z"/>
	<path class="st11" d="M24.3,31.7C24.2,31.7,24.2,31.7,24.3,31.7C24.2,31.7,24.2,31.7,24.3,31.7z"/>
	<path class="st11" d="M24,31.8C24,31.8,23.9,31.8,24,31.8C23.9,31.8,24,31.8,24,31.8z"/>
	<path class="st11" d="M20.5,31.8C20.4,31.8,20.4,31.8,20.5,31.8C20.4,31.8,20.4,31.8,20.5,31.8z"/>
	<linearGradient id="SVGID_5_" gradientUnits="userSpaceOnUse" x1="18.0184" y1="34.4414" x2="26.0254" y2="34.4414">
		<stop  offset="0" style="stop-color:#941B80"/>
		<stop  offset="0.2031" style="stop-color:#951E82"/>
		<stop  offset="0.3426" style="stop-color:#9A2787"/>
		<stop  offset="0.463" style="stop-color:#A1368F"/>
		<stop  offset="0.5726" style="stop-color:#AB4C9B"/>
		<stop  offset="0.6749" style="stop-color:#B868AB"/>
		<stop  offset="0.7718" style="stop-color:#C88ABE"/>
		<stop  offset="0.8644" style="stop-color:#DCB3D5"/>
		<stop  offset="0.9514" style="stop-color:#F1E2EF"/>
		<stop  offset="1" style="stop-color:#FFFFFF"/>
	</linearGradient>
	<path class="st12" d="M22.9,31.9C22.9,31.9,23,31.9,22.9,31.9c-0.3,0-0.6,0-0.9,0c-0.3,0-0.6,0-0.9,0c-0.1,0-0.1,0-0.2,0
		c0,0-0.1,0-0.1,0c-0.1,0-0.1,0-0.2,0c0,0-0.1,0-0.1,0c-0.1,0-0.1,0-0.2,0c0,0-0.1,0-0.1,0c-0.1,0-0.1,0-0.2,0c0,0-0.1,0-0.1,0
		c0,0-0.1,0-0.1,0c-0.1,0-0.1,0-0.2,0c0,0,0,0-0.1,0c-0.1,0-0.2,0-0.2-0.1c0,0,0,0,0,0c-0.5-0.1-1-0.3-1.4-0.5c0,0,0,0,0,0v6.2
		c0,0,0,0,0,0c0,0,0,0,0,0c1.3,0.3,2.6,0.5,4,0.5c1.4,0,2.7-0.2,4-0.5L22.9,31.9z"/>
	<path class="st2" d="M26,37.3C26,37.3,26.1,37.3,26,37.3C26.1,37.3,26,37.3,26,37.3L26,37.3z"/>
	<path class="st2" d="M28.5,29.5c-0.1,0.1-0.1,0.1-0.2,0.2C28.4,29.6,28.4,29.6,28.5,29.5z"/>
	<path class="st2" d="M25.9,31.2C25.9,31.2,25.9,31.2,25.9,31.2C25.9,31.2,25.9,31.2,25.9,31.2z"/>
	<path class="st2" d="M28.1,29.8C28,29.9,28,29.9,27.9,30C28,29.9,28,29.9,28.1,29.8z"/>
	<path class="st2" d="M25.6,31.3C25.6,31.3,25.6,31.3,25.6,31.3C25.6,31.3,25.6,31.3,25.6,31.3z"/>
	<path class="st2" d="M25.2,31.4C25.2,31.4,25.1,31.4,25.2,31.4C25.1,31.4,25.2,31.4,25.2,31.4z"/>
	<path class="st2" d="M29.5,28.4c-0.1,0.1-0.1,0.1-0.2,0.2C29.4,28.5,29.5,28.4,29.5,28.4z"/>
	<path class="st2" d="M29.9,28c-0.1,0.1-0.1,0.1-0.2,0.2C29.8,28.1,29.8,28,29.9,28z"/>
	<path class="st2" d="M24.9,31.5C24.9,31.5,24.9,31.5,24.9,31.5C24.9,31.5,24.9,31.5,24.9,31.5z"/>
	<path class="st2" d="M28.9,29.1c-0.1,0.1-0.1,0.1-0.2,0.2C28.7,29.3,28.8,29.2,28.9,29.1z"/>
	<path class="st2" d="M29.2,28.8c-0.1,0.1-0.1,0.1-0.2,0.2C29.1,28.9,29.2,28.8,29.2,28.8z"/>
	<path class="st2" d="M24.7,31.6c0,0-0.1,0-0.1,0C24.6,31.6,24.6,31.6,24.7,31.6z"/>
	<path class="st2" d="M23.7,31.8c-0.1,0-0.1,0-0.2,0C23.5,31.8,23.6,31.8,23.7,31.8z"/>
	<path class="st2" d="M33,33.3L33,33.3C33,33.3,33,33.3,33,33.3C33,33.3,33,33.3,33,33.3z"/>
	<path class="st2" d="M23.2,31.9c-0.1,0-0.1,0-0.2,0C23,31.9,23.1,31.9,23.2,31.9z"/>
	<path class="st2" d="M23.4,31.9c-0.1,0-0.1,0-0.2,0C23.3,31.9,23.4,31.9,23.4,31.9z"/>
	<path class="st2" d="M23.9,31.8c-0.1,0-0.2,0-0.2,0C23.8,31.8,23.9,31.8,23.9,31.8z"/>
	<path class="st2" d="M24.4,31.7c-0.1,0-0.1,0-0.2,0C24.3,31.7,24.4,31.7,24.4,31.7z"/>
	<path class="st2" d="M24.2,31.7c-0.1,0-0.1,0-0.2,0C24,31.8,24.1,31.7,24.2,31.7z"/>
	<linearGradient id="SVGID_6_" gradientUnits="userSpaceOnUse" x1="23.9371" y1="35.2109" x2="31.6085" y2="30.839">
		<stop  offset="0" style="stop-color:#662482"/>
		<stop  offset="0.2061" style="stop-color:#682784"/>
		<stop  offset="0.3476" style="stop-color:#6E3089"/>
		<stop  offset="0.4698" style="stop-color:#793F92"/>
		<stop  offset="0.581" style="stop-color:#88559E"/>
		<stop  offset="0.6848" style="stop-color:#9C71AE"/>
		<stop  offset="0.783" style="stop-color:#B493C2"/>
		<stop  offset="0.877" style="stop-color:#D0BCD9"/>
		<stop  offset="0.9652" style="stop-color:#F1EBF3"/>
		<stop  offset="1" style="stop-color:#FFFFFF"/>
	</linearGradient>
	<path class="st13" d="M27.6,30.2C27.6,30.2,27.6,30.2,27.6,30.2c-0.2,0.1-0.4,0.3-0.7,0.5c-0.3,0.2-0.5,0.3-0.8,0.4
		c-0.1,0-0.1,0.1-0.2,0.1c0,0,0,0,0,0c-0.1,0-0.1,0.1-0.2,0.1c0,0,0,0,0,0c-0.2,0.1-0.3,0.1-0.5,0.2c0,0,0,0,0,0
		c-0.1,0-0.2,0.1-0.2,0.1c0,0,0,0,0,0c-0.1,0-0.1,0-0.2,0.1c0,0-0.1,0-0.1,0c0,0-0.1,0-0.1,0c-0.1,0-0.1,0-0.2,0c0,0-0.1,0-0.1,0
		c-0.1,0-0.1,0-0.2,0c0,0,0,0,0,0c-0.1,0-0.1,0-0.2,0c0,0,0,0,0,0c-0.1,0-0.1,0-0.2,0c0,0,0,0,0,0c-0.1,0-0.1,0-0.2,0c0,0,0,0,0,0
		c-0.1,0-0.1,0-0.2,0c0,0,0,0,0,0l3.1,5.4c0,0,0,0,0,0c0,0,0,0,0,0c1.3-0.3,2.5-0.9,3.7-1.5c1.2-0.7,2.2-1.5,3.2-2.4L27.6,30.2z"/>
	<path class="st3" d="M31.4,24.5c0,0.1,0,0.1-0.1,0.2C31.4,24.6,31.4,24.6,31.4,24.5z"/>
	<path class="st3" d="M31.4,24.8c0,0.1,0,0.1,0,0.2C31.3,24.9,31.3,24.9,31.4,24.8z"/>
	<path class="st3" d="M31.3,25.1c0,0,0,0.1,0,0.1C31.2,25.2,31.3,25.1,31.3,25.1z"/>
	<path class="st3" d="M31.2,25.4C31.2,25.4,31.2,25.4,31.2,25.4C31.2,25.4,31.2,25.4,31.2,25.4z"/>
	<path class="st3" d="M31.6,23.7c0,0.3-0.1,0.5-0.1,0.8C31.5,24.2,31.5,24,31.6,23.7z"/>
	<path class="st3" d="M33,33.3C33,33.3,33,33.3,33,33.3C33,33.3,33,33.3,33,33.3L33,33.3z"/>
	<path class="st3" d="M31.6,23.5c0,0.1,0,0.2,0,0.2C31.6,23.6,31.6,23.6,31.6,23.5z"/>
	<path class="st3" d="M31.6,23.2c0,0.1,0,0.2,0,0.2C31.6,23.4,31.6,23.3,31.6,23.2z"/>
	<path class="st3" d="M27.9,30c-0.1,0.1-0.1,0.1-0.2,0.2C27.7,30.1,27.8,30,27.9,30z"/>
	<path class="st3" d="M29.4,28.6c-0.1,0.1-0.1,0.1-0.2,0.2C29.3,28.7,29.3,28.6,29.4,28.6z"/>
	<path class="st3" d="M29,29c-0.1,0.1-0.1,0.1-0.2,0.2C28.9,29.1,29,29,29,29z"/>
	<path class="st3" d="M28.3,29.7c-0.1,0.1-0.1,0.1-0.2,0.2C28.2,29.8,28.2,29.7,28.3,29.7z"/>
	<path class="st3" d="M30.9,26.1C30.9,26.1,30.9,26.1,30.9,26.1C30.9,26.1,30.9,26.1,30.9,26.1z"/>
	<path class="st3" d="M29.7,28.2c0,0.1-0.1,0.1-0.2,0.2C29.6,28.3,29.7,28.2,29.7,28.2z"/>
	<path class="st3" d="M31,25.9C31,25.9,31,25.9,31,25.9C31,25.9,31,25.9,31,25.9z"/>
	<path class="st3" d="M31.1,25.6C31.1,25.7,31.1,25.7,31.1,25.6C31.1,25.7,31.1,25.7,31.1,25.6z"/>
	<path class="st3" d="M28.7,29.3c-0.1,0.1-0.1,0.1-0.2,0.2C28.5,29.4,28.6,29.4,28.7,29.3z"/>
	<path class="st3" d="M37,26.3C37,26.3,37,26.3,37,26.3C37,26.3,37,26.3,37,26.3L37,26.3z"/>
	<linearGradient id="SVGID_7_" gradientUnits="userSpaceOnUse" x1="30.087" y1="32.6178" x2="34.5415" y2="24.9462">
		<stop  offset="4.878050e-03" style="stop-color:#29235C"/>
		<stop  offset="0.2096" style="stop-color:#2C265E"/>
		<stop  offset="0.3502" style="stop-color:#352F65"/>
		<stop  offset="0.4716" style="stop-color:#433E70"/>
		<stop  offset="0.5821" style="stop-color:#595480"/>
		<stop  offset="0.6852" style="stop-color:#747095"/>
		<stop  offset="0.7828" style="stop-color:#9592AF"/>
		<stop  offset="0.8762" style="stop-color:#BDBBCD"/>
		<stop  offset="0.9639" style="stop-color:#EAEAEF"/>
		<stop  offset="1" style="stop-color:#FFFFFF"/>
	</linearGradient>
	<path class="st14" d="M30.8,26.4C30.8,26.4,30.8,26.4,30.8,26.4c-0.1,0.2-0.2,0.5-0.4,0.8c-0.2,0.3-0.3,0.5-0.5,0.8
		c-0.1,0.1-0.1,0.1-0.2,0.2c0,0.1-0.1,0.1-0.2,0.2c-0.1,0.1-0.1,0.1-0.2,0.2c-0.1,0.1-0.1,0.1-0.2,0.2c-0.1,0.1-0.1,0.1-0.2,0.2
		c-0.1,0.1-0.1,0.1-0.2,0.2c-0.1,0.1-0.1,0.1-0.2,0.2c-0.1,0.1-0.1,0.1-0.2,0.2c-0.1,0.1-0.1,0.1-0.2,0.2c-0.1,0.1-0.1,0.1-0.2,0.2
		C28,29.9,28,29.9,27.9,30c-0.1,0.1-0.1,0.1-0.2,0.2c0,0-0.1,0-0.1,0.1l5.4,3.1c0,0,0,0,0,0c0,0,0,0,0,0c0.9-0.9,1.7-2,2.4-3.2
		c0.7-1.2,1.2-2.4,1.5-3.7L30.8,26.4z"/>
	<path class="st5" d="M31.4,20.1c0,0,0,0.1,0,0.1C31.4,20.2,31.4,20.2,31.4,20.1z"/>
	<path class="st5" d="M31.1,25.7c0,0.1,0,0.1-0.1,0.2C31,25.8,31,25.8,31.1,25.7z"/>
	<path class="st5" d="M31,25.9c0,0.1,0,0.1-0.1,0.2C30.9,26,31,26,31,25.9z"/>
	<path class="st5" d="M31.2,25.4c0,0.1,0,0.1-0.1,0.2C31.1,25.6,31.1,25.5,31.2,25.4z"/>
	<path class="st5" d="M31.2,25.2c0,0.1,0,0.1-0.1,0.2C31.2,25.3,31.2,25.3,31.2,25.2z"/>
	<path class="st5" d="M31.2,19.5c0,0.1,0,0.1,0.1,0.2C31.3,19.7,31.3,19.6,31.2,19.5z"/>
	<path class="st5" d="M30.9,18.5c0.1,0.3,0.3,0.6,0.4,1C31.1,19.2,31,18.9,30.9,18.5z"/>
	<path class="st5" d="M30.8,18.3c0,0.1,0.1,0.1,0.1,0.2C30.9,18.5,30.8,18.4,30.8,18.3z"/>
	<path class="st5" d="M31.3,19.8c0,0.1,0,0.1,0,0.2C31.4,19.9,31.3,19.9,31.3,19.8z"/>
	<path class="st5" d="M30.9,26.2c0,0.1,0,0.1-0.1,0.2C30.8,26.3,30.9,26.2,30.9,26.2z"/>
	<path class="st5" d="M31.5,20.4C31.5,20.4,31.5,20.5,31.5,20.4C31.5,20.5,31.5,20.4,31.5,20.4z"/>
	<path class="st5" d="M31.6,23.5C31.6,23.5,31.6,23.5,31.6,23.5C31.6,23.5,31.6,23.5,31.6,23.5z"/>
	<path class="st5" d="M37,18.3L37,18.3C37,18.3,37,18.3,37,18.3C37,18.3,37,18.3,37,18.3z"/>
	<path class="st5" d="M31.3,25c0,0,0,0.1,0,0.1C31.3,25.1,31.3,25,31.3,25z"/>
	<path class="st5" d="M31.6,20.9C31.6,21,31.6,21,31.6,20.9C31.6,21,31.6,21,31.6,20.9z"/>
	<path class="st5" d="M31.6,21.2C31.6,21.2,31.6,21.2,31.6,21.2C31.6,21.2,31.6,21.2,31.6,21.2z"/>
	<path class="st5" d="M31.5,20.7C31.5,20.7,31.5,20.7,31.5,20.7C31.5,20.7,31.5,20.7,31.5,20.7z"/>
	<path class="st5" d="M31.6,23.7C31.6,23.7,31.6,23.7,31.6,23.7C31.6,23.7,31.6,23.7,31.6,23.7z"/>
	<path class="st5" d="M31.4,24.7C31.4,24.7,31.4,24.8,31.4,24.7C31.4,24.8,31.4,24.7,31.4,24.7z"/>
	<path class="st5" d="M31.4,24.5C31.4,24.5,31.4,24.5,31.4,24.5C31.4,24.5,31.4,24.5,31.4,24.5z"/>
	<path class="st5" d="M37,26.4C37,26.4,37,26.4,37,26.4C37,26.4,37,26.4,37,26.4L37,26.4z"/>
	<linearGradient id="SVGID_8_" gradientUnits="userSpaceOnUse" x1="34.1532" y1="26.6693" x2="34.1532" y2="18.6997">
		<stop  offset="4.878050e-03" style="stop-color:#1D71B7"/>
		<stop  offset="0.2076" style="stop-color:#2073B8"/>
		<stop  offset="0.3469" style="stop-color:#2978BB"/>
		<stop  offset="0.4671" style="stop-color:#3882C0"/>
		<stop  offset="0.5765" style="stop-color:#4E90C7"/>
		<stop  offset="0.6786" style="stop-color:#6AA1D0"/>
		<stop  offset="0.7754" style="stop-color:#8CB7DB"/>
		<stop  offset="0.8678" style="stop-color:#B5D1E8"/>
		<stop  offset="0.9546" style="stop-color:#E4EEF6"/>
		<stop  offset="1" style="stop-color:#FFFFFF"/>
	</linearGradient>
	<path class="st15" d="M37,18.4l-5.4,3.1c0,0,0,0,0-0.1c0,0.3,0,0.6,0,0.9c0,0.3,0,0.6,0,0.9c0,0.1,0,0.2,0,0.2c0,0,0,0,0,0
		c0,0.1,0,0.2,0,0.2c0,0,0,0,0,0c0,0.3-0.1,0.5-0.1,0.8c0,0,0,0,0,0c0,0.1,0,0.1-0.1,0.2c0,0,0,0.1,0,0.1c0,0.1,0,0.1,0,0.2
		c0,0,0,0.1,0,0.1c0,0,0,0.1,0,0.1c0,0.1,0,0.1-0.1,0.2c0,0,0,0,0,0.1c0,0.1,0,0.1-0.1,0.2c0,0,0,0,0,0.1c0,0.1,0,0.1-0.1,0.2
		c0,0,0,0,0,0.1c0,0.1,0,0.1-0.1,0.2c0,0,0,0,0,0.1c0,0.1,0,0.1-0.1,0.2c0,0,0,0,0,0.1l6.2,0c0,0,0,0,0,0c0,0,0,0,0,0
		c0.3-1.3,0.5-2.6,0.5-4C37.5,21,37.3,19.6,37,18.4z"/>
	<path class="st7" d="M31.4,20c0,0,0,0.1,0,0.1C31.4,20.1,31.4,20,31.4,20z"/>
	<path class="st7" d="M31.6,21c0,0.1,0,0.1,0,0.2C31.6,21.1,31.6,21.1,31.6,21z"/>
	<path class="st7" d="M27.7,14.5c0.1,0.1,0.2,0.1,0.2,0.2C27.8,14.7,27.7,14.6,27.7,14.5z"/>
	<path class="st7" d="M31.3,19.7C31.3,19.8,31.3,19.8,31.3,19.7C31.3,19.8,31.3,19.8,31.3,19.7z"/>
	<path class="st7" d="M31.4,20.2c0,0.1,0,0.1,0,0.2C31.5,20.4,31.4,20.3,31.4,20.2z"/>
	<path class="st7" d="M31.6,21.2c0,0.1,0,0.1,0,0.2C31.6,21.4,31.6,21.3,31.6,21.2z"/>
	<path class="st7" d="M31.5,20.5c0,0.1,0,0.1,0,0.2C31.5,20.6,31.5,20.6,31.5,20.5z"/>
	<path class="st7" d="M31.5,20.7c0,0.1,0,0.1,0,0.2C31.6,20.9,31.5,20.8,31.5,20.7z"/>
	<path class="st7" d="M37,18.4C37,18.4,37,18.4,37,18.4C37,18.4,37,18.4,37,18.4L37,18.4z"/>
	<path class="st7" d="M28.5,15.2c0.1,0.1,0.1,0.1,0.2,0.2C28.6,15.3,28.5,15.3,28.5,15.2z"/>
	<path class="st7" d="M31.2,19.5C31.2,19.5,31.2,19.5,31.2,19.5C31.2,19.5,31.2,19.5,31.2,19.5z"/>
	<path class="st7" d="M29.5,16.3c0.1,0.1,0.1,0.1,0.2,0.2C29.7,16.5,29.6,16.4,29.5,16.3z"/>
	<path class="st7" d="M28.9,15.6c0.1,0.1,0.1,0.1,0.2,0.2C29,15.7,28.9,15.6,28.9,15.6z"/>
	<path class="st7" d="M33,11.4L33,11.4C33,11.4,33,11.4,33,11.4C33,11.4,33,11.4,33,11.4z"/>
	<path class="st7" d="M29.2,15.9c0.1,0.1,0.1,0.1,0.2,0.2C29.3,16.1,29.3,16,29.2,15.9z"/>
	<path class="st7" d="M30.9,18.5C30.9,18.5,30.9,18.5,30.9,18.5C30.9,18.5,30.9,18.5,30.9,18.5z"/>
	<path class="st7" d="M28.1,14.9c0.1,0.1,0.1,0.1,0.2,0.2C28.2,15,28.2,14.9,28.1,14.9z"/>
	<linearGradient id="SVGID_9_" gradientUnits="userSpaceOnUse" x1="34.6856" y1="20.5248" x2="31.2521" y2="12.7606">
		<stop  offset="0" style="stop-color:#00A099"/>
		<stop  offset="0.195" style="stop-color:#03A19A"/>
		<stop  offset="0.3289" style="stop-color:#0CA49E"/>
		<stop  offset="0.4446" style="stop-color:#1BAAA4"/>
		<stop  offset="0.5499" style="stop-color:#31B2AD"/>
		<stop  offset="0.6481" style="stop-color:#4DBDB8"/>
		<stop  offset="0.7412" style="stop-color:#70CAC6"/>
		<stop  offset="0.8302" style="stop-color:#99D9D6"/>
		<stop  offset="0.9151" style="stop-color:#C8EAE9"/>
		<stop  offset="0.9955" style="stop-color:#FCFEFE"/>
		<stop  offset="1" style="stop-color:#FFFFFF"/>
	</linearGradient>
	<path class="st16" d="M37,18.3C37,18.3,37,18.3,37,18.3c-0.4-1.3-0.9-2.5-1.5-3.7c-0.7-1.2-1.5-2.2-2.4-3.2l-3.1,5.4
		c0,0,0-0.1-0.1-0.1c0.2,0.3,0.4,0.5,0.5,0.8c0.1,0.3,0.3,0.5,0.4,0.8c0,0.1,0.1,0.1,0.1,0.2c0,0,0,0,0,0c0.1,0.3,0.3,0.6,0.4,1
		c0,0,0,0,0,0c0,0.1,0,0.1,0.1,0.2c0,0,0,0.1,0,0.1c0,0.1,0,0.1,0,0.2c0,0,0,0.1,0,0.1c0,0,0,0.1,0,0.1c0,0.1,0,0.1,0,0.2
		c0,0,0,0,0,0.1c0,0.1,0,0.1,0,0.2c0,0,0,0,0,0.1c0,0.1,0,0.1,0,0.2c0,0,0,0,0,0.1c0,0.1,0,0.1,0,0.2c0,0,0,0,0,0.1
		c0,0.1,0,0.1,0,0.2c0,0,0,0,0,0.1L37,18.3C37,18.4,37,18.4,37,18.3z"/>
	<path class="st9" d="M24.7,13.1c0.1,0,0.1,0,0.2,0.1C24.9,13.2,24.8,13.1,24.7,13.1z"/>
	<path class="st9" d="M33,11.4C33,11.4,33,11.4,33,11.4C33,11.4,33,11.4,33,11.4L33,11.4z"/>
	<path class="st9" d="M29.4,16.1c0.1,0.1,0.1,0.1,0.2,0.2C29.5,16.3,29.4,16.2,29.4,16.1z"/>
	<path class="st9" d="M28.3,15c0.1,0.1,0.1,0.1,0.2,0.2C28.4,15.1,28.4,15.1,28.3,15z"/>
	<path class="st9" d="M29.7,16.5c0.1,0.1,0.1,0.1,0.2,0.2C29.8,16.7,29.8,16.6,29.7,16.5z"/>
	<path class="st9" d="M25.8,13.5C25.8,13.5,25.9,13.5,25.8,13.5C25.9,13.5,25.8,13.5,25.8,13.5z"/>
	<path class="st9" d="M27.9,14.7c0.1,0,0.1,0.1,0.2,0.1C28,14.8,28,14.8,27.9,14.7z"/>
	<path class="st9" d="M29,15.7c0.1,0.1,0.1,0.1,0.2,0.2C29.2,15.9,29.1,15.8,29,15.7z"/>
	<path class="st9" d="M28.7,15.4c0.1,0.1,0.1,0.1,0.2,0.2C28.8,15.5,28.7,15.4,28.7,15.4z"/>
	<path class="st9" d="M25.3,13.3C25.3,13.3,25.4,13.3,25.3,13.3C25.4,13.3,25.3,13.3,25.3,13.3z"/>
	<path class="st9" d="M24.7,13.1c-0.6-0.2-1.2-0.3-1.8-0.3v0C23.5,12.8,24.1,12.9,24.7,13.1z"/>
	<path class="st9" d="M25.6,13.4C25.6,13.4,25.6,13.4,25.6,13.4C25.6,13.4,25.6,13.4,25.6,13.4z"/>
	<path class="st9" d="M25,13.2c0,0,0.1,0,0.1,0C25.1,13.2,25.1,13.2,25,13.2z"/>
	<path class="st9" d="M26,7.4L26,7.4C26,7.4,26,7.4,26,7.4C26,7.4,26,7.4,26,7.4z"/>
	<linearGradient id="SVGID_10_" gradientUnits="userSpaceOnUse" x1="32.011" y1="14.3931" x2="24.989" y2="9.3199">
		<stop  offset="0" style="stop-color:#94C01F"/>
		<stop  offset="0.2044" style="stop-color:#95C122"/>
		<stop  offset="0.3448" style="stop-color:#9AC32B"/>
		<stop  offset="0.466" style="stop-color:#A1C83A"/>
		<stop  offset="0.5763" style="stop-color:#ABCE50"/>
		<stop  offset="0.6792" style="stop-color:#B9D66C"/>
		<stop  offset="0.7767" style="stop-color:#C9DF8E"/>
		<stop  offset="0.87" style="stop-color:#DDEBB7"/>
		<stop  offset="0.9575" style="stop-color:#F3F8E6"/>
		<stop  offset="1" style="stop-color:#FFFFFF"/>
	</linearGradient>
	<path class="st17" d="M33,11.4C33,11.4,33,11.4,33,11.4c-1-1-2-1.8-3.2-2.5c-1.2-0.7-2.4-1.2-3.7-1.5v6.2c0,0,0,0-0.1,0
		c0.3,0.1,0.6,0.3,0.8,0.4c0.3,0.2,0.5,0.3,0.8,0.5c0.1,0.1,0.2,0.1,0.2,0.2c0.1,0,0.1,0.1,0.2,0.1c0.1,0.1,0.1,0.1,0.2,0.2
		c0.1,0.1,0.1,0.1,0.2,0.2c0.1,0.1,0.1,0.1,0.2,0.2c0.1,0.1,0.1,0.1,0.2,0.2c0.1,0.1,0.1,0.1,0.2,0.2c0.1,0.1,0.1,0.1,0.2,0.2
		c0.1,0.1,0.1,0.1,0.2,0.2c0.1,0.1,0.1,0.1,0.2,0.2c0.1,0.1,0.1,0.1,0.2,0.2c0.1,0.1,0.1,0.1,0.2,0.2c0,0,0,0.1,0.1,0.1L33,11.4
		C33,11.4,33,11.4,33,11.4z"/>
	<path class="st11" d="M18,7.4L18,7.4C18,7.4,18,7.4,18,7.4C18,7.4,18,7.4,18,7.4z"/>
	<path class="st11" d="M25.6,13.4c0.1,0,0.1,0,0.2,0.1C25.8,13.5,25.7,13.5,25.6,13.4z"/>
	<path class="st11" d="M19.3,13.1c0.1,0,0.1,0,0.2,0C19.4,13.1,19.3,13.1,19.3,13.1z"/>
	<path class="st11" d="M19.6,13.1C19.6,13.1,19.7,13,19.6,13.1C19.7,13,19.6,13.1,19.6,13.1z"/>
	<path class="st11" d="M19.9,13C19.9,13,19.9,13,19.9,13C19.9,13,19.9,13,19.9,13z"/>
	<path class="st11" d="M19,13.2c0.1,0,0.1,0,0.2-0.1C19.1,13.2,19.1,13.2,19,13.2z"/>
	<path class="st11" d="M18.3,13.5c0.1,0,0.1-0.1,0.2-0.1C18.4,13.5,18.3,13.5,18.3,13.5z"/>
	<path class="st11" d="M18.7,13.3c0.1,0,0.1-0.1,0.2-0.1C18.9,13.3,18.8,13.3,18.7,13.3z"/>
	<path class="st11" d="M18.5,13.4c0.1,0,0.1-0.1,0.2-0.1C18.6,13.4,18.6,13.4,18.5,13.4z"/>
	<path class="st11" d="M18.1,13.6c0.1,0,0.1-0.1,0.2-0.1C18.2,13.6,18.1,13.6,18.1,13.6z"/>
	<path class="st11" d="M20.9,12.8C20.9,12.8,20.9,12.8,20.9,12.8C20.9,12.8,20.9,12.8,20.9,12.8z"/>
	<path class="st11" d="M25.2,13.3c0.1,0,0.1,0,0.2,0.1C25.3,13.3,25.2,13.3,25.2,13.3z"/>
	<path class="st11" d="M25.4,13.3c0.1,0,0.1,0,0.2,0.1C25.5,13.4,25.5,13.4,25.4,13.3z"/>
	<path class="st11" d="M25.9,13.5c0.1,0,0.1,0,0.2,0.1C26,13.6,25.9,13.6,25.9,13.5z"/>
	<path class="st11" d="M26.1,7.4C26.1,7.4,26.1,7.4,26.1,7.4C26.1,7.4,26.1,7.4,26.1,7.4L26.1,7.4z"/>
	<path class="st11" d="M24.9,13.2c0,0,0.1,0,0.1,0C25,13.2,25,13.2,24.9,13.2z"/>
	<path class="st11" d="M24.7,13.1C24.7,13.1,24.7,13.1,24.7,13.1C24.7,13.1,24.7,13.1,24.7,13.1z"/>
	<linearGradient id="SVGID_11_" gradientUnits="userSpaceOnUse" x1="20.1113" y1="9.1906" x2="13.2647" y2="13.9749">
		<stop  offset="0" style="stop-color:#FBE910"/>
		<stop  offset="0.1997" style="stop-color:#FBE913"/>
		<stop  offset="0.3367" style="stop-color:#FBEA1C"/>
		<stop  offset="0.4552" style="stop-color:#FBEB2B"/>
		<stop  offset="0.5629" style="stop-color:#FCED41"/>
		<stop  offset="0.6635" style="stop-color:#FCF05D"/>
		<stop  offset="0.7588" style="stop-color:#FDF380"/>
		<stop  offset="0.8499" style="stop-color:#FEF7A9"/>
		<stop  offset="0.9354" style="stop-color:#FEFBD7"/>
		<stop  offset="1" style="stop-color:#FFFFFF"/>
	</linearGradient>
	<path class="st18" d="M18.1,7.4C18.1,7.4,18.1,7.4,18.1,7.4C18,7.4,18,7.4,18.1,7.4c-1.3,0.4-2.6,0.9-3.8,1.6
		c-1.2,0.7-2.2,1.5-3.2,2.4l5.4,3.1c0,0-0.1,0-0.1,0.1c0.3-0.2,0.5-0.4,0.8-0.5c0.3-0.2,0.5-0.3,0.8-0.4c0.1,0,0.1-0.1,0.2-0.1
		c0,0,0,0,0,0c0.1,0,0.1-0.1,0.2-0.1c0,0,0,0,0,0c0.1,0,0.1-0.1,0.2-0.1c0,0,0,0,0,0c0.1,0,0.1-0.1,0.2-0.1c0,0,0,0,0,0
		c0.1,0,0.1,0,0.2-0.1c0,0,0.1,0,0.1,0c0.1,0,0.1,0,0.2,0c0.1,0,0.1,0,0.2,0c0,0,0.1,0,0.1,0c0.1,0,0.1,0,0.2-0.1c0,0,0,0,0,0
		c0.3-0.1,0.7-0.1,1-0.2c0,0,0,0,0,0c0.1,0,0.2,0,0.2,0c0,0,0,0,0,0L18.1,7.4z"/>
	<linearGradient id="SVGID_12_" gradientUnits="userSpaceOnUse" x1="26.5971" y1="10.2562" x2="18.5902" y2="10.2562">
		<stop  offset="0" style="stop-color:#DDDB00"/>
		<stop  offset="0.195" style="stop-color:#DDDB03"/>
		<stop  offset="0.3289" style="stop-color:#DFDD0C"/>
		<stop  offset="0.4446" style="stop-color:#E1DF1B"/>
		<stop  offset="0.5499" style="stop-color:#E4E231"/>
		<stop  offset="0.6481" style="stop-color:#E7E64D"/>
		<stop  offset="0.7412" style="stop-color:#ECEB70"/>
		<stop  offset="0.8302" style="stop-color:#F1F199"/>
		<stop  offset="0.9151" style="stop-color:#F8F7C8"/>
		<stop  offset="0.9955" style="stop-color:#FFFFFC"/>
		<stop  offset="1" style="stop-color:#FFFFFF"/>
	</linearGradient>
	<path class="st19" d="M26.1,7.4C26,7.4,26,7.4,26.1,7.4c-1.3-0.3-2.6-0.5-4-0.5c-1.4,0-2.7,0.2-4,0.5l3.1,5.4c0,0,0,0,0,0
		c0.3,0,0.6,0,0.9,0c0.3,0,0.6,0,0.9,0c0.6,0.1,1.2,0.2,1.8,0.3c0,0,0,0,0.1,0c0.1,0,0.1,0,0.2,0.1c0,0,0.1,0,0.1,0c0,0,0.1,0,0.1,0
		c0.1,0,0.1,0,0.2,0.1c0,0,0.1,0,0.1,0c0.1,0,0.1,0,0.2,0.1c0,0,0,0,0.1,0c0.1,0,0.1,0,0.2,0.1c0,0,0,0,0.1,0c0.1,0,0.1,0,0.2,0.1
		c0,0,0,0,0.1,0L26.1,7.4C26.1,7.4,26.1,7.4,26.1,7.4z"/>
</g>
</svg>
