<?xml version="1.0" encoding="utf-8"?>
<!-- Generator: Adobe Illustrator 21.0.0, SVG Export Plug-In . SVG Version: 6.00 Build 0)  -->
<svg version="1.1" id="Слой_1" xmlns="http://www.w3.org/2000/svg" xmlns:xlink="http://www.w3.org/1999/xlink" x="0px" y="0px"
	 viewBox="0 0 44.2 44.2" style="enable-background:new 0 0 44.2 44.2;" xml:space="preserve">
<style type="text/css">
	.st0{fill:none;stroke:#979998;stroke-width:1.5793;stroke-miterlimit:10;}
	.st1{fill:#979998;}
</style>
<circle class="st0" cx="22.2" cy="22.1" r="20.9"/>
<g>
	<polygon class="st1" points="16.8,22.3 22.1,29.9 27.5,22.3 22.1,14.8 	"/>
	<path class="st1" d="M30.7,21.5c0-5.1,3.2-6.7,5.7-9c-0.5-1.2-1.7-4.1-1.7-4.1s-5,4.4-9.1-0.9c0,0-2.8,2.3-6.7,0c0,0-2.6,4.9-9.1,1
		C9.1,9.9,8,12.5,8,12.5s6.1,3,5.8,9c-0.3,6-4,9.1-5.8,11.1c0.9,1.1,3,3.9,3,3.9s6.8-5.3,11.3,2.6c0.3-0.7,3.3-7.3,11.3-2.8
		c0.7-0.7,2.8-3.7,2.8-3.7S30.9,27.8,30.7,21.5z M22.1,33.1l-7.7-10.8l7.7-10.8l7.7,10.8L22.1,33.1z"/>
</g>
</svg>
