<?xml version="1.0" encoding="utf-8"?>
<!-- Generator: Adobe Illustrator 21.0.0, SVG Export Plug-In . SVG Version: 6.00 Build 0)  -->
<svg version="1.1" id="Слой_1" xmlns="http://www.w3.org/2000/svg" xmlns:xlink="http://www.w3.org/1999/xlink" x="0px" y="0px"
	 viewBox="0 0 115.3 94.2" style="enable-background:new 0 0 115.3 94.2;" xml:space="preserve">
<style type="text/css">
	.st0{fill:#F1F1F1;}
	.st1{fill:#A62223;stroke:#A62323;stroke-width:0.7508;stroke-linejoin:round;stroke-miterlimit:10;}
	.st2{fill:#A62223;stroke:#A62323;stroke-width:1.1262;stroke-linejoin:round;stroke-miterlimit:10;}
</style>
<circle class="st0" cx="70" cy="46.5" r="44"/>
<g>
	<path class="st1" d="M97.4,49.3c-0.1-0.3-0.3-0.6-0.5-0.7L73.5,38.1c-0.3-0.2-0.7-0.1-1,0.2l-6.9,6.1l-6.9-6.1
		c-0.3-0.2-0.7-0.3-1-0.2L34.4,48.6c-0.3,0.1-0.5,0.4-0.5,0.7c-0.1,0.3,0,0.6,0.3,0.8l7.4,7.1l-4.2,7.3c-0.3,0.5-0.1,1,0.4,1.3
		l4,2.3v9.4c0,0.3,0.2,0.7,0.5,0.8l22.9,13.3c0.1,0.1,0.3,0.1,0.5,0.1c0.2,0,0.3,0,0.5-0.1c0,0,0,0,0,0L89,78.5
		c0.3-0.2,0.5-0.5,0.5-0.8v-9.4l4-2.3c0.5-0.3,0.6-0.8,0.4-1.3l-4.2-7.3l7.4-7.1C97.4,49.9,97.5,49.6,97.4,49.3z M74.1,64l-7.5-4.4
		V47.1l19.9,10L74.1,64z M44.8,57.1l19.9-10v12.5L57.2,64L44.8,57.1z M36.5,49.7L58,40.1l6,5.3L42.9,56L36.5,49.7z M39.5,64.7
		l3.6-6.3L64.2,70l-4.7,6.1L39.5,64.7z M64.7,89.3l-21-12.2v-7.8l15.6,8.9c0.1,0.1,0.3,0.1,0.5,0.1c0.3,0,0.6-0.1,0.8-0.4l4.2-5.4
		V89.3z M65.6,68.7l-6.5-3.6l6.5-3.8l6.5,3.8L65.6,68.7z M87.6,77.1l-21,12.2V72.5l4.2,5.4c0.2,0.2,0.5,0.4,0.8,0.4
		c0.2,0,0.3,0,0.5-0.1l15.6-8.9V77.1z M91.8,64.7l-20,11.4L67.1,70l21.1-11.6L91.8,64.7z M88.4,56L67.3,45.4l6-5.3l21.5,9.7L88.4,56
		z"/>
	<path class="st2" d="M83.9,32.8l-15.9-9.2c-0.3-0.1-0.5-0.2-0.8-0.2c1.2-2.1,1.8-4.5,1.8-7c0-8-6.5-14.5-14.5-14.5S40,8.4,40,16.4
		s6.5,14.5,14.5,14.5c4.3,0,8.2-1.9,10.9-4.9c0.1,0.3,0.4,0.7,0.8,0.9L82,36c0.9,0.5,2,0.2,2.5-0.7C85,34.5,84.7,33.3,83.9,32.8z
		 M54.5,29.3c-7.1,0-12.9-5.8-12.9-12.9S47.3,3.5,54.5,3.5s12.9,5.8,12.9,12.9S61.6,29.3,54.5,29.3z"/>
</g>
</svg>
