<?xml version="1.0" encoding="utf-8"?>
<!-- Generator: Adobe Illustrator 21.0.0, SVG Export Plug-In . SVG Version: 6.00 Build 0)  -->
<svg version="1.1" id="Слой_1" xmlns="http://www.w3.org/2000/svg" xmlns:xlink="http://www.w3.org/1999/xlink" x="0px" y="0px"
	 viewBox="0 0 115.3 94.2" style="enable-background:new 0 0 115.3 94.2;" xml:space="preserve">
<style type="text/css">
	.st0{fill:#F1F1F1;}
	.st1{fill:#A62223;}
</style>
<circle class="st0" cx="70" cy="46.5" r="44"/>
<g>
	<path class="st1" d="M73.6,79c1.1-1.6,2-3.3,2.7-5.1c0.7-1.8,1.1-3.6,1.3-5.5c0.1-1,0-2-0.1-2.9c-0.1-0.5-0.2-1.2-0.3-1.6L77,63
		l-1,0.1c-3.3,0.2-6.4,1.5-9.4,4c-1.5,1.2-2.8,2.5-4,4c0,0,0,0,0,0c-1.2-2-2-3.7-2.4-5.1c6.5-4.8,12-10.1,16.7-14.8
		c3.1-3.1,6.6-6.8,9.5-11.1c2.6-3.8,4.8-8.1,6.5-12.5c3.5-8.9,4.1-17.5,2-25.6l-0.3-0.9l-1,0c-1,0-2.7,0.2-3.9,0.4
		c-2.3,0.4-4.7,1-7.1,1.8C78.2,4.6,74,6.8,70.2,9.8c-3.8,2.9-7.3,6.3-10.3,10.1c-3.3,4-5.9,8.4-8,12.2c-4.1,7.2-7.2,14.1-9.5,20.7
		c-1.5,0-3.4-0.2-5.6-0.8c0,0,0,0,0,0c1-1.5,1.9-3.2,2.6-4.9c1.5-3.5,1.8-7,1.1-10.1l-0.2-1l-1,0.1c-0.4,0-1,0.1-1.6,0.2
		c-0.9,0.2-1.8,0.4-2.8,0.8c-1.7,0.6-3.3,1.6-4.9,2.8c-1.5,1.2-2.9,2.5-4.1,4.1c-1.3,1.6-2.3,3.3-3.2,4.8c-2.1,3.6-3.6,7-4.6,10.3
		c-0.3,1-0.5,1.9-0.7,2.8c0,0.2-0.1,0.5-0.1,0.7c0,0.1,0,0.2,0,0.3c0,0.1,0,0.2,0,0.2c-0.1,0.2-0.2,1,0.6,1.6
		c0.1,0.1,0.1,0.1,0.2,0.1l0,0c0.2,0.1,0.3,0.2,0.4,0.3l0.1,0.1c0.1,0.1,0.2,0.2,0.3,0.3c0.1,0.1,0.2,0.2,0.3,0.3
		c0.6,0.4,1.1,0.5,1.7,0.2c0.2-0.1,0.4-0.2,0.6-0.3c0.1-0.1,0.3-0.2,0.4-0.2c0.8-0.4,1.5-0.9,2.5-1.5c2-1.3,3.7-2.8,5.3-4.3
		c1.9,0.9,3.7,2,5.3,3.2c1.4,1,2.6,2.1,3.5,3.2c-0.1,0.6-0.2,1.2-0.3,1.8c0,0.2,0,0.4-0.1,0.6c0,0.3-0.1,0.6-0.1,0.9
		c-0.1,0.5-0.1,1.3,0.9,2.1c0.1,0.1,0.3,0.2,0.5,0.3c0.1,0,0.1,0.1,0.2,0.1c0.4,0.3,0.9,0.6,1.3,0.9l0.3,0.2
		c0.3,0.2,0.6,0.5,0.9,0.7c0.3,0.2,0.6,0.4,0.9,0.7c0.4,0.3,1.2,0.9,2.4,0.4c0.6-0.3,1.1-0.5,1.6-0.8c0.4-0.2,0.8-0.4,1.2-0.6
		c0,0,0,0,0.1,0c1.3,0.6,2.7,1.4,4.1,2.5c1.6,1.2,3.2,2.7,4.6,4.2c-0.9,1.9-1.8,4.1-2.5,6.3c-0.3,1.1-0.6,2-0.7,2.8
		c0,0.2-0.1,0.3-0.1,0.5c0,0.2-0.1,0.5-0.1,0.7c-0.1,0.6,0.1,1.2,0.7,1.6c0.1,0.1,0.2,0.2,0.3,0.2c0.1,0.1,0.2,0.2,0.3,0.2l0.1,0.1
		c0.1,0.1,0.3,0.2,0.4,0.3l0,0c0.1,0.1,0.1,0.1,0.2,0.2c0.8,0.6,1.5,0.2,1.7,0.1c0.1,0,0.1-0.1,0.2-0.1c0.1,0,0.2-0.1,0.2-0.1
		c0.2-0.1,0.5-0.2,0.7-0.3c0.8-0.4,1.6-0.9,2.5-1.5c2.8-1.9,5.6-4.3,8.5-7.4C71.1,82.2,72.4,80.7,73.6,79z M75,65.7
		c0,0.1,0,0.1,0,0.2c0.1,0.8,0.1,1.6,0,2.5c-0.1,1.6-0.5,3.1-1.1,4.7c-0.1,0.3-0.2,0.6-0.4,0.9c-2.3-1.1-4.4-2.6-6.1-4.5
		c0.2-0.2,0.4-0.3,0.6-0.5C70.3,67.1,72.6,66,75,65.7z M46.4,49.2c2.4,2.3,5,4.4,7.6,6.4c2.7,2,5.5,3.8,8.3,5.4
		c-0.2,0.2-0.5,0.4-0.7,0.5C56,58.5,50.7,54.5,46,50C46.1,49.8,46.3,49.5,46.4,49.2z M91.8,22.9c-0.1,0.3-0.1,0.5-0.2,0.8
		c-5.5-4.9-11.6-9.4-17.9-13.3c0.2-0.2,0.4-0.3,0.7-0.5C80.5,13.6,86.5,18,91.8,22.9z M83.3,5.4c2.3-0.8,4.5-1.3,6.7-1.7
		c0.8-0.1,1.8-0.2,2.7-0.3C94,9,93.9,14.8,92.4,20.8c-5-4.4-10.5-8.5-16.2-12C78.5,7.4,80.8,6.3,83.3,5.4z M61.8,21.4
		c2.9-3.6,6.3-6.9,9.9-9.7c0,0,0.1-0.1,0.1-0.1c6.7,4,13.2,8.8,19,14.1c-0.1,0.3-0.2,0.5-0.3,0.8c-1.7,4.3-3.8,8.3-6.3,12
		c-2.8,4.1-6.2,7.8-9.2,10.8c-3.2,3.3-6.9,6.8-10.9,10.2c-6.1-3.4-11.9-7.7-16.9-12.5c1.9-4.4,4.1-9,6.8-13.7
		C56.1,29.6,58.7,25.3,61.8,21.4z M31.6,41.6c1.3-1,2.7-1.8,4.2-2.4c0.8-0.3,1.6-0.5,2.4-0.7c0.1,0,0.1,0,0.2,0
		c0.3,2.4-0.1,4.9-1.1,7.5c-0.1,0.2-0.2,0.4-0.3,0.7c-2.3-1.1-4.3-2.6-6-4.5C31.1,42,31.3,41.8,31.6,41.6z M31.3,54.6
		c-1.8,1.8-3.9,3.9-6.3,5.7l-3.7-2.8c0.9-2.5,2.1-5.1,3.7-7.8c0.8-1.4,1.8-3,2.9-4.5c0.4-0.6,0.9-1.1,1.4-1.6c0.9,1.1,2,2,3.1,2.8
		c1.1,0.8,2.3,1.5,3.5,2.1c-0.4,0.7-0.7,1.3-1.2,1.9C33.7,52.1,32.5,53.5,31.3,54.6z M32,57.5c0.4-0.4,0.8-0.8,1.2-1.2
		c0.7-0.7,1.4-1.4,2.1-2.3c2.5,0.8,4.6,1.1,6.4,1.2c-0.3,1.1-0.7,2.2-1,3.2c-0.4,1.5-0.8,2.9-1.1,4.3c-0.8-0.8-1.7-1.5-2.6-2.2
		C35.3,59.4,33.7,58.4,32,57.5z M47.6,70.8c-0.4,0.2-0.8,0.4-1.2,0.6c-0.5,0.2-0.9,0.5-1.4,0.7c0,0,0,0,0,0
		c-0.3-0.2-0.6-0.4-0.8-0.6c-0.3-0.3-0.7-0.5-1-0.8l-0.3-0.2c-0.4-0.3-0.9-0.7-1.4-1c-0.1-0.1-0.2-0.1-0.2-0.2
		c-0.1,0-0.2-0.1-0.2-0.2c0-0.3,0.1-0.5,0.1-0.8c0-0.2,0-0.3,0.1-0.5c0.1-0.6,0.2-1.2,0.3-1.8c0.4-2.2,0.9-4.4,1.6-6.9
		c0.6-2.3,1.4-4.6,2.3-6.9c2.2,2.1,4.5,4,7,5.8c2.4,1.8,5,3.5,7.6,5c-1.9,1.5-4,2.9-6.1,4.2C51.3,68.8,49.4,69.9,47.6,70.8z
		 M54.3,73.5c-1-0.7-2-1.4-2.9-1.9c1.1-0.6,2.3-1.3,3.7-2.2c1-0.6,2-1.3,2.9-2c0.6,1.7,1.5,3.6,3,5.8c-0.6,0.9-1.1,1.8-1.6,2.6
		c-0.3,0.5-0.5,0.9-0.8,1.4C57.3,75.9,55.8,74.6,54.3,73.5z M68.1,81.7c-2.2,2.3-4.3,4.2-6.4,5.8L58,84.7c1.1-2.9,2.4-5.5,3.6-7.7
		c0.8-1.4,1.7-3,2.9-4.5c0.5-0.6,1-1.1,1.5-1.7c0.9,1,1.9,2,3,2.8c1.1,0.8,2.3,1.5,3.6,2.1c-0.3,0.6-0.7,1.2-1.1,1.8
		C70.5,79.1,69.2,80.5,68.1,81.7z"/>
	<path class="st1" d="M66.8,38.4L66.8,38.4c4.7,3.5,11.3,2.4,14.8-2.3c3.5-4.7,2.6-11.4-2.1-14.9c-4.7-3.5-11.3-2.4-14.8,2.3
		C61.2,28.3,62.1,34.9,66.8,38.4z M78,23.2c3.6,2.6,4.3,7.8,1.6,11.4c-2.7,3.6-7.8,4.4-11.4,1.8l0,0c-3.6-2.6-4.3-7.8-1.6-11.4
		C69.4,21.4,74.5,20.6,78,23.2z"/>
	<ellipse transform="matrix(0.5956 -0.8033 0.8033 0.5956 5.6608 70.8109)" class="st1" cx="73.2" cy="29.8" rx="6.7" ry="6.6"/>
	<path class="st1" d="M64.7,41.3c-2.6-1.9-6.3-1.4-8.3,1.3c-2,2.7-1.4,6.4,1.2,8.3c2.6,1.9,6.3,1.4,8.3-1.3
		C67.8,46.9,67.3,43.2,64.7,41.3z M58.5,49.5c-1.9-1.4-2.3-4.1-0.8-6c1.4-1.9,4.1-2.3,6-0.9c1.9,1.4,2.3,4.1,0.8,6
		C63.1,50.5,60.4,50.9,58.5,49.5z"/>
	<ellipse transform="matrix(0.5956 -0.8033 0.8033 0.5956 -12.3047 67.6966)" class="st1" cx="61.1" cy="46.1" rx="3.6" ry="3.6"/>
</g>
</svg>
