<?xml version="1.0" encoding="utf-8"?>
<!-- Generator: Adobe Illustrator 21.0.0, SVG Export Plug-In . SVG Version: 6.00 Build 0)  -->
<svg version="1.1" id="Слой_1" xmlns="http://www.w3.org/2000/svg" xmlns:xlink="http://www.w3.org/1999/xlink" x="0px" y="0px"
	 viewBox="0 0 115.3 94.2" style="enable-background:new 0 0 115.3 94.2;" xml:space="preserve">
<style type="text/css">
	.st0{fill:#F1F1F1;}
	.st1{fill:#A62223;stroke:#A62223;stroke-width:0.7231;stroke-miterlimit:10;}
	.st2{fill:#A62223;}
</style>
<circle class="st0" cx="70" cy="46.5" r="44"/>
<path class="st1" d="M94.4,59.2l-19.5-8.6c-0.2-0.1-0.4-0.1-0.7,0l-19.5,8.6c-0.3,0.1-0.5,0.4-0.5,0.8v22.5c0,0.3,0.2,0.6,0.5,0.7
	l19.5,8.9c0.1,0,0.2,0.1,0.3,0.1c0.1,0,0.2,0,0.3-0.1c0,0,19.5-8.9,19.5-8.9c0.3-0.1,0.5-0.4,0.5-0.7V60
	C94.8,59.7,94.7,59.3,94.4,59.2z M66.1,64.5c-0.3,0.1-0.4,0.4-0.4,0.7v7.6L61.9,71v-7.5l18.4-8.8l3.3,1.5L66.1,64.5z M74.6,52.2
	l3.8,1.7L61.5,62l-4.4-2L74.6,52.2z M73.8,90.2L55.9,82V61.1l4.4,2v8.4c0,0.3,0.2,0.6,0.4,0.7l5.4,2.5c0.1,0,0.2,0.1,0.3,0.1
	c0.1,0,0.3,0,0.4-0.1c0.2-0.1,0.4-0.4,0.4-0.7v-7.7l6.6,3V90.2z M74.6,68l-6.2-2.8l17-8.2l6.7,3L74.6,68z M93.3,82l-17.9,8.2V69.3
	l17.9-8.2V82z"/>
<polygon class="st1" points="40.2,83.6 38.1,83.6 38.1,3.7 83.1,3.7 83.1,55 81.1,54.2 81.1,5.7 40.2,5.7 "/>
<circle class="st1" cx="59.6" cy="12.2" r="1.4"/>
<path class="st2" d="M72.9,45.7L72.9,45.7c-0.9,0-1.6-0.7-1.6-1.6V31.4c0-0.9,0.7-1.6,1.6-1.6l0,0c0.9,0,1.6,0.7,1.6,1.6V44
	C74.6,44.9,73.8,45.7,72.9,45.7z"/>
<polygon class="st1" points="55.8,83.6 38.9,83.6 38.9,81.5 55.4,81.5 "/>
</svg>
