<?xml version="1.0" encoding="utf-8"?>
<!-- Generator: Adobe Illustrator 21.0.0, SVG Export Plug-In . SVG Version: 6.00 Build 0)  -->
<svg version="1.1" id="Слой_1" xmlns="http://www.w3.org/2000/svg" xmlns:xlink="http://www.w3.org/1999/xlink" x="0px" y="0px"
	 viewBox="0 0 115.3 94.2" style="enable-background:new 0 0 115.3 94.2;" xml:space="preserve">
<style type="text/css">
	.st0{fill:#F1F1F1;}
	.st1{fill:#A62223;}
</style>
<circle class="st0" cx="70" cy="46.5" r="44"/>
<g>
	<path class="st1" d="M23.6,54c-5.1,0-9.3,4.2-9.3,9.3s4.2,9.3,9.3,9.3c5.1,0,9.3-4.2,9.3-9.3S28.7,54,23.6,54z M23.6,69.7
		c-3.6,0-6.5-2.9-6.5-6.5c0-3.6,2.9-6.5,6.5-6.5s6.5,2.9,6.5,6.5C30.1,66.8,27.2,69.7,23.6,69.7z"/>
	<circle class="st1" cx="23.6" cy="63.3" r="2.7"/>
	<path class="st1" d="M71.1,54c-5.1,0-9.3,4.2-9.3,9.3s4.2,9.3,9.3,9.3c5.1,0,9.3-4.2,9.3-9.3S76.2,54,71.1,54z M71.1,69.7
		c-3.6,0-6.5-2.9-6.5-6.5c0-3.6,2.9-6.5,6.5-6.5c3.6,0,6.5,2.9,6.5,6.5C77.6,66.8,74.7,69.7,71.1,69.7z"/>
	<circle class="st1" cx="71.1" cy="63.3" r="3"/>
	<path class="st1" d="M70,26.2h-7.4V35h13.7l-0.1-0.1C74.7,32.3,72,28.4,70,26.2z"/>
	<rect x="64.6" y="38.4" class="st1" width="4.5" height="1.6"/>
	<path class="st1" d="M88.8,35.5L81,32.2c-1-1.8-4.8-8.3-7.7-10.9C73,21.1,72.7,21,72.4,21H60.8v-7.7c0-0.8-0.6-1.4-1.4-1.4H2.6
		c-0.8,0-1.4,0.6-1.4,1.4v34.4c0,0.8,0.6,1.4,1.4,1.4h2.4v10.3c0,0.8,0.6,1.4,1.4,1.4h6.2c0.6,0,1.1-0.4,1.3-0.9
		c1.4-4.1,5.3-6.8,9.6-6.8c4.3,0,8.2,2.7,9.6,6.8c0.2,0.6,0.7,0.9,1.3,0.9h25.6c0.6,0,1.1-0.4,1.3-0.9c1.4-4.1,5.3-6.8,9.6-6.8
		c4.3,0,8.2,2.7,9.6,6.8c0.2,0.6,0.7,0.9,1.3,0.9h6.2c0.8,0,1.4-0.6,1.4-1.4V47.9V36.8C89.7,36.2,89.3,35.7,88.8,35.5z M4,46.3v-0.6
		h0V15.4h0v-0.8h54v31.6H4z M86.8,58H83c-2.1-4.7-6.7-7.7-11.9-7.7c-5.2,0-9.8,3.1-11.9,7.7H35.5c-2.1-4.7-6.7-7.7-11.9-7.7
		c-5.2,0-9.8,3.1-11.9,7.7H7.9v-8.7h51.5h27.4V58z M86.8,46.4h-26V23.8h11c3,2.9,6.9,10.1,7,10.2c0.2,0.3,0.4,0.5,0.7,0.6l7.4,3.1
		V46.4z"/>
</g>
</svg>
