<?xml version="1.0" encoding="utf-8"?>
<!-- Generator: Adobe Illustrator 21.0.0, SVG Export Plug-In . SVG Version: 6.00 Build 0)  -->
<svg version="1.1" id="Слой_1" xmlns="http://www.w3.org/2000/svg" xmlns:xlink="http://www.w3.org/1999/xlink" x="0px" y="0px"
	 viewBox="0 0 137 94.2" style="enable-background:new 0 0 137 94.2;" xml:space="preserve">
<style type="text/css">
	.st0{fill:#B0B1B2;}
	.st1{fill:#FDFDFD;}
</style>
<path class="st0" d="M97,77.6c-3.1,1.5-6.5,0.8-9.8,1.3C80.1,80,73,78.7,65.9,78.4c-6.4-0.3-12.8-0.8-19.1-2
	c-5.2-1-10.5-1.9-15.6-3.2c-5-1.3-10-2.3-14.9-3.9c-3-1-5.7-2.4-8.4-4.1c0.2,3.4,5.3,8.8,8.9,9.6c0.7-0.4,0.1-1.4,0.8-1.7
	c2.2,0.9,2.9,2.2,1.9,4.3c2.3-1.8,3.4,2.1,5.6,0.7c-1.6,2.1-3.4,0.1-5.2,0.3c-0.6,2,0.2,3,2.1,3.4c3.3,0.7,6.5,0.8,9.5-1.6
	c0.2,1.9-1.2,2.6-2.1,2.9c-3.1,1.1-6.1,1.5-9.1-0.7c-1.1-0.8-1.6-1.6-1.4-2.8c0.2-1.3-0.4-2.1-1.6-2.7c-6.9-3.5-11.5-8.8-13.5-16.3
	c-1.1-3.9-0.1-7.6,1.3-11.2c2.2-6,4.6-11.9,8.8-16.8c7.3-8.5,15.8-15.5,25.9-20.4C45.6,9.4,51.9,8,58,6c2.9-0.9,5.1-3.4,8.2-3.8
	c4.8-0.7,9.6-0.9,14.4,0.6c2.1,0.6,4.2,1.3,6.5,1.6c3.1,0.4,6.3,0.9,9,3.1c0.7,0.6,2.1,0.3,3,0.8c6.4,3.5,13.5,5.4,19.6,9.5
	c3,2,5.5,4.4,8.3,6.6c4.8,3.8,4.2,9.3,6,14.1c-2.6-3.7-2.7-8.5-5.3-12.3c-0.9,0.9-0.4,2.5-2.2,2.4c1.2-2.5-0.3-3.3-2.2-4.1
	c-3.8-1.6-6.8-4.5-10.2-6.5c-1.1,0.2-0.7,1.7-2,1.6c-0.7-1,0.8-1.5,0.4-2.7c-3.1-2.2-6.7-4.3-10.4-5.9C92.6,7.3,83.9,5,74.9,3.3
	c-1.5-0.3-2.6,0.4-3.8,0.8c-0.8-0.3,0-0.9-0.6-1.3c-2.7,0.1-5.3,0.6-8,2c0.5,0.4,0.8,0.6,1.2,0.9c-1.5,0.7-3.2,1-4,3.1
	c4.1-0.6,7.7-2.1,11.8-1.1c-0.3-1.7,0.6-2.5,2.2-2.3c3.9,0.5,7.9,0.1,11.4,2.5c0.7,0.5,1.6,0.2,2.5,0.2c1.4,0,2.8,0.1,3.7,1.4
	c0.4,0.6,1.1,0.4,1.6,0.6c3.4,1.4,6.8,2.8,10.1,4.4c0.9,0.4,1.9,1.4,1.2,2.6c-0.7,1.2-2,1.3-3.2,0.9c-2.3-0.7-3.4-1.8-4.2-4.3
	c-2.4,0.3-4.3-0.3-6-2.3c-1.2-1.3-3-0.3-4.5-0.6c-0.8-0.7-1.6-1.3-2.5-2.1c-2.1,0.7-4.3,0.6-5.9-2c-0.6,0.9-2,0.1-2.5,1.6
	c3.8,0.4,7.1,2.1,10.8,2.6c2.8,1.5,5.6,2.9,8.4,4.4c5.3,2.7,8.5,7.1,10.6,12.6c2.2,5.8-2.3,12.7-6.6,15.1c-4.4,2.5-9.3,3.4-14.3,2.8
	c-9.2-1-18.1-3.4-26.7-6.6c-3.7-1.4-6.8-3.5-9.2-6.8c-2.6-3.6-2.6-10.8,0.1-14.6c2.1-3,4.4-5.6,7.8-7c1.3-0.6,1.3-1.8,1.6-2.8
	c-1.4-0.8-2.6,0-3.8,0.3c-13.7,3.3-25.2,10.6-35.1,20.4C12.2,35.2,7.9,43.1,5.6,52.1c-0.7,2.7-1.1,5.2-0.6,8.2c1.6-1,1-2.5,1.1-3.6
	c1.2-7.3,4.2-13.6,9.7-18.6c2.8-2.6,6.3-3.7,10.1-4c7.1-0.5,13.4,2,19.6,4.7c11.2,4.8,22.2,10,33.7,14.1c3.6,1.3,7.1,2.6,10.7,3.7
	c0.5,0.1,1,0.2,1.3,1c-1.3,0.5-2.5-0.2-3.6-0.5c-10.5-3.3-20.5-7.7-30.6-12c-7.4-3.2-14.7-6.7-22.5-9c-8.3-2.5-16.8-0.5-22.1,7.2
	c-0.2,0.2-0.2,0.5-0.4,0.9c1.6,0,1.7-1.9,3.2-2c-0.1,1.2-1.1,1.9-1.7,2.8c-3.1,4.3-5.3,9-5.9,14.3c-0.2,1.4-1.3,2.9-0.3,4.2
	c0.8,1.2,2.4,1.4,3.7,2.1c5.3,2.8,10.9,4.4,16.7,5.6c5.5,1.1,10.9,2.4,16.4,3.4c7.1,1.2,14.2,2,21.3,2.6c5.2,0.4,10.4,0.8,15.6,0.9
	c4.2,0.1,8.3-0.3,12.4-0.9C94.6,77.1,95.9,76.9,97,77.6L97,77.6z M11.2,46.1c0.4-0.4,1-0.6,0.6-1.4c-0.7,0.1-0.6,0.7-0.7,1.2
	c-0.3,0.1-0.7,0.3-0.6,0.8c0,0.1,0.3,0.2,0.4,0.2C11,46.7,11.1,46.4,11.2,46.1z M86.6,44.8c5.6,0,10.8-1.1,14.8-5.6
	c3.1-3.6,3.7-9.7,1.3-13.1c-3.1-4.4-7.2-7.6-11.7-10.2c-5.7-3.4-11.9-5.2-18.3-6.5c-8.5-1.7-16,0.5-21.8,7.1
	c-3,3.4-4.5,7.5-3.1,12.2c1.5,5.2,5.5,7.9,10.1,9.7c5,2,10.2,3.3,15.5,4.4C77.7,43.5,82,44.7,86.6,44.8z M124.2,23.3
	c-3.3-3.1-6.9-5.7-11.2-7.3C116.2,19.3,120.1,21.5,124.2,23.3z M17.8,75.9c0.1,0.1,0.2,0.3,0.3,0.3c0.2,0,0.7,0.2,0.5-0.3
	C18.5,75.7,18.1,75.6,17.8,75.9z"/>
<path class="st0" d="M97,77.6c1.1-1.6,2.9-1,4.3-1.2c8.7-1.4,17.1-3.6,24.8-8.2c2.2-1.3,4-3.2,6.1-4.7c1.1-0.8,1.4-2.8,1.4-4.4
	c-0.1-5.7,0-11.4-1.3-17c-0.1-0.5,0-1,0-1.7c1.3,0.3,1.5,1.2,1.6,2.1c0.8,6.2,1.3,12.5,0.3,18.6c-0.8,5.5-4,10.4-8.6,14
	c-5.7,4.3-12.2,6.7-19,8.7c-3.1,0.9-5.9,1.4-9.2,1.3c-5.6-0.1-11.3,0.6-17,0.4c-4.6-0.2-9.2-0.6-13.8-0.6c-1,0-1.9-0.3-2.9-0.5
	c-1.2,2.4-2.6,2.6-4,0.4c-0.4-0.6-0.8-0.8-1.4-0.9c-6.7-0.7-13.3-2-19.8-3.8c-4.8-1.3-9.5-3.1-14-5.3c-0.3-0.2-0.7-0.4-0.5-1.1
	c2.6,0.5,4.9,1.7,7.2,2.6c7.1,2.8,14.6,4.4,22.1,5.7c14.4,2.6,29,2.4,43.5,1.8c9.7-0.4,18.9-3.3,27-9c2.9-2.1,5.5-4.5,7-8.6
	C120.3,73.4,109.4,77.7,97,77.6C97,77.6,97,77.6,97,77.6z M130.9,66l0.1,0.1l0-0.2L130.9,66z"/>
<path class="st0" d="M126.4,57.7c-3.1,3-7,4.1-11,4.8c-11.5,1.8-22.3-1.1-33.1-4.6c-11.4-3.8-22.4-8.7-33.6-13
	c-5.7-2.2-11.3-4.7-17.4-5.8c-4.3-0.8-8.4-0.4-12.4,1.3c-0.7,0.3-1.3,0.9-2.5,0.5c2.4-1.9,4.9-2.8,7.8-3.1
	c6.4-0.6,12.3,1.2,18.3,3.4c9,3.4,17.8,7.3,26.8,10.7c10.4,4,20.9,7.9,32,9.5c8.7,1.3,17.2,0.3,25-4.1
	C126.2,57.5,126.3,57.6,126.4,57.7z"/>
<path class="st0" d="M126.1,57.4c0.4-0.7,1.3-1.1,1.4-2.5c-4.9,3.7-10.1,5-15.7,5.9c-5.7,0.9-10.8-0.5-16.1-1.7
	c3.6-0.5,7,0.9,10.5,0.8c5.4-0.1,10.7-0.8,15.8-2.8c3.9-1.6,6.4-4.4,8.1-8.2c0.3-0.6,0.2-1.4,1-1.6c1,4.1-1,8.6-4.8,10.5
	C126.3,57.6,126.2,57.5,126.1,57.4z M129.2,52.7c-0.5,0.2-0.7,0.5-0.4,1.1C129.5,53.6,129.4,53.2,129.2,52.7z"/>
<path class="st0" d="M79.7,87.8c0.3,2.1,1.6,2.8,3.6,2.7c2.2-0.1,4.5,0,7,0c-0.8,2.5-2.9,1.9-4.3,2.2c-2.9,0.5-5.4-0.3-7-3
	C78.5,88.9,78.5,88.2,79.7,87.8z"/>
<path class="st1" d="M11.2,46c0.1-0.5,0-1.1,0.8-1.2c0.5,0.8-0.2,1-0.6,1.4C11.3,46.2,11.3,46.1,11.2,46z"/>
<path class="st1" d="M11.4,46.2c-0.1,0.2-0.3,0.5-0.4,0.7c0,0-0.3-0.1-0.4-0.2c-0.1-0.5,0.3-0.6,0.6-0.8
	C11.3,46.1,11.3,46.2,11.4,46.2z"/>
<polygon class="st1" points="130.9,66 131.1,65.9 131,66.1 "/>
<path class="st0" d="M53.5,29.3c1.4,2.8,4.3,3.8,6.9,4.9c5.8,2.5,11.9,3.8,18.1,5c0.8,0.2,1.6,0.5,2.9,0.8c-2.1,1.1-3.6,0.2-5-0.1
	c-6.3-1.3-12.4-3.1-18.4-5.7c-6.9-3-9.2-11.2-3.3-17.3c5.1-5.3,11.2-6.1,17.8-4.5c7.5,1.8,14.7,4.6,21.1,9.1
	c2.4,1.7,4.5,3.7,5.6,6.4c2.1,4.8-0.3,9.6-5.5,11.9c-3.9,1.8-7.8,2-12.2,0.7c1.3-0.9,2.5-0.4,3.6-0.5c1.7-0.1,3.4,0.1,5-0.1
	c0.7-0.1,1.8,0,1.8-1.2c1.9,0.4,4.6-1.2,4.9-3.1c0.3-1.4,0.8-2.6,1.6-3.7c1.3-2-0.2-3.1-0.9-4.7c-0.9,0.9-1.1,1.6-1,2.3
	c0.1,2.3-1.2,3.7-3.2,4.4c-1.8,0.6-2.1,1.7-1.5,3.3c0.2,0.5,0.4,1,0.1,1.5c-2.4-2.3-2-4.7,1-5.9c1.6-0.7,2.5-1.8,2.6-3.6
	c0-0.2-0.1-0.5,0.1-0.7c2-2.9-0.3-4.2-2.1-5.7c-3.7-2.9-8-4.8-12.4-6.3c1.4,1.8,3.4,3.1,4.3,5.4c0.6,1.6,0.7,3,0.4,4.7
	c-0.5,2.7-1.5,5.3-0.8,8.2c0.4,1.9,2.2,2.6,2.9,4.3c-2.1-0.2-3.9-2.7-4.2-5.3c-0.2-2,0.1-4,0.6-5.8c1.3-4.6-0.6-7.6-4.2-10.3
	c-3.3-2.4-6.8-4.2-10.8-4.8c-5.4-0.8-9.9,0.7-13.5,4.8c-1,1.2-0.3,3.1-0.8,4.6c-0.2,0.5,0,1.2-0.5,1.7c-1.6,2-2.1,3.9,1,5
	c-0.8,1-1.3,0-1.8,0.1c-0.1-0.2-0.3-0.3-0.5-0.1C53.3,29.1,53.4,29.2,53.5,29.3z M52.4,25.5c1.8-2.3,1.9-3,1.4-5.5
	C52.5,21.5,52,23.2,52.4,25.5z M80.4,16.2c-0.1-0.1-0.2-0.1-0.4-0.2c0,0-0.1,0.1-0.2,0.1c0.1,0.1,0.2,0.1,0.4,0.2
	C80.3,16.4,80.3,16.3,80.4,16.2z"/>
<path class="st0" d="M69.6,20.1c-1-1.6-2.4-2.9-2.4-4.9c-1.8-0.3-2.2,1.8-3.7,1.7c0.3-1.1,2.4-3.1,3.3-3.1c0.5,0,1,0.2,1.1,0.7
	c0.6,2.6,2.3,4.7,4.1,6.5c-0.7,0.8-1.5,0.6-2.1,0.6c-1.3-0.2-1.9,0.4-2.1,1.5c-0.1,0.7-0.3,1.5-0.9,1.8c-3.5,1.4-2.8,5.2-4.8,7.3
	c2,2.1,4.7,0.6,6.9,1.8c-1.8,1-6.1,0.6-7.1-0.4c-0.8-0.8-0.6-1.8-0.2-2.7c0.3-0.6,0.9-1.2,0.9-1.8c0-2.2,0.5-3.8,2.8-4.5
	c0.7-0.2,1.3-1,1.4-1.9C67,20.9,68.1,20.2,69.6,20.1c0.1,0.1,0.1,0.1,0.2,0.2c0,0,0-0.1,0-0.1C69.7,20.1,69.7,20.1,69.6,20.1z"/>
<path class="st0" d="M74.3,34.2c2.4,0,4.8,0,7.6,0c-1.5-1.5-3.3-2.2-4.7-3.4c-2-1.6-2.5-3.7-1.9-5.8c0.7-2.4-0.1-2.6-2-1.8
	c-0.2,0.1-0.4,0-0.6-0.1c-0.1,0-0.1-0.1-0.3-0.3c0.8-1.2,1.9-1.6,3.2-1.3c1.3,0.4,1.6,1.9,1.1,2.8c-1.8,3.7,0.6,5.4,3.1,7.1
	c0.7,0.5,1.4,0.9,2.1,1.4c0.5,0.3,1,0.7,1,1.4c-0.1,0.8-0.8,1.1-1.5,1.2c-2.5,0.3-4.8-0.7-7.2-0.5C74.2,34.7,74.2,34.5,74.3,34.2z"
	/>
<path class="st0" d="M56.7,24.7c-1.4-2.1-0.3-4.3-0.1-6.6c0.4,3.4,0.3,7,2.9,9.6c-0.7,0.9-1.3-0.1-1.9,0.2c-0.3,0.4,0.5,1-0.4,1.4
	c-0.8-1.5-1.9-2.9-2.3-4.6C55.5,23.9,55.9,25.2,56.7,24.7z"/>
<path class="st1" d="M69.6,20.1c0.1,0,0.1,0,0.2,0.1c0,0,0,0.1,0,0.1C69.7,20.2,69.7,20.2,69.6,20.1C69.6,20.1,69.6,20.1,69.6,20.1z
	"/>
<path class="st0" d="M88.6,56.3c0,0,0.2,0,0.5,0.1c2.2,0.5,11.5,2.8,13.5,3.2c2.3,0.4,0.8,1.1,0.7,1s-11.7-2-14.9-3.2
	S88.6,56.3,88.6,56.3z"/>
<path class="st0" d="M78.7,85.3c0,0-0.5,2.5-0.1,3.6s1.4,1.6,1.5,1.6s0.3-0.8,0.2-0.9s-1.1-2.2-0.7-4.2S78.7,85.3,78.7,85.3z"/>
<path class="st0" d="M89.5,85c0,0,0.6,3.1-0.3,4.4s-1.7,2-1.6,2s1.8,0.1,2.6-0.9s1.8-4.6,0.9-5.4s-1.5-0.3-1.5-0.3L89.5,85z"/>
</svg>
