<?xml version="1.0" encoding="utf-8"?>
<!-- Generator: Adobe Illustrator 21.0.0, SVG Export Plug-In . SVG Version: 6.00 Build 0)  -->
<svg version="1.1" id="Слой_1" xmlns="http://www.w3.org/2000/svg" xmlns:xlink="http://www.w3.org/1999/xlink" x="0px" y="0px"
	 viewBox="0 0 75.1 74.9" style="enable-background:new 0 0 75.1 74.9;" xml:space="preserve">
<style type="text/css">
	.st0{opacity:0.7;fill:#B20808;}
	.st1{fill:#FFFFFF;}
</style>
<path class="st0" d="M59.2,73.7H16.8c-8,0-14.5-6.5-14.5-14.5V16.8c0-8,6.5-14.5,14.5-14.5h42.4c8,0,14.5,6.5,14.5,14.5v42.4
	C73.7,67.2,67.2,73.7,59.2,73.7z"/>
<path class="st1" d="M52.7,61.2L52.7,61.2H27.5V20.7h25.2V61.2z M40.1,66.1L40.1,66.1c-0.9,0-1.7-0.7-1.7-1.7c0-1,0.7-1.7,1.7-1.7
	c0.9,0,1.7,0.7,1.7,1.7C41.8,65.4,41,66.1,40.1,66.1L40.1,66.1z M36.5,17.5L36.5,17.5h7.3c0,0,0.2,0.3,0.2,0.5
	c0,0.2-0.2,0.5-0.2,0.5h-7.3c-0.2,0-0.5-0.3-0.5-0.5C36,17.8,36.3,17.5,36.5,17.5L36.5,17.5z M26.3,8.7c-2.4,0-4.5,1-5.9,2.4
	c-1.6,1.7-2.6,4.1-2.6,6.8c0,0.2,0.2,0.7,0.5,0.7c0.2,0,0.5-0.5,0.5-0.7c0-2.2,0.9-4.4,2.4-5.9c1.4-1.5,3.1-2.2,5.2-2.2
	c0.2,0,0.5-0.2,0.5-0.5C26.8,9,26.6,8.7,26.3,8.7L26.3,8.7z M27.5,11.6c-1.6,0-3.5,0.7-4.7,1.9c-1.4,1.5-2.4,3.4-2.4,5.9
	c0,0.3,0.2,0.5,0.7,0.5c0.2,0,0.5-0.2,0.5-0.5c0-1.9,0.7-3.7,1.9-4.9c1.2-1.2,2.6-2,4-2c0.5,0,0.5-0.2,0.5-0.5
	C28,11.9,28,11.6,27.5,11.6L27.5,11.6z M24.9,5.8c-2.6,0-5,1.2-6.6,2.9c-2.1,1.9-3.3,4.9-3.3,8c0,0.3,0.5,0.5,0.7,0.5
	c0.2,0,0.5-0.2,0.5-0.5c0-2.9,1.2-5.4,2.6-7.1C20.4,8,22.5,7,24.9,7c0.2,0,0.5-0.3,0.5-0.5C25.4,6.3,25.1,5.8,24.9,5.8L24.9,5.8z
	 M51.5,15.1H28.7c-1.9,0-3.6,1.5-3.6,3.4v45.9c0,1.9,1.7,3.4,3.6,3.4h22.8c1.9,0,3.6-1.5,3.6-3.4V18.5
	C55.1,16.5,53.4,15.1,51.5,15.1L51.5,15.1z"/>
</svg>
