<?xml version="1.0" encoding="utf-8"?>
<!-- Generator: Adobe Illustrator 21.0.0, SVG Export Plug-In . SVG Version: 6.00 Build 0)  -->
<svg version="1.1" id="Слой_1" xmlns="http://www.w3.org/2000/svg" xmlns:xlink="http://www.w3.org/1999/xlink" x="0px" y="0px"
	 viewBox="0 0 75.1 74.9" style="enable-background:new 0 0 75.1 74.9;" xml:space="preserve">
<style type="text/css">
	.st0{opacity:0.7;fill:#B20808;}
	.st1{fill:#FFFFFF;}
	.st2{fill:#FFFFFF;stroke:#FFFFFF;stroke-width:0.9393;stroke-miterlimit:10;}
	.st3{font-family:'ArialRelcomKOI-8Cyrillic';}
	.st4{font-size:18.6118px;}
	.st5{letter-spacing:1;}
</style>
<path class="st0" d="M59,73.8H15.9C7.8,73.8,1.1,67.2,1.1,59V15.9c0-8.1,6.6-14.8,14.8-14.8H59c8.1,0,14.8,6.6,14.8,14.8V59
	C73.8,67.2,67.1,73.8,59,73.8z"/>
<path class="st1" d="M48.2,45.3L48.2,45.3H29.4V15.1h18.8V45.3z M38.8,48.9L38.8,48.9c-0.7,0-1.2-0.5-1.2-1.3c0-0.7,0.5-1.3,1.2-1.3
	c0.7,0,1.2,0.6,1.2,1.3C40.1,48.4,39.5,48.9,38.8,48.9L38.8,48.9z M36.2,12.7L36.2,12.7h5.5c0,0,0.2,0.2,0.2,0.4
	c0,0.2-0.2,0.4-0.2,0.4h-5.5c-0.2,0-0.4-0.2-0.4-0.4C35.8,12.9,36,12.7,36.2,12.7L36.2,12.7z M28.6,6.1c-1.8,0-3.4,0.7-4.4,1.8
	c-1.2,1.3-1.9,3.1-1.9,5.1c0,0.2,0.2,0.6,0.4,0.6c0.2,0,0.4-0.4,0.4-0.6c0-1.6,0.7-3.3,1.8-4.4C25.7,7.6,27,7,28.6,7
	c0.2,0,0.4-0.2,0.4-0.4C28.9,6.3,28.7,6.1,28.6,6.1L28.6,6.1z M29.4,8.3c-1.2,0-2.6,0.6-3.5,1.5c-1.1,1.1-1.8,2.6-1.8,4.4
	c0,0.2,0.2,0.4,0.5,0.4c0.2,0,0.4-0.2,0.4-0.4c0-1.5,0.5-2.7,1.4-3.6c0.9-0.9,1.9-1.5,3-1.5c0.4,0,0.4-0.2,0.4-0.4
	C29.8,8.5,29.8,8.3,29.4,8.3L29.4,8.3z M27.5,3.9c-1.9,0-3.7,0.9-5,2.2c-1.6,1.5-2.5,3.6-2.5,6c0,0.2,0.3,0.4,0.5,0.4
	c0.2,0,0.4-0.2,0.4-0.4c0-2.2,0.9-4,2-5.3c1.2-1.3,2.8-2,4.6-2c0.2,0,0.4-0.2,0.4-0.4C27.9,4.3,27.7,3.9,27.5,3.9L27.5,3.9z
	 M47.3,10.9h-17c-1.4,0-2.7,1.1-2.7,2.5v34.2c0,1.5,1.2,2.5,2.7,2.5h17c1.4,0,2.7-1.1,2.7-2.5V13.4C50,12,48.8,10.9,47.3,10.9
	L47.3,10.9z"/>
<text transform="matrix(1 0 0 1 12.3919 68.002)"><tspan x="0" y="0" class="st2 st3 st4">F</tspan><tspan x="11.6" y="0" class="st2 st3 st4 st5">RE</tspan><tspan x="39.9" y="0" class="st2 st3 st4">E</tspan></text>
</svg>
