<?xml version="1.0" encoding="utf-8"?>
<!-- Generator: Adobe Illustrator 21.0.0, SVG Export Plug-In . SVG Version: 6.00 Build 0)  -->
<svg version="1.1" id="Слой_1" xmlns="http://www.w3.org/2000/svg" xmlns:xlink="http://www.w3.org/1999/xlink" x="0px" y="0px"
	 viewBox="0 0 44.2 44.2" style="enable-background:new 0 0 44.2 44.2;" xml:space="preserve">
<style type="text/css">
	.st0{fill:none;stroke:#979998;stroke-width:1.5717;stroke-miterlimit:10;}
	.st1{fill:#979998;}
</style>
<circle class="st0" cx="22.3" cy="22.2" r="20.8"/>
<g>
	<g>
		<path class="st1" d="M32.5,19.7l0-0.9l0.7,0l0,0l2.3,0v0l0.4,0l0-0.2l0-0.1l0,0l0-0.1l0-0.1l0,0l0,0l0-0.3l-0.3,0l0,0l-0.2,0l0,0
			l-2.1,0l0,0l-0.7,0l0-0.9l-1.8,1.3L32.5,19.7z"/>
	</g>
	<g>
		<path class="st1" d="M32.7,26.9l0-0.9l0.7,0l0,0l2.3,0l0,0l0.4,0l0-0.2l0-0.1l0,0l0-0.1l0-0.1l0,0l0,0l0-0.3l-0.3,0l0,0l-0.2,0
			l0,0l-2.1,0l0,0l-0.7,0l0-0.9l-1.8,1.3L32.7,26.9z"/>
	</g>
	<g>
		<path class="st1" d="M32.9,34l0-0.9l0.7,0l0,0l2.3,0v0l0.4,0l0-0.2l0-0.1l0,0l0-0.1l0-0.1l0,0l0,0l0-0.3l-0.3,0l0,0l-0.2,0l0,0
			l-2.1,0l0,0l-0.7,0l0-0.9l-1.8,1.3L32.9,34z"/>
	</g>
	<g>
		<path class="st1" d="M32.3,12.6l0-0.9l0.7,0l0,0l2.3,0v0l0.4,0l0-0.2l0-0.1l0,0l0-0.1l0-0.1l0,0l0,0l0-0.3l-0.3,0l0,0l-0.2,0l0,0
			l-2.1,0l0,0l-0.7,0l0-0.9l-1.8,1.3L32.3,12.6z"/>
	</g>
</g>
<g>
	<g>
		<path class="st1" d="M12.4,24.1l0,0.9l-0.7,0l0,0l-2.3,0l0,0L9,25l0,0.2l0,0.1l0,0l0,0.1l0,0.1l0,0l0,0l0,0.3l0.3,0l0,0l0.2,0l0,0
			l2.1,0l0,0l0.7,0l0,0.9l1.8-1.3L12.4,24.1z"/>
	</g>
	<g>
		<path class="st1" d="M12.2,17l0,0.9l-0.7,0l0,0l-2.3,0l0,0l-0.4,0l0,0.2l0,0.1l0,0l0,0.1l0,0.1l0,0l0,0l0,0.3l0.3,0l0,0l0.2,0l0,0
			l2.1,0l0,0l0.7,0l0,0.9l1.8-1.3L12.2,17z"/>
	</g>
	<g>
		<path class="st1" d="M12,9.8l0,0.9l-0.7,0l0,0l-2.3,0l0,0l-0.4,0l0,0.2l0,0.1l0,0l0,0.1l0,0.1l0,0l0,0l0,0.3l0.3,0l0,0l0.2,0l0,0
			l2.1,0l0,0l0.7,0l0,0.9l1.8-1.3L12,9.8z"/>
	</g>
	<g>
		<path class="st1" d="M12.6,31.3l0,0.9l-0.7,0l0,0l-2.3,0l0,0l-0.4,0l0,0.2l0,0.1l0,0l0,0.1l0,0.1l0,0l0,0l0,0.3l0.3,0l0,0l0.2,0
			l0,0l2.1,0l0,0l0.7,0l0,0.9l1.8-1.3L12.6,31.3z"/>
	</g>
</g>
<g>
	<circle class="st1" cx="22.4" cy="10.1" r="3.9"/>
</g>
<g>
	<path class="st1" d="M18,24.7c0,0-0.9,0.5-1.9,0v-7l3.3-3.2c0,0,3.4,2.1,6-0.2l3.3,3.9l0,6.3c0,0-1,0.4-1.8,0c0-1.3,0-5.1,0-5.9
		c0-0.1,0-0.2-0.1-0.2c-0.1-0.1-0.3-0.2-0.6-0.1c-0.1,0.1-0.2,0.3-0.2,0.4v17.5c0,0-1,1-2.6,0c0-1.8,0-7.4,0-9.4
		c0-0.4-0.3-0.7-0.7-0.7l-0.2,0c-0.4,0-0.7,0.3-0.7,0.8l0,9.4c0,0-1.5,0.8-2.8-0.2c0-1.6,0-14,0-16.7c0-0.3-0.2-0.5-0.5-0.5h-0.2
		c-0.2,0-0.4,0.2-0.4,0.4L18,24.7z"/>
</g>
</svg>
