<?xml version="1.0" encoding="utf-8"?>
<!-- Generator: Adobe Illustrator 21.0.0, SVG Export Plug-In . SVG Version: 6.00 Build 0)  -->
<svg version="1.1" id="Слой_1" xmlns="http://www.w3.org/2000/svg" xmlns:xlink="http://www.w3.org/1999/xlink" x="0px" y="0px"
	 viewBox="0 0 44.2 44.2" style="enable-background:new 0 0 44.2 44.2;" xml:space="preserve">
<style type="text/css">
	.st0{fill:none;stroke:#979998;stroke-width:1.5685;stroke-miterlimit:10;}
	.st1{fill:#474648;}
	.st2{clip-path:url(#SVGID_2_);fill:#F05822;}
	.st3{clip-path:url(#SVGID_2_);fill:#EE5723;}
	.st4{clip-path:url(#SVGID_2_);fill:#ED5723;}
	.st5{clip-path:url(#SVGID_2_);fill:#EC5723;}
	.st6{clip-path:url(#SVGID_2_);fill:#EB5724;}
	.st7{clip-path:url(#SVGID_2_);fill:#EA5724;}
	.st8{clip-path:url(#SVGID_2_);fill:#E95724;}
	.st9{clip-path:url(#SVGID_2_);fill:#E85725;}
	.st10{clip-path:url(#SVGID_2_);fill:#E75725;}
	.st11{clip-path:url(#SVGID_2_);fill:#E65625;}
	.st12{clip-path:url(#SVGID_2_);fill:#E55625;}
	.st13{clip-path:url(#SVGID_2_);fill:#E45626;}
	.st14{clip-path:url(#SVGID_2_);fill:#E35626;}
	.st15{clip-path:url(#SVGID_2_);fill:#E25626;}
	.st16{clip-path:url(#SVGID_2_);fill:#E15626;}
	.st17{clip-path:url(#SVGID_2_);fill:#E05627;}
	.st18{clip-path:url(#SVGID_2_);fill:#DF5627;}
	.st19{clip-path:url(#SVGID_2_);fill:#DE5627;}
	.st20{clip-path:url(#SVGID_2_);fill:#DE5527;}
	.st21{clip-path:url(#SVGID_2_);fill:#DD5527;}
	.st22{clip-path:url(#SVGID_2_);fill:#DC5528;}
	.st23{clip-path:url(#SVGID_2_);fill:#DB5528;}
	.st24{clip-path:url(#SVGID_2_);fill:#DA5528;}
	.st25{clip-path:url(#SVGID_2_);fill:#D95428;}
	.st26{clip-path:url(#SVGID_2_);fill:#D95429;}
	.st27{clip-path:url(#SVGID_2_);fill:#D85429;}
	.st28{clip-path:url(#SVGID_2_);fill:#D75429;}
	.st29{clip-path:url(#SVGID_2_);fill:#D65429;}
	.st30{clip-path:url(#SVGID_2_);fill:#D5542A;}
	.st31{clip-path:url(#SVGID_2_);fill:#D4542A;}
	.st32{clip-path:url(#SVGID_2_);fill:#D3542A;}
	.st33{clip-path:url(#SVGID_2_);fill:#D2542A;}
	.st34{clip-path:url(#SVGID_2_);fill:#D1542B;}
	.st35{clip-path:url(#SVGID_2_);fill:#D0542B;}
	.st36{clip-path:url(#SVGID_2_);fill:#CF542B;}
	.st37{clip-path:url(#SVGID_2_);fill:#CE542B;}
	.st38{clip-path:url(#SVGID_2_);fill:#CE532B;}
	.st39{clip-path:url(#SVGID_2_);fill:#CD532C;}
	.st40{clip-path:url(#SVGID_2_);fill:#CC532C;}
	.st41{clip-path:url(#SVGID_2_);fill:#CB532C;}
	.st42{clip-path:url(#SVGID_2_);fill:#CA532C;}
	.st43{clip-path:url(#SVGID_2_);fill:#C9532C;}
	.st44{clip-path:url(#SVGID_2_);fill:#C9532D;}
	.st45{clip-path:url(#SVGID_2_);fill:#C8532D;}
	.st46{clip-path:url(#SVGID_2_);fill:#C7532D;}
	.st47{clip-path:url(#SVGID_2_);fill:#C6532D;}
	.st48{clip-path:url(#SVGID_2_);fill:#C5522D;}
	.st49{clip-path:url(#SVGID_2_);fill:#C4522D;}
	.st50{clip-path:url(#SVGID_2_);fill:#C4522E;}
	.st51{clip-path:url(#SVGID_2_);fill:#C3522E;}
	.st52{clip-path:url(#SVGID_2_);fill:#C2522E;}
	.st53{clip-path:url(#SVGID_2_);fill:#C1522E;}
	.st54{clip-path:url(#SVGID_2_);fill:#C0512E;}
	.st55{clip-path:url(#SVGID_2_);fill:#C0512F;}
	.st56{clip-path:url(#SVGID_2_);fill:#BF512F;}
	.st57{clip-path:url(#SVGID_2_);fill:#BE512F;}
	.st58{clip-path:url(#SVGID_2_);fill:#BD512F;}
	.st59{clip-path:url(#SVGID_2_);fill:#BC512F;}
	.st60{clip-path:url(#SVGID_2_);fill:#BB512F;}
	.st61{clip-path:url(#SVGID_2_);fill:#BB5130;}
	.st62{clip-path:url(#SVGID_2_);fill:#BA5130;}
	.st63{clip-path:url(#SVGID_2_);fill:#B95130;}
	.st64{clip-path:url(#SVGID_2_);fill:#B85130;}
	.st65{clip-path:url(#SVGID_2_);fill:#B75130;}
	.st66{clip-path:url(#SVGID_2_);fill:#B65130;}
	.st67{clip-path:url(#SVGID_2_);fill:#B65031;}
	.st68{clip-path:url(#SVGID_2_);fill:#B55031;}
	.st69{clip-path:url(#SVGID_2_);fill:#B45031;}
	.st70{clip-path:url(#SVGID_2_);fill:#B35031;}
	.st71{clip-path:url(#SVGID_2_);fill:#B25031;}
	.st72{clip-path:url(#SVGID_2_);fill:#B15031;}
	.st73{clip-path:url(#SVGID_2_);fill:#B05032;}
	.st74{clip-path:url(#SVGID_2_);fill:#AF5032;}
	.st75{clip-path:url(#SVGID_2_);fill:#AE5032;}
	.st76{clip-path:url(#SVGID_2_);fill:#AD5032;}
	.st77{clip-path:url(#SVGID_2_);fill:#AC5032;}
	.st78{clip-path:url(#SVGID_2_);fill:#AB5032;}
	.st79{clip-path:url(#SVGID_2_);fill:#AA5033;}
	.st80{clip-path:url(#SVGID_2_);fill:#AA4F33;}
	.st81{clip-path:url(#SVGID_2_);fill:#A94F33;}
	.st82{clip-path:url(#SVGID_2_);fill:#A84F33;}
	.st83{clip-path:url(#SVGID_2_);fill:#A74F33;}
	.st84{clip-path:url(#SVGID_2_);fill:#A64F33;}
	.st85{clip-path:url(#SVGID_2_);fill:#A54F33;}
	.st86{clip-path:url(#SVGID_2_);fill:#A44F34;}
	.st87{clip-path:url(#SVGID_2_);fill:#A34F34;}
	.st88{clip-path:url(#SVGID_2_);fill:#A24F34;}
	.st89{clip-path:url(#SVGID_2_);fill:#A14F34;}
	.st90{clip-path:url(#SVGID_2_);fill:#A14E34;}
	.st91{clip-path:url(#SVGID_2_);fill:#A04E34;}
	.st92{clip-path:url(#SVGID_2_);fill:#9F4E34;}
	.st93{clip-path:url(#SVGID_2_);fill:#9E4E35;}
	.st94{clip-path:url(#SVGID_2_);fill:#9D4E35;}
	.st95{clip-path:url(#SVGID_2_);fill:#9C4E35;}
	.st96{clip-path:url(#SVGID_2_);fill:#9A4E35;}
	.st97{clip-path:url(#SVGID_2_);fill:#994E35;}
	.st98{clip-path:url(#SVGID_2_);fill:#984D35;}
	.st99{clip-path:url(#SVGID_2_);fill:#974D35;}
	.st100{clip-path:url(#SVGID_2_);fill:#964D36;}
	.st101{clip-path:url(#SVGID_2_);fill:#954D36;}
	.st102{clip-path:url(#SVGID_2_);fill:#944D36;}
	.st103{clip-path:url(#SVGID_2_);fill:#934D36;}
	.st104{clip-path:url(#SVGID_2_);fill:#924D36;}
	.st105{clip-path:url(#SVGID_2_);fill:#914D36;}
	.st106{clip-path:url(#SVGID_4_);fill:#80805D;}
	.st107{clip-path:url(#SVGID_4_);fill:#807F5C;}
	.st108{clip-path:url(#SVGID_4_);fill:#807E5B;}
	.st109{clip-path:url(#SVGID_4_);fill:#7F7E5A;}
	.st110{clip-path:url(#SVGID_4_);fill:#7E7D5A;}
	.st111{clip-path:url(#SVGID_4_);fill:#7D7C59;}
	.st112{clip-path:url(#SVGID_4_);fill:#7C7B58;}
	.st113{clip-path:url(#SVGID_4_);fill:#7B7A57;}
	.st114{clip-path:url(#SVGID_4_);fill:#7B7A56;}
	.st115{clip-path:url(#SVGID_4_);fill:#7A7955;}
	.st116{clip-path:url(#SVGID_4_);fill:#797854;}
	.st117{clip-path:url(#SVGID_4_);fill:#787753;}
	.st118{clip-path:url(#SVGID_4_);fill:#777652;}
	.st119{clip-path:url(#SVGID_4_);fill:#777552;}
	.st120{clip-path:url(#SVGID_4_);fill:#757551;}
	.st121{clip-path:url(#SVGID_4_);fill:#757450;}
	.st122{clip-path:url(#SVGID_4_);fill:#74734F;}
	.st123{clip-path:url(#SVGID_4_);fill:#73724E;}
	.st124{clip-path:url(#SVGID_4_);fill:#72714D;}
	.st125{clip-path:url(#SVGID_4_);fill:#71704C;}
	.st126{clip-path:url(#SVGID_4_);fill:#706F4B;}
	.st127{clip-path:url(#SVGID_4_);fill:#6F6F4A;}
	.st128{clip-path:url(#SVGID_4_);fill:#6E6E4A;}
	.st129{clip-path:url(#SVGID_4_);fill:#6D6D49;}
	.st130{clip-path:url(#SVGID_4_);fill:#6C6C48;}
	.st131{clip-path:url(#SVGID_4_);fill:#6C6C47;}
	.st132{clip-path:url(#SVGID_4_);fill:#6B6B46;}
	.st133{clip-path:url(#SVGID_4_);fill:#6A6A45;}
	.st134{clip-path:url(#SVGID_4_);fill:#696944;}
	.st135{clip-path:url(#SVGID_4_);fill:#686844;}
	.st136{clip-path:url(#SVGID_4_);fill:#686843;}
	.st137{clip-path:url(#SVGID_4_);fill:#676742;}
	.st138{clip-path:url(#SVGID_4_);fill:#666742;}
	.st139{clip-path:url(#SVGID_4_);fill:#656641;}
	.st140{clip-path:url(#SVGID_4_);fill:#646540;}
	.st141{clip-path:url(#SVGID_4_);fill:#64643F;}
	.st142{clip-path:url(#SVGID_4_);fill:#63633E;}
	.st143{clip-path:url(#SVGID_4_);fill:#62633D;}
	.st144{clip-path:url(#SVGID_4_);fill:#61623D;}
	.st145{clip-path:url(#SVGID_4_);fill:#61613C;}
	.st146{clip-path:url(#SVGID_4_);fill:#60613B;}
	.st147{clip-path:url(#SVGID_4_);fill:#5F603B;}
	.st148{clip-path:url(#SVGID_4_);fill:#5E5F3A;}
	.st149{clip-path:url(#SVGID_4_);fill:#5D5E39;}
	.st150{clip-path:url(#SVGID_4_);fill:#5D5E38;}
	.st151{clip-path:url(#SVGID_4_);fill:#5C5D37;}
	.st152{clip-path:url(#SVGID_4_);fill:#5B5C37;}
	.st153{clip-path:url(#SVGID_4_);fill:#5A5C36;}
	.st154{clip-path:url(#SVGID_4_);fill:#595B35;}
	.st155{clip-path:url(#SVGID_4_);fill:#595A35;}
	.st156{clip-path:url(#SVGID_4_);fill:#585934;}
	.st157{clip-path:url(#SVGID_4_);fill:#575933;}
	.st158{clip-path:url(#SVGID_4_);fill:#565832;}
	.st159{clip-path:url(#SVGID_4_);fill:#555732;}
	.st160{clip-path:url(#SVGID_4_);fill:#555631;}
	.st161{clip-path:url(#SVGID_4_);fill:#545630;}
	.st162{clip-path:url(#SVGID_4_);fill:#54552F;}
	.st163{clip-path:url(#SVGID_4_);fill:#53552F;}
	.st164{clip-path:url(#SVGID_4_);fill:#52542E;}
	.st165{clip-path:url(#SVGID_4_);fill:#51532D;}
	.st166{clip-path:url(#SVGID_4_);fill:#50532D;}
	.st167{clip-path:url(#SVGID_4_);fill:#50522C;}
	.st168{clip-path:url(#SVGID_4_);fill:#4F512B;}
	.st169{clip-path:url(#SVGID_4_);fill:#4E502A;}
	.st170{clip-path:url(#SVGID_4_);fill:#4D502A;}
	.st171{clip-path:url(#SVGID_4_);fill:#4D4F29;}
	.st172{clip-path:url(#SVGID_4_);fill:#4C4F29;}
	.st173{clip-path:url(#SVGID_4_);fill:#4B4E28;}
	.st174{clip-path:url(#SVGID_4_);fill:#4B4D27;}
	.st175{clip-path:url(#SVGID_4_);fill:#4A4D27;}
	.st176{clip-path:url(#SVGID_4_);fill:#494C26;}
	.st177{clip-path:url(#SVGID_4_);fill:#484C25;}
	.st178{clip-path:url(#SVGID_4_);fill:#474B25;}
	.st179{clip-path:url(#SVGID_4_);fill:#474A24;}
	.st180{clip-path:url(#SVGID_4_);fill:#464923;}
	.st181{clip-path:url(#SVGID_4_);fill:#454923;}
	.st182{clip-path:url(#SVGID_4_);fill:#454822;}
	.st183{clip-path:url(#SVGID_4_);fill:#444822;}
	.st184{clip-path:url(#SVGID_4_);fill:#434721;}
	.st185{clip-path:url(#SVGID_4_);fill:#424620;}
	.st186{clip-path:url(#SVGID_4_);fill:#41451F;}
	.st187{clip-path:url(#SVGID_4_);fill:#40441E;}
	.st188{clip-path:url(#SVGID_4_);fill:#3F431D;}
	.st189{clip-path:url(#SVGID_4_);fill:#3E421C;}
	.st190{clip-path:url(#SVGID_4_);fill:#3D411B;}
	.st191{clip-path:url(#SVGID_4_);fill:#3C411B;}
	.st192{clip-path:url(#SVGID_4_);fill:#3C401A;}
	.st193{clip-path:url(#SVGID_4_);fill:#3B3F19;}
	.st194{clip-path:url(#SVGID_4_);fill:#3A3F18;}
	.st195{clip-path:url(#SVGID_4_);fill:#393E18;}
	.st196{clip-path:url(#SVGID_4_);fill:#393D17;}
	.st197{clip-path:url(#SVGID_4_);fill:#383D17;}
	.st198{clip-path:url(#SVGID_4_);fill:#373C16;}
	.st199{clip-path:url(#SVGID_4_);fill:#363C16;}
	.st200{clip-path:url(#SVGID_4_);fill:#363B15;}
	.st201{clip-path:url(#SVGID_4_);fill:#353B14;}
	.st202{clip-path:url(#SVGID_4_);fill:#343A14;}
	.st203{clip-path:url(#SVGID_4_);fill:#343913;}
	.st204{clip-path:url(#SVGID_4_);fill:#333913;}
	.st205{clip-path:url(#SVGID_6_);fill:#00AF9F;}
	.st206{clip-path:url(#SVGID_6_);fill:#00AE9E;}
	.st207{clip-path:url(#SVGID_6_);fill:#00AD9D;}
	.st208{clip-path:url(#SVGID_6_);fill:#00AC9C;}
	.st209{clip-path:url(#SVGID_6_);fill:#00AB9B;}
	.st210{clip-path:url(#SVGID_6_);fill:#00AA9B;}
	.st211{clip-path:url(#SVGID_6_);fill:#00AA9A;}
	.st212{clip-path:url(#SVGID_6_);fill:#00A99A;}
	.st213{clip-path:url(#SVGID_6_);fill:#00A999;}
	.st214{clip-path:url(#SVGID_6_);fill:#00A898;}
	.st215{clip-path:url(#SVGID_6_);fill:#00A797;}
	.st216{clip-path:url(#SVGID_6_);fill:#00A696;}
	.st217{clip-path:url(#SVGID_6_);fill:#00A596;}
	.st218{clip-path:url(#SVGID_6_);fill:#00A595;}
	.st219{clip-path:url(#SVGID_6_);fill:#00A495;}
	.st220{clip-path:url(#SVGID_6_);fill:#00A494;}
	.st221{clip-path:url(#SVGID_6_);fill:#00A393;}
	.st222{clip-path:url(#SVGID_6_);fill:#00A292;}
	.st223{clip-path:url(#SVGID_6_);fill:#00A192;}
	.st224{clip-path:url(#SVGID_6_);fill:#00A191;}
	.st225{clip-path:url(#SVGID_6_);fill:#00A090;}
	.st226{clip-path:url(#SVGID_6_);fill:#009F8F;}
	.st227{clip-path:url(#SVGID_6_);fill:#009E8E;}
	.st228{clip-path:url(#SVGID_6_);fill:#009D8D;}
	.st229{clip-path:url(#SVGID_6_);fill:#009C8C;}
	.st230{clip-path:url(#SVGID_6_);fill:#009C8B;}
	.st231{clip-path:url(#SVGID_6_);fill:#009B8B;}
	.st232{clip-path:url(#SVGID_6_);fill:#009B8A;}
	.st233{clip-path:url(#SVGID_6_);fill:#009A8A;}
	.st234{clip-path:url(#SVGID_6_);fill:#009A89;}
	.st235{clip-path:url(#SVGID_6_);fill:#009989;}
	.st236{clip-path:url(#SVGID_6_);fill:#009988;}
	.st237{clip-path:url(#SVGID_6_);fill:#009888;}
	.st238{clip-path:url(#SVGID_6_);fill:#009887;}
	.st239{clip-path:url(#SVGID_6_);fill:#009787;}
	.st240{clip-path:url(#SVGID_6_);fill:#009686;}
	.st241{clip-path:url(#SVGID_6_);fill:#009585;}
	.st242{clip-path:url(#SVGID_6_);fill:#009484;}
	.st243{clip-path:url(#SVGID_6_);fill:#009483;}
	.st244{clip-path:url(#SVGID_6_);fill:#009383;}
	.st245{clip-path:url(#SVGID_6_);fill:#009382;}
	.st246{clip-path:url(#SVGID_6_);fill:#009282;}
	.st247{clip-path:url(#SVGID_6_);fill:#009281;}
	.st248{clip-path:url(#SVGID_6_);fill:#009181;}
	.st249{clip-path:url(#SVGID_6_);fill:#009180;}
	.st250{clip-path:url(#SVGID_6_);fill:#009080;}
	.st251{clip-path:url(#SVGID_6_);fill:#008F80;}
	.st252{clip-path:url(#SVGID_6_);fill:#008F7F;}
	.st253{clip-path:url(#SVGID_6_);fill:#008E7F;}
	.st254{clip-path:url(#SVGID_6_);fill:#008E7E;}
	.st255{clip-path:url(#SVGID_6_);fill:#008D7E;}
	.st256{clip-path:url(#SVGID_6_);fill:#008C7D;}
	.st257{clip-path:url(#SVGID_6_);fill:#008C7C;}
	.st258{clip-path:url(#SVGID_6_);fill:#008B7C;}
	.st259{clip-path:url(#SVGID_6_);fill:#008B7B;}
	.st260{clip-path:url(#SVGID_6_);fill:#008A7A;}
	.st261{clip-path:url(#SVGID_6_);fill:#00897A;}
	.st262{clip-path:url(#SVGID_6_);fill:#008979;}
	.st263{clip-path:url(#SVGID_6_);fill:#008878;}
	.st264{clip-path:url(#SVGID_6_);fill:#008777;}
	.st265{clip-path:url(#SVGID_6_);fill:#008677;}
	.st266{clip-path:url(#SVGID_6_);fill:#008676;}
	.st267{clip-path:url(#SVGID_6_);fill:#008576;}
	.st268{clip-path:url(#SVGID_6_);fill:#008575;}
	.st269{clip-path:url(#SVGID_6_);fill:#008475;}
	.st270{clip-path:url(#SVGID_6_);fill:#008474;}
	.st271{clip-path:url(#SVGID_6_);fill:#008373;}
	.st272{clip-path:url(#SVGID_6_);fill:#008272;}
	.st273{clip-path:url(#SVGID_6_);fill:#008172;}
	.st274{clip-path:url(#SVGID_6_);fill:#008171;}
	.st275{clip-path:url(#SVGID_6_);fill:#008071;}
	.st276{clip-path:url(#SVGID_6_);fill:#008070;}
	.st277{clip-path:url(#SVGID_6_);fill:#00806F;}
	.st278{clip-path:url(#SVGID_6_);fill:#007F6F;}
	.st279{clip-path:url(#SVGID_6_);fill:#007F6E;}
	.st280{clip-path:url(#SVGID_6_);fill:#007E6E;}
	.st281{clip-path:url(#SVGID_6_);fill:#007D6D;}
	.st282{clip-path:url(#SVGID_6_);fill:#007C6C;}
	.st283{clip-path:url(#SVGID_6_);fill:#007C6B;}
	.st284{clip-path:url(#SVGID_6_);fill:#007B6B;}
	.st285{clip-path:url(#SVGID_6_);fill:#007B6A;}
	.st286{clip-path:url(#SVGID_6_);fill:#007A6A;}
	.st287{clip-path:url(#SVGID_6_);fill:#007A69;}
	.st288{clip-path:url(#SVGID_6_);fill:#007969;}
	.st289{clip-path:url(#SVGID_6_);fill:#007968;}
	.st290{clip-path:url(#SVGID_6_);fill:#007867;}
	.st291{clip-path:url(#SVGID_6_);fill:#007767;}
	.st292{clip-path:url(#SVGID_6_);fill:#007766;}
	.st293{clip-path:url(#SVGID_6_);fill:#007666;}
	.st294{clip-path:url(#SVGID_6_);fill:#007565;}
	.st295{clip-path:url(#SVGID_6_);fill:#007464;}
	.st296{clip-path:url(#SVGID_6_);fill:#007463;}
	.st297{clip-path:url(#SVGID_6_);fill:#007363;}
	.st298{clip-path:url(#SVGID_6_);fill:#007362;}
	.st299{clip-path:url(#SVGID_6_);fill:#007262;}
	.st300{clip-path:url(#SVGID_6_);fill:#007161;}
	.st301{clip-path:url(#SVGID_6_);fill:#007060;}
	.st302{clip-path:url(#SVGID_6_);fill:#00705F;}
	.st303{clip-path:url(#SVGID_6_);fill:#006F5F;}
</style>
<ellipse class="st0" cx="22.3" cy="22" rx="20.9" ry="20.7"/>
<g>
	<g>
		<g>
			<g>
				<path class="st1" d="M15.9,18.3v4.9h-0.6v-4.9H15.9z"/>
				<path class="st1" d="M16.9,22.8c0-0.3,0.2-0.5,0.4-0.5s0.4,0.2,0.4,0.5c0,0.3-0.2,0.5-0.4,0.5C17,23.3,16.9,23.1,16.9,22.8z"/>
				<path class="st1" d="M22.8,21c0-0.7-0.1-1.5-0.1-2.1h0c-0.2,0.6-0.4,1.2-0.6,1.9l-0.9,2.4h-0.5l-0.8-2.3
					c-0.2-0.7-0.4-1.3-0.6-1.9h0c0,0.6-0.1,1.4-0.1,2.2l-0.1,2.1h-0.6l0.3-4.9h0.8l0.9,2.4c0.2,0.6,0.4,1.1,0.5,1.7h0
					c0.1-0.5,0.3-1,0.5-1.7l0.9-2.4h0.8l0.3,4.9h-0.6L22.8,21z"/>
				<path class="st1" d="M24.4,22.8c0-0.3,0.2-0.5,0.4-0.5c0.3,0,0.4,0.2,0.4,0.5c0,0.3-0.2,0.5-0.4,0.5
					C24.6,23.3,24.4,23.1,24.4,22.8z"/>
				<path class="st1" d="M27.1,18.8h-1.5v-0.5h3.7v0.5h-1.5v4.4h-0.7V18.8z"/>
			</g>
			<g>
				<path class="st1" d="M17.3,26.1c0-0.3,0-0.7,0-1h0c-0.1,0.3-0.2,0.6-0.3,0.9l-0.4,1.1h-0.2L15.9,26c-0.1-0.3-0.2-0.6-0.3-0.9h0
					c0,0.3,0,0.7,0,1l-0.1,1h-0.3l0.2-2.3h0.4l0.4,1.1c0.1,0.3,0.2,0.5,0.2,0.8h0c0.1-0.2,0.1-0.5,0.2-0.8l0.4-1.1h0.4l0.1,2.3h-0.3
					L17.3,26.1z"/>
				<path class="st1" d="M18.5,26.4l-0.2,0.7h-0.3l0.8-2.3h0.4l0.8,2.3h-0.3l-0.2-0.7H18.5z M19.2,26.2L19,25.5
					c-0.1-0.2-0.1-0.3-0.1-0.4h0c0,0.1-0.1,0.3-0.1,0.4l-0.2,0.7H19.2z"/>
				<path class="st1" d="M21.9,27c-0.1,0.1-0.3,0.1-0.6,0.1c-0.7,0-1.1-0.4-1.1-1.2c0-0.7,0.5-1.2,1.2-1.2c0.3,0,0.5,0.1,0.6,0.1
					l-0.1,0.2c-0.1-0.1-0.3-0.1-0.5-0.1c-0.5,0-0.9,0.3-0.9,0.9c0,0.6,0.3,0.9,0.9,0.9c0.2,0,0.4,0,0.5-0.1L21.9,27z"/>
				<path class="st1" d="M23.9,27c-0.1,0.1-0.3,0.1-0.6,0.1c-0.7,0-1.1-0.4-1.1-1.2c0-0.7,0.5-1.2,1.2-1.2c0.3,0,0.5,0.1,0.6,0.1
					l-0.1,0.2c-0.1-0.1-0.3-0.1-0.5-0.1c-0.5,0-0.9,0.3-0.9,0.9c0,0.6,0.3,0.9,0.9,0.9c0.2,0,0.4,0,0.5-0.1L23.9,27z"/>
				<path class="st1" d="M24.6,26.4l-0.2,0.7h-0.3l0.8-2.3h0.4l0.8,2.3h-0.3l-0.2-0.7H24.6z M25.4,26.2l-0.2-0.7
					c-0.1-0.2-0.1-0.3-0.1-0.4h0c0,0.1-0.1,0.3-0.1,0.4l-0.2,0.7H25.4z"/>
				<path class="st1" d="M26.6,24.8l0.7,1h0.1v-1h0.3v1h0.1l0.7-1h0.4L28,25.9c0.4,0,0.5,0.3,0.6,0.6c0.1,0.2,0.1,0.4,0.2,0.7h-0.3
					c-0.1-0.2-0.1-0.4-0.2-0.5c-0.1-0.3-0.2-0.5-0.6-0.5h-0.1v1.1h-0.3v-1.1h-0.1c-0.4,0-0.5,0.2-0.6,0.5c-0.1,0.2-0.1,0.4-0.2,0.5
					h-0.3c0.1-0.2,0.2-0.4,0.2-0.6c0.1-0.3,0.3-0.5,0.6-0.6l-0.8-1.1H26.6z"/>
			</g>
		</g>
	</g>
	<g>
		<g>
			<g>
				<defs>
					<path id="SVGID_1_" d="M37.5,29.4l-0.7-0.5c0.9-2,1.4-4.2,1.4-6.6c0-8-6-14.7-13.9-15.8L27,8.7l-2.7,2.1
						c5.5,1,9.8,5.8,9.8,11.6c0,1.5-0.3,2.9-0.8,4.2l-2-1.3l0.5,7.2l7-2.1L37.5,29.4z"/>
				</defs>
				<clipPath id="SVGID_2_">
					<use xlink:href="#SVGID_1_"  style="overflow:visible;"/>
				</clipPath>
				<polygon class="st2" points="24.3,17.6 38.8,17.3 38.8,32.4 24.3,32.4 				"/>
				<polygon class="st2" points="24.3,17.5 38.8,17.3 38.8,17.3 24.3,17.6 				"/>
				<polygon class="st3" points="24.3,17.4 38.8,17.2 38.8,17.3 24.3,17.5 				"/>
				<polygon class="st4" points="24.3,17.4 38.8,17.1 38.8,17.2 24.3,17.4 				"/>
				<polygon class="st5" points="24.3,17.3 38.8,17.1 38.8,17.1 24.3,17.4 				"/>
				<polygon class="st6" points="24.3,17.3 38.8,17 38.8,17.1 24.3,17.3 				"/>
				<polygon class="st7" points="24.3,17.2 38.8,17 38.8,17 24.3,17.3 				"/>
				<polygon class="st7" points="24.3,17.2 38.8,16.9 38.8,17 24.3,17.2 				"/>
				<polygon class="st8" points="24.3,17.1 38.8,16.8 38.8,16.9 24.3,17.2 				"/>
				<polygon class="st9" points="24.3,17 38.8,16.8 38.8,16.8 24.3,17.1 				"/>
				<polygon class="st10" points="24.3,17 38.8,16.7 38.8,16.8 24.3,17 				"/>
				<polygon class="st10" points="24.3,16.9 38.8,16.7 38.8,16.7 24.3,17 				"/>
				<polygon class="st11" points="24.3,16.9 38.8,16.6 38.8,16.7 24.3,16.9 				"/>
				<polygon class="st12" points="24.3,16.8 38.8,16.6 38.8,16.6 24.3,16.9 				"/>
				<polygon class="st13" points="24.3,16.7 38.8,16.5 38.8,16.6 24.3,16.8 				"/>
				<polygon class="st13" points="24.3,16.7 38.8,16.4 38.8,16.5 24.3,16.7 				"/>
				<polygon class="st14" points="24.3,16.6 38.8,16.4 38.8,16.4 24.3,16.7 				"/>
				<polygon class="st15" points="24.3,16.6 38.8,16.3 38.8,16.4 24.3,16.6 				"/>
				<polygon class="st15" points="24.3,16.5 38.8,16.3 38.8,16.3 24.3,16.6 				"/>
				<polygon class="st16" points="24.3,16.5 38.8,16.2 38.8,16.3 24.3,16.5 				"/>
				<polygon class="st17" points="24.3,16.4 38.8,16.1 38.8,16.2 24.3,16.5 				"/>
				<polygon class="st17" points="24.3,16.3 38.8,16.1 38.8,16.1 24.3,16.4 				"/>
				<polygon class="st18" points="24.3,16.3 38.8,16 38.8,16.1 24.3,16.3 				"/>
				<polygon class="st19" points="24.3,16.2 38.8,16 38.8,16 24.3,16.3 				"/>
				<polygon class="st20" points="24.3,16.2 38.8,15.9 38.8,16 24.3,16.2 				"/>
				<polygon class="st21" points="24.3,16.1 38.8,15.9 38.8,15.9 24.3,16.2 				"/>
				<polygon class="st22" points="24.3,16 38.8,15.8 38.8,15.9 24.3,16.1 				"/>
				<polygon class="st22" points="24.3,16 38.8,15.7 38.8,15.8 24.3,16 				"/>
				<polygon class="st23" points="24.3,15.9 38.8,15.7 38.8,15.7 24.3,16 				"/>
				<polygon class="st24" points="24.3,15.9 38.8,15.6 38.8,15.7 24.3,15.9 				"/>
				<polygon class="st25" points="24.3,15.8 38.8,15.6 38.8,15.6 24.3,15.9 				"/>
				<polygon class="st26" points="24.3,15.7 38.8,15.5 38.8,15.6 24.3,15.8 				"/>
				<polygon class="st27" points="24.3,15.7 38.8,15.4 38.8,15.5 24.3,15.7 				"/>
				<polygon class="st28" points="24.3,15.6 38.8,15.4 38.8,15.4 24.3,15.7 				"/>
				<polygon class="st28" points="24.3,15.6 38.8,15.3 38.8,15.4 24.3,15.6 				"/>
				<polygon class="st29" points="24.3,15.5 38.8,15.3 38.8,15.3 24.3,15.6 				"/>
				<polygon class="st30" points="24.3,15.5 38.8,15.2 38.8,15.3 24.3,15.5 				"/>
				<polygon class="st31" points="24.3,15.4 38.8,15.2 38.8,15.2 24.3,15.5 				"/>
				<polygon class="st31" points="24.3,15.3 38.8,15.1 38.8,15.2 24.3,15.4 				"/>
				<polygon class="st32" points="24.3,15.3 38.8,15 38.8,15.1 24.3,15.3 				"/>
				<polygon class="st33" points="24.3,15.2 38.8,15 38.8,15 24.3,15.3 				"/>
				<polygon class="st33" points="24.3,15.2 38.8,14.9 38.8,15 24.3,15.2 				"/>
				<polygon class="st34" points="24.3,15.1 38.8,14.9 38.8,14.9 24.3,15.2 				"/>
				<polygon class="st35" points="24.3,15 38.8,14.8 38.8,14.9 24.3,15.1 				"/>
				<polygon class="st35" points="24.3,15 38.8,14.7 38.8,14.8 24.3,15 				"/>
				<polygon class="st36" points="24.3,14.9 38.8,14.7 38.8,14.7 24.3,15 				"/>
				<polygon class="st37" points="24.3,14.9 38.8,14.6 38.8,14.7 24.3,14.9 				"/>
				<polygon class="st38" points="24.3,14.8 38.8,14.6 38.8,14.6 24.3,14.9 				"/>
				<polygon class="st39" points="24.3,14.8 38.8,14.5 38.8,14.6 24.3,14.8 				"/>
				<polygon class="st40" points="24.3,14.7 38.8,14.5 38.8,14.5 24.3,14.8 				"/>
				<polygon class="st41" points="24.3,14.6 38.8,14.4 38.8,14.5 24.3,14.7 				"/>
				<polygon class="st41" points="24.3,14.6 38.8,14.3 38.8,14.4 24.3,14.6 				"/>
				<polygon class="st42" points="24.3,14.5 38.8,14.3 38.8,14.3 24.3,14.6 				"/>
				<polygon class="st43" points="24.3,14.5 38.8,14.2 38.8,14.3 24.3,14.5 				"/>
				<polygon class="st44" points="24.3,14.4 38.8,14.2 38.8,14.2 24.3,14.5 				"/>
				<polygon class="st45" points="24.3,14.3 38.8,14.1 38.8,14.2 24.3,14.4 				"/>
				<polygon class="st46" points="24.3,14.3 38.8,14 38.8,14.1 24.3,14.3 				"/>
				<polygon class="st46" points="24.3,14.2 38.8,14 38.8,14 24.3,14.3 				"/>
				<polygon class="st47" points="24.3,14.2 38.8,13.9 38.8,14 24.3,14.2 				"/>
				<polygon class="st48" points="24.3,14.1 38.8,13.9 38.8,13.9 24.3,14.2 				"/>
				<polygon class="st49" points="24.3,14.1 38.8,13.8 38.8,13.9 24.3,14.1 				"/>
				<polygon class="st50" points="24.3,14 38.8,13.8 38.8,13.8 24.3,14.1 				"/>
				<polygon class="st51" points="24.3,13.9 38.8,13.7 38.8,13.8 24.3,14 				"/>
				<polygon class="st52" points="24.3,13.9 38.8,13.6 38.8,13.7 24.3,13.9 				"/>
				<polygon class="st52" points="24.3,13.8 38.8,13.6 38.8,13.6 24.3,13.9 				"/>
				<polygon class="st53" points="24.3,13.8 38.8,13.5 38.8,13.6 24.3,13.8 				"/>
				<polygon class="st54" points="24.3,13.7 38.8,13.5 38.8,13.5 24.3,13.8 				"/>
				<polygon class="st55" points="24.3,13.6 38.8,13.4 38.8,13.5 24.3,13.7 				"/>
				<polygon class="st56" points="24.3,13.6 38.8,13.3 38.8,13.4 24.3,13.6 				"/>
				<polygon class="st57" points="24.3,13.5 38.8,13.3 38.8,13.3 24.3,13.6 				"/>
				<polygon class="st58" points="24.3,13.5 38.8,13.2 38.8,13.3 24.3,13.5 				"/>
				<polygon class="st58" points="24.3,13.4 38.8,13.2 38.8,13.2 24.3,13.5 				"/>
				<polygon class="st59" points="24.3,13.4 38.8,13.1 38.8,13.2 24.3,13.4 				"/>
				<polygon class="st60" points="24.3,13.3 38.8,13 38.8,13.1 24.3,13.4 				"/>
				<polygon class="st61" points="24.3,13.2 38.8,13 38.8,13 24.3,13.3 				"/>
				<polygon class="st62" points="24.3,13.2 38.8,12.9 38.8,13 24.3,13.2 				"/>
				<polygon class="st63" points="24.3,13.1 38.8,12.9 38.8,12.9 24.3,13.2 				"/>
				<polygon class="st63" points="24.3,13.1 38.8,12.8 38.8,12.9 24.3,13.1 				"/>
				<polygon class="st64" points="24.3,13 38.8,12.8 38.8,12.8 24.3,13.1 				"/>
				<polygon class="st65" points="24.3,12.9 38.8,12.7 38.8,12.8 24.3,13 				"/>
				<polygon class="st66" points="24.3,12.9 38.8,12.6 38.8,12.7 24.3,12.9 				"/>
				<polygon class="st67" points="24.3,12.8 38.8,12.6 38.8,12.6 24.3,12.9 				"/>
				<polygon class="st68" points="24.3,12.8 38.8,12.5 38.8,12.6 24.3,12.8 				"/>
				<polygon class="st69" points="24.3,12.7 38.8,12.5 38.8,12.5 24.3,12.8 				"/>
				<polygon class="st69" points="24.3,12.7 38.8,12.4 38.8,12.5 24.3,12.7 				"/>
				<polygon class="st70" points="24.3,12.6 38.8,12.3 38.8,12.4 24.3,12.7 				"/>
				<polygon class="st71" points="24.3,12.5 38.8,12.3 38.8,12.3 24.3,12.6 				"/>
				<polygon class="st72" points="24.3,12.5 38.8,12.2 38.8,12.3 24.3,12.5 				"/>
				<polygon class="st72" points="24.3,12.4 38.8,12.2 38.8,12.2 24.3,12.5 				"/>
				<polygon class="st73" points="24.3,12.4 38.8,12.1 38.8,12.2 24.3,12.4 				"/>
				<polygon class="st74" points="24.3,12.3 38.8,12.1 38.8,12.1 24.3,12.4 				"/>
				<polygon class="st74" points="24.3,12.2 38.8,12 38.8,12.1 24.3,12.3 				"/>
				<polygon class="st75" points="24.3,12.2 38.8,11.9 38.8,12 24.3,12.2 				"/>
				<polygon class="st76" points="24.3,12.1 38.8,11.9 38.8,11.9 24.3,12.2 				"/>
				<polygon class="st77" points="24.3,12.1 38.8,11.8 38.8,11.9 24.3,12.1 				"/>
				<polygon class="st77" points="24.3,12 38.8,11.8 38.8,11.8 24.3,12.1 				"/>
				<polygon class="st78" points="24.3,11.9 38.8,11.7 38.8,11.8 24.3,12 				"/>
				<polygon class="st79" points="24.3,11.9 38.8,11.6 38.8,11.7 24.3,11.9 				"/>
				<polygon class="st80" points="24.3,11.8 38.8,11.6 38.8,11.6 24.3,11.9 				"/>
				<polygon class="st81" points="24.3,11.8 38.8,11.5 38.8,11.6 24.3,11.8 				"/>
				<polygon class="st82" points="24.3,11.7 38.8,11.5 38.8,11.5 24.3,11.8 				"/>
				<polygon class="st82" points="24.3,11.7 38.8,11.4 38.8,11.5 24.3,11.7 				"/>
				<polygon class="st83" points="24.3,11.6 38.8,11.4 38.8,11.4 24.3,11.7 				"/>
				<polygon class="st84" points="24.3,11.5 38.8,11.3 38.8,11.4 24.3,11.6 				"/>
				<polygon class="st85" points="24.3,11.5 38.8,11.2 38.8,11.3 24.3,11.5 				"/>
				<polygon class="st85" points="24.3,11.4 38.8,11.2 38.8,11.2 24.3,11.5 				"/>
				<polygon class="st86" points="24.3,11.4 38.8,11.1 38.8,11.2 24.3,11.4 				"/>
				<polygon class="st87" points="24.3,11.3 38.8,11.1 38.8,11.1 24.3,11.4 				"/>
				<polygon class="st87" points="24.3,11.2 38.8,11 38.8,11.1 24.3,11.3 				"/>
				<polygon class="st88" points="24.3,11.2 38.8,10.9 38.8,11 24.3,11.2 				"/>
				<polygon class="st89" points="24.3,11.1 38.8,10.9 38.8,10.9 24.3,11.2 				"/>
				<polygon class="st90" points="24.3,11.1 38.8,10.8 38.8,10.9 24.3,11.1 				"/>
				<polygon class="st91" points="24.3,11 38.8,10.8 38.8,10.8 24.3,11.1 				"/>
				<polygon class="st92" points="24.3,11 38.8,10.7 38.8,10.8 24.3,11 				"/>
				<polygon class="st92" points="24.3,10.9 38.8,10.7 38.8,10.7 24.3,11 				"/>
				<polygon class="st93" points="24.3,10.8 38.8,10.6 38.8,10.7 24.3,10.9 				"/>
				<polygon class="st94" points="24.3,10.8 38.8,10.5 38.8,10.6 24.3,10.8 				"/>
				<polygon class="st94" points="24.3,10.7 38.8,10.5 38.8,10.5 24.3,10.8 				"/>
				<polygon class="st95" points="24.3,10.7 38.8,10.4 38.8,10.5 24.3,10.7 				"/>
				<polygon class="st96" points="24.3,10.6 38.8,10.4 38.8,10.4 24.3,10.7 				"/>
				<polygon class="st96" points="24.3,10.5 38.8,10.3 38.8,10.4 24.3,10.6 				"/>
				<polygon class="st97" points="24.3,10.5 38.8,10.2 38.8,10.3 24.3,10.5 				"/>
				<polygon class="st98" points="24.3,10.4 38.8,10.2 38.8,10.2 24.3,10.5 				"/>
				<polygon class="st98" points="24.3,10.4 38.8,10.1 38.8,10.2 24.3,10.4 				"/>
				<polygon class="st99" points="24.3,10.3 38.8,10.1 38.8,10.1 24.3,10.4 				"/>
				<polygon class="st100" points="24.3,10.3 38.8,10 38.8,10.1 24.3,10.3 				"/>
				<polygon class="st100" points="24.3,10.2 38.8,10 38.8,10 24.3,10.3 				"/>
				<polygon class="st101" points="24.3,10.1 38.8,9.9 38.8,10 24.3,10.2 				"/>
				<polygon class="st102" points="24.3,10.1 38.8,9.8 38.8,9.9 24.3,10.1 				"/>
				<polygon class="st102" points="24.3,10 38.8,9.8 38.8,9.8 24.3,10.1 				"/>
				<polygon class="st103" points="24.3,10 38.8,9.7 38.8,9.8 24.3,10 				"/>
				<polygon class="st104" points="24.3,9.9 38.8,9.7 38.8,9.7 24.3,10 				"/>
				<polygon class="st105" points="24.3,9.8 38.8,9.6 38.8,9.7 24.3,9.9 				"/>
				<polygon class="st105" points="24.3,9.8 38.8,9.5 38.8,9.6 24.3,9.8 				"/>
				<polygon class="st105" points="38.8,9.5 24.3,9.8 24.3,6.6 38.8,6.6 				"/>
			</g>
		</g>
		<g>
			<g>
				<defs>
					<path id="SVGID_3_" d="M31,33.5l-0.2-3.1c-2.2,2.2-5.2,3.6-8.6,3.6c-4.3,0-8-2.2-10.1-5.6l2.3-0.8l-6.2-3.8l-2.4,6.8L8,30
						c2.7,5,8.1,8.3,14.2,8.3c5,0,9.5-2.3,12.5-5.8L31,33.5z"/>
				</defs>
				<clipPath id="SVGID_4_">
					<use xlink:href="#SVGID_3_"  style="overflow:visible;"/>
				</clipPath>
				<rect x="5.7" y="23.9" class="st106" width="9.8" height="14.4"/>
				<rect x="15.5" y="23.9" class="st106" width="0.1" height="14.4"/>
				<rect x="15.7" y="23.9" class="st107" width="0.1" height="14.4"/>
				<rect x="15.8" y="23.9" class="st108" width="0.1" height="14.4"/>
				<rect x="15.9" y="23.9" class="st109" width="0.1" height="14.4"/>
				<rect x="16" y="23.9" class="st110" width="0.1" height="14.4"/>
				<rect x="16.2" y="23.9" class="st111" width="0.1" height="14.4"/>
				<rect x="16.3" y="23.9" class="st112" width="0.1" height="14.4"/>
				<rect x="16.4" y="23.9" class="st113" width="0.1" height="14.4"/>
				<rect x="16.5" y="23.9" class="st114" width="0.1" height="14.4"/>
				<rect x="16.7" y="23.9" class="st115" width="0.1" height="14.4"/>
				<rect x="16.8" y="23.9" class="st116" width="0.1" height="14.4"/>
				<rect x="16.9" y="23.9" class="st117" width="0.1" height="14.4"/>
				<rect x="17" y="23.9" class="st118" width="0.1" height="14.4"/>
				<rect x="17.2" y="23.9" class="st119" width="0.1" height="14.4"/>
				<rect x="17.3" y="23.9" class="st120" width="0.1" height="14.4"/>
				<rect x="17.4" y="23.9" class="st121" width="0.1" height="14.4"/>
				<rect x="17.5" y="23.9" class="st122" width="0.1" height="14.4"/>
				<rect x="17.7" y="23.9" class="st123" width="0.1" height="14.4"/>
				<rect x="17.8" y="23.9" class="st124" width="0.1" height="14.4"/>
				<rect x="17.9" y="23.9" class="st125" width="0.1" height="14.4"/>
				<rect x="18" y="23.9" class="st126" width="0.1" height="14.4"/>
				<rect x="18.2" y="23.9" class="st127" width="0.1" height="14.4"/>
				<rect x="18.3" y="23.9" class="st128" width="0.1" height="14.4"/>
				<rect x="18.4" y="23.9" class="st129" width="0.1" height="14.4"/>
				<rect x="18.5" y="23.9" class="st130" width="0.1" height="14.4"/>
				<rect x="18.7" y="23.9" class="st131" width="0.1" height="14.4"/>
				<rect x="18.8" y="23.9" class="st132" width="0.1" height="14.4"/>
				<rect x="18.9" y="23.9" class="st133" width="0.1" height="14.4"/>
				<rect x="19" y="23.9" class="st134" width="0.1" height="14.4"/>
				<rect x="19.2" y="23.9" class="st135" width="0.1" height="14.4"/>
				<rect x="19.3" y="23.9" class="st136" width="0.1" height="14.4"/>
				<rect x="19.4" y="23.9" class="st137" width="0.1" height="14.4"/>
				<rect x="19.5" y="23.9" class="st138" width="0.1" height="14.4"/>
				<rect x="19.7" y="23.9" class="st139" width="0.1" height="14.4"/>
				<rect x="19.8" y="23.9" class="st140" width="0.1" height="14.4"/>
				<rect x="19.9" y="23.9" class="st141" width="0.1" height="14.4"/>
				<rect x="20" y="23.9" class="st142" width="0.1" height="14.4"/>
				<rect x="20.2" y="23.9" class="st143" width="0.1" height="14.4"/>
				<rect x="20.3" y="23.9" class="st144" width="0.1" height="14.4"/>
				<rect x="20.4" y="23.9" class="st145" width="0.1" height="14.4"/>
				<rect x="20.5" y="23.9" class="st146" width="0.1" height="14.4"/>
				<rect x="20.7" y="23.9" class="st147" width="0.1" height="14.4"/>
				<rect x="20.8" y="23.9" class="st148" width="0.1" height="14.4"/>
				<rect x="20.9" y="23.9" class="st149" width="0.1" height="14.4"/>
				<rect x="21" y="23.9" class="st150" width="0.1" height="14.4"/>
				<rect x="21.2" y="23.9" class="st151" width="0.1" height="14.4"/>
				<rect x="21.3" y="23.9" class="st152" width="0.1" height="14.4"/>
				<rect x="21.4" y="23.9" class="st153" width="0.1" height="14.4"/>
				<rect x="21.5" y="23.9" class="st154" width="0.1" height="14.4"/>
				<rect x="21.7" y="23.9" class="st155" width="0.1" height="14.4"/>
				<rect x="21.8" y="23.9" class="st156" width="0.1" height="14.4"/>
				<rect x="21.9" y="23.9" class="st157" width="0.1" height="14.4"/>
				<rect x="22" y="23.9" class="st158" width="0.1" height="14.4"/>
				<rect x="22.2" y="23.9" class="st159" width="0.1" height="14.4"/>
				<rect x="22.3" y="23.9" class="st160" width="0.1" height="14.4"/>
				<rect x="22.4" y="23.9" class="st161" width="0.1" height="14.4"/>
				<rect x="22.5" y="23.9" class="st162" width="0.1" height="14.4"/>
				<rect x="22.7" y="23.9" class="st163" width="0.1" height="14.4"/>
				<rect x="22.8" y="23.9" class="st164" width="0.1" height="14.4"/>
				<rect x="22.9" y="23.9" class="st165" width="0.1" height="14.4"/>
				<rect x="23" y="23.9" class="st166" width="0.1" height="14.4"/>
				<rect x="23.2" y="23.9" class="st167" width="0.1" height="14.4"/>
				<rect x="23.3" y="23.9" class="st168" width="0.1" height="14.4"/>
				<rect x="23.4" y="23.9" class="st169" width="0.1" height="14.4"/>
				<rect x="23.5" y="23.9" class="st170" width="0.1" height="14.4"/>
				<rect x="23.7" y="23.9" class="st171" width="0.1" height="14.4"/>
				<rect x="23.8" y="23.9" class="st172" width="0.1" height="14.4"/>
				<rect x="23.9" y="23.9" class="st173" width="0.1" height="14.4"/>
				<rect x="24" y="23.9" class="st174" width="0.1" height="14.4"/>
				<rect x="24.2" y="23.9" class="st175" width="0.1" height="14.4"/>
				<rect x="24.3" y="23.9" class="st176" width="0.1" height="14.4"/>
				<rect x="24.4" y="23.9" class="st177" width="0.1" height="14.4"/>
				<rect x="24.5" y="23.9" class="st178" width="0.1" height="14.4"/>
				<rect x="24.7" y="23.9" class="st179" width="0.1" height="14.4"/>
				<rect x="24.8" y="23.9" class="st180" width="0.1" height="14.4"/>
				<rect x="24.9" y="23.9" class="st181" width="0.1" height="14.4"/>
				<rect x="25" y="23.9" class="st182" width="0.1" height="14.4"/>
				<rect x="25.2" y="23.9" class="st183" width="0.1" height="14.4"/>
				<rect x="25.3" y="23.9" class="st184" width="0.1" height="14.4"/>
				<rect x="25.4" y="23.9" class="st185" width="0.1" height="14.4"/>
				<rect x="25.5" y="23.9" class="st185" width="0.1" height="14.4"/>
				<rect x="25.7" y="23.9" class="st186" width="0.1" height="14.4"/>
				<rect x="25.8" y="23.9" class="st187" width="0.1" height="14.4"/>
				<rect x="25.9" y="23.9" class="st187" width="0.1" height="14.4"/>
				<rect x="26" y="23.9" class="st188" width="0.1" height="14.4"/>
				<rect x="26.1" y="23.9" class="st188" width="0.1" height="14.4"/>
				<rect x="26.3" y="23.9" class="st189" width="0.1" height="14.4"/>
				<rect x="26.4" y="23.9" class="st190" width="0.1" height="14.4"/>
				<rect x="26.5" y="23.9" class="st191" width="0.1" height="14.4"/>
				<rect x="26.6" y="23.9" class="st192" width="0.1" height="14.4"/>
				<rect x="26.8" y="23.9" class="st193" width="0.1" height="14.4"/>
				<rect x="26.9" y="23.9" class="st194" width="0.1" height="14.4"/>
				<rect x="27" y="23.9" class="st195" width="0.1" height="14.4"/>
				<rect x="27.1" y="23.9" class="st196" width="0.1" height="14.4"/>
				<rect x="27.3" y="23.9" class="st197" width="0.1" height="14.4"/>
				<rect x="27.4" y="23.9" class="st198" width="0.1" height="14.4"/>
				<rect x="27.5" y="23.9" class="st199" width="0.1" height="14.4"/>
				<rect x="27.6" y="23.9" class="st200" width="0.1" height="14.4"/>
				<rect x="27.8" y="23.9" class="st201" width="0.1" height="14.4"/>
				<rect x="27.9" y="23.9" class="st202" width="0.1" height="14.4"/>
				<rect x="28" y="23.9" class="st203" width="0.1" height="14.4"/>
				<rect x="28.1" y="23.9" class="st204" width="0.1" height="14.4"/>
				<rect x="28.3" y="23.9" class="st204" width="6.3" height="14.4"/>
			</g>
		</g>
		<g>
			<g>
				<defs>
					<path id="SVGID_5_" d="M25.3,8.6l-5.7-4.5v2.5C11.9,7.8,6,14.4,6,22.4c0,1.2,0.1,2.3,0.4,3.5l1.2-3.5l2.8,1.7
						c-0.1-0.6-0.1-1.1-0.1-1.7c0-5.6,4-10.3,9.4-11.5v2.3L25.3,8.6z"/>
				</defs>
				<clipPath id="SVGID_6_">
					<use xlink:href="#SVGID_5_"  style="overflow:visible;"/>
				</clipPath>
				<polygon class="st205" points="25.3,16.5 6,12.3 6,5.6 6.3,4.1 25.3,4.1 				"/>
				<polygon class="st205" points="25.3,16.6 6,12.3 6,12.3 25.3,16.5 				"/>
				<polygon class="st206" points="25.3,16.7 6,12.4 6,12.3 25.3,16.6 				"/>
				<polygon class="st207" points="25.3,16.7 6,12.5 6,12.4 25.3,16.7 				"/>
				<polygon class="st208" points="25.3,16.8 6,12.5 6,12.5 25.3,16.7 				"/>
				<polygon class="st209" points="25.3,16.8 6,12.6 6,12.5 25.3,16.8 				"/>
				<polygon class="st210" points="25.3,16.9 6,12.7 6,12.6 25.3,16.8 				"/>
				<polygon class="st211" points="25.3,17 6,12.7 6,12.7 25.3,16.9 				"/>
				<polygon class="st212" points="25.3,17 6,12.8 6,12.7 25.3,17 				"/>
				<polygon class="st213" points="25.3,17.1 6,12.9 6,12.8 25.3,17 				"/>
				<polygon class="st214" points="25.3,17.2 6,12.9 6,12.9 25.3,17.1 				"/>
				<polygon class="st214" points="25.3,17.2 6,13 6,12.9 25.3,17.2 				"/>
				<polygon class="st215" points="25.3,17.3 6,13.1 6,13 25.3,17.2 				"/>
				<polygon class="st215" points="25.3,17.4 6,13.1 6,13.1 25.3,17.3 				"/>
				<polygon class="st216" points="25.3,17.4 25.3,17.4 6,13.2 6,13.1 25.3,17.4 				"/>
				<polygon class="st217" points="25.3,17.4 25.3,17.5 6,13.2 6,13.2 				"/>
				<polygon class="st218" points="25.3,17.5 25.3,17.5 6,13.3 6,13.2 				"/>
				<polygon class="st219" points="25.3,17.5 25.3,17.6 6,13.4 6,13.3 				"/>
				<polygon class="st220" points="25.3,17.6 25.3,17.7 6,13.4 6,13.4 				"/>
				<polygon class="st221" points="25.3,17.7 25.3,17.7 6,13.5 6,13.4 				"/>
				<polygon class="st221" points="25.3,17.7 25.3,17.8 6,13.6 6,13.5 				"/>
				<polygon class="st222" points="25.3,17.8 25.2,17.9 6,13.6 6,13.6 				"/>
				<polygon class="st222" points="25.2,17.9 25.2,17.9 6,13.7 6,13.6 				"/>
				<polygon class="st223" points="25.2,17.9 25.2,18 6,13.8 6,13.7 				"/>
				<polygon class="st224" points="25.2,18 25.2,18 6,13.8 6,13.8 				"/>
				<polygon class="st225" points="25.2,18 25.2,18.1 6,13.9 6,13.8 				"/>
				<polygon class="st225" points="25.2,18.1 25.2,18.2 6,14 6,13.9 				"/>
				<polygon class="st226" points="25.2,18.2 25.2,18.2 6,14 6,14 				"/>
				<polygon class="st226" points="25.2,18.2 25.1,18.3 6,14.1 6,14 				"/>
				<polygon class="st227" points="25.1,18.3 25.1,18.3 6,14.1 6,14.1 				"/>
				<polygon class="st227" points="25.1,18.3 25.1,18.4 6,14.2 6,14.1 				"/>
				<polygon class="st228" points="25.1,18.4 25.1,18.5 6,14.3 6,14.2 				"/>
				<polygon class="st228" points="25.1,18.5 25.1,18.5 6,14.3 6,14.3 				"/>
				<polygon class="st229" points="25.1,18.5 25.1,18.6 6,14.4 6,14.3 				"/>
				<polygon class="st230" points="25.1,18.6 25.1,18.7 6,14.5 6,14.4 				"/>
				<polygon class="st231" points="25.1,18.7 25,18.7 6,14.5 6,14.5 				"/>
				<polygon class="st232" points="25,18.7 25,18.8 6,14.6 6,14.5 				"/>
				<polygon class="st233" points="25,18.8 25,18.8 6,14.7 6,14.6 				"/>
				<polygon class="st234" points="25,18.8 25,18.9 6,14.7 6,14.7 				"/>
				<polygon class="st235" points="25,18.9 25,19 6,14.8 6,14.7 				"/>
				<polygon class="st236" points="25,19 25,19 6,14.9 6,14.8 				"/>
				<polygon class="st237" points="25,19 25,19.1 6,14.9 6,14.9 				"/>
				<polygon class="st238" points="25,19.1 25,19.1 6,15 6,14.9 				"/>
				<polygon class="st239" points="25,19.1 24.9,19.2 6,15 6,15 				"/>
				<polygon class="st240" points="24.9,19.2 24.9,19.3 6,15.1 6,15 				"/>
				<polygon class="st240" points="24.9,19.3 24.9,19.3 6,15.2 6,15.1 				"/>
				<polygon class="st241" points="24.9,19.3 24.9,19.4 6,15.2 6,15.2 				"/>
				<polygon class="st241" points="24.9,19.4 24.9,19.4 6,15.3 6,15.2 				"/>
				<polygon class="st242" points="24.9,19.4 24.9,19.5 6,15.4 6,15.3 				"/>
				<polygon class="st243" points="24.9,19.5 24.9,19.6 6,15.4 6,15.4 				"/>
				<polygon class="st244" points="24.9,19.6 24.8,19.6 6,15.5 6,15.4 				"/>
				<polygon class="st245" points="24.8,19.6 24.8,19.7 6,15.6 6,15.5 				"/>
				<polygon class="st246" points="24.8,19.7 24.8,19.8 6,15.6 6,15.6 				"/>
				<polygon class="st247" points="24.8,19.8 24.8,19.8 6,15.7 6,15.6 				"/>
				<polygon class="st248" points="24.8,19.8 24.8,19.9 6,15.8 6,15.7 				"/>
				<polygon class="st249" points="24.8,19.9 24.8,19.9 6,15.8 6,15.8 				"/>
				<polygon class="st250" points="24.8,19.9 24.8,20 6,15.9 6,15.8 				"/>
				<polygon class="st250" points="24.8,20 24.7,20.1 6,15.9 6,15.9 				"/>
				<polygon class="st251" points="24.7,20.1 24.7,20.1 6,16 6,15.9 				"/>
				<polygon class="st252" points="24.7,20.1 24.7,20.2 6,16.1 6,16 				"/>
				<polygon class="st253" points="24.7,20.2 24.7,20.2 6,16.1 6,16.1 				"/>
				<polygon class="st254" points="24.7,20.2 24.7,20.3 6,16.2 6,16.1 				"/>
				<polygon class="st255" points="24.7,20.3 24.7,20.4 6,16.3 6,16.2 				"/>
				<polygon class="st256" points="24.7,20.4 24.7,20.4 6,16.3 6,16.3 				"/>
				<polygon class="st257" points="24.7,20.4 24.6,20.5 6,16.4 6,16.3 				"/>
				<polygon class="st258" points="24.6,20.5 24.6,20.6 6,16.5 6,16.4 				"/>
				<polygon class="st259" points="24.6,20.6 24.6,20.6 6,16.5 6,16.5 				"/>
				<polygon class="st260" points="24.6,20.6 24.6,20.7 6,16.6 6,16.5 				"/>
				<polygon class="st261" points="24.6,20.7 24.6,20.7 6,16.7 6,16.6 				"/>
				<polygon class="st262" points="24.6,20.7 24.6,20.8 6,16.7 6,16.7 				"/>
				<polygon class="st263" points="24.6,20.8 24.6,20.9 6,16.8 6,16.7 				"/>
				<polygon class="st263" points="24.6,20.9 24.6,20.9 6,16.8 6,16.8 				"/>
				<polygon class="st264" points="24.6,20.9 24.5,21 6,16.9 6,16.8 				"/>
				<polygon class="st265" points="24.5,21 24.5,21 6,17 6,16.9 				"/>
				<polygon class="st266" points="24.5,21 24.5,21.1 6,17 6,17 				"/>
				<polygon class="st267" points="24.5,21.1 24.5,21.2 6,17.1 6,17 				"/>
				<polygon class="st268" points="24.5,21.2 24.5,21.2 6,17.2 6,17.1 				"/>
				<polygon class="st269" points="24.5,21.2 24.5,21.3 6,17.2 6,17.2 				"/>
				<polygon class="st270" points="24.5,21.3 24.5,21.3 6,17.3 6,17.2 				"/>
				<polygon class="st271" points="24.5,21.3 24.4,21.4 6,17.4 6,17.3 				"/>
				<polygon class="st271" points="24.4,21.4 24.4,21.5 6,17.4 6,17.4 				"/>
				<polygon class="st272" points="24.4,21.5 24.4,21.5 6,17.5 6,17.4 				"/>
				<polygon class="st273" points="24.4,21.5 24.4,21.6 6,17.6 6,17.5 				"/>
				<polygon class="st274" points="24.4,21.6 24.4,21.7 6,17.6 6,17.6 				"/>
				<polygon class="st275" points="24.4,21.7 24.4,21.7 6,17.7 6,17.6 				"/>
				<polygon class="st276" points="24.4,21.7 24.4,21.8 6,17.7 6,17.7 				"/>
				<polygon class="st276" points="24.4,21.8 24.3,21.8 6,17.8 6,17.7 				"/>
				<polygon class="st277" points="24.3,21.8 24.3,21.9 6,17.9 6,17.8 				"/>
				<polygon class="st278" points="24.3,21.9 24.3,22 6,17.9 6,17.9 				"/>
				<polygon class="st279" points="24.3,22 24.3,22 6,18 6,17.9 				"/>
				<polygon class="st280" points="24.3,22 24.3,22.1 6,18.1 6,18 				"/>
				<polygon class="st281" points="24.3,22.1 24.3,22.1 6,18.1 6,18.1 				"/>
				<polygon class="st281" points="24.3,22.1 24.3,22.2 6,18.2 6,18.1 				"/>
				<polygon class="st282" points="24.3,22.2 24.2,22.3 6,18.3 6,18.2 				"/>
				<polygon class="st283" points="24.2,22.3 24.2,22.3 6,18.3 6,18.3 				"/>
				<polygon class="st284" points="24.2,22.3 24.2,22.4 6,18.4 6,18.3 				"/>
				<polygon class="st285" points="24.2,22.4 24.2,22.5 6,18.5 6,18.4 				"/>
				<polygon class="st286" points="24.2,22.5 24.2,22.5 6,18.5 6,18.5 				"/>
				<polygon class="st287" points="24.2,22.5 24.2,22.6 6,18.6 6,18.5 				"/>
				<polygon class="st288" points="24.2,22.6 24.2,22.6 6,18.6 6,18.6 				"/>
				<polygon class="st289" points="24.2,22.6 24.2,22.7 6,18.7 6,18.6 				"/>
				<polygon class="st290" points="24.2,22.7 24.1,22.8 6,18.8 6,18.7 				"/>
				<polygon class="st291" points="24.1,22.8 24.1,22.8 6,18.8 6,18.8 				"/>
				<polygon class="st292" points="24.1,22.8 24.1,22.9 6,18.9 6,18.8 				"/>
				<polygon class="st293" points="24.1,22.9 24.1,22.9 6,19 6,18.9 				"/>
				<polygon class="st293" points="24.1,22.9 24.1,23 6,19 6,19 				"/>
				<polygon class="st294" points="24.1,23 24.1,23.1 6,19.1 6,19 				"/>
				<polygon class="st294" points="24.1,23.1 24.1,23.1 6,19.2 6,19.1 				"/>
				<polygon class="st295" points="24.1,23.1 24,23.2 6,19.2 6,19.2 				"/>
				<polygon class="st296" points="24,23.2 24,23.3 6,19.3 6,19.2 				"/>
				<polygon class="st297" points="24,23.3 24,23.3 6,19.4 6,19.3 				"/>
				<polygon class="st298" points="24,23.3 24,23.4 6,19.4 6,19.4 				"/>
				<polygon class="st299" points="24,23.4 24,23.4 6,19.5 6,19.4 				"/>
				<polygon class="st300" points="24,23.4 24,23.5 6,19.6 6,19.5 				"/>
				<polygon class="st300" points="24,23.5 24,23.6 6,19.6 6,19.6 				"/>
				<polygon class="st301" points="24,23.6 23.9,23.6 6,19.7 6,19.6 				"/>
				<polygon class="st302" points="23.9,23.6 23.9,23.7 6,19.7 6,19.7 				"/>
				<polygon class="st303" points="23.9,23.7 23.9,23.7 6,19.8 6,19.7 				"/>
				<polygon class="st303" points="23.9,23.7 23.5,25.8 6,25.8 6,19.8 				"/>
			</g>
		</g>
	</g>
</g>
</svg>
