<?xml version="1.0" encoding="utf-8"?>
<!-- Generator: Adobe Illustrator 21.0.0, SVG Export Plug-In . SVG Version: 6.00 Build 0)  -->
<svg version="1.1" id="Слой_1" xmlns="http://www.w3.org/2000/svg" xmlns:xlink="http://www.w3.org/1999/xlink" x="0px" y="0px"
	 viewBox="0 0 75.1 74.9" style="enable-background:new 0 0 75.1 74.9;" xml:space="preserve">
<style type="text/css">
	.st0{fill:#8C2727;}
</style>
<g>
	<path class="st0" d="M20.1,13.1c5.6,0,12.3,3.1,14.4,11.9l3.6,15.6l4.1-15.5c1.9-7.1,7-11.3,13.8-11.3c7,0,14.5,5.1,14.5,14.4
		c0,14.5-22.3,32.5-33.4,39.9C26.6,60.4,5.6,41.7,5.6,27.1C5.6,17.9,12.9,13.1,20.1,13.1 M20.1,9.2c-9.3,0-18.5,6.5-18.5,17.9
		C1.6,48.3,37,73,37,73s37.4-23.6,37.4-44.7c0-11.7-9.2-18.4-18.4-18.4c-7.5,0-15,4.4-17.6,14.3C36,13.9,28,9.2,20.1,9.2L20.1,9.2z"
		/>
</g>
</svg>
