<?xml version="1.0" encoding="utf-8"?>
<!-- Generator: Adobe Illustrator 21.0.0, SVG Export Plug-In . SVG Version: 6.00 Build 0)  -->
<svg version="1.1" id="Слой_1" xmlns="http://www.w3.org/2000/svg" xmlns:xlink="http://www.w3.org/1999/xlink" x="0px" y="0px"
	 viewBox="0 0 44.2 44.2" style="enable-background:new 0 0 44.2 44.2;" xml:space="preserve">
<style type="text/css">
	.st0{fill:none;stroke:#979998;stroke-width:1.5661;stroke-miterlimit:10;}
	.st1{fill:none;stroke:#979998;stroke-width:1.1746;stroke-miterlimit:10;}
	.st2{fill:none;stroke:#979998;stroke-width:0.7831;stroke-miterlimit:10;}
	.st3{fill:none;stroke:#979998;stroke-width:0.5549;stroke-miterlimit:10;}
</style>
<circle class="st0" cx="22.4" cy="22.1" r="20.8"/>
<circle class="st1" cx="22.3" cy="22.4" r="3.6"/>
<g>
	<line class="st2" x1="22.3" y1="20.7" x2="22.3" y2="24.1"/>
	<line class="st2" x1="20.6" y1="22.4" x2="24" y2="22.4"/>
</g>
<circle class="st1" cx="15" cy="34.1" r="3.6"/>
<line class="st2" x1="13.2" y1="34.1" x2="16.7" y2="34.1"/>
<circle class="st1" cx="29.9" cy="10.4" r="3.6"/>
<line class="st2" x1="28.2" y1="10.4" x2="31.6" y2="10.4"/>
<ellipse transform="matrix(0.7539 -0.657 0.657 0.7539 -9.315 20.1455)" class="st3" cx="22.2" cy="22.5" rx="7.3" ry="16.6"/>
<path class="st3" d="M11.4,34.5"/>
<path class="st3" d="M33.5,10.7c0.5,0.2,0.9,0.5,1.3,0.9C37.4,14.6,34,22,27,28c-2.8,2.5-5.8,4.4-8.6,5.5"/>
<path class="st3" d="M11.4,34.5c-0.7-0.2-1.2-0.6-1.7-1.1C7,30.4,10.5,23,17.4,17c3.1-2.7,6.3-4.6,9.2-5.7"/>
</svg>
