<?xml version="1.0" encoding="utf-8"?>
<!-- Generator: Adobe Illustrator 21.0.0, SVG Export Plug-In . SVG Version: 6.00 Build 0)  -->
<svg version="1.1" id="Слой_1" xmlns="http://www.w3.org/2000/svg" xmlns:xlink="http://www.w3.org/1999/xlink" x="0px" y="0px"
	 viewBox="0 0 44.2 44.2" style="enable-background:new 0 0 44.2 44.2;" xml:space="preserve">
<style type="text/css">
	.st0{fill:none;stroke:#979998;stroke-width:1.5712;stroke-miterlimit:10;}
	.st1{fill:#979998;}
</style>
<ellipse class="st0" cx="22.3" cy="22.1" rx="20.7" ry="20.9"/>
<path class="st1" d="M30.9,21.4c0-5.1,3.2-6.7,5.6-9c-0.5-1.2-1.7-4.1-1.7-4.1s-4.9,4.4-9-0.9c0,0-1.6,1.4-4.1,0.9
	C20.9,8.3,20,8,19.1,7.5c0,0-2.6,4.9-9,1c-0.6,1.4-1.8,3.9-1.8,3.9s6.1,3,5.7,9c-0.3,6-4,9.1-5.7,11.1c0.9,1.1,2.9,3.9,2.9,3.9
	S18,31.1,22.5,39c0.3-0.7,3.3-7.3,11.2-2.8c0.7-0.7,2.8-3.7,2.8-3.7S31,27.7,30.9,21.4z"/>
</svg>
