<?xml version="1.0" encoding="utf-8"?>
<!-- Generator: Adobe Illustrator 21.0.0, SVG Export Plug-In . SVG Version: 6.00 Build 0)  -->
<svg version="1.1" id="Слой_1" xmlns="http://www.w3.org/2000/svg" xmlns:xlink="http://www.w3.org/1999/xlink" x="0px" y="0px"
	 viewBox="0 0 75.1 74.9" style="enable-background:new 0 0 75.1 74.9;" xml:space="preserve">
<style type="text/css">
	.st0{fill:none;stroke:#8C2727;stroke-width:5.0154;stroke-miterlimit:10;}
	.st1{fill:none;stroke:#8C2727;stroke-width:3.5824;stroke-miterlimit:10;}
	.st2{fill:#8C2727;}
</style>
<path class="st0" d="M59.3,23c0,10.5-19.2,40.8-19.2,40.8S21.3,33.5,21.3,23s8.5-19,19-19S59.3,12.5,59.3,23z"/>
<circle class="st1" cx="40.3" cy="21.9" r="8.8"/>
<g>
	<path class="st2" d="M47,59.6c4.1-0.1,8.2,0.1,12.3,0.9c1,0.2,2,0.5,3.1,0.8c1,0.3,2,0.7,3,1.4c0.5,0.3,1,0.7,1.4,1.4
		c0.2,0.3,0.4,0.7,0.5,1.2c0.1,0.5,0,0.9-0.1,1.3c-0.3,0.8-0.8,1.4-1.3,1.8c-0.5,0.4-1,0.8-1.5,1c-2,1.1-4,1.8-6.1,2.3
		c-2.1,0.5-4.1,0.9-6.2,1.2c-4.1,0.6-8.3,0.8-12.5,0.8c-4.2,0-8.3-0.3-12.5-0.9c-2.1-0.3-4.1-0.7-6.2-1.2C19,71.2,17,70.5,15,69.3
		c-0.5-0.3-1-0.7-1.5-1.2c-0.5-0.5-0.9-1.2-1-2.2c-0.1-1,0.4-1.8,0.8-2.3c0.5-0.5,1-0.9,1.5-1.2c2-1.1,4.1-1.6,6.1-2
		c4.1-0.8,8.2-1,12.3-0.9c-4,0.7-8.1,1.4-11.9,2.6c-1.9,0.6-3.8,1.3-5.3,2.3c-0.4,0.3-0.7,0.5-0.8,0.8c-0.2,0.3-0.2,0.4-0.2,0.5
		c0,0.2,0.6,0.8,1.3,1.2c1.6,0.8,3.5,1.3,5.4,1.8c1.9,0.4,3.9,0.7,5.9,0.9c4,0.5,8,0.7,12,0.7c4,0,8-0.2,12-0.6c2-0.2,4-0.5,5.9-0.9
		c1.9-0.4,3.9-0.9,5.5-1.7c0.8-0.4,1.5-0.9,1.6-1.3c0-0.1,0.1-0.2,0-0.4c-0.1-0.2-0.4-0.5-0.7-0.8c-1.4-1.1-3.3-1.8-5.2-2.4
		C55.1,61,51,60.3,47,59.6z"/>
</g>
</svg>
