<?xml version="1.0" encoding="utf-8"?>
<!-- Generator: Adobe Illustrator 21.0.0, SVG Export Plug-In . SVG Version: 6.00 Build 0)  -->
<svg version="1.1" id="Слой_1" xmlns="http://www.w3.org/2000/svg" xmlns:xlink="http://www.w3.org/1999/xlink" x="0px" y="0px"
	 viewBox="0 0 238.3 166.8" style="enable-background:new 0 0 238.3 166.8;" xml:space="preserve">
<style type="text/css">
	.st0{fill:#989898;}
	.st1{fill:#B11F24;}
	.st2{fill:#FFFFFF;}
	.st3{font-family:'MyriadPro-Semibold';}
	.st4{font-size:19.5572px;}
</style>
<path class="st0" d="M12.6,22.2V9.6c0.7-0.1,2.2-0.3,4.7-0.3c4.8,0.1,7.6,2.2,7.6,6.4c0,4-3.1,6.6-8.2,6.6H12.6 M16.1,1.6
	c-5.5,0-10.5,0.4-13.8,1v45.2h10.3v-18h3.1c4.2,0.1,6.2,1.6,7.4,7.3c1.4,5.6,2.5,9.4,3.2,10.7h10.6C36,46,34.6,40,33.2,34.8
	c-1.2-4.2-2.9-7.3-6.1-8.6V26c3.9-1.4,8.1-5.4,8.1-11.3c0-4.2-1.5-7.4-4.2-9.6C27.7,2.6,22.9,1.6,16.1,1.6"/>
<polyline class="st0" points="70.9,1.9 42.6,1.9 42.6,47.8 71.9,47.8 71.9,39.2 53,39.2 53,28.4 69.9,28.4 69.9,19.9 53,19.9 
	53,10.4 70.9,10.4 70.9,1.9 "/>
<polyline class="st0" points="89.4,1.9 79,1.9 79,47.8 107.6,47.8 107.6,39 89.4,39 89.4,1.9 "/>
<path class="st0" d="M126.3,28.2l2.7-9.7c0.7-2.7,1.4-6.1,2.1-8.8h0.1c0.7,2.7,1.5,6.1,2.3,8.8l2.9,9.7H126.3 M138.4,1.9h-13.6
	l-14,45.9h10.8l3.3-11.8h13.1l3.5,11.8h11.2L138.4,1.9"/>
<path class="st0" d="M192.6,1.9h-11.8l-3.9,8.4c-1.2,2.7-2,4.7-3.1,7.6h-0.1c-1.1-2.6-2.1-4.8-3.5-7.6l-4-8.4h-11.9L167,24.5
	l-13.3,23.2h11.8l3.8-8.3c1.4-3.2,2.6-5.6,3.5-8.2h0.1c1.3,2.7,2.4,5,4.1,8.2l4.2,8.3h12l-13.6-23.5L192.6,1.9"/>
<path class="st0" d="M210.1,28.2l2.7-9.7c0.7-2.7,1.4-6.1,2.1-8.8h0.1c0.7,2.7,1.5,6.1,2.3,8.8l2.9,9.7H210.1 M222.2,1.9h-13.6
	l-14,45.9h10.8l3.3-11.8h13.1l3.5,11.8h11.2L222.2,1.9"/>
<path class="st0" d="M27.7,57.2c-15.3,0-24.6,8.5-24.6,19.6c0,9.4,7,15.4,17.8,19.2c7.8,2.8,10.9,5.1,10.9,9.2c0,4.2-3.6,7-10.3,7
	c-6.3,0-12.3-2-16.3-4l-3,12.1c3.7,2,11,3.9,18.4,3.9c17.8,0,26.2-9.2,26.2-20.1c0-9.2-5.4-15.1-16.9-19.4c-8.4-3.2-12-5-12-9.2
	c0-3.4,3.1-6.3,9.4-6.3c6.4,0,11,1.8,13.6,3.1l3.3-11.8C40.4,58.7,35,57.2,27.7,57.2"/>
<polyline class="st0" points="101.8,58.2 51.9,58.2 51.9,70.5 69.3,70.5 69.3,123.1 84.1,123.1 84.1,70.5 101.8,70.5 101.8,58.2 "/>
<path class="st0" d="M202,87V69.1c1.1-0.2,3.1-0.5,6.6-0.5c6.7,0.1,10.8,3.1,10.8,9.1c0,5.7-4.3,9.3-11.7,9.3H202 M207,57.7
	c-7.8,0-14.8,0.6-19.6,1.3v64.1H202V97.6h4.4c6,0.1,8.8,2.3,10.5,10.4c1.9,8,3.5,13.3,4.5,15.1h15c-1.3-2.5-3.3-11-5.3-18.3
	c-1.6-6-4.1-10.3-8.7-12.1v-0.3c5.6-2,11.5-7.7,11.5-16c0-6-2.1-10.5-6-13.6C223.3,59.2,216.6,57.7,207,57.7"/>
<polyline class="st1" points="139.5,51.4 127.7,75.3 101.2,79.1 120.4,97.8 115.8,124.1 139.5,111.7 163.1,124.1 158.6,97.8 
	177.7,79.1 151.3,75.3 139.5,51.4 "/>
<rect x="2.3" y="131.2" class="st0" width="234.2" height="34"/>
<text transform="matrix(1 0 0 1 9.8001 155.2553)" class="st2 st3 st4">ТЕХНОЛОГИИ ЗДОРОВЬЯ</text>
</svg>
