<?xml version="1.0" encoding="utf-8"?>
<!-- Generator: Adobe Illustrator 21.0.0, SVG Export Plug-In . SVG Version: 6.00 Build 0)  -->
<svg version="1.1" id="Слой_1" xmlns="http://www.w3.org/2000/svg" xmlns:xlink="http://www.w3.org/1999/xlink" x="0px" y="0px"
	 viewBox="0 0 238.3 237.8" style="enable-background:new 0 0 238.3 237.8;" xml:space="preserve">
<style type="text/css">
	.st0{opacity:0.5;fill:#979998;}
	.st1{fill:#FFFFFF;}
	.st2{fill:#8D2727;}
	.st3{font-family:'MyriadPro-Semibold';}
	.st4{font-size:13.5251px;}
</style>
<circle class="st0" cx="119.7" cy="119.2" r="117.3"/>
<path class="st1" d="M45.8,84.6v-8.8c0.5-0.1,1.5-0.2,3.2-0.2c3.3,0,5.3,1.5,5.3,4.4c0,2.8-2.1,4.6-5.7,4.6H45.8 M48.2,70.3
	c-3.8,0-7.2,0.3-9.6,0.7v31.3h7.1V89.8h2.2c2.9,0,4.3,1.1,5.1,5.1c0.9,3.9,1.7,6.5,2.2,7.4h7.3C62,101,61,96.9,60,93.3
	c-0.8-2.9-2-5-4.2-5.9v-0.1c2.7-1,5.6-3.8,5.6-7.8c0-2.9-1-5.1-2.9-6.6C56.2,71,52.9,70.3,48.2,70.3"/>
<polyline class="st1" points="86.1,70.6 66.6,70.6 66.6,102.3 86.8,102.3 86.8,96.4 73.8,96.4 73.8,88.9 85.4,88.9 85.4,83 73.8,83 
	73.8,76.4 86.1,76.4 86.1,70.6 "/>
<polyline class="st1" points="98.9,70.6 91.7,70.6 91.7,102.3 111.5,102.3 111.5,96.2 98.9,96.2 98.9,70.6 "/>
<path class="st1" d="M124.4,88.8l1.9-6.7c0.5-1.8,1-4.2,1.5-6.1h0.1c0.5,1.9,1,4.2,1.6,6.1l2,6.7H124.4 M132.8,70.6h-9.4l-9.7,31.7
	h7.4l2.3-8.1h9.1l2.4,8.1h7.7L132.8,70.6"/>
<path class="st1" d="M170.3,70.6h-8.2l-2.7,5.8c-0.8,1.8-1.4,3.2-2.2,5.3h-0.1c-0.7-1.8-1.5-3.3-2.4-5.3l-2.8-5.8h-8.2l8.8,15.7
	l-9.2,16h8.2l2.6-5.7c1-2.2,1.8-3.9,2.4-5.7h0.1c0.9,1.8,1.6,3.5,2.8,5.7l2.9,5.7h8.3L161.3,86L170.3,70.6"/>
<path class="st1" d="M182.4,88.8l1.9-6.7c0.5-1.8,1-4.2,1.5-6.1h0.1c0.5,1.9,1,4.2,1.6,6.1l2,6.7H182.4 M190.8,70.6h-9.4l-9.7,31.7
	h7.4l2.3-8.1h9.1l2.4,8.1h7.7L190.8,70.6"/>
<path class="st1" d="M56.2,108.8c-10.6,0-17,5.9-17,13.5c0,6.5,4.9,10.7,12.3,13.3c5.4,1.9,7.5,3.5,7.5,6.3c0,2.9-2.5,4.9-7.1,4.9
	c-4.3,0-8.5-1.4-11.3-2.8l-2.1,8.4c2.5,1.4,7.6,2.7,12.7,2.7c12.3,0,18.1-6.4,18.1-13.9c0-6.3-3.7-10.5-11.7-13.4
	c-5.8-2.2-8.3-3.5-8.3-6.3c0-2.3,2.1-4.3,6.5-4.3c4.4,0,7.6,1.3,9.4,2.1l2.3-8.2C65,109.8,61.3,108.8,56.2,108.8"/>
<polyline class="st1" points="107.5,109.5 73,109.5 73,118 85,118 85,154.4 95.2,154.4 95.2,118 107.5,118 107.5,109.5 "/>
<path class="st1" d="M176.8,129.4V117c0.7-0.1,2.1-0.3,4.6-0.3c4.7,0.1,7.5,2.1,7.5,6.3c0,3.9-3,6.5-8.1,6.5H176.8 M180.2,109.2
	c-5.4,0-10.3,0.4-13.5,0.9v44.3h10.1v-17.7h3.1c4.1,0.1,6.1,1.6,7.3,7.2c1.3,5.5,2.4,9.2,3.1,10.5h10.4c-0.9-1.7-2.3-7.6-3.7-12.7
	c-1.1-4.1-2.9-7.1-6-8.4v-0.2c3.9-1.4,7.9-5.3,7.9-11.1c0-4.1-1.5-7.3-4.1-9.4C191.5,110.2,186.9,109.2,180.2,109.2"/>
<polyline class="st2" points="133.5,104.8 125.4,121.3 107.1,124 120.3,136.9 117.2,155.1 133.5,146.5 149.9,155.1 146.8,136.9 
	160,124 141.7,121.3 133.5,104.8 "/>
<text transform="matrix(1 0 0 1 43.8636 176.6157)" class="st1 st3 st4">ТЕХНОЛОГИИ ЗДОРОВЬЯ</text>
</svg>
