<?xml version="1.0" encoding="utf-8"?>
<!-- Generator: Adobe Illustrator 21.0.0, SVG Export Plug-In . SVG Version: 6.00 Build 0)  -->
<svg version="1.1" id="Слой_1" xmlns="http://www.w3.org/2000/svg" xmlns:xlink="http://www.w3.org/1999/xlink" x="0px" y="0px"
	 viewBox="0 0 44.2 44.2" style="enable-background:new 0 0 44.2 44.2;" xml:space="preserve">
<style type="text/css">
	.st0{fill:none;stroke:#979998;stroke-width:1.6001;stroke-miterlimit:10;}
	.st1{fill:#979998;}
</style>
<circle class="st0" cx="22.3" cy="22.1" r="21.2"/>
<g>
	<g>
		<path class="st1" d="M10.5,31c-0.4,0-3.9-1.1-1-3.7l4-3.3c0,0,2.1-2,4.2-0.9c1.1,0.5,1.6,0.7,1.6,0.7s0.8,0.4,1.7-1.1
			c0.7-1.3,3.1-5.5,3.1-5.5s0.5-1.7,2.6-0.4c1,0.5,3.5,1.8,3.1,1.7s1.3,0.2,0.7,1.9c-0.3,0.7-1.5,2.2-2.3,3.7
			c-1,1.9-1.2,2.8-1.7,3.7C26,28.6,25,29.6,23,28.7c-2.3-0.5-5.1-1.9-5.4-2c-0.4-0.1-1.1-0.9-2.5,0.5C13.5,28.9,11.1,31,10.5,31z"/>
	</g>
</g>
<g>
	<g>
		<path class="st1" d="M31.2,17.2L31.2,17.2c-2.1,0.7-4.3-0.4-5-2.5l0,0c-0.7-2.1,0.4-4.3,2.5-5l0,0c2.1-0.7,4.3,0.4,5,2.5l0,0
			C34.4,14.3,33.3,16.5,31.2,17.2z"/>
	</g>
</g>
<path class="st1" d="M36.1,20c-0.1-0.3-0.3-0.6-0.7-0.7l-0.8-0.4c-0.2-0.1-0.4-0.1-0.6-0.1c-0.2,0-0.5,0.1-0.7,0.2
	c-0.3,0.2-0.5,0.4-0.6,0.7c-0.7,1.3-3.3,6-5.3,9.5c-0.8,1.3-1.8,2-3.1,2c-0.7,0-1.2-0.2-1.2-0.2l-5.8-1.9c-0.1,0-0.3-0.1-0.4-0.1
	c-0.5,0-1.1,0.3-1.2,0.8l-0.3,0.8c-0.1,0.3-0.1,0.7,0.1,0.9c0.2,0.3,0.4,0.5,0.8,0.6l5.7,1.8c0.2,0.1,1.2,0.4,2.4,0.4
	c0.1,0,0.3,0,0.4,0c1.7-0.1,4.1-0.8,5.8-3.7c2.2-3.7,5-8.9,5.5-9.8C36.2,20.7,36.2,20.3,36.1,20z M34,20L34,20
	c-0.1,0.2-0.4,0.6-0.7,1.3C33.7,20.7,33.9,20.2,34,20z M30.7,26c0.7-1.3,1.4-2.5,2-3.5C32.1,23.5,31.4,24.7,30.7,26
	c-0.3,0.5-0.6,1-0.9,1.5C30.1,27,30.4,26.5,30.7,26z M29.4,28.3c-0.3,0.5-0.6,1-0.9,1.5c-0.2,0.3-0.3,0.5-0.5,0.7
	c0.2-0.2,0.3-0.4,0.5-0.7C28.8,29.3,29.1,28.8,29.4,28.3z M27.9,30.6c-0.1,0.1-0.2,0.3-0.3,0.4C27.7,30.9,27.8,30.8,27.9,30.6z
	 M26.8,31.6c-0.1,0.1-0.2,0.1-0.3,0.2C26.6,31.8,26.7,31.7,26.8,31.6z M27.4,31.2c-0.1,0.1-0.2,0.2-0.3,0.3
	C27.2,31.4,27.3,31.3,27.4,31.2z M26.3,31.9C26.2,32,26.1,32,26,32.1C26.1,32,26.2,32,26.3,31.9z M25.8,32.1c-0.1,0-0.3,0.1-0.4,0.1
	C25.5,32.2,25.6,32.2,25.8,32.1z M25.3,32.3c-0.2,0-0.3,0.1-0.5,0.1C24.9,32.3,25.1,32.3,25.3,32.3z M24.6,32.4c-0.1,0-0.2,0-0.3,0
	C24.4,32.4,24.5,32.4,24.6,32.4z M24.2,32.4c-0.2,0-0.4,0-0.5,0C23.8,32.4,24,32.4,24.2,32.4z M23.6,32.4c-0.2,0-0.3,0-0.5-0.1
	C23.3,32.3,23.5,32.3,23.6,32.4z M23.1,32.3c-0.1,0-0.2-0.1-0.3-0.1C22.9,32.2,23,32.2,23.1,32.3z M22.7,32.2c-0.1,0-0.1,0-0.1,0
	C22.6,32.1,22.7,32.1,22.7,32.2z M22.5,33C22.4,33,22.4,33,22.5,33C22.4,33,22.4,33,22.5,33z M22.8,33.1
	C22.8,33.1,22.9,33.1,22.8,33.1C22.9,33.1,22.8,33.1,22.8,33.1z M23.4,33.2c0,0,0.1,0,0.1,0C23.5,33.2,23.5,33.2,23.4,33.2z
	 M24.6,33.2c-0.1,0-0.2,0-0.4,0c0,0,0,0,0,0C24.4,33.2,24.5,33.2,24.6,33.2c0.2,0,0.4,0,0.6-0.1C25,33.2,24.8,33.2,24.6,33.2z
	 M31.1,27.1c-0.6,1.1-1.2,2.1-1.8,3.1c-0.5,0.9-1.1,1.5-1.7,2c0.6-0.5,1.2-1.1,1.7-2C29.9,29.2,30.5,28.1,31.1,27.1
	c0.3-0.5,0.6-1.1,0.9-1.6C31.7,26,31.4,26.5,31.1,27.1z M33.2,23.3c0.2-0.4,0.5-0.9,0.7-1.2C33.7,22.4,33.5,22.8,33.2,23.3z"/>
</svg>
