<?xml version="1.0" encoding="utf-8"?>
<!-- Generator: Adobe Illustrator 21.0.0, SVG Export Plug-In . SVG Version: 6.00 Build 0)  -->
<svg version="1.1" id="Слой_1" xmlns="http://www.w3.org/2000/svg" xmlns:xlink="http://www.w3.org/1999/xlink" x="0px" y="0px"
	 viewBox="0 0 44.2 44.2" style="enable-background:new 0 0 44.2 44.2;" xml:space="preserve">
<style type="text/css">
	.st0{fill:#B20808;}
</style>
<g>
	<path class="st0" d="M39.9,35.2l-9-9c-1.3,2.1-3.1,3.8-5.2,5.2l9,9c1.4,1.4,3.7,1.4,5.2,0C41.4,38.9,41.4,36.6,39.9,35.2z"/>
	<path class="st0" d="M31.2,17c0-8.1-6.6-14.6-14.6-14.6C8.5,2.4,2,9,2,17c0,8.1,6.6,14.6,14.6,14.6C24.7,31.7,31.2,25.1,31.2,17z
		 M16.6,28c-6.1,0-11-4.9-11-11c0-6.1,4.9-11,11-11c6.1,0,11,4.9,11,11C27.6,23.1,22.7,28,16.6,28z"/>
	<path class="st0" d="M8.1,17h2.4c0-3.4,2.7-6.1,6.1-6.1V8.5C11.9,8.5,8.1,12.3,8.1,17z"/>
</g>
</svg>
