<?xml version="1.0" encoding="utf-8"?>
<!-- Generator: Adobe Illustrator 21.0.0, SVG Export Plug-In . SVG Version: 6.00 Build 0)  -->
<svg version="1.1" id="Слой_1" xmlns="http://www.w3.org/2000/svg" xmlns:xlink="http://www.w3.org/1999/xlink" x="0px" y="0px"
	 viewBox="0 0 179.4 94.2" style="enable-background:new 0 0 179.4 94.2;" xml:space="preserve">
<style type="text/css">
	.st0{fill:none;stroke:#979998;stroke-width:0.5767;stroke-miterlimit:10;}
	.st1{clip-path:url(#SVGID_4_);}
	.st2{fill:none;stroke:#979998;stroke-width:0.173;stroke-miterlimit:10;}
</style>
<path class="st0" d="M2.8,52.8c-0.1-0.9-4-37,18.8-47.3s25.1,4.3,67,3.3s52.5-11,72.4-1.8c17,11.1,19,44.1,14.7,58.1
	c0,0-4.5,18.7-17.4,23.5c-25.1,8.2-35.4-0.8-69.8-1.8c-23.1,0.3-37,5.8-55.9,3.8C13.7,88.8,5.5,73.3,2.8,52.8z"/>
<path class="st0" d="M10.7,53.1c-0.1-0.7-3.6-29.6,17-37.8s22.7,3.4,60.7,2.6c37.9-0.8,47.5-8.8,65.5-1.4
	c15.4,8.9,17.2,35.3,13.3,46.5c0,0-4.1,15-15.8,18.8c-22.7,6.6-32.1-0.7-63.1-1.4c-20.9,0.2-33.4,4.6-50.6,3.1S13,69.5,10.7,53.1z"
	/>
<circle class="st0" cx="34.2" cy="52.9" r="5.8"/>
<circle class="st0" cx="45.6" cy="33" r="11.3"/>
<circle class="st0" cx="68.2" cy="42.2" r="6.3"/>
<circle class="st0" cx="53.8" cy="60.4" r="9.6"/>
<circle class="st0" cx="113" cy="43.9" r="5.6"/>
<circle class="st0" cx="136.1" cy="33.6" r="10.4"/>
<circle class="st0" cx="144.7" cy="56.8" r="6.2"/>
<circle class="st0" cx="123.4" cy="61" r="10.3"/>
<g>
	<g>
		<defs>
			<path id="SVGID_1_" d="M10.7,53.1c-0.1-0.7-3.6-29.6,17-37.8s22.7,3.4,60.7,2.6c37.9-0.8,47.5-8.8,65.5-1.4
				c15.4,8.9,17.2,35.3,13.3,46.5c0,0-4.1,15-15.8,18.8c-22.7,6.6-32.1-0.7-63.1-1.4c-20.9,0.2-33.4,4.6-50.6,3.1S13,69.5,10.7,53.1
				z"/>
		</defs>
		<clipPath id="SVGID_2_">
			<use xlink:href="#SVGID_1_"  style="overflow:visible;"/>
		</clipPath>
	</g>
	<g>
		<defs>
			<path id="SVGID_3_" d="M10.7,53.1c-0.1-0.7-3.6-29.6,17-37.8s22.7,3.4,60.7,2.6c37.9-0.8,47.5-8.8,65.5-1.4
				c15.4,8.9,17.2,35.3,13.3,46.5c0,0-4.1,15-15.8,18.8c-22.7,6.6-32.1-0.7-63.1-1.4c-20.9,0.2-33.4,4.6-50.6,3.1S13,69.5,10.7,53.1
				z"/>
		</defs>
		<clipPath id="SVGID_4_">
			<use xlink:href="#SVGID_3_"  style="overflow:visible;"/>
		</clipPath>
		<g class="st1">
			<line class="st2" x1="2.1" y1="179.8" x2="-15.9" y2="41.4"/>
			<line class="st2" x1="4.3" y1="178.5" x2="-14" y2="40"/>
			<line class="st2" x1="6.5" y1="177.2" x2="-12.1" y2="38.6"/>
			<line class="st2" x1="8.7" y1="175.8" x2="-10.2" y2="37.2"/>
			<line class="st2" x1="10.9" y1="174.5" x2="-8.3" y2="35.7"/>
			<line class="st2" x1="13.1" y1="173.2" x2="-6.3" y2="34.3"/>
			<line class="st2" x1="15.3" y1="171.8" x2="-4.4" y2="32.9"/>
			<line class="st2" x1="17.4" y1="170.5" x2="-2.5" y2="31.5"/>
			<line class="st2" x1="19.6" y1="169.2" x2="-0.6" y2="30"/>
			<line class="st2" x1="21.8" y1="167.8" x2="1.3" y2="28.6"/>
			<line class="st2" x1="24" y1="166.5" x2="3.2" y2="27.2"/>
			<line class="st2" x1="26.2" y1="165.2" x2="5.1" y2="25.7"/>
			<line class="st2" x1="28.4" y1="163.8" x2="7" y2="24.3"/>
			<line class="st2" x1="30.6" y1="162.5" x2="8.9" y2="22.9"/>
			<line class="st2" x1="32.7" y1="161.2" x2="10.8" y2="21.5"/>
			<line class="st2" x1="34.9" y1="159.8" x2="12.7" y2="20"/>
			<line class="st2" x1="37.1" y1="158.5" x2="14.6" y2="18.6"/>
			<line class="st2" x1="39.3" y1="157.2" x2="16.5" y2="17.2"/>
			<line class="st2" x1="41.5" y1="155.8" x2="18.4" y2="15.8"/>
			<line class="st2" x1="43.7" y1="154.5" x2="20.3" y2="14.3"/>
			<line class="st2" x1="45.9" y1="153.2" x2="22.2" y2="12.9"/>
			<line class="st2" x1="48" y1="151.8" x2="24.1" y2="11.5"/>
			<line class="st2" x1="50.2" y1="150.5" x2="26" y2="10"/>
			<line class="st2" x1="52.4" y1="149.2" x2="27.9" y2="8.6"/>
			<line class="st2" x1="54.6" y1="147.8" x2="29.8" y2="7.2"/>
			<line class="st2" x1="56.8" y1="146.5" x2="31.7" y2="5.8"/>
			<line class="st2" x1="59" y1="145.2" x2="33.6" y2="4.3"/>
			<line class="st2" x1="61.2" y1="143.8" x2="35.6" y2="2.9"/>
			<line class="st2" x1="63.3" y1="142.5" x2="37.5" y2="1.5"/>
			<line class="st2" x1="65.5" y1="141.2" x2="39.4" y2="0.1"/>
			<line class="st2" x1="67.7" y1="139.8" x2="41.3" y2="-1.4"/>
			<line class="st2" x1="69.9" y1="138.5" x2="43.2" y2="-2.8"/>
			<line class="st2" x1="72.1" y1="137.2" x2="45.1" y2="-4.2"/>
			<line class="st2" x1="74.3" y1="135.8" x2="47" y2="-5.7"/>
			<line class="st2" x1="76.5" y1="134.5" x2="48.9" y2="-7.1"/>
			<line class="st2" x1="78.7" y1="133.2" x2="50.8" y2="-8.5"/>
			<line class="st2" x1="80.8" y1="131.8" x2="52.7" y2="-9.9"/>
			<line class="st2" x1="83" y1="130.5" x2="54.6" y2="-11.4"/>
			<line class="st2" x1="85.2" y1="129.2" x2="56.5" y2="-12.8"/>
			<line class="st2" x1="87.4" y1="127.8" x2="58.4" y2="-14.2"/>
			<line class="st2" x1="89.6" y1="126.5" x2="60.3" y2="-15.6"/>
			<line class="st2" x1="91.8" y1="125.2" x2="62.2" y2="-17.1"/>
			<line class="st2" x1="94" y1="123.8" x2="64.1" y2="-18.5"/>
			<line class="st2" x1="96.1" y1="122.5" x2="66" y2="-19.9"/>
			<line class="st2" x1="98.3" y1="121.2" x2="67.9" y2="-21.4"/>
			<line class="st2" x1="100.5" y1="119.8" x2="69.8" y2="-22.8"/>
			<line class="st2" x1="102.7" y1="118.5" x2="71.7" y2="-24.2"/>
			<line class="st2" x1="104.9" y1="117.2" x2="73.6" y2="-25.6"/>
			<line class="st2" x1="107.1" y1="115.8" x2="75.5" y2="-27.1"/>
			<line class="st2" x1="109.3" y1="114.5" x2="77.5" y2="-28.5"/>
			<line class="st2" x1="111.4" y1="113.2" x2="79.4" y2="-29.9"/>
			<line class="st2" x1="113.6" y1="111.8" x2="81.3" y2="-31.3"/>
			<line class="st2" x1="115.8" y1="110.5" x2="83.2" y2="-32.8"/>
			<line class="st2" x1="118" y1="109.2" x2="85.1" y2="-34.2"/>
			<line class="st2" x1="120.2" y1="107.8" x2="87" y2="-35.6"/>
			<line class="st2" x1="122.4" y1="106.5" x2="88.9" y2="-37.1"/>
			<line class="st2" x1="124.6" y1="105.2" x2="90.8" y2="-38.5"/>
			<line class="st2" x1="126.7" y1="103.9" x2="92.7" y2="-39.9"/>
			<line class="st2" x1="128.9" y1="102.5" x2="94.6" y2="-41.3"/>
			<line class="st2" x1="131.1" y1="101.2" x2="96.5" y2="-42.8"/>
			<line class="st2" x1="133.3" y1="99.9" x2="98.4" y2="-44.2"/>
			<line class="st2" x1="135.5" y1="98.5" x2="100.3" y2="-45.6"/>
			<line class="st2" x1="137.7" y1="97.2" x2="102.2" y2="-47"/>
			<line class="st2" x1="139.9" y1="95.9" x2="104.1" y2="-48.5"/>
			<line class="st2" x1="142.1" y1="94.5" x2="106" y2="-49.9"/>
			<line class="st2" x1="144.2" y1="93.2" x2="107.9" y2="-51.3"/>
			<line class="st2" x1="146.4" y1="91.9" x2="109.8" y2="-52.8"/>
			<line class="st2" x1="148.6" y1="90.5" x2="111.7" y2="-54.2"/>
			<line class="st2" x1="150.8" y1="89.2" x2="113.6" y2="-55.6"/>
			<line class="st2" x1="153" y1="87.9" x2="115.5" y2="-57"/>
			<line class="st2" x1="155.2" y1="86.5" x2="117.4" y2="-58.5"/>
			<line class="st2" x1="157.4" y1="85.2" x2="119.4" y2="-59.9"/>
			<line class="st2" x1="159.5" y1="83.9" x2="121.3" y2="-61.3"/>
			<line class="st2" x1="161.7" y1="82.5" x2="123.2" y2="-62.8"/>
			<line class="st2" x1="163.9" y1="81.2" x2="125.1" y2="-64.2"/>
			<line class="st2" x1="166.1" y1="79.9" x2="127" y2="-65.6"/>
			<line class="st2" x1="168.3" y1="78.5" x2="128.9" y2="-67"/>
			<line class="st2" x1="170.5" y1="77.2" x2="130.8" y2="-68.5"/>
			<line class="st2" x1="172.7" y1="75.9" x2="132.7" y2="-69.9"/>
			<line class="st2" x1="174.8" y1="74.5" x2="134.6" y2="-71.3"/>
			<line class="st2" x1="177" y1="73.2" x2="136.5" y2="-72.7"/>
			<line class="st2" x1="179.2" y1="71.9" x2="138.4" y2="-74.2"/>
			<line class="st2" x1="181.4" y1="70.5" x2="140.3" y2="-75.6"/>
			<line class="st2" x1="183.6" y1="69.2" x2="142.2" y2="-77"/>
			<line class="st2" x1="185.8" y1="67.9" x2="144.1" y2="-78.5"/>
			<line class="st2" x1="188" y1="66.5" x2="146" y2="-79.9"/>
			<line class="st2" x1="190.1" y1="65.2" x2="147.9" y2="-81.3"/>
			<line class="st2" x1="192.3" y1="63.9" x2="149.8" y2="-82.7"/>
			<line class="st2" x1="194.5" y1="62.5" x2="151.7" y2="-84.2"/>
			<line class="st2" x1="196.7" y1="61.2" x2="153.6" y2="-85.6"/>
			<line class="st2" x1="198.9" y1="59.9" x2="155.5" y2="-87"/>
			<line class="st2" x1="201.1" y1="58.5" x2="157.4" y2="-88.4"/>
			<line class="st2" x1="203.3" y1="57.2" x2="159.3" y2="-89.9"/>
			<line class="st2" x1="205.5" y1="55.9" x2="161.3" y2="-91.3"/>
			<line class="st2" x1="207.6" y1="54.5" x2="163.2" y2="-92.7"/>
			<line class="st2" x1="209.8" y1="53.2" x2="165.1" y2="-94.2"/>
			<line class="st2" x1="212" y1="51.9" x2="167" y2="-95.6"/>
			<line class="st2" x1="214.2" y1="50.5" x2="168.9" y2="-97"/>
			<line class="st2" x1="216.4" y1="49.2" x2="170.8" y2="-98.4"/>
			<line class="st2" x1="218.6" y1="47.9" x2="172.7" y2="-99.9"/>
			<line class="st2" x1="220.8" y1="46.5" x2="174.6" y2="-101.3"/>
			<line class="st2" x1="222.9" y1="45.2" x2="176.5" y2="-102.7"/>
		</g>
		<g class="st1">
			<line class="st2" x1="248.8" y1="65.6" x2="131.4" y2="140.9"/>
			<line class="st2" x1="246.7" y1="64.2" x2="129.3" y2="139.8"/>
			<line class="st2" x1="244.6" y1="62.7" x2="127.2" y2="138.7"/>
			<line class="st2" x1="242.4" y1="61.3" x2="125.1" y2="137.6"/>
			<line class="st2" x1="240.3" y1="59.9" x2="123" y2="136.5"/>
			<line class="st2" x1="238.2" y1="58.5" x2="120.9" y2="135.4"/>
			<line class="st2" x1="236" y1="57.1" x2="118.8" y2="134.2"/>
			<line class="st2" x1="233.9" y1="55.7" x2="116.7" y2="133.1"/>
			<line class="st2" x1="231.7" y1="54.3" x2="114.6" y2="132"/>
			<line class="st2" x1="229.6" y1="52.9" x2="112.5" y2="130.9"/>
			<line class="st2" x1="227.5" y1="51.5" x2="110.4" y2="129.8"/>
			<line class="st2" x1="225.3" y1="50.1" x2="108.3" y2="128.7"/>
			<line class="st2" x1="223.2" y1="48.7" x2="106.1" y2="127.6"/>
			<line class="st2" x1="221" y1="47.3" x2="104" y2="126.4"/>
			<line class="st2" x1="218.9" y1="45.9" x2="101.9" y2="125.3"/>
			<line class="st2" x1="216.8" y1="44.4" x2="99.8" y2="124.2"/>
			<line class="st2" x1="214.6" y1="43" x2="97.7" y2="123.1"/>
			<line class="st2" x1="212.5" y1="41.6" x2="95.6" y2="122"/>
			<line class="st2" x1="210.4" y1="40.2" x2="93.5" y2="120.9"/>
			<line class="st2" x1="208.2" y1="38.8" x2="91.4" y2="119.8"/>
			<line class="st2" x1="206.1" y1="37.4" x2="89.3" y2="118.7"/>
			<line class="st2" x1="203.9" y1="36" x2="87.2" y2="117.5"/>
			<line class="st2" x1="201.8" y1="34.6" x2="85.1" y2="116.4"/>
			<line class="st2" x1="199.7" y1="33.2" x2="83" y2="115.3"/>
			<line class="st2" x1="197.5" y1="31.8" x2="80.9" y2="114.2"/>
			<line class="st2" x1="195.4" y1="30.4" x2="78.8" y2="113.1"/>
			<line class="st2" x1="193.2" y1="29" x2="76.7" y2="112"/>
			<line class="st2" x1="191.1" y1="27.5" x2="74.6" y2="110.9"/>
			<line class="st2" x1="189" y1="26.1" x2="72.5" y2="109.7"/>
			<line class="st2" x1="186.8" y1="24.7" x2="70.4" y2="108.6"/>
			<line class="st2" x1="184.7" y1="23.3" x2="68.3" y2="107.5"/>
			<line class="st2" x1="182.6" y1="21.9" x2="66.2" y2="106.4"/>
			<line class="st2" x1="180.4" y1="20.5" x2="64.1" y2="105.3"/>
			<line class="st2" x1="178.3" y1="19.1" x2="62" y2="104.2"/>
			<line class="st2" x1="176.1" y1="17.7" x2="59.9" y2="103.1"/>
			<line class="st2" x1="174" y1="16.3" x2="57.8" y2="102"/>
			<line class="st2" x1="171.9" y1="14.9" x2="55.7" y2="100.8"/>
			<line class="st2" x1="169.7" y1="13.5" x2="53.6" y2="99.7"/>
			<line class="st2" x1="167.6" y1="12.1" x2="51.4" y2="98.6"/>
			<line class="st2" x1="165.4" y1="10.6" x2="49.3" y2="97.5"/>
			<line class="st2" x1="163.3" y1="9.2" x2="47.2" y2="96.4"/>
			<line class="st2" x1="161.2" y1="7.8" x2="45.1" y2="95.3"/>
			<line class="st2" x1="159" y1="6.4" x2="43" y2="94.2"/>
			<line class="st2" x1="156.9" y1="5" x2="40.9" y2="93.1"/>
			<line class="st2" x1="154.7" y1="3.6" x2="38.8" y2="91.9"/>
			<line class="st2" x1="152.6" y1="2.2" x2="36.7" y2="90.8"/>
			<line class="st2" x1="150.5" y1="0.8" x2="34.6" y2="89.7"/>
			<line class="st2" x1="148.3" y1="-0.6" x2="32.5" y2="88.6"/>
			<line class="st2" x1="146.2" y1="-2" x2="30.4" y2="87.5"/>
			<line class="st2" x1="144.1" y1="-3.4" x2="28.3" y2="86.4"/>
			<line class="st2" x1="141.9" y1="-4.8" x2="26.2" y2="85.3"/>
			<line class="st2" x1="139.8" y1="-6.2" x2="24.1" y2="84.1"/>
			<line class="st2" x1="137.6" y1="-7.7" x2="22" y2="83"/>
			<line class="st2" x1="135.5" y1="-9.1" x2="19.9" y2="81.9"/>
			<line class="st2" x1="133.4" y1="-10.5" x2="17.8" y2="80.8"/>
			<line class="st2" x1="131.2" y1="-11.9" x2="15.7" y2="79.7"/>
			<line class="st2" x1="129.1" y1="-13.3" x2="13.6" y2="78.6"/>
			<line class="st2" x1="126.9" y1="-14.7" x2="11.5" y2="77.5"/>
			<line class="st2" x1="124.8" y1="-16.1" x2="9.4" y2="76.4"/>
			<line class="st2" x1="122.7" y1="-17.5" x2="7.3" y2="75.2"/>
			<line class="st2" x1="120.5" y1="-18.9" x2="5.2" y2="74.1"/>
			<line class="st2" x1="118.4" y1="-20.3" x2="3.1" y2="73"/>
			<line class="st2" x1="116.3" y1="-21.7" x2="1" y2="71.9"/>
			<line class="st2" x1="114.1" y1="-23.1" x2="-1.1" y2="70.8"/>
			<line class="st2" x1="112" y1="-24.6" x2="-3.2" y2="69.7"/>
			<line class="st2" x1="109.8" y1="-26" x2="-5.4" y2="68.6"/>
			<line class="st2" x1="107.7" y1="-27.4" x2="-7.5" y2="67.5"/>
			<line class="st2" x1="105.6" y1="-28.8" x2="-9.6" y2="66.3"/>
			<line class="st2" x1="103.4" y1="-30.2" x2="-11.7" y2="65.2"/>
			<line class="st2" x1="101.3" y1="-31.6" x2="-13.8" y2="64.1"/>
			<line class="st2" x1="99.1" y1="-33" x2="-15.9" y2="63"/>
			<line class="st2" x1="97" y1="-34.4" x2="-18" y2="61.9"/>
			<line class="st2" x1="94.9" y1="-35.8" x2="-20.1" y2="60.8"/>
			<line class="st2" x1="92.7" y1="-37.2" x2="-22.2" y2="59.7"/>
			<line class="st2" x1="90.6" y1="-38.6" x2="-24.3" y2="58.5"/>
			<line class="st2" x1="88.5" y1="-40" x2="-26.4" y2="57.4"/>
			<line class="st2" x1="86.3" y1="-41.4" x2="-28.5" y2="56.3"/>
			<line class="st2" x1="84.2" y1="-42.9" x2="-30.6" y2="55.2"/>
			<line class="st2" x1="82" y1="-44.3" x2="-32.7" y2="54.1"/>
			<line class="st2" x1="79.9" y1="-45.7" x2="-34.8" y2="53"/>
			<line class="st2" x1="77.8" y1="-47.1" x2="-36.9" y2="51.9"/>
			<line class="st2" x1="75.6" y1="-48.5" x2="-39" y2="50.8"/>
			<line class="st2" x1="73.5" y1="-49.9" x2="-41.1" y2="49.6"/>
			<line class="st2" x1="71.3" y1="-51.3" x2="-43.2" y2="48.5"/>
			<line class="st2" x1="69.2" y1="-52.7" x2="-45.3" y2="47.4"/>
			<line class="st2" x1="67.1" y1="-54.1" x2="-47.4" y2="46.3"/>
			<line class="st2" x1="64.9" y1="-55.5" x2="-49.5" y2="45.2"/>
			<line class="st2" x1="62.8" y1="-56.9" x2="-51.6" y2="44.1"/>
			<line class="st2" x1="60.7" y1="-58.3" x2="-53.7" y2="43"/>
			<line class="st2" x1="58.5" y1="-59.8" x2="-55.8" y2="41.9"/>
			<line class="st2" x1="56.4" y1="-61.2" x2="-57.9" y2="40.7"/>
			<line class="st2" x1="54.2" y1="-62.6" x2="-60" y2="39.6"/>
			<line class="st2" x1="52.1" y1="-64" x2="-62.2" y2="38.5"/>
			<line class="st2" x1="50" y1="-65.4" x2="-64.3" y2="37.4"/>
			<line class="st2" x1="47.8" y1="-66.8" x2="-66.4" y2="36.3"/>
			<line class="st2" x1="45.7" y1="-68.2" x2="-68.5" y2="35.2"/>
			<line class="st2" x1="43.5" y1="-69.6" x2="-70.6" y2="34.1"/>
			<line class="st2" x1="41.4" y1="-71" x2="-72.7" y2="32.9"/>
			<line class="st2" x1="39.3" y1="-72.4" x2="-74.8" y2="31.8"/>
			<line class="st2" x1="37.1" y1="-73.8" x2="-76.9" y2="30.7"/>
			<line class="st2" x1="35" y1="-75.2" x2="-79" y2="29.6"/>
			<line class="st2" x1="32.9" y1="-76.7" x2="-81.1" y2="28.5"/>
		</g>
		<use xlink:href="#SVGID_3_"  style="overflow:visible;fill:none;stroke:#979998;stroke-width:0.5767;stroke-miterlimit:10;"/>
	</g>
	<g>
		<defs>
			<path id="SVGID_5_" d="M10.7,53.1c-0.1-0.7-3.6-29.6,17-37.8s22.7,3.4,60.7,2.6c37.9-0.8,47.5-8.8,65.5-1.4
				c15.4,8.9,17.2,35.3,13.3,46.5c0,0-4.1,15-15.8,18.8c-22.7,6.6-32.1-0.7-63.1-1.4c-20.9,0.2-33.4,4.6-50.6,3.1S13,69.5,10.7,53.1
				z"/>
		</defs>
		<clipPath id="SVGID_6_">
			<use xlink:href="#SVGID_5_"  style="overflow:visible;"/>
		</clipPath>
	</g>
</g>
</svg>
