<?xml version="1.0" encoding="utf-8"?>
<!-- Generator: Adobe Illustrator 21.0.0, SVG Export Plug-In . SVG Version: 6.00 Build 0)  -->
<svg version="1.1" id="Слой_1" xmlns="http://www.w3.org/2000/svg" xmlns:xlink="http://www.w3.org/1999/xlink" x="0px" y="0px"
	 viewBox="0 0 44.2 44.2" style="enable-background:new 0 0 44.2 44.2;" xml:space="preserve">
<style type="text/css">
	.st0{fill:none;stroke:#979998;stroke-width:1.5796;stroke-miterlimit:10;}
	.st1{fill:#979998;}
</style>
<circle class="st0" cx="22.2" cy="22.3" r="20.9"/>
<g>
	<path class="st1" d="M10.7,29.6c-2.2-0.3-3.8-2.4-3.4-4.6c0.3-2.2,2.4-3.8,4.6-3.4c2.2,0.3,3.8,2.4,3.4,4.6S12.9,29.9,10.7,29.6z
		 M11.7,22.3c-1.8-0.3-3.5,1-3.7,2.8c-0.3,1.8,1,3.5,2.8,3.7c1.8,0.3,3.5-1,3.7-2.8C14.8,24.3,13.5,22.6,11.7,22.3z"/>
	<path class="st1" d="M11.3,28c-1.3,0-2.4-1-2.4-2.3c0-1.3,1-2.4,2.3-2.4s2.4,1,2.4,2.3S12.6,27.9,11.3,28z M11.3,25.5
		c-0.1,0-0.1,0.1-0.1,0.1c0,0.2,0.3,0.1,0.3,0C11.4,25.5,11.3,25.5,11.3,25.5z"/>
	<path class="st1" d="M15.7,16.3c-2.2-0.3-3.8-2.4-3.4-4.6s2.4-3.8,4.6-3.4s3.8,2.4,3.4,4.6C20,15.1,17.9,16.6,15.7,16.3z M16.8,9
		c-1.8-0.3-3.5,1-3.7,2.8c-0.3,1.8,1,3.5,2.8,3.7s3.5-1,3.7-2.8C19.8,10.9,18.6,9.3,16.8,9z"/>
	<path class="st1" d="M16.4,14.6c-1.3,0-2.4-1-2.4-2.3c0-1.3,1-2.4,2.3-2.4s2.4,1,2.4,2.3S17.7,14.6,16.4,14.6z M16.3,12.1
		c-0.1,0-0.1,0.1-0.1,0.1c0,0.2,0.3,0.1,0.3,0C16.4,12.2,16.4,12.1,16.3,12.1z"/>
	<path class="st1" d="M24.5,35.2c-2.2-0.3-3.8-2.4-3.4-4.6c0.3-2.2,2.4-3.8,4.6-3.4c2.2,0.3,3.8,2.4,3.4,4.6
		C28.8,34,26.7,35.5,24.5,35.2z M25.5,28c-1.8-0.3-3.5,1-3.7,2.8s1,3.5,2.8,3.7c1.8,0.3,3.5-1,3.7-2.8C28.6,29.9,27.3,28.2,25.5,28z
		"/>
	<path class="st1" d="M25.2,33.6c-1.3,0-2.4-1-2.4-2.3c0-1.3,1-2.4,2.3-2.4s2.4,1,2.4,2.3C27.5,32.4,26.5,33.5,25.2,33.6z
		 M25.1,31.1c-0.1,0-0.1,0.1-0.1,0.1c0,0.2,0.3,0.1,0.3,0C25.2,31.1,25.2,31.1,25.1,31.1z"/>
	<path class="st1" d="M29.5,21.9c-2.2-0.3-3.8-2.4-3.4-4.6c0.3-2.2,2.4-3.8,4.6-3.4s3.8,2.4,3.4,4.6C33.8,20.7,31.8,22.2,29.5,21.9z
		 M30.6,14.6c-1.8-0.3-3.5,1-3.7,2.8c-0.3,1.8,1,3.5,2.8,3.7s3.5-1,3.7-2.8S32.4,14.9,30.6,14.6z"/>
	<path class="st1" d="M30.2,20.3c-1.3,0-2.4-1-2.4-2.3s1-2.4,2.3-2.4s2.4,1,2.4,2.3C32.5,19.1,31.5,20.2,30.2,20.3z M30.1,17.8
		c-0.1,0-0.1,0.1-0.1,0.1c0,0.2,0.3,0.1,0.3,0C30.3,17.8,30.2,17.8,30.1,17.8z"/>
	<path class="st1" d="M20,12.2l-0.1,1l-0.1,0.3c1.3,1.1,1.9,3,1.2,4.7l-2.2,5.4c-0.4,1-1.2,1.8-2.2,2.3c-0.5,0.2-1.1,0.3-1.6,0.3
		l-0.6,1.2c0.5,0,0.9,0,1.4,0c1.8-0.3,3.4-1.5,4.1-3.3l2.2-5.4C23,16.3,22.1,13.6,20,12.2z"/>
	<path class="st1" d="M33.7,18l-0.1,1l-0.1,0.3c1.3,1.1,1.9,3,1.2,4.7l-2.2,5.4c-0.4,1-1.2,1.8-2.2,2.3c-0.5,0.2-1.1,0.3-1.6,0.3
		l-0.6,1.2c0.5,0,0.9,0,1.4,0c1.8-0.3,3.4-1.5,4.1-3.3l2.2-5.4C36.8,22,35.9,19.3,33.7,18z"/>
</g>
</svg>
