<?xml version="1.0" encoding="utf-8"?>
<!-- Generator: Adobe Illustrator 21.0.0, SVG Export Plug-In . SVG Version: 6.00 Build 0)  -->
<svg version="1.1" id="Слой_1" xmlns="http://www.w3.org/2000/svg" xmlns:xlink="http://www.w3.org/1999/xlink" x="0px" y="0px"
	 viewBox="0 0 44.2 44.2" style="enable-background:new 0 0 44.2 44.2;" xml:space="preserve">
<style type="text/css">
	.st0{fill:none;stroke:#979998;stroke-width:1.5872;stroke-miterlimit:10;}
	.st1{fill:#979998;}
</style>
<ellipse class="st0" cx="22.1" cy="22" rx="21.2" ry="20.8"/>
<g>
	<ellipse class="st1" cx="22.3" cy="12.8" rx="6.9" ry="6.8"/>
</g>
<g>
	<path class="st1" d="M12.3,20.7c-0.9-1.1-0.8-2.7,0.3-3.6c1.1-0.9,2.7-0.8,3.7,0.3c0.9,1.1,0.8,2.7-0.3,3.6
		C14.8,21.9,13.2,21.8,12.3,20.7z M15.8,17.7c-0.8-0.9-2.1-1-3-0.2c-0.9,0.7-1,2.1-0.2,2.9c0.8,0.9,2.1,1,3,0.2
		C16.5,19.9,16.6,18.6,15.8,17.7z"/>
	<path class="st1" d="M15.2,20c-0.5,0.6-1.4,0.7-2,0.1c-0.6-0.5-0.7-1.4-0.1-2c0.5-0.6,1.4-0.7,2-0.1C15.7,18.5,15.8,19.4,15.2,20z"
		/>
</g>
<g>
	<path class="st1" d="M28.5,20.8c-0.9-1.1-0.8-2.7,0.3-3.6s2.7-0.8,3.7,0.3s0.8,2.7-0.3,3.6C31.1,21.9,29.4,21.8,28.5,20.8z
		 M32,17.7c-0.8-0.9-2.1-1-3-0.2c-0.9,0.7-1,2.1-0.2,2.9c0.8,0.9,2.1,1,3,0.2C32.7,19.9,32.8,18.6,32,17.7z"/>
	<path class="st1" d="M31.5,20c-0.5,0.6-1.4,0.7-2,0.1c-0.6-0.5-0.7-1.4-0.1-2c0.5-0.6,1.4-0.7,2-0.1C31.9,18.5,32,19.4,31.5,20z"/>
</g>
<path class="st1" d="M15.3,37.6l0-9.3c0-0.4,0.3-0.7,0.6-0.7h0.3c0.4,0,0.7,0.4,0.7,0.9c0,2.1,0,7.9,0,13.7c0.7,0.2,1.7,0.4,2.5,0.5
	c1.3,0.1,6.4,0.4,8.5-0.4v-15c0-0.3,0.1-0.6,0.3-0.7c0.4-0.3,0.7-0.1,0.9,0.1c0.1,0.1,0.2,0.3,0.2,0.4c0,1.3,0,7.9,0,10.1
	c1.2,0.7,2.8,0.1,2.8,0.1L32,26.4l-5.1-6.7c-4.1,3.8-9.3,0.3-9.3,0.3l-5.2,5.5v12C14,38.4,15.3,37.6,15.3,37.6z"/>
</svg>
