<?xml version="1.0" encoding="utf-8"?>
<!-- Generator: Adobe Illustrator 21.0.0, SVG Export Plug-In . SVG Version: 6.00 Build 0)  -->
<svg version="1.1" id="Слой_1" xmlns="http://www.w3.org/2000/svg" xmlns:xlink="http://www.w3.org/1999/xlink" x="0px" y="0px"
	 viewBox="0 0 123 101" style="enable-background:new 0 0 123 101;" xml:space="preserve">
<style type="text/css">
	.st0{fill:#FFFFFF;}
</style>
<path class="st0" d="M86.9,31.2c0,0-3.1,5.3-14.1,7.2c-0.6,1.8-1.6,8.2,3.2,12.4c0.4,1-5.6,3.5-12.3-0.9c2.6-2.1,5.1-3.2,4.8-17.4
	C68.3,25.7,74,21,82.3,21.1c8.3,0.1,12,6,11.6,10.8c-0.4,4.8-1,15.1,4.2,17.7c-0.9,1.2-4.4,3.7-9.1,3.1c-1.2,0-2.3-1-3.5-2.5
	c1.6-1.5,3.4-5.1,4-7.8C90.1,39.9,88.8,35,86.9,31.2z"/>
<path class="st0" d="M24.6,34.6V26c0,0,3.3-9.1,14.7-8.8c11.4,0.4,12.8,8.1,12.8,8.9c0,0.9,0.4,8.4,0.4,8.4s1.8-1.1,1.2,3
	S52.6,43,52.6,43l-1.1,0.4c0,0,0.9,3.2-5.1,10.7c0.4,2.3,0.4,2.3,0.4,2.3L30.4,56l-0.5-2.5c0,0-3.9-6-3.7-8.4
	c-1.6-1.4-2.6-1.4-3-8.9C22.8,35.5,23.5,33.4,24.6,34.6z"/>
<path class="st0" d="M5.3,70.5c4-5.9,16.5-10.5,26.1-11.9c9.8-0.2,14,0.4,14,0.4s24.4,7.4,26.1,12.3c3.2,4.3,2.1,25.7,2.1,25.7
	L2.2,96.7C2.2,96.7,1.3,76.4,5.3,70.5z"/>
<path class="st0" d="M70.6,17.7l-8-16.4l-3.2,4.8c-14-5.7-30.7-3-42.3,8.2C4.5,26.3,1.7,44.8,8.7,59.7l5.8-3.8
	c-5.3-12.2-2.8-27,7.3-36.7C31,10.4,44.1,8,55.4,12l-3,4.5L70.6,17.7z"/>
<path class="st0" d="M101.7,27.1l-2.6,5.8c11.6,6.2,18.1,19.6,15.1,33.1c-2.6,11.4-11.4,19.8-22.1,22.5l0.1-5l-14.6,8.2l14.4,8.5
	l0.1-5.3c13.6-2.7,25-13.2,28.3-27.6C124.1,50.9,116,34.5,101.7,27.1z"/>
<path class="st0" d="M101.5,77.8c0,0,4.4-10,0.9-16.8c-3.1-3.8-12.2-6.4-12.2-6.4l-4.5-4.2l3.7,4.6l-8.3,9.6l-8.7-8.9
	c0,0,0,0,3.1-4.6c-1.7,2.3-3.9,3.3-5.6,4c-9,2.3-11.1,5.6-11.1,5.6c3.3,1.6,6.2,2.5,10.3,4.4c4,1.9,5.6,5.6,6.1,8.6
	c12.9,0.4,21.3,2.5,26.1,4.1H101.5z"/>
</svg>
