<?xml version="1.0" encoding="utf-8"?>
<!-- Generator: Adobe Illustrator 21.0.0, SVG Export Plug-In . SVG Version: 6.00 Build 0)  -->
<svg version="1.1" id="Слой_1" xmlns="http://www.w3.org/2000/svg" xmlns:xlink="http://www.w3.org/1999/xlink" x="0px" y="0px"
	 viewBox="0 0 44.2 44.2" style="enable-background:new 0 0 44.2 44.2;" xml:space="preserve">
<style type="text/css">
	.st0{fill:none;stroke:#979998;stroke-width:1.5678;stroke-miterlimit:10;}
	.st1{fill:#979998;}
</style>
<circle class="st0" cx="22.3" cy="21.9" r="20.8"/>
<g>
	<g>
		<g>
			<path class="st1" d="M10.8,32.2c-0.4,0-4-1.2-1-3.9L14,25c0,0,2.2-2,4.4-0.9c1.1,0.6,1.6,0.7,1.6,0.7s0.8,0.5,1.8-1.2
				c0.7-1.4,3.3-5.7,3.3-5.7s0.5-1.8,2.7-0.4c1.1,0.5,3.6,2,3.3,1.8c-0.4-0.2,1.3,0.3,0.7,2s-4.2,7.7-4.2,7.7S26,30.9,24,29.9
				c-2.4-0.6-5.3-2-5.6-2.2c-0.5-0.1-1.1-1-2.6,0.5C14,30,11.6,32.2,10.8,32.2z"/>
		</g>
		<g>
			<path class="st1" d="M32.6,18L32.6,18c-2.2,0.7-4.5-0.5-5.2-2.6l0,0c-0.7-2.2,0.5-4.5,2.6-5.2l0,0c2.2-0.7,4.5,0.5,5.2,2.6l0,0
				C36,15,34.8,17.3,32.6,18z"/>
		</g>
	</g>
</g>
<path class="st1" d="M16.8,32.1c-0.9-0.1-1.5-1-1.4-1.9c0.1-0.9,1-1.5,1.9-1.4c0.9,0.1,1.5,1,1.4,1.9S17.7,32.3,16.8,32.1z
	 M17.3,29.2c-0.7-0.1-1.4,0.4-1.5,1.1s0.4,1.4,1.1,1.5s1.4-0.4,1.5-1.1S18,29.3,17.3,29.2z"/>
<circle class="st1" cx="17" cy="30.5" r="0.4"/>
<path class="st1" d="M13.8,34.8c-0.9-0.1-1.5-1-1.4-1.9c0.1-0.9,1-1.5,1.9-1.4s1.5,1,1.4,1.9C15.5,34.3,14.6,34.9,13.8,34.8z
	 M14.2,31.8c-0.7-0.1-1.4,0.4-1.5,1.1c-0.1,0.7,0.4,1.4,1.1,1.5s1.4-0.4,1.5-1.1C15.4,32.6,14.9,31.9,14.2,31.8z"/>
<circle class="st1" cx="14" cy="33.2" r="0.4"/>
</svg>
