<?xml version="1.0" encoding="utf-8"?>
<!-- Generator: Adobe Illustrator 21.0.0, SVG Export Plug-In . SVG Version: 6.00 Build 0)  -->
<svg version="1.1" id="Слой_1" xmlns="http://www.w3.org/2000/svg" xmlns:xlink="http://www.w3.org/1999/xlink" x="0px" y="0px"
	 viewBox="0 0 44.2 44.2" style="enable-background:new 0 0 44.2 44.2;" xml:space="preserve">
<style type="text/css">
	.st0{fill:none;stroke:#979998;stroke-width:1.5931;stroke-miterlimit:10;}
	.st1{fill:none;stroke:#979998;stroke-width:2.0156;stroke-miterlimit:10;}
	.st2{fill:#979998;}
</style>
<circle class="st0" cx="21.9" cy="21.9" r="21.1"/>
<path class="st1" d="M34.8,5.5l-4.9,4.3c0,0-6.4,5.4-8.9,7.4c-3.1,1.4-6.3,4.7-6.3,4.7s-1,0.8-1.8,1.2c-4.7,2.1-7.1,2.6-7.1,2.8
	c-0.3,4.7,4.8,5.1,6.9,4.8c0.9-0.1,3.3-0.9,3.3-0.9s1.8-0.6,2.4-0.9c1.7-0.9,3.6-2.5,7-3.6c6.6,1,6.3-5.4,6.3-5.4l0.6-1
	c0,0,1.1-1.5,2.6-3l4.7-5.1"/>
<path class="st2" d="M26,37.1c-2.2-0.3-3.8-2.4-3.5-4.6c0.3-2.2,2.4-3.8,4.6-3.5s3.8,2.4,3.5,4.6S28.3,37.4,26,37.1z M27.1,29.8
	c-1.8-0.3-3.5,1-3.8,2.8c-0.3,1.8,1,3.5,2.8,3.8c1.8,0.3,3.5-1,3.8-2.8C30.2,31.7,28.9,30,27.1,29.8z"/>
<path class="st2" d="M26.7,35.7c-1.5,0.1-2.7-1.1-2.8-2.6c-0.1-1.5,1.1-2.7,2.6-2.8c1.5-0.1,2.7,1.1,2.8,2.6
	C29.3,34.4,28.2,35.7,26.7,35.7z M26.6,32.9c-0.1,0-0.2,0.1-0.2,0.2c0,0.2,0.3,0.2,0.3,0C26.8,33,26.7,32.9,26.6,32.9z"/>
<path class="st2" d="M34.7,31.5c-1.6-0.2-2.8-1.7-2.5-3.4c0.2-1.6,1.7-2.8,3.4-2.5c1.6,0.2,2.8,1.7,2.5,3.4
	C37.8,30.6,36.3,31.7,34.7,31.5z M35.4,26.2c-1.3-0.2-2.6,0.7-2.7,2.1c-0.2,1.3,0.7,2.6,2.1,2.7c1.3,0.2,2.6-0.7,2.7-2.1
	C37.7,27.6,36.8,26.4,35.4,26.2z"/>
<path class="st2" d="M35.2,30.4c-1,0-1.9-0.8-1.9-1.8s0.8-1.9,1.8-1.9c1,0,1.9,0.8,1.9,1.8C37,29.5,36.2,30.4,35.2,30.4z M35.1,28.5
	c-0.1,0-0.1,0.1-0.1,0.1c0,0.1,0.2,0.1,0.2,0C35.2,28.5,35.2,28.5,35.1,28.5z"/>
<path class="st2" d="M15.9,38c-1.7-0.2-2.8-1.8-2.6-3.4c0.2-1.7,1.8-2.8,3.4-2.6c1.7,0.2,2.8,1.8,2.6,3.4
	C19.1,37.1,17.5,38.2,15.9,38z M16.7,32.6c-1.3-0.2-2.6,0.7-2.8,2.1c-0.2,1.3,0.7,2.6,2.1,2.8c1.3,0.2,2.6-0.7,2.8-2.1
	S18,32.8,16.7,32.6z"/>
<path class="st2" d="M16.4,36.8c-1,0-1.8-0.7-1.8-1.7c0-1,0.7-1.8,1.7-1.8c1,0,1.8,0.7,1.8,1.7C18.1,35.9,17.4,36.7,16.4,36.8z
	 M16.3,34.9c-0.1,0-0.1,0.1-0.1,0.1c0,0.1,0.2,0.1,0.2,0C16.4,35,16.4,34.9,16.3,34.9z"/>
<path class="st0" d="M32.9,17.7"/>
</svg>
