<?xml version="1.0" encoding="utf-8"?>
<!-- Generator: Adobe Illustrator 21.0.0, SVG Export Plug-In . SVG Version: 6.00 Build 0)  -->
<svg version="1.1" id="Слой_1" xmlns="http://www.w3.org/2000/svg" xmlns:xlink="http://www.w3.org/1999/xlink" x="0px" y="0px"
	 viewBox="0 0 44.2 44.2" style="enable-background:new 0 0 44.2 44.2;" xml:space="preserve">
<style type="text/css">
	.st0{fill:#969696;}
</style>
<g>
	<g>
		
			<rect x="1.8" y="29.6" transform="matrix(0.7033 -0.7109 0.7109 0.7033 -19.0146 18.4489)" class="st0" width="21.7" height="4.8"/>
		<g>
			<polygon class="st0" points="17.4,38.6 6,38.7 5.9,27.3 1.1,32.2 1.2,43.6 12.6,43.5 			"/>
		</g>
	</g>
</g>
<g>
	<g>
		<rect x="21.3" y="10.2" transform="matrix(0.7071 -0.7071 0.7071 0.7071 0.523 26.3751)" class="st0" width="21.7" height="4.8"/>
		<g>
			<polygon class="st0" points="27.4,5.9 38.8,5.9 38.8,17.3 43.6,12.5 43.6,1.1 32.2,1.1 			"/>
		</g>
	</g>
</g>
<g>
	<g>
		<rect x="29.8" y="21.1" transform="matrix(0.7062 -0.708 0.708 0.7062 -13.1235 32.132)" class="st0" width="4.8" height="21.7"/>
		<g>
			<polygon class="st0" points="38.8,27.1 38.8,38.5 27.4,38.5 32.3,43.4 43.7,43.4 43.7,32 			"/>
		</g>
	</g>
</g>
<g>
	<g>
		
			<rect x="10.1" y="1.8" transform="matrix(0.7071 -0.7071 0.7071 0.7071 -5.2431 12.5228)" class="st0" width="4.8" height="21.7"/>
		<g>
			<polygon class="st0" points="5.8,17.3 5.8,5.9 17.2,5.9 12.4,1.1 1,1.1 1,12.5 			"/>
		</g>
	</g>
</g>
</svg>
