<?xml version="1.0" encoding="utf-8"?>
<!-- Generator: Adobe Illustrator 21.0.0, SVG Export Plug-In . SVG Version: 6.00 Build 0)  -->
<svg version="1.1" id="Слой_1" xmlns="http://www.w3.org/2000/svg" xmlns:xlink="http://www.w3.org/1999/xlink" x="0px" y="0px"
	 viewBox="0 0 44.2 44.2" style="enable-background:new 0 0 44.2 44.2;" xml:space="preserve">
<style type="text/css">
	.st0{fill:none;stroke:#979998;stroke-width:1.586;stroke-miterlimit:10;}
	.st1{fill:#979998;}
</style>
<ellipse class="st0" cx="22.4" cy="22.1" rx="21" ry="21.1"/>
<g>
	<path class="st1" d="M29.3,16L29.3,16c-2,0.9-4.3,0-5.1-2l0,0c-0.9-2,0-4.2,2-5.1l0,0c1.9-0.9,4.2,0,5.1,2l0,0
		C32.2,12.9,31.3,15.2,29.3,16z"/>
</g>
<g>
	<path class="st1" d="M9.9,31.6c-0.4,0-3.9-0.7-1.3-3.5l3.6-3.5c0,0,1.9-2.1,4.1-1.3c1.1,0.4,1.6,0.5,1.6,0.5s0.8,0.4,1.6-1.3
		c0.5-1.3,2.5-5.6,2.5-5.6s0.3-1.7,2.5-0.6c1,0.4,3.6,1.5,3.2,1.4c-0.4-0.1,1.3,0.1,0.8,1.8c-0.2,0.7-1.3,2.3-1.9,3.8
		c-0.9,1.9-0.9,2.9-1.3,3.8C24.9,27.9,24,29,22,28.2c-2.3-0.3-5.1-1.4-5.4-1.5c-0.4-0.1-1.1-0.8-2.4,0.7
		C12.7,29.3,10.6,31.5,9.9,31.6z"/>
</g>
<path class="st1" d="M37,15.1c-0.2,0-5,0.7-6.4,5.3c-0.7,2.4-0.5,4-0.3,5.3c0.1,1,0.3,1.9,0,3.2c-0.3,2-2.9,2.5-3.7,2.6
	c-0.1,0-5.3,0.8-10.9-1.1c-0.8-0.3-1.4,0.3-1.6,1.1c-0.2,1.3,1.1,1.5,2.8,2c2.4,0.8,7.6,1.3,10.8,0.8c1.8-0.3,4.7-1.5,5.3-4.8
	c0.3-1.8,0.1-3.1,0-4.2c-0.2-1.2-0.3-2.2,0.2-4c0.9-2.8,4-3.3,4.1-3.3c0.8-0.1,1.3-0.8,1.2-1.6C38.4,15.6,37.7,15,37,15.1z"/>
</svg>
