<?xml version="1.0" encoding="utf-8"?>
<!-- Generator: Adobe Illustrator 21.0.0, SVG Export Plug-In . SVG Version: 6.00 Build 0)  -->
<svg version="1.1" id="Слой_1" xmlns="http://www.w3.org/2000/svg" xmlns:xlink="http://www.w3.org/1999/xlink" x="0px" y="0px"
	 viewBox="0 0 44.2 44.2" style="enable-background:new 0 0 44.2 44.2;" xml:space="preserve">
<style type="text/css">
	.st0{fill:none;stroke:#979998;stroke-width:1.5661;stroke-miterlimit:10;}
	.st1{fill:#979998;}
</style>
<circle class="st0" cx="22.2" cy="22.4" r="20.8"/>
<g>
	<path class="st1" d="M8.9,32.1c-0.4,0-3.8-0.7-1.2-3.5l3.6-3.5c0,0,1.9-2.1,4-1.2c1.1,0.4,1.6,0.5,1.6,0.5s0.8,0.4,1.6-1.2
		c0.5-1.3,2.5-5.5,2.5-5.5s0.3-1.7,2.5-0.6c1,0.4,3.5,1.5,3.2,1.4c-0.4-0.1,1.3,0.1,0.8,1.8c-0.2,0.7-1.3,2.3-1.9,3.8
		c-0.8,1.9-0.9,2.8-1.3,3.7c-0.4,0.8-1.3,1.9-3.3,1.1c-2.3-0.3-5.1-1.4-5.4-1.5c-0.4-0.1-1.1-0.8-2.4,0.7C11.6,29.8,9.5,32,8.9,32.1
		z"/>
</g>
<g>
	<path class="st1" d="M27.8,17L27.8,17c-2,0.9-4.2,0-5.1-1.9l0,0c-0.8-1.9,0-4.2,2-5l0,0c1.9-0.8,4.2,0,5,2l0,0
		C30.6,13.8,29.7,16.1,27.8,17z"/>
</g>
<path class="st1" d="M25.8,34.8C25,34.9,24.5,35,24.4,35c-0.8,0-1.5-0.6-1.5-1.4c0-0.8,0.6-1.5,1.4-1.5c0,0,3.8-0.3,4.2-2.6
	c0.2-1.3,0.1-2.2,0-3.2c-0.2-1.3-0.4-2.9,0.4-5.3c1.5-4.6,6.6-5.2,6.8-5.3c0.8-0.1,1.5,0.5,1.6,1.3c0.1,0.8-0.5,1.5-1.3,1.6
	c-0.1,0-3.5,0.5-4.4,3.3c-0.6,1.7-0.4,2.7-0.2,3.9c0.2,1.1,0.3,2.4,0,4.2C30.7,33.3,27.6,34.4,25.8,34.8z"/>
</svg>
