<?xml version="1.0" encoding="utf-8"?>
<!-- Generator: Adobe Illustrator 21.0.0, SVG Export Plug-In . SVG Version: 6.00 Build 0)  -->
<svg version="1.1" id="Слой_1" xmlns="http://www.w3.org/2000/svg" xmlns:xlink="http://www.w3.org/1999/xlink" x="0px" y="0px"
	 viewBox="0 0 44.2 44.2" style="enable-background:new 0 0 44.2 44.2;" xml:space="preserve">
<style type="text/css">
	.st0{fill:none;stroke:#979998;stroke-width:1.5526;stroke-miterlimit:10;}
	.st1{fill:#979998;}
</style>
<circle class="st0" cx="21.7" cy="22.1" r="20.6"/>
<g>
	<circle class="st1" cx="21.4" cy="10.2" r="3.9"/>
</g>
<g>
	<path class="st1" d="M17.1,24.6c0,0-0.9,0.5-1.9,0v-6.9l3.3-3.1c0,0,3.3,2,5.9-0.1l3.3,3.8l0,6.2c0,0-1,0.4-1.8,0c0-1.3,0-5,0-5.8
		c0-0.1,0-0.2-0.1-0.2c-0.1-0.1-0.3-0.2-0.6-0.1c-0.1,0.1-0.2,0.2-0.2,0.4v17.3c0,0-1,1-2.6,0c0-1.7,0-7.3,0-9.3
		c0-0.4-0.3-0.7-0.7-0.7l-0.2,0c-0.4,0-0.7,0.3-0.7,0.8l0,9.3c0,0-1.5,0.7-2.8-0.2c0-1.6,0-13.8,0-16.5c0-0.3-0.2-0.5-0.5-0.5h-0.2
		c-0.2,0-0.4,0.2-0.4,0.4L17.1,24.6z"/>
</g>
<polygon class="st1" points="31.5,30.8 31.4,28.7 31.4,15.1 31.5,13.1 31.5,11.9 33.1,11.9 30.8,8.8 28.4,11.9 30,11.9 30,32 
	28.4,32 30.8,35.1 33.1,32 31.5,32 "/>
<polygon class="st1" points="12.9,31.1 12.8,29.1 12.8,15.5 12.9,13.5 12.9,12.2 14.5,12.3 12.2,9.1 9.8,12.2 11.4,12.2 11.4,32.3 
	9.8,32.4 12.2,35.4 14.5,32.3 12.9,32.3 "/>
</svg>
