<?xml version="1.0" encoding="utf-8"?>
<!-- Generator: Adobe Illustrator 21.0.0, SVG Export Plug-In . SVG Version: 6.00 Build 0)  -->
<svg version="1.1" id="Слой_1" xmlns="http://www.w3.org/2000/svg" xmlns:xlink="http://www.w3.org/1999/xlink" x="0px" y="0px"
	 viewBox="0 0 44.2 44.2" style="enable-background:new 0 0 44.2 44.2;" xml:space="preserve">
<style type="text/css">
	.st0{fill:url(#SVGID_1_);}
	.st1{fill:url(#SVGID_2_);}
	.st2{fill:url(#SVGID_3_);}
	.st3{fill:url(#SVGID_4_);}
	.st4{fill:url(#SVGID_5_);}
	.st5{fill:url(#SVGID_6_);}
	.st6{fill:url(#SVGID_7_);}
	.st7{fill:url(#SVGID_8_);}
	.st8{fill:url(#SVGID_9_);}
	.st9{fill:url(#SVGID_10_);}
	.st10{fill:url(#SVGID_11_);}
	.st11{fill:url(#SVGID_12_);}
	.st12{fill:none;stroke:#979998;stroke-width:1.5729;stroke-miterlimit:10;}
</style>
<g>
	
		<linearGradient id="SVGID_1_" gradientUnits="userSpaceOnUse" x1="-1751.1182" y1="36.94" x2="-1751.1182" y2="17.0044" gradientTransform="matrix(-1 0 0 1 -1735.8896 0)">
		<stop  offset="0" style="stop-color:#A80403"/>
		<stop  offset="1" style="stop-color:#800302"/>
	</linearGradient>
	<path class="st0" d="M8.5,30.8C8.9,30.5,8,29.6,8,27c0-2.6,2.4-4.4,2.4-4.4c-0.5,1.1-0.1,4,0.6,4c0.7,0,0-1.3,1-4.7
		c1-3.4,4.4-5.1,4.4-5.1s-0.1,5.1,3.4,7.8c3.4,2.7,3.7,5.5,3,7.8c-0.5,1.7-2.4,3-3.3,3.5c1.1-0.8,3.2-2.8,1.9-6.1
		c-1.7-4.4-5.7-4.5-6.3-8.6c0,0-2.1,1.5-2.5,5.3c-0.4,3.8-2.6,3-3,1.5c0,0-0.3,1.6,0.4,3.1c0.7,1.5-0.4,2.2-1,2c0,0,1.2,2.8,4.1,3.9
		c-5.7-0.8-5.7-6.9-5.7-6.9S8,31.1,8.5,30.8z"/>
	
		<linearGradient id="SVGID_2_" gradientUnits="userSpaceOnUse" x1="-1751.3164" y1="36.94" x2="-1751.3164" y2="17.0043" gradientTransform="matrix(-1 0 0 1 -1735.8896 0)">
		<stop  offset="0" style="stop-color:#A80403"/>
		<stop  offset="1" style="stop-color:#800302"/>
	</linearGradient>
	<path class="st1" d="M9,32.9c0.6,0.2,1.7-0.5,1-2c-0.7-1.5-0.4-3.1-0.4-3.1c0.4,1.5,2.6,2.3,3-1.5c0.4-3.8,2.5-5.3,2.5-5.3
		c0.6,4.2,4.6,4.3,6.3,8.6c1.3,3.3-0.8,5.3-1.9,6.1c-0.3,0.2-0.5,0.3-0.5,0.3c1.7-1,3.3-5.5,0.1-7.2c-3.2-1.7-4.3-4.9-4.3-4.9
		s-0.9,0.6-1.3,4.1C13,31.6,11,31,11,31c-0.1,3.2,1.4,5.1,1.9,5.6c0.1,0.1,0.2,0.2,0.2,0.2C10.2,35.7,9,32.9,9,32.9z"/>
	
		<linearGradient id="SVGID_3_" gradientUnits="userSpaceOnUse" x1="-1751.3164" y1="21.1283" x2="-1751.3164" y2="36.8082" gradientTransform="matrix(-1 0 0 1 -1735.8896 0)">
		<stop  offset="0" style="stop-color:#A80403"/>
		<stop  offset="1" style="stop-color:#FB8202"/>
	</linearGradient>
	<path class="st2" d="M9,32.9c0.6,0.2,1.7-0.5,1-2c-0.7-1.5-0.4-3.1-0.4-3.1c0.4,1.5,2.6,2.3,3-1.5c0.4-3.8,2.5-5.3,2.5-5.3
		c0.6,4.2,4.6,4.3,6.3,8.6c1.3,3.3-0.8,5.3-1.9,6.1c-0.3,0.2-0.5,0.3-0.5,0.3c1.7-1,3.3-5.5,0.1-7.2c-3.2-1.7-4.3-4.9-4.3-4.9
		s-0.9,0.6-1.3,4.1C13,31.6,11,31,11,31c-0.1,3.2,1.4,5.1,1.9,5.6c0.1,0.1,0.2,0.2,0.2,0.2C10.2,35.7,9,32.9,9,32.9z"/>
	
		<linearGradient id="SVGID_4_" gradientUnits="userSpaceOnUse" x1="-1751.8397" y1="36.94" x2="-1751.8397" y2="17.0044" gradientTransform="matrix(-1 0 0 1 -1735.8896 0)">
		<stop  offset="0" style="stop-color:#A80403"/>
		<stop  offset="1" style="stop-color:#800302"/>
	</linearGradient>
	<path class="st3" d="M19.8,32.5c-1-1.6-1.7-2.4-1.7-2.4s0.1,3-1.1,2.9c-1.2-0.1,1.7-2.5-1.4-5.4c0,0-4,3.8-3.5,6.4
		c0.3,1.7,0.7,2.4,0.9,2.7c-0.5-0.5-2.1-2.4-1.9-5.6c0,0,2,0.6,2.5-2.8c0.5-3.5,1.3-4.1,1.3-4.1s1.1,3.1,4.3,4.9
		c3.2,1.7,1.6,6.2-0.1,7.2C19,36.2,20.8,34.1,19.8,32.5z"/>
	
		<linearGradient id="SVGID_5_" gradientUnits="userSpaceOnUse" x1="-1751.8397" y1="36.7099" x2="-1751.8397" y2="21.2493" gradientTransform="matrix(-1 0 0 1 -1735.8896 0)">
		<stop  offset="0" style="stop-color:#A80403"/>
		<stop  offset="1" style="stop-color:#FB8202"/>
	</linearGradient>
	<path class="st4" d="M19.8,32.5c-1-1.6-1.7-2.4-1.7-2.4s0.1,3-1.1,2.9c-1.2-0.1,1.7-2.5-1.4-5.4c0,0-4,3.8-3.5,6.4
		c0.3,1.7,0.7,2.4,0.9,2.7c-0.5-0.5-2.1-2.4-1.9-5.6c0,0,2,0.6,2.5-2.8c0.5-3.5,1.3-4.1,1.3-4.1s1.1,3.1,4.3,4.9
		c3.2,1.7,1.6,6.2-0.1,7.2C19,36.2,20.8,34.1,19.8,32.5z"/>
	
		<linearGradient id="SVGID_6_" gradientUnits="userSpaceOnUse" x1="-1751.8397" y1="24.0633" x2="-1751.8397" y2="36.7706" gradientTransform="matrix(-1 0 0 1 -1735.8896 0)">
		<stop  offset="0" style="stop-color:#FB8202"/>
		<stop  offset="1" style="stop-color:#FEC40E"/>
	</linearGradient>
	<path class="st5" d="M19.8,32.5c-1-1.6-1.7-2.4-1.7-2.4s0.1,3-1.1,2.9c-1.2-0.1,1.7-2.5-1.4-5.4c0,0-4,3.8-3.5,6.4
		c0.3,1.7,0.7,2.4,0.9,2.7c-0.5-0.5-2.1-2.4-1.9-5.6c0,0,2,0.6,2.5-2.8c0.5-3.5,1.3-4.1,1.3-4.1s1.1,3.1,4.3,4.9
		c3.2,1.7,1.6,6.2-0.1,7.2C19,36.2,20.8,34.1,19.8,32.5z"/>
</g>
<g>
	
		<linearGradient id="SVGID_7_" gradientUnits="userSpaceOnUse" x1="-1764.7241" y1="26.8187" x2="-1764.7241" y2="6.8831" gradientTransform="matrix(-1 0 0 1 -1735.8896 0)">
		<stop  offset="0" style="stop-color:#A80403"/>
		<stop  offset="1" style="stop-color:#800302"/>
	</linearGradient>
	<path class="st6" d="M22.1,20.7c0.5-0.3-0.5-1.2-0.5-3.8c0-2.6,2.4-4.4,2.4-4.4c-0.5,1.1-0.1,4,0.6,4c0.7,0,0-1.3,1-4.7
		c1-3.4,4.4-5.1,4.4-5.1s-0.1,5.1,3.4,7.8c3.4,2.7,3.7,5.5,3,7.8c-0.5,1.7-2.4,3-3.3,3.5c1.1-0.8,3.2-2.8,1.9-6.1
		c-1.7-4.4-5.7-4.5-6.3-8.6c0,0-2.1,1.5-2.5,5.3c-0.4,3.8-2.6,3-3,1.5c0,0-0.3,1.6,0.4,3.1c0.7,1.5-0.4,2.2-1,2c0,0,1.2,2.8,4.1,3.9
		C21,25.8,21,19.8,21,19.8S21.6,20.9,22.1,20.7z"/>
	
		<linearGradient id="SVGID_8_" gradientUnits="userSpaceOnUse" x1="-1764.9224" y1="26.8187" x2="-1764.9224" y2="6.883" gradientTransform="matrix(-1 0 0 1 -1735.8896 0)">
		<stop  offset="0" style="stop-color:#A80403"/>
		<stop  offset="1" style="stop-color:#800302"/>
	</linearGradient>
	<path class="st7" d="M22.6,22.8c0.6,0.2,1.7-0.5,1-2c-0.7-1.5-0.4-3.1-0.4-3.1c0.4,1.5,2.6,2.3,3-1.5c0.4-3.8,2.5-5.3,2.5-5.3
		c0.6,4.2,4.6,4.3,6.3,8.6c1.3,3.3-0.8,5.3-1.9,6.1c-0.3,0.2-0.5,0.3-0.5,0.3c1.7-1,3.3-5.5,0.1-7.2c-3.2-1.7-4.3-4.9-4.3-4.9
		s-0.9,0.6-1.3,4.1c-0.5,3.5-2.5,2.8-2.5,2.8c-0.1,3.2,1.4,5.1,1.9,5.6c0.1,0.1,0.2,0.2,0.2,0.2C23.8,25.6,22.6,22.8,22.6,22.8z"/>
	
		<linearGradient id="SVGID_9_" gradientUnits="userSpaceOnUse" x1="-1764.9224" y1="11.007" x2="-1764.9224" y2="26.6869" gradientTransform="matrix(-1 0 0 1 -1735.8896 0)">
		<stop  offset="0" style="stop-color:#A80403"/>
		<stop  offset="1" style="stop-color:#FB8202"/>
	</linearGradient>
	<path class="st8" d="M22.6,22.8c0.6,0.2,1.7-0.5,1-2c-0.7-1.5-0.4-3.1-0.4-3.1c0.4,1.5,2.6,2.3,3-1.5c0.4-3.8,2.5-5.3,2.5-5.3
		c0.6,4.2,4.6,4.3,6.3,8.6c1.3,3.3-0.8,5.3-1.9,6.1c-0.3,0.2-0.5,0.3-0.5,0.3c1.7-1,3.3-5.5,0.1-7.2c-3.2-1.7-4.3-4.9-4.3-4.9
		s-0.9,0.6-1.3,4.1c-0.5,3.5-2.5,2.8-2.5,2.8c-0.1,3.2,1.4,5.1,1.9,5.6c0.1,0.1,0.2,0.2,0.2,0.2C23.8,25.6,22.6,22.8,22.6,22.8z"/>
	
		<linearGradient id="SVGID_10_" gradientUnits="userSpaceOnUse" x1="-1765.4457" y1="26.8187" x2="-1765.4457" y2="6.8831" gradientTransform="matrix(-1 0 0 1 -1735.8896 0)">
		<stop  offset="0" style="stop-color:#A80403"/>
		<stop  offset="1" style="stop-color:#800302"/>
	</linearGradient>
	<path class="st9" d="M33.4,22.4c-1-1.6-1.7-2.4-1.7-2.4s0.1,3-1.1,2.9c-1.2-0.1,1.7-2.5-1.4-5.4c0,0-4,3.8-3.5,6.4
		c0.3,1.7,0.7,2.4,0.9,2.7c-0.5-0.5-2.1-2.4-1.9-5.6c0,0,2,0.6,2.5-2.8c0.5-3.5,1.3-4.1,1.3-4.1s1.1,3.1,4.3,4.9
		c3.2,1.7,1.6,6.2-0.1,7.2C32.6,26,34.4,24,33.4,22.4z"/>
	
		<linearGradient id="SVGID_11_" gradientUnits="userSpaceOnUse" x1="-1765.4457" y1="26.5886" x2="-1765.4457" y2="11.128" gradientTransform="matrix(-1 0 0 1 -1735.8896 0)">
		<stop  offset="0" style="stop-color:#A80403"/>
		<stop  offset="1" style="stop-color:#FB8202"/>
	</linearGradient>
	<path class="st10" d="M33.4,22.4c-1-1.6-1.7-2.4-1.7-2.4s0.1,3-1.1,2.9c-1.2-0.1,1.7-2.5-1.4-5.4c0,0-4,3.8-3.5,6.4
		c0.3,1.7,0.7,2.4,0.9,2.7c-0.5-0.5-2.1-2.4-1.9-5.6c0,0,2,0.6,2.5-2.8c0.5-3.5,1.3-4.1,1.3-4.1s1.1,3.1,4.3,4.9
		c3.2,1.7,1.6,6.2-0.1,7.2C32.6,26,34.4,24,33.4,22.4z"/>
	
		<linearGradient id="SVGID_12_" gradientUnits="userSpaceOnUse" x1="-1765.4457" y1="13.942" x2="-1765.4457" y2="26.6493" gradientTransform="matrix(-1 0 0 1 -1735.8896 0)">
		<stop  offset="0" style="stop-color:#FB8202"/>
		<stop  offset="1" style="stop-color:#FEC40E"/>
	</linearGradient>
	<path class="st11" d="M33.4,22.4c-1-1.6-1.7-2.4-1.7-2.4s0.1,3-1.1,2.9c-1.2-0.1,1.7-2.5-1.4-5.4c0,0-4,3.8-3.5,6.4
		c0.3,1.7,0.7,2.4,0.9,2.7c-0.5-0.5-2.1-2.4-1.9-5.6c0,0,2,0.6,2.5-2.8c0.5-3.5,1.3-4.1,1.3-4.1s1.1,3.1,4.3,4.9
		c3.2,1.7,1.6,6.2-0.1,7.2C32.6,26,34.4,24,33.4,22.4z"/>
</g>
<circle class="st12" cx="22.4" cy="22" r="20.8"/>
</svg>
