<?xml version="1.0" encoding="utf-8"?>
<!-- Generator: Adobe Illustrator 21.0.0, SVG Export Plug-In . SVG Version: 6.00 Build 0)  -->
<svg version="1.1" id="Слой_1" xmlns="http://www.w3.org/2000/svg" xmlns:xlink="http://www.w3.org/1999/xlink" x="0px" y="0px"
	 viewBox="0 0 44.2 44.2" style="enable-background:new 0 0 44.2 44.2;" xml:space="preserve">
<style type="text/css">
	.st0{fill:none;stroke:#979998;stroke-width:1.5459;stroke-miterlimit:10;}
	.st1{fill:url(#SVGID_1_);}
	.st2{fill:url(#SVGID_2_);}
	.st3{fill:url(#SVGID_3_);}
	.st4{fill:url(#SVGID_4_);}
	.st5{fill:url(#SVGID_5_);}
	.st6{fill:url(#SVGID_6_);}
</style>
<circle class="st0" cx="22.3" cy="22.2" r="20.5"/>
<linearGradient id="SVGID_1_" gradientUnits="userSpaceOnUse" x1="-1758.29" y1="36.1633" x2="-1758.29" y2="5.8522" gradientTransform="matrix(-1 0 0 1 -1735.8896 0)">
	<stop  offset="0" style="stop-color:#A80403"/>
	<stop  offset="1" style="stop-color:#800302"/>
</linearGradient>
<path class="st1" d="M12.1,26.8c0.7-0.4-0.7-1.8-0.7-5.8c0-4,3.6-6.7,3.6-6.7c-0.7,1.6-0.2,6.1,0.9,6.1c1.1,0,0-2,1.6-7.2
	c1.6-5.1,6.7-7.7,6.7-7.7s-0.1,7.8,5.1,11.8c5.2,4,5.6,8.3,4.6,11.8c-0.7,2.6-3.6,4.5-5,5.3c1.7-1.2,4.9-4.3,2.9-9.3
	c-2.6-6.6-8.7-6.8-9.6-13.1c0,0-3.2,2.3-3.8,8c-0.6,5.8-4,4.6-4.6,2.3c0,0-0.4,2.4,0.6,4.7c1,2.3-0.6,3.3-1.5,3c0,0,1.8,4.2,6.3,5.9
	c-8.7-1.3-8.7-10.4-8.7-10.4S11.4,27.2,12.1,26.8z"/>
<linearGradient id="SVGID_2_" gradientUnits="userSpaceOnUse" x1="-1758.5916" y1="36.1633" x2="-1758.5916" y2="5.8521" gradientTransform="matrix(-1 0 0 1 -1735.8896 0)">
	<stop  offset="0" style="stop-color:#A80403"/>
	<stop  offset="1" style="stop-color:#800302"/>
</linearGradient>
<path class="st2" d="M12.9,30.1c0.9,0.3,2.5-0.8,1.5-3c-1-2.3-0.6-4.7-0.6-4.7c0.6,2.3,4,3.5,4.6-2.3c0.6-5.8,3.8-8,3.8-8
	c0.8,6.4,6.9,6.5,9.6,13.1c2,5-1.2,8.1-2.9,9.3c-0.5,0.3-0.8,0.4-0.8,0.4c2.6-1.5,5-8.3,0.2-10.9c-4.8-2.6-6.5-7.4-6.5-7.4
	s-1.3,0.9-2,6.2C19,28.1,16,27.1,16,27.1c-0.2,4.9,2.1,7.8,2.9,8.6c0.2,0.2,0.3,0.3,0.3,0.3C14.7,34.3,12.9,30.1,12.9,30.1z"/>
<linearGradient id="SVGID_3_" gradientUnits="userSpaceOnUse" x1="-1758.5916" y1="12.1224" x2="-1758.5916" y2="35.9628" gradientTransform="matrix(-1 0 0 1 -1735.8896 0)">
	<stop  offset="0" style="stop-color:#A80403"/>
	<stop  offset="1" style="stop-color:#FB8202"/>
</linearGradient>
<path class="st3" d="M12.9,30.1c0.9,0.3,2.5-0.8,1.5-3c-1-2.3-0.6-4.7-0.6-4.7c0.6,2.3,4,3.5,4.6-2.3c0.6-5.8,3.8-8,3.8-8
	c0.8,6.4,6.9,6.5,9.6,13.1c2,5-1.2,8.1-2.9,9.3c-0.5,0.3-0.8,0.4-0.8,0.4c2.6-1.5,5-8.3,0.2-10.9c-4.8-2.6-6.5-7.4-6.5-7.4
	s-1.3,0.9-2,6.2C19,28.1,16,27.1,16,27.1c-0.2,4.9,2.1,7.8,2.9,8.6c0.2,0.2,0.3,0.3,0.3,0.3C14.7,34.3,12.9,30.1,12.9,30.1z"/>
<linearGradient id="SVGID_4_" gradientUnits="userSpaceOnUse" x1="-1759.3872" y1="36.1632" x2="-1759.3872" y2="5.8521" gradientTransform="matrix(-1 0 0 1 -1735.8896 0)">
	<stop  offset="0" style="stop-color:#A80403"/>
	<stop  offset="1" style="stop-color:#800302"/>
</linearGradient>
<path class="st4" d="M29.4,29.4c-1.5-2.5-2.6-3.7-2.6-3.7s0.2,4.6-1.7,4.4c-1.9-0.2,2.5-3.7-2.1-8.2c0,0-6,5.7-5.3,9.8
	c0.5,2.7,1,3.7,1.3,4.1c-0.8-0.8-3.2-3.6-2.9-8.6c0,0,3.1,0.9,3.8-4.3c0.7-5.2,2-6.2,2-6.2s1.7,4.8,6.5,7.4
	c4.8,2.6,2.4,9.4-0.2,10.9C28.1,35,30.9,31.8,29.4,29.4z"/>
<linearGradient id="SVGID_5_" gradientUnits="userSpaceOnUse" x1="-1759.3872" y1="35.8135" x2="-1759.3872" y2="12.3064" gradientTransform="matrix(-1 0 0 1 -1735.8896 0)">
	<stop  offset="0" style="stop-color:#A80403"/>
	<stop  offset="1" style="stop-color:#FB8202"/>
</linearGradient>
<path class="st5" d="M29.4,29.4c-1.5-2.5-2.6-3.7-2.6-3.7s0.2,4.6-1.7,4.4c-1.9-0.2,2.5-3.7-2.1-8.2c0,0-6,5.7-5.3,9.8
	c0.5,2.7,1,3.7,1.3,4.1c-0.8-0.8-3.2-3.6-2.9-8.6c0,0,3.1,0.9,3.8-4.3c0.7-5.2,2-6.2,2-6.2s1.7,4.8,6.5,7.4
	c4.8,2.6,2.4,9.4-0.2,10.9C28.1,35,30.9,31.8,29.4,29.4z"/>
<linearGradient id="SVGID_6_" gradientUnits="userSpaceOnUse" x1="-1759.3872" y1="16.5849" x2="-1759.3872" y2="35.9057" gradientTransform="matrix(-1 0 0 1 -1735.8896 0)">
	<stop  offset="0" style="stop-color:#FB8202"/>
	<stop  offset="1" style="stop-color:#FEC40E"/>
</linearGradient>
<path class="st6" d="M29.4,29.4c-1.5-2.5-2.6-3.7-2.6-3.7s0.2,4.6-1.7,4.4c-1.9-0.2,2.5-3.7-2.1-8.2c0,0-6,5.7-5.3,9.8
	c0.5,2.7,1,3.7,1.3,4.1c-0.8-0.8-3.2-3.6-2.9-8.6c0,0,3.1,0.9,3.8-4.3c0.7-5.2,2-6.2,2-6.2s1.7,4.8,6.5,7.4
	c4.8,2.6,2.4,9.4-0.2,10.9C28.1,35,30.9,31.8,29.4,29.4z"/>
</svg>
