<?xml version="1.0" encoding="utf-8"?>
<!-- Generator: Adobe Illustrator 21.0.0, SVG Export Plug-In . SVG Version: 6.00 Build 0)  -->
<svg version="1.1" id="Слой_1" xmlns="http://www.w3.org/2000/svg" xmlns:xlink="http://www.w3.org/1999/xlink" x="0px" y="0px"
	 viewBox="0 0 44.2 44.2" style="enable-background:new 0 0 44.2 44.2;" xml:space="preserve">
<style type="text/css">
	.st0{fill:none;stroke:#979998;stroke-width:1.5729;stroke-miterlimit:10;}
	.st1{fill:none;stroke:#979998;stroke-width:1.5173;stroke-miterlimit:10;}
</style>
<circle class="st0" cx="22.2" cy="22.2" r="20.8"/>
<g>
	<path class="st1" d="M6,14.4c1.3,0,3.1,3.8,5.4,3.8c1.6,0,3.4-3.8,5.4-3.8c1.6,0,3.5,3.8,5.4,3.8c1.7,0,3.5-3.8,5.4-3.8
		c1.7,0,3.5,3.8,5.4,3.8c1.7,0,3.5-3.8,5.4-3.8"/>
</g>
<g>
	<path class="st1" d="M5.8,21c1.3,0,3.1,3.8,5.4,3.8c1.6,0,3.4-3.8,5.4-3.8c1.6,0,3.5,3.8,5.4,3.8c1.7,0,3.5-3.8,5.4-3.8
		c1.7,0,3.5,3.8,5.4,3.8c1.7,0,3.5-3.8,5.4-3.8"/>
</g>
<g>
	<path class="st1" d="M5.6,27.6c1.3,0,3.1,3.8,5.4,3.8c1.6,0,3.4-3.8,5.4-3.8c1.6,0,3.5,3.8,5.4,3.8c1.7,0,3.5-3.8,5.4-3.8
		c1.7,0,3.5,3.8,5.4,3.8c1.7,0,3.5-3.8,5.4-3.8"/>
</g>
</svg>
