<?xml version="1.0" encoding="utf-8"?>
<!-- Generator: Adobe Illustrator 21.0.0, SVG Export Plug-In . SVG Version: 6.00 Build 0)  -->
<svg version="1.1" id="Слой_1" xmlns="http://www.w3.org/2000/svg" xmlns:xlink="http://www.w3.org/1999/xlink" x="0px" y="0px"
	 viewBox="0 0 44.2 44.2" style="enable-background:new 0 0 44.2 44.2;" xml:space="preserve">
<style type="text/css">
	.st0{fill:none;stroke:#979998;stroke-width:1.5656;stroke-miterlimit:10;}
	.st1{fill:#979998;}
</style>
<circle class="st0" cx="22.4" cy="22.1" r="20.7"/>
<path class="st1" d="M35.7,12.6c-3.6-0.5-8.3-1.8-13.9-4.1c-0.1,0-0.1,0-0.1-0.1h0c0,0-0.1,0-0.1,0.1c-5.6,2.3-10.2,3.6-13.9,4.1
	c-0.1,2.2-0.1,11.1,4.7,17.9c2.1,3,5.1,5.5,9.3,7C35.8,32.7,35.8,15.7,35.7,12.6z M33.2,23.1c-0.8,2.8-2,5.3-3.6,7.3
	c-2,2.5-4.6,4.3-7.8,5.3l-0.2,0.1l-0.2-0.1c-3.2-1-5.8-2.8-7.8-5.3c0,0,0,0,0,0c-1.6-2-2.8-4.4-3.6-7.3c-1.3-4.8-1-9.1-1-9.2l0-0.3
	l0.4,0c2.9-0.3,6.8-1.4,11.6-3.3c0.4-0.2,0.4-0.2,0.5-0.2l0.1,0l0.1,0c0.1,0,0.1,0,0.5,0.2c4.7,1.9,8.6,3.1,11.6,3.3l0.4,0l0,0.3
	C34.2,14,34.6,18.3,33.2,23.1z"/>
</svg>
