<?xml version="1.0" encoding="utf-8"?>
<!-- Generator: Adobe Illustrator 21.0.0, SVG Export Plug-In . SVG Version: 6.00 Build 0)  -->
<svg version="1.1" id="Слой_1" xmlns="http://www.w3.org/2000/svg" xmlns:xlink="http://www.w3.org/1999/xlink" x="0px" y="0px"
	 viewBox="0 0 123 101" style="enable-background:new 0 0 123 101;" xml:space="preserve">
<style type="text/css">
	.st0{fill:#FFFFFF;}
</style>
<path class="st0" d="M97.4,58c-10.8,0-19.6,8.8-19.6,19.6c0,10.8,8.8,19.6,19.6,19.6c10.8,0,19.6-8.8,19.6-19.6
	C117.1,66.8,108.3,58,97.4,58L97.4,58z M105.3,88.4c0.1,0.3,0,0.6-0.3,0.8c-0.3,0.2-0.6,0.2-0.9,0l-6.6-4.4l-6.6,4.4
	c-0.3,0.2-0.6,0.2-0.9,0c-0.3-0.2-0.4-0.5-0.3-0.8l2.1-7.6l-6.2-4.9c-0.3-0.2-0.4-0.5-0.3-0.9c0.1-0.3,0.4-0.5,0.7-0.5l7.9-0.3
	l2.8-7.5c0.1-0.3,0.4-0.5,0.7-0.5c0.3,0,0.6,0.2,0.7,0.5l2.8,7.5l7.9,0.3c0.3,0,0.6,0.2,0.7,0.5c0.1,0.3,0,0.7-0.3,0.9l-6.2,4.9
	L105.3,88.4z M105.3,88.4"/>
<path class="st0" d="M10.3,7c-2,0-3.6,1.6-3.6,3.6v67.2c0,2,1.6,3.6,3.6,3.6h64.4c-0.2-1.3-0.4-2.5-0.4-3.8c0-1.1,0.1-2.1,0.2-3.1
	H26.3c0-7-5.7-12.7-12.7-12.7v-35c7,0,12.7-5.7,12.7-12.7c0-0.1,0-0.2,0-0.3h71.3c0,0.1,0,0.2,0,0.3c0,7,5.7,12.7,12.7,12.7
	c0,0,0.1,0,0.2,0v31.6c2.8,1.9,5.2,4.4,6.9,7.3V10.6c0-2-1.6-3.6-3.6-3.6H10.3z M10.3,7"/>
<rect x="33.5" y="27" class="st0" width="56.9" height="6.9"/>
<rect x="33.5" y="40.8" class="st0" width="56.9" height="6.9"/>
<path class="st0" d="M33.5,61.4H81c2.6-2.6,5.8-4.7,9.4-5.8v-1.1H33.5V61.4z M33.5,61.4"/>
</svg>
