<?xml version="1.0" encoding="utf-8"?>
<!-- Generator: Adobe Illustrator 21.0.0, SVG Export Plug-In . SVG Version: 6.00 Build 0)  -->
<svg version="1.1" id="Слой_1" xmlns="http://www.w3.org/2000/svg" xmlns:xlink="http://www.w3.org/1999/xlink" x="0px" y="0px"
	 viewBox="0 0 123 101" style="enable-background:new 0 0 123 101;" xml:space="preserve">
<style type="text/css">
	.st0{fill:#FFFFFF;}
	.st1{fill:none;stroke:#979998;stroke-width:1.415;stroke-miterlimit:10;}
	.st2{fill:none;}
	.st3{fill:none;stroke:#979998;stroke-width:1.5501;stroke-miterlimit:10;}
</style>
<polygon class="st0" points="35.1,76.9 5,76.9 14,85.5 5,94.1 26,94.1 26,80.5 35.1,80.5 "/>
<polygon class="st0" points="116.3,76.9 86.2,76.9 86.2,80.5 95.3,80.5 95.3,94.1 116.3,94.1 107.3,85.5 "/>
<polyline class="st1" points="95.2,92.5 111.1,92.5 104.3,85.6 111.1,78.8 88.4,78.8 "/>
<polyline class="st1" points="26,92.4 10.2,92.4 17,85.5 10.2,78.6 32.9,78.6 "/>
<rect x="27" y="81.5" class="st0" width="67.3" height="17.2"/>
<path class="st2" d="M93.9,16.8l-1-0.1c-7.8-0.8-18.1-3.7-30.7-8.9c-1-0.4-1.1-0.4-1.3-0.5l-0.3-0.1l-0.3,0.1
	c-0.2,0-0.3,0.1-1.3,0.5c-12.6,5.1-22.9,8.1-30.7,8.9l-1,0.1l-0.1,0.8c0,0.1-0.9,11.6,2.6,24.4c2.1,7.5,5.3,14,9.5,19.3
	c0,0,0.1,0.1,0.1,0.1c5.3,6.6,12.3,11.3,20.6,14l0.4,0.1l0.4-0.1c8.4-2.7,15.4-7.5,20.7-14.1C86,56,89.2,49.5,91.3,42
	c3.5-12.8,2.6-24.3,2.6-24.4L93.9,16.8z M89,41.6c-4.6,16.4-14.1,27.1-28.3,31.8c-7.3-2.4-13.4-6.4-18.2-12
	c-4.5-5.2-8-11.9-10.2-19.9c-2.9-10.5-2.8-20.2-2.6-23c7.9-0.9,18.2-3.9,30.4-8.9c0.2-0.1,0.4-0.1,0.5-0.2c0.2,0.1,0.3,0.1,0.5,0.2
	c12.3,5,22.5,8,30.4,8.9C91.7,21.4,91.9,31,89,41.6z"/>
<path class="st0" d="M97.9,13.9c-9.6-1.2-22-4.9-36.8-10.9c-0.1-0.1-0.3-0.1-0.4-0.2h0c-0.1,0-0.2,0.1-0.4,0.2
	c-14.8,6-27.2,9.7-36.8,10.9c-0.2,5.9-0.2,29.4,12.4,47.5c5.5,7.9,13.4,14.7,24.8,18.5C98.1,67.3,98.2,22.4,97.9,13.9z M91.3,42
	c-2.1,7.5-5.3,14-9.5,19.3c-5.3,6.7-12.3,11.4-20.7,14.1l-0.4,0.1l-0.4-0.1c-8.4-2.7-15.3-7.4-20.6-14c0,0-0.1-0.1-0.1-0.1
	C35.3,56,32.1,49.5,30,42c-3.5-12.8-2.6-24.3-2.6-24.4l0.1-0.8l1-0.1c7.8-0.8,18.1-3.7,30.7-8.9c1-0.4,1.1-0.4,1.3-0.5l0.3-0.1
	l0.3,0.1c0.2,0,0.3,0.1,1.3,0.5c12.6,5.1,22.9,8.1,30.7,8.9l1,0.1l0.1,0.8C94,17.7,94.9,29.2,91.3,42z"/>
<path class="st0" d="M61.2,9.6c-0.2-0.1-0.4-0.1-0.5-0.2c-0.2,0.1-0.3,0.1-0.5,0.2c-12.3,5-22.5,8-30.4,8.9
	c-0.1,2.8-0.3,12.5,2.6,23c2.2,8,5.6,14.6,10.2,19.9c4.8,5.5,10.9,9.5,18.2,12C74.9,68.7,84.4,57.9,89,41.6
	c2.9-10.5,2.8-20.2,2.6-23C83.7,17.6,73.5,14.6,61.2,9.6z M72,56.9H49.3v-6h7.2v-18h-7.2v-5.6c1.1,0,2.2-0.1,3.2-0.2
	c1-0.1,1.8-0.4,2.5-0.7c0.8-0.4,1.4-0.9,1.8-1.5c0.4-0.6,0.6-1.4,0.7-2.3H65v28.2h7V56.9z"/>
<rect x="29.1" y="83.1" class="st3" width="62.9" height="13.8"/>
</svg>
