<?xml version="1.0" encoding="utf-8"?>
<!-- Generator: Adobe Illustrator 21.0.0, SVG Export Plug-In . SVG Version: 6.00 Build 0)  -->
<svg version="1.1" id="Слой_1" xmlns="http://www.w3.org/2000/svg" xmlns:xlink="http://www.w3.org/1999/xlink" x="0px" y="0px"
	 viewBox="0 0 44.2 44.2" style="enable-background:new 0 0 44.2 44.2;" xml:space="preserve">
<style type="text/css">
	.st0{fill:none;stroke:#979998;stroke-width:1.5661;stroke-miterlimit:10;}
	.st1{fill:#979998;}
</style>
<circle class="st0" cx="22.1" cy="21.9" r="20.8"/>
<g>
	<path class="st1" d="M7.3,24.2c-0.3-0.2-3-2.5,0.6-3.6l4.8-1.3c0,0,2.7-0.9,4.1,0.9c0.7,0.9,1.1,1.2,1.1,1.2s0.5,0.7,2-0.3
		c1.1-0.9,4.9-3.6,4.9-3.6s1.1-1.3,2.5,0.7c0.7,0.9,2.4,3,2.1,2.8c-0.3-0.3,1,0.7-0.2,2c-1.2,1.2-6.5,4.9-6.5,4.9s-2,1-3.4-0.7
		c-1.8-1.4-3.7-3.7-3.9-4C15.1,23,14.8,22,13,22.7C10.8,23.6,7.9,24.5,7.3,24.2z"/>
</g>
<g>
	<path class="st1" d="M31.2,20.5L31.2,20.5c-2.1-0.2-3.7-2.1-3.4-4.2v0c0.2-2.1,2.1-3.6,4.2-3.4l0,0c2.1,0.2,3.6,2.1,3.4,4.2v0
		C35.2,19.2,33.3,20.7,31.2,20.5z"/>
</g>
<g>
	<path class="st1" d="M13,26.4L13,26.4c-0.3,0-0.6-0.3-0.5-0.7h0c0-0.3,0.3-0.6,0.7-0.5l0,0c0.3,0,0.6,0.3,0.5,0.7v0
		C13.6,26.2,13.3,26.5,13,26.4z"/>
</g>
<g>
	<path class="st1" d="M14.9,28.1L14.9,28.1c-0.3,0-0.6-0.3-0.5-0.7v0c0-0.3,0.3-0.6,0.7-0.5l0,0c0.3,0,0.6,0.3,0.5,0.7v0
		C15.5,27.9,15.2,28.2,14.9,28.1z"/>
</g>
<g>
	<path class="st1" d="M8.7,26.3L8.7,26.3c-0.2,0.2-0.6,0.2-0.8,0h0c-0.2-0.2-0.2-0.6,0-0.8l0,0c0.2-0.2,0.6-0.2,0.8,0h0
		C8.9,25.7,8.9,26.1,8.7,26.3z"/>
</g>
<g>
	<path class="st1" d="M11.2,25.9L11.2,25.9c-0.2,0.2-0.6,0.2-0.8,0h0c-0.2-0.2-0.2-0.6,0-0.8l0,0c0.2-0.2,0.6-0.2,0.8,0h0
		C11.5,25.3,11.5,25.7,11.2,25.9z"/>
</g>
<g>
	<path class="st1" d="M16.8,29.9L16.8,29.9c-0.3,0-0.6-0.3-0.5-0.7l0,0c0-0.3,0.3-0.6,0.7-0.5l0,0c0.3,0,0.6,0.3,0.5,0.7l0,0
		C17.4,29.7,17.1,29.9,16.8,29.9z"/>
</g>
<g>
	<path class="st1" d="M18.7,31.6L18.7,31.6c-0.3,0-0.6-0.3-0.5-0.7l0,0c0-0.3,0.3-0.6,0.7-0.5l0,0c0.3,0,0.6,0.3,0.5,0.7v0
		C19.3,31.4,19,31.6,18.7,31.6z"/>
</g>
<g>
	<path class="st1" d="M20.6,33.3L20.6,33.3c-0.3,0-0.6-0.3-0.5-0.7h0c0-0.3,0.3-0.6,0.7-0.5l0,0c0.3,0,0.6,0.3,0.5,0.7v0
		C21.2,33.1,20.9,33.3,20.6,33.3z"/>
</g>
<g>
	<path class="st1" d="M23.1,32.1L23.1,32.1c-0.3,0-0.6-0.2-0.6-0.6l0,0c0-0.3,0.2-0.6,0.6-0.6l0,0c0.3,0,0.6,0.2,0.6,0.6l0,0
		C23.7,31.8,23.5,32.1,23.1,32.1z"/>
</g>
<g>
	<path class="st1" d="M25,30.5L25,30.5c-0.3,0-0.6-0.2-0.6-0.6v0c0-0.3,0.2-0.6,0.6-0.6l0,0c0.3,0,0.6,0.2,0.6,0.6l0,0
		C25.6,30.2,25.3,30.5,25,30.5z"/>
</g>
<g>
	<path class="st1" d="M26.8,29L26.8,29c-0.3,0-0.6-0.2-0.6-0.6v0c0-0.3,0.2-0.6,0.6-0.6l0,0c0.3,0,0.6,0.2,0.6,0.6v0
		C27.4,28.7,27.2,29,26.8,29z"/>
</g>
<g>
	<path class="st1" d="M28.7,27.4L28.7,27.4c-0.3,0-0.6-0.2-0.6-0.6l0,0c0-0.3,0.2-0.6,0.6-0.6l0,0c0.3,0,0.6,0.2,0.6,0.6l0,0
		C29.3,27.1,29,27.4,28.7,27.4z"/>
</g>
<g>
	<path class="st1" d="M30.5,25.8L30.5,25.8c-0.3,0-0.6-0.2-0.6-0.6v0c0-0.3,0.2-0.6,0.6-0.6l0,0c0.3,0,0.6,0.2,0.6,0.6v0
		C31.1,25.5,30.9,25.8,30.5,25.8z"/>
</g>
<g>
	<path class="st1" d="M32.4,24.3L32.4,24.3c-0.3,0-0.6-0.2-0.6-0.6v0c0-0.3,0.2-0.6,0.6-0.6l0,0c0.3,0,0.6,0.2,0.6,0.6v0
		C33,24,32.7,24.3,32.4,24.3z"/>
</g>
<g>
	<path class="st1" d="M34.2,22.7L34.2,22.7c-0.3,0-0.6-0.2-0.6-0.6h0c0-0.3,0.2-0.6,0.6-0.6l0,0c0.3,0,0.6,0.2,0.6,0.6l0,0
		C34.8,22.4,34.6,22.7,34.2,22.7z"/>
</g>
<g>
	<path class="st1" d="M36.1,21.1L36.1,21.1c-0.3,0-0.6-0.2-0.6-0.6v0c0-0.3,0.2-0.6,0.6-0.6l0,0c0.3,0,0.6,0.2,0.6,0.6v0
		C36.7,20.8,36.4,21.1,36.1,21.1z"/>
</g>
<g>
	<path class="st1" d="M37.9,19.6L37.9,19.6c-0.3,0-0.6-0.2-0.6-0.6v0c0-0.3,0.2-0.6,0.6-0.6l0,0c0.3,0,0.6,0.2,0.6,0.6v0
		C38.5,19.3,38.3,19.6,37.9,19.6z"/>
</g>
</svg>
