<?xml version="1.0" encoding="utf-8"?>
<!-- Generator: Adobe Illustrator 21.0.0, SVG Export Plug-In . SVG Version: 6.00 Build 0)  -->
<svg version="1.1" id="Слой_1" xmlns="http://www.w3.org/2000/svg" xmlns:xlink="http://www.w3.org/1999/xlink" x="0px" y="0px"
	 viewBox="0 0 44.2 44.2" style="enable-background:new 0 0 44.2 44.2;" xml:space="preserve">
<style type="text/css">
	.st0{fill:none;stroke:#979998;stroke-width:1.5634;stroke-miterlimit:10;}
	.st1{fill:#979998;}
</style>
<circle class="st0" cx="21.9" cy="22.3" r="20.7"/>
<g>
	<g>
		<g>
			<path class="st1" d="M11.2,25.1l-5.7,1.9l-0.2-0.7c-0.4-1.3,0.3-2.8,1.6-3.3l0.8-0.3c1.3-0.4,2.8,0.3,3.3,1.6L11.2,25.1z"/>
		</g>
		<g>
			<path class="st1" d="M19.3,32.1H16c-2.3,0-4.2-1.9-4.2-4.2v-1.5c0-2.3,1.9-4.2,4.2-4.2h3.3c2.3,0,4.2,1.9,4.2,4.2v1.6
				C23.5,30.2,21.6,32.1,19.3,32.1z"/>
		</g>
		<g>
			<path class="st1" d="M33.5,22.9l-8.5,3.8l-2.3-5.2l8.5-3.8c1.2-0.5,2.6,0,3.2,1.2l0.4,0.8C35.2,21,34.7,22.4,33.5,22.9z"/>
		</g>
	</g>
</g>
<g>
	<g>
		<path class="st1" d="M37.7,31.8c-0.5,0-1,0-1.5,0c-0.4,0-0.5-0.1-0.5-0.5c-0.1-1.5-0.1-1.5,1.4-1.5c0.7,0,1.4,0,2.1,0
			c0.4,0,0.6,0.1,0.6,0.5c0,1.7,0.2,1.4-1.4,1.4C38.2,31.8,38,31.8,37.7,31.8z"/>
	</g>
</g>
<g>
	<g>
		<path class="st1" d="M37.7,20.5c0.5,0,1.1,0,1.6,0c0.4,0,0.6,0.2,0.5,0.6c0,0.1,0,0.2,0,0.3c0,1,0,0.9-1,1c-0.9,0.1-1.8,0.1-2.7,0
			c-0.4,0-0.5-0.2-0.5-0.5c0-0.5-0.2-1,0.1-1.3c0.2-0.2,0.8-0.1,1.2-0.1C37.3,20.5,37.5,20.5,37.7,20.5z"/>
	</g>
</g>
<g>
	<g>
		<path class="st1" d="M37.8,25.1c0.5,0,1.1,0,1.6,0c0.3,0,0.4,0.1,0.4,0.4c0,0.1,0,0.3,0,0.4c0,1,0,1-1,1.1c-0.9,0-1.9,0-2.9,0
			c-0.1,0-0.2-0.1-0.2-0.2c0-0.1,0-0.1,0-0.2c0-1.8-0.3-1.5,1.4-1.5C37.4,25.1,37.6,25.1,37.8,25.1z"/>
	</g>
</g>
<g>
	<g>
		<path class="st1" d="M41.5,25.1c0.3,0,0.7,0,1,0c0.2,0,0.3,0.1,0.3,0.4c0,0.1,0,0.3,0,0.4c0,1,0,1-0.6,1.1c-0.6,0-1.2,0-1.8,0
			c-0.1,0-0.1-0.1-0.1-0.2c0-0.1,0-0.1,0-0.2c0-1.8-0.2-1.5,0.9-1.5C41.2,25.1,41.3,25.1,41.5,25.1z"/>
	</g>
</g>
<g>
	<g>
		<path class="st1" d="M37.8,11.2c0.5,0,1,0,1.5,0c0.3,0,0.5,0.1,0.5,0.4c0,0.4,0,0.8,0,1.2c0,0.3-0.1,0.4-0.4,0.4
			c-1.1-0.2-2.2-0.1-3.2-0.1c-0.3,0-0.4-0.1-0.4-0.4c-0.1-1.5-0.1-1.5,1.4-1.5C37.3,11.2,37.5,11.2,37.8,11.2z"/>
	</g>
</g>
<g>
	<g>
		<path class="st1" d="M37.8,15.9c0.5,0,1.1,0,1.6,0c0.3,0,0.4,0.1,0.4,0.4c0.1,1.4,0.1,1.4-1.3,1.5c-0.8,0-1.6,0-2.4,0
			c-0.3,0-0.4-0.1-0.4-0.4c0,0,0,0,0-0.1c0-1.8-0.2-1.4,1.4-1.5C37.3,15.9,37.5,15.9,37.8,15.9z"/>
	</g>
</g>
<g>
	<g>
		<path class="st1" d="M39.2,22.8c0.4,0,0.8,0,1.1,0c0.4,0,0.5,0.2,0.5,0.5c0,1.3,0,1.3-1.3,1.4c-0.5,0-0.9,0-1.4,0
			c-0.3,0-0.4-0.1-0.3-0.4c0,0,0,0,0-0.1C37.8,22.5,37.5,22.9,39.2,22.8z"/>
	</g>
</g>
<g>
	<g>
		<path class="st1" d="M39.3,27.5c0,0,0.1,0,0.1,0c1.5,0,1.5,0,1.4,1.5c0,0.2-0.1,0.3-0.3,0.3c-0.8,0-1.6,0-2.4,0
			c-0.1,0-0.2,0-0.2-0.1c-0.1-0.1-0.1-1.6,0-1.7c0.1-0.1,0.2-0.1,0.4-0.1C38.6,27.5,39,27.5,39.3,27.5L39.3,27.5z"/>
	</g>
</g>
<g>
	<g>
		<path class="st1" d="M39.3,15.4c0,0-0.1,0-0.1,0c-1.5,0-1.5,0-1.4-1.5c0-0.3,0.1-0.4,0.4-0.4c0.7,0,1.5,0,2.2,0c0,0,0.1,0,0.1,0
			c0.7,0.4,0.2,1,0.3,1.5c0.1,0.3-0.1,0.4-0.4,0.4C40,15.4,39.7,15.4,39.3,15.4z"/>
	</g>
</g>
<g>
	<g>
		<path class="st1" d="M39.3,20.1c-0.1,0-0.1,0-0.2,0c-1.4,0-1.5-0.1-1.3-1.5c0-0.2,0.1-0.4,0.4-0.4c0.7,0,1.5-0.1,2.2,0
			c0.8,0.2,0.3,0.9,0.4,1.4c0.1,0.3,0,0.5-0.4,0.5C40,20,39.7,20.1,39.3,20.1z"/>
	</g>
</g>
<g>
	<g>
		<path class="st1" d="M41.6,22.4c-0.1,0-0.1,0-0.2,0c-1.4,0-1.5-0.1-1.3-1.5c0-0.2,0.1-0.4,0.4-0.4c0.7,0,1.5-0.1,2.2,0
			c0.8,0.2,0.3,0.9,0.4,1.4c0.1,0.3,0,0.5-0.4,0.5C42.3,22.4,42,22.4,41.6,22.4z"/>
	</g>
</g>
<g>
	<g>
		<path class="st1" d="M37.5,28.5c0,1.1,0.1,1-1.1,1c-0.7,0-0.8-0.1-0.8-0.9c0-1.1,0-1.1,1.2-1.1C37.5,27.5,37.5,27.5,37.5,28.5z"/>
	</g>
</g>
<g>
	<path class="st1" d="M37.5,33.1c0,0.1,0,0.3,0,0.4c0,0.4-0.1,0.6-0.5,0.6c-0.1,0-0.3,0-0.4,0c-0.9,0-0.9,0-0.9-0.9
		c0.1-1.1,0.1-1.1,1-1.1C37.6,32.1,37.5,32,37.5,33.1z"/>
</g>
<g>
	<path class="st1" d="M39.6,33.1c0,0.1,0,0.3,0,0.4c0,0.4-0.1,0.6-0.5,0.6c-0.1,0-0.3,0-0.4,0c-0.9,0-0.9,0-0.9-0.9
		c0.1-1.1,0.1-1.1,1-1.1C39.7,32.1,39.6,32,39.6,33.1z"/>
</g>
<g>
	<g>
		<path class="st1" d="M37.5,9.8c0,1.1,0.1,0.9-0.9,0.9c-0.3,0-0.7,0.2-0.9-0.2c-0.2-0.5-0.1-1-0.1-1.5c0-0.1,0.1-0.2,0.3-0.2
			c0.4,0,0.9,0,1.3,0c0.2,0,0.3,0.1,0.3,0.3C37.5,9.4,37.5,9.6,37.5,9.8z"/>
	</g>
</g>
<g>
	<g>
		<path class="st1" d="M36.5,7.6c0,1.1,0.1,0.9-0.4,0.9c-0.1,0-0.4,0.2-0.4-0.2c-0.1-0.5-0.1-1,0-1.5c0-0.1,0.1-0.2,0.1-0.2
			c0.2,0,0.4,0,0.6,0c0.1,0,0.1,0.1,0.1,0.3C36.5,7.1,36.5,7.3,36.5,7.6z"/>
	</g>
</g>
<g>
	<g>
		<path class="st1" d="M37.6,35.4c0,1.1,0.1,0.9-0.9,0.9c-0.3,0-0.7,0.2-0.9-0.2c-0.2-0.5-0.1-1-0.1-1.5c0-0.1,0.1-0.2,0.3-0.2
			c0.4,0,0.9,0,1.3,0c0.2,0,0.3,0.1,0.3,0.3C37.6,34.9,37.6,35.2,37.6,35.4z"/>
	</g>
</g>
<g>
	<g>
		<path class="st1" d="M37.5,14.5c0,1,0.1,0.9-0.9,0.9c-0.2,0-0.3,0-0.5,0c-0.1,0-0.1,0-0.2,0c-0.4-0.1-0.4-0.5-0.2-0.7
			c0.2-0.4-0.4-1.1,0.4-1.2c0.2,0,0.3,0,0.5,0C37.6,13.6,37.5,13.4,37.5,14.5z"/>
	</g>
</g>
<g>
	<g>
		<path class="st1" d="M42,16.8c0,1,0.1,0.9-0.9,0.9c-0.2,0-0.3,0-0.5,0c-0.1,0-0.1,0-0.2,0c-0.4-0.1-0.4-0.5-0.2-0.7
			c0.2-0.4-0.4-1.1,0.4-1.2c0.2,0,0.3,0,0.5,0C42.2,15.9,42,15.7,42,16.8z"/>
	</g>
</g>
<g>
	<g>
		<path class="st1" d="M37.5,23.7c0,1.1,0.2,1-0.9,1c-1,0-1.1-0.1-0.9-1.1c0-0.2-0.1-0.6,0.3-0.7c0.5-0.1,1-0.2,1.5,0
			C37.7,23,37.4,23.5,37.5,23.7z"/>
	</g>
</g>
<g>
	<g>
		<path class="st1" d="M43,23.7c0,1.1,0.2,1-0.9,1c-1,0-1.1-0.1-0.9-1.1c0-0.2-0.1-0.6,0.3-0.7c0.5-0.1,1-0.2,1.5,0
			C43.1,23,42.9,23.5,43,23.7z"/>
	</g>
</g>
<g>
	<g>
		<path class="st1" d="M35.7,19.1c0-1.1-0.1-0.9,0.9-0.9c0.9,0,0.9,0,0.9,0.9c0,1,0,1-1,1C35.6,20.1,35.7,20.2,35.7,19.1z"/>
	</g>
</g>
<g>
	<g>
		<path class="st1" d="M41.1,19.2c0-1.1-0.1-0.9,0.9-0.9c0.9,0,0.9,0,0.9,0.9c0,1,0,1-1,1C41,20.1,41.1,20.2,41.1,19.2z"/>
	</g>
</g>
<g>
	<g>
		<path class="st1" d="M30.1,16.7l0-0.8l0.6,0l0,0l2,0.1v0l0.3,0l0-0.2l0-0.1l0,0l0-0.1l0-0.1l0,0l0,0l0-0.2l-0.3,0l0,0l-0.2,0l0,0
			l-1.8-0.1l0,0l-0.6,0l0-0.8l-1.6,1.1L30.1,16.7z"/>
	</g>
</g>
<g>
	<g>
		<path class="st1" d="M10.7,29.4l-0.8,0.2l-0.2-0.6l0,0l-0.6-1.9l0,0l-0.1-0.3l-0.2,0.1l-0.1,0l0,0l-0.1,0l-0.1,0l0,0l0,0l-0.2,0.1
			l0.1,0.3l0,0l0,0.2l0,0l0.5,1.8l0,0l0.2,0.6l-0.8,0.2l1.6,1.2L10.7,29.4z"/>
	</g>
</g>
</svg>
