<svg id="Capa_1" data-name="Capa 1" xmlns="http://www.w3.org/2000/svg" width="40" height="40" viewBox="0 0 40 40">
  <defs>
    <style>
      .cls-1 {
        fill: #4d76a1;
      }

      .cls-2 {
        fill: #fff;
      }
    </style>
  </defs>
  <title>vk</title>
  <g>
    <circle id="_Контур_" data-name="&lt;Контур&gt;" class="cls-1" cx="20" cy="20" r="20"/>
    <path class="cls-2" d="M19.16,28.74h1.51s.5,0,.67-.34c.17-.17.17-.67.17-.67s0-2.18,1-2.35c1-.34,2.18,2,3.53,3a2.29,2.29,0,0,0,1.68.5h3.53s1.85-.17,1-1.51c0-.17-.5-1-2.69-3s-1.85-1.68.67-5.21c1.68-2.18,2.18-3.53,2-4s-1.34-.34-1.34-.34h-4a.83.83,0,0,0-.5.17,2.42,2.42,0,0,0-.34.5,22.3,22.3,0,0,1-1.51,3c-1.68,3-2.52,3.19-2.69,3-.67-.5-.5-1.68-.5-2.69,0-2.86.5-4-.84-4.37a4.73,4.73,0,0,0-1.85-.17,9.37,9.37,0,0,0-3.36.34c0-.17-.34.34-.17.34a1.82,1.82,0,0,1,1.18.5,4.7,4.7,0,0,1,.34,1.85s.17,3.36-.5,3.87c-.5.17-1.18-.34-2.86-3a15.27,15.27,0,0,1-1.34-2.86,2.42,2.42,0,0,0-.34-.5l-.67-.34H7.23a1.31,1.31,0,0,0-.84.34c-.17.17,0,.67,0,.67s3,6.89,6.22,10.42a8.77,8.77,0,0,0,6.55,2.86Z"/>
  </g>
</svg>
