<svg id="Layer_1" data-name="Layer 1" xmlns="http://www.w3.org/2000/svg" width="40" height="40" viewBox="0 0 40 40">
  <defs>
    <style>
      .cls-1 {
        fill: #fff;
      }

      .cls-2 {
        fill: #c12025;
      }
    </style>
  </defs>
  <title>youtube</title>
  <rect class="cls-1" x="11.5" y="13" width="17" height="13.9"/>
  <path class="cls-2" d="M20.33,17.67a3.49,3.49,0,0,1-1-.67c-.33-.17-.67-.5-1-.67-.17-.17-.5-.17-.5-.33v8a15,15,0,0,0,1.5-.83,9.45,9.45,0,0,1,2.17-1.33,3.49,3.49,0,0,0,1-.67A16.14,16.14,0,0,0,24,20c-.5-.33-1.17-.67-1.67-1A20.81,20.81,0,0,0,20.33,17.67Z"/>
  <path class="cls-2" d="M20,0A20,20,0,1,0,40,20,20.06,20.06,0,0,0,20,0ZM31,24.33a6.05,6.05,0,0,1-1.17,2.83c-.67.83-2,.67-3,.67-2.5.17-4.83,0-7.33,0h-6a6.84,6.84,0,0,1-1.83-.17,2.33,2.33,0,0,1-1.5-.5,1.26,1.26,0,0,0-.33-.67l-.17-.33c-1-2-1-4.33-1-6.5a12.53,12.53,0,0,0,0-2.5A4.87,4.87,0,0,1,9,15.67a4.87,4.87,0,0,1,.33-1.5A3.25,3.25,0,0,1,11,12.5a4.57,4.57,0,0,1,2-.33H24.83a15.25,15.25,0,0,1,2.67.17,4.44,4.44,0,0,1,2,.5,2,2,0,0,1,.83.83,6.89,6.89,0,0,1,.83,3.17,24.61,24.61,0,0,0,.17,3.5V21A25,25,0,0,1,31,24.33Z"/>
</svg>
