<?xml version="1.0" encoding="utf-8"?>
<!-- Generator: Adobe Illustrator 24.1.2, SVG Export Plug-In . SVG Version: 6.00 Build 0)  -->
<svg version="1.1" id="Слой_1" xmlns="http://www.w3.org/2000/svg" xmlns:xlink="http://www.w3.org/1999/xlink" x="0px" y="0px"
	 viewBox="0 0 337.3 63.1" style="enable-background:new 0 0 337.3 63.1;" xml:space="preserve">
<style type="text/css">
	.st0{fill:#F24942;}
	.st1{fill:#FFFFFF;}
</style>
<path d="M148,10.7h14.5v32.3c-0.1,2.8-0.5,5.2-1,7.3c-0.6,2.1-2.3,4.2-5.1,6.3c-2.8,2.2-6.5,3.5-11.1,3.9l-0.7-9.3
	c2.9-0.2,5.2-1.4,6.8-3.5c1.6-2.1,2.3-10.8,2-26.1l4.2-2.2h-11.7L148,10.7z"/>
<polygon points="167,10.6 183.9,10.6 182.6,19.5 179.9,19.5 179.9,44.1 183.4,44.1 182.9,52.8 166,52.8 166.8,44.1 170.5,44.1 
	170.5,21.7 174.4,19.5 166.1,19.5 "/>
<path d="M212.3,7.8v3h10.5c2.6,0.4,4,1.8,4.2,4.3l-0.1,28.1c-1,4.5-2.5,7.3-4.4,8.5c-1.9,1.2-4.2,1.8-7,1.8V44
	c1.7,0.1,2.4-3.8,2.1-12V20.2h-5.3v31.2l-10,1.8l0-32.9h-4.1v31.7l-10,1.3l0-31.2l3.4-2h-4.3l2.6-9.1h12.5V7.7L212.3,7.8z"/>
<path d="M239.9,10.5v4.1l2.4-4.1h20.4c2.5,0.7,3.7,4.3,3.6,10.6v27.9c-0.5,2.3-2.4,3.5-5.8,3.6h-23.6c-3.5,0.1-5.5-1.4-6.1-4.6V12.4
	L239.9,10.5z M239.9,43.5h17.3V19.7h-17.3V43.5z"/>
<path d="M115.9,10.1c-1.2,10.8-1.3,18.1-0.5,21.8c0.9,3.7,2.2,6.6,4.1,8.8c1.9,2.1,6.1,2.7,12.7,1.5l0-31.7l9,0.5v40.5l-9,0.9v-5.1
	l-1.6,5.6l-2,0.4c-5.8,0.1-10.2-0.7-13.1-2.4c-3-1.7-5.4-5.2-7.3-10.6c-1.9-5.3-2.7-13-2.4-23l0.5-5.7L115.9,10.1z"/>
<polygon points="75.3,10.6 102.9,10.6 100.9,19.5 86.6,19.5 86.6,29.8 87.7,25.6 99.1,27.9 97.4,37.1 86.5,34.9 86.5,51.6 
	77.2,53.5 77.2,21.6 81.7,19.5 73.8,19.5 "/>
<path class="st0" d="M61.6,35.6c-2.2,16.5-17.3,28.2-33.9,26c-16.5-2.2-28.2-17.4-26-33.9c2.2-16.5,17.4-28.2,33.9-26
	C52.1,3.9,63.8,19,61.6,35.6"/>
<path class="st1" d="M50.2,21c-2.3,0.6-5.7,1.1-10.1,1.3c-4.5,0.3-8.4,0.5-11.7,0.7l3.6,2.8c-1.1,1.2-2,2.6-2.7,4.1
	c3.5-0.7,7-1,10.4-1l-0.8,5.9c-3.2-0.5-7-0.5-11.3-0.2c-0.6,2.6-1.1,5.2-1.5,7.7c-0.4,2.6-0.8,6.5-1.3,11.9l-0.3-0.7L23.8,52
	c-0.5-1.2-0.9-3.2-1.2-6c-0.3-2.8-0.5-4.9-0.6-6.3c-0.1-2.2-0.1-3.8,0-4.8c-0.8,0.2-1.8,0.2-3,0.3c-1,0.1-1.5,0.1-1.5,0.1
	c-0.1,0-0.6-0.1-1.5-0.3c0.6-0.6,0.9-1,0.9-1.1c0-0.1,0.5-0.3,1.3-0.7c1-0.5,2.4-1.1,4.1-1.7c0.6-3.1,1.6-5.9,3.2-8.4
	c-0.1,0-0.2,0-0.2,0c-0.1,0-0.1,0-0.2,0c-0.7,0.1-2,0.2-4.1,0.5c-2.1,0.3-3.3,0.3-3.7,0c0.2-1.1,1.9-2,5.1-2.9
	c3.2-0.8,5.4-1.4,6.4-1.7c1.7-0.4,4.9-1,9.5-1.8c4.6-0.8,7.5-1.4,8.7-1.9L50.2,21z"/>
<path class="st0" d="M319.6,44.6c-5.3,0-8.5-2.3-8.5-8.1c0-11.1,5.1-18,8.5-18s8.5,7,8.5,18C328,42.3,324.9,44.6,319.6,44.6
	 M322.1,53.5c10.1,0,14.1-7.3,14.1-15.9c0-12.9-7.2-27.2-16.6-27.2c-9.4,0-16.6,14.4-16.6,27.2c0,8.7,4,15.9,14.1,15.9H322.1z
	 M292.6,11.1c-1.2,0-1.1,0.3-1.5,1.4c-2.4,8.4-9.8,17-10.9,17c-1,0-0.9-2.6-0.9-3.2c0-7.2,2.5-14.4,2.5-14.4c0-1-1.1-0.8-1.7-0.8
	H275c-0.9,0-3.5-0.9-3.5,23.8c0,18.8,1.5,17.8,2.8,17.8h6.1c0.6,0,1-0.3,1-0.9c0-0.4-1.7-9.3-1.7-11.3c0-2.9,4.3-6.6,5.5-6.6
	c0.9,0,5.3,5.4,5.5,16.7c0,0.6-0.2,2,1.1,2h6.1c1.1,0,2.2,0.3,2.2-1.1c0-14.7-9.6-22.6-9.6-23.7c0-1,8.5-8.8,8.5-16.3
	c0-0.8-1.1-0.6-1.6-0.6H292.6z"/>
</svg>
