<?xml version="1.0" encoding="utf-8"?>
<!-- Generator: Adobe Illustrator 24.1.2, SVG Export Plug-In . SVG Version: 6.00 Build 0)  -->
<svg version="1.1" id="Layer_1" xmlns="http://www.w3.org/2000/svg" xmlns:xlink="http://www.w3.org/1999/xlink" x="0px" y="0px"
	 viewBox="0 0 313.1 55.6" style="enable-background:new 0 0 313.1 55.6;" xml:space="preserve">
<style type="text/css">
	.st0{fill-rule:evenodd;clip-rule:evenodd;fill:#FFFFFF;}
	.st1{fill-rule:evenodd;clip-rule:evenodd;fill:#ED1C24;}
	.st2{fill:#ED1C24;}
</style>
<g>
	<path class="st0" d="M131.9,8.6h13v29c-0.1,2.5-0.4,4.7-0.9,6.5s-2.1,3.7-4.6,5.7c-2.5,1.9-5.9,3.1-10,3.5l-0.7-8.3
		c2.6-0.2,4.6-1.3,6.1-3.2s2.1-9.7,1.8-23.4l3.8-1.9H130L131.9,8.6z"/>
	<polygon class="st0" points="148.9,8.5 164,8.5 162.9,16.5 160.5,16.5 160.5,38.5 163.6,38.5 163.1,46.3 148,46.3 148.8,38.5 
		152,38.5 152.1,18.4 155.6,16.5 148.1,16.5 	"/>
	<path class="st0" d="M189.5,5.9v2.7h9.4c2.3,0.4,3.6,1.6,3.8,3.8l-0.1,25.2c-0.9,4-2.3,6.5-4,7.6s-3.8,1.6-6.3,1.6v-8.4
		c1.5,0.1,2.2-3.5,1.9-10.7V17h-4.7v28l-8.9,1.6V17.1H177v28.4l-8.9,1.1v-28l3-1.8h-3.9l2.3-8.2h11.2V5.8L189.5,5.9z"/>
	<path class="st0" d="M214.3,38h15.5V16.6h-15.5V38z M214.3,8.4V12l2.2-3.6h18.3c2.3,0.6,3.3,3.8,3.2,9.5v25c-0.4,2-2.2,3.1-5.2,3.2
		h-21.2c-3.1,0.1-5-1.2-5.5-4.1V10.1L214.3,8.4z"/>
	<path class="st0" d="M103,8c-1.1,9.7-1.2,16.3-0.4,19.6c0.8,3.3,2,5.9,3.7,7.9c1.7,1.9,5.5,2.4,11.4,1.4V8.5l8,0.5v36.3l-8,0.8
		v-4.6l-1.4,5l-1.8,0.4c-5.2,0.1-9.1-0.6-11.8-2.2c-2.7-1.6-4.8-4.7-6.6-9.5c-1.7-4.8-2.4-11.6-2.1-20.6l0.5-5.1L103,8z"/>
	<polygon class="st0" points="66.7,8.5 91.4,8.5 89.6,16.5 76.8,16.5 76.8,25.7 77.8,21.9 88,24 86.5,32.2 76.7,30.3 76.7,45.2 
		68.4,46.9 68.4,18.3 72.4,16.5 65.3,16.5 	"/>
</g>
<g>
	<path class="st1" d="M54.4,30.9c-2,14.8-15.6,25.2-30.4,23.3C9.1,52.2-1.3,38.6,0.7,23.8C2.6,9,16.2-1.5,31.1,0.5
		C45.9,2.4,56.3,16,54.4,30.9"/>
	<path class="st0" d="M44.1,17.8C42,18.4,39,18.8,35,19s-7.5,0.4-10.5,0.6l3.2,2.5c-1,1.1-1.8,2.3-2.4,3.7c3.1-0.6,6.2-0.9,9.3-0.9
		l-0.7,5.3c-2.9-0.4-6.3-0.5-10.2-0.2c-0.6,2.3-1,4.6-1.3,6.9c-0.3,2.3-0.7,5.9-1.1,10.7L20.9,47l-0.5-1.4c-0.4-1.1-0.8-2.9-1.1-5.4
		c-0.3-2.5-0.5-4.4-0.5-5.6c-0.1-2-0.1-3.4,0-4.3c-0.7,0.1-1.6,0.2-2.7,0.2c-0.9,0.1-1.3,0.1-1.4,0.1c-0.1,0-0.5-0.1-1.3-0.2
		c0.5-0.6,0.8-0.9,0.8-1s0.4-0.3,1.2-0.6c0.9-0.5,2.2-1,3.7-1.5c0.5-2.8,1.5-5.3,2.9-7.5c-0.1,0-0.1,0-0.2,0s-0.1,0-0.2,0
		c-0.6,0.1-1.8,0.2-3.7,0.4c-1.8,0.2-3,0.2-3.3,0c0.2-0.9,1.7-1.8,4.6-2.6c2.9-0.8,4.8-1.2,5.8-1.5c1.6-0.3,4.4-0.9,8.5-1.6
		c4.1-0.7,6.7-1.3,7.8-1.7L44.1,17.8z"/>
</g>
<g>
	<g>
		<path class="st2" d="M263.8,21.6c0,0.2,0,0.4,0,0.5s-0.1,0.3-0.1,0.3c-0.1,0.1-0.1,0.1-0.2,0.2c-0.1,0-0.2,0.1-0.3,0.1h-7v17
			c0,0.1,0,0.2-0.1,0.2C256,40,256,40,255.8,40c-0.1,0-0.3,0.1-0.5,0.1s-0.5,0-0.8,0s-0.6,0-0.8,0s-0.4-0.1-0.5-0.1
			s-0.2-0.1-0.3-0.1c-0.1-0.1-0.1-0.1-0.1-0.2v-17h-7c-0.1,0-0.2,0-0.3-0.1c-0.1,0-0.1-0.1-0.2-0.2c-0.1-0.1-0.1-0.2-0.1-0.3
			c0-0.1,0-0.3,0-0.5s0-0.4,0-0.5s0.1-0.3,0.1-0.4c0.1-0.1,0.1-0.2,0.2-0.2s0.2-0.1,0.3-0.1h17.3c0.1,0,0.2,0,0.3,0.1
			c0.1,0,0.2,0.1,0.2,0.2c0.1,0.1,0.1,0.2,0.1,0.4C263.8,21.2,263.8,21.4,263.8,21.6"/>
		<path class="st2" d="M255.3,41.1h-1.6c-0.3,0-0.5-0.1-0.6-0.1l0,0c-0.1,0-0.3-0.1-0.4-0.1h-0.2l-0.3-0.3c-0.2-0.2-0.4-0.5-0.4-0.9
			v-16h-6c-0.1,0-0.5,0-0.8-0.2c-0.2-0.1-0.3-0.2-0.5-0.4c-0.3-0.4-0.3-0.8-0.3-1v-1c0-0.2,0.1-0.4,0.1-0.5v-0.3l0.3-0.3
			c0.2-0.3,0.5-0.5,0.7-0.5c0.1-0.1,0.3-0.1,0.5-0.1h17.3c0.1,0,0.4,0,0.8,0.2c0.3,0.1,0.5,0.4,0.7,0.7c0.1,0.2,0.2,0.4,0.2,0.6
			c0.1,0.3,0.1,0.6,0.1,0.8v0.5c0,0.2-0.1,0.5-0.2,0.7l-0.1,0.1l-0.6,0.6h-0.2c-0.1,0.1-0.3,0.1-0.5,0.1h-6v16
			c0,0.6-0.3,0.9-0.6,1.1c-0.2,0.2-0.4,0.2-0.7,0.2C255.7,41,255.5,41.1,255.3,41.1z M253.2,41L253.2,41L253.2,41z M253.8,39.1h1.4
			V21.7h7.6v-0.1l-0.1-0.1v-0.1h-16.5v0.3h7.6L253.8,39.1L253.8,39.1z M256.1,38.9H256H256.1z M244.6,23.1L244.6,23.1L244.6,23.1z
			 M245.5,21.5L245.5,21.5L245.5,21.5z"/>
	</g>
	<g>
		<path class="st2" d="M286.4,26c-0.4-1.2-1.1-2.3-2-3.1c-0.9-0.8-2-1.5-3.4-1.9c-1.4-0.5-3-0.7-4.8-0.7c-1.9,0-3.6,0.2-5,0.7
			c-1.4,0.4-2.6,1.1-3.5,2s-1.6,1.9-2.1,3.2c-0.5,1.2-0.7,2.7-0.7,4.2c0,1.6,0.3,3.1,0.7,4.3c0.4,1.2,1.1,2.3,2,3.1s2,1.5,3.4,1.9
			c1.3,0.5,2.9,0.7,4.8,0.7s3.6-0.2,5-0.7s2.6-1.2,3.5-2.1c0.9-0.9,1.6-2,2.1-3.3s0.7-2.7,0.7-4.3C287.1,28.4,286.9,27,286.4,26z
			 M283.2,33.3c-0.3,0.9-0.7,1.8-1.3,2.5c-0.6,0.7-1.4,1.3-2.4,1.7c-0.9,0.4-2.2,0.6-3.6,0.6s-2.6-0.2-3.6-0.6
			c-1-0.4-1.7-0.9-2.3-1.6c-0.5-0.7-1-1.5-1.2-2.5c-0.3-1-0.4-2-0.4-3.2c0-1.1,0.1-2.1,0.4-3c0.3-1,0.7-1.8,1.3-2.5
			c0.6-0.7,1.4-1.3,2.4-1.7c1-0.4,2.2-0.6,3.6-0.6s2.6,0.2,3.6,0.6c0.9,0.3,1.7,0.9,2.3,1.6c0.5,0.7,1,1.5,1.2,2.5
			c0.3,1,0.4,2,0.4,3.1C283.6,31.3,283.5,32.3,283.2,33.3z"/>
		<path class="st2" d="M287.3,25.6c-0.5-1.3-1.3-2.6-2.3-3.5c-1.2-1-2.4-1.7-3.7-2.1c-1.4-0.5-3.1-0.8-5.1-0.8
			c-2.2,0-3.9,0.2-5.3,0.7c-1.5,0.4-2.9,1.2-3.9,2.3c-1.1,1.1-1.8,2.2-2.3,3.5c-0.5,1.2-0.8,2.8-0.8,4.6c0,2,0.4,3.6,0.8,4.6
			c0.5,1.4,1.3,2.6,2.3,3.5c1.2,1,2.4,1.7,3.7,2.1c1.3,0.5,3,0.8,5.2,0.8s3.9-0.2,5.3-0.8c1.6-0.6,2.9-1.4,3.9-2.3
			c1-1,1.8-2.2,2.3-3.6c0.5-1.4,0.8-2.8,0.8-4.7C288.1,28.1,287.8,26.7,287.3,25.6z M285.5,33.9c-0.4,1.2-1.1,2.2-1.9,3
			s-1.8,1.4-3.1,1.9c-1.2,0.4-2.7,0.6-4.7,0.6c-1.9,0-3.3-0.2-4.5-0.7c-1.1-0.3-2.1-0.9-3-1.7c-0.8-0.7-1.4-1.6-1.7-2.7
			c-0.3-0.9-0.6-2.3-0.6-4c0-1.5,0.2-2.8,0.6-3.8c0.4-1.1,1-2,1.9-2.9c0.8-0.8,1.9-1.4,3.1-1.8s2.7-0.6,4.7-0.6
			c1.8,0,3.3,0.2,4.5,0.7c1.1,0.3,2.1,0.9,3,1.7c0.8,0.7,1.4,1.6,1.7,2.7l0.1,0.1c0.4,0.8,0.6,2,0.6,3.6
			C286.1,31.6,285.9,32.8,285.5,33.9z"/>
		<path class="st2" d="M282.8,23.9c-0.8-0.9-1.7-1.6-2.7-1.9c-1.1-0.4-2.5-0.7-4-0.7s-2.9,0.2-4,0.7c-1.1,0.4-2,1.1-2.8,2
			c-0.7,0.8-1.1,1.7-1.5,2.8c-0.3,0.9-0.5,2-0.5,3.3c0,1.4,0.1,2.5,0.4,3.4c0.2,1.2,0.8,2.1,1.4,3c0.7,0.8,1.6,1.4,2.7,1.9
			c1.1,0.4,2.5,0.7,4,0.7c1.6,0,3-0.2,4-0.7c1.1-0.4,2-1.1,2.8-2c0.6-0.7,1.1-1.6,1.5-2.9c0.3-1,0.4-2.1,0.4-3.4s-0.1-2.4-0.4-3.3
			C283.9,25.7,283.4,24.8,282.8,23.9z M282.3,33c-0.3,1-0.7,1.7-1.1,2.2c-0.5,0.6-1.2,1.1-2,1.4c-0.7,0.3-1.9,0.5-3.2,0.5
			c-1.3,0-2.4-0.2-3.2-0.5c-0.8-0.3-1.4-0.7-1.9-1.3c-0.4-0.6-0.9-1.3-1.1-2.2c-0.3-0.8-0.4-1.7-0.4-2.9c0-1.1,0.1-2,0.4-2.7
			c0.3-0.9,0.6-1.6,1.1-2.1c0.5-0.6,1.2-1.1,2-1.4c0.9-0.4,2-0.5,3.2-0.5c1.3,0,2.4,0.2,3.3,0.5c0.7,0.2,1.3,0.7,1.8,1.2
			c0.4,0.6,0.9,1.3,1.1,2.2c0.2,0.8,0.4,1.7,0.4,2.8S282.5,32.2,282.3,33z"/>
	</g>
	<g>
		<path class="st2" d="M311.1,39c0,0.2,0,0.4-0.1,0.5s-0.2,0.3-0.3,0.3c-0.1,0.1-0.3,0.2-0.5,0.2s-0.3,0.1-0.5,0.1h-1.1
			c-0.3,0-0.6,0-0.9-0.1s-0.5-0.2-0.7-0.3s-0.5-0.3-0.7-0.6s-0.5-0.6-0.7-1L297.9,27c-0.4-0.6-0.8-1.2-1.2-1.8
			c-0.4-0.6-0.8-1.2-1.1-1.8l0,0c0,0.7,0,1.5,0.1,2.2c0,0.8,0,1.5,0,2.3v11.8c0,0.1,0,0.1-0.1,0.2c-0.1,0.1-0.1,0.1-0.3,0.2
			c-0.1,0-0.3,0.1-0.5,0.1s-0.5,0-0.8,0s-0.6,0-0.8,0c-0.2,0-0.4-0.1-0.5-0.1s-0.2-0.1-0.3-0.2c-0.1-0.1-0.1-0.1-0.1-0.2V21.6
			c0-0.4,0.1-0.7,0.4-0.9c0.3-0.2,0.6-0.3,1-0.3h1.6c0.4,0,0.7,0,1,0.1c0.3,0,0.5,0.1,0.7,0.3c0.2,0.1,0.4,0.3,0.6,0.5
			s0.4,0.5,0.6,0.8l5.8,8.6c0.4,0.5,0.7,1,1,1.5c0.3,0.5,0.7,1,1,1.5s0.6,1,0.9,1.4c0.3,0.5,0.6,0.9,0.9,1.4l0,0c0-0.8,0-1.6,0-2.5
			s0-1.7,0-2.5V20.9c0-0.1,0-0.1,0.1-0.2s0.1-0.1,0.3-0.2c0.1,0,0.3-0.1,0.5-0.1s0.5,0,0.8,0s0.6,0,0.8,0c0.2,0,0.4,0.1,0.5,0.1
			s0.2,0.1,0.3,0.2c0.1,0.1,0.1,0.1,0.1,0.2L311.1,39L311.1,39z"/>
		<path class="st2" d="M294.8,41.2h-1.6c-0.3,0-0.5-0.1-0.6-0.1l0,0c-0.4,0-0.7-0.3-0.9-0.5c-0.2-0.2-0.4-0.5-0.4-0.9V21.6
			c0-0.8,0.3-1.4,0.8-1.7c0.5-0.3,1-0.5,1.6-0.5h0.9v-0.2l0.1,0.2h0.6c0.4,0,0.8,0,1.2,0.1c0.4,0,0.8,0.2,1.1,0.5
			c0.3,0.2,0.5,0.4,0.7,0.6c0.3,0.3,0.5,0.6,0.7,1l5.8,8.6c0.4,0.5,0.7,1,1,1.5c0.1,0.2,0.3,0.5,0.5,0.7s0.3,0.5,0.5,0.7V20.9
			c0-0.4,0.2-0.7,0.4-0.9c0.2-0.2,0.3-0.3,0.6-0.4l0.2-0.1h0.1c0.2,0,0.4-0.1,0.6-0.1h1.6c0.3,0,0.5,0.1,0.6,0.1l0,0
			c0.4,0,0.7,0.3,0.9,0.5c0.2,0.2,0.4,0.5,0.4,0.9L312.1,39c0,0.3,0,0.8-0.4,1.2c-0.1,0.1-0.2,0.3-0.5,0.5s-0.6,0.3-1,0.3
			c-0.1,0-0.3,0.1-0.6,0.1h-1.1c-0.3,0-0.8,0-1.2-0.2c-0.3-0.1-0.6-0.2-0.8-0.3c-0.3-0.1-0.8-0.4-1.1-0.9c-0.1-0.1-0.1-0.2-0.2-0.3
			c-0.2-0.2-0.4-0.5-0.5-0.8l-8-11.6v12.7c0,0.4-0.2,0.7-0.4,0.9c-0.2,0.2-0.3,0.3-0.6,0.4l-0.2,0.1h-0.1
			C295.2,41.1,295,41.2,294.8,41.2z M292.7,41.1L292.7,41.1L292.7,41.1z M293.3,39.2h1.4V25.7c-0.1-0.7-0.1-1.6-0.1-2.3v-2h-0.9
			c-0.2,0-0.3,0-0.4,0.1c0,0,0,0,0,0.1V39.2z M292.7,39.1L292.7,39.1L292.7,39.1z M308.8,39.1h0.8c0.1,0,0.3-0.1,0.4-0.1l0,0
			l0.1-17.6h-1.4v17.7H308.8z M295.7,21.4l0.8,1.5c0.3,0.5,0.7,1.1,1,1.7l1.2,1.8l7.8,11.2c0.1,0.2,0.2,0.3,0.3,0.5
			c0.1,0.1,0.2,0.3,0.3,0.4c0.1,0.1,0.2,0.2,0.3,0.3c0.2,0.1,0.3,0.2,0.6,0.2c0,0,0.1,0,0.2,0l-1.2-2.1c-0.1-0.2-0.3-0.4-0.4-0.7
			c-0.1-0.2-0.3-0.4-0.4-0.7c-0.3-0.4-0.6-0.9-0.9-1.4c-0.1-0.2-0.3-0.5-0.5-0.7c-0.2-0.3-0.4-0.5-0.5-0.8c-0.3-0.5-0.6-0.9-0.9-1.4
			l-5.8-8.7c-0.2-0.2-0.3-0.5-0.5-0.7c-0.1-0.1-0.3-0.3-0.3-0.3l-0.3-0.2h-0.2l-0.1-0.1C295.9,21.4,295.8,21.4,295.7,21.4z
			 M310.3,38.8L310.3,38.8L310.3,38.8L310.3,38.8z M310.8,21.5L310.8,21.5L310.8,21.5z M310.8,19.5L310.8,19.5L310.8,19.5z"/>
	</g>
</g>
<path class="st2" d="M281.5,16.6h-11c-1.1,0-2.1-0.9-2.1-2.1l0,0c0-1.1,0.9-2.1,2.1-2.1h11c1.1,0,2.1,0.9,2.1,2.1l0,0
	C283.5,15.7,282.6,16.6,281.5,16.6z"/>
</svg>
