<svg id="Слой_1" data-name="Слой 1" xmlns="http://www.w3.org/2000/svg" width="50" height="50" viewBox="0 0 50 50">
  <defs>
    <style>
      .cls-1 {
        fill: red;
      }

      .cls-2 {
        fill: #fff;
      }
    </style>
  </defs>
  <title>youtube</title>
  <path class="cls-1" d="M49,13.72a6.26,6.26,0,0,0-4.41-4.41C40.65,8.24,25,8.24,25,8.24s-15.65,0-19.56,1A6.39,6.39,0,0,0,1,13.72c-1,3.91-1,12-1,12s0,8.15,1,12a6.27,6.27,0,0,0,4.41,4.41C9.39,43.25,25,43.25,25,43.25s15.65,0,19.56-1A6.26,6.26,0,0,0,49,37.81c1-3.91,1-12,1-12S50,17.63,49,13.72Z"/>
  <path class="cls-2" d="M20,34.24l13-7.5-13-7.5Z"/>
</svg>
