<?xml version="1.0" encoding="utf-8"?>
<!-- Generator: Adobe Illustrator 21.0.0, SVG Export Plug-In . SVG Version: 6.00 Build 0)  -->
<svg version="1.1" id="Слой_1" xmlns="http://www.w3.org/2000/svg" xmlns:xlink="http://www.w3.org/1999/xlink" x="0px" y="0px"
	 width="100px" height="100px" viewBox="0 0 100 100" style="enable-background:new 0 0 100 100;" xml:space="preserve">
<style type="text/css">
	.st0{fill:#FF6223;}
	.st1{fill:#FF7136;}
	.st2{fill:#FD8047;}
	.st3{fill:#FF8E5E;}
	.st4{enable-background:new    ;}
	.st5{fill:#BEBEBE;}
	.st6{clip-path:url(#SVGID_2_);enable-background:new    ;}
	.st7{fill:#C0C0C0;}
	.st8{clip-path:url(#SVGID_4_);enable-background:new    ;}
	.st9{fill:#F0F0F0;}
	.st10{clip-path:url(#SVGID_6_);enable-background:new    ;}
	.st11{fill:#FFFFFF;}
	.st12{fill-rule:evenodd;clip-rule:evenodd;fill:#B2B2B2;}
</style>
<g>
	<circle class="st0" cx="49.9" cy="50.6" r="29.3"/>
	<circle class="st1" cx="55" cy="50.6" r="24.1"/>
	<circle class="st2" cx="61.1" cy="50.6" r="18"/>
	<circle class="st3" cx="65.8" cy="50.6" r="13.2"/>
</g>
<g>
	<g>
		<g class="st4">
			<g>
				<polygon class="st5" points="35.6,45 34.9,45.2 28.5,45.2 29.3,44.9 				"/>
			</g>
			<g>
				<polygon class="st5" points="29.3,44.9 28.5,45.2 28.5,42 29.3,41.8 				"/>
			</g>
			<g>
				<polygon class="st5" points="41.2,58.3 40.4,58.6 27.9,58.6 28.8,58.2 				"/>
			</g>
			<g class="st4">
				<g>
					<g>
						<defs>
							<path id="SVGID_1_" d="M28.4,57.6l-0.7,0.2c2.4-4.2,4.8-8.4,7.2-12.6l0.7-0.2C33.2,49.1,30.8,53.3,28.4,57.6z"/>
						</defs>
						<clipPath id="SVGID_2_">
							<use xlink:href="#SVGID_1_"  style="overflow:visible;"/>
						</clipPath>
						<g class="st6">
							<path class="st7" d="M28.4,57.6l-0.7,0.2c2.4-4.2,4.8-8.4,7.2-12.6l0.7-0.2C33.2,49.1,30.8,53.3,28.4,57.6"/>
						</g>
					</g>
				</g>
			</g>
			<g class="st4">
				<g>
					<g>
						<defs>
							<path id="SVGID_3_" d="M28.8,58.2L28,58.5c-0.1-0.2-0.2-0.5-0.3-0.7l0.7-0.2C28.5,57.8,28.6,58.1,28.8,58.2z"/>
						</defs>
						<clipPath id="SVGID_4_">
							<use xlink:href="#SVGID_3_"  style="overflow:visible;"/>
						</clipPath>
						<g class="st8">
							<path class="st7" d="M28.8,58.2L28,58.5c-0.1-0.2-0.2-0.5-0.3-0.7l0.7-0.2C28.5,57.8,28.6,58.1,28.8,58.2"/>
						</g>
					</g>
				</g>
			</g>
			<g>
				<path class="st9" d="M41.1,41.8c0.1,0.2,0.2,0.4,0.3,0.7c-2.4,4.2-4.8,8.4-7.2,12.6h7v3.2H28.8c-0.1-0.2-0.2-0.5-0.3-0.7
					c2.4-4.2,4.8-8.4,7.2-12.6h-6.4v-3.2L41.1,41.8z"/>
			</g>
		</g>
		<g class="st4">
			<g>
				<polygon class="st5" points="55,45.1 54.2,45.3 47.4,45.3 48.1,45 				"/>
			</g>
			<g>
				<polygon class="st5" points="54.3,51.5 53.6,51.8 47.4,51.8 48.1,51.5 				"/>
			</g>
			<g>
				<polygon class="st5" points="55.2,58.4 54.5,58.6 42.9,58.6 43.7,58.3 				"/>
			</g>
			<g>
				<polygon class="st5" points="43.7,58.3 42.9,58.6 43,42.1 43.7,41.8 				"/>
			</g>
			<g>
				<polygon class="st9" points="55,41.8 55,45.1 48.1,45 48.1,48.5 54.3,48.5 54.3,51.5 48.1,51.5 48.1,55.2 55.2,55.2 55.2,58.4 
					43.7,58.3 43.7,41.8 				"/>
			</g>
		</g>
		<g class="st4">
			<g>
				<polygon class="st5" points="67.8,45.7 67,46 67.1,42.2 67.8,41.9 				"/>
			</g>
			<g class="st4">
				<g>
					<g>
						<defs>
							<path id="SVGID_5_" d="M68.4,52.2l-0.7,0.2c-0.3-2.1-0.6-4.9-0.6-6.5l0.7-0.2C67.8,47.2,68.1,50,68.4,52.2z"/>
						</defs>
						<clipPath id="SVGID_6_">
							<use xlink:href="#SVGID_5_"  style="overflow:visible;"/>
						</clipPath>
						<g class="st10">
							<path class="st7" d="M68.4,52.2l-0.7,0.2c-0.3-2.1-0.6-4.9-0.6-6.5l0.7-0.2C67.8,47.2,68.1,50,68.4,52.2"/>
						</g>
					</g>
				</g>
			</g>
			<g>
				<polygon class="st5" points="68.3,52.2 67.6,52.5 67.7,52.4 68.4,52.2 				"/>
			</g>
			<g>
				<polygon class="st5" points="72.1,58.4 71.4,58.7 67,58.6 67.7,58.4 				"/>
			</g>
			<g>
				<polygon class="st5" points="67.7,58.4 67,58.6 63.4,52.3 64.1,52 				"/>
			</g>
			<g>
				<polygon class="st5" points="64.1,52 63.4,52.3 61.4,48.2 62.2,48 				"/>
			</g>
			<g>
				<polygon class="st5" points="58.2,58.4 57.5,58.6 57.6,42.2 58.3,41.8 				"/>
			</g>
			<g>
				<polygon class="st5" points="62.6,58.4 61.9,58.6 57.5,58.6 58.2,58.4 				"/>
			</g>
			<g>
				<path class="st9" d="M72.1,41.9v16.5h-4.4L64.1,52l-2-4.1L62,48c0.3,2.1,0.6,5.1,0.6,7v3.3h-4.4V41.9h4.4l4.1,7.2
					c0.5,1.1,1,2.2,1.6,3.1l0.1-0.1c-0.3-2.1-0.6-4.9-0.6-6.5v-3.8H72.1z"/>
			</g>
		</g>
	</g>
</g>
<path class="st12" d="M97,43.4C93.3,20.4,73.6,2.8,49.8,2.8C26.1,2.8,6.3,20.4,2.7,43.4h-1C5.3,19.9,25.5,1.8,49.8,1.8
	c24.3,0,44.5,18,48.1,41.5H97z"/>
<path class="st12" d="M49.8,3.9c22.9,0,41.9,16.9,45.4,39H79.7c-3.3-13.6-15.5-23.6-29.9-23.6c-14.4,0-26.6,10.1-29.9,23.6H4.4
	C8,20.8,27,3.9,49.8,3.9z"/>
<path class="st12" d="M95.2,57.8c-3.6,22.1-22.6,39-45.4,39C27,96.8,8,79.9,4.4,57.8h15.5c3.3,13.6,15.5,23.6,29.9,23.6
	c14.4,0,26.6-10.1,29.9-23.6H95.2z"/>
<path class="st12" d="M49.8,97.8c23.7,0,43.4-17.6,47.1-40.5h1c-3.6,23.5-23.8,41.4-48.1,41.4c-24.2,0-44.4-18-48.1-41.4h1
	C6.4,80.3,26.1,97.8,49.8,97.8z"/>
<g>
	<path class="st11" d="M18,77.8c-0.7-0.9-0.9-1.8-0.6-2.8c0.3-1,0.8-1.8,1.7-2.4c0.9-0.7,1.8-1,2.8-0.9c1,0,1.8,0.5,2.5,1.5
		c0.7,0.9,0.9,1.9,0.6,2.8c-0.3,0.9-0.8,1.7-1.7,2.3c-0.9,0.7-1.8,1-2.8,0.9C19.5,79.2,18.7,78.8,18,77.8z M23.1,74
		c-0.6-0.8-1.6-0.7-2.9,0.3c-1.3,1-1.7,1.9-1.1,2.7c0.6,0.8,1.5,0.7,2.9-0.3C23.4,75.7,23.7,74.8,23.1,74z"/>
	<path class="st11" d="M22.7,83.1l4.7-6l4.4,3.4L31,81.6l-2.9-2.3l-1,1.3l1.1,0.9c0.6,0.4,1,0.9,1.2,1.2c0.3,0.4,0.4,0.8,0.4,1.2
		c0,0.4-0.2,0.9-0.5,1.3c-0.5,0.6-1,0.9-1.6,0.9c-0.6,0-1.3-0.2-2-0.8L22.7,83.1z M25.1,83.1l1.2,0.9c0.3,0.2,0.5,0.3,0.8,0.3
		s0.5-0.1,0.6-0.3c0.4-0.5,0.2-1-0.4-1.5l-1.1-0.8L25.1,83.1z"/>
	<path class="st11" d="M34,83.6l-1.8-0.8l0.6-1.4l3.5,1.5l-1.1,2.6l1.3,0.6c0.7,0.3,1.3,0.6,1.6,1c0.3,0.3,0.5,0.7,0.6,1.1
		c0.1,0.4,0,0.9-0.2,1.4c-0.3,0.6-0.7,1.1-1.4,1.3c-0.6,0.2-1.4,0.2-2.3-0.2l-3.2-1.4L34,83.6z M33.9,88.6l1.3,0.6
		c0.7,0.3,1.2,0.2,1.5-0.4c0.3-0.6,0-1.1-0.6-1.4l-1.3-0.6L33.9,88.6z"/>
	<path class="st11" d="M47.5,87.5l-3.9-0.7l-0.3,1.5l3.1,0.5l-0.2,1.4l-3.1-0.5l-0.3,1.6l3.9,0.7l-0.3,1.5l-5.8-1l1.3-7.5l5.8,1
		L47.5,87.5z"/>
	<path class="st11" d="M53.5,93.5l-2.6-6l0.6,6.2l-1.6,0.2l-0.7-7.6l3-0.3l1.9,4.4l1.1-4.7l3-0.3l0.7,7.6l-1.9,0.2L56.3,87l-1.5,6.4
		L53.5,93.5z"/>
	<path class="st11" d="M65.8,82.3l2.9,7.1l-1.8,0.7l-1.2-2.9l-2.4,1l1.2,2.9l-1.8,0.7l-2.9-7l1.8-0.7l1.1,2.7l2.4-1L64,83.1
		L65.8,82.3z"/>
	<path class="st11" d="M70.7,78.9l6.7,4.5l-1.7,1.3l-1.4-0.9l-2.1,1.6l0.5,1.6l-1.4,1l-2.5-7.7L70.7,78.9z M71.7,83.9l1.4-1.1
		l-2.3-1.6L71.7,83.9z"/>
	<path class="st11" d="M79.9,75.5l-1,1.3l1.6,2.9l-1.2,1.7L77.7,78c-0.9,0.5-1.7,0.5-2.4,0c-0.5-0.3-0.8-0.8-0.9-1.4
		c-0.1-0.6,0.2-1.4,0.8-2.4l2.2-2.9l6.1,4.5l-1.2,1.6L79.9,75.5z M77.3,73.6l-0.7,0.9c-0.3,0.4-0.4,0.6-0.5,0.8
		c-0.1,0.2-0.1,0.3,0,0.5s0.2,0.4,0.3,0.5c0.2,0.1,0.4,0.2,0.6,0.2c0.2,0,0.4-0.1,0.5-0.2c0.1-0.1,0.3-0.3,0.5-0.6l0.7-1L77.3,73.6z
		"/>
</g>
<g>
	<path class="st11" d="M22.5,27.7l-5.7-3.1l4.4,4.4l-1,1l-5.3-5.4l1.9-1.9l4.1,2.3l-2.2-4.2l2-1.9l5.3,5.4l-1.3,1.2l-4.4-4.4l3,5.7
		L22.5,27.7z"/>
	<path class="st11" d="M28.7,15.2l-3,1.9l0.8,1.3l2.4-1.5l0.8,1.2l-2.4,1.5l0.9,1.4l3-1.9l0.8,1.3l-4.5,2.9l-4.1-6.4l4.5-2.9
		L28.7,15.2z"/>
	<path class="st11" d="M32.7,18.4l-0.9-6.3l2.5-1l3.7,5.2l0.7-0.3l1.1,2.8l-1.1,0.4L38,17.8l-4.3,1.7l0.4,1.6l-1,0.4L32,18.7
		L32.7,18.4z M34.1,17.9l2.2-0.9l-2.7-4l-0.3,0.1L34.1,17.9z"/>
	<path class="st11" d="M41.8,16.1l0.1,0.7l-1.7,0.3l-1.3-7.5l1.7-0.3l0.6,3.2c0.1,0.5,0.2,1.1,0.2,1.7c0.2-0.7,0.3-1.3,0.5-1.7
		l1.3-2.8l-0.1-0.8l1.7-0.3l1.3,7.5l-1.7,0.3L43.9,13c-0.1-0.6-0.2-1-0.2-1.4c-0.1,0.6-0.3,1.2-0.6,1.7L41.8,16.1z"/>
	<path class="st11" d="M52.9,8.4l0,1.5l-1.9,0L51,16l-1.8,0l0.1-6.1l-1.9,0l0-1.5L52.9,8.4z"/>
	<path class="st11" d="M58.6,9.3l1,7.9l-1.9-0.3l-0.2-1.6l-2.4-0.4l-0.7,1.5L52.9,16l3.7-7.1L58.6,9.3z M55.8,13.5l1.6,0.3L57.1,11
		L55.8,13.5z"/>
	<path class="st11" d="M60.8,17.6l2.8-7.1l1.6,0.6l-2.3,5.7l2,0.8l2.3-5.7l1.6,0.6l-2.3,5.7l0.9,0.3l-1.2,2.9l-1.1-0.4l0.5-1.5
		L60.8,17.6z"/>
	<path class="st11" d="M69.7,20.9l-0.4,0.6l-1.4-1l4.2-6.3l1.4,1l-1.8,2.7c-0.3,0.5-0.6,0.9-1,1.4c0.6-0.4,1.1-0.7,1.6-0.8l2.9-1.2
		l0.4-0.7l1.4,1L72.8,24l-1.4-1l1.9-2.9c0.3-0.5,0.6-0.9,0.8-1.2c-0.5,0.3-1,0.6-1.6,0.8L69.7,20.9z"/>
	<path class="st11" d="M79.3,26l-1-1.1l-3,1.2l-1.3-1.3l3.5-1.2c-0.3-0.9-0.2-1.7,0.5-2.3c0.4-0.4,0.9-0.6,1.5-0.7
		c0.6-0.1,1.3,0.3,2,1l2.3,2.4l-5.4,5.3l-1.2-1.3L79.3,26z M81.6,23.7L80.9,23c-0.3-0.3-0.5-0.5-0.6-0.6c-0.1-0.1-0.3-0.1-0.5-0.1
		c-0.2,0-0.4,0.1-0.5,0.3c-0.2,0.2-0.3,0.3-0.3,0.6c0,0.2,0,0.4,0.1,0.5s0.2,0.3,0.5,0.6l0.8,0.8L81.6,23.7z"/>
</g>
</svg>
