<svg id="Слой_1" data-name="Слой 1" xmlns="http://www.w3.org/2000/svg" width="100" height="60" viewBox="0 0 100 60">
  <defs>
    <style>
      .cls-1 {
        font-size: 18.39px;
        fill: #8e8e82;
        font-family: BritannicBold, Britannic Bold;
      }

      .cls-2 {
        opacity: 0.92;
      }

      .cls-3 {
        font-size: 9.09px;
        fill: #93340a;
        font-family: TrajanPro3-Bold, Trajan Pro 3;
        font-weight: 700;
      }

      .cls-4 {
        letter-spacing: -0.06em;
      }

      .cls-5 {
        letter-spacing: -0.05em;
      }

      .cls-6 {
        letter-spacing: -0.02em;
      }

      .cls-7 {
        letter-spacing: -0.02em;
      }

      .cls-8 {
        letter-spacing: 0.04em;
      }

      .cls-9 {
        letter-spacing: 0.04em;
      }

      .cls-10 {
        letter-spacing: -0.02em;
      }

      .cls-11 {
        letter-spacing: 0.02em;
      }

      .cls-12 {
        letter-spacing: -0.01em;
      }

      .cls-13 {
        letter-spacing: -0.04em;
      }

      .cls-14 {
        letter-spacing: -0.01em;
      }

      .cls-15 {
        letter-spacing: 0em;
      }
    </style>
  </defs>
  <title>zen_gm-02</title>
  <g>
    <text class="cls-1" transform="translate(8.17 31.18)">ZEN</text>
    <g class="cls-2">
      <path d="M22.37,7.91c.24,0,.13.18.43.15-.1-.11.14-.1.18-.16S22.51,7.8,22.37,7.91Zm8.42,1.34c.09,0,.21,0,.33.13s.24.17.33.14c.06.14,0,.11-.2,0L31,9.39ZM25.27,7.8c.05-.08.21-.11.39-.1a3.63,3.63,0,0,1,.59.11h-1ZM5.87,33.3c-.07-.13,0,0-.05,0a3.24,3.24,0,0,1-.28-.91c0,.09.16.35.26.6l.14.34a.87.87,0,0,1,.07.21c.05.1.07.06.09.07l.15.36c0,.11.11.22.16.32s.2.41.32.61a2.07,2.07,0,0,1-.43-.68c-.08-.15-.14-.3-.19-.42A.75.75,0,0,0,6,33.57.86.86,0,0,1,5.87,33.3Zm.87,1.61s.19.28.27.4,0,.07,0,.2A4.68,4.68,0,0,1,6.74,34.91Zm24.6,7.56a6.42,6.42,0,0,1,.75-.41A2.58,2.58,0,0,1,31.34,42.47ZM8,37a1.68,1.68,0,0,1,.25.29l.32.38s-.05,0,0,.1c-.09,0-.12-.17-.25-.3.11.07.05,0,0-.1A2.07,2.07,0,0,1,8,37Zm28.49,2c.14-.23.31-.3.51-.56.09,0-.14.27.07.08C36.94,38.64,36.67,38.71,36.46,38.95ZM7.1,35.9c-.1-.05-.18-.32-.37-.57a.58.58,0,0,1,.18.23l.1.18Zm-.69-1c0-.08,0-.07,0-.1s-.12-.17-.21-.33S6.64,35.27,6.41,34.94Zm2,2.77a2.72,2.72,0,0,1,.26.27l.19.22s0,0,0,0L8.66,38ZM10,39.32c-.16-.1-.42-.43-.57-.53C9.15,38.5,9.92,39.25,10,39.32Zm.65.58s.11.06.19.14l.19.17c-.05,0-.1,0-.12,0S10.75,40,10.6,39.9Zm26.2-1.13.33-.34c.13,0-.18.24-.3.38ZM3.77,26.3h0a1.94,1.94,0,0,1,0-.22c0-.06,0-.1,0-.17A1.25,1.25,0,0,1,3.77,26.3ZM33.35,41.64a3.83,3.83,0,0,1-.73.46,1.25,1.25,0,0,1,.32-.24A2.37,2.37,0,0,1,33.35,41.64ZM5.11,32.51a2.7,2.7,0,0,1,.24.54c-.14-.18-.11-.12-.1,0a2.77,2.77,0,0,0-.14-.37C5.28,32.88,5.21,32.85,5.11,32.51ZM10.7,9.79l-.23.2,0,0C10.57,9.86,10.75,9.7,10.7,9.79Zm-7,13.73s0-.16,0-.33,0-.32.07-.27a2.31,2.31,0,0,1,0,.25ZM3.6,24.71a1.32,1.32,0,0,1,0-.48,2.7,2.7,0,0,1,.08-.51,4.38,4.38,0,0,1,0,.47C3.63,24.32,3.61,24.47,3.6,24.71ZM36.41,39.51l-.27.22-.15.13-.17.15a1.33,1.33,0,0,1,.26-.29A.77.77,0,0,1,36.41,39.51ZM4.4,19.42c0,.05,0,0,0-.06s.07-.21.12-.37l.17-.51c.06-.18.13-.34.18-.48a3.47,3.47,0,0,1-.11.35c0,.13-.09.28-.14.42S4.42,19.3,4.4,19.42Zm3.05-6.26c.15-.18.17-.2.44-.54C8,12.48,7.4,13.34,7.45,13.16Zm-3.66,9c0-.08,0-.08-.07,0s.14-.67.06-.19C3.83,21.79,3.84,21.86,3.79,22.13Zm.87,9.37c0,.13.09.25.13.37-.09-.13-.11-.19-.12-.08C4.63,31.64,4.6,31.47,4.66,31.51ZM3.74,28a2.87,2.87,0,0,1,.09.59c0,.09-.09-.39-.13-.59C3.71,27.94,3.76,28.13,3.74,28Zm.08-6.75A6.87,6.87,0,0,1,4,20.52,2.8,2.8,0,0,1,3.82,21.2Zm0,.09a8,8,0,0,1-.13.8c0,.18-.05.33-.06.36a2.2,2.2,0,0,1,0-.38Zm.07,7.93c.07.27,0,.25.09.49a1.33,1.33,0,0,1-.08-.29s0,0,0,.1C3.8,29.42,3.83,29.21,3.86,29.23ZM3.39,25c0-.17,0,0,0,.12a1.43,1.43,0,0,1,0,.37,3.11,3.11,0,0,1,0-.32c0-.13,0-.27,0-.41s0-.31,0-.47,0-.33,0-.49a2.17,2.17,0,0,1,0,.49C3.4,24.49,3.39,24.76,3.39,25Zm.58,5c0,.05-.1-.17-.14-.09,0-.24-.1-.51,0-.49C3.89,30,3.82,29.34,4,29.92ZM3.36,22.4c0-.37,0,.06-.1,0,0-.25.05-.21.09-.5,0,.23,0,.18.12-.17,0-.1,0,0,0,.21l-.06.28Zm0,.1a2.54,2.54,0,0,1-.09.6s0-.2,0-.21C3.26,22.57,3.3,22.87,3.33,22.5ZM19.22,5.68a1.07,1.07,0,0,0-.3,0c-.07-.12.23-.18.37-.27s.11.06.31,0C19.51,5.53,19.24,5.58,19.22,5.68ZM8,38.33a3,3,0,0,1-.45-.54C7.64,37.82,7.77,38.1,8,38.33ZM3.42,28.95c.07.16.18.85.06.5A1.63,1.63,0,0,0,3.42,28.95Zm3.4,8c-.1-.1,0,0,0,.12s.13.23,0,.18l-.11-.15-.1-.15-.19-.31a2.63,2.63,0,0,1-.25-.53l.25.37C6.58,36.58,6.68,36.73,6.82,36.91ZM3.27,22.06a9.05,9.05,0,0,0-.16.9A2.87,2.87,0,0,1,3.27,22.06ZM2.87,26.3c.06.12,0,0,.09,0C3,26.81,2.9,26.77,2.87,26.3Zm.23,2.55a.66.66,0,0,1,0-.41s-.13-.5-.1-.21c-.12-.29.06,0,0-.41h.08c0,.23,0,.38.05.5s0,.19,0,.24S3.11,28.71,3.1,28.85ZM18.82,5.07a3.56,3.56,0,0,0-.41.06A.41.41,0,0,1,18.59,5l.31-.1C18.74,5,19,5,18.82,5.07ZM2.94,23a4.45,4.45,0,0,1-.05.62A1.55,1.55,0,0,1,2.94,23Zm1,9c0,.14.17.5.11.5a7.78,7.78,0,0,1-.27-.88.77.77,0,0,1,.09.3C3.91,32,3.92,32,3.95,32Zm-1.3-5.76,0-.15V26l0-.32a8.41,8.41,0,0,0,.06-.85c0-.36,0-.74,0-1a.79.79,0,0,0,.07-.36l0-.32c0-.11,0-.23.06-.34A28.61,28.61,0,0,0,2.65,26.27Zm.59-6.19c0,.21-.13.44-.16.38C3.16,20.08,3.18,20.31,3.24,20.08ZM2.79,22c0,.22,0,.27-.07.41s0-.3,0-.32S2.76,22,2.79,22Zm-.14.82a5.51,5.51,0,0,1-.1.72.87.87,0,0,1,0-.43A2.84,2.84,0,0,1,2.64,22.81Zm.19,6.45c0-.15,0-.44-.09-.52,0-.24,0-.05.08.16S2.9,29.38,2.83,29.27Zm-.35-6.39c0,.16,0,.37-.06.59l-.07.7a5.84,5.84,0,0,1-.12,1A13.93,13.93,0,0,1,2.4,23.6c0-.11,0-.08,0-.22A2.73,2.73,0,0,1,2.49,22.88ZM17,4.1a3.82,3.82,0,0,1,.7-.36l.45-.17a5.26,5.26,0,0,1,.54-.14l-.39.15-.42.17-.44.17L17.22,4ZM2.4,28.33a5.76,5.76,0,0,1-.1-.76c0-.14,0-.27,0-.38a.74.74,0,0,1,0-.23c0,.17,0,.41,0,.65l0,.37v.18Zm-.2-2.11c0,.31,0,.39,0,.53,0,.31,0-.14-.08,0C2.14,26.45,2.13,26.15,2.2,26.22Zm-.29.6c0-.28,0-.6,0-.75s0-.1,0-.05,0,.16,0,.29S1.94,26.84,1.91,26.82Zm.17,1.82c0,.25.07.5,0,.43S2,28.59,2.08,28.64ZM7.41,40.07l.22.24.23.24c0,.06-.07,0-.18-.12s-.22-.26-.3-.34ZM1.77,25.19a10,10,0,0,1,0,1.08c-.05-.33,0-.6,0-1C1.76,25.31,1.77,25.27,1.77,25.19Zm1.41,8.07a4.1,4.1,0,0,1,.15.41c0-.07-.08-.1-.11-.09-.1-.24-.06-.22-.18-.51C3.09,33.11,3.14,33.21,3.19,33.26Zm-1-3.12c.08.27,0,.14,0,.22a9,9,0,0,0,.25,1c.07.23.09.36,0,.45a1.49,1.49,0,0,0,.08.32,5.07,5.07,0,0,1-.23-.85,9.05,9.05,0,0,0-.19-1c0-.05.06-.17,0-.65C2.14,29.67,2.19,30.11,2.23,30.14Zm3.7,8.54a1.43,1.43,0,0,0,.16.25l.21.29c.17.2.12,0,.34.31-.23-.17,0,.11.15.29a2.72,2.72,0,0,1-.48-.55L6,38.86l-.31-.42c0-.08,0-.08-.08-.2.12,0,.38.36.21,0a3.23,3.23,0,0,0,.24.36c-.1,0,0,.24.36.67A4,4,0,0,1,5.94,38.68ZM8,41c.22.24-.11-.05-.06,0a5.22,5.22,0,0,0-.46-.47,2.12,2.12,0,0,1-.35-.43,2.43,2.43,0,0,1,.42.41A4.84,4.84,0,0,0,8,41Zm-3.21-4a3.18,3.18,0,0,0,.27.44c.11.16.24.34.38.58l-.08,0c-.15-.24-.28-.45-.38-.63l-.12-.24A1.34,1.34,0,0,1,4.81,36.93Zm31.27,7.12a14.42,14.42,0,0,1-1.37.8l.77-.52C35.73,44.16,36,44,36.07,44.05Zm-25.14-.42a7.93,7.93,0,0,1,.73.46l.87.54a8.53,8.53,0,0,1-.76-.44C11.48,44,11.18,43.8,10.93,43.64ZM32,46.07c.35-.19.48-.11.53-.19.31-.09-.15.15-.4.24C32.08,46.14,32,46.12,32,46.07Zm-2.24.78c.32-.1.34,0,.66-.14-.21.1-.23.19-.18.27a3.84,3.84,0,0,0,.53-.21c-.21,0,.28-.21-.15-.15a.91.91,0,0,0,.31-.13c.39-.1-.4.41.38.12a9,9,0,0,0-.94.51c.18-.14-.3-.12-.59-.1C30.2,46.84,29.85,46.94,29.81,46.85Zm-6.11.89c-.39.05-.35.08-.25.18-.43-.07-.25-.13-.65-.22a2.5,2.5,0,0,1,.47,0Zm-11.12-3c-.17,0-.39-.24-.67-.41C12.1,44.37,12.14,44.53,12.57,44.76ZM32.73,46a1.87,1.87,0,0,0-.56.29,1.85,1.85,0,0,1-.68.3c0-.06.19-.14-.13-.06a2.09,2.09,0,0,1,.42-.18c-.11.08-.11.11,0,.09S32.61,45.9,32.73,46ZM1.44,26c0,.05,0,.54,0,.77,0-.07,0-.25-.06-.23a1.71,1.71,0,0,1,0-.22A3.24,3.24,0,0,0,1.44,26ZM42.85,11.58a2.26,2.26,0,0,0,.41.64c.07.08.15.17.24.29a4.66,4.66,0,0,1,.29.47c-.06,0-.13-.1-.23-.28-.07.13.28.49.3.65a4.93,4.93,0,0,1-.64-.91A2,2,0,0,1,42.85,11.58ZM2.94,33.87c-.07-.11-.16-.28-.23-.4s0-.15,0-.05A2.89,2.89,0,0,1,2.94,33.87ZM23.33,48c.65,0,2-.1,2.5,0-.3,0-.43.06-.8.08,0,0,.19,0,.45,0,0,.07-.39.07-.69.08.21-.09-.06-.11-.43-.1A9.35,9.35,0,0,1,23.33,48Zm13.9-4.2-.41.35-.51.36c-.19.12-.38.25-.59.37l-.64.36c-.22.13-.45.23-.68.34l-.34.16-.35.15c-.46.19-.91.38-1.33.53.76-.35,1.57-.78,2.4-1.21S36.43,44.27,37.23,43.78ZM2.25,32c0,.18.17.63.08.55A1.34,1.34,0,0,1,2.25,32ZM19.59,47.64c.16,0,.27.09.44.12-.07,0-.13,0-.13,0C19.71,47.75,19.52,47.69,19.59,47.64Zm-11-5.28c-.14-.14-.16-.2-.11-.2.26.27.29.23.3.18.1.12.16.25,0,.15C8.47,42.2,8.59,42.27,8.58,42.36ZM3,34.31a2.55,2.55,0,0,0,.1.32l.12.31c.07.21-.15-.16,0,.23a7.44,7.44,0,0,1,.5,1,5.48,5.48,0,0,1-.4-.75A2.9,2.9,0,0,0,3,34.77a1.75,1.75,0,0,0-.07-.22.84.84,0,0,1,0-.21,3.38,3.38,0,0,1-.23-.47l-.12-.31a2.66,2.66,0,0,1-.07-.26c0,.06.1.24.12.2a10.74,10.74,0,0,0,.4,1C3.08,34.64,2.91,34.27,3,34.31Zm40.28,3.26a2.5,2.5,0,0,1-.4.7c-.11.15-.22.31-.33.45l-.31.41a2.27,2.27,0,0,1,.19-.34l.26-.37C42.86,38.15,43.07,37.87,43.27,37.57Zm3.85-12.81c-.09.12-.11-2.39,0-.71A4.06,4.06,0,0,1,47.12,24.76ZM15,46.37a3.57,3.57,0,0,1,.41.2l-.25,0C15,46.47,15,46.42,15,46.37Zm-3.33-1.7a7.81,7.81,0,0,1,.78.46C12.3,45.13,11.94,44.84,11.66,44.67Zm-10.51-19c0-.63,0-.58,0-1.11,0,.09,0,.35,0,.6A1.44,1.44,0,0,1,1.15,25.63Zm4.14,13c.05.12.25.39.2.4-.27-.4-.53-.73-.31-.34C5,38.57,5,38.51,5,38.45a.67.67,0,0,0-.16-.33C5,38.26,5.12,38.51,5.29,38.65ZM4.82,38c0,.14-.21-.3-.19-.16-.12-.19-.23-.34-.3-.48L4.13,37,4,36.69l-.09-.19-.1-.22C4.16,36.92,4.43,37.4,4.82,38ZM8,41.94a2.48,2.48,0,0,1-.55-.57c.09.07.24.21.36.32S8,41.91,8,41.94ZM2,31.8c.07.25.14.5.22.75,0,.1-.17-.5-.26-.75ZM1.2,27.52c0,.29,0,.28,0,.33,0-.22,0-.45-.06-.67a2.28,2.28,0,0,1,0,.34Zm.27,2.21c0,.16.12.52.18.81s.09.51,0,.4-.05-.34-.08-.54S1.52,30,1.48,29.73Zm-.39-3.11a2.67,2.67,0,0,1,0-.56s0,.11,0,.12c0-.22,0-.35,0-.34a3.75,3.75,0,0,1,0-.44A10.74,10.74,0,0,1,1.09,26.62ZM15.2,46.68s.13,0,.26.09l.39.15s-.15,0-.29-.06A1.94,1.94,0,0,1,15.2,46.68Zm1.9,1.08a2.9,2.9,0,0,1,.5.13l.63.17L17.81,48l-.25-.05-.25-.06C17.37,47.85,17.24,47.81,17.11,47.76Zm-3.25-1.28c.17.12.32.13.52.27a3.17,3.17,0,0,1-.55-.22ZM11.3,45.1a3.61,3.61,0,0,1-.49-.3l-.48-.34.49.3Zm.49.31a2.25,2.25,0,0,1,.4.22l.52.29A3.12,3.12,0,0,1,11.79,45.41ZM8.6,43.09s-.33-.22-.55-.44C8.1,42.63,8.36,42.9,8.6,43.09ZM29.19,8c.18.14-.2-.09-.27-.05s.08.22.24.32l.25.15a1.51,1.51,0,0,1,.21.17c.18-.1-.29-.19-.17-.29a1.21,1.21,0,0,0,.66.28c0,.08-.07.11-.16.13a.42.42,0,0,0,.2.17A1.68,1.68,0,0,0,30.5,9L30.23,9,30,8.9l-.45-.16-.2-.09-.2-.08-.39-.18c-.13-.06-.26-.13-.4-.18l-.44-.16a4.65,4.65,0,0,0-1.09-.23c0-.1-.15-.16-.44-.2s-.66-.1-1-.18a2.87,2.87,0,0,1-.47-.16l-.33-.14a1.29,1.29,0,0,0-.35-.08,1.81,1.81,0,0,0-.54,0,.48.48,0,0,0-.19.11,3.09,3.09,0,0,1,1.33.25c-.1,0-.16,0-.18,0a2.16,2.16,0,0,0-.34-.16,1.13,1.13,0,0,1-.36,0c-.24,0,.07.2-.28.15-.07.13.3.08.43.15-.07.05-.15,0-.26,0a1,1,0,0,0-.36,0c-.08-.09-.05-.2.2-.26a1.84,1.84,0,0,0-1.16-.07V7.21c-.31,0-.62.11-.27.24,0-.16.14-.14.33-.08l.34.09a1.61,1.61,0,0,0,.4.05c-.16.09.22.2.34.29,0,.05-.08,0-.18,0,.06.13.23.19.51.14,0,0,0,.07-.11.08l-.25,0c0-.12-.26-.11-.51-.06,0-.07-.09-.14-.23-.17a.75.75,0,0,0-.37,0c-.17,0,.14-.11-.26-.06.19-.08.18-.23.62-.22,0-.07-.39,0-.35-.09-.28,0-.2.12-.53.11.19-.1,0-.14-.27-.08a.13.13,0,0,0,0-.22c0-.06.51-.12.36,0,.18,0,.18-.11.36-.13-.29,0-.45-.09-.09-.21a1.28,1.28,0,0,0-.64.28.59.59,0,0,0-.46.07,1,1,0,0,1-.44.16c-.1-.11.12-.15.35-.17-.23-.07.08-.19.17-.28s-.13,0-.21,0-.16.11-.15.15c-.13-.13,0-.06-.46,0-.06-.11.23-.14.26-.23.18,0,.08.05.37,0-.06-.1-.63,0-.38-.17-.07,0-.25.06-.27.12s0-.05-.11,0l-.16,0-.28.06c0-.08.52-.27,0-.15.08-.27.48-.26,1-.32-.07,0,0-.26-.12-.39-.12.08-.54.1-.66.18s.46-.14.56-.2a1.6,1.6,0,0,0-.45,0,2.13,2.13,0,0,0-.44.12c-.29.11-.59.23-.91.33.43-.21.43-.26.82-.44-.27,0-.22-.1,0-.2a1.18,1.18,0,0,1,.7-.14c-.23-.15-.53-.05-.88.13-.17.09-.36.18-.57.26a2.47,2.47,0,0,1-.66.21,3.12,3.12,0,0,1,1-.48c-.07,0-.23,0-.21-.07.41-.11.7-.11,1.27-.27.14-.2,0-.33-.31-.37h-.26l-.3,0a3.39,3.39,0,0,0-.67.21c0-.07-.14-.05-.12-.13a1.1,1.1,0,0,0,.62,0,.43.43,0,0,1,.13-.63,13.9,13.9,0,0,0-2,.7,1.74,1.74,0,0,1,.67-.41c.15-.06.32-.12.54-.18l.79-.19c.26-.11.13-.18.39-.33a.34.34,0,0,0-.22,0c-.16.05,0,0,.11,0a2.79,2.79,0,0,1-.62.24,4.34,4.34,0,0,1-.73.15,2,2,0,0,1-.75.34,1.9,1.9,0,0,0-.73.37c-.14,0-.21,0-.24-.08.28-.12.54-.25.78-.38l.72-.35.36-.17.37-.15c.25-.1.51-.21.8-.29-.13-.07-.32,0-.55.06L18.69,4a4,4,0,0,1-.45.09L18.57,4l.32-.13.62-.24c.4-.13.79-.27,1.17-.38L21.25,3c.19,0,.38-.11.57-.14l.59-.12c.2,0,.41-.09.63-.11,0,0-.2,0-.34,0a8.89,8.89,0,0,1,1.14-.09,2.63,2.63,0,0,0-.6,0,4.13,4.13,0,0,0-.65.07,2.56,2.56,0,0,1,1-.16h.82l.82,0c.24,0,.25,0,.11,0l-.42,0h-.38a2.55,2.55,0,0,0-.59,0,1.09,1.09,0,0,0,.57,0c.21,0,.23.06.45.07a1.87,1.87,0,0,1-.64.15l-.44,0-.49,0-.52,0-.51.05L21.89,3l-.22,0-.21,0s.14,0,.22,0a5.56,5.56,0,0,0-.58.1l-.35.07-.39.07s.11,0,.21,0,.2,0,.12.06l1.14-.16.59-.07.6-.07L23.61,3,24.19,3l1.09-.08c0-.12.36-.18.76-.21l.31,0h.31a4.92,4.92,0,0,0,.54,0,2.49,2.49,0,0,0-.69-.11,2.77,2.77,0,0,1-.79-.12,1.93,1.93,0,0,1,.68-.15,5.41,5.41,0,0,1,1.22.16c-.05,0-.22,0-.26.06s.22.06.21.11a2.7,2.7,0,0,1,.83,0,2.82,2.82,0,0,0-.78-.25,1.48,1.48,0,0,1,.9.25c.26,0,.54.06.85.11a9.83,9.83,0,0,1,1,.19l-.33-.12-.36-.11-.8-.23L28,2.21l-.46-.11L27.11,2a22.78,22.78,0,0,1,4.57,1.21l.53.2.26.1.25.11.94.4.82.38.37.16.33.15s-.06,0-.12,0c-.25-.09,0,.11-.2.08l.86.56,1,.7c.32.25.63.5.94.73s.58.46.84.64a4.89,4.89,0,0,0,.72.74l.24.21.22.2.35.29s-.18-.15-.21-.13l.43.49.56.66c.21.23.4.48.6.71l.54.62c0,.08.13.23.05.24a4.85,4.85,0,0,1,.45.56l.48.71c.16.24.31.49.46.69l.22.28a1.88,1.88,0,0,0,.21.21c-.27-.16.17.54.37.86.09,0-.26-.47-.07-.35l.17.28c.07.11.14.22.2.3s.18.18,0-.23c.19.22.31.74.08.47,0,.1.07.07.11.09.19.48-.23-.12-.16.18s.09,0,.24.16c.13.41.19.72.31,1.12.06,0,.16.22.27.54l.18.51a3.41,3.41,0,0,0,.18.46c-.07-.18-.16-.57-.28-1-.06-.19-.12-.38-.19-.55a1.52,1.52,0,0,0-.2-.37c-.09-.19.11,0,.18.19,0,0-.12-.47.06,0a3.29,3.29,0,0,1-.21-.64l-.08-.33a3.91,3.91,0,0,0-.12-.38c0-.11.16.19.22.17a3.84,3.84,0,0,0-.35-.63c.24.67-.25-.36-.48-.7s.17.23.17.06-.29-.39-.39-.48.13-.07-.14-.45a2.61,2.61,0,0,1,.25.31l.26.42.29.51.29.59c.2.41.38.88.58,1.35.1.23.18.48.27.72s.19.49.27.73c-.29-.42.1.55,0,.49-.19-.53-.17-.6-.38-1.12-.05,0,0,.31.06.47a3.28,3.28,0,0,1,.25.69c0,.12.07.23.1.34a2.32,2.32,0,0,0,.12.31,2.16,2.16,0,0,0,0-.36c0-.13,0-.18.07.12a2.82,2.82,0,0,0-.1-.7l.19.54c.06.17.1.35.15.51.09.34.19.66.26,1l.11.52.06.27,0,.29c.06.39.14.81.18,1.3,0,.11-.08-.68-.08-.24,0,0,0-.21,0-.24s0,0-.09,0a4.44,4.44,0,0,0-.2-1.18c0,.34.26,1.41.21,1.65,0-.16-.07-.37-.12-.6s-.09-.48-.13-.73-.09-.5-.13-.74l-.12-.63a2.86,2.86,0,0,1,.21.93h.06a4.24,4.24,0,0,0-.13-.85c-.07-.26-.15-.51-.21-.79-.1,0,.14.73,0,.61a5.59,5.59,0,0,1,.13.81,3.36,3.36,0,0,1,.22.89c0,.22.07.46.1.71s0,.5,0,.73c0-.07-.14-.7-.1-.12-.05-.22-.12-.31-.08.12,0-.18-.08-.42-.1-.65s-.06-.46-.07-.63c.07.06.14.33.17.11a1.79,1.79,0,0,1-.16-.7s.06.21.08.35a1.2,1.2,0,0,0,0-.35,1.77,1.77,0,0,0-.1-.27,2.32,2.32,0,0,1-.21-.76c.06,0,0-.12,0-.12,0-.16.05-.11.09-.13l-.11-.46c0,.59-.13-.42-.29-.55.06.25.14.65.24,1.09,0,.22.09.45.13.68s.1.44.14.64c-.07-.27-.13-.36-.14-.26a5.2,5.2,0,0,0,.13.85h-.09a.91.91,0,0,1,0,.58,4.61,4.61,0,0,1,.32.93c0,.1,0,.29,0,.54s0,.26,0,.4,0,.14,0,.22v.23c0,.31,0,.62,0,.91s0,.55,0,.74.06-.08.07-.23c.1.06-.1.44,0,.36,0,.18-.07.38-.09.59s0,.44-.07.67a6.72,6.72,0,0,1-.24,1.27c.08.2.09-.51.17-.32s0,.21-.1.57c-.12-.15-.21.65-.33.63a2.88,2.88,0,0,1-.06.32l-.06.26a5,5,0,0,0-.1.57s.09-.54.2-.67c0,.18-.18.73-.07.71,0,.18-.26.54-.23.66s0,0-.05,0c-.05.19-.12.43-.21.7l-.31.87c-.23.61-.47,1.24-.63,1.73a1,1,0,0,0-.24.42A3.41,3.41,0,0,1,44,36c0-.07-.1,0-.15,0a9.1,9.1,0,0,1-.58,1.14,6,6,0,0,0-1.06,1.51,1.54,1.54,0,0,0,.16-.19l.19-.29a4.66,4.66,0,0,1,.4-.54c-.18.33.17,0-.14.49,0-.32-.22.15-.45.37.12,0-.27.42-.61.85-.1-.07.21-.25.24-.4s-.38.53-.34.31c-.13.18-.29.37-.45.57s-.32.42-.5.61l-.51.55L40,41.2l-.22.18a1.43,1.43,0,0,0-.42.58c-.51.45-.85.61-1.26,1l0-.06c-.17.15-.34.29-.52.43l-.58.41-.32.22-.35.22-.37.24-.2.13-.21.13c-.11.07-.07.09-.07.13-.28.16-.49.27-.65.35l-.42.16c-.25.09-.5.2-1.11.46a1.52,1.52,0,0,1,.51-.26c0-.07-.52.2-.46.05a2.3,2.3,0,0,1-.6.25,7.07,7.07,0,0,0-.88.28.48.48,0,0,0-.27,0,2.44,2.44,0,0,0-.39.11l-.49.18c-.18.07-.37.12-.58.18.07,0,.11.09.45,0-.27.11-.55.2-.84.29s-.58.15-.86.21-.57.11-.83.16l-.73.13-.08,0,0,0c-.14,0-.4,0-.63,0s-.41,0-.37.13a6.62,6.62,0,0,0,1.12-.15c.2,0,.4-.08.57-.12l.42-.08c.31-.06.05.12.44,0,.16,0,0,.06.23,0l-.38.14-.61.17c-.15,0-.21,0-.23-.05-.4.09,0,.07-.1.18.32-.15.91-.11,1.12-.22,0,.08-.2.11-.42.13a5.16,5.16,0,0,0-.8.13c-.33.08-.16.07-.67.21,0,0,0-.07-.11-.05.16-.06.55-.1.67-.17a2.57,2.57,0,0,0-1,0l-.68.05a2.69,2.69,0,0,1-.58,0c.08-.07.08,0,0-.11s-.53,0-.82,0a2.94,2.94,0,0,0-.75,0l-.46-.05-.54-.06L22,47.49l-.63-.08-.32,0-.32-.05-.64-.11c-.42-.08-.83-.18-1.21-.27-.12.11.34.1.4.19a1.13,1.13,0,0,1,.34,0c0,.06.25.13.47.17s.45.1.47.16l-.72-.11L19,47.24a2.57,2.57,0,0,0,.52.18l.36.09.39.08.74.15a1.59,1.59,0,0,1,.47.14l-.49,0-.51-.05a1.88,1.88,0,0,1-.79-.21,2.84,2.84,0,0,1,.34.09.85.85,0,0,0,.32,0,2.48,2.48,0,0,0-.78-.22l-.52-.1-.28-.06-.28-.09c.13,0,.28.11.44.08-.33-.09-.67-.28-.49-.29-.21-.07-.54-.15-.79-.24s-.43-.17-.35-.18L17,46.5l-.37-.12s.21.06.23,0c-.32-.18-.65-.1-.72-.28L15.79,46l-.28-.11L15,45.73a8.68,8.68,0,0,1-1-.43c-.13,0,.38.25.43.34s-.33-.19-.33-.09l-.44-.26-.5-.29-.58-.33L12,44.26c.13,0,.23.14.58.33a2.38,2.38,0,0,0-.26-.2s.34.2.49.27c-.2-.15-.37-.28-.57-.41s-.42-.26-.69-.46a2.24,2.24,0,0,0,.26.21l.36.23c-.21-.11-.22,0-.52-.23.06,0,.12,0,.13,0L11,43.55c.22.12.21.09.12,0s-.28-.22-.41-.33,0,0,.06.1a1.41,1.41,0,0,0-.27-.25l-.3-.24c-.11-.09-.24-.18-.36-.29l-.73-.65-.54-.54A3.33,3.33,0,0,1,8.16,41a1.68,1.68,0,0,0,.3.32c.11.12,0,0-.2-.16a3.56,3.56,0,0,1-.35-.38,1,1,0,0,0,.3.18.66.66,0,0,0,.18.22,1.89,1.89,0,0,1,.26.25c.05,0,0-.08-.13-.17.28.17.48.45.75.64-.16-.17-.39-.38-.59-.55a2.74,2.74,0,0,1-.23-.24c-.06-.07-.08-.13-.07-.16a13.89,13.89,0,0,1-1.56-1.79,1.18,1.18,0,0,1,.24.26l.25.31a1.31,1.31,0,0,0-.27-.37l-.4-.47c-.17-.1.29.37.22.37s-.21-.18-.39-.39c0-.11.18.17.3.32a1.59,1.59,0,0,0-.24-.33,2,2,0,0,1-.27-.36s.1.11.17.18.12.12.09,0-.07-.05-.1-.07c-.53-.87-1.16-1.71-1.63-2.53a1.19,1.19,0,0,0,.2.44,3.1,3.1,0,0,0,.34.49c0,.1-.15-.12-.2-.15A6.55,6.55,0,0,0,4.65,36c0,.11.06.16,0,.16s-.07,0-.13-.13a3.41,3.41,0,0,0,.41.88c-.1-.1-.28-.29,0,.14-.12-.19-.22-.38-.33-.58l-.15-.3-.13-.31-.26-.62-.25-.66c-.09-.17-.15-.14-.21-.38.08.09,0-.09-.08-.35s-.26-.61-.34-.87c0,.09.08.43,0,.22s-.14-.52-.25-.87a2.76,2.76,0,0,0-.29-.78c-.09-.35,0,0,0-.22a5.19,5.19,0,0,1-.17-.63c0,.14-.08-.09-.15-.41s-.14-.74-.17-1c.08.27.12.25.08-.11l.15.94c.06.35.15.71.25,1.06,0-.09,0-.36,0-.43s-.11-.42-.15-.63-.05-.1,0,0a.8.8,0,0,1-.06-.21l0-.21c.12.29,0,0,0-.21s0,.13-.07-.1,0-.22,0-.21-.18-.79-.11-.74a4.2,4.2,0,0,1,.06.53c.12-.15,0-.39.13-.32a1,1,0,0,0-.1-.29A.9.9,0,0,1,2.2,28c0-.09.07.07.11.23s.08.3.08.2,0,.39.08.42c0,.27,0,.61-.1.32a2.33,2.33,0,0,0,0,.32c.06-.06.11.31.14-.11.06.25,0,.23.09.52,0-.32,0,0,.12.38A5.92,5.92,0,0,0,3,31.45a3.77,3.77,0,0,0,.11.52s0-.15-.06-.31a1.5,1.5,0,0,1,.11.3,2.58,2.58,0,0,0-.06-.31,1.57,1.57,0,0,1,.11.44c0,.17,0,.27,0,.08a24.34,24.34,0,0,0,1,2.68,4.79,4.79,0,0,0-.22-.6L4,34.07l-.07-.19-.15-.38-.15-.36c0-.12-.08-.23-.11-.33a1.84,1.84,0,0,1-.1-.46l.13.44.06.18c0,.07.05.16.1.28s.06.09.1.19,0-.23,0-.22-.2-.29-.12-.08a3.89,3.89,0,0,1-.19-.61,1.66,1.66,0,0,0-.24-.59c0-.13,0-.33-.08-.52a2.68,2.68,0,0,0-.06-.28A1,1,0,0,0,3,30.92c0-.07.07-.08-.07-.41a2,2,0,0,1,.16.46c.06.23.15.53.23.84s.19.64.29.94a6.06,6.06,0,0,0,.3.77c.09.19,0-.17.15.28a5.57,5.57,0,0,0-.21-.59s.15.34.22.48-.11-.37,0-.12c-.11-.36-.2-.36-.23-.58s-.06-.06-.11-.19,0,.16,0,.31a2,2,0,0,1-.24-.69c-.12-.29.06.23,0,.11a2,2,0,0,1-.11-.61c.14.5,0,.06.15.29l-.1-.29a1.16,1.16,0,0,0-.07-.14,1,1,0,0,1-.12-.36.59.59,0,0,0,0,.2c0-.13-.1-.36-.15-.61s-.11-.52-.16-.71a.78.78,0,0,1-.13-.2,1.38,1.38,0,0,1,0-.52A3.92,3.92,0,0,0,3,30c.05,0,0-.28.08-.11a5.22,5.22,0,0,0-.16-.61s0-.12,0-.2,0-.13,0,0c0-.08-.1-.33-.13-.72,0,0,0-.11,0-.25s0-.32,0-.47c0,.63,0,0-.06.2,0-.29,0-.44-.06-.42,0-.31,0-.56,0-1,.07.14,0,.34,0,.73a1.64,1.64,0,0,0,.05-.61,2.4,2.4,0,0,1,0,.41,3.2,3.2,0,0,1,.06-.51c0-.12,0-.09-.05-.11a.89.89,0,0,1,0-.27s0-.05,0,0a7,7,0,0,1,0-1.23c0-.3,0,.27-.08.19.07-.33.1-.77.16-1.22,0-.22.05-.45.08-.67l.09-.63c0-.18,0-.24,0-.22a5.68,5.68,0,0,0,.24-1.08l.17-.78,0-.18,0-.17.09-.28a1.61,1.61,0,0,1-.07.3c.09-.22.3-.9.23-.9s.37-.91.15-.27c.13-.3.23-.64.37-1A6.8,6.8,0,0,1,4.73,17l-.13.3-.1.27c-.07.17-.13.35-.21.58.08-.25,0-.14,0,0s-.11.36-.07.27c-.08.19-.18.45-.3.75s-.2.66-.31,1-.18.75-.26,1.12l-.11.54c0,.17-.07.34-.1.49,0-.07,0-.18.07-.3a2.18,2.18,0,0,1-.13.6c0,.26,0-.13.06,0s0,.18-.07.28a2,2,0,0,0-.06.41c0,.27,0-.13.06,0S3,23.65,3,23.8a4.61,4.61,0,0,0,0,.48l0,.5c0,.17,0,.33,0,.5,0-.09,0-.35.05-.5s0,0,0,.2,0,.41,0,.51c0-.06,0-.11,0-.11,0,.3,0,.67,0,.82,0,0,0-.18,0-.21,0,.16,0,.81,0,.81a2.22,2.22,0,0,0,0-.51s0,.47,0,.3a4.72,4.72,0,0,1,.09.82,2.62,2.62,0,0,0,0-.51,2.84,2.84,0,0,1,.06.48c0,.15,0,.3,0,.44,0,0,0-.13,0-.31s-.05.32,0,.7A2.83,2.83,0,0,0,3,29c0,.06,0,.31,0,.1,0,.26.25,1.1.13,1,.07.31.09.12.16.5.1.07.11-.09,0-.41a.2.2,0,0,1-.06-.11,2.4,2.4,0,0,1,0-.29s0,.12.06.2a7.7,7.7,0,0,1-.13-.91c.06.24,0,.22.09.5-.19-1,0-.37.08.2,0,0-.07-.1,0,0s.07.22.13.5c-.07.07.08.65-.08.42,0,.16.06.17.09.3a1.48,1.48,0,0,0,0-.51c.07.2.12.42.19.64s.12.46.19.72a11.09,11.09,0,0,0,.63,1.78c0-.15-.31-1-.15-.8-.2-.52-.23-.38-.25-.67-.07-.13,0,0-.12-.18s-.14-.67-.23-1c0-.19-.08-.38-.14-.57l-.16-.58c.05.14.07.07,0-.2,0-.1-.06-.09,0,0s-.14-.73,0-.4c0-.29-.07-.53-.11-.77s0-.24,0-.36,0-.25,0-.39A1.75,1.75,0,0,1,3.07,27,2.9,2.9,0,0,0,3,26.72c0-.56,0-1.16,0-1.68a3.25,3.25,0,0,1,.16-1.14c0-.2,0-.53,0-.32a2.5,2.5,0,0,1,0-.51,1.18,1.18,0,0,1,0,.21.39.39,0,0,0,.06.22,6.42,6.42,0,0,0-.11.72c0,.25,0,.51,0,.77s0,.52,0,.78v.38c0,.12,0,.25,0,.37a1.5,1.5,0,0,1,.08.51c0-.12,0-.12-.06,0a2.09,2.09,0,0,0,.1.61,5.76,5.76,0,0,0,.19,1.51s0,.09,0,.1c.08.39.15.76.25,1.12l.13.54.15.54a22,22,0,0,0,.84,2.39c.11.22,0,0-.05-.2.14.15.25.56.12.39.16.32.31.63.47.91s.29.56.43.83c.06.09.07,0,.14.16s-.16-.3-.11-.28l-.12-.18-.11-.21c-.07-.15-.13-.31-.2-.47s-.12-.32-.17-.48S5,34,5,33.87s-.12-.3-.37-.84a1.16,1.16,0,0,0,.14.47c.08.21.22.44.3.66,0,0-.15-.31-.18-.37a.52.52,0,0,0,.06.19,1.12,1.12,0,0,1-.16-.3,1,1,0,0,1-.07-.26c-.11-.19,0,.15,0,.12s-.21-.56,0-.1c0-.1-.15-.4-.21-.57s.18.45.19.37c-.15-.43-.32-.87-.38-1.15,0,.1,0,.1-.1,0s0-.1-.05-.2,0,0,0-.1c0,.11.06.11.05,0A3.87,3.87,0,0,0,4,31.46c0-.18-.1-.38-.15-.58s-.1-.4-.14-.55,0,.12.07.19,0,0,.09.09L4,31.2c0,.17.09.35.16.59,0-.15-.08-.39-.14-.6S4,31,4,30.89a.41.41,0,0,1,0-.18c0,.1.05.19.09.29A1.84,1.84,0,0,1,4,30.51a3.24,3.24,0,0,1,.11.36c0,.11.06.22.08.32a5.08,5.08,0,0,0,.16.67,1.34,1.34,0,0,1,.18.37S4.45,32,4.43,32s.09.13.16.37c0-.06,0,.06.07.26s.19.45.27.68c0,0,0,0,0,.08a2.16,2.16,0,0,0,.11.32c.1.25.24.56.29.74-.19-.33,0,.09-.09-.07a9.84,9.84,0,0,0,.45.95c.09.17.2.34.3.51s.2.34.32.5l.32.47.15.22.14.2a4.34,4.34,0,0,1,.4.64c.35.42.63.78.92,1.09l.4.45.39.4c.13.13.25.27.39.39l.42.39.22.2.24.2.53.44c.08.06.08,0,.11,0a13,13,0,0,0,1.26.88l-.44-.31-.44-.35-.42-.32a3,3,0,0,0-.34-.24c-.24-.17-.19-.18-.38-.33s.15.06.32.26c-.08-.1-.25-.23-.44-.41l-.61-.55c-.38-.38-.68-.7-.49-.64l1.38,1.32.66.61.65.52c.11.07.19.1.21.07a5.23,5.23,0,0,0-.66-.48c.11,0,.1,0-.05-.09,0-.06.18.08.15,0a5.43,5.43,0,0,0,.6.53c-.14-.19-.05-.1.18.1,0-.05-.07-.13-.19-.22s-.28-.2-.43-.31L11,41.26c-.1-.08-.15-.15-.11-.16s.13.13.13.15a5.21,5.21,0,0,1,.59.37l.34.25.51.33c0-.08-.67-.41-.61-.52l.53.35.44.32c.28.19.54.37.86.55,0,0,0,0-.06-.08.36.14.14.16.68.42,0-.06-.15-.15-.21-.22-.41-.23-.9-.49-1.31-.74-.18-.12-.75-.48-.7-.55.21.16.47.39.6.36a17.3,17.3,0,0,0,1.72,1c.11,0-.46-.25-.3-.27a2.67,2.67,0,0,0,.64.28c-.19-.13-.56-.27-.57-.38l.35.18c0-.11-.4-.25-.38-.31a25.12,25.12,0,0,0,2.4,1.13.92.92,0,0,1,.38.11l0,0-.34-.13-.38-.17c-.26-.12-.54-.24-.79-.38.56.2,1.32.51,2.17.81a13.35,13.35,0,0,0,2.68.63c.09,0,.61.05.48.11a2.33,2.33,0,0,1-.39,0l-.4-.08-.76-.15c.08.07,0,.05-.27,0l-.38-.08-.43-.1c.21,0,0-.05-.06-.1-.22-.05-.36-.1-.51-.15a5.44,5.44,0,0,0-.52-.18l0,.08a.9.9,0,0,1,.53.26c-.23,0-.17-.06-.48-.14.18.12-.23.09.31.28a.37.37,0,0,0,.18,0s0,0-.14-.09a3.1,3.1,0,0,1,.67.17c.22.07.41.13.51.06.39.09.8.2,1.22.27l.63.11.65.08c.22,0,.43,0,.65.06l.65,0c.43,0,.87,0,1.29,0a3.5,3.5,0,0,0-.47-.07l-.38,0a4.8,4.8,0,0,1-.91,0c.22,0,.08-.06-.15-.08l-.38,0L21,44.75c.25,0-.06-.11.13-.12l.41,0,.4.06a2.27,2.27,0,0,0,.33,0,.43.43,0,0,0,.22-.05l.77,0,.75,0a6.21,6.21,0,0,0,.67,0,2.11,2.11,0,0,0,.54-.09c.13,0,.31,0,.51-.06l.29,0,.27-.07a2.11,2.11,0,0,0,.68,0c.06-.07-.2,0-.29,0s.17-.05.33-.08.33-.06.33-.1c.22-.06.11,0,.29,0,0,0,.12-.07.28-.12l.57-.16.3-.08.26-.09c.15-.05.26-.1.26-.13.19-.06.2,0,.39-.05s-.12,0,.07-.1l.46-.18.44-.17.42-.18.41-.18.41-.2c.14-.07.28-.14.41-.22l.41-.25a5,5,0,0,0,.42-.28,2.71,2.71,0,0,0-.48.24,3.32,3.32,0,0,0-.42.33c-.19.07-.36.11-.55.17s-.37.19-.32.24c-.21,0-.55.24-1,.4,0,0,0-.06.14-.09a2,2,0,0,0,.39-.16c-.12,0-.52.22-.39,0a1.91,1.91,0,0,0-.54.19A.94.94,0,0,1,30.4,43a5.07,5.07,0,0,1,.56-.2c0,.1.19,0,0,.12l.27-.12.28-.14.6-.31.62-.35.16-.09.16-.1.31-.2c.83-.52,1.64-1.1,2.25-1.57,0,0-.11.14-.1.19a10.41,10.41,0,0,0-1,.69l-.55.4-.26.19-.24.17.29-.16.32-.22a5.34,5.34,0,0,1,.61-.39l-.22.18c-.12.1-.23.21-.21.24a2.19,2.19,0,0,0,.58-.35c0,.11-.2.16-.37.33,0,0,.28-.17.34-.18.19-.27.31-.24.7-.53,0,.1-.18.22,0,.19s.12-.13.21-.21c-.06,0-.19.12-.19.06.19-.17.27-.18.28-.1.11-.17.5-.34.41-.44s-.37.27-.45.21c.17-.16.19-.1.39-.29l0,0c-.05,0-.9.71-.56.57l-.49.27c-.19.11-.4.25-.61.34.15-.08.49-.37.85-.64.17-.15.35-.29.52-.41l.24-.16.19-.11c.24-.2.05-.16.15-.28a3.61,3.61,0,0,1,.33-.24.9.9,0,0,1,.24-.13,3.86,3.86,0,0,1,.31-.39c-.09,0,0-.1.09-.24l.41-.5c.1,0-.2.27,0,.24s.27-.37.55-.69l-.26.23-.26.2c.27-.38.92-1.22,1.13-1.44a.4.4,0,0,1,.08-.2l.2-.3a3.32,3.32,0,0,0,.31-.49c.25-.22.21,0,.53-.57,0-.09-.1,0-.21.2,0-.12.15-.41.21-.32.05-.1,0-.1,0-.13s.29-.51.34-.35c0-.13.23-.46.08-.4a2.66,2.66,0,0,0,.23-.33c.06-.12.08-.22,0-.21.15-.39.22-.3.35-.58s-.09-.09-.11-.17c.13-.33.12-.21.17-.13.09-.19,0-.19,0-.22a5.35,5.35,0,0,0,.37-.57c.09-.35-.09,0-.07-.24a3,3,0,0,0,.31-.67c.07-.25.08-.43-.05-.35.17-.37,0-.39,0-.69.06-.12.13-.14.2-.13s0-.31.09-.56a3.36,3.36,0,0,0,.17-.76c-.17,0-.14.75-.26.91-.06,0,0-.17,0-.3s.05-.23,0-.2c0-.21.08-.41.11-.61s0-.4.07-.6c0-.4.05-.8.07-1.23a29.32,29.32,0,0,0-.14-3c-.05,0-.06.16-.09,0,0-.33.06,0,.05-.28s-.07-.34-.12-.5l-.14-.51-.07-.26-.08-.26-.16-.53c-.05-.18-.12-.35-.18-.53s-.12-.36-.19-.54c-.14-.36-.27-.72-.44-1.08a21.39,21.39,0,0,0-2.44-4.25,22.71,22.71,0,0,0-1.65-2l-.46-.46-.23-.23-.24-.22c-.16-.14-.32-.29-.48-.43l-.5-.41a19.59,19.59,0,0,0-2.12-1.48l-.27-.17L32,9.21l-.56-.31-.57-.28c-.19-.09-.38-.19-.57-.27a.69.69,0,0,1-.67-.07c0-.14-.21-.28-.49-.43a4.54,4.54,0,0,0-.48-.21L28,7.48c0,.07.41.11.22.2l.29.08.22.07A2.67,2.67,0,0,1,29.19,8Zm-12,38.26s-.13-.1-.34-.17L16,45.83c.14.15.39.28.21.32l.57.22.6.2c.2.06.39.13.59.18l.56.13c-.52-.12-.62-.21-.28-.18a4.35,4.35,0,0,1-.63-.19c-.27-.05.17.12-.14,0s.18,0-.06-.15c.13,0,.65.19.32.08S17.45,46.41,17.14,46.3ZM4.56,32.94c-.08-.21-.12-.34-.17-.45s-.08-.23-.13-.41A2.12,2.12,0,0,0,4.56,32.94Zm21,12a1.89,1.89,0,0,1,.39,0c.2,0,.39-.06.39-.1l-.3.06-.25,0c-.14,0-.2,0-.14-.05l-.44,0h-1c-.13,0-.07.06,0,.08s.13,0,0,.06l-.57-.1-.68-.09c.11.18.89.21,1.55.23.05-.07-.21-.07,0-.14l.76,0C25.45,44.89,25.61,44.9,25.53,45ZM27.69,7.65c0,.09.09.16.31.22C28.07,7.78,28,7.7,27.69,7.65ZM38.77,15.2c-.15-.21-.33-.54-.42-.5C38.46,14.84,38.85,15.38,38.77,15.2ZM34.6,41.53l.24-.16L35,41.2a1.46,1.46,0,0,1,.36-.25c-.28.14-.42.12-.68.39.2-.14.15-.09.07,0S34.56,41.52,34.6,41.53ZM25.24,45a1.62,1.62,0,0,0-.69,0A4.1,4.1,0,0,0,25.24,45Zm4.06-.87-.48.13-.52.12-.47.13a1.66,1.66,0,0,0-.35.13c.14,0,.12,0,.2,0s.5-.18.77-.27l.42-.12Zm-10.86.41s0,.06,0,.06-.06,0-.26-.06c0,.06.11.13.3.18a5.57,5.57,0,0,0,.64.11c-.5-.1.24,0-.07-.1C19,44.71,18.76,44.63,18.44,44.53Zm4.51.63c.13-.07-.66-.07-.69,0C22.58,45.12,22.61,45.17,23,45.16ZM21.6,5.33a1.57,1.57,0,0,0-.65,0,.76.76,0,0,0-.27.08s0,0,.13.05S21.47,5.4,21.6,5.33ZM4.49,32.55a1.33,1.33,0,0,0-.12-.28,7.45,7.45,0,0,0,.46,1.23c-.11-.27.09.14.09.08a7.42,7.42,0,0,1-.45-1.13C4.49,32.51,4.51,32.56,4.49,32.55Zm8.06,9.86a2.49,2.49,0,0,0,.28.19l.21.12a4.1,4.1,0,0,1,.45.28c.1,0-.89-.53-.47-.39-.17-.09-.18-.13-.34-.22S12.69,42.42,12.56,42.41Zm1,.81a6.79,6.79,0,0,1-.72-.41l-.28-.17-.32-.19c.13.09.26.19.39.27l.37.23A2.14,2.14,0,0,0,13.59,43.22ZM7.33,38.13c-.11-.13-.24-.35-.37-.54a5.62,5.62,0,0,0-.34-.46c.22.31-.06,0,.06.2.06,0,.19.16.31.34A2.37,2.37,0,0,0,7.33,38.13Zm0,0c-.11-.14-.2-.27-.28-.38a3.06,3.06,0,0,0-.22-.28A3.27,3.27,0,0,0,7.3,38.15Zm1.38,1.53a7.33,7.33,0,0,0,.69.63A4.17,4.17,0,0,0,8.68,39.68ZM4.79,34.14c-.06,0-.11-.13-.21-.15.07.12.14.27.22.43s.15.33.23.48a3.09,3.09,0,0,0,.38.65,4.9,4.9,0,0,1-.34-.69L5,34.68l-.06-.18C4.9,34.39,4.85,34.26,4.79,34.14Zm-1.3-3a2.66,2.66,0,0,0,.14.63c0,.14.09.3.15.44l.14.42c0-.18-.08-.39-.15-.65s-.14-.57-.24-1c0,0,.18.78.06.51C3.61,31.56,3.49,31.24,3.5,31.18Zm.59,2c-.09,0,.13.53.23.58-.14-.3-.15-.3-.07-.3a1.36,1.36,0,0,0-.14-.28C4.25,33.49,4.11,33.34,4.08,33.16Zm-.7-2c-.09-.36-.1-.37-.17-.71A1.55,1.55,0,0,0,3.38,31.19Zm.5,1.48a5,5,0,0,0-.2-.59C3.57,32,3.85,32.68,3.88,32.68Zm.66,1.75c.07.13.12.28.17.42a1.36,1.36,0,0,0,.19.34c-.06-.11,0-.06,0,0C4.69,34.66,4.74,34.85,4.53,34.43Zm.08.52a1.94,1.94,0,0,0,.23.36c-.1-.19,0-.14-.17-.38Zm1,1.84c.06,0,0-.14-.17-.38C5.41,36.4,5.49,36.57,5.64,36.79Zm-.29-.33c-.16-.22-.18-.4-.27-.46.18.32,0,.13-.08,0l.26.44c.09.15.18.31.27.44s.31.44.31.36c.07.13.2.48.16.27.09.15.34.49.55.78s.42.49.37.39a3.64,3.64,0,0,1-.29-.36,6.38,6.38,0,0,0-.44-.56c.09,0-.09-.19-.06-.2a6.55,6.55,0,0,1-.53-.8,7.29,7.29,0,0,0-.37-.63c.09.07-.31-.52-.11-.18A1.86,1.86,0,0,1,5.35,36.46ZM4.22,34.53a1,1,0,0,0,.22.26c-.08-.17-.24-.48-.15-.39a2.31,2.31,0,0,0,.34.66c-.08-.14-.17-.35-.26-.53a2.58,2.58,0,0,0-.22-.41C4.31,34.46,4.16,34.33,4.22,34.53Zm3,4.63s-.11-.09-.11-.05l.21.25s0-.11,0-.12A2.2,2.2,0,0,0,7,38.92ZM25.94,3c-.45,0-.76-.2-.9-.07.22,0,.21.07.32.11S26,3.16,25.94,3ZM2.47,30a1.76,1.76,0,0,0,.11.42c-.08-.29-.07-.32,0-.28s.07.16.09.17C2.53,30,2.5,29.88,2.47,30Zm.36.82c-.07-.37-.1-.38-.16-.72-.06,0-.14-.35-.1,0C2.67,30.15,2.74,30.68,2.84,30.84ZM3.08,32c-.07-.26-.29-1-.09-.52,0-.08-.06-.2,0-.21a1.48,1.48,0,0,0-.22-.51c0,.17.08.3.1.41l.08.29A4.07,4.07,0,0,0,3.08,32ZM3,31.88l-.18-.68a5.38,5.38,0,0,0-.18-.66,6,6,0,0,0,.12.68A3.19,3.19,0,0,0,3,31.88Zm1,2.6-.17-.38-.16-.45a2.78,2.78,0,0,0-.18-.46A5.71,5.71,0,0,0,4,34.49Zm.17.39c.06.15.17.39.28.61a4.27,4.27,0,0,0,.3.54c-.11-.2-.21-.44-.3-.65s-.09-.21-.14-.29A1.06,1.06,0,0,0,4.15,34.88ZM17,46.14c.2.06.24,0,.43.11s-.28-.15-.6-.25c-.08,0,0,0,.09.07S17.05,46.13,17,46.14ZM2.9,32s0,.13,0,.31a2.9,2.9,0,0,0,.15.41c0-.11,0-.22-.06-.33A1.93,1.93,0,0,0,2.9,32Zm8,11.21c.13,0,.17.05.23.07.25.19.43.34.61.49a5.92,5.92,0,0,0,.69.49s.13,0,.14,0c-.27-.16,0-.12-.4-.36-.18,0-.88-.63-.49-.26a8.39,8.39,0,0,1-.72-.49C11,43.27,10.62,43,10.87,43.22Zm2.81,1.69c-.45-.21-.59-.33-.88-.45a8.74,8.74,0,0,0,1.44.79c0-.13-.52-.31,0-.17-.33-.12-1-.55-.78-.39S13.6,44.83,13.68,44.91Zm1.44.78s.16,0,.23,0a2.31,2.31,0,0,1-.58-.28,2.06,2.06,0,0,0-.37-.25C14.34,45.28,14.72,45.5,15.12,45.69Zm7.49,1.76,1.44,0c-.11-.06.48-.08.12-.11-.2,0-.41,0-.64,0h-.7c-.14-.2-1.66-.16-2.49-.39.38.15-.08,0-.15.13a5.94,5.94,0,0,0,1.22.12.7.7,0,0,1-.32-.07,2.39,2.39,0,0,1,.65.11c-.13,0-.26,0-.23,0,.48,0,.56,0,.65.13.38,0,.34,0,.57-.06C22.74,47.42,22.68,47.43,22.61,47.45ZM9.56,42.22c-.41-.35.09.07.11,0-.25-.19-.2-.2-.4-.36C9.2,41.9,9.44,42.18,9.56,42.22Zm.43.34c.12.1.07.11.13.17a6.41,6.41,0,0,1,.61.46C10.85,43.15,10.22,42.64,10,42.56Zm31.35-3.93c.05.09.32-.31.39-.25.24-.31.14-.35.23-.54a4.12,4.12,0,0,1-.5.6S41.43,38.53,41.35,38.63Zm-16.4,8.81.33,0c-.07-.07,0-.09-.11-.11S24.86,47.38,24.95,47.44Zm1.66-.11a3,3,0,0,0,.77-.16C27.17,47.12,26.62,47.21,26.61,47.34Zm-2.44.16a4.27,4.27,0,0,1,.56,0s0,0,0-.07A1.4,1.4,0,0,0,24.17,47.5Zm9.25-2.23c-.26.07-.48.25-.82.35A1.42,1.42,0,0,0,33.42,45.26ZM18,46.81c.35.06.25.1.42.15C18.89,47,17.78,46.71,18,46.81Zm15.87-1.66c0,.08.47-.16.65-.2,0,.06-.36.15-.27.22a21.82,21.82,0,0,0,2.15-1.27s-.06,0,0-.1.1-.14.32-.33l-.25.17-.3.2c-.22.14-.45.3-.71.45l-.78.46ZM45.78,18l-.25-.75a3,3,0,0,0-.26-.58c.32.92-.07-.12,0,.13s.19.6.27.8.14.4.26.76C46,18.41,45.53,17.66,45.78,18Zm-.28-1.15a4,4,0,0,0-.37-.88,3.07,3.07,0,0,0,.16.51C45.38,16.7,45.45,16.88,45.5,16.88ZM23.93,2.9a7.23,7.23,0,0,1-1,.13s-.14,0-.22,0c.12-.12.19-.05.34,0C23.17,2.86,23.42,2.95,23.93,2.9ZM4.15,24.33a3.87,3.87,0,0,0,0,.67c-.06,0,0-.26,0-.3S4.11,24.28,4.15,24.33Zm.56,5.52a4.32,4.32,0,0,1,.11.49l0,.26c0,.09,0,.18.07.27s0,0,0-.1c.07.08.09.32.14.46s-.17-.39-.08-.08c-.11-.23-.12-.52-.28-1C4.8,30.21,4.73,30,4.71,29.85Zm.43,1.67c0-.09,0-.07,0,0l.08.2s0-.1,0-.1c.07.18,0,.12.11.37,0,0-.12-.24-.07-.08C5.23,31.86,5.25,31.72,5.14,31.52Zm1.5,3.64s-.1-.13-.16-.24l-.22-.38c-.07-.13-.14-.26-.19-.37A.4.4,0,0,1,6,34a2.42,2.42,0,0,1-.34-.72c-.13-.39-.31-.85-.47-1.24.24.63.6,1.39,1,2.16.21.38.41.77.65,1.13l.17.27.08.14.09.13.34.5c.08.13.16.23.22.31l.09.12-.09-.11-.12-.15-.17-.24c-.17-.24-.49-.64-.09-.06a14.22,14.22,0,0,1-1.11-1.82A4.51,4.51,0,0,0,6.65,35.16Zm24.84,7.16c.06-.12.38-.17.31-.24C31.93,42,32,42,32,42a.2.2,0,0,0,.14,0,.75.75,0,0,1-.24.14A4.1,4.1,0,0,0,31.48,42.31ZM33.59,41s0,.09-.14.15c.16,0,.42-.31.43-.2a3.7,3.7,0,0,1-.49.27C33.46,41.19,33.37,41.18,33.59,41ZM19.08,7.27c-.06,0-.06-.06,0-.14A.53.53,0,0,1,19.41,7C19.45,7.1,19.12,7.15,19.08,7.27ZM34,41.06c.23-.12-.27.34-.45.36S34.06,41.11,34,41.06ZM5.11,32.81s.24.56.09.28a3.14,3.14,0,0,0,.3.53,2.68,2.68,0,0,0-.17-.46c.1.16,0,0,.08,0a1.77,1.77,0,0,0,.1.27c.11,0-.15-.48-.23-.74l.25.6c.09.2.19.39.28.59l.14.29.16.29.31.58.34.56.17.28.18.27.37.54.39.52c.13.18.26.34.4.5s.27.33.41.49c.29.31.55.62.85.9l.42.43.43.4c.28.27.58.5.85.74.12.08,0,0,0,0l.17.14.09.09a1,1,0,0,0,.17.17,2.2,2.2,0,0,1,.51.33,1.54,1.54,0,0,0,.41.25.83.83,0,0,0,.37.31c-.06,0-.43-.24-.69-.39,0,0,.1.14,0,.14l-.19-.14L12,41.36l-.31-.2a2.1,2.1,0,0,1-.54-.41.54.54,0,0,0-.18-.1s.11.16.29.31.41.3.53.4a3.2,3.2,0,0,1-.45-.3l-.51-.41a1.37,1.37,0,0,0,.32.37c.16.15.35.28.47.38l-.39-.26-.38-.29-.39-.31L10,40.2l-.42-.38-.42-.43-.22-.23-.22-.25-.47-.53.62.66c.22.23.44.44.57.56,0-.05-.07-.13-.08-.19a1.2,1.2,0,0,1-.23-.17A2.49,2.49,0,0,1,8.86,39c-.17-.2-.37-.42-.59-.63.14.07.07,0-.13-.27s0,.05.1.17a6.7,6.7,0,0,1-.44-.55l-.23-.32-.3-.4a1.6,1.6,0,0,0,.26.5,2.57,2.57,0,0,0,.25.32,1.86,1.86,0,0,0,.23.23c.09.11,0,.06.08.18A18.16,18.16,0,0,1,6,35.31s0,0-.08-.07c.12.26.1.21.09.29s.13.17.15.15a4.11,4.11,0,0,0,.21.44c.09.16.2.32.31.49.22.34.49.68.72,1-.19-.18,0,.08,0,.22-.14-.11-.17-.32-.4-.59.07,0,0,0-.07-.19l-.4-.59-.23-.34-.19-.32A1.07,1.07,0,0,1,6,35.43c-.12-.16-.22-.31-.32-.46s-.21-.3-.32-.47.2.24,0-.22c-.12,0-.12-.32-.32-.74.09.06.15.32.25.44a2.24,2.24,0,0,0-.13-.37c-.06-.14-.12-.31-.19-.46l-.33-.74a8.68,8.68,0,0,0-.34-1.15c.07.16.12.34.19.52l.2.55.1.29.12.29c.08.19.17.39.26.59-.11-.3-.1-.45.13.07-.05-.29-.39-1-.58-1.58,0,0,.18.38,0,0a1.09,1.09,0,0,1,.12.29,2.64,2.64,0,0,0,.17.45C5.05,32.8,5.2,33,5.11,32.81ZM7,36.73l.1.15.1.12c.06.07.11.12.13.11a1,1,0,0,0-.17-.24A.8.8,0,0,0,7,36.73Zm2.46,2.52c-.3-.29-.63-.69-1-1.07L8,37.61l-.22-.27-.2-.25A10.66,10.66,0,0,0,9.42,39.25Zm1,1c.05,0-.14-.2-.33-.36C10.07,39.94,10.35,40.16,10.47,40.29ZM5.84,34.63a6.69,6.69,0,0,1-.44-.89A2.62,2.62,0,0,0,5.84,34.63ZM9.93,40.1s.08,0,0-.12-.09-.07-.2-.17-.21-.22-.26-.22a2,2,0,0,0,.17.22C9.71,39.89,9.81,40,9.93,40.1ZM4,20.76c0,.07,0,.17,0,0,0,.18-.09.18-.08.39,0-.08.1-.33.15-.47,0,.12-.06.34-.12.58s-.1.53-.13.78a2.24,2.24,0,0,1,.07-.59c0-.11,0-.08,0-.21a1.69,1.69,0,0,0-.09.38c0-.07,0-.17,0,0a1.44,1.44,0,0,1,.07-.3A3.8,3.8,0,0,0,4,20.76ZM3.68,25.9c0,.2,0,.45,0,.71l0,.4,0,.41c0,.54.14,1,.16,1.32,0,0,.16.69,0,.1a9.14,9.14,0,0,1-.13-1c0-.17-.08-.38-.09-.49s0-.2,0-.39,0-.48-.05-.65,0-.17,0-.24A.87.87,0,0,1,3.68,25.9Zm.41,3.71a.67.67,0,0,1,0-.3,1.88,1.88,0,0,1,.08.31l0,.19,0,.17a.78.78,0,0,1-.06-.15c0-.06,0-.15-.06-.23a1.27,1.27,0,0,0,.06.39.36.36,0,0,1-.09-.16c0-.09-.06-.2-.09-.31a2.73,2.73,0,0,0,.06.36,1.44,1.44,0,0,1,.06.32s-.13-.42-.09-.39,0,.08-.11-.29c0-.2.07,0,0-.29C4,29.29,4.06,29.72,4.09,29.61Zm.66,2c0-.06.11.46.16.46.1.33-.11-.17-.17-.36C4.77,31.69,4.79,31.7,4.76,31.59Zm.76-15.15a.9.9,0,0,1,.08-.19,1.59,1.59,0,0,0-.15.26c0-.06,0-.12,0,0,.08-.26.18-.28.29-.52A5,5,0,0,1,5.52,16.44ZM3.74,22.32c0,.43-.09.43-.14.78A2.81,2.81,0,0,1,3.74,22.32ZM3.5,24.08c0-.22.05-.2.09-.18a6.9,6.9,0,0,0,0,.69c0-.47-.08.31-.09-.12A.61.61,0,0,0,3.5,24.08Zm0,1.39s0,.18,0,0c0,0,0,0,0,.1v.2c0-.13,0,0-.06-.11a2.45,2.45,0,0,0,0,.46c0,.17,0,.34,0,.43a3,3,0,0,1,0-.57C3.43,25.78,3.44,25.59,3.45,25.47Zm.15,1.89s0,0,0-.1-.08-.09,0,.29a1.93,1.93,0,0,1-.1-.6s0-.08,0-.2c0,.11,0,.29.09.2C3.55,27.14,3.58,27.18,3.6,27.36ZM4.7,32.1a1,1,0,0,1-.17-.47c0-.08,0-.09,0-.09s0,0,.07.12S4.68,32,4.7,32.1ZM3.58,28.74a.86.86,0,0,1,0,.24l.09.52a3.51,3.51,0,0,0,.23.9c.06.22-.06,0-.07.11A1.56,1.56,0,0,0,3.73,30c0-.23,0-.15.06-.1-.11-.41-.07-.21-.18-.69,0,.13.07.44.08.6,0-.05,0-.1-.07-.09,0-.19-.07-.43-.1-.63a1.41,1.41,0,0,1,0-.46c-.11-.39-.06-.57-.12-.6a4,4,0,0,0-.05-.7c.07.06.05-.17,0-.43a1.56,1.56,0,0,1,0-.56c0,.1,0,.24,0,.39s0,.33,0,.51c0,.35.06.7.09.89a1,1,0,0,0,0,.45c0,.11,0,.22.06.33s.05.22.07.31,0-.1,0-.2A2,2,0,0,1,3.58,28.74Zm-.34-2.4a3.87,3.87,0,0,1,0,.9,1.58,1.58,0,0,1,0-.19v-.21A4.46,4.46,0,0,0,3.24,26.34Zm.67-6.72a2.7,2.7,0,0,1-.09.53l-.21,1c0-.09,0-.11,0-.06a1,1,0,0,0-.1.33c0-.16.11-.45.08-.61a1.63,1.63,0,0,0,.14-.44C3.75,20.1,3.84,19.83,3.91,19.62Zm3.75,18.2c.07,0,.34.48.47.53s0,.06.08.18A8.38,8.38,0,0,1,7.66,37.82ZM5.78,35.29c0,.1,0,0,0,.12a3.13,3.13,0,0,1-.23-.56C5.62,34.89,5.71,35.28,5.78,35.29ZM4.84,16.55a5,5,0,0,1-.26.6c-.1.2-.18.38-.2.43a1.63,1.63,0,0,1,.18-.45C4.66,16.94,4.77,16.72,4.84,16.55Zm-2,5.13c0-.13.05-.48.14-.72,0,.05,0,.23,0,.23,0,.24-.08.29-.13.61-.06.1,0,0-.08,0S2.84,21.52,2.81,21.68Zm-.27,2.7c0-.3,0,.41,0,.41s0,0,0-.1c0,.21,0,.45,0,.73a1.51,1.51,0,0,1,0-.32c0,.05,0,.11,0,.1A7.84,7.84,0,0,1,2.54,24.38Zm0,1.15c0,1.19.11,2.25.17,3.22,0-.05-.06-.15-.1-.21a3.29,3.29,0,0,0,0-.64,4.45,4.45,0,0,1,0-.7c0-.16,0,.09,0-.11a4.2,4.2,0,0,1,0,.62,4.22,4.22,0,0,1-.09-.64,2.21,2.21,0,0,0-.07-.52c0-.34.12.13.08-.41.06.23,0,.54,0,.52a2.43,2.43,0,0,1,0,.27c0,.11,0,.24,0,.36l0-.36c0-.12,0-.23,0-.36v-1ZM16.27,4.8a4.05,4.05,0,0,1,.9-.47A4.91,4.91,0,0,1,16.27,4.8ZM2.48,24.16c0-.1,0-.09,0-.11,0-.28,0-.34.08-.3a6.49,6.49,0,0,0-.07.78,1.63,1.63,0,0,1-.09.45.71.71,0,0,1,.06-.41C2.42,24.31,2.4,24.22,2.48,24.16Zm.24,5.11c0-.13,0,.29,0,.42-.06-.07,0-.22-.09-.41C2.69,29.25,2.75,29.45,2.72,29.27Zm.13.62a1.75,1.75,0,0,1,0,.25l0,.3c0,.12,0,.25.07.41l.06.27c0,.1.06.2.1.31s0,.13,0,.11,0-.28-.08-.42a.6.6,0,0,0-.1-.29l-.06-.4a2.55,2.55,0,0,0-.1-.42C2.75,29.81,2.87,30.05,2.84,29.89Zm0,.52c0,.13,0,.21,0,.21-.05-.18,0-.21,0-.1a4.23,4.23,0,0,1-.16-1A5.29,5.29,0,0,0,2.85,30.41Zm-.63-6.1c0-.11,0,.44,0,.33A13.24,13.24,0,0,0,2.18,26a4.83,4.83,0,0,1,0-.78C2.16,24.88,2.2,24.51,2.21,24.31ZM20.46,3.11a6.5,6.5,0,0,1,.89-.27s.14,0,.23,0C21.14,2.91,21,3,20.46,3.11ZM2.16,26.85a.15.15,0,0,1,0,.11c0,.18,0,.2,0,.21a4.83,4.83,0,0,0,.07.64c-.06,0-.07-.28-.09-.53-.07-.07,0,.58-.05.42a1.12,1.12,0,0,0,0-.33,2.4,2.4,0,0,1-.06-.52s0,.08.07.11S2.16,26.91,2.16,26.85Zm0-1a1,1,0,0,0,0,.13,2,2,0,0,0,0,.5.15.15,0,0,1,0-.11l0-.27v-.22a2,2,0,0,1,0-.36A1.52,1.52,0,0,0,2.11,25.89Zm0-2.13c0,.34-.07.59-.07,1.06H2c0-.33,0-.31,0-.64,0,.11,0,.12.05.05A2.92,2.92,0,0,0,2.15,23.75ZM5.32,37.18a1.91,1.91,0,0,1,.27.35c-.05,0,.09.22.11.3A6,6,0,0,1,5.32,37.18Zm.49.83s.09.08.11.06.09.17.13.17S6,38.36,6,38.4,6.05,38.34,5.81,38ZM1.92,27.46s0-.29-.09-.22c.06.4.13.49.18,1C2,28,1.94,28,2,28.14s.05.44.1.72L2,28.54a6.42,6.42,0,0,0,.12.86c0,.2,0,.07,0-.09S2,29,2,29.07a2.91,2.91,0,0,1,0-.75c0-.33-.07-.6-.09-.84s0-.49,0-.77c0,0,0,.11,0,.11V27a.89.89,0,0,1,0-.22A2.54,2.54,0,0,0,1.92,27.46ZM6.4,38.92s.21.19.37.41c-.18-.1,0,.11,0,.15A5.62,5.62,0,0,1,6.4,38.92ZM3.64,34.36c0,.11,0,.06,0,0,0,.16.12.24.21.5,0,0-.11-.17-.14-.18-.15-.3,0-.2-.19-.51C3.54,34.21,3.61,34.34,3.64,34.36Zm1.6,3.09a1.36,1.36,0,0,0-.16-.28c.12.06.21.31.43.63,0,.06-.24-.33-.29-.34S5.21,37.4,5.24,37.45ZM9,42.17c-.16-.13-.34-.3-.53-.47l-.27-.26-.25-.26c.23.27.5.53.75.78s.53.49.78.71l.37.3.34.25.52.36c.31.19.09.14.22.25s.39.29.74.5c.12.07.12,0,0,0l.75.45.38.21.38.2.38.2.39.19c.26.12.52.26.78.38-.19.06-.1.13.41.4a16.78,16.78,0,0,1-1.72-.89l-.83-.52-.74-.5c-.12.06.52.3.42.37a22.53,22.53,0,0,1-3.82-2.91c-.06,0,.13.19.28.34a2.27,2.27,0,0,1-.34-.29,2.23,2.23,0,0,0,.31.32s-.35-.32-.51-.45c.11.08.15,0,.17,0-.13-.12-.26-.24-.37-.36l-.33-.36-.3-.34c-.1-.11-.18-.22-.26-.33s-.31-.41-.44-.59-.22-.36-.3-.51a10.81,10.81,0,0,0,1.11,1.35l.69.7ZM2.67,31.93l.14.42c.08.22.14.44.1.41s-.09-.28-.14-.41A2.34,2.34,0,0,1,2.67,31.93Zm6.4,10c.08,0,.11.13,0,0a1.7,1.7,0,0,0,.38.4c-.23-.09,0,.14.3.4s.65.51.61.55l-.48-.4-.52-.44a12.33,12.33,0,0,1-1.07-1c.14,0,.27.26.38.25s0,0,0,0S8.95,42,9,42s-.41-.4-.54-.55A5.56,5.56,0,0,1,9,42C9,41.86,9,41.92,9.07,41.93Zm-5.23-6.5c.09.29.16.26.29.48l-.21-.39c-.07-.13-.14-.27-.2-.41s-.25-.56-.37-.84l-.55-1.39c-.12-.36,0-.28-.13-.64a3.92,3.92,0,0,1,.29.94c.09.2.24.52.37.86l.1.26.11.25.21.44c.11.16,0,0,.07,0s.05.19.09.3l.12.31a6.58,6.58,0,0,0,.33.69c-.14-.2-.42-.55-.24-.14C4.13,36.12,3.67,35.33,3.84,35.43ZM36.55,5.82A1,1,0,0,1,37,6c.18.11.38.26.6.43-.13,0-.3-.11-.48-.25L36.82,6A1.12,1.12,0,0,0,36.55,5.82ZM5.28,37.91a.85.85,0,0,0,.11.2l.31.47c.24.38.58.81.83,1.15a4.94,4.94,0,0,1-.6-.79c-.1-.14-.26-.27,0,0-.2-.21-.22-.42-.61-.92C5.15,37.8,5.44,38.18,5.28,37.91ZM2.42,31.86c0-.14,0,.1.11.35l.1.36c0,.1,0,.16,0,.13C2.57,32.46,2.47,32.1,2.42,31.86Zm39.66-21.2a1.74,1.74,0,0,1,.35.48s-.14-.08-.18,0c-.12-.16-.13-.28-.21-.29C41.83,10.56,42.31,11,42.08,10.66ZM1.71,29.51c0,.15.09.35.13.54l.11.54-.06-.2-.07-.31C1.78,29.86,1.73,29.63,1.71,29.51Zm15.92,17.6c-.39-.12-.54-.12-.88-.23,0-.08-.23-.11-.4-.21.32.08.67.17,1,.29l1,.34c-.07,0-.63-.11-.25,0C18.05,47.35,17.57,47.16,17.63,47.11ZM1.87,20.74a.87.87,0,0,0,.07-.21,4.17,4.17,0,0,1-.08.41,1.33,1.33,0,0,0,0,.36c-.08.32,0-.1,0-.14a1.69,1.69,0,0,1,.07-.3c0-.07,0-.11,0-.13S1.89,20.68,1.87,20.74Zm1.3,13.75a4.35,4.35,0,0,1,.5,1.11c-.06-.15-.12-.3-.2-.48ZM3.91,36s.18.35.28.49c-.06,0-.26-.46-.28-.37C3.73,35.87,4,36.17,3.91,36Zm2,3.21a2,2,0,0,0-.19-.28.87.87,0,0,1,.14.14l.2.24c.13.17.24.33.2.34s-.34-.46-.36-.43S5.88,39.15,5.92,39.19Zm-4.43-11c0-.16-.06-.36-.08-.59l0-.35c0-.12,0-.25,0-.38C1.38,27.22,1.44,27.73,1.49,28.2Zm37,14.58c0-.06.08-.13,0,0,.39-.33.87-.7,1.4-1.2l-.46.54C39.31,42,38.79,42.61,38.5,42.78Zm-28,.95a4.31,4.31,0,0,1,.29.34l-.28-.19c.08,0,0-.06,0-.12S10.41,43.66,10.54,43.73Zm2.86,1.79c-.06,0-.44-.22-.53-.22.09,0-.11-.12-.36-.25a2.41,2.41,0,0,1-.57-.38l.33.21.37.21A8.63,8.63,0,0,1,13.4,45.51ZM6.6,40.21l.37.42s-.16-.12-.33-.32c0,0,0,0,.06.09S6.5,40.16,6.6,40.21ZM1.31,28c.15.58-.08.15.06,1-.06,0-.12-.41-.18-.45,0-.19.07-.2,0-.33,0-.39.07.24,0-.11a1.49,1.49,0,0,1,0,.33C1.3,28.35,1.34,28.32,1.31,28Zm45.8-4.75a7.3,7.3,0,0,1,.13,1.08c-.12-.45,0,0,0,.48a1.34,1.34,0,0,1-.06-.41c0-.2,0-.45,0-.67s0-.42,0-.52,0-.11.07,0ZM7,40.75s0,0,0,.07,0,.1.2.21-.27-.2-.25-.1c-.15-.18,0-.07-.16-.3s-.08-.05-.11-.06c-.15-.2-.29-.36-.42-.54s-.28-.37-.46-.63a.89.89,0,0,1-.18-.25,1.6,1.6,0,0,1,.19.24c.29.36.45.58.6.76s.27.32.48.54c0,0-.08-.11-.13-.18S7,40.77,7,40.75Zm3,2.92s.05,0,0-.11c.25.17.54.39.84.58l.84.58s-.11,0-.21-.1-.17-.11,0,0C11.14,44.44,10.32,43.84,10,43.67ZM2.46,33.75s.05,0,0-.12c.13.18.1.36.16.54S2.56,34,2.46,33.75ZM1.23,22.6c0-.07,0-.19.05-.35s0-.36.08-.57c.08-.42.15-.91.25-1.29,0,.12-.06.3-.1.51l-.11.66-.06.33,0,.3C1.28,22.37,1.26,22.52,1.23,22.6Zm8.05,17s-.09,0-.12,0a2.12,2.12,0,0,0,.19.23c.21.18-.16-.21,0-.13a1.69,1.69,0,0,1,.2.24c0,.05.07.07.1,0a1.11,1.11,0,0,1,.32.38c.06,0,.11.08.25.17a.81.81,0,0,1,.1.14s0,0-.15-.1.33.31.25.18c.1.1.23.22.18.24a12.75,12.75,0,0,1-2.25-2.17s.1.08.15.14-.05-.11,0-.12a2.69,2.69,0,0,0,.38.4A2.81,2.81,0,0,1,9.29,39.6ZM24.6,47.66c.17,0,.24,0,.22.1-.27,0-.24,0-.56,0,.07,0,.21.13,0,.18s-.33,0-.68,0c.12-.06.25-.12.25-.2h.44Z"/>
    </g>
    <text class="cls-3" transform="translate(43.4 44.36)"><tspan class="cls-4">Г</tspan><tspan class="cls-5" x="5.18" y="0">Л</tspan><tspan class="cls-6" x="11.53" y="0">У</tspan><tspan x="17.95" y="0">Б</tspan><tspan class="cls-7" x="25.05" y="0">О</tspan><tspan class="cls-8" x="33.55" y="0">К</tspan><tspan class="cls-9" x="41.58" y="0">А</tspan><tspan x="48.69" y="0">Я</tspan><tspan class="cls-10" x="-13.37" y="10.91">М</tspan><tspan class="cls-11" x="-3.94" y="10.91">Е</tspan><tspan class="cls-12" x="2.5" y="10.91">Д</tspan><tspan class="cls-7" x="9.44" y="10.91">И</tspan><tspan class="cls-13" x="17.94" y="10.91">Т</tspan><tspan class="cls-14" x="24.33" y="10.91">А</tspan><tspan x="31.01" y="10.91">Ц</tspan><tspan class="cls-15" x="40.07" y="10.91">И</tspan><tspan x="48.69" y="10.91">Я</tspan></text>
  </g>
</svg>
