<svg id="Capa_1" data-name="Capa 1" xmlns="http://www.w3.org/2000/svg" width="57" height="57" viewBox="0 0 57 57">
  <defs>
    <style>
      .cls-1 {
        fill: #0a5a77;
      }
    </style>
  </defs>
  <title>settings</title>
  <path class="cls-1" d="M25.65,32.32a14.18,14.18,0,0,0,3-2.55l3.19,1.84,2.9-5-3.18-1.84a14,14,0,0,0,.69-3.9l3.62-.64-1-5.72-3.62.64a14.08,14.08,0,0,0-2-3.43l2.37-2.82L27.2,5.14,24.84,8A14,14,0,0,0,21.11,6.6V2.92H15.3V6.6A14,14,0,0,0,11.58,8L9.22,5.14,4.77,8.87l2.37,2.82a14.09,14.09,0,0,0-2,3.43l-3.62-.64-1,5.72,3.62.64a14,14,0,0,0,.69,3.91L1.64,26.59l2.9,5,3.19-1.84a14.18,14.18,0,0,0,3,2.55L9.51,35.78l5.46,2,1.26-3.45a14.08,14.08,0,0,0,4,0l1.26,3.45,5.46-2Zm-7.44-4.53a7.42,7.42,0,1,1,7.42-7.42A7.43,7.43,0,0,1,18.21,27.79Z"/>
  <path class="cls-1" d="M50.61,36.68l-2.5.81a10.08,10.08,0,0,0-1.75-2.24L47.76,33l-3.52-2.21L42.84,33a10,10,0,0,0-2.77-.6l-.36-2.61-4.12.57L35.95,33a10,10,0,0,0-2.51,1.33l-2-1.76L28.7,35.68l2,1.77a10.08,10.08,0,0,0-1.07,2.63L27,40l-.15,4.15,2.63.1a10,10,0,0,0,.87,2.7l-2.08,1.62,2.56,3.28,2.08-1.62a10.17,10.17,0,0,0,2.4,1.51l-.55,2.58,4.07.87.55-2.57a10.11,10.11,0,0,0,2.81-.39l1.23,2.32,3.67-1.95-1.23-2.33a10.17,10.17,0,0,0,1.9-2.11l2.44,1,1.56-3.85-2.44-1a10.07,10.07,0,0,0,.1-2.84l2.5-.81ZM40.1,47.77a5.31,5.31,0,1,1,4.53-6A5.32,5.32,0,0,1,40.1,47.77Z"/>
  <path class="cls-1" d="M56.22,22.28l.1-3.28-2.08-.06a8,8,0,0,0-.7-2.13l1.63-1.29-2-2.58-1.63,1.29a8,8,0,0,0-1.91-1.17L50,11l-3.21-.67-.42,2a7.88,7.88,0,0,0-2.22.32l-1-1.83-2.89,1.56,1,1.83a7.91,7.91,0,0,0-1.49,1.67l-1.93-.77-1.21,3,1.93.77a8,8,0,0,0-.07,2.24l-2,.65,1,3.12,2-.65a7.92,7.92,0,0,0,1.39,1.76l-1.09,1.77,2.79,1.72,1.09-1.77a8,8,0,0,0,2.19.45l.3,2.06,3.25-.47-.3-2.06a8,8,0,0,0,2-1.06l1.55,1.38,2.18-2.45-1.55-1.38a8,8,0,0,0,.83-2.08ZM48.4,24a4.19,4.19,0,1,1,1.7-5.68A4.2,4.2,0,0,1,48.4,24Z"/>
</svg>
