<svg id="Layer_3" data-name="Layer 3" xmlns="http://www.w3.org/2000/svg" width="33" height="33" viewBox="0 0 33 33">
  <title>shipping</title>
  <path d="M26.16,11.31a3.71,3.71,0,0,0,0-.43C25.88,5.08,20.48.49,13.87.49H12.7C6.08.49.68,5.08.42,10.9a3.71,3.71,0,0,0,0,.43.47.47,0,0,0,0,.16L4.5,22.75v5.12a.51.51,0,0,0,.3.45L13,32.44a.65.65,0,0,0,.58,0l8.19-4.13a.51.51,0,0,0,.3-.45V22.75l4.07-11.27a.47.47,0,0,0,0-.16Zm-5,10.61-5.26-2.67,2.07-7.82a.47.47,0,0,0,0-.12,3.33,3.33,0,0,1,3.52-3.09,3.34,3.34,0,0,1,3.51,3Zm-4.39,3.7L17.92,25v1.45L16.75,27Zm-2.64.14,1.45-5.46,4.7,2.37ZM5.43,21.92,1.58,11.24a3.34,3.34,0,0,1,3.51-3,3.33,3.33,0,0,1,3.52,3.09.47.47,0,0,0,0,.12l2.07,7.82ZM12,19.79l1.26-.63,1.26.63-1.26,4.76Zm1.84-1.53v-10a3.25,3.25,0,0,1,3,3l-2,7.46Zm-1.17,0-1,.48-2-7.46a3.25,3.25,0,0,1,3-3ZM11,20.33l1.45,5.46L6.27,22.7ZM12.7,1.51h1.17A11.13,11.13,0,0,1,24.35,8.05a5.07,5.07,0,0,0-2.87-.87,4.81,4.81,0,0,0-4.1,2.13,4.81,4.81,0,0,0-4.09-2.12,4.81,4.81,0,0,0-4.1,2.13A4.81,4.81,0,0,0,5.09,7.19a5.07,5.07,0,0,0-2.87.86A11.13,11.13,0,0,1,12.7,1.52Zm-7,22.05,7,3.54v4l-7-3.54Zm8.19,7.51v-4l1.75-.88v1.64a.51.51,0,0,0,.28.44.64.64,0,0,0,.31.08.65.65,0,0,0,.26,0l2.34-1a.52.52,0,0,0,.33-.52V24.44l1.75-.88v4Z"/>
</svg>
