<svg id="_1" data-name="1" xmlns="http://www.w3.org/2000/svg" width="33" height="33" viewBox="0 0 33 33">
  <title>file</title>
  <g>
    <path d="M13.18,28.45H3.89A3.32,3.32,0,0,1,.57,25.13V7.87A3.32,3.32,0,0,1,3.89,4.55H6.55a.66.66,0,1,1,0,1.33H3.89a2,2,0,0,0-2,2V25.13a2,2,0,0,0,2,2h9.29a.66.66,0,1,1,0,1.33Z"/>
    <path d="M22.47,16.5a.66.66,0,0,1-.66-.66v-8a2,2,0,0,0-2-2H17.16a.66.66,0,1,1,0-1.33h2.65a3.32,3.32,0,0,1,3.32,3.32v8A.66.66,0,0,1,22.47,16.5Z"/>
    <path d="M15.84,8.54h-8a2,2,0,0,1-2-2V3.89a.66.66,0,0,1,.66-.66H8.6a3.32,3.32,0,0,1,6.5,0h2.06a.66.66,0,0,1,.66.66V6.54A2,2,0,0,1,15.84,8.54Zm-8.63-4v2a.67.67,0,0,0,.66.66h8a.67.67,0,0,0,.66-.66v-2h-2a.66.66,0,0,1-.66-.66,2,2,0,0,0-4,0,.66.66,0,0,1-.66.66Z"/>
    <path d="M18.49,12.52H5.22a.66.66,0,1,1,0-1.33H18.49a.66.66,0,1,1,0,1.33Z"/>
    <path d="M18.49,16.5H5.22a.66.66,0,1,1,0-1.33H18.49a.66.66,0,1,1,0,1.33Z"/>
    <path d="M18.49,20.48H5.22a.66.66,0,0,1,0-1.33H18.49a.66.66,0,0,1,0,1.33Z"/>
    <g>
      <path d="M16.36,32.43a.67.67,0,0,1-.47-.19.66.66,0,0,1-.18-.6l.94-4.69a.65.65,0,0,1,.18-.34L27.15,16.28a2,2,0,0,1,2.82,0l1.88,1.88a2,2,0,0,1,0,2.82L21.52,31.3a.66.66,0,0,1-.34.18l-4.69.94Zm1.55-5-.7,3.52,3.52-.7L30.91,20a.66.66,0,0,0,0-.94L29,17.22a.66.66,0,0,0-.94,0Zm3.14,3.43h0Z"/>
      <path d="M20.67,30.57l-3.61-3.67c-.1-.1-.05-.31.11-.47s.37-.2.47-.1L21.25,30c.1.1.05.31-.11.47S20.77,30.67,20.67,30.57Z"/>
      <path d="M17.86,31.63l-1.58-1.38s.06-.23.23-.42.34-.32.39-.29l1.58,1.38s-.06.23-.23.42S17.9,31.66,17.86,31.63Z"/>
    </g>
  </g>
</svg>
