<svg id="Слой_1" data-name="Слой 1" xmlns="http://www.w3.org/2000/svg" width="40" height="40" viewBox="0 0 40 40">
  <defs>
    <style>
      .cls-1 {
        fill: #20a0e1;
      }

      .cls-2 {
        fill: #ccd8e6;
      }

      .cls-3 {
        fill: #fefefe;
      }

      .cls-4 {
        fill: #abbdd5;
      }
    </style>
  </defs>
  <title>telegram</title>
  <g>
    <ellipse class="cls-1" cx="20" cy="20" rx="19.83" ry="20"/>
    <g>
      <path class="cls-2" d="M26,14.67c.17-.33.5-.33.5-.83a3.14,3.14,0,0,0-1.5.67L13.67,21.67l2.17,7c.33-.33.33-.67.33-1.33,0-.33.17-1,.17-1.33V24.83c.17-.17.17-.33.17-.67v-.5c.17-.33.33-.17.5-.5C19.67,20.33,23.17,17.33,26,14.67Z"/>
      <path class="cls-3" d="M8,19.67l5.67,2,11.83-7.5a2.37,2.37,0,0,1,1-.33c0,.5-.67,1-1,1.33-2.5,2.17-6.83,5.5-9,8l2,1.5c.33,0,1.17.83,1.33,1a8,8,0,0,1,1.83,1.5c.33,0,.33.17.5.33l1.67,1.17c.67.5,1.33,1.33,2.5.5l3.67-17c.5-2.83-.83-2.33-2.67-1.67L8.67,18.33C7.83,18.67,7.17,19.5,8,19.67Z"/>
      <path class="cls-4" d="M15.83,28.67l.17.17a1.44,1.44,0,0,0,1-.5l2.83-2.5c0-.17-.83-1-1.17-1l-2.17-1.5Z"/>
    </g>
  </g>
</svg>
