<?xml version="1.0" encoding="utf-8"?>
<!-- Generator: Adobe Illustrator 21.0.0, SVG Export Plug-In . SVG Version: 6.00 Build 0)  -->
<svg version="1.1" id="Layer_1" xmlns="http://www.w3.org/2000/svg" xmlns:xlink="http://www.w3.org/1999/xlink" x="0px" y="0px"
	 width="32px" height="20px" viewBox="0 0 32 20" style="enable-background:new 0 0 32 20;" xml:space="preserve">
<style type="text/css">
	.st0{fill:#FFFFFF;}
	.st1{fill:#07A9E2;}
	.st2{fill:#009DDD;}
	.st3{fill:#0284CC;}
	.st4{fill:#FF2957;}
	.st5{fill:#ED1C2E;}
	.st6{fill:#0466B5;}
	.st7{fill:#D1094B;}
	.st8{fill:#DCE5E5;}
</style>
<rect x="0" class="st0" width="32" height="20"/>
<g>
	<g>
		<g>
			<path class="st1" d="M15.9,16.9c1.9-1.7,3.1-4.2,3.1-7s-1.2-5.2-3.1-7C14.3,1.4,12,0.5,9.6,0.5c-5.2,0-9.4,4.2-9.4,9.4
				s4.2,9.4,9.4,9.4C12,19.3,14.3,18.4,15.9,16.9L15.9,16.9z"/>
		</g>
	</g>
	<g>
		<g>
			<path class="st2" d="M0.2,9.9c0,5.2,4.2,9.4,9.4,9.4c2.4,0,4.6-0.9,6.3-2.4l0,0c1.9-1.7,3.1-4.2,3.1-7s-1.2-5.2-3.1-6.9
				C14.3,1.4,12,0.5,9.6,0.5"/>
		</g>
	</g>
	<g>
		<path class="st3" d="M15.9,2.9C14.3,1.4,12,0.5,9.6,0.5c-0.1,0-0.3,0-0.4,0C6.2,2.6,4.4,6.1,4.4,9.9s1.9,7.3,4.8,9.4
			c0.1,0,0.3,0,0.4,0c2.4,0,4.6-0.9,6.3-2.4c1.9-1.7,3.1-4.2,3.1-7S17.8,4.7,15.9,2.9z"/>
	</g>
	<g>
		<g>
			<path class="st4" d="M22.3,0.5c-2.4,0-4.6,0.9-6.3,2.4c-0.3,0.3-0.6,0.6-0.9,1h1.9c0.2,0.3,0.5,0.6,0.7,1h-3.3
				c-0.2,0.3-0.4,0.6-0.5,1h4.4c0.1,0.3,0.3,0.6,0.4,1h-5.2c-0.1,0.3-0.2,0.6-0.3,1h5.8C19,8.5,19,9.2,19,9.9c0,1-0.1,2-0.5,3h-5.2
				c0.1,0.3,0.2,0.6,0.4,1h4.4c-0.1,0.3-0.3,0.7-0.5,1h-3.3c0.2,0.3,0.4,0.7,0.7,1h1.9c-0.3,0.3-0.6,0.7-0.9,1
				c1.7,1.5,3.9,2.4,6.3,2.4c5.2,0,9.4-4.2,9.4-9.4C31.6,4.7,27.4,0.5,22.3,0.5L22.3,0.5z"/>
		</g>
	</g>
	<g>
		<g>
			<path class="st5" d="M22.3,0.5L22.3,0.5c-2.4,0-4.6,0.9-6.3,2.4c-0.3,0.3-0.6,0.6-0.9,1h1.9c0.2,0.3,0.5,0.6,0.7,1h-3.3
				c-0.2,0.3-0.4,0.6-0.5,1h4.4c0.1,0.3,0.3,0.6,0.4,1h-5.2c-0.1,0.3-0.2,0.6-0.3,1h5.8C19,8.5,19,9.2,19,9.9c0,1-0.1,2-0.5,3h-5.2
				c0.1,0.3,0.2,0.6,0.4,1h4.4c-0.1,0.3-0.3,0.7-0.5,1h-3.3c0.2,0.3,0.4,0.7,0.7,1h1.9c-0.3,0.3-0.6,0.7-0.9,1
				c1.7,1.5,3.9,2.4,6.3,2.4c5.2,0,9.4-4.2,9.4-9.4"/>
		</g>
	</g>
	<g>
		<g>
			<path class="st6" d="M15.9,16.9c1.9-1.7,3.1-4.2,3.1-7s-1.2-5.2-3.1-7V16.9L15.9,16.9z"/>
		</g>
	</g>
	<g>
		<g>
			<path class="st0" d="M28.4,11.9c0-0.1,0.1-0.3,0.3-0.3c0.1,0,0.3,0.1,0.3,0.3s-0.1,0.3-0.3,0.3C28.5,12.2,28.4,12.1,28.4,11.9
				L28.4,11.9z M28.7,12.2c0.1,0,0.2-0.1,0.2-0.2s-0.1-0.2-0.2-0.2c-0.1,0-0.2,0.1-0.2,0.2C28.4,12,28.6,12.2,28.7,12.2L28.7,12.2z
				 M28.7,12L28.7,12l0-0.2h0.1c0,0,0,0,0,0l0,0c0,0,0,0,0,0l0,0.1L28.7,12l0-0.1h0L28.7,12L28.7,12z M28.7,11.9L28.7,11.9
				C28.7,11.9,28.7,11.9,28.7,11.9C28.7,11.9,28.7,11.9,28.7,11.9L28.7,11.9L28.7,11.9L28.7,11.9L28.7,11.9L28.7,11.9z"/>
		</g>
	</g>
	<g>
		<path class="st7" d="M15.9,2.9c-0.3,0.3-0.6,0.6-0.9,1h1.9c0.2,0.3,0.5,0.6,0.7,1h-3.3c-0.2,0.3-0.4,0.6-0.5,1h4.4
			c0.1,0.3,0.3,0.6,0.4,1h-5.2c-0.1,0.3-0.2,0.6-0.3,1h5.8C19,8.5,19,9.2,19,9.9c0,1-0.1,2-0.5,3h-5.2c0.1,0.3,0.2,0.6,0.4,1h4.4
			c-0.1,0.3-0.3,0.7-0.5,1h-3.3c0.2,0.3,0.4,0.7,0.7,1h1.9c-0.3,0.3-0.6,0.7-0.9,1c1.7,1.5,3.9,2.4,6.3,2.4c0.1,0,0.3,0,0.4,0
			c2.9-2.1,4.8-5.5,4.8-9.4s-1.9-7.3-4.8-9.4c-0.1,0-0.3,0-0.4,0C19.8,0.5,17.6,1.4,15.9,2.9z"/>
	</g>
	<g>
		<g>
			<polygon class="st0" points="8.4,12.2 7.2,12.2 7.9,8.6 6.3,12.2 5.3,12.2 5.1,8.6 4.4,12.2 3.4,12.2 4.3,7.5 6.1,7.5 6.2,10.4 
				7.5,7.5 9.4,7.5 			"/>
		</g>
	</g>
	<g>
		<path class="st8" d="M7.3,10.1L8,8.6l-0.5,2.9c0,0.2,0.1,0.5,0.2,0.8h0.8l0.9-4.8H7.6C7.4,8.2,7.2,9.1,7.2,9.9
			C7.3,10,7.3,10,7.3,10.1z"/>
	</g>
	<g>
		<g>
			<path class="st8" d="M21.5,12.2c-0.3,0.1-0.5,0.1-0.8,0.1c-0.6,0-0.9-0.3-0.9-0.8c0-0.1,0-0.2,0-0.3l0-0.4l0-0.3l0.5-2.9h1.1
				l-0.1,0.9h0.6l-0.1,0.9h-0.6L21,10.9c0,0,0,0.1,0,0.1c0,0.2,0.1,0.3,0.4,0.3c0.1,0,0.2,0,0.3,0L21.5,12.2L21.5,12.2z"/>
		</g>
	</g>
	<g>
		<g>
			<path class="st8" d="M24.9,8.4c-0.1,0-0.1,0-0.1,0s-0.1,0-0.1,0c0,0,0,0-0.1,0c-0.4,0-0.6,0.1-1,0.6l0.1-0.6h-1l-0.7,3.9h1.2
				c0.4-2.4,0.6-2.8,1.1-2.8c0,0,0.1,0,0.1,0l0.1,0L24.9,8.4L24.9,8.4z"/>
		</g>
	</g>
	<g>
		<g>
			<path class="st8" d="M16.9,9.6c0,0.5,0.3,0.8,0.9,1c0.5,0.2,0.5,0.2,0.5,0.4c0,0.2-0.2,0.3-0.7,0.3c-0.3,0-0.7,0-1-0.1l-0.1,0.9
				h0l0.2,0c0,0,0.2,0,0.3,0c0.3,0,0.5,0,0.6,0c1.2,0,1.8-0.4,1.8-1.3c0-0.5-0.2-0.8-0.8-1.1c-0.5-0.2-0.5-0.2-0.5-0.4
				c0-0.2,0.2-0.3,0.6-0.3c0.2,0,0.5,0,0.8,0l0.1-0.9c-0.3,0-0.7,0-1,0C17.3,8.3,16.9,8.9,16.9,9.6L16.9,9.6z"/>
		</g>
	</g>
	<g>
		<g>
			<path class="st8" d="M12.2,12.2h-0.9v-0.4c-0.3,0.3-0.7,0.4-1.2,0.4c-0.6,0-1-0.4-1-1c0-0.9,0.7-1.5,2-1.5c0.1,0,0.3,0,0.5,0
				c0-0.1,0-0.2,0-0.2c0-0.2-0.2-0.3-0.7-0.3c-0.3,0-0.7,0-0.9,0.1l-0.1,0H9.6l0.1-0.8c0.6-0.1,0.9-0.2,1.4-0.2c1,0,1.5,0.4,1.5,1.1
				c0,0.2,0,0.3-0.1,0.8l-0.2,1.4l0,0.2l0,0.2L12.2,12.2L12.2,12.2L12.2,12.2z M11.4,10.5c-0.1,0-0.2,0-0.2,0c-0.6,0-1,0.2-1,0.6
				c0,0.2,0.1,0.4,0.4,0.4C11,11.5,11.4,11.1,11.4,10.5L11.4,10.5z"/>
		</g>
	</g>
	<g>
		<g>
			<path class="st8" d="M16.1,12.1c-0.4,0.1-0.8,0.1-1.2,0.1c-1.3,0-2-0.6-2-1.7c0-1.3,0.8-2.3,2-2.3c0.9,0,1.5,0.5,1.5,1.4
				c0,0.3,0,0.5-0.1,0.9H14c0,0,0,0.1,0,0.1c0,0.4,0.3,0.7,1,0.7c0.4,0,0.8,0,1.2-0.2L16.1,12.1L16.1,12.1z M15.5,9.8
				c0,0,0-0.1,0-0.2c0-0.3-0.2-0.5-0.5-0.5s-0.6,0.2-0.7,0.7H15.5L15.5,9.8z"/>
		</g>
	</g>
	<g>
		<g>
			<path class="st0" d="M28.6,10.5c-0.2,1.3-1.1,1.8-2.3,1.8c-1.3,0-1.8-0.8-1.8-1.8c0-1.3,0.9-2.3,2.3-2.3c1.2,0,1.8,0.8,1.8,1.7
				C28.6,10.2,28.6,10.2,28.6,10.5L28.6,10.5z M27.3,10c0-0.4-0.1-0.7-0.6-0.7c-0.6,0-0.9,0.7-0.9,1.3c0,0.5,0.2,0.8,0.6,0.8
				c0.2,0,0.8-0.3,0.9-0.9C27.3,10.3,27.3,10.1,27.3,10L27.3,10z"/>
		</g>
	</g>
	<g>
		<path class="st0" d="M24.5,11c0-0.3,0.1-0.7,0.1-1.1c0,0,0-0.1,0-0.1c0,0.2-0.1,0.5-0.1,0.8C24.4,10.7,24.4,10.8,24.5,11z"/>
	</g>
</g>
</svg>
