<?xml version="1.0" encoding="utf-8"?>
<!-- Generator: Adobe Illustrator 21.0.0, SVG Export Plug-In . SVG Version: 6.00 Build 0)  -->
<svg version="1.1" id="Layer_1" xmlns="http://www.w3.org/2000/svg" xmlns:xlink="http://www.w3.org/1999/xlink" x="0px" y="0px"
	 width="32px" height="20px" viewBox="0 0 32 20" style="enable-background:new 0 0 32 20;" xml:space="preserve">
<style type="text/css">
	.st0{fill:#FFFFFF;}
	.st1{fill:#FFB600;}
	.st2{fill:#F7981D;}
	.st3{fill:#FF8500;}
	.st4{fill:#FF5050;}
	.st5{fill:#E52836;}
	.st6{fill:#CB2026;}
	.st7{fill:#DCE5E5;}
</style>
<rect x="0" class="st0" width="32" height="20"/>
<g>
	<g>
		<g>
			<path class="st1" d="M31.4,10c0,5.1-4.1,9.2-9.2,9.2c-5.1,0-9.2-4.2-9.2-9.2l0,0c0-5.1,4.1-9.2,9.2-9.2
				C27.3,0.8,31.4,4.9,31.4,10L31.4,10z"/>
		</g>
	</g>
	<g>
		<g>
			<path class="st2" d="M22.2,0.8c5.1,0,9.2,4.2,9.2,9.2l0,0c0,5.1-4.1,9.2-9.2,9.2c-5.1,0-9.2-4.2-9.2-9.2"/>
		</g>
	</g>
	<g>
		<g>
			<path class="st3" d="M22.2,0.8c5.1,0,9.2,4.2,9.2,9.2l0,0c0,5.1-4.1,9.2-9.2,9.2"/>
		</g>
	</g>
	<g>
		<g>
			<path class="st4" d="M9.7,0.8c-5,0-9.1,4.2-9.1,9.2s4.1,9.2,9.2,9.2c2.4,0,4.5-0.9,6.2-2.4l0,0l0,0c0.3-0.3,0.6-0.6,0.9-1h-1.9
				c-0.2-0.3-0.5-0.6-0.7-0.9h3.3c0.2-0.3,0.4-0.6,0.5-1h-4.4c-0.1-0.3-0.3-0.6-0.4-1h5.1c0.3-0.9,0.5-1.9,0.5-2.9
				c0-0.7-0.1-1.3-0.2-2h-5.7c0-0.3,0.1-0.6,0.2-1h5.1c-0.1-0.3-0.2-0.7-0.4-1h-4.3c0.1-0.3,0.3-0.6,0.5-1h3.3
				c-0.2-0.3-0.4-0.7-0.7-1h-1.8c0.3-0.3,0.6-0.6,0.9-0.9C14.4,1.7,12.2,0.9,9.7,0.8C9.8,0.8,9.8,0.8,9.7,0.8z"/>
		</g>
	</g>
	<g>
		<g>
			<path class="st5" d="M0.6,10c0,5.1,4.1,9.2,9.2,9.2c2.4,0,4.5-0.9,6.2-2.4l0,0l0,0c0.3-0.3,0.6-0.6,0.9-1h-1.9
				c-0.2-0.3-0.5-0.6-0.7-0.9h3.3c0.2-0.3,0.4-0.6,0.5-1h-4.4c-0.1-0.3-0.3-0.6-0.4-1h5.1c0.3-0.9,0.5-1.9,0.5-2.9
				c0-0.7-0.1-1.3-0.2-2h-5.7c0-0.3,0.1-0.6,0.2-1h5.1c-0.1-0.3-0.2-0.7-0.4-1h-4.3c0.1-0.3,0.3-0.6,0.5-1h3.3
				c-0.2-0.3-0.4-0.7-0.7-1h-1.8c0.3-0.3,0.6-0.6,0.9-0.9c-1.6-1.5-3.8-2.4-6.2-2.4h0"/>
		</g>
	</g>
	<g>
		<g>
			<path class="st6" d="M9.8,19.2c2.4,0,4.5-0.9,6.2-2.4l0,0l0,0c0.3-0.3,0.6-0.6,0.9-1h-1.9c-0.2-0.3-0.5-0.6-0.7-0.9h3.3
				c0.2-0.3,0.4-0.6,0.5-1h-4.4c-0.1-0.3-0.3-0.6-0.4-1h5.1c0.3-0.9,0.5-1.9,0.5-2.9c0-0.7-0.1-1.3-0.2-2h-5.7c0-0.3,0.1-0.6,0.2-1
				h5.1c-0.1-0.3-0.2-0.7-0.4-1h-4.3c0.1-0.3,0.3-0.6,0.5-1h3.3c-0.2-0.3-0.4-0.7-0.7-1h-1.8c0.3-0.3,0.6-0.6,0.9-0.9
				c-1.6-1.5-3.8-2.4-6.2-2.4h0"/>
		</g>
	</g>
	<g>
		<g>
			<g>
				<path class="st0" d="M13.1,12.3l0.1-0.8c0,0-0.1,0-0.2,0c-0.3,0-0.4-0.2-0.3-0.3L13,9.6h0.5l0.1-0.9h-0.5L13.3,8h-1
					c0,0-0.6,3.2-0.6,3.6c0,0.6,0.3,0.8,0.8,0.8C12.8,12.5,13,12.4,13.1,12.3z"/>
			</g>
		</g>
		<g>
			<g>
				<path class="st0" d="M13.5,10.8c0,1.4,0.9,1.7,1.7,1.7c0.7,0,1-0.1,1-0.1l0.2-0.9c0,0-0.5,0.2-1,0.2c-1.1,0-0.9-0.8-0.9-0.8h2
					c0,0,0.1-0.6,0.1-0.9c0-0.6-0.3-1.4-1.4-1.4C14.2,8.5,13.5,9.6,13.5,10.8z M15.2,9.4c0.5,0,0.4,0.6,0.4,0.7h-1.1
					C14.5,10,14.6,9.4,15.2,9.4z"/>
			</g>
		</g>
		<g>
			<g>
				<path class="st0" d="M21.4,12.3l0.2-1.1c0,0-0.5,0.2-0.8,0.2c-0.7,0-1-0.5-1-1.1c0-1.2,0.6-1.8,1.3-1.8c0.5,0,0.9,0.3,0.9,0.3
					l0.1-1c0,0-0.6-0.2-1.1-0.2c-1.1,0-2.2,1-2.2,2.8c0,1.2,0.6,2.1,1.8,2.1C20.8,12.5,21.4,12.3,21.4,12.3z"/>
			</g>
		</g>
		<g>
			<g>
				<path class="st0" d="M7.7,8.5c-0.7,0-1.2,0.2-1.2,0.2L6.4,9.5c0,0,0.4-0.2,1.1-0.2c0.3,0,0.6,0,0.6,0.3c0,0.2,0,0.2,0,0.2
					s-0.3,0-0.4,0c-0.8,0-1.8,0.3-1.8,1.5c0,0.9,0.6,1.1,0.9,1.1c0.7,0,1-0.4,1-0.4l0,0.4h0.9l0.4-2.7C9.1,8.5,8.1,8.5,7.7,8.5z
					 M7.9,10.7c0,0.1-0.1,0.9-0.7,0.9c-0.3,0-0.4-0.2-0.4-0.4c0-0.2,0.1-0.6,0.9-0.6C7.9,10.7,7.9,10.7,7.9,10.7z"/>
			</g>
		</g>
		<g>
			<g>
				<path class="st0" d="M10,12.4c0.2,0,1.5,0,1.5-1.3c0-1.2-1.2-1-1.2-1.5c0-0.2,0.2-0.3,0.5-0.3c0.1,0,0.7,0,0.7,0l0.1-0.9
					c0,0-0.3-0.1-0.9-0.1c-0.7,0-1.5,0.3-1.5,1.3c0,1.1,1.2,1,1.2,1.5c0,0.3-0.3,0.3-0.6,0.3c-0.4,0-0.9-0.1-0.9-0.1l-0.1,0.9
					C8.9,12.3,9.2,12.4,10,12.4z"/>
			</g>
		</g>
		<g>
			<g>
				<path class="st0" d="M29.5,7.7L29.3,9c0,0-0.4-0.5-0.9-0.5c-0.9,0-1.7,1.1-1.7,2.3c0,0.8,0.4,1.6,1.2,1.6c0.6,0,0.9-0.4,0.9-0.4
					l0,0.3h1l0.7-4.7L29.5,7.7z M29.1,10.3c0,0.5-0.2,1.2-0.8,1.2c-0.3,0-0.5-0.3-0.5-0.8c0-0.8,0.3-1.3,0.8-1.3
					C28.9,9.5,29.1,9.7,29.1,10.3z"/>
			</g>
		</g>
		<g>
			<g>
				<path class="st0" d="M2.4,12.4L3,8.9l0.1,3.5h0.7L5,8.9l-0.5,3.5h1l0.8-4.7H4.7l-1,2.9l0-2.9H2.3l-0.8,4.7H2.4z"/>
			</g>
		</g>
		<g>
			<g>
				<path class="st0" d="M17.6,12.4c0.3-1.6,0.3-2.9,1-2.7c0.1-0.6,0.2-0.9,0.3-1.1c0,0,0,0-0.2,0c-0.4,0-0.8,0.6-0.8,0.6l0.1-0.5
					h-0.9l-0.6,3.8L17.6,12.4L17.6,12.4z"/>
			</g>
		</g>
		<g>
			<g>
				<path class="st0" d="M23.6,8.5c-0.7,0-1.2,0.2-1.2,0.2l-0.1,0.8c0,0,0.4-0.2,1.1-0.2c0.3,0,0.6,0,0.6,0.3c0,0.2,0,0.2,0,0.2
					s-0.3,0-0.4,0c-0.8,0-1.8,0.3-1.8,1.5c0,0.9,0.6,1.1,0.9,1.1c0.7,0,1-0.4,1-0.4l0,0.4h0.9l0.4-2.7C25,8.5,24,8.5,23.6,8.5z
					 M23.9,10.7c0,0.1-0.1,0.9-0.7,0.9c-0.3,0-0.4-0.2-0.4-0.4c0-0.2,0.1-0.6,0.9-0.6C23.8,10.7,23.8,10.7,23.9,10.7z"/>
			</g>
		</g>
		<g>
			<g>
				<path class="st0" d="M25.8,12.4c0.3-1.6,0.3-2.9,1-2.7c0.1-0.6,0.2-0.9,0.3-1.1c0,0,0,0-0.2,0c-0.4,0-0.8,0.6-0.8,0.6l0.1-0.5
					h-0.9l-0.6,3.8L25.8,12.4L25.8,12.4z"/>
			</g>
		</g>
	</g>
	<g>
		<g>
			<g>
				<path class="st7" d="M11.6,11.7c0,0.6,0.3,0.8,0.8,0.8c0.3,0,0.6-0.1,0.7-0.1l0.1-0.8c0,0-0.1,0-0.2,0c-0.3,0-0.4-0.2-0.3-0.3
					L13,9.6h0.5l0.1-0.9h-0.5L13.3,8"/>
			</g>
		</g>
		<g>
			<g>
				<path class="st7" d="M13.9,10.8c0,1.4,0.4,1.7,1.2,1.7c0.7,0,1-0.1,1-0.1l0.2-0.9c0,0-0.5,0.2-1,0.2c-1.1,0-0.9-0.8-0.9-0.8h2
					c0,0,0.1-0.6,0.1-0.9c0-0.6-0.3-1.4-1.4-1.4C14.2,8.5,13.9,9.6,13.9,10.8z M15.2,9.4c0.5,0,0.6,0.6,0.6,0.7h-1.3
					C14.5,10,14.6,9.4,15.2,9.4z"/>
			</g>
		</g>
		<g>
			<g>
				<path class="st7" d="M21.4,12.3l0.2-1.1c0,0-0.5,0.2-0.8,0.2c-0.7,0-1-0.5-1-1.1c0-1.2,0.6-1.8,1.3-1.8c0.5,0,0.9,0.3,0.9,0.3
					l0.1-1c0,0-0.6-0.2-1.1-0.2c-1.1,0-1.8,1-1.8,2.8c0,1.2,0.1,2.1,1.3,2.1C20.8,12.5,21.4,12.3,21.4,12.3z"/>
			</g>
		</g>
		<g>
			<g>
				<path class="st7" d="M6.4,9.6c0,0,0.4-0.2,1.1-0.2c0.3,0,0.6,0,0.6,0.3c0,0.2,0,0.2,0,0.2s-0.3,0-0.4,0c-0.8,0-1.8,0.3-1.8,1.5
					c0,0.9,0.6,1.1,0.9,1.1c0.7,0,1-0.4,1-0.4l0,0.4h0.9l0.4-2.7c0-1.1-1-1.2-1.4-1.2 M8.4,10.7c0,0.1-0.6,0.9-1.2,0.9
					c-0.3,0-0.4-0.2-0.4-0.4c0-0.2,0.1-0.6,0.9-0.6C7.9,10.7,8.4,10.7,8.4,10.7z"/>
			</g>
		</g>
		<g>
			<g>
				<path class="st7" d="M8.9,12.3c0,0,0.3,0.1,1.1,0.1c0.2,0,1.5,0,1.5-1.3c0-1.2-1.2-1-1.2-1.5c0-0.2,0.2-0.3,0.5-0.3
					c0.1,0,0.7,0,0.7,0l0.1-0.9c0,0-0.3-0.1-0.9-0.1c-0.7,0-1,0.3-1,1.3c0,1.1,0.7,1,0.7,1.5c0,0.3-0.3,0.3-0.6,0.3"/>
			</g>
		</g>
		<g>
			<g>
				<path class="st7" d="M29.3,9c0,0-0.4-0.5-0.9-0.5c-0.9,0-1.2,1.1-1.2,2.3c0,0.8-0.1,1.6,0.7,1.6c0.6,0,0.9-0.4,0.9-0.4l0,0.3h1
					l0.7-4.7 M29.3,10.3c0,0.5-0.4,1.2-1,1.2c-0.3,0-0.5-0.3-0.5-0.8c0-0.8,0.3-1.3,0.8-1.3C28.9,9.5,29.3,9.7,29.3,10.3z"/>
			</g>
		</g>
		<g>
			<g>
				<path class="st7" d="M2.4,12.4L3,8.9l0.1,3.5h0.7L5,8.9l-0.5,3.5h1l0.8-4.7H5.1l-1.4,2.9l0-2.9H3.1l-1.7,4.7H2.4z"/>
			</g>
		</g>
		<g>
			<g>
				<path class="st7" d="M16.5,12.4h1c0.3-1.6,0.3-2.9,1-2.7c0.1-0.6,0.2-0.9,0.3-1.1c0,0,0,0-0.2,0c-0.4,0-0.8,0.6-0.8,0.6l0.1-0.5
					"/>
			</g>
		</g>
		<g>
			<g>
				<path class="st7" d="M22.3,9.6c0,0,0.4-0.2,1.1-0.2c0.3,0,0.6,0,0.6,0.3c0,0.2,0,0.2,0,0.2s-0.3,0-0.4,0c-0.8,0-1.8,0.3-1.8,1.5
					c0,0.9,0.6,1.1,0.9,1.1c0.7,0,1-0.4,1-0.4l0,0.4h0.9l0.4-2.7c0-1.1-1-1.2-1.4-1.2 M24.3,10.7c0,0.1-0.6,0.9-1.2,0.9
					c-0.3,0-0.4-0.2-0.4-0.4c0-0.2,0.1-0.6,0.9-0.6C23.8,10.7,24.3,10.7,24.3,10.7z"/>
			</g>
		</g>
		<g>
			<g>
				<path class="st7" d="M24.8,12.4h1c0.3-1.6,0.3-2.9,1-2.7c0.1-0.6,0.2-0.9,0.3-1.1c0,0,0,0-0.2,0c-0.4,0-0.8,0.6-0.8,0.6l0.1-0.5
					"/>
			</g>
		</g>
	</g>
</g>
</svg>
