<?xml version="1.0" encoding="utf-8"?>
<!-- Generator: Adobe Illustrator 21.0.0, SVG Export Plug-In . SVG Version: 6.00 Build 0)  -->
<svg version="1.1" id="Слой_1" xmlns="http://www.w3.org/2000/svg" xmlns:xlink="http://www.w3.org/1999/xlink" x="0px" y="0px"
	 width="32px" height="20px" viewBox="0 0 32 20" style="enable-background:new 0 0 32 20;" xml:space="preserve">
<style type="text/css">
	.st0{fill:#FFFFFF;}
	.st1{fill:#2D3540;}
	.st2{fill:#FF8C00;}
</style>
<rect class="st0" width="32" height="20"/>
<path class="st1" d="M15.4,9.9h0.5V11h0.4l0.7-1.1h0.5l-0.8,1.3v0l0.8,1.4h-0.6l-0.7-1.2h-0.4v1.2h-0.5L15.4,9.9L15.4,9.9L15.4,9.9z
	 M18.6,10.6c0.6,0,1.1,0.4,1.1,1c0,0.6-0.5,1-1.1,1c-0.6,0-1.1-0.4-1.1-1C17.5,11.1,18,10.6,18.6,10.6z M20.1,10.7h0.5v1.6h0.6v-1.6
	h0.5v1.6h0.6v-1.6h0.5v2h-2.6L20.1,10.7C20.1,10.7,20.1,10.7,20.1,10.7z M24.2,10.6c0.6,0,0.9,0.4,0.9,0.9c0,0.1,0,0.1,0,0.2h-1.4
	c0,0.3,0.3,0.5,0.6,0.5c0.2,0,0.4-0.1,0.6-0.2l0.2,0.4c-0.2,0.2-0.5,0.3-0.8,0.3c-0.7,0-1.1-0.5-1.1-1
	C23.1,11.1,23.6,10.6,24.2,10.6z M25.3,12.3c0.2,0,0.4-0.2,0.4-0.9v-0.6h1.5v2h-0.5v-1.6h-0.5v0.2c0,0.9-0.2,1.4-0.9,1.4V12.3
	L25.3,12.3z M28.5,10.6c0.6,0,0.9,0.4,0.9,0.9c0,0.1,0,0.1,0,0.2H28c0,0.3,0.3,0.5,0.6,0.5c0.2,0,0.4-0.1,0.6-0.2l0.2,0.4
	c-0.2,0.2-0.5,0.3-0.8,0.3c-0.7,0-1.1-0.5-1.1-1C27.5,11.1,28,10.6,28.5,10.6z M29.8,10.7h0.5v0.8h0.2l0.5-0.8h0.5L31,11.6v0l0.7,1
	h-0.6l-0.5-0.8h-0.3v0.8h-0.5L29.8,10.7L29.8,10.7L29.8,10.7z M18.6,12.3c0.3,0,0.6-0.3,0.6-0.6c0-0.4-0.3-0.6-0.6-0.6
	c-0.3,0-0.6,0.3-0.6,0.6C18,12,18.3,12.3,18.6,12.3z M24.5,11.4c0-0.3-0.2-0.4-0.4-0.4c-0.3,0-0.4,0.2-0.5,0.4
	C23.6,11.4,24.5,11.4,24.5,11.4z M28.9,11.4c0-0.3-0.2-0.4-0.4-0.4c-0.3,0-0.4,0.2-0.5,0.4C28,11.4,28.9,11.4,28.9,11.4z"/>
<path class="st2" d="M22.3,3.9v4.7c0,0.1-0.1,0.1-0.1,0.1c0,0,0,0,0,0h-1c-0.1,0-0.1-0.1-0.1-0.1c0,0,0,0,0,0V3.9
	c0-0.1,0.1-0.1,0.1-0.1c0,0,0,0,0,0h1C22.2,3.7,22.3,3.8,22.3,3.9C22.3,3.9,22.3,3.9,22.3,3.9z"/>
<path class="st2" d="M29.8,3.7c0,0,0.1,0,0.1,0.1c0,0,0,0.1,0,0.1l-1.6,4.7c0,0-0.1,0.1-0.1,0.1h-0.9c-0.1,0-0.1,0-0.1-0.1l-0.9-2.7
	l-0.9,2.7c0,0-0.1,0.1-0.1,0.1h-0.9c-0.1,0-0.1,0-0.1-0.1l-1.6-4.7c0,0,0-0.1,0-0.1c0,0,0.1-0.1,0.1-0.1h1.1c0.1,0,0.1,0,0.1,0.1
	l0.8,2.8l0.9-2.8c0,0,0.1-0.1,0.1-0.1h0.8c0.1,0,0.1,0,0.1,0.1l0.9,2.8l0.8-2.8c0-0.1,0.1-0.1,0.1-0.1H29.8L29.8,3.7z"/>
<path class="st2" d="M31.4,3.7c0.1,0,0.1,0.1,0.1,0.1v4.7c0,0.1-0.1,0.1-0.1,0.1c0,0,0,0,0,0h-1c-0.1,0-0.1-0.1-0.1-0.1c0,0,0,0,0,0
	V3.9c0-0.1,0.1-0.1,0.1-0.1c0,0,0,0,0,0H31.4z"/>
<path class="st2" d="M20.5,8.5c0.1,0.1,0,0.2-0.1,0.2h-1.2c0,0-0.1,0-0.1-0.1L19,8.4c-0.4,0.3-0.9,0.4-1.4,0.4
	c-1.4,0-2.6-1.2-2.6-2.6s1.2-2.6,2.6-2.6c1.4,0,2.6,1.2,2.6,2.6c0,0.5-0.1,1-0.4,1.4L20.5,8.5L20.5,8.5z"/>
<path class="st2" d="M10.7,10.8c0.2,0.1,0.3,0.5,0.4,0.6c0,0.3,0,0.4-0.1,0.4s-0.2-0.1-0.4-0.3c-0.1-0.2-0.2-0.5-0.1-0.6
	C10.5,10.8,10.6,10.8,10.7,10.8L10.7,10.8z"/>
<path class="st2" d="M9.3,11.9c0.1,0,0.3,0.1,0.5,0.2c0.3,0.2,0.4,0.5,0.2,0.7c-0.1,0.1-0.2,0.2-0.4,0.2s-0.3-0.1-0.4-0.2
	C8.9,12.6,8.9,12.2,9,12C9.1,11.9,9.2,11.9,9.3,11.9z"/>
<path class="st2" d="M6.9,14.5c-3.5,0-6.4-2.9-6.4-6.4s2.9-6.4,6.4-6.4c3.5,0,6.4,2.9,6.4,6.4c0,1.2-0.3,2.3-0.9,3.3
	c0,0-0.1,0-0.1,0C12.1,9.8,11.2,9,9.8,8.7c-0.1,0-0.1-0.1,0-0.1c0.4,0,1,0,1.3,0c0-0.2,0-0.3,0-0.5c0-2.3-1.9-4.2-4.2-4.2
	c-2.3,0-4.2,1.9-4.2,4.2s1.9,4.2,4.2,4.2h0.2C7.1,12,7,11.6,7,11.2c0-0.3,0.1-0.3,0.2-0.1c0.6,1,1.4,1.9,3.1,2.3
	c1.3,0.3,2.7,0.6,4.1,2.5c0.1,0.2-0.1,0.3-0.2,0.2c-1.5-1.3-2.8-1.7-4-1.7C8.8,14.4,7.9,14.5,6.9,14.5L6.9,14.5z"/>
<path class="st0" d="M18.2,7.5l-0.5-0.6c-0.1-0.1,0-0.2,0.1-0.2h1.1c0.1-0.1,0.1-0.3,0.1-0.5c0-0.8-0.6-1.4-1.4-1.4
	c-0.8,0-1.4,0.7-1.4,1.4s0.6,1.4,1.4,1.4C17.8,7.7,18,7.6,18.2,7.5z"/>
</svg>
