<?xml version="1.0" encoding="utf-8"?>
<!-- Generator: Adobe Illustrator 21.0.0, SVG Export Plug-In . SVG Version: 6.00 Build 0)  -->
<svg version="1.1" id="Слой_1" xmlns="http://www.w3.org/2000/svg" xmlns:xlink="http://www.w3.org/1999/xlink" x="0px" y="0px"
	 width="32px" height="20px" viewBox="0 0 32 20" style="enable-background:new 0 0 32 20;" xml:space="preserve">
<style type="text/css">
	.st0{fill:#FFFFFF;}
	.st1{fill:#FCB315;}
	.st2{fill:#0D357F;}
</style>
<g transform="matrix(4.16667,0,0,4.16667,0,0)">
	<rect x="0" y="0" class="st0" width="7.7" height="4.8"/>
	<rect x="0.1" y="4" class="st1" width="7.4" height="0.7"/>
	<rect x="0.1" y="0.1" class="st2" width="7.4" height="0.7"/>
	<path class="st2" d="M3.8,1.5L3.4,3.3H2.9l0.4-1.8H3.8z M5.8,2.7L6,2l0.1,0.7H5.8z M6.3,3.3h0.4L6.4,1.5H5.9
		c-0.1,0-0.2,0.1-0.2,0.1L5,3.3h0.5L5.6,3h0.6L6.3,3.3z M5.1,2.7c0-0.5-0.7-0.5-0.7-0.7c0-0.1,0.1-0.1,0.2-0.2c0.1,0,0.3,0,0.5,0.1
		l0.1-0.4C5,1.5,4.9,1.5,4.7,1.5c-0.5,0-0.8,0.2-0.8,0.6c0,0.3,0.2,0.4,0.4,0.5c0.2,0.1,0.2,0.1,0.2,0.2C4.6,2.9,4.4,3,4.3,3
		C4,3,3.9,2.9,3.8,2.8L3.7,3.2C3.8,3.3,4,3.3,4.2,3.3C4.7,3.3,5.1,3.1,5.1,2.7z M3.1,1.5L2.3,3.3H1.8L1.5,1.9c0-0.1,0-0.1-0.1-0.2
		C1.2,1.6,1,1.6,0.9,1.5l0-0.1h0.8c0.1,0,0.2,0.1,0.2,0.2l0.2,1.1l0.5-1.2H3.1z"/>
</g>
</svg>
