<?xml version="1.0" encoding="utf-8"?>
<!-- Generator: Adobe Illustrator 21.0.0, SVG Export Plug-In . SVG Version: 6.00 Build 0)  -->
<svg version="1.1" id="Слой_1" xmlns="http://www.w3.org/2000/svg" xmlns:xlink="http://www.w3.org/1999/xlink" x="0px" y="0px"
	 width="32px" height="20px" viewBox="0 0 32 20" style="enable-background:new 0 0 32 20;" xml:space="preserve">
<style type="text/css">
	.st0{fill:#FCFCFC;}
	.st1{fill:#036CB5;}
</style>
<rect class="st0" width="32" height="20"/>
<g>
	<path id="Combined-Shape" class="st1" d="M25.7,0.8c0.8,0,1.6,0.2,2.3,0.5c0.1,0.1,0.2,0.1,0.4,0.2L27.9,2l-0.7-0.7l-1.2,1.1
		l-0.7-0.8l-2.3,2l1.4,1.6l-0.6,0.4l1.4,1.6l-0.5,0.5l2,2.2l1.2-1.1l1.1,1.1c-0.2,0.2-0.4,0.4-0.7,0.4c-0.8,0.4-1.6,0.7-2.6,0.7
		c-2.8,0-5.2-2.3-5.2-5.1C20.5,3.2,22.8,0.8,25.7,0.8z M24.7,5.7l1.2-1.1l1.1,1.2l-1.2,1.1L24.7,5.7z M25.6,7.8l1.2-1.1L28,7.9
		L26.7,9L25.6,7.8z M23.8,3.6l1.2-1.1l1.1,1.2L25,4.8L23.8,3.6z M26.1,3L27,2.3l0.8,0.9l-0.9,0.8L26.1,3z M27.7,6.8L28.6,6l0.8,0.9
		l-0.9,0.8L27.7,6.8z M28.6,8.6l0.9-0.8l0.8,0.9l-0.9,0.8L28.6,8.6z M28.9,4.4l0.6-0.5l0.5,0.6L29.5,5L28.9,4.4z M28.1,2.6l0.6-0.5
		l0.5,0.6l-0.6,0.5L28.1,2.6z M29.7,6.2l0.6-0.5l0.5,0.6l-0.6,0.5L29.7,6.2z M26.9,4.8L27.8,4l0.8,0.9l-0.9,0.8L26.9,4.8z"/>
	<g id="Group-27" transform="translate(0.000000, 2.608752)">
		<polygon id="Fill-25" class="st1" points="5,3 4.9,3 3.6,7.7 2.6,7.7 1.1,1.1 2.1,1.1 3.2,6 3.2,6 4.5,1.1 5.4,1.1 6.6,6 6.7,6 
			7.6,1.1 8.7,1.1 7.2,7.7 6.2,7.7 		"/>
	</g>
	<path id="Fill-28" class="st1" d="M10.1,7.5h2.1c0-1-0.5-1.4-1-1.4C10.6,6.1,10.1,6.6,10.1,7.5 M13,9.2V10c-0.4,0.2-1,0.4-1.6,0.4
		c-1.6,0-2.2-1-2.2-2.5c0-1.4,0.7-2.5,2.1-2.5c1.1,0,1.9,0.7,1.9,2.2V8H10c0,1.1,0.5,1.6,1.4,1.6C12,9.7,12.5,9.6,13,9.2"/>
	<path id="Fill-30" class="st1" d="M15.2,9.7c0.2,0.1,0.6,0.1,0.9,0.1c0.7,0,1.2-0.4,1.2-2c0-1.2-0.4-1.6-1-1.6
		c-0.4,0-0.6,0.1-1,0.2L15.2,9.7L15.2,9.7z M15.2,5.9c0.2-0.1,0.7-0.4,1.2-0.4c1.1,0,1.7,0.7,1.7,2.2c0,1.7-0.9,2.6-2.2,2.6
		c-0.5,0-1.2-0.1-1.9-0.5V3.5l1-0.2L15.2,5.9L15.2,5.9z"/>
	<polygon id="Fill-32" class="st1" points="5,16.4 5,16.4 6.7,11.9 7.7,11.9 7.7,17.6 6.9,17.6 6.9,13.5 6.7,13.5 5.1,17.6 
		4.6,17.6 2.9,13.6 2.9,13.6 2.9,17.6 2.2,17.6 2.2,11.9 3.2,11.9 	"/>
	<path id="Fill-34" class="st1" d="M11.2,15.6c0-1.1-0.5-1.5-0.9-1.5c-0.5,0-0.9,0.5-0.9,1.5c0,1.1,0.5,1.5,0.9,1.5
		S11.2,16.7,11.2,15.6 M8.4,15.6c0-1.4,0.8-2.1,1.8-2.1c1.1,0,1.8,0.7,1.8,2.1s-0.7,2.1-1.8,2.1C9.2,17.7,8.4,17,8.4,15.6"/>
	<path id="Fill-36" class="st1" d="M12.8,14.1c0.4-0.2,1.2-0.6,2-0.6c0.9,0,1.3,0.4,1.3,1.2v3h-0.8v-2.7c0-0.6-0.4-0.7-0.7-0.7
		s-0.7,0.1-0.9,0.2v3.2h-0.8V14.1L12.8,14.1z"/>
	<path id="Fill-38" class="st1" d="M17.9,15.3h1.9c0-0.8-0.5-1.2-0.8-1.2C18.3,14.1,18,14.4,17.9,15.3 M20.3,16.8v0.6
		c-0.4,0.2-0.8,0.4-1.4,0.4c-1.3,0-1.9-0.8-1.9-2.1c0-1.2,0.6-2.1,1.8-2.1c0.9,0,1.7,0.7,1.7,2v0.4h-2.6c0,0.9,0.4,1.4,1.2,1.4
		C19.5,17.2,19.9,17,20.3,16.8"/>
	<path id="Fill-40" class="st1" d="M23.8,13.5h0.8l-1.4,4c-0.4,1.1-0.9,1.7-1.8,1.7v-0.7c0.6,0,0.8-0.5,1.1-1.1l-1.5-4h0.8l1.1,3.1
		l0,0L23.8,13.5z"/>
</g>
</svg>
