<?xml version="1.0" encoding="utf-8"?>
<!-- Generator: Adobe Illustrator 21.0.0, SVG Export Plug-In . SVG Version: 6.00 Build 0)  -->
<svg version="1.1" id="Layer_1" xmlns="http://www.w3.org/2000/svg" xmlns:xlink="http://www.w3.org/1999/xlink" x="0px" y="0px"
	 width="32px" height="20px" viewBox="0 0 32 20" style="enable-background:new 0 0 32 20;" xml:space="preserve">
<style type="text/css">
	.st0{fill:#FFFFFF;}
	.st1{fill:#FFCF01;}
	.st2{fill:#D3AB07;}
	.st3{fill:#ED2224;}
	.st4{fill:#010101;}
</style>
<rect y="0" class="st0" width="32" height="20"/>
<g>
	<g>
		<path class="st1" d="M25.8,5.4c0-0.5,0-0.8,0.8-1.6c0.7-0.7,2.8-2.9,2.8-2.9v3.7h1.6V10h-4.8c-0.3,0-0.5-0.3-0.5-0.7V5.4z"/>
		<g>
			<g>
				<polygon class="st2" points="29.5,4.6 29.5,6.8 26.5,9.4 30.3,7.8 30.3,4.6 				"/>
				<path d="M28.1,4.5c0.2-0.3,0.4-0.4,0.6-0.2c0.1,0.1,0.1,0.5-0.1,0.8S28.2,5.4,28,5.3C27.9,5.1,27.9,4.8,28.1,4.5"/>
			</g>
		</g>
	</g>
	<path class="st3" d="M3.5,6.7L2.2,9.4h-1l1.4-2.9C2,6.2,1.5,5.7,1.5,4.7c0-1.5,1-2.2,2.2-2.2H5v6.9H4.1V6.7
		C4.1,6.7,3.5,6.7,3.5,6.7z M4.2,3.1H3.7c-0.7,0-1.3,0.4-1.3,1.6c0,1.1,0.6,1.5,1.3,1.5h0.4C4.2,6.1,4.2,3.1,4.2,3.1z"/>
	<path class="st4" d="M9,4.5v4.9H8.1V7.2H6.9v2.2H6V4.5h0.8v2.1h1.2V4.5C8.1,4.5,9,4.5,9,4.5z M13.2,10.4h-0.7v-1h-2.3v1H9.5V8.8
		h0.3c0.5-1,0.5-2.6,0.5-3.8V4.5h2.5v4.3h0.4L13.2,10.4L13.2,10.4z M12,5.1h-0.9v0.1c0,1,0,2.5-0.5,3.6H12V5.1z M15.5,9.4
		c-1.1,0-1.8-0.8-1.8-2.3c0-1.6,0.5-2.7,1.6-2.7c0.9,0,1.5,0.6,1.5,2.3v0.4h-2.2c0,1.1,0.3,1.7,1,1.7c0.5,0,0.8-0.2,1.1-0.3L16.9,9
		C16.5,9.3,16.1,9.4,15.5,9.4z M14.6,6.5H16C16,5.6,15.9,5,15.4,5C14.8,5.1,14.7,5.6,14.6,6.5z M18.5,7v2.4h-0.8V4.5h0.8v2.3
		l1.3-2.3h0.8l-1.4,2.3l1.5,2.6h-0.9L18.5,7z M21,6.9c0-1.5,0.7-2.5,1.9-2.5c0.5,0,0.8,0.1,1,0.3l-0.1,0.7c-0.2-0.2-0.5-0.3-0.9-0.3
		c-0.6,0-1,0.6-1,1.8s0.3,1.9,1,1.9c0.4,0,0.7-0.1,0.9-0.3l0.2,0.5c-0.3,0.2-0.6,0.4-1.1,0.4C21.7,9.4,21,8.6,21,6.9z"/>
	<path class="st4" d="M5.8,17.8H1.4L1.3,19H0.7v-1.6H1c0.5-0.3,0.8-1.1,0.9-2c0.1-1,0.2-2.6,0.2-4.5h3.7v6.5h0.7V19H5.9L5.8,17.8z
		 M5.1,11.2H2.8c0,1.8-0.1,3.1-0.2,4.1c-0.1,1-0.4,1.7-0.8,2h3.3V11.2z"/>
	<path class="st4" d="M9.6,17.5c1,0,1.5-0.5,1.5-0.5l0.2,0.4c0,0-0.5,0.5-1.7,0.5c-1.6,0-2.3-1-2.3-2.6c0-1.6,0.9-2.6,2.2-2.6
		c1.3,0,2.1,0.9,1.9,2.6H8C8,16.8,8.5,17.5,9.6,17.5z M8,15h2.7c0.1-1.3-0.5-1.9-1.2-1.9C8.6,13.2,8,13.8,8,15z"/>
	<path class="st4" d="M15.8,15.4h-2.5v2.4h-0.7v-4.9h0.7V15h2.5v-2.2h0.7v4.9h-0.7V15.4z"/>
	<path class="st4" d="M18.1,12.9h0.7v1.8h0.5c1.4,0,2.3,0.5,2.3,1.5c0,1-1,1.6-2.4,1.6h-1.2V12.9z M18.8,15.1v2.4h0.4
		c1,0,1.8-0.3,1.8-1.2c0-0.8-0.6-1.2-1.7-1.2L18.8,15.1L18.8,15.1z"/>
	<path class="st4" d="M23.5,13.3v4.5h-0.7v-4.9H26v0.4L23.5,13.3L23.5,13.3z"/>
	<path class="st4" d="M30.5,14.4c0-0.3,0-0.5,0.1-0.7h0c-0.1,0.2-0.2,0.4-0.4,0.6l-2.4,3.4h-0.6v-4.9h0.7v3.4c0,0.3,0,0.5-0.1,0.7h0
		c0.1-0.2,0.3-0.4,0.4-0.7l2.4-3.4h0.6v4.9h-0.7V14.4z"/>
</g>
</svg>
