<svg width="50" height="50" viewBox="0 0 50 50" fill="none" xmlns="http://www.w3.org/2000/svg">
    <path fill-rule="evenodd" clip-rule="evenodd" d="M25 50C38.8071 50 50 38.8071 50 25C50 11.1929 38.8071 9.78513e-07 25 2.18557e-06C11.1929 -4.22072e-07 4.22071e-07 11.1929 -2.18557e-06 25C-9.78513e-07 38.8071 11.1929 50 25 50ZM30.2273 16.3384C30.8131 15.7527 30.8131 14.8029 30.2273 14.2171C29.6415 13.6313 28.6918 13.6313 28.106 14.2171L18.3838 23.9393C17.798 24.5251 17.798 25.4749 18.3838 26.0607L28.106 35.7829C28.6918 36.3687 29.6415 36.3687 30.2273 35.7829C30.8131 35.1971 30.8131 34.2473 30.2273 33.6616L21.5658 25L30.2273 16.3384Z" fill="#81B5D1"/>
</svg>
