<svg width="26" height="24" viewBox="0 0 26 24" fill="none" xmlns="http://www.w3.org/2000/svg">
    <mask id="path-1-inside-2" fill="white">
        <path d="M23.8999 2.22812C22.5385 0.79865 20.736 0.017362 18.8124 0.017362C16.8887 0.017362 15.0808 0.804437 13.7193 2.2339L13.0083 2.98047L12.2862 2.22233C10.9247 0.792862 9.11131 0 7.18763 0C5.26947 0 3.46154 0.787075 2.1056 2.21075C0.744145 3.64022 -0.00548178 5.53846 3.0182e-05 7.55824C3.0182e-05 9.57801 0.755169 11.4705 2.11662 12.8999L12.4681 23.7685C12.6114 23.919 12.8043 24 12.9917 24C13.1791 24 13.3721 23.9248 13.5154 23.7743L23.8889 12.9231C25.2503 11.4936 26 9.59537 26 7.5756C26.0055 5.55582 25.2614 3.65758 23.8999 2.22812ZM22.8416 11.8177L12.9917 22.1191L3.1639 11.8003C2.08355 10.666 1.48826 9.16132 1.48826 7.55824C1.48826 5.95515 2.07804 4.45045 3.15839 3.32192C4.23322 2.19339 5.66633 1.56836 7.18763 1.56836C8.71445 1.56836 10.1531 2.19339 11.2334 3.32771L12.4791 4.63564C12.7713 4.94237 13.2398 4.94237 13.5319 4.63564L14.7666 3.33928C15.8469 2.20497 17.2856 1.57994 18.8069 1.57994C20.3282 1.57994 21.7613 2.20497 22.8416 3.33349C23.922 4.46781 24.5117 5.97251 24.5117 7.5756C24.5173 9.17868 23.922 10.6834 22.8416 11.8177Z"></path>
    </mask>
    <path d="M23.8999 2.22812C22.5385 0.79865 20.736 0.017362 18.8124 0.017362C16.8887 0.017362 15.0808 0.804437 13.7193 2.2339L13.0083 2.98047L12.2862 2.22233C10.9247 0.792862 9.11131 0 7.18763 0C5.26947 0 3.46154 0.787075 2.1056 2.21075C0.744145 3.64022 -0.00548178 5.53846 3.0182e-05 7.55824C3.0182e-05 9.57801 0.755169 11.4705 2.11662 12.8999L12.4681 23.7685C12.6114 23.919 12.8043 24 12.9917 24C13.1791 24 13.3721 23.9248 13.5154 23.7743L23.8889 12.9231C25.2503 11.4936 26 9.59537 26 7.5756C26.0055 5.55582 25.2614 3.65758 23.8999 2.22812ZM22.8416 11.8177L12.9917 22.1191L3.1639 11.8003C2.08355 10.666 1.48826 9.16132 1.48826 7.55824C1.48826 5.95515 2.07804 4.45045 3.15839 3.32192C4.23322 2.19339 5.66633 1.56836 7.18763 1.56836C8.71445 1.56836 10.1531 2.19339 11.2334 3.32771L12.4791 4.63564C12.7713 4.94237 13.2398 4.94237 13.5319 4.63564L14.7666 3.33928C15.8469 2.20497 17.2856 1.57994 18.8069 1.57994C20.3282 1.57994 21.7613 2.20497 22.8416 3.33349C23.922 4.46781 24.5117 5.97251 24.5117 7.5756C24.5173 9.17868 23.922 10.6834 22.8416 11.8177Z" fill="#0A5A77"></path>
    <path d="M13.7193 2.2339L6.47808 -4.6628L6.47808 -4.6628L13.7193 2.2339ZM13.0083 2.98047L5.76704 9.87718L13.0083 17.4801L20.2495 9.87717L13.0083 2.98047ZM12.2862 2.22233L5.04497 9.11904L5.04497 9.11904L12.2862 2.22233ZM3.0182e-05 7.55824H10V7.54459L9.99999 7.53095L3.0182e-05 7.55824ZM2.11662 12.8999L-5.12461 19.7966H-5.12461L2.11662 12.8999ZM12.4681 23.7685L19.7093 16.8718L12.4681 23.7685ZM13.5154 23.7743L6.28698 16.8641L6.28055 16.8708L6.27414 16.8776L13.5154 23.7743ZM23.8889 12.9231L31.1173 19.8332L31.1237 19.8265L31.1301 19.8198L23.8889 12.9231ZM26 7.5756L16 7.54831L16 7.56195V7.5756H26ZM22.8416 11.8177L30.0693 18.7286L30.0761 18.7215L30.0828 18.7144L22.8416 11.8177ZM12.9917 22.1191L5.7505 29.0158L12.9775 36.6039L20.2194 29.03L12.9917 22.1191ZM3.1639 11.8003L-4.07733 18.697L3.1639 11.8003ZM3.15839 3.32192L10.382 10.2371L10.3908 10.2279L10.3996 10.2186L3.15839 3.32192ZM11.2334 3.32771L3.99218 10.2244L3.99218 10.2244L11.2334 3.32771ZM12.4791 4.63564L19.7204 -2.26107L19.7204 -2.26107L12.4791 4.63564ZM13.5319 4.63564L20.7731 11.5323V11.5323L13.5319 4.63564ZM14.7666 3.33928L7.52535 -3.55742L7.52535 -3.55742L14.7666 3.33928ZM22.8416 3.33349L30.0828 -3.56321L30.074 -3.57246L30.0652 -3.58169L22.8416 3.33349ZM24.5117 7.5756H14.5117V7.59279L14.5118 7.60998L24.5117 7.5756ZM31.1411 -4.66859C27.9406 -8.02898 23.5421 -9.98264 18.8124 -9.98264V10.0174C17.93 10.0174 17.1363 9.62628 16.6587 9.12482L31.1411 -4.66859ZM18.8124 -9.98264C14.0708 -9.98264 9.67021 -8.01439 6.47808 -4.6628L20.9605 9.13061C20.4913 9.62327 19.7066 10.0174 18.8124 10.0174V-9.98264ZM6.47808 -4.6628L5.76703 -3.91624L20.2495 9.87717L20.9605 9.13061L6.47808 -4.6628ZM20.2495 -3.91624L19.5274 -4.67438L5.04497 9.11904L5.76704 9.87718L20.2495 -3.91624ZM19.5274 -4.67438C16.3437 -8.01719 11.941 -10 7.18763 -10V10C6.28162 10 5.50583 9.60292 5.04497 9.11904L19.5274 -4.67438ZM7.18763 -10C2.4533 -10 -1.94779 -8.03304 -5.13563 -4.68595L9.34683 9.10746C8.87088 9.60719 8.08564 10 7.18763 10V-10ZM-5.13563 -4.68595C-8.31187 -1.35104 -10.0123 3.0431 -9.99993 7.58553L9.99999 7.53095C10.0014 8.03382 9.80016 8.63148 9.34683 9.10746L-5.13563 -4.68595ZM-9.99997 7.55824C-9.99997 12.108 -8.28295 16.4805 -5.12461 19.7966L9.35786 6.00322C9.79329 6.4604 10 7.048 10 7.55824H-9.99997ZM-5.12461 19.7966L5.22686 30.6652L19.7093 16.8718L9.35786 6.00322L-5.12461 19.7966ZM5.22686 30.6652C7.19326 32.7298 9.97572 34 12.9917 34V14C15.6329 14 18.0296 15.1081 19.7093 16.8718L5.22686 30.6652ZM12.9917 34C15.8095 34 18.6538 32.8789 20.7566 30.671L6.27414 16.8776C8.09035 14.9706 10.5488 14 12.9917 14V34ZM20.7438 30.6845L31.1173 19.8332L16.6605 6.01291L6.28698 16.8641L20.7438 30.6845ZM31.1301 19.8198C34.3068 16.4845 36 12.0984 36 7.5756H16C16 7.09237 16.1939 6.50276 16.6477 6.02637L31.1301 19.8198ZM35.9999 7.60289C36.0123 3.07961 34.3303 -1.32012 31.1411 -4.66859L16.6587 9.12482C16.1924 8.63529 15.9987 8.03204 16 7.54831L35.9999 7.60289ZM15.6139 4.90681L5.76403 15.2082L20.2194 29.03L30.0693 18.7286L15.6139 4.90681ZM20.233 15.2224L10.4051 4.90363L-4.07733 18.697L5.7505 29.0158L20.233 15.2224ZM10.4051 4.90363C11.137 5.67206 11.4883 6.65392 11.4883 7.55824H-8.51174C-8.51174 11.6687 -6.96989 15.66 -4.07733 18.697L10.4051 4.90363ZM11.4883 7.55824C11.4883 8.43357 11.1503 9.43456 10.382 10.2371L-4.0652 -3.59326C-6.99417 -0.53367 -8.51174 3.47673 -8.51174 7.55824H11.4883ZM10.3996 10.2186C9.64553 11.0104 8.4867 11.5684 7.18763 11.5684V-8.43164C2.84596 -8.43164 -1.17909 -6.6236 -4.08285 -3.57479L10.3996 10.2186ZM7.18763 11.5684C5.90244 11.5684 4.74668 11.0166 3.99218 10.2244L18.4746 -3.569C15.5595 -6.62982 11.5264 -8.43164 7.18763 -8.43164V11.5684ZM3.99218 10.2244L5.23789 11.5323L19.7204 -2.26107L18.4746 -3.569L3.99218 10.2244ZM5.23789 11.5323C9.47088 15.9768 16.5401 15.9768 20.7731 11.5323L6.29067 -2.26107C9.9394 -6.09206 16.0716 -6.09206 19.7204 -2.26107L5.23789 11.5323ZM20.7731 11.5323L22.0078 10.236L7.52535 -3.55742L6.29067 -2.26106L20.7731 11.5323ZM22.0078 10.236C21.257 11.0243 20.1028 11.5799 18.8069 11.5799V-8.42006C14.4683 -8.42006 10.4368 -6.61433 7.52535 -3.55742L22.0078 10.236ZM18.8069 11.5799C17.5037 11.5799 16.3562 11.0197 15.618 10.2487L30.0652 -3.58169C27.1664 -6.60979 23.1526 -8.42006 18.8069 -8.42006V11.5799ZM15.6004 10.2302C14.8523 9.44472 14.5117 8.45577 14.5117 7.5756H34.5117C34.5117 3.48925 32.9916 -0.509108 30.0828 -3.56321L15.6004 10.2302ZM14.5118 7.60998C14.5086 6.68094 14.869 5.6889 15.6004 4.92099L30.0828 18.7144C32.9749 15.6779 34.5259 11.6764 34.5117 7.54121L14.5118 7.60998Z" fill="#0A5A77" mask="url(#path-1-inside-1)"></path>
</svg>