<svg width="15" height="15" viewBox="0 0 15 15" fill="none" xmlns="http://www.w3.org/2000/svg">
    <path d="M14.8169 1.0662C15.061 0.822029 15.061 0.427292 14.8169 0.183125C14.5727 -0.0610418 14.178 -0.0610418 13.9338 0.183125L0.183125 13.9338C-0.0610418 14.178 -0.0610418 14.5727 0.183125 14.8169C0.427292 15.061 0.822029 15.061 1.0662 14.8169L14.8169 1.0662Z" fill="#E00B0B"/>
    <path d="M1.0662 0.183125C0.822029 -0.0610418 0.427292 -0.0610418 0.183125 0.183125C-0.0610418 0.427292 -0.0610418 0.822029 0.183125 1.0662L13.9338 14.8169C14.178 15.061 14.5727 15.061 14.8169 14.8169C15.061 14.5727 15.061 14.178 14.8169 13.9338L1.0662 0.183125Z" fill="#E00B0B"/>
</svg>
