<?xml version="1.0" encoding="utf-8"?>
<!-- Generator: Adobe Illustrator 21.0.0, SVG Export Plug-In . SVG Version: 6.00 Build 0)  -->
<svg version="1.1" id="Слой_1" xmlns="http://www.w3.org/2000/svg" xmlns:xlink="http://www.w3.org/1999/xlink" x="0px" y="0px"
	 viewBox="0 0 128 128" style="enable-background:new 0 0 128 128;" xml:space="preserve">
<style type="text/css">
	.st0{fill:#81B5D1;}
	.st1{fill:none;stroke:#0A5A77;stroke-miterlimit:10;}
	.st2{fill:#ECEBEC;}
	.st3{fill:#0A5A77;}
	.st4{opacity:0.2;}
	.st5{fill:#62345B;}
	.st6{fill:#FFFFFF;}
</style>
<path class="st0" d="M114.8,118.9v-7.2c-1-1.9-95-1.9-96,0v7.6l0,0c0.1,4.2,6.1,7.6,15.3,7.6h65.4
	C109,126.9,115.2,123.4,114.8,118.9z"/>
<path class="st1" d="M114.8,116c-1-1.3-94.2-1.3-95.2,0v5.1c0.1,2.8,6.1,5.1,15.2,5.1h64.9c9.4,0,15.4-2.4,15.2-5.4V116z"/>
<g>
	<path class="st2" d="M100.3,120.7H34.3c-10.9,0-17.5-4.4-14.8-9.4l17.2-32.6c1-1.8,6.6-3.3,12.6-3.3h35.9c6.1,0,11.6,1.4,12.6,3.3
		l17.2,32.6C117.6,116.2,111.2,120.7,100.3,120.7z"/>
	<path class="st3" d="M100.3,122H34.2c-7.7,0-13.8-2.2-15.9-5.7c-1-1.7-1.1-3.9-0.1-5.7L35.4,78c1.4-2.7,8.1-4,13.8-4h36.1
		c5.7,0,12.3,1.3,13.8,4l17.2,32.6c1,1.8,0.9,3.9-0.1,5.7C114,119.8,107.8,122,100.3,122z M49.2,76.6c-6.6,0-10.9,1.7-11.4,2.6
		l-17.2,32.6c-0.5,1-0.5,2.1,0,3c1.3,2,5.5,4.4,13.6,4.4h65.9c8.1,0,12.5-2.4,13.6-4.4c0.6-0.9,0.6-2.1,0-3L96.7,79.2
		c-0.5-0.9-4.8-2.6-11.4-2.6H49.2z"/>
	<path class="st0" d="M92.6,105.6H41.4c-6.3,0-10.4-2.2-9.3-4.9l9.9-23c0.5-1.3,4.2-2.3,8.4-2.3h33.4c4.1,0,7.8,1,8.4,2.3l9.9,23
		C103,103.4,98.9,105.6,92.6,105.6z"/>
	<path class="st3" d="M92.8,108.2H41.7c-4.9,0-8.9-1.3-10.1-3.5c-0.7-0.9-0.7-2.2-0.3-3.2l9.9-23c1-2.4,6.6-3,9.6-3h33.4
		c3,0,8.6,0.6,9.6,3l9.9,23c0.5,1,0.4,2.3-0.3,3.2C101.7,106.9,97.7,108.2,92.8,108.2z M50.5,78.1c-4,0-6.8,1-7.2,1.5l-9.8,23
		c-0.1,0.3-0.1,0.6,0.1,0.8c0.8,1,3.6,2.3,8,2.3h51.3c4.5,0,7.3-1.2,8-2.3c0.2-0.2,0.2-0.5,0.1-0.8l-9.9-23
		c-0.4-0.5-3.2-1.4-7.2-1.4H50.5L50.5,78.1z"/>
	<g class="st4">
		<path class="st5" d="M72.6,113.3c0.1,1.5-2.3,2.7-5.4,2.7c-3.1,0-5.5-1.3-5.4-2.7c0.1-1.4,2.6-2.4,5.4-2.4
			C70.1,110.9,72.5,111.9,72.6,113.3z"/>
	</g>
</g>
<circle class="st6" cx="67.2" cy="14.9" r="13.1"/>
<path class="st3" d="M67.2,29.3c-7.9,0-14.4-6.4-14.4-14.4c0-7.9,6.4-14.4,14.4-14.4c7.9,0,14.4,6.4,14.4,14.4v0
	C81.6,22.8,75.2,29.3,67.2,29.3C67.3,29.3,67.2,29.3,67.2,29.3z M67.2,3.1c-6.5,0-11.8,5.3-11.8,11.8s5.3,11.8,11.8,11.8
	c6.5,0,11.8-5.3,11.8-11.8C79.1,8.4,73.8,3.1,67.2,3.1C67.3,3.1,67.3,3.1,67.2,3.1L67.2,3.1z"/>
<path class="st6" d="M80.7,28.8c-0.7-0.2-1.4,0-2,0.4c-6.7,5.5-16.4,5.5-23.1,0c-0.5-0.5-1.3-0.6-2-0.4C45.8,31.2,41,38.9,42.4,46.9
	c0.6,3.8,1.6,7.6,2.6,11.4c0.6,2.3,2.7,3.9,5,3.9H52c1.7,10.1,3.6,20.3,9,30.3c1.8,3.4,6,4.7,9.4,2.9c1.2-0.7,2.3-1.7,2.9-2.9
	c5.2-10,7.2-20.2,9-30.3h1.9c2.4,0,4.5-1.6,5-3.9c1.1-3.8,1.9-7.6,2.6-11.4C93.2,38.9,88.4,31.2,80.7,28.8z"/>
<path class="st3" d="M67.2,97.5c-3.1,0-5.9-1.7-7.3-4.5c-5.1-9.6-7.1-19.2-8.9-29.7h-0.8c-3,0-5.5-2-6.3-4.9
	c-1-3.9-1.9-7.7-2.6-11.4c-1.4-8.6,3.7-16.9,12-19.5c1.1-0.4,2.3-0.1,3.2,0.6c3,2.5,6.8,3.8,10.7,3.9c3.9,0,7.7-1.3,10.7-3.9
	c0.9-0.6,2.1-0.9,3.2-0.6c8.3,2.7,13.3,11,12,19.5c-0.7,3.9-1.5,7.7-2.6,11.4c-0.8,2.8-3.4,4.8-6.3,4.8h-0.8
	c-1.8,10.5-3.9,20-8.9,29.7C73.2,95.8,70.3,97.6,67.2,97.5z M54.4,30.1h-0.2c-7.1,2.2-11.4,9.3-10.1,16.6c0.6,3.7,1.4,7.5,2.4,11.3
	c0.5,1.7,2.1,2.9,3.9,3h1.9c0.6,0,1.1,0.4,1.3,1c1.8,10.7,3.7,20.3,8.9,29.9c1.4,2.8,4.8,3.9,7.5,2.5c1.1-0.5,2-1.4,2.5-2.5
	c5.1-9.6,7.1-19.2,8.9-29.9c0.1-0.6,0.7-1,1.3-1h1.9c1.8,0,3.4-1.2,3.9-3c1-3.7,1.8-7.6,2.4-11.3c1.3-7.3-3.1-14.4-10.1-16.6
	c-0.3-0.1-0.5,0-0.8,0.1c-7.2,5.8-17.5,5.8-24.7,0C55,30.1,54.7,30.1,54.4,30.1z"/>
</svg>
