<svg width="32" height="29" viewBox="0 0 32 29" fill="none" xmlns="http://www.w3.org/2000/svg">
<path d="M29.4153 2.69231C27.7396 0.965035 25.5213 0.0209791 23.1537 0.0209791C20.7861 0.0209791 18.5609 0.972028 16.8853 2.6993L16.0102 3.6014L15.1215 2.68532C13.4458 0.958042 11.2139 0 8.84632 0C6.4855 0 4.26036 0.951049 2.59151 2.67133C0.915871 4.3986 -0.00674681 6.69231 3.7147e-05 9.13287C3.7147e-05 11.5734 0.929439 13.8601 2.60508 15.5874L15.3453 28.7203C15.5217 28.9021 15.7592 29 15.9898 29C16.2205 29 16.4579 28.9091 16.6343 28.7273L29.4017 15.6154C31.0773 13.8881 32 11.5944 32 9.15385C32.0067 6.71329 31.0909 4.41958 29.4153 2.69231ZM28.1128 14.2797L15.9898 26.7273L3.89403 14.2587C2.56437 12.8881 1.83171 11.0699 1.83171 9.13287C1.83171 7.19581 2.55759 5.37762 3.88724 4.01399C5.21012 2.65035 6.97394 1.89511 8.84632 1.89511C10.7255 1.89511 12.4961 2.65035 13.8257 4.02098L15.3589 5.6014C15.7185 5.97203 16.2951 5.97203 16.6547 5.6014L18.1743 4.03497C19.5039 2.66434 21.2745 1.90909 23.1469 1.90909C25.0193 1.90909 26.7831 2.66434 28.1128 4.02797C29.4424 5.3986 30.1683 7.21678 30.1683 9.15385C30.1751 11.0909 29.4424 12.9091 28.1128 14.2797Z" fill="black"/>
</svg>
