<svg width="12" height="12" viewBox="0 0 12 12" fill="none" xmlns="http://www.w3.org/2000/svg">
<path d="M9.47727 0C9.63068 0 9.83097 0.028409 10.0781 0.085227C10.3253 0.142045 10.5199 0.201704 10.6619 0.264204C10.946 0.383522 11.2472 0.730113 11.5653 1.30398C11.8551 1.83807 12 2.36648 12 2.8892C12 3.04261 11.9901 3.19176 11.9702 3.33665C11.9503 3.48153 11.9148 3.64489 11.8636 3.8267C11.8125 4.00852 11.7713 4.14347 11.7401 4.23153C11.7088 4.3196 11.6506 4.47727 11.5653 4.70455C11.4801 4.93182 11.429 5.07102 11.4119 5.12216C11.2131 5.67898 10.9773 6.17614 10.7045 6.61364C10.2557 7.34091 9.64347 8.09233 8.8679 8.8679C8.09233 9.64347 7.34091 10.2557 6.61364 10.7045C6.17614 10.9773 5.67898 11.2131 5.12216 11.4119C5.07102 11.429 4.93182 11.4801 4.70455 11.5653C4.47727 11.6506 4.3196 11.7088 4.23153 11.7401C4.14347 11.7713 4.00852 11.8125 3.8267 11.8636C3.64489 11.9148 3.48153 11.9503 3.33665 11.9702C3.19176 11.9901 3.04261 12 2.8892 12C2.36648 12 1.83807 11.8551 1.30398 11.5653C0.730114 11.2472 0.383523 10.946 0.264205 10.6619C0.201705 10.5199 0.142045 10.3253 0.0852273 10.0781C0.0284091 9.83097 0 9.63068 0 9.47727C0 9.39773 0.00852273 9.33807 0.0255682 9.2983C0.0596591 9.19602 0.275568 9.04545 0.673295 8.84659C0.78125 8.78409 0.934659 8.69886 1.13352 8.59091C1.33239 8.48295 1.51278 8.38352 1.67472 8.29261C1.83665 8.2017 1.98864 8.11364 2.13068 8.02841C2.15341 8.01136 2.22443 7.96165 2.34375 7.87926C2.46307 7.79688 2.56392 7.7358 2.64631 7.69602C2.72869 7.65625 2.80966 7.63636 2.8892 7.63636C3.00284 7.63636 3.14489 7.71733 3.31534 7.87926C3.4858 8.04119 3.64205 8.21733 3.78409 8.40767C3.92614 8.59801 4.0767 8.77415 4.2358 8.93608C4.39489 9.09801 4.52557 9.17898 4.62784 9.17898C4.67898 9.17898 4.7429 9.16477 4.8196 9.13636C4.89631 9.10795 4.95455 9.08381 4.99432 9.06392C5.03409 9.04403 5.10227 9.00426 5.19886 8.9446C5.29545 8.88494 5.34943 8.85227 5.3608 8.84659C6.1392 8.41477 6.80682 7.92045 7.36364 7.36364C7.92045 6.80682 8.41477 6.1392 8.84659 5.3608C8.85227 5.34943 8.88494 5.29545 8.9446 5.19886C9.00426 5.10227 9.04403 5.03409 9.06392 4.99432C9.08381 4.95455 9.10795 4.89631 9.13636 4.8196C9.16477 4.7429 9.17898 4.67898 9.17898 4.62784C9.17898 4.52557 9.09801 4.39489 8.93608 4.2358C8.77415 4.0767 8.59801 3.92614 8.40767 3.78409C8.21733 3.64205 8.04119 3.4858 7.87926 3.31534C7.71733 3.14489 7.63636 3.00284 7.63636 2.8892C7.63636 2.80966 7.65625 2.72869 7.69602 2.64631C7.7358 2.56392 7.79688 2.46307 7.87926 2.34375C7.96165 2.22443 8.01136 2.15341 8.02841 2.13068C8.11364 1.98864 8.2017 1.83665 8.29261 1.67472C8.38352 1.51278 8.48295 1.33239 8.59091 1.13352C8.69886 0.934659 8.78409 0.78125 8.84659 0.673295C9.04545 0.275568 9.19602 0.059659 9.2983 0.025568C9.33807 0.00852203 9.39773 0 9.47727 0Z" fill="white"/>
</svg>
