<svg width="15" height="11" viewBox="0 0 15 11" fill="none" xmlns="http://www.w3.org/2000/svg">
<path d="M14.0583 3.67077e-05H0.9417C0.817729 -0.00105049 0.69478 0.0220227 0.58003 0.0679089C0.46528 0.113795 0.361029 0.181575 0.273366 0.26729C0.185702 0.353006 0.116382 0.45494 0.0694524 0.567139C0.0225232 0.679339 -0.00107437 0.799556 3.7542e-05 0.920771V10.0874C3.26284e-05 10.2079 0.0244472 10.3272 0.0718716 10.4385C0.119296 10.5498 0.188791 10.6507 0.276343 10.7356C0.363895 10.8204 0.46777 10.8875 0.58197 10.9328C0.696171 10.9782 0.818434 11.001 0.9417 11H14.0583C14.1816 11.001 14.3038 10.9782 14.418 10.9328C14.5322 10.8875 14.6361 10.8204 14.7237 10.7356C14.8112 10.6507 14.8807 10.5498 14.9281 10.4385C14.9756 10.3272 15 10.2079 15 10.0874V0.920771C15.0011 0.799556 14.9775 0.679339 14.9305 0.567139C14.8836 0.45494 14.8143 0.353006 14.7266 0.26729C14.639 0.181575 14.5347 0.113795 14.42 0.0679089C14.3052 0.0220227 14.1823 -0.00105049 14.0583 3.67077e-05ZM12.1916 1.83336L7.5 5.5L2.81669 1.83336H12.1916ZM13.1333 9.16664H1.87503V2.75409L7.5 7.33332L13.125 2.75409L13.1333 9.16664Z" fill="white"/>
</svg>
