<svg width="16" height="16" viewBox="0 0 16 16" fill="none" xmlns="http://www.w3.org/2000/svg">
<path d="M8.6715 11.121C8.476 11.3165 8.476 11.633 8.6715 11.828C8.86703 12.0235 9.1835 12.0235 9.37851 11.828L12.828 8.37801C12.932 8.27399 12.9765 8.1355 12.9695 7.99948C12.9765 7.86298 12.932 7.72499 12.828 7.62099L9.37851 4.1715C9.1835 3.976 8.86651 3.976 8.6715 4.1715C8.476 4.36701 8.476 4.6835 8.6715 4.87848L11.293 7.49997H0.5C0.224 7.5 0 7.724 0 8C0 8.276 0.224 8.5 0.5 8.5H11.293L8.6715 11.121ZM14 1H4C2.8955 1 2 1.8955 2 3V5H3V3C3 2.448 3.4475 2 4 2H14C14.5525 2 15 2.448 15 3V13C15 13.552 14.5525 14 14 14H4C3.4475 14 3 13.5525 3 13V11H2V13C2 14.1045 2.8955 15 4 15H14C15.1045 15 16 14.1045 16 13V3C16 1.8955 15.1045 1 14 1Z" fill="#0A5A77"/>
</svg>
