<svg width="14" height="14" viewBox="0 0 14 14" fill="none" xmlns="http://www.w3.org/2000/svg">
<path d="M11.0568 0C11.2358 0 11.4695 0.033144 11.7578 0.099432C12.0462 0.16572 12.2732 0.235322 12.4389 0.308239C12.7704 0.447443 13.1217 0.851799 13.4929 1.52131C13.831 2.14441 14 2.76089 14 3.37074C14 3.54972 13.9884 3.72372 13.9652 3.89276C13.942 4.06179 13.9006 4.25237 13.8409 4.46449C13.7812 4.67661 13.7332 4.83404 13.6967 4.93679C13.6603 5.03954 13.5923 5.22348 13.4929 5.48864C13.3935 5.75379 13.3338 5.91619 13.3139 5.97585C13.0819 6.62547 12.8068 7.20549 12.4886 7.71591C11.965 8.56439 11.2507 9.44105 10.3459 10.3459C9.44105 11.2507 8.56439 11.965 7.71591 12.4886C7.20549 12.8068 6.62547 13.0819 5.97585 13.3139C5.91619 13.3338 5.75379 13.3935 5.48864 13.4929C5.22348 13.5923 5.03954 13.6603 4.93679 13.6967C4.83404 13.7332 4.67661 13.7812 4.46449 13.8409C4.25237 13.9006 4.06179 13.942 3.89276 13.9652C3.72372 13.9884 3.54972 14 3.37074 14C2.76089 14 2.14441 13.831 1.52131 13.4929C0.851799 13.1217 0.447443 12.7704 0.308239 12.4389C0.235322 12.2732 0.16572 12.0462 0.0994318 11.7578C0.0331439 11.4695 0 11.2358 0 11.0568C0 10.964 0.00994318 10.8944 0.0298295 10.848C0.0696023 10.7287 0.321496 10.553 0.785511 10.321C0.911458 10.2481 1.09044 10.1487 1.32244 10.0227C1.55445 9.89678 1.76491 9.78078 1.95384 9.67472C2.14276 9.56866 2.32008 9.46591 2.4858 9.36648C2.51231 9.34659 2.59517 9.28859 2.73438 9.19247C2.87358 9.09635 2.99124 9.02509 3.08736 8.97869C3.18348 8.93229 3.27794 8.90909 3.37074 8.90909C3.50331 8.90909 3.66903 9.00355 3.8679 9.19247C4.06676 9.38139 4.24905 9.58688 4.41477 9.80895C4.58049 10.031 4.75616 10.2365 4.94176 10.4254C5.12737 10.6143 5.27983 10.7088 5.39915 10.7088C5.45881 10.7088 5.53338 10.6922 5.62287 10.6591C5.71236 10.6259 5.7803 10.5978 5.8267 10.5746C5.87311 10.5514 5.95265 10.505 6.06534 10.4354C6.17803 10.3658 6.241 10.3277 6.25426 10.321C7.16241 9.81723 7.94129 9.24053 8.59091 8.59091C9.24053 7.94129 9.81723 7.16241 10.321 6.25426C10.3277 6.241 10.3658 6.17803 10.4354 6.06534C10.505 5.95265 10.5514 5.87311 10.5746 5.8267C10.5978 5.7803 10.6259 5.71236 10.6591 5.62287C10.6922 5.53338 10.7088 5.45881 10.7088 5.39915C10.7088 5.27983 10.6143 5.12737 10.4254 4.94176C10.2365 4.75616 10.031 4.58049 9.80895 4.41477C9.58688 4.24905 9.38139 4.06676 9.19247 3.8679C9.00355 3.66903 8.90909 3.50331 8.90909 3.37074C8.90909 3.27794 8.93229 3.18348 8.97869 3.08736C9.02509 2.99124 9.09635 2.87358 9.19247 2.73438C9.28859 2.59517 9.34659 2.51231 9.36648 2.4858C9.46591 2.32008 9.56866 2.14276 9.67472 1.95384C9.78078 1.76491 9.89678 1.55445 10.0227 1.32244C10.1487 1.09044 10.2481 0.911459 10.321 0.785512C10.553 0.321496 10.7287 0.069603 10.848 0.02983C10.8944 0.00994301 10.964 0 11.0568 0Z" fill="#0A5A77"/>
</svg>
