<svg id="_1" data-name="1" xmlns="http://www.w3.org/2000/svg" width="33" height="33" viewBox="0 0 33 33">
  <defs>
    <style>
      .cls-1 {
        fill: none;
        stroke: #181714;
        stroke-miterlimit: 10;
      }
    </style>
  </defs>
  <title>edit</title>
  <path class="cls-1" d="M18,27.8l0,1.78a3,3,0,0,1-1.15.39c-.61.06-1.69-.08-4.83-1s-6.49-1.89-7.59-2.36A2.93,2.93,0,0,1,2.53,25,1.93,1.93,0,0,1,3.87,23.5a10.48,10.48,0,0,1,2.86-.91"/>
  <path class="cls-1" d="M4.86,20.24a39.22,39.22,0,0,0,3,3.47A26.15,26.15,0,0,0,12.53,27c1,.46,3.36,1.36,4.4,1.23a2.3,2.3,0,0,0,1.91-1.88,18.33,18.33,0,0,0,.34-5.06c-.14-2-.3-4.08-1.57-5.37a22,22,0,0,0-4.13-3.21,4.12,4.12,0,0,0-2.3-.7,4.07,4.07,0,0,0-2,.37A20,20,0,0,1,4.57,14c-2.09.41-2.22.41-2.05,1.68S4.52,19.79,4.86,20.24Z"/>
  <path class="cls-1" d="M2.17,13.68c.28.2.67.46,2.38.16a10.73,10.73,0,0,0,2.87-.71c1-.43,2.47-.8,2.84-1.79a3.12,3.12,0,0,0-1-2.93A11.41,11.41,0,0,0,5,5.64C3.1,5,2.36,5.25,2.15,5.34a2.13,2.13,0,0,0-1,1.7,17.3,17.3,0,0,0,0,3.66c.11.86.36,2.45,1,3Z"/>
  <path class="cls-1" d="M20.42,12.63l-.16-.08A3.86,3.86,0,0,0,18.37,12c-.24,0-.9-.06-.64.16s3.86,3,4.27,3.33.92.55.68.94"/>
  <path class="cls-1" d="M25.08,17.39a3.72,3.72,0,0,0-1.29-2.45l-1.35-1"/>
  <path class="cls-1" d="M17.71,12.13a25,25,0,0,1-3,1.06"/>
  <path class="cls-1" d="M15.41,14.05c-.55-.64-1.91-2-2.25-2.46a6.8,6.8,0,0,1-.83-1.69"/>
  <path class="cls-1" d="M24.42,17.83c-.21-.74-.46-1.48-1.1-1.43s-1.48.23-1.92.29-3,.6-3,.6"/>
  <path class="cls-1" d="M10.31,10.17a6,6,0,0,0,1.72-.1c.29-.18.51-.34.3-1.53S11.67,6.06,11,5.65a8.31,8.31,0,0,0-2.64-.74"/>
  <path class="cls-1" d="M8.32,4.92a35.51,35.51,0,0,0-3.63-.5c-.47.2,0,.61.19.82s.53.54.6.57"/>
  <path class="cls-1" d="M14.51,13.07a19.23,19.23,0,0,0,2.1-.65c.56-.24,1.57-.69,1.31-1.78S16.44,8.49,15.1,7.73a10.77,10.77,0,0,0-3.45-1.32"/>
  <path class="cls-1" d="M19.19,22s.19,1.26.34,2.06.23.73.23.73l3.71-.35c1-.1,1.26-.48,1.18-1.08a16,16,0,0,0-1.41-3.56,1.88,1.88,0,0,0-2-1.08c-.43,0-1.7.08-2.33.16,0,0,1.27-.3,1.27-.3s-.12.11.19.07a8.67,8.67,0,0,1,1.35-.12,1.93,1.93,0,0,1,1.39.47,5,5,0,0,1,1.17,1.91A15.51,15.51,0,0,1,25,23a1,1,0,0,1-.46,1.24,7.52,7.52,0,0,1-2.27.34c-.55,0-1.3.11-1.72.15s-.65.1-.81,0"/>
  <path class="cls-1" d="M21.12,24.69c-.78.23-1.25.51-1.31.73A8.73,8.73,0,0,0,20,27.3c.17,1.09.33,2,.33,2.09s.06.24.27.24,7,.26,7.36.26.48-.21.79-.44,3.29-2.55,3.29-2.55.21-.1.19-.26a10.34,10.34,0,0,0-.55-1.69,3.55,3.55,0,0,0-1.42-1.63c-.23-.1-.38-.18-.57-.25-.73-.25-.95-.23-1-.2a1.71,1.71,0,0,0-.38.17,2,2,0,0,0-.38.28c-.46.41-2.42.35-2.44.5s1.89.11,2.78.69a2.89,2.89,0,0,1,1.16,1.6.62.62,0,0,1,0,.44.5.5,0,0,1-.21.2"/>
  <path class="cls-1" d="M28.12,29.86c-.23-1.06-.52-2.8-1.85-3.84A3.91,3.91,0,0,0,23,25a7.83,7.83,0,0,0-3.17.41"/>
  <path class="cls-1" d="M26.85,23.87c.39-.16.73-.28.72-1a4.89,4.89,0,0,0-.44-1.83,14.43,14.43,0,0,0-.92-2,3.4,3.4,0,0,0-1.12-1.17,3.14,3.14,0,0,0-1.83-.12c-1.07.11-1.54.24-2.89.42l-1.2.14"/>
  <path class="cls-1" d="M23.76,17.62a5.84,5.84,0,0,1,1.77-.24A2.62,2.62,0,0,1,27.6,18a7,7,0,0,1,1.25,1.93,4.28,4.28,0,0,1,.62,2.18c-.08.71-2,.92-1.61.72"/>
  <path class="cls-1" d="M21.09,24.7s-.57.23-.15.17a19.28,19.28,0,0,1,2.39-.12,6.61,6.61,0,0,1,2.77.39,4.65,4.65,0,0,1,1.7,1.33c.28.39.38.71.74.55s1-.33.85-.7"/>
  <path class="cls-1" d="M18.9,21.63c-.47.16-2.05-1.14-3.59-2.28A19.85,19.85,0,0,0,11,16.8a3,3,0,0,0-2.37.07c-.94.39-3.46,1.59-4.93,1.65"/>
  <path class="cls-1" d="M5,9c.57.3,1.21.76,1.17,1.16s-.69.56-1.25.7-1.48.45-1.67-.27A2.55,2.55,0,0,1,3.4,8.72,2,2,0,0,1,5,9Z"/>
  <path class="cls-1" d="M22.44,13.89a18,18,0,0,0-2-1.26"/>
</svg>
