<?xml version="1.0" encoding="utf-8"?>
<!-- Generator: Adobe Illustrator 23.0.3, SVG Export Plug-In . SVG Version: 6.00 Build 0)  -->
<svg version="1.1" id="Слой_1" xmlns="http://www.w3.org/2000/svg" xmlns:xlink="http://www.w3.org/1999/xlink" x="0px" y="0px"
	 viewBox="0 0 32 32" style="enable-background:new 0 0 32 32;" xml:space="preserve">
<g>
	<g>
		<path d="M15.57,17.16c0.03,0,0.06,0,0.1,0c0.01,0,0.02,0,0.04,0c0.02,0,0.04,0,0.06,0c1.82-0.03,3.29-0.67,4.38-1.89
			c2.39-2.7,1.99-7.32,1.95-7.76c-0.16-3.31-1.72-4.9-3.01-5.63C18.13,1.32,17,1.02,15.75,1H15.7c-0.01,0-0.02,0-0.02,0h-0.04
			c-0.69,0-2.04,0.11-3.34,0.85C11,2.59,9.4,4.17,9.25,7.51c-0.04,0.44-0.44,5.06,1.95,7.76C12.28,16.49,13.75,17.13,15.57,17.16z
			 M10.91,7.67c0-0.02,0.01-0.04,0.01-0.05c0.21-4.45,3.37-4.93,4.72-4.93h0.02c0.01,0,0.03,0,0.05,0c1.68,0.04,4.53,0.72,4.72,4.93
			c0,0.02,0,0.04,0.01,0.05c0.01,0.04,0.44,4.27-1.53,6.49c-0.78,0.88-1.83,1.32-3.2,1.33c-0.01,0-0.02,0-0.03,0l0,0
			c-0.01,0-0.02,0-0.03,0c-1.37-0.01-2.42-0.45-3.19-1.33C10.48,11.95,10.9,7.7,10.91,7.67z"/>
		<path d="M28.44,24.83c0-0.01,0-0.01,0-0.02c0-0.05-0.01-0.1-0.01-0.16c-0.04-1.23-0.12-4.11-2.81-5.03
			c-0.02-0.01-0.04-0.01-0.06-0.02c-2.8-0.71-5.13-2.33-5.16-2.35c-0.38-0.27-0.9-0.17-1.17,0.21c-0.27,0.38-0.17,0.9,0.21,1.17
			c0.11,0.07,2.58,1.8,5.67,2.59c1.45,0.52,1.61,2.06,1.65,3.48c0,0.06,0,0.11,0.01,0.16c0.01,0.56-0.03,1.42-0.13,1.92
			c-1.01,0.57-4.95,2.55-10.95,2.55c-5.98,0-9.95-1.98-10.96-2.55c-0.1-0.5-0.14-1.36-0.13-1.92c0-0.05,0.01-0.1,0.01-0.16
			c0.04-1.42,0.21-2.96,1.65-3.48c3.09-0.8,5.57-2.52,5.67-2.59c0.38-0.27,0.47-0.79,0.21-1.17c-0.27-0.38-0.79-0.47-1.17-0.21
			c-0.02,0.02-2.34,1.63-5.16,2.35c-0.02,0.01-0.04,0.01-0.06,0.02c-2.7,0.93-2.78,3.8-2.81,5.03c0,0.06,0,0.11-0.01,0.16
			c0,0.01,0,0.01,0,0.02c-0.01,0.32-0.01,1.98,0.32,2.81c0.06,0.16,0.17,0.3,0.32,0.39C3.75,28.15,8.22,31,15.69,31
			s11.94-2.85,12.13-2.97c0.14-0.09,0.26-0.23,0.32-0.39C28.45,26.81,28.45,25.15,28.44,24.83z"/>
	</g>
</g>
</svg>
