<?xml version="1.0" encoding="utf-8"?>
<!-- Generator: Adobe Illustrator 21.0.0, SVG Export Plug-In . SVG Version: 6.00 Build 0)  -->
<svg version="1.1" id="Слой_1" xmlns="http://www.w3.org/2000/svg" xmlns:xlink="http://www.w3.org/1999/xlink" x="0px" y="0px"
	 width="122px" height="88px" viewBox="0 0 122 88" style="enable-background:new 0 0 122 88;" xml:space="preserve">
<style type="text/css">
	.st0{fill:#58595B;}
	.st1{fill:#FFFFFF;}
	.st2{display:none;}
	.st3{display:inline;fill:url(#SVGID_1_);}
	.st4{display:inline;fill:url(#SVGID_2_);}
	.st5{fill:url(#SVGID_3_);}
	.st6{fill:url(#SVGID_4_);}
	.st7{fill:url(#SVGID_5_);}
	.st8{opacity:0.86;fill:url(#SVGID_6_);enable-background:new    ;}
</style>
<g>
	<path class="st0" d="M6,11.9V5.8c0.4-0.1,1.1-0.2,2.4-0.2c2.5,0,3.9,1.1,3.9,3.2c0,2-1.5,3.2-4.2,3.2H6 M7.8,1.8
		C5,1.8,2.4,2,0.8,2.2v22.2H6v-8.8h1.5c2.2,0,3.2,0.8,3.8,3.6c0.7,2.7,1.3,4.6,1.6,5.2h5.4c-0.5-0.9-1.2-3.8-1.9-6.3
		C16,16,15,14.5,13.4,13.9v-0.1c2.1-0.7,4.1-2.6,4.1-5.5c0-2.1-0.8-3.7-2.2-4.7C13.8,2.3,11.3,1.8,7.8,1.8"/>
	<polyline class="st0" points="35.9,2 21.4,2 21.4,24.4 36.5,24.4 36.5,20.3 26.8,20.3 26.8,15 35.4,15 35.4,10.8 26.8,10.8 
		26.8,6.1 35.9,6.1 35.9,2 	"/>
	<polyline class="st0" points="45.4,2 40,2 40,24.4 54.7,24.4 54.7,20.2 45.4,20.2 45.4,2 	"/>
	<path class="st0" d="M64.3,15l1.4-4.8c0.4-1.3,0.7-3,1.1-4.3l0,0c0.4,1.3,0.8,3,1.2,4.3l1.5,4.8H64.3 M70.5,2h-7l-7.2,22.5h5.6
		l1.6-5.8h6.6l1.7,5.8h5.8L70.5,2"/>
	<path class="st0" d="M98.3,2h-6.1l-2,4.1c-0.5,1.3-1.1,2.3-1.5,3.8h-0.1c-0.5-1.2-1.1-2.4-1.7-3.8L84.7,2h-6.1l6.6,11.1l-6.7,11.4
		h6.1l1.9-4c0.7-1.6,1.3-2.7,1.7-4h0.1c0.7,1.3,1.2,2.5,2.1,4l2.2,4h6.1l-7.1-11.6L98.3,2"/>
	<path class="st0" d="M107.2,15l1.4-4.8c0.4-1.3,0.7-3,1.1-4.3h0.1c0.4,1.3,0.8,3,1.2,4.3l1.5,4.8H107.2 M113.4,2h-7l-7.2,22.5h5.6
		l1.6-5.8h6.6l1.7,5.8h5.7L113.4,2"/>
	<path class="st0" d="M13.8,29.1c-7.8,0-12.6,4.1-12.6,9.6c0,4.6,3.6,7.5,9.1,9.5c4,1.4,5.7,2.5,5.7,4.6c0,2.1-1.9,3.5-5.3,3.5
		c-3.3,0-6.3-1.1-8.4-2l-1.5,6c1.9,1.1,5.7,2,9.5,2c9.1,0,13.4-4.6,13.4-9.9c0-4.6-2.7-7.4-8.7-9.5c-4.4-1.6-6.2-2.5-6.2-4.6
		c0-1.7,1.5-3.2,4.8-3.2s5.7,1,7,1.5l1.6-5.9C20.4,29.7,17.5,29.1,13.8,29.1"/>
	<polyline class="st0" points="51.7,29.6 26.2,29.6 26.2,35.6 35,35.6 35,61.4 42.7,61.4 42.7,35.6 51.7,35.6 51.7,29.6 	"/>
	<path class="st0" d="M103.1,43.7v-8.8c0.5-0.1,1.5-0.3,3.5-0.3c3.5,0.1,5.6,1.5,5.6,4.5c0,2.8-2.3,4.6-6,4.6L103.1,43.7
		 M105.7,29.3c-4,0-7.6,0.3-10,0.7v31.3h7.5V48.9h2.3c3,0.1,4.6,1.1,5.4,5.1c1,3.9,1.7,6.5,2.4,7.4h7.7c-0.7-1.2-1.6-5.3-2.7-8.9
		c-0.9-2.9-2.2-5.1-4.5-6v-0.2c2.8-1.1,5.9-3.8,5.9-7.8c0-2.9-1.1-5.2-3-6.6C114.1,30.1,110.6,29.3,105.7,29.3"/>
	<rect y="65" class="st0" width="122" height="18.2"/>
	<g>
		<g>
			<path class="st1" d="M6.5,71H4.4v-0.8h5.2V71H7.4v6H6.5V71z"/>
			<path class="st1" d="M14.1,73.9h-2.8v2.5h3V77h-4v-6.7h3.8V71h-2.9v2.2h2.7L14.1,73.9L14.1,73.9z"/>
			<path class="st1" d="M19.4,77l-0.9-1.5c-0.4-0.5-0.5-1-0.8-1.3l0,0c-0.2,0.3-0.4,0.8-0.8,1.3L16.1,77H15l2.2-3.4l-2.1-3.4h1.1
				l1,1.6c0.3,0.4,0.5,0.8,0.7,1.1l0,0c0.2-0.3,0.4-0.8,0.7-1.1l1-1.6h1.1l-2.2,3.3l2.2,3.5H19.4z"/>
			<path class="st1" d="M22.4,70.3v2.8h3.5v-2.8h0.9V77h-0.9v-3.2h-3.5V77h-0.9v-6.7H22.4z"/>
			<path class="st1" d="M34.5,73.5c0,2.4-1.5,3.6-3.3,3.6c-1.9,0-3.2-1.4-3.2-3.5c0-2.2,1.4-3.6,3.3-3.6
				C33.2,70.1,34.5,71.6,34.5,73.5z M28.9,73.7c0,1.4,0.8,2.7,2.3,2.7s2.3-1.3,2.3-2.8c0-1.3-0.7-2.7-2.3-2.7
				C29.7,70.8,28.9,72.1,28.9,73.7z"/>
			<path class="st1" d="M40.3,70.3V77h-0.9v-6H37v2.1c0,1.5-0.1,3.2-1.1,3.8c-0.3,0.2-0.7,0.3-1.1,0.3l-0.1-0.7
				c0.3-0.1,0.5-0.2,0.8-0.3c0.5-0.5,0.5-1.8,0.5-2.9v-2.8L40.3,70.3L40.3,70.3z"/>
			<path class="st1" d="M48,73.5c0,2.4-1.5,3.6-3.3,3.6c-1.9,0-3.2-1.4-3.2-3.5c0-2.2,1.4-3.6,3.3-3.6C46.7,70.1,48,71.6,48,73.5z
				 M42.4,73.7c0,1.4,0.8,2.7,2.3,2.7c1.5,0,2.3-1.3,2.3-2.8c0-1.3-0.7-2.7-2.3-2.7C43.2,70.8,42.4,72.1,42.4,73.7z"/>
			<path class="st1" d="M52.9,70.3V71h-2.8v6h-0.9v-6.7C49.2,70.3,52.9,70.3,52.9,70.3z"/>
			<path class="st1" d="M54.5,70.3v2.8c0,1.1,0,2-0.1,2.8l0,0c0.4-0.7,0.8-1.4,1.3-2.3l2.3-3.5h0.9v6.7h-0.8V74c0-1.1,0-1.8,0.1-2.7
				l0,0c-0.4,0.8-0.8,1.5-1.3,2.3l-2.3,3.4h-1v-6.7L54.5,70.3L54.5,70.3z"/>
			<path class="st1" d="M61.5,70.3v2.8c0,1.1,0,2-0.1,2.8l0,0c0.4-0.7,0.8-1.4,1.3-2.3l2.3-3.5h0.8v6.7h-0.9V74c0-1.1,0-1.8,0.1-2.7
				l0,0c-0.4,0.8-0.8,1.5-1.3,2.3l-2.3,3.4h-1v-6.7L61.5,70.3L61.5,70.3z"/>
			<path class="st1" d="M69.5,70.6c0.5-0.3,1.1-0.4,1.9-0.4c1.3,0,2.1,0.7,2.1,1.7c0,0.9-0.5,1.5-1.5,1.7l0,0c1,0.1,1.7,0.8,1.7,1.7
				c0,1.4-1.3,2-2.6,2c-0.7,0-1.3-0.1-1.9-0.4l0.2-0.7c0.4,0.2,1,0.3,1.5,0.3c1.1,0,1.6-0.5,1.6-1.3c0-1.1-1-1.3-2-1.3h-0.4v-0.7
				h0.4c1,0,1.6-0.5,1.6-1.2c0-0.7-0.5-1.1-1.3-1.1c-0.5,0-1.1,0.2-1.5,0.4L69.5,70.6z"/>
			<path class="st1" d="M79.8,70.3v6h0.5l-0.1,2.4h-0.7L79.4,77H75l-0.1,1.6h-0.7l-0.1-2.4h0.5c0.3-0.4,0.5-1,0.7-1.5
				c0.2-0.8,0.3-1.7,0.3-2.8v-1.7L79.8,70.3L79.8,70.3z M76.6,72.2c0,1.1-0.1,2-0.4,2.7c-0.2,0.4-0.4,1-0.5,1.3h3.2v-5.3h-2.2V72.2z
				"/>
			<path class="st1" d="M87.4,73.5c0,2.4-1.5,3.6-3.3,3.6c-1.9,0-3.2-1.4-3.2-3.5c0-2.2,1.4-3.6,3.3-3.6
				C86.2,70.1,87.4,71.6,87.4,73.5z M82,73.7c0,1.4,0.8,2.7,2.3,2.7c1.5,0,2.3-1.3,2.3-2.8c0-1.3-0.7-2.7-2.3-2.7
				C82.7,70.8,82,72.1,82,73.7z"/>
			<path class="st1" d="M88.6,70.3c0.4-0.1,1-0.1,1.7-0.1c0.9,0,1.5,0.2,2,0.5s0.5,0.9,0.5,1.4c0,0.7-0.2,1.1-0.5,1.4
				c-0.5,0.4-1.3,0.8-2.2,0.8c-0.3,0-0.5,0-0.7-0.1v2.7h-0.9V70.3z M89.6,73.5c0.2,0.1,0.5,0.1,0.8,0.1c1.1,0,1.7-0.4,1.7-1.4
				s-0.7-1.3-1.6-1.3c-0.4,0-0.7,0-0.9,0.1C89.6,71,89.6,73.5,89.6,73.5z"/>
			<path class="st1" d="M100.2,73.5c0,2.4-1.5,3.6-3.3,3.6c-1.9,0-3.2-1.4-3.2-3.5c0-2.2,1.4-3.6,3.3-3.6
				C98.9,70.1,100.2,71.6,100.2,73.5z M94.7,73.7c0,1.4,0.8,2.7,2.3,2.7c1.5,0,2.3-1.3,2.3-2.8c0-1.3-0.7-2.7-2.3-2.7
				C95.4,70.8,94.7,72.1,94.7,73.7z"/>
			<path class="st1" d="M101.4,70.4c0.4-0.1,1-0.2,1.6-0.2c0.9,0,1.5,0.2,2,0.4c0.4,0.3,0.5,0.7,0.5,1.2c0,0.7-0.5,1.2-1.2,1.5l0,0
				c0.7,0.2,1.5,0.7,1.5,1.7c0,0.5-0.2,1.1-0.5,1.3c-0.5,0.4-1.3,0.7-2.5,0.7c-0.5,0-1.1,0-1.4-0.1V70.4L101.4,70.4z M102.3,73.1
				h0.8c1,0,1.5-0.4,1.5-1.1c0-0.8-0.5-1.1-1.5-1.1c-0.4,0-0.7,0-0.8,0.1V73.1z M102.3,76.4c0.2,0,0.4,0,0.8,0c1,0,1.7-0.3,1.7-1.3
				c0-1-0.8-1.3-1.9-1.3h-0.8L102.3,76.4L102.3,76.4z"/>
			<path class="st1" d="M108,70.3v2.5c0.2,0,0.5-0.1,0.9-0.1c1.5,0,2.7,0.7,2.7,2.1c0,0.7-0.2,1.1-0.5,1.4c-0.5,0.5-1.5,0.8-2.6,0.8
				c-0.7,0-1.1,0-1.5-0.1v-6.7h1L108,70.3L108,70.3z M108,76.4c0.2,0,0.4,0.1,0.8,0.1c1,0,1.9-0.4,1.9-1.5s-0.9-1.5-1.9-1.5
				c-0.2,0-0.5,0-0.8,0.1V76.4z"/>
			<path class="st1" d="M112.2,77c0.1-0.2,0.2-0.3,0.3-0.7c0.3-0.8,0.5-1.7,1.1-2.3c0.2-0.2,0.4-0.3,0.5-0.3l0,0
				c-0.9-0.1-1.5-0.8-1.5-1.7c0-0.5,0.3-1.1,0.7-1.4c0.4-0.3,1.2-0.5,2.1-0.5c0.5,0,1.3,0.1,1.6,0.2v6.6h-0.9V74h-0.7
				c-0.4,0-0.8,0.1-1,0.3c-0.5,0.4-0.7,1.5-1,2.1c-0.1,0.2-0.1,0.3-0.2,0.4L112.2,77L112.2,77z M116.1,70.9c-0.2,0-0.5-0.1-0.9-0.1
				c-0.9,0-1.6,0.3-1.6,1.2s0.8,1.3,1.7,1.3c0.3,0,0.5,0,0.8,0C116.1,73.3,116.1,70.9,116.1,70.9z"/>
		</g>
	</g>
</g>
<g class="st2">
	
		<linearGradient id="SVGID_1_" gradientUnits="userSpaceOnUse" x1="42.7602" y1="991.2109" x2="160.5694" y2="1185.5035" gradientTransform="matrix(1 0 0 1 0 -990)">
		<stop  offset="0" style="stop-color:#BD955D"/>
		<stop  offset="0.1432" style="stop-color:#EDBC7A"/>
		<stop  offset="0.2882" style="stop-color:#E4B474"/>
		<stop  offset="0.3384" style="stop-color:#CD9F64"/>
		<stop  offset="0.4316" style="stop-color:#A67D4A"/>
		<stop  offset="0.4804" style="stop-color:#977040"/>
		<stop  offset="0.6275" style="stop-color:#FDCA85"/>
		<stop  offset="0.8073" style="stop-color:#EDBC7A"/>
		<stop  offset="0.8905" style="stop-color:#C69A60"/>
		<stop  offset="1" style="stop-color:#977040"/>
	</linearGradient>
	<path class="st3" d="M84.8,47.3c-0.3-0.3-0.4-0.3-0.7,0c-0.2,0.2-0.5,0.3-0.7,0.5h-0.1c-0.1,0-0.3,0-0.4,0c-0.1,0.1-0.3,0-0.4,0
		s-0.2,0-0.3,0c0,0,0,0,0-0.1c0.4-0.4,0.8-0.8,1.2-1.3c0.2-0.2,0.2-0.4,0.1-0.5S83.1,45.8,83,46s-0.3,0.3-0.5,0.4
		c-0.3,0.3-0.6,0.6-0.9,1c-0.2,0.3-0.4,0.5-0.8,0.4c-0.3,0-0.6,0-1,0c0.3-0.2,0.5-0.4,0.7-0.6c0.4-0.3,0.8-0.6,1.1-1
		c0-0.1,0-0.2,0-0.3c-0.1-0.2-0.3-0.3-0.5-0.2c-0.3,0.2-0.5,0.4-0.8,0.6c-0.4,0.3-0.7,0.6-1,0.8c-0.2,0.1-0.6,0.2-0.7,0.6
		c-0.1,0.1-0.2,0-0.4,0c-0.1,0-0.2,0-0.3,0c0.1-0.5,0.3-1,0.5-1.4c0.4-0.8,0.7-1.6,1-2.3c0-0.1,0-0.1,0.2-0.1
		c0.5,0.1,0.9,0.4,1.4,0.6c0.2,0.1,0.4,0.1,0.5-0.1c0.1-0.2,0-0.4-0.1-0.5l-0.1-0.1c-0.4-0.2-0.8-0.4-1.2-0.6
		c0.2-0.2,0.4-0.4,0.7-0.2c0,0,0.1,0.1,0.2,0.1c0.6,0,1.1,0.3,1.6,0.5c0.2,0.1,0.3,0.1,0.4-0.1c0.1-0.2,0.1-0.4-0.1-0.5
		c-0.1-0.1-0.2-0.1-0.3-0.2c-0.4-0.2-0.9-0.4-1.4-0.5c0.6-0.4,1.2-0.7,1.8-1.2c0.3-0.2,0.3-0.4,0-0.6c-0.1,0-0.2,0-0.2,0
		c-0.6,0.3-1.3,0.7-1.9,1.2c0.2-0.5,0.2-1,0.3-1.4c0-0.2,0-0.5-0.2-0.7c-0.2-0.1-0.4,0-0.4,0.2c0,0.4-0.1,0.7-0.2,1.1
		c0,0.4-0.3,0.8-0.3,1.2l0,0c-0.2,0-0.3,0.2-0.5,0.2c0-0.1,0.1-0.3,0.1-0.4c0-0.4,0.1-0.9,0-1.3c0-0.2-0.2-0.3-0.4-0.3
		c-0.2,0-0.2,0.2-0.2,0.3c0,0.4,0,0.7-0.1,1.1c0,0.2,0,0.4-0.1,0.6c-0.1,0.1-0.1,0.1-0.2,0.1c-0.4-0.1-0.8-0.1-1.2-0.2l0,0l0,0h-0.1
		h-0.1c-0.2,0-0.3,0-0.5,0c-0.4,0-0.8-0.1-1.1-0.2c-0.1,0-0.2,0-0.2,0c-0.4,0-0.4,0-0.2-0.4c0-0.1,0.1-0.1,0.1-0.2
		c0-0.1,0.1-0.1,0.1-0.1c0.2,0,0.3-0.1,0.4-0.2c0.2-0.1,0.5-0.3,0.7-0.4c0.5-0.2,1-0.5,1.6-0.7c0.2-0.1,0.3-0.2,0.2-0.4
		c0-0.2-0.2-0.3-0.4-0.2c-0.2,0.1-0.4,0.1-0.6,0.2c-0.4,0.2-0.8,0.4-1.3,0.6c0.3-0.4,0.5-0.8,0.7-1.2l0.1-0.1c0.2,0,0.4-0.1,0.6-0.2
		c0.6-0.1,1.1-0.3,1.6-0.5c0.2-0.1,0.3-0.2,0.3-0.4c-0.1-0.2-0.2-0.2-0.4-0.2c-0.4,0.1-0.9,0.2-1.3,0.4c-0.1,0-0.2,0.1-0.4,0
		c0.2-0.4,0.4-0.7,0.6-1.1l0.1-0.1c0.3-0.2,0.6-0.3,0.9-0.5c0.1-0.1,0.2-0.2,0.2-0.3C79,35.8,79,35.5,79,35.3
		c-0.1-0.3-0.4-0.7-0.6-0.7c-0.4-0.1-0.8,0.1-1.2,0.2c-0.1,0-0.2,0.1-0.2,0.3c0,0.4,0,0.8,0,1.2c0,0.1,0,0.2,0,0.2
		c-0.1,0.3-0.3,0.6-0.4,0.9c0,0.1,0,0.2-0.1,0.2s-0.1-0.1-0.1-0.2c-0.1-0.5-0.3-1-0.4-1.5c0-0.2-0.1-0.4-0.3-0.3
		c-0.2,0-0.2,0.2-0.2,0.4c0.1,0.7,0.2,1.3,0.5,2c0.1,0.4,0.3,0.7-0.1,1.1c0,0,0,0,0,0.1c-0.1,0.3-0.3,0.5-0.4,0.8
		c0-0.5-0.1-0.9-0.2-1.4c0-0.3-0.1-0.6-0.1-0.9c0-0.2-0.1-0.3-0.3-0.3c-0.1,0-0.3,0-0.3,0.2c0,0.1,0,0.2,0,0.3
		c0,0.6,0.1,1.2,0.2,1.8c0.1,0.1,0.1,0.3,0,0.4l0,0c0,0.1,0,0.1,0,0.2l0,0l0,0c0.1,0.1,0.1,0.3,0,0.4l0,0l0,0c0.2,0.4,0,0.7-0.2,1
		c-0.3-0.3-0.6-0.7-0.9-1.1c-0.4-0.7-0.9-1.4-1.4-2.1c-0.1-0.2-0.1-0.3,0.1-0.4c0.4-0.3,0.8-0.6,1.2-0.9c0.2-0.1,0.2-0.3,0.1-0.4
		c-0.1-0.2-0.3-0.2-0.4-0.1c-0.4,0.2-0.8,0.5-1.2,0.8L72,37.6v-0.1c-0.1-0.3,0-0.5,0.2-0.7l0.1-0.1c0.3-0.5,0.8-0.8,1.2-1.2
		c0.1-0.1,0.3-0.2,0.2-0.4c0-0.2-0.2-0.3-0.5-0.2c-0.4,0.1-0.6,0.5-0.9,0.7c-0.2,0.1-0.2,0.4-0.4,0.5c0-0.6,0-1.1,0-1.6
		c0-0.2,0-0.5,0-0.7c-0.1-0.2-0.2-0.2-0.4-0.2c-0.2,0-0.2,0.1-0.2,0.3s0,0.4,0,0.6c0,0.5,0,1,0,1.5c0,0.1,0,0.2-0.1,0.2
		c-0.3-0.4-0.6-0.6-0.9-0.9c-0.1-0.1-0.2-0.2-0.4-0.2c-0.2,0-0.3,0-0.4,0.2s0,0.3,0.1,0.4c0.6,0.4,1.1,1,1.5,1.6
		c0.1,0.1,0,0.3,0,0.5c0,0.1-0.1,0.1-0.1,0c-0.1-0.1-0.1-0.1-0.2-0.2c-0.3-0.2-0.7-0.5-1-0.7c-0.2-0.1-0.3-0.1-0.4,0.1
		c-0.1,0.2,0,0.3,0.1,0.5c0.4,0.3,0.7,0.5,1.1,0.8c0.1,0.1,0.3,0.2,0.2,0.4c-0.1,0.2-0.3,0.5-0.4,0.7c-0.3,0.4-0.6,0.9-0.8,1.3
		c-0.3,0.4-0.6,0.8-0.9,1.3c0,0-0.1,0.1-0.1,0c-0.1-0.2-0.2-0.3-0.3-0.5c-0.1-0.1,0.1-0.2,0.1-0.3s0-0.2,0-0.3s0-0.3,0-0.4
		c-0.1-0.1-0.1-0.3,0-0.4l0,0c0.1-0.6,0.1-1.2,0.2-1.8l0,0l0,0c0-0.1,0-0.2,0-0.3c-0.1-0.2-0.2-0.2-0.4-0.2C68,37.9,68,38,68,38.2
		c-0.1,0.3-0.1,0.5-0.1,0.8c0,0.1,0,0.2,0,0.3c0,0.3-0.1,0.7-0.1,1c-0.2-0.4-0.4-0.8-0.6-1.1c0-0.1-0.1-0.1,0-0.3
		c0.2-0.7,0.4-1.4,0.6-2.2c0-0.2,0-0.3,0-0.5s-0.1-0.3-0.3-0.3c-0.1,0-0.2,0.1-0.3,0.2c0,0.1,0,0.2-0.1,0.3
		c-0.1,0.5-0.3,1.1-0.4,1.6c-0.1-0.3-0.3-0.6-0.4-0.8s-0.2-0.3-0.2-0.4c0.1-0.3,0-0.5,0-0.8c0.1-0.6,0.1-0.6-0.4-0.8
		c-0.3-0.2-0.6-0.2-0.9-0.1c-0.1,0-0.2,0.1-0.3,0.2c-0.2,0.2-0.3,0.5-0.3,0.8c-0.1,0.6-0.1,0.6,0.4,0.9c0.3,0.2,0.7,0.3,0.9,0.7
		c0.1,0.3,0.3,0.5,0.5,0.9c-0.1,0-0.2,0-0.3,0c-0.5-0.1-0.9-0.2-1.4-0.4c-0.2-0.1-0.3,0-0.4,0.2c0,0.2,0.1,0.3,0.2,0.4
		c0.2,0.1,0.3,0.1,0.5,0.2c0.5,0.2,0.9,0.3,1.4,0.4c0.2,0,0.5,0.1,0.6,0.2c0.3,0.4,0.4,0.8,0.7,1.3c-0.5-0.2-0.9-0.4-1.4-0.6
		c-0.2-0.1-0.4-0.2-0.6-0.2s-0.3,0.1-0.4,0.3c0,0.2,0,0.3,0.2,0.4c0.3,0.1,0.5,0.3,0.7,0.4c0.4,0.2,0.9,0.3,1.3,0.6
		c0.2,0.1,0.4,0.3,0.6,0.3s0.3,0.1,0.3,0.3c0.2,0.4,0.2,0.4-0.2,0.5c-0.1,0.1-0.2,0-0.2,0c-0.5,0.1-1.1,0.2-1.6,0.2h-0.1h-0.1
		c-0.4,0.1-0.9,0.1-1.3,0.2c-0.1,0-0.2,0-0.2-0.1s0-0.2-0.1-0.3c0-0.5-0.1-1-0.1-1.4c0-0.2-0.2-0.3-0.3-0.3c-0.2,0-0.2,0.2-0.2,0.3
		c0,0.5,0,1.1,0.1,1.6c0,0.1,0,0.1-0.1,0.1c-0.2-0.1-0.5-0.2-0.4-0.5c0,0,0-0.1-0.1-0.1c-0.2-0.6-0.3-1.2-0.4-1.8
		c0-0.3-0.1-0.4-0.3-0.4s-0.3,0.2-0.4,0.4c0,0.3,0.1,0.7,0.1,1c0,0.2,0.1,0.4,0.2,0.7c-0.2-0.1-0.4-0.2-0.5-0.3
		c-0.4-0.3-0.9-0.5-1.3-0.8c-0.1,0-0.2,0-0.2,0c-0.2,0.2-0.3,0.5-0.1,0.6c0.4,0.2,0.7,0.5,1.1,0.7c0.2,0.1,0.5,0.3,0.7,0.5
		c-0.5,0.1-0.8,0.3-1.2,0.4c-0.2,0.1-0.3,0.1-0.4,0.3c-0.1,0.2-0.1,0.3,0,0.5c0.1,0.1,0.3,0.1,0.4,0c0.1-0.1,0.2-0.1,0.2-0.1
		c0.5-0.2,1-0.3,1.5-0.4c0.3,0,0.4,0,0.6,0.1c0.1,0.1,0.1,0.1,0,0.2c-0.4,0.2-0.8,0.4-1.2,0.7c-0.2,0.2-0.3,0.3-0.2,0.5
		c0.1,0.3,0.3,0.2,0.5,0.1c0.4-0.2,0.7-0.4,1.1-0.5c0.4-0.2,0.4-0.1,0.6,0.3c0.2,0.4,0.3,0.8,0.5,1.2c0.3,0.7,0.6,1.4,0.8,2.1
		c0.1,0.2,0,0.2-0.1,0.2H65c-0.1,0-0.2,0.1-0.4,0l0,0c-0.1-0.2-0.2-0.3-0.3-0.4c-0.4-0.2-0.7-0.5-1.1-0.8c-0.3-0.3-0.7-0.6-1-0.8
		c-0.2-0.2-0.4-0.1-0.5,0.1c0,0.1,0,0.2,0,0.3c0.1,0.2,0.3,0.4,0.5,0.6c0.4,0.3,0.8,0.6,1.2,1c-0.5,0-0.9,0-1.3,0H62
		c-0.3-0.4-0.7-0.8-1-1.1c-0.2-0.3-0.5-0.5-0.8-0.8c-0.1-0.1-0.3-0.1-0.4,0c-0.1,0.1-0.1,0.3,0,0.4c0.1,0.1,0.1,0.2,0.2,0.3
		c0.4,0.3,0.7,0.8,1.1,1.2c-0.2,0-0.2,0-0.3,0s-0.3,0-0.4,0l0,0c-0.2,0-0.3,0-0.5,0h-0.1c-0.2-0.3-0.6-0.3-0.8-0.6
		c-0.1-0.1-0.3-0.2-0.4-0.1c-0.2,0.2-0.4,0.4-0.6,0.6c-0.1,0.2-0.3,0.5-0.2,0.7c0.1,0.3,0.2,0.5,0.4,0.7c0.1,0.1,0.3,0.2,0.4,0.3
		c0.1,0.1,0.2,0.1,0.3,0.1s0.2-0.1,0.3-0.2c0.4-0.2,0.7-0.6,1.2-0.5l0,0c0.1-0.1,0.3,0,0.4,0c0.1,0,0.2,0,0.3,0
		c-0.3,0.3-0.6,0.6-0.8,0.9c-0.1,0.2-0.3,0.3-0.4,0.4c-0.1,0.2-0.2,0.4-0.1,0.5c0.2,0.2,0.3,0,0.5-0.1c0.5-0.4,0.9-0.9,1.4-1.4
		c0.4-0.4,0.4-0.4,0.9-0.4l0,0l0,0l0,0c0.1,0,0.2,0,0.3,0s0.3,0,0.4,0c-0.4,0.4-0.8,0.7-1.2,1c-0.2,0.2-0.4,0.3-0.5,0.6
		c0,0.1,0,0.2,0,0.3c0.1,0.2,0.3,0.3,0.4,0.1c0.2-0.2,0.5-0.3,0.7-0.5c0.4-0.3,0.7-0.7,1.2-0.9c0.2-0.1,0.5-0.2,0.6-0.5
		c0.1-0.1,0.2,0,0.3,0l0,0c0.1,0,0.2,0,0.2,0c0.1,0,0.1,0,0.1,0.1c-0.1,0.3-0.2,0.5-0.2,0.8c-0.2,0.4-0.3,0.9-0.6,1.3
		c-0.3,0.5-0.4,1.1-0.7,1.6c-0.1,0.1-0.1,0.2-0.2,0.1c-0.2-0.1-0.4-0.2-0.6-0.3c-0.3-0.1-0.5-0.3-0.8-0.4c-0.2-0.1-0.3,0-0.4,0.1
		c-0.1,0.2,0,0.3,0.1,0.4c0.1,0.1,0.2,0.1,0.3,0.2c0.3,0.2,0.7,0.4,1,0.5c0.1,0,0.2,0.1,0.1,0.1c-0.2,0.1-0.3,0.3-0.6,0.2
		c-0.1,0-0.1,0-0.2-0.1c-0.6-0.1-1.2-0.3-1.7-0.6c-0.2-0.1-0.4,0-0.4,0.3s0.2,0.5,0.5,0.6c0.4,0.1,0.7,0.3,1.2,0.4
		c-0.6,0.4-1.2,0.7-1.8,1.1c-0.1,0.1-0.2,0.2-0.2,0.3c0,0.2,0,0.3,0.2,0.3c0.1,0,0.2,0,0.2,0c0.2-0.2,0.4-0.2,0.6-0.3
		c0.4-0.3,0.9-0.5,1.3-0.8C62,56.1,62.1,56.6,62,57c0,0.2,0,0.4,0,0.5c0,0.2,0.2,0.3,0.4,0.3s0.3-0.2,0.3-0.4c0-0.1,0-0.2,0-0.3
		c0.1-0.5,0.2-1.1,0.4-1.6c0.1-0.2,0.1-0.3,0.3-0.4c0.1,0,0.1-0.1,0.2,0c0.1,0,0,0.1,0,0.2c-0.1,0.5-0.1,0.9-0.1,1.4
		c0,0.2,0,0.3,0.2,0.3s0.3,0,0.4-0.3c0-0.1,0-0.3,0-0.4c0-0.4,0.1-0.7,0.1-1.1c0-0.2,0.1-0.3,0.3-0.3c0.4,0,0.7,0.1,1.1,0.1
		c0.1,0,0.2,0,0.3,0c0,0,0,0,0.1,0c0.5,0,1.1,0,1.6,0.2c0.1,0,0.2,0,0.2,0c0.1,0.1,0.2,0,0.3,0.1C68,55.6,67.9,56,67.5,56
		c0,0-0.1,0-0.1,0.1c-0.2,0.1-0.4,0.3-0.6,0.4c-0.6,0.3-1.1,0.5-1.7,0.8c-0.2,0.1-0.4,0.3-0.2,0.6C65,58,65.2,58,65.3,58
		c0.4-0.1,0.9-0.4,1.3-0.6c0.2-0.1,0.4-0.2,0.6-0.3c-0.2,0.4-0.4,0.7-0.6,1c-0.1,0.1-0.1,0.3-0.2,0.3c-0.3,0.1-0.6,0.1-0.9,0.2
		c-0.5,0.1-1,0.3-1.5,0.5c-0.2,0.1-0.3,0.2-0.2,0.4s0.2,0.3,0.4,0.2c0.4-0.1,0.8-0.2,1.2-0.3c0.1,0,0.3-0.1,0.5-0.1
		c-0.1,0.2-0.2,0.4-0.3,0.6c-0.1,0.2-0.2,0.5-0.3,0.5C64.2,59.7,64,60,63.7,60c-0.2,0.1-0.4,0.3-0.3,0.5c0,0.2,0.1,0.4,0.1,0.6
		c0.1,0.6,0.7,0.9,1.2,0.7c0.1,0,0.3-0.1,0.4-0.2c0.4-0.2,0.5-0.3,0.4-0.7c-0.1-0.3,0.1-0.6,0-0.8c0,0,0,0,0-0.1
		c0.2-0.3,0.3-0.6,0.4-0.9c0-0.1,0.1-0.2,0.1-0.2c0.1,0,0.1,0.1,0.1,0.2c0.1,0.5,0.3,0.9,0.3,1.4c0,0.1,0,0.3,0.2,0.4
		c0.1,0,0.2,0,0.3-0.1c0.1-0.1,0.1-0.3,0.1-0.4c-0.1-0.7-0.3-1.4-0.5-2.1c-0.1-0.4-0.2-0.7,0.1-1c0,0,0-0.1,0.1-0.1
		c0.1-0.2,0.2-0.5,0.4-0.7c0,0.4,0.1,0.7,0.1,1c0.1,0.1,0,0.2,0,0.3c0,0.3,0.1,0.6,0.1,0.8s0.1,0.3,0.2,0.4c0.2,0,0.3,0,0.4-0.2
		c0-0.1,0-0.2,0-0.3l0,0c0-0.1,0-0.2,0-0.4c-0.1-0.5-0.1-1-0.2-1.4l0,0c-0.1-0.2-0.1-0.3,0-0.4l0,0l0,0c-0.1-0.3,0.1-0.7-0.1-0.9
		v-0.1c0.1-0.1,0.2-0.3,0.2-0.4c0.1-0.1,0.1-0.1,0.2,0c0.3,0.3,0.5,0.7,0.8,1c0.4,0.7,0.9,1.4,1.3,2.1c0.2,0.2,0.1,0.4-0.1,0.5
		c-0.1,0.1-0.2,0.2-0.3,0.3c-0.3,0.2-0.6,0.4-0.8,0.6c-0.1,0.1-0.1,0.3-0.1,0.4c0,0.1,0.2,0.2,0.3,0.2c0.1,0,0.2-0.1,0.3-0.1
		c0.3-0.2,0.7-0.5,1-0.7c0.1-0.1,0.2-0.1,0.2,0.1c0,0.3-0.1,0.4-0.2,0.6c-0.4,0.5-0.8,1-1.3,1.4c-0.1,0.1-0.2,0.3-0.1,0.4
		c0.1,0.2,0.2,0.3,0.4,0.2c0.2-0.1,0.3-0.2,0.5-0.4c0.3-0.2,0.5-0.5,0.8-0.8c0,0.5,0,1,0,1.4c0,0.3,0,0.6,0,0.9
		c0,0.2,0.1,0.3,0.3,0.3c0.2,0,0.3-0.1,0.4-0.3c0-0.1,0-0.1,0-0.2c0-0.4,0-0.8,0-1.2c0-0.3,0-0.6,0-0.9c0,0,0,0,0.1,0
		c0.2,0.5,0.6,0.6,0.9,1c0.1,0.1,0.2,0.2,0.3,0.2c0.2,0.1,0.4-0.1,0.5-0.2c0.1-0.2,0-0.3-0.2-0.4c0,0-0.1,0-0.1-0.1
		c-0.3-0.4-0.7-0.6-1-1.1c-0.2-0.3-0.5-0.5-0.4-0.9v-0.1c0.1,0,0.1,0,0.1,0.1c0.4,0.3,0.7,0.6,1.2,0.8c0.2,0.1,0.4,0.1,0.4-0.1
		c0.1-0.2,0.1-0.3-0.1-0.4c-0.4-0.3-0.7-0.5-1.1-0.8c-0.3-0.2-0.3-0.2-0.1-0.5c0.3-0.5,0.7-1,1-1.6s0.7-1.1,1.2-1.6
		c0,0,0,0.1,0.1,0.1c0.2,0.3,0.4,0.5,0.2,0.9c0.1,0.1,0,0.3,0,0.4c0,0.1,0,0.1,0,0.2l0,0c0.1,0.1,0.1,0.3,0,0.4l0,0
		c-0.1,0.6-0.2,1.2-0.2,1.8c0,0.1,0,0.2,0,0.3c0,0.2,0.1,0.2,0.3,0.2c0.2,0,0.3-0.1,0.3-0.3c0.1-0.3,0.1-0.7,0.1-1
		c0-0.4,0.1-0.8,0.1-1.2c0.2,0.4,0.4,0.7,0.6,1.1c0,0,0.1,0.1,0.1,0.2c-0.2,0.8-0.5,1.6-0.6,2.4c0,0.3,0,0.5,0.2,0.6
		c0.2,0,0.4-0.2,0.4-0.4v-0.1c0.1-0.5,0.2-0.9,0.4-1.4c0,0,0-0.1,0.1-0.1c0,0,0.1,0,0.1,0.1c0.1,0.2,0.2,0.4,0.3,0.7
		c0.1,0.2,0.2,0.3,0.2,0.5c-0.1,0.4,0,0.8,0,1.2c0,0.2,0.1,0.2,0.2,0.3c0.2,0.1,0.4,0.2,0.7,0.2c0.3,0,0.6,0,0.8-0.2
		c0.2-0.2,0.4-0.4,0.4-0.7c0-0.1,0-0.3,0.1-0.4c0.1-0.3,0-0.4-0.2-0.5c-0.3-0.1-0.5-0.4-0.8-0.5c0,0,0,0-0.1-0.1
		c-0.2-0.4-0.4-0.7-0.6-1.1c0.1,0,0.1,0,0.1,0c0.5,0.1,0.9,0.2,1.4,0.4c0.2,0.1,0.5,0.1,0.6-0.1c0.1-0.2,0-0.3-0.3-0.5
		c-0.6-0.3-1.2-0.4-1.9-0.6c-0.2,0-0.4,0-0.5-0.2c-0.2-0.4-0.4-0.8-0.7-1.2c0.2,0.1,0.4,0.2,0.5,0.2c0.4,0.2,0.9,0.4,1.3,0.6
		c0.3,0.1,0.4,0,0.5-0.2s0-0.3-0.3-0.5c-0.6-0.3-1.3-0.5-1.9-0.9c-0.2-0.1-0.4-0.3-0.6-0.3s-0.3-0.2-0.4-0.3
		c-0.2-0.4-0.2-0.4,0.2-0.4c0.1-0.1,0.2,0,0.2,0c0.5-0.2,1.1-0.2,1.6-0.2c0,0,0,0,0.1,0s0.2,0,0.3,0c0.3-0.1,0.7-0.1,1-0.1
		c0.2,0,0.3,0.1,0.3,0.3c0,0.5,0.1,1,0.1,1.4c0,0.2,0,0.3,0.2,0.3s0.3,0,0.4-0.3c0.1-0.5,0-0.9,0-1.4c0-0.1-0.1-0.3,0-0.3
		c0.1-0.1,0.2,0.1,0.3,0.1c0.2,0,0.2,0.2,0.2,0.3s0,0.2,0.1,0.3c0.2,0.6,0.3,1.2,0.4,1.8c0,0.1,0.1,0.2,0.2,0.3s0.2,0,0.3,0
		c0.1-0.1,0.2-0.2,0.2-0.4c0-0.4-0.1-0.9-0.2-1.3c0-0.1-0.1-0.2-0.1-0.3c0.1,0.1,0.3,0.2,0.4,0.3c0.5,0.3,0.9,0.6,1.5,0.9
		c0.1,0,0.2,0,0.2,0c0.2-0.2,0.3-0.4,0.1-0.6c-0.2-0.1-0.3-0.3-0.5-0.4c-0.4-0.3-0.9-0.6-1.4-0.9c0.4-0.1,0.8-0.2,1.2-0.4
		c0.2-0.1,0.4-0.2,0.5-0.4s0-0.3-0.1-0.4c-0.1-0.1-0.2-0.1-0.3-0.1c-0.5,0.3-1.1,0.4-1.6,0.6c-0.3,0.1-0.7,0.2-0.9-0.2
		c0.4-0.2,0.8-0.4,1.2-0.6c0.1,0,0.1-0.1,0.2-0.1c0.1-0.1,0.2-0.3,0.1-0.4c-0.1-0.2-0.2-0.2-0.4-0.1c-0.5,0.2-0.9,0.5-1.4,0.7
		c-0.2,0.1-0.2,0-0.2-0.1c-0.3-0.6-0.5-1.3-0.8-1.9c-0.3-0.6-0.5-1.2-0.7-1.8c0.1,0,0.2,0,0.4,0c0.1,0,0.2-0.1,0.3,0l0,0
		c0.1,0.2,0.2,0.3,0.3,0.4c0.2,0.1,0.4,0.2,0.6,0.4c0.4,0.4,0.9,0.8,1.4,1.1c0.3,0.2,0.4,0.2,0.6-0.1c0-0.1,0-0.2,0-0.3
		c-0.1-0.2-0.3-0.4-0.5-0.6c-0.4-0.3-0.8-0.7-1.2-1c0.2,0,0.3,0,0.5,0c0.1,0,0.2,0,0.3,0c0.4-0.1,0.7,0,1,0.4c0,0.1,0.1,0.1,0.1,0.2
		c0.4,0.4,0.8,0.8,1.2,1.3c0.2,0.2,0.4,0.2,0.5,0.1c0.1-0.1,0.1-0.3-0.1-0.5c-0.4-0.4-0.8-0.8-1.2-1.3c0,0,0,0,0.1-0.1
		c0.1,0,0.2,0,0.3,0c0.1,0,0.3,0,0.4,0l0,0c0.2,0,0.4-0.1,0.6,0c0.2,0.2,0.5,0.3,0.7,0.5c0.1,0.1,0.3,0.3,0.5,0.1s0.4-0.3,0.5-0.5
		c0.2-0.3,0.4-0.6,0.2-1C85.3,47.7,85.1,47.5,84.8,47.3z M77.8,35.4c0.2,0,0.4,0.2,0.4,0.5c0,0.1-0.3,0.3-0.4,0.3
		c-0.2,0-0.4-0.2-0.4-0.5C77.4,35.5,77.5,35.4,77.8,35.4z M64.7,36.2c-0.1,0.1-0.2,0.1-0.3,0.1c-0.1,0-0.4-0.2-0.4-0.4
		c0-0.3,0.2-0.5,0.4-0.5c0.1,0,0.4,0,0.4,0.2C64.8,35.8,64.9,36,64.7,36.2z M57.8,48.8c-0.1,0-0.4-0.4-0.4-0.5s0.3-0.5,0.4-0.5
		c0.1,0,0.5,0.3,0.5,0.5C58.2,48.5,57.9,48.8,57.8,48.8z M64.4,61.2c-0.2,0-0.4-0.2-0.4-0.5c0-0.1,0.3-0.4,0.4-0.3
		c0.2,0,0.4,0.2,0.4,0.3C64.8,61.1,64.8,61.2,64.4,61.2z M77.8,60.4c0.1,0,0.4,0.2,0.4,0.4c0,0.3-0.2,0.5-0.4,0.5
		c-0.3,0-0.4-0.1-0.4-0.5C77.4,60.6,77.6,60.4,77.8,60.4z M77.8,43.9c0.1-0.2,0.1-0.4,0.1-0.6c0-0.1,0.1-0.1,0.1-0.1
		c0.3,0,0.6,0,0.8,0.1c0.1,0,0.1,0.1,0.1,0.2c-0.1,0.3-0.3,0.6-0.4,0.9c-0.2-0.2-0.3-0.2-0.5-0.2C77.9,44.2,77.7,44.2,77.8,43.9z
		 M75.3,44.6c0.1-0.3,0.2-0.6,0.3-0.9c0.1-0.2,0.1-0.4,0.1-0.6c0.2,0,0.4,0.1,0.6,0.1c-0.1,0.4-0.1,0.8-0.2,1.2
		c0,0.2-0.1,0.3-0.2,0.4c-0.1,0.2-0.1,0.3,0,0.5c0,0,0.1,0.1,0.1,0.2c0,0.2,0.2,0.3,0.3,0.3c0.4,0,0.8,0.2,1.2,0.3
		c0.1,0,0.2,0.1,0.3,0.1c-0.1,0.2-0.2,0.4-0.2,0.6c-0.2-0.3-0.6-0.2-0.9-0.2c-0.3-0.1-0.7-0.2-1-0.2c-0.2,0-0.4-0.1-0.6-0.1
		s-0.3-0.1-0.2-0.4C75,45.4,75.2,45,75.3,44.6z M77.4,49.3c0,0.1,0,0.2-0.1,0.2c-0.4,0.1-0.8,0.1-1.3,0.2c0.4-0.3,0.8-0.6,1.2-1
		C77.3,48.9,77.3,49.1,77.4,49.3z M76,46.9c0.1-0.1,0.2,0,0.3,0c0.3,0.1,0.6,0.1,0.9,0.1c0.2,0,0.2,0.1,0.2,0.3s-0.1,0.3-0.2,0.5
		C76.8,47.5,76.4,47.2,76,46.9z M75.1,43c0.1,0,0.1,0.2,0,0.3c-0.2,0.4-0.3,0.8-0.4,1.3c-0.1-0.6-0.1-1.1-0.2-1.6
		C74.7,42.8,74.9,42.9,75.1,43z M74,43.7c0,0.8,0.2,1.6,0.2,2.3c0,0.2,0.2,0.4,0.3,0.5c0.6,0.4,1,0.9,1.7,1.3
		c-0.4,0-0.6,0.1-0.9,0.1h-0.1c-0.3-0.4-0.8-0.7-1.1-1c-0.3-0.3-0.3-0.6-0.4-0.9c-0.1-0.4,0-0.9-0.2-1.3c0-0.1,0-0.1,0-0.1
		C73.7,44.3,73.9,44,74,43.7z M72.2,50c0,0.1-0.1,0.2-0.2,0.1c-0.6-0.1-1.1-0.1-1.7,0c-0.1,0-0.1,0-0.2-0.1
		c-0.2-0.6-0.5-1.1-0.8-1.6c-0.1-0.1-0.1-0.2,0-0.3c0.4-0.5,0.6-1,0.8-1.6c0-0.1,0.1-0.1,0.2-0.1c0.6,0.1,1.1,0.1,1.7,0
		c0.1,0,0.2,0,0.2,0.1c0.2,0.6,0.5,1.1,0.8,1.5c0.1,0.1,0.1,0.2,0,0.3C72.6,48.9,72.3,49.4,72.2,50z M72.2,51.4
		c-0.4-0.1-0.7-0.3-1.1-0.3s-0.7,0.2-1.1,0.3c0.1-0.2,0.2-0.3,0.3-0.5c0-0.1,0.1-0.2,0.2-0.2c0.3,0,0.6,0,0.9-0.1
		C71.8,50.7,72.1,50.9,72.2,51.4z M71.8,45.9c-0.4,0.1-0.9,0.1-1.3,0c-0.1,0-0.2-0.1-0.2-0.2c-0.1-0.2-0.1-0.3-0.3-0.5
		c0.4,0.1,0.8,0.3,1.2,0.3c0.4,0,0.7-0.2,1.2-0.3C72,45.4,72.1,45.8,71.8,45.9z M71.4,44.8c-0.3,0.1-0.5,0-0.8-0.1
		c-0.4-0.1-0.8-0.4-1.2-0.5c-0.1,0-0.1-0.2-0.1-0.3c-0.1-0.2-0.2-0.5-0.3-0.7c0.6,0.4,1.3,0.5,1.9,0.9c0.2,0.2,0.5,0.1,0.7,0
		c0.6-0.4,1.2-0.5,1.8-0.9c-0.1,0.3-0.3,0.6-0.4,0.9c0,0,0,0.1-0.1,0.1C72.3,44.3,71.9,44.7,71.4,44.8z M69.2,45.7
		c0.1,0.2,0.1,0.3,0.3,0.5c0.1,0.1,0.1,0.3,0,0.4c-0.2,0.4-0.4,0.8-0.6,1.2c-0.1,0.1-0.2,0.2-0.3,0.1c-0.2,0-0.3,0-0.5,0
		C68.7,47.3,69.1,46.6,69.2,45.7z M68.7,48.8C68.8,48.8,68.8,48.8,68.7,48.8c0.4,0.5,0.6,1,0.8,1.4c0,0.1,0,0.2,0,0.2
		c-0.1,0.2-0.2,0.3-0.3,0.5c-0.1-1-0.4-1.5-1.2-2.2C68.3,48.8,68.5,48.8,68.7,48.8z M69.3,52.5C69.3,52.5,69.3,52.4,69.3,52.5
		c0.7-0.2,1.1-0.6,1.7-0.7c0.1,0,0.2,0,0.3,0c0.6,0.1,1,0.5,1.6,0.6c0.1,0,0.1,0.2,0.1,0.3c0.1,0.2,0.2,0.5,0.3,0.7
		c-0.3-0.1-0.5-0.3-0.7-0.4c-0.4-0.2-0.9-0.4-1.3-0.6c-0.2-0.1-0.4,0-0.6,0.1c-0.6,0.4-1.2,0.5-1.8,0.9
		C69.1,53.1,69.2,52.8,69.3,52.5z M73.1,51.1c-0.1-0.3-0.2-0.5-0.3-0.7c-0.1-0.1,0-0.2,0-0.3c0.2-0.4,0.4-0.8,0.6-1.1
		c0.1-0.1,0.2-0.2,0.4-0.2c0.1,0,0.3,0,0.5,0C73.5,49.4,73.1,50.1,73.1,51.1z M73.7,47.8c-0.1,0-0.2,0-0.3-0.1
		c-0.3-0.4-0.5-0.8-0.6-1.2c-0.1-0.1-0.1-0.3,0-0.4c0.1-0.1,0.2-0.3,0.3-0.5c0.1,0.9,0.5,1.7,1.1,2.2C74,47.8,73.9,47.8,73.7,47.8z
		 M73.5,42c0.1,0.1,0.2,0.2,0.3,0.4c-0.5,0.1-0.9,0.4-1.4,0.6c0.3-0.3,0.5-0.7,0.8-1C73.3,41.9,73.4,41.8,73.5,42z M71,38.6
		c0.1-0.1,0.1-0.1,0.2,0c0.2,0.3,0.3,0.5,0.5,0.8c0,0.1,0,0.1,0,0.1c-0.2,0.1-0.3,0.2-0.4,0.4c-0.1,0.1-0.2,0.1-0.3,0
		c-0.1-0.2-0.3-0.3-0.5-0.4C70.7,39.1,70.9,38.9,71,38.6z M70,40.2c0.1-0.2,0.2-0.3,0.4-0.1c0.1,0.1,0.3,0.3,0.4,0.4
		c0.3,0.3,0.3,0.3,0.6,0c0.2-0.2,0.3-0.4,0.6-0.5c0.1,0,0.2-0.1,0.2,0.1c0,0.1,0.2,0.2,0,0.3c-0.2,0.2-0.4,0.4-0.7,0.6
		c-0.2,0.2-0.4,0.3-0.5,0.6c-0.3-0.4-0.6-0.7-1-1C70.1,40.5,69.8,40.5,70,40.2z M69.3,41.3c0.1-0.1,0.1-0.3,0.3-0.3
		c0.1,0,0.2,0.2,0.3,0.3c0.2,0.3,0.6,0.5,0.7,0.8c0.1,0.2,0.2,0.2,0.4,0.2c0.1,0,0.2,0,0.3,0c0.1,0,0.2-0.1,0.2-0.1
		c0.3-0.5,0.7-0.7,1-1.1c0.1-0.1,0.1-0.1,0.1,0l0,0c0.1,0.1,0.2,0.2,0.2,0.3s-0.2,0.1-0.3,0.2c-0.4,0.7-1,1.2-1.4,1.9
		c-0.1,0.2-0.2,0.2-0.3,0.1c-0.3-0.6-0.8-1-1.2-1.5c-0.2-0.2-0.3-0.5-0.6-0.7C69.3,41.3,69.3,41.3,69.3,41.3z M68.8,41.9
		C68.8,41.8,68.9,41.9,68.8,41.9c0.2,0.1,0.3,0.2,0.3,0.3c0.2,0.3,0.4,0.5,0.6,0.8c-0.5-0.2-0.9-0.5-1.4-0.6
		C68.5,42.2,68.7,42.1,68.8,41.9z M68,46c0-0.6,0.1-1.1,0.2-1.6c0-0.2,0-0.4,0-0.6c0.2,0.2,0.3,0.4,0.4,0.6c0.1,0.1,0.1,0.3,0.1,0.5
		c-0.1,0.5-0.1,1-0.2,1.5c0,0.2-0.1,0.3-0.2,0.4c-0.4,0.4-0.9,0.7-1.2,1.1c0,0.1-0.1,0-0.1,0c-0.3,0-0.6-0.1-0.9-0.1
		c0.4-0.2,0.7-0.5,0.9-0.7c0.3-0.2,0.5-0.5,0.8-0.6C67.9,46.4,68,46.2,68,46z M64.9,47.4c-0.1-0.2,0-0.2,0.2-0.3
		c0.4-0.1,0.8-0.1,1.1-0.2c-0.4,0.3-0.8,0.6-1.1,1C65,47.7,64.9,47.5,64.9,47.4z M66.2,49.7c-0.1,0.1-0.2,0-0.2,0
		c-0.3-0.1-0.6-0.1-0.9-0.1c-0.1,0-0.2-0.1-0.2-0.3s0.1-0.3,0.2-0.5C65.4,49.1,65.8,49.4,66.2,49.7z M67.3,42.9
		c0.2,0,0.3-0.1,0.5-0.1c-0.1,0.5-0.1,1.1-0.2,1.6c-0.1-0.4-0.3-0.8-0.4-1.2C67.1,43.1,67.1,43,67.3,42.9z M65.9,45.6
		C66,45.6,66,45.6,65.9,45.6c0.3-0.1,0.5-0.7,0.4-0.9c-0.2-0.5-0.2-1-0.3-1.5c0-0.1,0-0.1,0.1-0.1c0.2,0,0.4-0.1,0.5,0
		c0.1,0.7,0.4,1.3,0.6,2c0.1,0.2,0.1,0.4,0.2,0.6c0.1,0.2,0,0.3-0.2,0.3c-0.6,0-1.2,0.2-1.8,0.3c-0.3,0.1-0.5,0-0.8,0.2v-0.1
		c-0.1-0.2-0.1-0.3-0.2-0.5c0.2-0.1,0.4-0.2,0.6-0.2C65.3,45.8,65.6,45.6,65.9,45.6z M63.3,43.6c-0.1-0.1,0-0.2,0.1-0.2
		c0.3,0,0.6-0.1,0.9,0c-0.1,0.2,0,0.4,0.1,0.6c0.1,0.2,0,0.3-0.2,0.3s-0.4,0.1-0.5,0.2C63.6,44.1,63.4,43.9,63.3,43.6z M64,45.2
		c-0.1-0.2,0.1-0.2,0.2-0.3c0.2-0.1,0.4-0.1,0.6-0.2c0.3-0.1,0.3-0.2,0.3-0.5c-0.1-0.3-0.2-0.6-0.2-0.9c0-0.1,0.1-0.1,0.2-0.1
		s0.2-0.1,0.3,0.1c0.1,0.3,0.1,0.6,0.2,0.9c0,0.3,0.1,0.5,0.2,0.8c-0.5,0-0.8,0.2-1.2,0.4c-0.1,0-0.1,0-0.2,0.1
		C64.1,45.6,64,45.4,64,45.2z M64.4,52.8c0,0.2-0.1,0.3-0.1,0.5c-0.3,0-0.6-0.1-0.9,0c-0.1,0-0.2-0.1-0.1-0.2
		c0.1-0.3,0.3-0.6,0.4-0.9c0.1,0.2,0.3,0.2,0.5,0.2C64.5,52.5,64.5,52.5,64.4,52.8z M65.4,53.3c0,0.2-0.2,0.1-0.2,0.1
		c-0.1,0-0.2,0.1-0.2-0.1c0-0.3,0.1-0.5,0.1-0.8c0.1-0.4,0-0.5-0.3-0.6c-0.2-0.1-0.4-0.1-0.6-0.2c-0.2-0.1-0.2-0.4-0.1-0.5
		c0.1,0,0.1,0,0.1,0c0.3,0.1,0.5,0.2,0.8,0.3c0.2,0.1,0.4,0.2,0.7,0.2C65.5,52.2,65.5,52.8,65.4,53.3z M66.9,52.2
		c0,0.2-0.1,0.4-0.2,0.6c-0.1,0.2-0.2,0.3-0.1,0.5c0,0.2,0,0.2-0.1,0.1h-0.1c-0.1,0-0.3,0.1-0.3-0.1c0-0.1,0-0.3,0.1-0.4
		c0.1-0.4,0.1-0.8,0.3-1.2c0.1-0.1,0-0.3-0.1-0.4c-0.1-0.1-0.1-0.1-0.1-0.2c0-0.2-0.2-0.3-0.3-0.3c-0.4,0-0.8-0.2-1.2-0.4
		c-0.1,0-0.2-0.1-0.3-0.1c0.1-0.2,0.2-0.4,0.2-0.6c0.3,0.3,0.6,0.2,0.9,0.2c0.6,0.1,1.1,0.3,1.7,0.3c0.2,0,0.2,0.1,0.1,0.3
		C67.2,51.3,67,51.8,66.9,52.2z M67.2,53.7c-0.1,0-0.1-0.2,0-0.3c0.2-0.4,0.3-0.8,0.4-1.3c0.1,0.6,0.1,1.1,0.2,1.7
		C67.5,53.9,67.3,53.7,67.2,53.7z M68,50.6c0-0.2-0.1-0.4-0.3-0.5c-0.6-0.4-1.1-0.9-1.7-1.3c0.4,0,0.7-0.1,1-0.1h0.1
		c0.3,0.4,0.8,0.7,1.2,1.1c0.3,0.3,0.2,0.6,0.3,0.9c0.1,0.4,0,0.9,0.2,1.3c0,0.1,0,0.1-0.1,0.2c-0.2,0.3-0.4,0.5-0.5,0.8
		C68.2,52.1,68,51.4,68,50.6z M68.7,54.6c-0.1-0.1-0.2-0.2-0.3-0.4c0.5-0.1,0.9-0.4,1.4-0.6c-0.3,0.3-0.5,0.7-0.8,1
		C69,54.8,68.9,54.8,68.7,54.6z M71.2,58.1c-0.1,0.1-0.1,0.1-0.2,0c-0.2-0.3-0.3-0.6-0.5-0.9c0.2-0.1,0.3-0.2,0.5-0.4
		c0.1-0.2,0.2-0.1,0.3,0c0.1,0.2,0.3,0.3,0.5,0.4C71.6,57.5,71.4,57.8,71.2,58.1z M72.1,56.6c-0.1,0-0.2,0-0.3-0.1
		c-0.1-0.1-0.3-0.3-0.4-0.4c-0.2-0.2-0.3-0.2-0.6,0c-0.2,0.2-0.3,0.5-0.6,0.6c-0.1,0-0.2,0-0.2-0.1s-0.2-0.2-0.1-0.3
		c0.2-0.2,0.4-0.4,0.6-0.6c0.2-0.2,0.4-0.3,0.5-0.6c0.2,0.4,0.6,0.7,0.9,1c0.1,0.1,0.1,0.1,0.2,0.2C72.3,56.3,72.3,56.6,72.1,56.6z
		 M73,55.3c-0.1,0.1-0.2,0.2-0.3,0.4c0,0.1-0.1,0-0.1,0c-0.3-0.4-0.8-0.6-1-1.1c-0.1-0.2-0.2-0.2-0.4-0.2c-0.1,0-0.1,0-0.2,0
		c-0.2-0.1-0.3,0-0.4,0.2c-0.2,0.5-0.7,0.7-1,1.1c0,0,0,0-0.1,0c0,0,0-0.1-0.1-0.1c-0.1-0.1-0.2-0.2-0.2-0.3c0,0-0.1-0.1,0-0.1
		c0.3-0.1,0.4-0.5,0.6-0.7c0.4-0.5,0.8-0.9,1.1-1.5c0.1-0.1,0.2-0.1,0.3,0c0.3,0.5,0.7,1,1.1,1.5C72.6,54.8,72.7,55.1,73,55.3
		C73,55.2,73,55.3,73,55.3z M73.4,54.7C73.4,54.8,73.3,54.8,73.4,54.7c-0.2,0-0.2-0.1-0.3-0.1c-0.2-0.4-0.5-0.7-0.7-1
		c0.5,0.2,0.9,0.5,1.4,0.6C73.7,54.5,73.5,54.5,73.4,54.7z M74.5,50.1c-0.1,0.1-0.2,0.3-0.2,0.5c0,0.6-0.1,1.1-0.2,1.7
		c0,0.2,0,0.4,0,0.7c-0.2-0.3-0.4-0.6-0.6-0.8v-0.1c0.2-0.6,0.2-1.2,0.3-1.8c0-0.1,0.1-0.2,0.1-0.3c0.4-0.4,0.9-0.7,1.3-1.2h0.1
		c0.3,0,0.6,0.1,0.9,0.1c-0.4,0.2-0.7,0.5-1,0.7C75,49.7,74.8,49.9,74.5,50.1z M75,53.7c-0.5,0.1-0.5,0.1-0.4-0.4
		c0.1-0.4,0-0.8,0.1-1.2c0.1,0.4,0.2,0.9,0.4,1.2C75.2,53.5,75.2,53.7,75,53.7z M76.3,51L76.3,51c-0.3,0.1-0.5,0.7-0.4,0.9
		c0.2,0.5,0.2,1,0.3,1.4c0,0.1,0,0.1-0.1,0.1c-0.2-0.1-0.4,0.2-0.5,0c-0.3-0.9-0.5-1.7-0.8-2.6c-0.1-0.2,0-0.3,0.2-0.3
		c0.6,0,1.2-0.2,1.7-0.3c0.1,0,0.2,0,0.2,0c0.2,0,0.4,0,0.6-0.2v0.1c0.1,0.2,0.1,0.3,0.2,0.5c-0.2,0.1-0.4,0.2-0.6,0.2
		C76.9,50.9,76.6,51.1,76.3,51z M79,53.1c0,0.1,0,0.2-0.1,0.2c-0.3,0-0.6,0.1-1,0c0.1-0.2,0-0.4-0.1-0.6c-0.1-0.2,0-0.3,0.2-0.3
		s0.3-0.1,0.5-0.2C78.7,52.5,78.8,52.8,79,53.1z M77.9,51.2c0.2-0.1,0.3,0.1,0.3,0.2c0.1,0.2-0.1,0.2-0.2,0.3
		c-0.2,0.1-0.4,0.1-0.6,0.2c-0.3,0.1-0.4,0.2-0.3,0.5s0.2,0.6,0.1,0.9c0,0.2-0.1,0.1-0.2,0.1s-0.2,0.1-0.3-0.1
		c-0.1-0.4-0.1-0.7-0.2-1.1c0-0.2-0.1-0.4-0.2-0.6c0.4,0,0.8-0.2,1.2-0.4C77.8,51.3,77.8,51.3,77.9,51.2z M77.2,45.1
		C77,45,76.8,44.9,76.5,45c0.2-0.5,0.2-1,0.3-1.5c0.1-0.3,0.2-0.4,0.4-0.3c0.1,0.1,0.1,0.2,0.1,0.3c0,0.2-0.1,0.5-0.2,0.7
		c-0.1,0.3,0,0.4,0.3,0.5c0.2,0.1,0.4,0.1,0.6,0.2c0.3,0.1,0.3,0.2,0.2,0.5c-0.1,0.1-0.1,0.1-0.2,0.1C77.7,45.3,77.5,45.3,77.2,45.1
		z M84.5,48.8c-0.1,0-0.5-0.3-0.5-0.5s0.3-0.5,0.4-0.5s0.4,0.3,0.4,0.5C84.9,48.4,84.6,48.8,84.5,48.8z"/>
	
		<linearGradient id="SVGID_2_" gradientUnits="userSpaceOnUse" x1="42.709" y1="991.0738" x2="160.805" y2="1185.8394" gradientTransform="matrix(1 0 0 1 0 -990)">
		<stop  offset="0" style="stop-color:#BD955D"/>
		<stop  offset="0.1432" style="stop-color:#EDBC7A"/>
		<stop  offset="0.2882" style="stop-color:#E4B474"/>
		<stop  offset="0.3384" style="stop-color:#CD9F64"/>
		<stop  offset="0.4316" style="stop-color:#A67D4A"/>
		<stop  offset="0.4804" style="stop-color:#977040"/>
		<stop  offset="0.6275" style="stop-color:#FDCA85"/>
		<stop  offset="0.8073" style="stop-color:#EDBC7A"/>
		<stop  offset="0.8905" style="stop-color:#C69A60"/>
		<stop  offset="1" style="stop-color:#977040"/>
	</linearGradient>
	<path class="st4" d="M72.1,48.2c0.1,0,0.2,0,0.3-0.1c0.3-0.3-0.1-0.5-0.1-0.8c0-0.2-0.2-0.2-0.3-0.1c-0.1,0-0.2,0.2-0.2,0.3
		s-0.1,0.1-0.1,0.1c-0.1,0-0.1-0.1,0-0.2c0.1-0.1,0.1-0.2,0.1-0.3s0-0.2-0.1-0.2c-0.2-0.2-0.4,0-0.6-0.1c-0.1-0.1-0.3,0.1-0.3,0.3
		c0,0.1,0,0.1,0,0.2c0,0,0,0.1,0.1,0.1c0.1,0.1,0,0.1,0,0.1c-0.1,0-0.1,0-0.1-0.1c0,0,0-0.1-0.1-0.1c-0.1-0.1-0.2-0.2-0.3-0.2
		c-0.1,0-0.2,0.1-0.2,0.3c0,0.1,0,0.1-0.1,0.2c-0.1,0.1-0.2,0.2-0.1,0.3c0,0.1,0.1,0.2,0.3,0.2h0.1c0.1,0,0.1,0,0.1,0.1
		s0,0.1-0.1,0.1h-0.1c-0.1,0-0.3,0.1-0.3,0.2c0,0.1,0.2,0.6,0.3,0.7c0.1,0.1,0.2,0.1,0.3,0l0.1-0.1c0-0.1,0.1-0.1,0.1-0.2
		c0-0.1,0.1-0.1,0.1-0.1s0.1,0.1,0,0.1c0,0-0.1,0.1-0.1,0.2c-0.1,0.2-0.1,0.3,0.1,0.4c0.1,0.1,0.7,0.1,0.7,0
		c0.1-0.1,0.1-0.3,0.1-0.4c0-0.1-0.1-0.1-0.1-0.2c0-0.1,0-0.1,0-0.1h0.1c0,0,0,0.1,0.1,0.1c0.1,0.1,0.2,0.2,0.3,0.2
		c0.1,0,0.2-0.1,0.2-0.3v-0.1c0.1-0.1,0.2-0.2,0.1-0.4S72.2,48.1,72.1,48.2c-0.2-0.1-0.3-0.1-0.3-0.2C71.9,48.2,72,48.2,72.1,48.2z
		 M71.1,48.6c-0.2,0.1-0.2-0.2-0.3-0.3c0-0.1,0.2-0.3,0.3-0.3c0.2,0,0.2,0.2,0.3,0.3C71.5,48.4,71.2,48.6,71.1,48.6z"/>
</g>
<g>
	
		<radialGradient id="SVGID_3_" cx="-1271.5822" cy="1882.3469" r="7.0396" gradientTransform="matrix(3.0557 2.597069e-02 -2.470711e-02 2.6714 3999.429 -4951.4956)" gradientUnits="userSpaceOnUse">
		<stop  offset="1.983000e-02" style="stop-color:#F8A4A7"/>
		<stop  offset="0.1065" style="stop-color:#F69195"/>
		<stop  offset="0.2814" style="stop-color:#F36167"/>
		<stop  offset="0.503" style="stop-color:#ED1C24"/>
		<stop  offset="0.527" style="stop-color:#E51B23"/>
		<stop  offset="0.6454" style="stop-color:#C0171D"/>
		<stop  offset="0.7082" style="stop-color:#B2151B"/>
		<stop  offset="0.8215" style="stop-color:#770E12"/>
		<stop  offset="0.8663" style="stop-color:#6E0D11"/>
		<stop  offset="0.9408" style="stop-color:#540A0D"/>
		<stop  offset="1" style="stop-color:#3B0709"/>
	</radialGradient>
	<path class="st5" d="M60.9,57.5c1.4,1.4,3.2,2.5,5.1,3.4c2,0.8,4,1.3,6.3,1.3c2.2,0,4.3-0.4,6.3-1.2c2-0.8,3.7-1.8,5.1-3.3
		c1.5-1.3,2.6-3,3.5-4.9c0.8-1.8,1.3-3.9,1.3-6c0-2.1-0.4-4.1-1.2-6c-0.8-1.8-2-3.6-3.5-4.9c-1.4-1.4-3.2-2.5-5.1-3.4
		c-2-0.8-4-1.3-6.3-1.3c-2.2,0-4.3,0.4-6.3,1.2s-3.7,1.8-5.1,3.3c-1.5,1.3-2.6,3-3.5,4.9c-0.8,1.8-1.3,3.9-1.3,6
		c0,2.1,0.4,4.1,1.2,6C58.3,54.4,59.5,56.2,60.9,57.5z"/>
	<g>
		
			<linearGradient id="SVGID_4_" gradientUnits="userSpaceOnUse" x1="72.3096" y1="1018.6428" x2="72.3096" y2="1014.425" gradientTransform="matrix(1 0 0 1 0 -990)">
			<stop  offset="0.2191" style="stop-color:#FFFCDF"/>
			<stop  offset="0.3146" style="stop-color:#FFD67F"/>
			<stop  offset="0.4607" style="stop-color:#B18044"/>
			<stop  offset="0.6124" style="stop-color:#917E5F"/>
			<stop  offset="0.7584" style="stop-color:#D2B586"/>
			<stop  offset="0.8708" style="stop-color:#3F2000"/>
			<stop  offset="1" style="stop-color:#A67033"/>
		</linearGradient>
		<path class="st6" d="M73.8,27c0.2-0.2,0.3-0.5,0.2-0.9c-0.1-0.2-0.3-0.4-0.5-0.5c-0.3-0.2-0.8-0.5-1.2-0.5c-0.2,0-0.3,0.1-0.5,0.2
			c-0.2,0.1-0.5,0.2-0.8,0.4c-0.2,0.2-0.4,0.3-0.4,0.5s0.2,0.5,0.3,0.8c0.2,0.2,0.3,0.5,0.4,0.8c0,0.2,0,0.4-0.1,0.5
			c-0.2,0.5,0.8,0.5,1.2,0.5c0.3,0,1.3,0,1.2-0.5c-0.1-0.2-0.1-0.4-0.1-0.5C73.5,27.5,73.7,27.2,73.8,27z M73.3,28.3L73.3,28.3
			c0,0.2,0,0.2,0,0.3c-0.2,0.2-0.7,0.2-0.9,0.2h-0.1c0,0,0,0-0.1,0c0,0,0,0-0.1,0c0,0,0,0-0.1,0l0,0c-0.2,0-0.7,0-0.9-0.2
			c0,0-0.1-0.1,0-0.2v-0.1c0.1-0.2,0.1-0.3,0.1-0.5c-0.1-0.2-0.2-0.5-0.3-0.8c0,0,0-0.1-0.1-0.1l0,0c-0.1-0.2-0.2-0.4-0.2-0.5
			c0-0.1,0.2-0.3,0.3-0.5c0.2-0.2,0.5-0.3,0.8-0.4c0,0,0.1,0,0.1-0.1c0.2-0.1,0.2-0.2,0.3-0.2c0.3,0,0.8,0.2,1.1,0.5c0,0,0,0,0.1,0
			c0.2,0.2,0.4,0.3,0.5,0.5s-0.1,0.5-0.2,0.7l0,0c0,0,0,0.1-0.1,0.1c-0.2,0.2-0.3,0.4-0.3,0.8C73.3,28,73.3,28.1,73.3,28.3z"/>
		<g>
			
				<linearGradient id="SVGID_5_" gradientUnits="userSpaceOnUse" x1="70.0629" y1="1020.1854" x2="74.6583" y2="1020.1854" gradientTransform="matrix(1 0 0 1 0 -990)">
				<stop  offset="5.617980e-03" style="stop-color:#3F2000"/>
				<stop  offset="3.224839e-02" style="stop-color:#432404"/>
				<stop  offset="6.075462e-02" style="stop-color:#4E3111"/>
				<stop  offset="9.014285e-02" style="stop-color:#604627"/>
				<stop  offset="0.1202" style="stop-color:#7A6445"/>
				<stop  offset="0.1506" style="stop-color:#9B8A6B"/>
				<stop  offset="0.1815" style="stop-color:#C4B89B"/>
				<stop  offset="0.2121" style="stop-color:#F3EFD1"/>
				<stop  offset="0.2191" style="stop-color:#FFFCDF"/>
				<stop  offset="0.3146" style="stop-color:#FFD67F"/>
				<stop  offset="0.4607" style="stop-color:#B18044"/>
				<stop  offset="0.6124" style="stop-color:#917E5F"/>
				<stop  offset="0.7584" style="stop-color:#D2B586"/>
				<stop  offset="0.8708" style="stop-color:#3F2000"/>
				<stop  offset="1" style="stop-color:#A67033"/>
			</linearGradient>
			<path class="st7" d="M74.7,31.5c0,0.2-0.2,0.3-0.4,0.4c-1.2,0.3-2.5,0.3-3.7,0c-0.2-0.1-0.4-0.2-0.4-0.4c0-1,0-2,0-2.9
				c0-0.2,0.2-0.3,0.4-0.3c1.2,0,2.5,0,3.6,0c0.2,0,0.4,0.2,0.4,0.3C74.7,29.4,74.7,30.4,74.7,31.5z"/>
		</g>
	</g>
	<g>
		
			<linearGradient id="SVGID_6_" gradientUnits="userSpaceOnUse" x1="57.9394" y1="1035.7709" x2="86.7082" y2="1035.7709" gradientTransform="matrix(1 0 0 1 0 -990)">
			<stop  offset="5.618000e-03" style="stop-color:#FBC926"/>
			<stop  offset="0.2528" style="stop-color:#FFFBCC"/>
			<stop  offset="0.3045" style="stop-color:#F8F0BB"/>
			<stop  offset="0.4072" style="stop-color:#E7D28E"/>
			<stop  offset="0.55" style="stop-color:#CCA246"/>
			<stop  offset="0.5955" style="stop-color:#C3922E"/>
			<stop  offset="0.8708" style="stop-color:#EED688"/>
			<stop  offset="1" style="stop-color:#FFFBCC"/>
		</linearGradient>
		<polyline class="st8" points="72.3,33.3 67.9,41.5 57.9,42.8 65.2,49.2 63.5,58.2 72.3,54 81.2,58.2 79.6,49.2 86.7,42.8 
			76.7,41.5 72.3,33.3 		"/>
	</g>
</g>
</svg>
